<?xml version="1.0" encoding="UTF-8"?>
<svg id="_图层_1" data-name="图层 1" xmlns="http://www.w3.org/2000/svg" viewBox="0 0 111.4 111.4">
  <defs>
    <style>
      .cls-1 {
        fill: #9d2324;
      }

      .cls-2 {
        fill: #cc261c;
      }

      .cls-3 {
        fill: #681218;
      }
    </style>
  </defs>
  <polygon class="cls-3" points="0 63.62 37.85 60.91 4.51 78.82 40.03 65.65 13.18 92.18 43.51 69.61 25.27 102.54 47.98 72.46 39.83 109.14 53.04 73.93 55.71 111.4 58.34 73.92 71.52 109.15 63.43 72.45 86.12 102.55 67.87 69.63 98.22 92.17 71.35 65.65 106.87 78.86 73.56 60.88 111.4 63.62 74.3 55.72 111.39 47.78 73.54 50.49 106.89 32.57 71.36 45.75 98.21 19.22 67.89 41.79 86.13 8.85 63.41 38.94 71.57 2.26 58.36 37.46 55.68 0 53.05 37.47 39.87 2.25 47.96 38.94 25.27 8.84 43.53 41.77 13.18 19.23 40.05 45.75 4.53 32.54 37.84 50.52 0 47.77 37.09 55.67 0 63.62"/>
  <polygon class="cls-1" points="38.07 58.23 7.93 55.7 38.07 53.17 9.85 42.38 39.49 48.38 15.51 30.12 42.24 44.16 24.41 19.96 46.08 40.86 35.84 12.68 50.67 38.78 48.92 8.88 55.7 38.07 62.48 8.88 60.72 38.78 75.55 12.68 65.32 40.86 86.99 19.96 69.16 44.16 95.88 30.12 71.91 48.38 101.54 42.38 73.32 53.17 103.47 55.7 73.32 58.23 101.54 69.02 71.91 63.02 95.88 81.28 69.16 67.23 86.99 91.43 65.32 70.54 75.56 98.72 60.72 72.62 62.48 102.51 55.7 73.32 48.92 102.51 50.67 72.62 35.84 98.72 46.08 70.54 24.41 91.43 42.24 67.23 15.51 81.28 39.49 63.02 9.85 69.02 38.07 58.23"/>
  <g>
    <polygon class="cls-2" points="55.7 61.09 50.02 94.95 54.15 60.89 39.12 91.62 52.76 60.26 29.41 85.72 51.57 59.23 22.03 77.13 50.72 57.93 17.46 66.81 50.3 56.49 15.47 55.7 50.3 54.9 17.46 44.59 50.72 53.46 22.03 34.26 51.57 52.17 29.41 25.68 52.76 51.14 39.11 19.77 54.15 50.51 50.02 16.45 55.7 50.3 61.38 16.45 57.25 50.51 72.28 19.78 58.63 51.14 81.98 25.68 59.83 52.17 89.37 34.26 60.67 53.46 93.94 44.59 61.1 54.9 95.93 55.7 61.1 56.49 93.94 66.81 60.67 57.93 89.37 77.13 59.83 59.23 81.98 85.72 58.63 60.25 72.28 91.62 57.25 60.89 61.38 94.95 55.7 61.09"/>
    <path class="cls-2" d="M60.25,24.23l-3.06,25.2-.26,2.11.93-1.91,11.03-22.56-10.02,23.02-.85,1.95,1.45-1.58,17.34-18.91-16.45,19.67-1.37,1.64,1.84-1.11,21.83-13.23-21.21,14.19-1.78,1.19,2.07-.55,24.36-6.5-24.05,7.55-2.05.64,2.15.05,25.99.59-25.99.59-2.15.05,2.05.64,24.05,7.55-24.36-6.5-2.07-.55,1.78,1.19,21.21,14.19-21.83-13.23-1.84-1.11,1.37,1.64,16.45,19.67-17.34-18.91-1.45-1.58.85,1.95,10.02,23.02-11.03-22.56-.93-1.91.26,2.11,3.06,25.2-4.2-25.04-.35-2.11-.35,2.11-4.2,25.04,3.06-25.2.26-2.11-.93,1.91-11.03,22.56,10.02-23.02.85-1.95-1.45,1.58-17.34,18.91,16.45-19.67,1.37-1.64-1.84,1.11-21.83,13.23,21.21-14.19,1.78-1.19-2.07.55-24.36,6.5,24.05-7.55,2.05-.64-2.15-.05-25.99-.59,25.99-.59,2.15-.05-2.05-.64-24.05-7.55,24.36,6.5,2.07.55-1.78-1.19-21.21-14.19,21.83,13.23,1.84,1.11-1.37-1.64-16.45-19.67,17.34,18.91,1.45,1.58-.85-1.95-10.02-23.02,11.03,22.56.93,1.91-.26-2.11-3.06-25.2,4.2,25.04.35,2.11.35-2.11,4.2-25.04M62.5,8.66l-6.81,40.56-6.81-40.56,4.95,40.82L35.74,12.47l16.43,37.76-27.92-30.44,26.49,31.67L15.32,29.99l34.41,23.02-40.1-10.7,39.59,12.43-41.52.95,41.52.95-39.59,12.43,40.1-10.7-34.41,23.02,35.42-21.47-26.49,31.67,27.92-30.44-16.43,37.76,18.1-37-4.95,40.82,6.81-40.56,6.81,40.56-4.95-40.82,18.1,37-16.43-37.76,27.92,30.44-26.49-31.67,35.42,21.47-34.41-23.02,40.1,10.7-39.59-12.43,41.52-.95-41.52-.95,39.59-12.43-40.1,10.7,34.41-23.02-35.42,21.47,26.49-31.67-27.92,30.44,16.43-37.76-18.1,37,4.95-40.82h0Z"/>
  </g>
</svg>