<?xml version="1.0" encoding="UTF-8"?>
<svg id="a" data-name="图层 1" xmlns="http://www.w3.org/2000/svg" viewBox="0 0 40 40">
  <polygon points="0 22.84 13.59 21.87 1.62 28.3 14.38 23.57 4.73 33.1 15.62 24.99 9.07 36.82 17.23 26.02 14.3 39.19 19.05 26.55 20.01 40 20.95 26.54 25.68 39.19 22.78 26.02 30.93 36.83 24.37 25 35.27 33.1 25.62 23.57 38.37 28.32 26.41 21.86 40 22.85 26.68 20.01 40 17.16 26.41 18.13 38.38 11.7 25.62 16.43 35.27 6.9 24.38 15.01 30.93 3.18 22.77 13.98 25.7 .81 20.95 13.45 19.99 0 19.05 13.46 14.32 .81 17.22 13.98 9.07 3.17 15.63 15 4.73 6.9 14.38 16.43 1.63 11.68 13.59 18.14 0 17.15 13.32 19.99 0 22.84" fill="#681218"/>
  <polygon points="13.67 20.91 2.85 20 13.67 19.09 3.54 15.22 14.18 17.37 5.57 10.82 15.17 15.86 8.76 7.17 16.55 14.67 12.87 4.55 18.2 13.92 17.57 3.19 20 13.67 22.44 3.19 21.8 13.92 27.13 4.55 23.45 14.67 31.24 7.17 24.83 15.86 34.43 10.82 25.82 17.37 36.46 15.22 26.33 19.09 37.15 20 26.33 20.91 36.46 24.78 25.82 22.63 34.43 29.18 24.83 24.14 31.24 32.83 23.45 25.33 27.13 35.45 21.8 26.08 22.44 36.81 20 26.33 17.57 36.81 18.2 26.08 12.87 35.45 16.55 25.33 8.76 32.83 15.17 24.14 5.57 29.18 14.18 22.63 3.54 24.78 13.67 20.91" fill="#9d2324"/>
  <polygon points="20 21.94 17.96 34.09 19.44 21.86 14.05 32.9 18.95 21.64 10.56 30.78 18.52 21.27 7.91 27.7 18.21 20.8 6.27 23.99 18.06 20.29 5.55 20 18.06 19.71 6.27 16.01 18.21 19.2 7.91 12.3 18.52 18.73 10.56 9.22 18.95 18.36 14.05 7.1 19.44 18.14 17.96 5.91 20 18.06 22.04 5.91 20.56 18.14 25.95 7.1 21.05 18.36 29.44 9.22 21.48 18.73 32.09 12.3 21.79 19.2 33.73 16.01 21.94 19.71 34.45 20 21.94 20.29 33.73 23.99 21.79 20.8 32.09 27.7 21.48 21.27 29.44 30.78 21.05 21.64 25.95 32.9 20.56 21.86 22.04 34.09 20 21.94" fill="#cc261c"/>
</svg>