<?xml version="1.0" encoding="UTF-8"?>
<svg id="a" data-name="图层 1" xmlns="http://www.w3.org/2000/svg" width="400" height="400" viewBox="0 0 400 400">
  <polygon points=".03 228.44 135.92 218.71 16.18 283.05 143.76 235.72 47.34 331 156.23 249.95 90.74 368.21 172.3 260.18 143.02 391.9 190.45 265.47 200.06 400 209.5 265.45 256.82 391.93 227.78 260.16 309.25 368.25 243.7 250.03 352.68 330.96 256.2 235.73 383.75 283.16 264.13 218.6 400 228.46 266.81 200.09 399.97 171.56 264.08 181.29 383.82 116.95 256.24 164.28 352.66 69 243.77 150.05 309.26 31.79 227.7 139.82 256.98 8.1 209.55 134.53 199.94 0 190.5 134.55 143.18 8.07 172.22 139.84 90.75 31.75 156.3 149.97 47.32 69.04 143.8 164.27 16.25 116.84 135.87 181.4 0 171.54 133.19 199.91 .03 228.44" fill="#681218"/>
  <polygon points="136.71 209.08 28.46 200 136.71 190.92 35.38 152.18 141.8 173.72 55.71 108.15 151.67 158.57 87.65 71.68 165.47 146.71 128.7 45.53 181.95 139.24 175.65 31.9 200 136.71 224.36 31.9 218.05 139.24 271.3 45.53 234.54 146.71 312.35 71.68 248.33 158.57 344.29 108.15 258.21 173.72 364.62 152.18 263.29 190.92 371.54 200 263.29 209.08 364.62 247.82 258.21 226.28 344.3 291.85 248.34 241.43 312.35 328.32 234.54 253.29 271.31 354.47 218.05 260.76 224.36 368.1 200 263.29 175.65 368.1 181.95 260.76 128.7 354.47 165.47 253.29 87.65 328.32 151.67 241.43 55.71 291.85 141.8 226.28 35.38 247.82 136.71 209.08" fill="#9d2324"/>
  <g>
    <polygon points="200 219.38 179.6 340.94 194.44 218.63 140.46 328.99 189.46 216.37 105.61 307.8 185.18 212.67 79.1 276.97 182.13 208.03 62.68 239.89 180.61 202.86 55.54 200 180.61 197.14 62.68 160.11 182.13 191.97 79.1 123.03 185.18 187.33 105.61 92.2 189.46 183.63 140.45 71.01 194.44 181.37 179.6 59.06 200 180.62 220.4 59.05 205.56 181.37 259.54 71.01 210.54 183.64 294.39 92.2 214.82 187.33 320.9 123.03 217.87 191.97 337.32 160.11 219.39 197.14 344.46 200 219.39 202.86 337.32 239.89 217.87 208.03 320.9 276.97 214.82 212.67 294.39 307.8 210.54 216.36 259.54 328.99 205.56 218.63 220.4 340.95 200 219.38" fill="#cc261c"/>
    <path d="M216.36,87.02l-10.98,90.49-.92,7.56,3.35-6.86,39.62-81-35.97,82.66-3.05,7.02,5.19-5.66,62.27-67.9-59.08,70.64-4.93,5.9,6.6-4,78.39-47.51-76.15,50.95-6.38,4.27,7.44-1.98,87.48-23.34-86.36,27.12-7.36,2.31,7.72.18,93.32,2.13-93.32,2.13-7.72.18,7.36,2.31,86.36,27.12-87.48-23.34-7.44-1.98,6.38,4.27,76.15,50.95-78.39-47.51-6.6-4,4.93,5.9,59.08,70.64-62.27-67.9-5.19-5.66,3.05,7.02,35.97,82.66-39.62-81-3.35-6.86.92,7.56,10.98,90.49-15.09-89.92-1.27-7.57-1.27,7.57-15.09,89.92,10.98-90.48.92-7.56-3.35,6.86-39.62,81,35.97-82.66,3.05-7.02-5.19,5.66-62.27,67.9,59.08-70.64,4.93-5.9-6.6,4-78.39,47.52,76.15-50.95,6.38-4.27-7.44,1.98-87.48,23.34,86.36-27.12,7.36-2.31-7.72-.18-93.32-2.13,93.32-2.13,7.72-.18-7.36-2.31-86.36-27.12,87.48,23.34,7.44,1.98-6.38-4.27-76.14-50.95,78.39,47.51,6.6,4-4.93-5.9-59.08-70.63,62.27,67.9,5.19,5.66-3.05-7.02-35.97-82.66,39.62,81,3.35,6.86-.92-7.56-10.98-90.49,15.09,89.92,1.27,7.57,1.27-7.57,15.09-89.92M224.44,31.09l-24.44,145.64-24.44-145.64,17.78,146.57L128.35,44.8l59,135.58-100.24-109.31,95.11,113.71L55.03,107.69l123.55,82.67-143.99-38.41,142.15,44.64-149.1,3.4,149.1,3.4-142.15,44.64,143.99-38.41-123.55,82.67,127.19-77.09-95.11,113.71,100.24-109.31-59,135.58,64.99-132.87-17.78,146.57,24.44-145.64,24.44,145.64-17.78-146.57,64.99,132.87-59-135.58,100.24,109.31-95.11-113.71,127.19,77.09-123.55-82.67,143.99,38.41-142.15-44.64,149.1-3.4-149.1-3.4,142.15-44.64-143.99,38.41,123.55-82.67-127.19,77.09,95.11-113.71-100.24,109.31,59-135.59-64.99,132.87,17.78-146.57h0Z" fill="#cc261c"/>
  </g>
</svg>