<?xml version="1.0" encoding="UTF-8"?>
<svg id="a" data-name="图层 1" xmlns="http://www.w3.org/2000/svg" width="400" height="400" viewBox="0 0 400 400">
  <g>
    <g id="b" data-name="&amp;lt;径向重复&amp;gt;">
      <path d="M199.02,398.88c-1.65-4.09-4.43-24.86.98-158.88,5.41,134.02,2.63,154.79.98,158.88-.6,1.5-1.36,1.5-1.96,0Z" fill="#80c489"/>
    </g>
    <g id="c" data-name="&amp;lt;径向重复&amp;gt;">
      <path d="M137.61,388.84c-.3-4.39,3.46-25.01,50.03-150.8-36.26,129.13-45.34,148.02-48.16,151.4-1.04,1.24-1.75,1.01-1.86-.61Z" fill="#80c489"/>
    </g>
    <g id="d" data-name="&amp;lt;径向重复&amp;gt;">
      <path d="M82.31,360.32c1.07-4.27,11.02-22.72,94.18-127.96-74.39,111.6-88.86,126.77-92.59,129.11-1.37.86-1.98.42-1.58-1.15Z" fill="#80c489"/>
    </g>
    <g id="e" data-name="&amp;lt;径向重复&amp;gt;">
      <path d="M38.53,316.1c2.34-3.73,17.51-18.2,129.11-92.59-105.24,83.15-123.68,93.11-127.96,94.18-1.57.39-2.01-.21-1.15-1.58Z" fill="#80c489"/>
    </g>
    <g id="f" data-name="&amp;lt;径向重复&amp;gt;">
      <path d="M10.56,260.52c3.38-2.83,22.27-11.9,151.4-48.16-125.78,46.56-146.4,50.33-150.8,50.03-1.61-.11-1.85-.83-.61-1.86Z" fill="#80c489"/>
    </g>
    <g id="g" data-name="&amp;lt;径向重复&amp;gt;">
      <path d="M1.12,199.02c4.09-1.65,24.86-4.43,158.88.98-134.02,5.41-154.79,2.63-158.88.98-1.5-.6-1.5-1.36,0-1.96Z" fill="#80c489"/>
    </g>
    <g id="h" data-name="&amp;lt;径向重复&amp;gt;">
      <path d="M11.16,137.61c4.39-.3,25.01,3.46,150.8,50.03C32.83,151.37,13.93,142.3,10.56,139.48c-1.24-1.04-1.01-1.75.61-1.86Z" fill="#80c489"/>
    </g>
    <g id="i" data-name="&amp;lt;径向重复&amp;gt;">
      <path d="M39.68,82.31c4.27,1.07,22.72,11.02,127.96,94.18C56.04,102.1,40.87,87.63,38.53,83.9c-.86-1.37-.42-1.98,1.15-1.58Z" fill="#80c489"/>
    </g>
    <g id="j" data-name="&amp;lt;径向重复&amp;gt;">
      <path d="M83.9,38.53c3.73,2.34,18.2,17.51,92.59,129.11C93.34,62.4,83.38,43.96,82.31,39.68c-.39-1.57.21-2.01,1.58-1.15Z" fill="#80c489"/>
    </g>
    <g id="k" data-name="&amp;lt;径向重复&amp;gt;">
      <path d="M139.48,10.56c2.83,3.38,11.9,22.27,48.16,151.4C141.08,36.17,137.31,15.56,137.61,11.16c.11-1.61.83-1.85,1.86-.61Z" fill="#80c489"/>
    </g>
    <g id="l" data-name="&amp;lt;径向重复&amp;gt;">
      <path d="M200.98,1.12c1.65,4.09,4.43,24.86-.98,158.88-5.41-134.02-2.63-154.79-.98-158.88.6-1.5,1.36-1.5,1.96,0Z" fill="#80c489"/>
    </g>
    <g id="m" data-name="&amp;lt;径向重复&amp;gt;">
      <path d="M262.39,11.16c.3,4.39-3.46,25.01-50.03,150.8C248.62,32.83,257.7,13.93,260.52,10.56c1.04-1.24,1.75-1.01,1.86.61Z" fill="#80c489"/>
    </g>
    <g id="n" data-name="&amp;lt;径向重复&amp;gt;">
      <path d="M317.69,39.68c-1.07,4.27-11.02,22.72-94.18,127.96,74.39-111.6,88.86-126.77,92.59-129.11,1.37-.86,1.98-.42,1.58,1.15Z" fill="#80c489"/>
    </g>
    <g id="o" data-name="&amp;lt;径向重复&amp;gt;">
      <path d="M361.47,83.9c-2.34,3.73-17.51,18.2-129.11,92.59,105.24-83.15,123.68-93.11,127.96-94.18,1.57-.39,2.01.21,1.15,1.58Z" fill="#80c489"/>
    </g>
    <g id="p" data-name="&amp;lt;径向重复&amp;gt;">
      <path d="M389.44,139.48c-3.38,2.83-22.27,11.9-151.4,48.16,125.78-46.56,146.4-50.33,150.8-50.03,1.61.11,1.85.83.61,1.86Z" fill="#80c489"/>
    </g>
    <g id="q" data-name="&amp;lt;径向重复&amp;gt;">
      <path d="M398.88,200.98c-4.09,1.65-24.86,4.43-158.88-.98,134.02-5.41,154.79-2.63,158.88-.98,1.5.6,1.5,1.36,0,1.96Z" fill="#80c489"/>
    </g>
    <g id="r" data-name="&amp;lt;径向重复&amp;gt;">
      <path d="M388.84,262.39c-4.39.3-25.01-3.46-150.8-50.03,129.13,36.26,148.02,45.34,151.4,48.16,1.24,1.04,1.01,1.75-.61,1.86Z" fill="#80c489"/>
    </g>
    <g id="s" data-name="&amp;lt;径向重复&amp;gt;">
      <path d="M360.32,317.69c-4.27-1.07-22.72-11.02-127.96-94.18,111.6,74.39,126.77,88.86,129.11,92.59.86,1.37.42,1.98-1.15,1.58Z" fill="#80c489"/>
    </g>
    <g id="t" data-name="&amp;lt;径向重复&amp;gt;">
      <path d="M316.1,361.47c-3.73-2.34-18.2-17.51-92.59-129.11,83.15,105.24,93.11,123.68,94.18,127.96.39,1.57-.21,2.01-1.58,1.15Z" fill="#80c489"/>
    </g>
    <g id="u" data-name="&amp;lt;径向重复&amp;gt;">
      <path d="M260.52,389.44c-2.83-3.38-11.9-22.27-48.16-151.4,46.56,125.78,50.33,146.4,50.03,150.8-.11,1.61-.83,1.85-1.86.61Z" fill="#80c489"/>
    </g>
  </g>
  <g>
    <g id="v" data-name="&amp;lt;径向重复&amp;gt;">
      <path d="M77.96,76.89c3.16,1.34,16.14,11.26,87.01,88.09-76.84-70.87-86.75-83.85-88.09-87.01-.49-1.16-.08-1.57,1.08-1.08Z" fill="#349394"/>
    </g>
    <g id="w" data-name="&amp;lt;径向重复&amp;gt;">
      <path d="M121.98,45.2c2.59,2.26,11.88,15.69,55.53,110.67-51.18-91.14-56.59-106.56-56.89-109.98-.11-1.26.41-1.52,1.36-.69Z" fill="#349394"/>
    </g>
    <g id="x" data-name="&amp;lt;径向重复&amp;gt;">
      <path d="M173.63,28.67c1.76,2.94,6.44,18.59,18.62,122.41-20.51-102.5-20.89-118.83-20.12-122.17.28-1.23.86-1.32,1.51-.24Z" fill="#349394"/>
    </g>
    <g id="y" data-name="&amp;lt;径向重复&amp;gt;">
      <path d="M227.87,28.9c.77,3.35.38,19.68-20.12,122.18,12.17-103.82,16.85-119.47,18.61-122.41.65-1.08,1.23-.99,1.51.24Z" fill="#349394"/>
    </g>
    <g id="z" data-name="&amp;lt;径向重复&amp;gt;">
      <path d="M279.38,45.89c-.3,3.42-5.72,18.83-56.89,109.98,43.66-94.98,52.94-108.42,55.53-110.67.95-.83,1.47-.56,1.36.69Z" fill="#349394"/>
    </g>
    <g id="aa" data-name="&amp;lt;径向重复&amp;gt;">
      <path d="M323.11,77.96c-1.34,3.16-11.26,16.14-88.09,87.01,70.87-76.84,83.85-86.75,87.01-88.09,1.16-.49,1.57-.08,1.08,1.08Z" fill="#349394"/>
    </g>
    <g id="ab" data-name="&amp;lt;径向重复&amp;gt;">
      <path d="M354.8,121.98c-2.26,2.59-15.69,11.88-110.67,55.53,91.14-51.18,106.56-56.59,109.98-56.89,1.26-.11,1.52.41.69,1.36Z" fill="#349394"/>
    </g>
    <g id="ac" data-name="&amp;lt;径向重复&amp;gt;">
      <path d="M371.33,173.63c-2.94,1.76-18.59,6.44-122.41,18.62,102.5-20.51,118.83-20.89,122.17-20.12,1.23.28,1.32.86.24,1.51Z" fill="#349394"/>
    </g>
    <g id="ad" data-name="&amp;lt;径向重复&amp;gt;">
      <path d="M371.1,227.87c-3.35.77-19.68.38-122.18-20.12,103.82,12.17,119.47,16.85,122.41,18.61,1.08.65.99,1.23-.24,1.51Z" fill="#349394"/>
    </g>
    <g id="ae" data-name="&amp;lt;径向重复&amp;gt;">
      <path d="M354.11,279.38c-3.42-.3-18.83-5.72-109.98-56.89,94.98,43.66,108.42,52.94,110.67,55.53.83.95.56,1.47-.69,1.36Z" fill="#349394"/>
    </g>
    <g id="af" data-name="&amp;lt;径向重复&amp;gt;">
      <path d="M322.04,323.12c-3.16-1.34-16.14-11.26-87.01-88.09,76.84,70.87,86.75,83.85,88.09,87.01.49,1.16.08,1.57-1.08,1.08Z" fill="#349394"/>
    </g>
    <g id="ag" data-name="&amp;lt;径向重复&amp;gt;">
      <path d="M278.02,354.8c-2.59-2.26-11.88-15.69-55.53-110.67,51.18,91.14,56.59,106.56,56.89,109.98.11,1.26-.41,1.52-1.36.69Z" fill="#349394"/>
    </g>
    <g id="ah" data-name="&amp;lt;径向重复&amp;gt;">
      <path d="M226.37,371.33c-1.76-2.94-6.44-18.59-18.62-122.41,20.51,102.5,20.89,118.83,20.12,122.17-.28,1.23-.86,1.32-1.51.24Z" fill="#349394"/>
    </g>
    <g id="ai" data-name="&amp;lt;径向重复&amp;gt;">
      <path d="M172.13,371.1c-.77-3.35-.38-19.68,20.12-122.18-12.17,103.82-16.85,119.47-18.61,122.41-.65,1.08-1.23.99-1.51-.24Z" fill="#349394"/>
    </g>
    <g id="aj" data-name="&amp;lt;径向重复&amp;gt;">
      <path d="M120.62,354.11c.3-3.42,5.72-18.83,56.89-109.98-43.66,94.98-52.94,108.42-55.53,110.67-.95.83-1.47.56-1.36-.69Z" fill="#349394"/>
    </g>
    <g id="ak" data-name="&amp;lt;径向重复&amp;gt;">
      <path d="M76.89,322.04c1.34-3.16,11.26-16.14,88.09-87.01-70.87,76.84-83.85,86.75-87.01,88.09-1.16.49-1.57.08-1.08-1.08Z" fill="#349394"/>
    </g>
    <g id="al" data-name="&amp;lt;径向重复&amp;gt;">
      <path d="M45.2,278.02c2.26-2.59,15.69-11.88,110.67-55.53-91.14,51.18-106.56,56.59-109.98,56.89-1.26.11-1.52-.41-.69-1.36Z" fill="#349394"/>
    </g>
    <g id="am" data-name="&amp;lt;径向重复&amp;gt;">
      <path d="M28.67,226.37c2.94-1.76,18.59-6.44,122.41-18.62-102.5,20.51-118.83,20.89-122.17,20.12-1.23-.28-1.32-.86-.24-1.51Z" fill="#349394"/>
    </g>
    <g id="an" data-name="&amp;lt;径向重复&amp;gt;">
      <path d="M28.9,172.13c3.35-.77,19.68-.38,122.18,20.12-103.82-12.17-119.47-16.85-122.41-18.61-1.08-.65-.99-1.23.24-1.51Z" fill="#349394"/>
    </g>
    <g id="ao" data-name="&amp;lt;径向重复&amp;gt;">
      <path d="M45.89,120.62c3.42.3,18.83,5.72,109.98,56.89-94.98-43.66-108.42-52.94-110.67-55.53-.83-.95-.56-1.47.69-1.36Z" fill="#349394"/>
    </g>
  </g>
  <g>
    <g id="ap" data-name="&amp;lt;径向重复&amp;gt;">
      <ellipse cx="200" cy="177.58" rx="4.62" ry="10.04" fill="#c7e3c9"/>
    </g>
    <g id="aq" data-name="&amp;lt;径向重复&amp;gt;">
      <ellipse cx="210.42" cy="180.15" rx="10.04" ry="4.62" transform="translate(-46.88 282.75) rotate(-62.31)" fill="#c7e3c9"/>
    </g>
    <g id="ar" data-name="&amp;lt;径向重复&amp;gt;">
      <ellipse cx="218.45" cy="187.26" rx="10.04" ry="4.62" transform="translate(-67.71 157.24) rotate(-34.62)" fill="#c7e3c9"/>
    </g>
    <g id="as" data-name="&amp;lt;径向重复&amp;gt;">
      <ellipse cx="222.26" cy="197.3" rx="10.04" ry="4.62" transform="translate(-22.16 28.23) rotate(-6.92)" fill="#c7e3c9"/>
    </g>
    <g id="at" data-name="&amp;lt;径向重复&amp;gt;">
      <ellipse cx="220.96" cy="207.95" rx="4.62" ry="10.04" transform="translate(-51.83 340.82) rotate(-69.23)" fill="#c7e3c9"/>
    </g>
    <g id="au" data-name="&amp;lt;径向重复&amp;gt;">
      <ellipse cx="214.87" cy="216.78" rx="4.62" ry="10.04" transform="translate(-89.72 197) rotate(-41.54)" fill="#c7e3c9"/>
    </g>
    <g id="av" data-name="&amp;lt;径向重复&amp;gt;">
      <ellipse cx="205.37" cy="221.77" rx="4.62" ry="10.04" transform="translate(-47.11 55.59) rotate(-13.85)" fill="#c7e3c9"/>
    </g>
    <g id="aw" data-name="&amp;lt;径向重复&amp;gt;">
      <ellipse cx="194.63" cy="221.77" rx="10.04" ry="4.62" transform="translate(-67.27 357.68) rotate(-76.15)" fill="#c7e3c9"/>
    </g>
    <g id="ax" data-name="&amp;lt;径向重复&amp;gt;">
      <ellipse cx="185.13" cy="216.78" rx="10.04" ry="4.62" transform="translate(-99.9 211.6) rotate(-48.46)" fill="#c7e3c9"/>
    </g>
    <g id="ay" data-name="&amp;lt;径向重复&amp;gt;">
      <ellipse cx="179.04" cy="207.95" rx="10.04" ry="4.62" transform="translate(-62.11 77) rotate(-20.77)" fill="#c7e3c9"/>
    </g>
    <g id="az" data-name="&amp;lt;径向重复&amp;gt;">
      <ellipse cx="177.74" cy="197.3" rx="4.62" ry="10.04" transform="translate(-39.54 349.96) rotate(-83.08)" fill="#c7e3c9"/>
    </g>
    <g id="ba" data-name="&amp;lt;径向重复&amp;gt;">
      <ellipse cx="181.55" cy="187.26" rx="4.62" ry="10.04" transform="translate(-75.7 230.3) rotate(-55.38)" fill="#c7e3c9"/>
    </g>
    <g id="bb" data-name="&amp;lt;径向重复&amp;gt;">
      <ellipse cx="189.58" cy="180.15" rx="4.62" ry="10.04" transform="translate(-62 108.74) rotate(-27.69)" fill="#c7e3c9"/>
    </g>
  </g>
</svg>