<?xml version="1.0" encoding="UTF-8"?>
<svg id="a" data-name="图层 1" xmlns="http://www.w3.org/2000/svg" width="39.97" height="39.97" viewBox="0 0 39.97 39.97">
  <g>
    <g id="b" data-name="&amp;lt;径向重复&amp;gt;">
      <path d="M16.54,23.43c-.12-.12-.11-.31.03-.42.26-.2.52-.41.78-.61.29-.23.58-.45.86-.68,0,0,.02,0,.03,0,0,0,0,.02,0,.03l-1.29,1.65c-.1.13-.3.14-.42.03Z" fill="#ef8026"/>
    </g>
    <g id="c" data-name="&amp;lt;径向重复&amp;gt;">
      <path d="M15.64,22.2c-.08-.15,0-.33.15-.39.31-.11.62-.23.93-.34.34-.13.69-.25,1.03-.38.01,0,.02,0,.03.01,0,0,0,.02,0,.03l-1.73,1.17c-.14.09-.33.04-.4-.1Z" fill="#ef8026"/>
    </g>
    <g id="d" data-name="&amp;lt;径向重复&amp;gt;">
      <path d="M15.17,20.75c-.03-.16.1-.32.26-.32.33-.01.66-.02.99-.03.37-.01.73-.03,1.1-.04.01,0,.02,0,.02.02,0,0,0,.02-.02.02l-2.01.58c-.16.05-.32-.06-.35-.22Z" fill="#ef8026"/>
    </g>
    <g id="e" data-name="&amp;lt;径向重复&amp;gt;">
      <path d="M15.17,19.22c.03-.16.19-.27.35-.22.32.09.64.18.95.27.35.1.7.2,1.05.3.01,0,.02.01.02.02,0,0,0,.02-.02.02l-2.09-.07c-.17,0-.29-.16-.26-.32Z" fill="#ef8026"/>
    </g>
    <g id="f" data-name="&amp;lt;径向重复&amp;gt;">
      <path d="M15.64,17.77c.08-.15.26-.2.4-.1.27.19.55.37.82.56.3.2.61.41.91.61,0,0,.01.02,0,.03,0,0-.01.01-.03.01l-1.96-.72c-.16-.06-.23-.24-.15-.39Z" fill="#ef8026"/>
    </g>
    <g id="g" data-name="&amp;lt;径向重复&amp;gt;">
      <path d="M16.54,16.54c.12-.12.31-.11.42.03.2.26.41.52.61.78.23.29.45.58.68.86,0,0,0,.02,0,.03,0,0-.02,0-.03,0l-1.65-1.29c-.13-.1-.14-.3-.03-.42Z" fill="#ef8026"/>
    </g>
    <g id="h" data-name="&amp;lt;径向重复&amp;gt;">
      <path d="M17.77,15.64c.15-.08.33,0,.39.15.11.31.23.62.34.93.13.34.25.69.38,1.03,0,.01,0,.02-.01.03,0,0-.02,0-.03,0l-1.17-1.73c-.09-.14-.04-.33.1-.4Z" fill="#ef8026"/>
    </g>
    <g id="i" data-name="&amp;lt;径向重复&amp;gt;">
      <path d="M19.22,15.17c.16-.03.32.1.32.26.01.33.02.66.03.99.01.37.03.73.04,1.1,0,.01,0,.02-.02.02,0,0-.02,0-.02-.02l-.58-2.01c-.05-.16.06-.32.22-.35Z" fill="#ef8026"/>
    </g>
    <g id="j" data-name="&amp;lt;径向重复&amp;gt;">
      <path d="M20.75,15.17c.16.03.27.19.22.35-.09.32-.18.64-.27.95-.1.35-.2.7-.3,1.05,0,.01-.01.02-.02.02,0,0-.02,0-.02-.02l.07-2.09c0-.17.16-.29.32-.26Z" fill="#ef8026"/>
    </g>
    <g id="k" data-name="&amp;lt;径向重复&amp;gt;">
      <path d="M22.2,15.64c.15.08.2.26.1.4-.19.27-.37.55-.56.82-.2.3-.41.61-.61.91,0,0-.02.01-.03,0,0,0-.01-.01-.01-.03l.72-1.96c.06-.16.24-.23.39-.15Z" fill="#ef8026"/>
    </g>
    <g id="l" data-name="&amp;lt;径向重复&amp;gt;">
      <path d="M23.43,16.54c.12.12.11.31-.03.42-.26.2-.52.41-.78.61-.29.23-.58.45-.86.68,0,0-.02,0-.03,0,0,0,0-.02,0-.03l1.29-1.65c.1-.13.3-.14.42-.03Z" fill="#ef8026"/>
    </g>
    <g id="m" data-name="&amp;lt;径向重复&amp;gt;">
      <path d="M24.33,17.77c.08.15,0,.33-.15.39-.31.11-.62.23-.93.34-.34.13-.69.25-1.03.38-.01,0-.02,0-.03-.01,0,0,0-.02,0-.03l1.73-1.17c.14-.09.33-.04.4.1Z" fill="#ef8026"/>
    </g>
    <g id="n" data-name="&amp;lt;径向重复&amp;gt;">
      <path d="M24.8,19.22c.03.16-.1.32-.26.32-.33.01-.66.02-.99.03-.37.01-.73.03-1.1.04-.01,0-.02,0-.02-.02,0,0,0-.02.02-.02l2.01-.58c.16-.05.32.06.35.22Z" fill="#ef8026"/>
    </g>
    <g id="o" data-name="&amp;lt;径向重复&amp;gt;">
      <path d="M24.8,20.75c-.03.16-.19.27-.35.22-.32-.09-.64-.18-.95-.27-.35-.1-.7-.2-1.05-.3-.01,0-.02-.01-.02-.02,0,0,0-.02.02-.02l2.09.07c.17,0,.29.16.26.32Z" fill="#ef8026"/>
    </g>
    <g id="p" data-name="&amp;lt;径向重复&amp;gt;">
      <path d="M24.33,22.2c-.08.15-.26.2-.4.1-.27-.19-.55-.37-.82-.56-.3-.2-.61-.41-.91-.61,0,0-.01-.02,0-.03,0,0,.01-.01.03-.01l1.96.72c.16.06.23.24.15.39Z" fill="#ef8026"/>
    </g>
    <g id="q" data-name="&amp;lt;径向重复&amp;gt;">
      <path d="M23.43,23.43c-.12.12-.31.11-.42-.03-.2-.26-.41-.52-.61-.78-.23-.29-.45-.58-.68-.86,0,0,0-.02,0-.03,0,0,.02,0,.03,0l1.65,1.29c.13.1.14.3.03.42Z" fill="#ef8026"/>
    </g>
    <g id="r" data-name="&amp;lt;径向重复&amp;gt;">
      <path d="M22.2,24.33c-.15.08-.33,0-.39-.15-.11-.31-.23-.62-.34-.93-.13-.34-.25-.69-.38-1.03,0-.01,0-.02.01-.03,0,0,.02,0,.03,0l1.17,1.73c.09.14.04.33-.1.4Z" fill="#ef8026"/>
    </g>
    <g id="s" data-name="&amp;lt;径向重复&amp;gt;">
      <path d="M20.75,24.8c-.16.03-.32-.1-.32-.26-.01-.33-.02-.66-.03-.99-.01-.37-.03-.73-.04-1.1,0-.01,0-.02.02-.02,0,0,.02,0,.02.02l.58,2.01c.05.16-.06.32-.22.35Z" fill="#ef8026"/>
    </g>
    <g id="t" data-name="&amp;lt;径向重复&amp;gt;">
      <path d="M19.22,24.8c-.16-.03-.27-.19-.22-.35.09-.32.18-.64.27-.95.1-.35.2-.7.3-1.05,0-.01.01-.02.02-.02,0,0,.02,0,.02.02l-.07,2.09c0,.17-.16.29-.32.26Z" fill="#ef8026"/>
    </g>
    <g id="u" data-name="&amp;lt;径向重复&amp;gt;">
      <path d="M17.77,24.33c-.15-.08-.2-.26-.1-.4.19-.27.37-.55.56-.82.2-.3.41-.61.61-.91,0,0,.02-.01.03,0,0,0,.01.01.01.03l-.72,1.96c-.06.16-.24.23-.39.15Z" fill="#ef8026"/>
    </g>
  </g>
  <g>
    <g id="v" data-name="&amp;lt;径向重复&amp;gt;">
      <path d="M9.79,30.18c-.35-.35-.31-.92.08-1.23.77-.6,1.54-1.21,2.31-1.81.85-.67,1.7-1.33,2.55-2,.03-.02.06-.02.08,0,.02.02.03.05,0,.08l-3.8,4.87c-.3.39-.88.42-1.23.08Z" fill="#f8ca78"/>
    </g>
    <g id="w" data-name="&amp;lt;径向重复&amp;gt;">
      <path d="M7.14,26.53c-.22-.44-.01-.98.45-1.14.92-.33,1.84-.67,2.76-1,1.02-.37,2.03-.74,3.05-1.11.03-.01.06,0,.08.03.01.03,0,.06-.02.08l-5.12,3.45c-.41.28-.97.13-1.19-.31Z" fill="#f8ca78"/>
    </g>
    <g id="x" data-name="&amp;lt;径向重复&amp;gt;">
      <path d="M5.75,22.24c-.08-.49.29-.93.78-.95.98-.03,1.96-.07,2.93-.1,1.08-.04,2.16-.08,3.24-.11.03,0,.06.02.06.05,0,.03,0,.06-.05.07l-5.94,1.7c-.47.14-.96-.17-1.04-.66Z" fill="#f8ca78"/>
    </g>
    <g id="y" data-name="&amp;lt;径向重复&amp;gt;">
      <path d="M5.75,17.73c.08-.49.56-.8,1.04-.66.94.27,1.88.54,2.82.81,1.04.3,2.08.6,3.12.89.03,0,.05.04.05.07,0,.03-.03.05-.06.05l-6.17-.22c-.49-.02-.86-.46-.78-.95Z" fill="#f8ca78"/>
    </g>
    <g id="z" data-name="&amp;lt;径向重复&amp;gt;">
      <path d="M7.14,13.44c.22-.44.78-.58,1.19-.31.81.55,1.62,1.09,2.43,1.64.9.6,1.79,1.21,2.69,1.81.03.02.04.05.02.08-.01.03-.04.04-.08.03l-5.81-2.11c-.46-.17-.67-.71-.45-1.14Z" fill="#f8ca78"/>
    </g>
    <g id="aa" data-name="&amp;lt;径向重复&amp;gt;">
      <path d="M9.79,9.79c.35-.35.92-.31,1.23.08.6.77,1.21,1.54,1.81,2.31.67.85,1.33,1.7,2,2.55.02.03.02.06,0,.08-.02.02-.05.03-.08,0l-4.87-3.8c-.39-.3-.42-.88-.08-1.23Z" fill="#f8ca78"/>
    </g>
    <g id="ab" data-name="&amp;lt;径向重复&amp;gt;">
      <path d="M13.44,7.14c.44-.22.98-.01,1.14.45.33.92.67,1.84,1,2.76.37,1.02.74,2.03,1.11,3.05.01.03,0,.06-.03.08-.03.01-.06,0-.08-.02l-3.45-5.12c-.28-.41-.13-.97.31-1.19Z" fill="#f8ca78"/>
    </g>
    <g id="ac" data-name="&amp;lt;径向重复&amp;gt;">
      <path d="M17.73,5.75c.49-.08.93.29.95.78.03.98.07,1.96.1,2.93.04,1.08.08,2.16.11,3.24,0,.03-.02.06-.05.06-.03,0-.06,0-.07-.05l-1.7-5.94c-.14-.47.17-.96.66-1.04Z" fill="#f8ca78"/>
    </g>
    <g id="ad" data-name="&amp;lt;径向重复&amp;gt;">
      <path d="M22.24,5.75c.49.08.8.56.66,1.04-.27.94-.54,1.88-.81,2.82-.3,1.04-.6,2.08-.89,3.12,0,.03-.04.05-.07.05-.03,0-.05-.03-.05-.06l.22-6.17c.02-.49.46-.86.95-.78Z" fill="#f8ca78"/>
    </g>
    <g id="ae" data-name="&amp;lt;径向重复&amp;gt;">
      <path d="M26.53,7.14c.44.22.58.78.31,1.19-.55.81-1.09,1.62-1.64,2.43-.6.9-1.21,1.79-1.81,2.69-.02.03-.05.04-.08.02-.03-.01-.04-.04-.03-.08l2.11-5.81c.17-.46.71-.67,1.14-.45Z" fill="#f8ca78"/>
    </g>
    <g id="af" data-name="&amp;lt;径向重复&amp;gt;">
      <path d="M30.18,9.79c.35.35.31.92-.08,1.23-.77.6-1.54,1.21-2.31,1.81-.85.67-1.7,1.33-2.55,2-.03.02-.06.02-.08,0-.02-.02-.03-.05,0-.08l3.8-4.87c.3-.39.88-.42,1.23-.08Z" fill="#f8ca78"/>
    </g>
    <g id="ag" data-name="&amp;lt;径向重复&amp;gt;">
      <path d="M32.83,13.44c.22.44.01.98-.45,1.14-.92.33-1.84.67-2.76,1-1.02.37-2.03.74-3.05,1.11-.03.01-.06,0-.08-.03-.01-.03,0-.06.02-.08l5.12-3.45c.41-.28.97-.13,1.19.31Z" fill="#f8ca78"/>
    </g>
    <g id="ah" data-name="&amp;lt;径向重复&amp;gt;">
      <path d="M34.22,17.73c.08.49-.29.93-.78.95-.98.03-1.96.07-2.93.1-1.08.04-2.16.08-3.24.11-.03,0-.06-.02-.06-.05,0-.03,0-.06.05-.07l5.94-1.7c.47-.14.96.17,1.04.66Z" fill="#f8ca78"/>
    </g>
    <g id="ai" data-name="&amp;lt;径向重复&amp;gt;">
      <path d="M34.22,22.24c-.08.49-.56.8-1.04.66-.94-.27-1.88-.54-2.82-.81-1.04-.3-2.08-.6-3.12-.89-.03,0-.05-.04-.05-.07,0-.03.03-.05.06-.05l6.17.22c.49.02.86.46.78.95Z" fill="#f8ca78"/>
    </g>
    <g id="aj" data-name="&amp;lt;径向重复&amp;gt;">
      <path d="M32.83,26.53c-.22.44-.78.58-1.19.31-.81-.55-1.62-1.09-2.43-1.64-.9-.6-1.79-1.21-2.69-1.81-.03-.02-.04-.05-.02-.08.01-.03.04-.04.08-.03l5.81,2.11c.46.17.67.71.45,1.14Z" fill="#f8ca78"/>
    </g>
    <g id="ak" data-name="&amp;lt;径向重复&amp;gt;">
      <path d="M30.18,30.18c-.35.35-.92.31-1.23-.08-.6-.77-1.21-1.54-1.81-2.31-.67-.85-1.33-1.7-2-2.55-.02-.03-.02-.06,0-.08.02-.02.05-.03.08,0l4.87,3.8c.39.3.42.88.08,1.23Z" fill="#f8ca78"/>
    </g>
    <g id="al" data-name="&amp;lt;径向重复&amp;gt;">
      <path d="M26.53,32.83c-.44.22-.98.01-1.14-.45-.33-.92-.67-1.84-1-2.76-.37-1.02-.74-2.03-1.11-3.05-.01-.03,0-.06.03-.08.03-.01.06,0,.08.02l3.45,5.12c.28.41.13.97-.31,1.19Z" fill="#f8ca78"/>
    </g>
    <g id="am" data-name="&amp;lt;径向重复&amp;gt;">
      <path d="M22.24,34.22c-.49.08-.93-.29-.95-.78-.03-.98-.07-1.96-.1-2.93-.04-1.08-.08-2.16-.11-3.24,0-.03.02-.06.05-.06.03,0,.06,0,.07.05l1.7,5.94c.14.47-.17.96-.66,1.04Z" fill="#f8ca78"/>
    </g>
    <g id="an" data-name="&amp;lt;径向重复&amp;gt;">
      <path d="M17.73,34.22c-.49-.08-.8-.56-.66-1.04.27-.94.54-1.88.81-2.82.3-1.04.6-2.08.89-3.12,0-.03.04-.05.07-.05.03,0,.05.03.05.06l-.22,6.17c-.02.49-.46.86-.95.78Z" fill="#f8ca78"/>
    </g>
    <g id="ao" data-name="&amp;lt;径向重复&amp;gt;">
      <path d="M13.44,32.83c-.44-.22-.58-.78-.31-1.19.55-.81,1.09-1.62,1.64-2.43.6-.9,1.21-1.79,1.81-2.69.02-.03.05-.04.08-.02.03.01.04.04.03.08l-2.11,5.81c-.17.46-.71.67-1.14.45Z" fill="#f8ca78"/>
    </g>
  </g>
  <g>
    <g id="ap" data-name="&amp;lt;径向重复&amp;gt;">
      <polygon points="19.51 39.97 19.98 26.09 20.46 39.97 19.51 39.97" fill="#e9562a"/>
    </g>
    <g id="aq" data-name="&amp;lt;径向重复&amp;gt;">
      <polygon points="13.36 38.84 18.1 25.79 14.26 39.14 13.36 38.84" fill="#e9562a"/>
    </g>
    <g id="ar" data-name="&amp;lt;径向重复&amp;gt;">
      <polygon points="7.85 35.87 16.39 24.92 8.62 36.43 7.85 35.87" fill="#e9562a"/>
    </g>
    <g id="as" data-name="&amp;lt;径向重复&amp;gt;">
      <polygon points="3.54 31.35 15.04 23.57 4.1 32.11 3.54 31.35" fill="#e9562a"/>
    </g>
    <g id="at" data-name="&amp;lt;径向重复&amp;gt;">
      <polygon points=".83 25.71 14.18 21.87 1.12 26.61 .83 25.71" fill="#e9562a"/>
    </g>
    <g id="au" data-name="&amp;lt;径向重复&amp;gt;">
      <polygon points="0 19.51 13.88 19.98 0 20.46 0 19.51" fill="#e9562a"/>
    </g>
    <g id="av" data-name="&amp;lt;径向重复&amp;gt;">
      <polygon points="1.12 13.36 14.18 18.1 .83 14.26 1.12 13.36" fill="#e9562a"/>
    </g>
    <g id="aw" data-name="&amp;lt;径向重复&amp;gt;">
      <polygon points="4.1 7.85 15.04 16.39 3.54 8.62 4.1 7.85" fill="#e9562a"/>
    </g>
    <g id="ax" data-name="&amp;lt;径向重复&amp;gt;">
      <polygon points="8.62 3.54 16.4 15.04 7.85 4.1 8.62 3.54" fill="#e9562a"/>
    </g>
    <g id="ay" data-name="&amp;lt;径向重复&amp;gt;">
      <polygon points="14.26 .83 18.1 14.18 13.36 1.12 14.26 .83" fill="#e9562a"/>
    </g>
    <g id="az" data-name="&amp;lt;径向重复&amp;gt;">
      <polygon points="20.46 0 19.98 13.88 19.51 0 20.46 0" fill="#e9562a"/>
    </g>
    <g id="ba" data-name="&amp;lt;径向重复&amp;gt;">
      <polygon points="26.61 1.12 21.87 14.18 25.71 .83 26.61 1.12" fill="#e9562a"/>
    </g>
    <g id="bb" data-name="&amp;lt;径向重复&amp;gt;">
      <polygon points="32.11 4.1 23.57 15.04 31.35 3.54 32.11 4.1" fill="#e9562a"/>
    </g>
    <g id="bc" data-name="&amp;lt;径向重复&amp;gt;">
      <polygon points="36.43 8.62 24.92 16.4 35.87 7.85 36.43 8.62" fill="#e9562a"/>
    </g>
    <g id="bd" data-name="&amp;lt;径向重复&amp;gt;">
      <polygon points="39.14 14.26 25.79 18.1 38.84 13.36 39.14 14.26" fill="#e9562a"/>
    </g>
    <g id="be" data-name="&amp;lt;径向重复&amp;gt;">
      <polygon points="39.97 20.46 26.09 19.98 39.97 19.51 39.97 20.46" fill="#e9562a"/>
    </g>
    <g id="bf" data-name="&amp;lt;径向重复&amp;gt;">
      <polygon points="38.84 26.61 25.79 21.87 39.14 25.71 38.84 26.61" fill="#e9562a"/>
    </g>
    <g id="bg" data-name="&amp;lt;径向重复&amp;gt;">
      <polygon points="35.87 32.11 24.92 23.57 36.43 31.35 35.87 32.11" fill="#e9562a"/>
    </g>
    <g id="bh" data-name="&amp;lt;径向重复&amp;gt;">
      <polygon points="31.35 36.43 23.57 24.92 32.11 35.87 31.35 36.43" fill="#e9562a"/>
    </g>
    <g id="bi" data-name="&amp;lt;径向重复&amp;gt;">
      <polygon points="25.71 39.14 21.87 25.79 26.61 38.84 25.71 39.14" fill="#e9562a"/>
    </g>
  </g>
</svg>