<?xml version="1.0" encoding="UTF-8"?>
<svg id="a" data-name="图层 1" xmlns="http://www.w3.org/2000/svg" width="400" height="400" viewBox="0 0 400 400">
  <g>
    <g id="b" data-name="&amp;lt;径向重复&amp;gt;">
      <path d="M165.49,234.51c-1.18-1.18-1.06-3.13.25-4.16,2.61-2.04,5.22-4.08,7.83-6.12,2.88-2.25,5.77-4.51,8.65-6.76.08-.07.21-.06.28.02.07.07.1.18.02.28l-12.88,16.48c-1.03,1.32-2.98,1.44-4.16.25Z" fill="#ef8026"/>
    </g>
    <g id="c" data-name="&amp;lt;径向重复&amp;gt;">
      <path d="M156.51,222.16c-.76-1.49-.04-3.3,1.53-3.88,3.11-1.13,6.23-2.27,9.34-3.4,3.44-1.25,6.88-2.5,10.32-3.76.1-.04.22,0,.26.1.04.09.03.2-.07.27l-17.34,11.7c-1.38.93-3.27.45-4.03-1.04Z" fill="#ef8026"/>
    </g>
    <g id="d" data-name="&amp;lt;径向重复&amp;gt;">
      <path d="M151.79,207.63c-.26-1.65.98-3.16,2.65-3.21,3.31-.12,6.62-.23,9.93-.35,3.66-.13,7.31-.26,10.97-.38.11,0,.2.07.22.18.02.1-.03.2-.15.24l-20.11,5.76c-1.61.46-3.25-.59-3.51-2.24Z" fill="#ef8026"/>
    </g>
    <g id="e" data-name="&amp;lt;径向重复&amp;gt;">
      <path d="M151.8,192.36c.26-1.65,1.91-2.7,3.51-2.24,3.19.91,6.37,1.83,9.56,2.74,3.52,1.01,7.04,2.02,10.55,3.03.1.03.17.13.15.24-.02.1-.09.18-.22.18l-20.91-.73c-1.67-.06-2.91-1.56-2.65-3.21Z" fill="#ef8026"/>
    </g>
    <g id="f" data-name="&amp;lt;径向重复&amp;gt;">
      <path d="M156.51,177.85c.76-1.49,2.65-1.98,4.03-1.04,2.75,1.85,5.49,3.71,8.24,5.56,3.03,2.05,6.07,4.09,9.1,6.14.09.06.12.18.07.27-.04.09-.15.15-.26.1l-19.66-7.16c-1.57-.57-2.29-2.39-1.53-3.88Z" fill="#ef8026"/>
    </g>
    <g id="g" data-name="&amp;lt;径向重复&amp;gt;">
      <path d="M165.49,165.49c1.18-1.18,3.13-1.06,4.16.25,2.04,2.61,4.08,5.22,6.12,7.83,2.25,2.88,4.51,5.77,6.76,8.65.07.08.06.21-.02.28-.07.07-.18.1-.28.02l-16.48-12.88c-1.32-1.03-1.44-2.98-.25-4.16Z" fill="#ef8026"/>
    </g>
    <g id="h" data-name="&amp;lt;径向重复&amp;gt;">
      <path d="M177.84,156.51c1.49-.76,3.3-.04,3.88,1.53,1.13,3.11,2.27,6.23,3.4,9.34,1.25,3.44,2.5,6.88,3.76,10.32.04.1,0,.22-.1.26-.09.04-.2.03-.27-.07l-11.7-17.34c-.93-1.38-.45-3.27,1.04-4.03Z" fill="#ef8026"/>
    </g>
    <g id="i" data-name="&amp;lt;径向重复&amp;gt;">
      <path d="M192.37,151.79c1.65-.26,3.16.98,3.21,2.65.12,3.31.23,6.62.35,9.93.13,3.66.26,7.31.38,10.97,0,.11-.07.2-.18.22-.1.02-.2-.03-.24-.15l-5.76-20.11c-.46-1.61.59-3.25,2.24-3.51Z" fill="#ef8026"/>
    </g>
    <g id="j" data-name="&amp;lt;径向重复&amp;gt;">
      <path d="M207.63,151.8c1.65.26,2.7,1.91,2.24,3.51-.91,3.19-1.83,6.37-2.74,9.56-1.01,3.52-2.02,7.04-3.03,10.55-.03.1-.13.17-.24.15-.1-.02-.18-.09-.18-.22l.73-20.91c.06-1.67,1.56-2.91,3.21-2.65Z" fill="#ef8026"/>
    </g>
    <g id="k" data-name="&amp;lt;径向重复&amp;gt;">
      <path d="M222.16,156.52c1.49.76,1.98,2.65,1.04,4.03-1.85,2.75-3.71,5.49-5.56,8.24-2.05,3.03-4.09,6.07-6.14,9.1-.06.09-.18.12-.27.07-.09-.04-.15-.15-.1-.26l7.16-19.66c.57-1.57,2.39-2.29,3.88-1.53Z" fill="#ef8026"/>
    </g>
    <g id="l" data-name="&amp;lt;径向重复&amp;gt;">
      <path d="M234.51,165.49c1.18,1.18,1.06,3.13-.25,4.16-2.61,2.04-5.22,4.08-7.83,6.12-2.88,2.25-5.77,4.51-8.65,6.76-.08.07-.21.06-.28-.02-.07-.07-.1-.18-.02-.28l12.88-16.48c1.03-1.32,2.98-1.44,4.16-.25Z" fill="#ef8026"/>
    </g>
    <g id="m" data-name="&amp;lt;径向重复&amp;gt;">
      <path d="M243.49,177.84c.76,1.49.04,3.3-1.53,3.88-3.11,1.13-6.23,2.27-9.34,3.4-3.44,1.25-6.88,2.5-10.32,3.76-.1.04-.22,0-.26-.1-.04-.09-.03-.2.07-.27l17.34-11.7c1.38-.93,3.27-.45,4.03,1.04Z" fill="#ef8026"/>
    </g>
    <g id="n" data-name="&amp;lt;径向重复&amp;gt;">
      <path d="M248.21,192.37c.26,1.65-.98,3.16-2.65,3.21-3.31.12-6.62.23-9.93.35-3.66.13-7.31.26-10.97.38-.11,0-.2-.07-.22-.18-.02-.1.03-.2.15-.24l20.11-5.76c1.61-.46,3.25.59,3.51,2.24Z" fill="#ef8026"/>
    </g>
    <g id="o" data-name="&amp;lt;径向重复&amp;gt;">
      <path d="M248.2,207.63c-.26,1.65-1.91,2.7-3.51,2.24-3.19-.91-6.37-1.83-9.56-2.74-3.52-1.01-7.04-2.02-10.55-3.03-.1-.03-.17-.13-.15-.24.02-.1.09-.18.22-.18l20.91.73c1.67.06,2.91,1.56,2.65,3.21Z" fill="#ef8026"/>
    </g>
    <g id="p" data-name="&amp;lt;径向重复&amp;gt;">
      <path d="M243.48,222.16c-.76,1.49-2.65,1.98-4.03,1.04-2.75-1.85-5.49-3.71-8.24-5.56-3.03-2.05-6.07-4.09-9.1-6.14-.09-.06-.12-.18-.07-.27.04-.09.15-.15.26-.1l19.66,7.16c1.57.57,2.29,2.39,1.53,3.88Z" fill="#ef8026"/>
    </g>
    <g id="q" data-name="&amp;lt;径向重复&amp;gt;">
      <path d="M234.51,234.51c-1.18,1.18-3.13,1.06-4.16-.25-2.04-2.61-4.08-5.22-6.12-7.83-2.25-2.88-4.51-5.77-6.76-8.65-.07-.08-.06-.21.02-.28.07-.07.18-.1.28-.02l16.48,12.88c1.32,1.03,1.44,2.98.25,4.16Z" fill="#ef8026"/>
    </g>
    <g id="r" data-name="&amp;lt;径向重复&amp;gt;">
      <path d="M222.16,243.49c-1.49.76-3.3.04-3.88-1.53-1.13-3.11-2.27-6.23-3.4-9.34-1.25-3.44-2.5-6.88-3.76-10.32-.04-.1,0-.22.1-.26.09-.04.2-.03.27.07l11.7,17.34c.93,1.38.45,3.27-1.04,4.03Z" fill="#ef8026"/>
    </g>
    <g id="s" data-name="&amp;lt;径向重复&amp;gt;">
      <path d="M207.63,248.21c-1.65.26-3.16-.98-3.21-2.65-.12-3.31-.23-6.62-.35-9.93-.13-3.66-.26-7.31-.38-10.97,0-.11.07-.2.18-.22.1-.02.2.03.24.15l5.76,20.11c.46,1.61-.59,3.25-2.24,3.51Z" fill="#ef8026"/>
    </g>
    <g id="t" data-name="&amp;lt;径向重复&amp;gt;">
      <path d="M192.36,248.21c-1.65-.26-2.7-1.91-2.24-3.51.91-3.19,1.83-6.37,2.74-9.56,1.01-3.52,2.02-7.04,3.03-10.55.03-.1.13-.17.24-.15.1.02.18.09.18.22l-.73,20.91c-.06,1.67-1.56,2.91-3.21,2.65Z" fill="#ef8026"/>
    </g>
    <g id="u" data-name="&amp;lt;径向重复&amp;gt;">
      <path d="M177.85,243.49c-1.49-.76-1.98-2.65-1.04-4.03,1.85-2.75,3.71-5.49,5.56-8.24,2.05-3.03,4.09-6.07,6.14-9.1.06-.09.18-.12.27-.07.09.04.15.15.1.26l-7.16,19.66c-.57,1.57-2.39,2.29-3.88,1.53Z" fill="#ef8026"/>
    </g>
  </g>
  <g>
    <g id="v" data-name="&amp;lt;径向重复&amp;gt;">
      <path d="M98,302.01c-3.49-3.49-3.14-9.25.75-12.29,7.72-6.03,15.43-12.06,23.15-18.09,8.52-6.66,17.05-13.32,25.57-19.98.25-.2.61-.17.84.05.21.21.28.54.05.84l-38.07,48.72c-3.04,3.89-8.8,4.24-12.29.75Z" fill="#f8ca78"/>
    </g>
    <g id="w" data-name="&amp;lt;径向重复&amp;gt;">
      <path d="M71.46,265.48c-2.24-4.4-.13-9.77,4.51-11.46,9.2-3.35,18.41-6.7,27.61-10.05,10.16-3.7,20.33-7.4,30.49-11.1.3-.11.64.02.78.31.13.26.1.6-.21.81l-51.26,34.57c-4.09,2.76-9.68,1.32-11.92-3.08Z" fill="#f8ca78"/>
    </g>
    <g id="x" data-name="&amp;lt;径向重复&amp;gt;">
      <path d="M57.52,222.56c-.77-4.88,2.9-9.33,7.83-9.5,9.79-.34,19.58-.68,29.36-1.03,10.81-.38,21.62-.76,32.43-1.13.32-.01.6.22.65.53.05.29-.09.6-.45.71l-59.44,17.04c-4.75,1.36-9.61-1.74-10.38-6.62Z" fill="#f8ca78"/>
    </g>
    <g id="y" data-name="&amp;lt;径向重复&amp;gt;">
      <path d="M57.52,177.44c.77-4.88,5.64-7.98,10.38-6.62,9.41,2.7,18.83,5.4,28.24,8.1,10.4,2.98,20.8,5.96,31.19,8.94.31.09.5.39.45.71-.05.29-.27.55-.65.53l-61.79-2.16c-4.93-.17-8.6-4.63-7.83-9.5Z" fill="#f8ca78"/>
    </g>
    <g id="z" data-name="&amp;lt;径向重复&amp;gt;">
      <path d="M71.47,134.51c2.24-4.4,7.83-5.84,11.92-3.08,8.12,5.48,16.24,10.95,24.36,16.43,8.97,6.05,17.94,12.1,26.9,18.14.26.18.35.53.21.81-.13.26-.43.43-.78.31l-58.1-21.15c-4.64-1.69-6.75-7.06-4.51-11.46Z" fill="#f8ca78"/>
    </g>
    <g id="aa" data-name="&amp;lt;径向重复&amp;gt;">
      <path d="M97.99,98c3.49-3.49,9.25-3.14,12.29.75,6.03,7.72,12.06,15.43,18.09,23.15,6.66,8.52,13.32,17.05,19.98,25.57.2.25.17.61-.05.84-.21.21-.54.28-.84.05l-48.72-38.07c-3.89-3.04-4.24-8.8-.75-12.29Z" fill="#f8ca78"/>
    </g>
    <g id="ab" data-name="&amp;lt;径向重复&amp;gt;">
      <path d="M134.51,71.46c4.4-2.24,9.77-.13,11.46,4.51,3.35,9.2,6.7,18.41,10.05,27.61,3.7,10.16,7.4,20.33,11.1,30.49.11.3-.02.64-.31.78-.26.13-.6.1-.81-.21l-34.57-51.26c-2.76-4.09-1.32-9.68,3.08-11.92Z" fill="#f8ca78"/>
    </g>
    <g id="ac" data-name="&amp;lt;径向重复&amp;gt;">
      <path d="M177.43,57.52c4.88-.77,9.33,2.9,9.5,7.83.34,9.79.68,19.58,1.03,29.36.38,10.81.76,21.62,1.13,32.43.01.32-.22.6-.53.65-.29.05-.6-.09-.71-.45l-17.04-59.44c-1.36-4.75,1.74-9.61,6.62-10.38Z" fill="#f8ca78"/>
    </g>
    <g id="ad" data-name="&amp;lt;径向重复&amp;gt;">
      <path d="M222.57,57.52c4.88.77,7.98,5.64,6.62,10.38-2.7,9.41-5.4,18.83-8.1,28.24-2.98,10.4-5.96,20.8-8.94,31.19-.09.31-.39.5-.71.45-.29-.05-.55-.27-.53-.65l2.16-61.79c.17-4.93,4.63-8.6,9.5-7.83Z" fill="#f8ca78"/>
    </g>
    <g id="ae" data-name="&amp;lt;径向重复&amp;gt;">
      <path d="M265.49,71.47c4.4,2.24,5.84,7.83,3.08,11.92-5.48,8.12-10.95,16.24-16.43,24.36-6.05,8.97-12.1,17.94-18.14,26.9-.18.26-.53.35-.81.21-.26-.13-.43-.43-.31-.78l21.15-58.1c1.69-4.64,7.06-6.75,11.46-4.51Z" fill="#f8ca78"/>
    </g>
    <g id="af" data-name="&amp;lt;径向重复&amp;gt;">
      <path d="M302,97.99c3.49,3.49,3.14,9.25-.75,12.29-7.72,6.03-15.43,12.06-23.15,18.09-8.52,6.66-17.05,13.32-25.57,19.98-.25.2-.61.17-.84-.05-.21-.21-.28-.54-.05-.84l38.07-48.72c3.04-3.89,8.8-4.24,12.29-.75Z" fill="#f8ca78"/>
    </g>
    <g id="ag" data-name="&amp;lt;径向重复&amp;gt;">
      <path d="M328.53,134.51c2.24,4.4.13,9.77-4.51,11.46-9.2,3.35-18.41,6.7-27.61,10.05-10.16,3.7-20.33,7.4-30.49,11.1-.3.11-.64-.02-.78-.31-.13-.26-.1-.6.21-.81l51.26-34.57c4.09-2.76,9.68-1.32,11.92,3.08Z" fill="#f8ca78"/>
    </g>
    <g id="ah" data-name="&amp;lt;径向重复&amp;gt;">
      <path d="M342.48,177.43c.77,4.88-2.9,9.33-7.83,9.5-9.79.34-19.58.68-29.36,1.03-10.81.38-21.62.76-32.43,1.13-.32.01-.6-.22-.65-.53-.05-.29.09-.6.45-.71l59.44-17.04c4.75-1.36,9.61,1.74,10.38,6.62Z" fill="#f8ca78"/>
    </g>
    <g id="ai" data-name="&amp;lt;径向重复&amp;gt;">
      <path d="M342.48,222.56c-.77,4.88-5.64,7.98-10.38,6.62-9.41-2.7-18.83-5.4-28.24-8.1-10.4-2.98-20.8-5.96-31.19-8.94-.31-.09-.5-.39-.45-.71.05-.29.27-.55.65-.53l61.79,2.16c4.93.17,8.6,4.63,7.83,9.5Z" fill="#f8ca78"/>
    </g>
    <g id="aj" data-name="&amp;lt;径向重复&amp;gt;">
      <path d="M328.53,265.49c-2.24,4.4-7.83,5.84-11.92,3.08-8.12-5.48-16.24-10.95-24.36-16.43-8.97-6.05-17.94-12.1-26.9-18.14-.26-.18-.35-.53-.21-.81.13-.26.43-.43.78-.31l58.1,21.15c4.64,1.69,6.75,7.06,4.51,11.46Z" fill="#f8ca78"/>
    </g>
    <g id="ak" data-name="&amp;lt;径向重复&amp;gt;">
      <path d="M302.01,302c-3.49,3.49-9.25,3.14-12.29-.75-6.03-7.72-12.06-15.43-18.09-23.15-6.66-8.52-13.32-17.05-19.98-25.57-.2-.25-.17-.61.05-.84.21-.21.54-.28.84-.05l48.72,38.07c3.89,3.04,4.24,8.8.75,12.29Z" fill="#f8ca78"/>
    </g>
    <g id="al" data-name="&amp;lt;径向重复&amp;gt;">
      <path d="M265.49,328.53c-4.4,2.24-9.77.13-11.46-4.51-3.35-9.2-6.7-18.41-10.05-27.61-3.7-10.16-7.4-20.33-11.1-30.49-.11-.3.02-.64.31-.78.26-.13.6-.1.81.21l34.57,51.26c2.76,4.09,1.32,9.68-3.08,11.92Z" fill="#f8ca78"/>
    </g>
    <g id="am" data-name="&amp;lt;径向重复&amp;gt;">
      <path d="M222.56,342.48c-4.88.77-9.33-2.9-9.5-7.83-.34-9.79-.68-19.58-1.03-29.36-.38-10.81-.76-21.62-1.13-32.43-.01-.32.22-.6.53-.65.29-.05.6.09.71.45l17.04,59.44c1.36,4.75-1.74,9.61-6.62,10.38Z" fill="#f8ca78"/>
    </g>
    <g id="an" data-name="&amp;lt;径向重复&amp;gt;">
      <path d="M177.44,342.48c-4.88-.77-7.98-5.64-6.62-10.38,2.7-9.41,5.4-18.83,8.1-28.24,2.98-10.4,5.96-20.8,8.94-31.19.09-.31.39-.5.71-.45.29.05.55.27.53.65l-2.16,61.79c-.17,4.93-4.63,8.6-9.5,7.83Z" fill="#f8ca78"/>
    </g>
    <g id="ao" data-name="&amp;lt;径向重复&amp;gt;">
      <path d="M134.51,328.53c-4.4-2.24-5.84-7.83-3.08-11.92,5.48-8.12,10.95-16.24,16.43-24.36,6.05-8.97,12.1-17.94,18.14-26.9.18-.26.53-.35.81-.21.26.13.43.43.31.78l-21.15,58.1c-1.69,4.64-7.06,6.75-11.46,4.51Z" fill="#f8ca78"/>
    </g>
  </g>
  <g>
    <g id="ap" data-name="&amp;lt;径向重复&amp;gt;">
      <polygon points="195.26 400 200 261.11 204.74 400 195.26 400" fill="#e9562a"/>
    </g>
    <g id="aq" data-name="&amp;lt;径向重复&amp;gt;">
      <polygon points="133.69 388.74 181.11 258.11 142.7 391.67 133.69 388.74" fill="#e9562a"/>
    </g>
    <g id="ar" data-name="&amp;lt;径向重复&amp;gt;">
      <polygon points="78.61 359.01 164.08 249.43 86.28 364.59 78.61 359.01" fill="#e9562a"/>
    </g>
    <g id="as" data-name="&amp;lt;径向重复&amp;gt;">
      <polygon points="35.41 313.72 150.56 235.91 40.98 321.39 35.41 313.72" fill="#e9562a"/>
    </g>
    <g id="at" data-name="&amp;lt;径向重复&amp;gt;">
      <polygon points="8.32 257.3 141.88 218.88 11.25 266.31 8.32 257.3" fill="#e9562a"/>
    </g>
    <g id="au" data-name="&amp;lt;径向重复&amp;gt;">
      <polygon points="0 195.26 138.89 200 0 204.74 0 195.26" fill="#e9562a"/>
    </g>
    <g id="av" data-name="&amp;lt;径向重复&amp;gt;">
      <polygon points="11.25 133.68 141.88 181.11 8.32 142.7 11.25 133.68" fill="#e9562a"/>
    </g>
    <g id="aw" data-name="&amp;lt;径向重复&amp;gt;">
      <polygon points="40.98 78.61 150.56 164.08 35.41 86.28 40.98 78.61" fill="#e9562a"/>
    </g>
    <g id="ax" data-name="&amp;lt;径向重复&amp;gt;">
      <polygon points="86.28 35.41 164.08 150.56 78.61 40.98 86.28 35.41" fill="#e9562a"/>
    </g>
    <g id="ay" data-name="&amp;lt;径向重复&amp;gt;">
      <polygon points="142.71 8.32 181.12 141.89 133.69 11.25 142.71 8.32" fill="#e9562a"/>
    </g>
    <g id="az" data-name="&amp;lt;径向重复&amp;gt;">
      <polygon points="204.74 0 200 138.89 195.26 0 204.74 0" fill="#e9562a"/>
    </g>
    <g id="ba" data-name="&amp;lt;径向重复&amp;gt;">
      <polygon points="266.31 11.25 218.88 141.89 257.29 8.32 266.31 11.25" fill="#e9562a"/>
    </g>
    <g id="bb" data-name="&amp;lt;径向重复&amp;gt;">
      <polygon points="321.39 40.98 235.92 150.56 313.72 35.41 321.39 40.98" fill="#e9562a"/>
    </g>
    <g id="bc" data-name="&amp;lt;径向重复&amp;gt;">
      <polygon points="364.59 86.28 249.44 164.08 359.02 78.61 364.59 86.28" fill="#e9562a"/>
    </g>
    <g id="bd" data-name="&amp;lt;径向重复&amp;gt;">
      <polygon points="391.67 142.71 258.11 181.12 388.74 133.69 391.67 142.71" fill="#e9562a"/>
    </g>
    <g id="be" data-name="&amp;lt;径向重复&amp;gt;">
      <polygon points="400 204.74 261.11 200 400 195.26 400 204.74" fill="#e9562a"/>
    </g>
    <g id="bf" data-name="&amp;lt;径向重复&amp;gt;">
      <polygon points="388.74 266.31 258.11 218.88 391.67 257.29 388.74 266.31" fill="#e9562a"/>
    </g>
    <g id="bg" data-name="&amp;lt;径向重复&amp;gt;">
      <polygon points="359.01 321.39 249.43 235.92 364.59 313.72 359.01 321.39" fill="#e9562a"/>
    </g>
    <g id="bh" data-name="&amp;lt;径向重复&amp;gt;">
      <polygon points="313.72 364.59 235.92 249.44 321.39 359.02 313.72 364.59" fill="#e9562a"/>
    </g>
    <g id="bi" data-name="&amp;lt;径向重复&amp;gt;">
      <polygon points="257.3 391.68 218.88 258.12 266.31 388.75 257.3 391.68" fill="#e9562a"/>
    </g>
  </g>
</svg>