<?xml version="1.0" encoding="UTF-8"?>
<svg id="a" data-name="图层 1" xmlns="http://www.w3.org/2000/svg" width="40.06" height="40.06" viewBox="0 0 40.06 40.06">
  <g>
    <path d="M20.05,35.09c.27,0,.51-3.6.51-6.57,0-2.98-.24-6.57-.51-6.57-.27,0-.55,3.48-.55,6.53,0,3.1.28,6.61.55,6.6Z" fill="#ffd824"/>
    <path d="M14.28,33.95c.25.1,1.85-3.13,2.99-5.87,1.14-2.75,2.29-6.16,2.04-6.26-.25-.1-1.84,3-3.01,5.83-1.19,2.86-2.27,6.21-2.02,6.31Z" fill="#ffd824"/>
    <path d="M9.39,30.69c.19.19,2.91-2.18,5.01-4.28,2.11-2.11,4.47-4.82,4.28-5.01-.19-.19-2.85,2.07-5.01,4.23-2.19,2.19-4.47,4.87-4.28,5.06Z" fill="#ffd824"/>
    <path d="M6.12,25.81c.1.25,3.52-.9,6.27-2.04,2.75-1.14,5.97-2.74,5.87-2.99-.1-.25-3.43.82-6.25,1.99-2.86,1.18-5.99,2.79-5.89,3.04Z" fill="#ffd824"/>
    <path d="M4.97,20.05c0,.27,3.6.51,6.57.51,2.98,0,6.57-.24,6.57-.51,0-.27-3.48-.55-6.53-.55-3.1,0-6.61.28-6.6.55Z" fill="#ffd824"/>
    <path d="M6.11,14.28c-.1.25,3.13,1.85,5.87,2.99,2.75,1.14,6.16,2.29,6.26,2.04.1-.25-3-1.84-5.83-3.01-2.86-1.19-6.21-2.27-6.31-2.02Z" fill="#ffd824"/>
    <path d="M9.37,9.4c-.19.19,2.18,2.91,4.28,5.01,2.11,2.11,4.82,4.47,5.01,4.28.19-.19-2.07-2.85-4.23-5.01-2.19-2.19-4.87-4.47-5.06-4.28Z" fill="#ffd824"/>
    <path d="M14.25,6.13c-.25.1.9,3.52,2.04,6.27,1.14,2.75,2.74,5.97,2.99,5.87.25-.1-.82-3.43-1.99-6.25-1.18-2.86-2.79-5.99-3.04-5.89Z" fill="#ffd824"/>
    <path d="M20.01,4.97c-.27,0-.51,3.6-.51,6.57,0,2.98.24,6.57.51,6.57.27,0,.55-3.48.55-6.53,0-3.1-.28-6.61-.55-6.6Z" fill="#ffd824"/>
    <path d="M25.78,6.11c-.25-.1-1.85,3.13-2.99,5.87-1.14,2.75-2.29,6.16-2.04,6.26.25.1,1.84-3,3.01-5.83,1.19-2.86,2.27-6.21,2.02-6.31Z" fill="#ffd824"/>
    <path d="M30.67,9.37c-.19-.19-2.91,2.18-5.01,4.28-2.11,2.11-4.47,4.82-4.28,5.01.19.19,2.85-2.07,5.01-4.23,2.19-2.19,4.47-4.87,4.28-5.06Z" fill="#ffd824"/>
    <path d="M33.94,14.25c-.1-.25-3.52.9-6.27,2.04-2.75,1.14-5.97,2.74-5.87,2.99.1.25,3.43-.82,6.25-1.99,2.86-1.18,5.99-2.79,5.89-3.04Z" fill="#ffd824"/>
    <path d="M35.09,20.01c0-.27-3.6-.51-6.57-.51-2.98,0-6.57.24-6.57.51,0,.27,3.48.55,6.53.55,3.1,0,6.61-.28,6.6-.55Z" fill="#ffd824"/>
    <path d="M33.95,25.78c.1-.25-3.13-1.85-5.87-2.99-2.75-1.14-6.16-2.29-6.26-2.04-.1.25,3,1.84,5.83,3.01,2.86,1.19,6.21,2.27,6.31,2.02Z" fill="#ffd824"/>
    <path d="M30.69,30.67c.19-.19-2.18-2.91-4.28-5.01-2.11-2.11-4.82-4.47-5.01-4.28-.19.19,2.07,2.85,4.23,5.01,2.19,2.19,4.87,4.47,5.06,4.28Z" fill="#ffd824"/>
    <path d="M25.81,33.94c.25-.1-.9-3.52-2.04-6.27-1.14-2.75-2.74-5.97-2.99-5.87-.25.1.82,3.43,1.99,6.25,1.18,2.86,2.79,5.99,3.04,5.89Z" fill="#ffd824"/>
  </g>
  <g>
    <path d="M18.87,26.18c.19.04.04,1.03-.09,3.94-.01.26-.24,5.33-1.38,6.91-.1.14-.38.53-.65.48-.26-.05-.38-.48-.42-.64-.52-1.88,1.2-6.97,1.2-6.97.94-2.79,1.16-3.76,1.35-3.73Z" fill="#faf5ca"/>
    <path d="M16.61,25.27c.16.1-.35.97-1.59,3.61-.11.24-2.26,4.83-3.92,5.86-.15.09-.56.34-.79.19-.22-.14-.16-.59-.14-.75.24-1.94,3.77-5.98,3.77-5.98,1.93-2.22,2.52-3.03,2.68-2.93Z" fill="#faf5ca"/>
    <path d="M14.86,23.56c.11.16-.7.76-2.85,2.72-.2.18-3.94,3.6-5.87,3.91-.17.03-.65.1-.8-.12-.15-.22.07-.61.15-.75.97-1.7,5.77-4.08,5.77-4.08,2.63-1.31,3.49-1.84,3.59-1.68Z" fill="#faf5ca"/>
    <path d="M13.9,21.32c.04.19-.93.43-3.68,1.43-.25.09-5.02,1.82-6.91,1.37-.17-.04-.64-.15-.69-.42-.05-.26.3-.53.43-.63,1.54-1.2,6.89-1.56,6.89-1.56,2.93-.2,3.92-.36,3.96-.18Z" fill="#faf5ca"/>
    <path d="M13.88,18.87c-.04.19-1.03.04-3.94-.09-.26-.01-5.33-.24-6.91-1.38-.14-.1-.53-.38-.48-.65.05-.26.48-.38.64-.42,1.88-.52,6.97,1.2,6.97,1.2,2.79.94,3.76,1.16,3.73,1.35Z" fill="#faf5ca"/>
    <path d="M14.79,16.61c-.1.16-.97-.35-3.61-1.59-.24-.11-4.83-2.26-5.86-3.92-.09-.15-.34-.56-.19-.79.14-.22.59-.16.75-.14,1.94.24,5.98,3.77,5.98,3.77,2.22,1.93,3.03,2.52,2.93,2.68Z" fill="#faf5ca"/>
    <path d="M16.5,14.86c-.16.11-.76-.7-2.72-2.85-.18-.2-3.6-3.94-3.91-5.87-.03-.17-.1-.65.12-.8.22-.15.61.07.75.15,1.7.97,4.08,5.77,4.08,5.77,1.31,2.63,1.84,3.49,1.68,3.59Z" fill="#faf5ca"/>
    <path d="M18.74,13.9c-.19.04-.43-.93-1.43-3.68-.09-.25-1.82-5.02-1.37-6.91.04-.17.15-.64.42-.69.26-.05.53.3.63.43,1.2,1.54,1.56,6.89,1.56,6.89.2,2.93.36,3.92.18,3.96Z" fill="#faf5ca"/>
    <path d="M21.19,13.88c-.19-.04-.04-1.03.09-3.94.01-.26.24-5.33,1.38-6.91.1-.14.38-.53.65-.48.26.05.38.48.42.64.52,1.88-1.2,6.97-1.2,6.97-.94,2.79-1.16,3.76-1.35,3.73Z" fill="#faf5ca"/>
    <path d="M23.45,14.79c-.16-.1.35-.97,1.59-3.61.11-.24,2.26-4.83,3.92-5.86.15-.09.56-.34.79-.19.22.14.16.59.14.75-.24,1.94-3.77,5.98-3.77,5.98-1.93,2.22-2.52,3.03-2.68,2.93Z" fill="#faf5ca"/>
    <path d="M25.2,16.5c-.11-.16.7-.76,2.85-2.72.2-.18,3.94-3.6,5.87-3.91.17-.03.65-.1.8.12.15.22-.07.61-.15.75-.97,1.7-5.77,4.08-5.77,4.08-2.63,1.31-3.49,1.84-3.59,1.68Z" fill="#faf5ca"/>
    <path d="M26.16,18.74c-.04-.19.93-.43,3.68-1.43.25-.09,5.02-1.82,6.91-1.37.17.04.64.15.69.42.05.26-.3.53-.43.63-1.54,1.2-6.89,1.56-6.89,1.56-2.93.2-3.92.36-3.96.18Z" fill="#faf5ca"/>
    <path d="M26.18,21.19c.04-.19,1.03-.04,3.94.09.26.01,5.33.24,6.91,1.38.14.1.53.38.48.65-.05.26-.48.38-.64.42-1.88.52-6.97-1.2-6.97-1.2-2.79-.94-3.76-1.16-3.73-1.35Z" fill="#faf5ca"/>
    <path d="M25.27,23.45c.1-.16.97.35,3.61,1.59.24.11,4.83,2.26,5.86,3.92.09.15.34.56.19.79-.14.22-.59.16-.75.14-1.94-.24-5.98-3.77-5.98-3.77-2.22-1.93-3.03-2.52-2.93-2.68Z" fill="#faf5ca"/>
    <path d="M23.56,25.2c.16-.11.76.7,2.72,2.85.18.2,3.6,3.94,3.91,5.87.03.17.1.65-.12.8-.22.15-.61-.07-.75-.15-1.7-.97-4.08-5.77-4.08-5.77-1.31-2.63-1.84-3.49-1.68-3.59Z" fill="#faf5ca"/>
    <path d="M21.32,26.16c.19-.04.43.93,1.43,3.68.09.25,1.82,5.02,1.37,6.91-.04.17-.15.64-.42.69-.26.05-.53-.3-.63-.43-1.2-1.54-1.56-6.89-1.56-6.89-.2-2.93-.36-3.92-.18-3.96Z" fill="#faf5ca"/>
  </g>
  <g>
    <g id="b" data-name="&amp;lt;径向重复&amp;gt;">
      <path d="M14.19,34.22c.07.03-.07.41-.35,1.56-.03.1-.53,2.1-1.11,2.64-.05.05-.2.18-.3.14-.1-.04-.11-.22-.12-.29-.05-.79,1.04-2.67,1.04-2.67.6-1.03.77-1.4.84-1.37Z" fill="#f3bb1f"/>
    </g>
    <g id="c" data-name="&amp;lt;径向重复&amp;gt;">
      <path d="M9.2,30.91c.05.05-.22.36-.92,1.31-.06.09-1.29,1.74-2.03,2.01-.07.02-.25.09-.33.01-.08-.08-.02-.25,0-.31.25-.75,1.98-2.07,1.98-2.07.95-.73,1.25-1,1.3-.95Z" fill="#f3bb1f"/>
    </g>
    <g id="d" data-name="&amp;lt;径向重复&amp;gt;">
      <path d="M5.86,25.93c.03.07-.34.24-1.35.85-.09.06-1.86,1.11-2.65,1.08-.07,0-.27-.01-.31-.11-.04-.1.08-.24.12-.29.52-.6,2.63-1.16,2.63-1.16,1.15-.31,1.53-.45,1.56-.38Z" fill="#f3bb1f"/>
    </g>
    <g id="e" data-name="&amp;lt;径向重复&amp;gt;">
      <path d="M4.68,20.06c0,.08-.41.1-1.58.27-.11.02-2.14.32-2.86-.01-.06-.03-.24-.11-.24-.22,0-.11.16-.19.22-.22.71-.35,2.87-.06,2.87-.06,1.18.16,1.59.17,1.59.25Z" fill="#f3bb1f"/>
    </g>
    <g id="f" data-name="&amp;lt;径向重复&amp;gt;">
      <path d="M5.84,14.19c-.03.07-.41-.07-1.56-.35-.1-.03-2.1-.53-2.64-1.11-.05-.05-.18-.2-.14-.3.04-.1.22-.11.29-.12.79-.05,2.67,1.04,2.67,1.04,1.03.6,1.4.77,1.37.84Z" fill="#f3bb1f"/>
    </g>
    <g id="g" data-name="&amp;lt;径向重复&amp;gt;">
      <path d="M9.15,9.2c-.05.05-.36-.22-1.31-.92-.09-.06-1.74-1.29-2.01-2.03-.02-.07-.09-.25-.01-.33.08-.08.25-.02.31,0,.75.25,2.07,1.98,2.07,1.98.73.95,1,1.25.95,1.3Z" fill="#f3bb1f"/>
    </g>
    <g id="h" data-name="&amp;lt;径向重复&amp;gt;">
      <path d="M14.13,5.86c-.07.03-.24-.34-.85-1.35-.06-.09-1.11-1.86-1.08-2.65,0-.07.01-.27.11-.31.1-.04.24.08.29.12.6.52,1.16,2.63,1.16,2.63.31,1.15.45,1.53.38,1.56Z" fill="#f3bb1f"/>
    </g>
    <g id="i" data-name="&amp;lt;径向重复&amp;gt;">
      <path d="M20,4.68c-.08,0-.1-.41-.27-1.58-.02-.11-.32-2.14.01-2.86.03-.06.11-.24.22-.24.11,0,.19.16.22.22.35.71.06,2.87.06,2.87-.16,1.18-.17,1.59-.25,1.59Z" fill="#f3bb1f"/>
    </g>
    <g id="j" data-name="&amp;lt;径向重复&amp;gt;">
      <path d="M25.87,5.84c-.07-.03.07-.41.35-1.56.03-.1.53-2.1,1.11-2.64.05-.05.2-.18.3-.14.1.04.11.22.12.29.05.79-1.04,2.67-1.04,2.67-.6,1.03-.77,1.4-.84,1.37Z" fill="#f3bb1f"/>
    </g>
    <g id="k" data-name="&amp;lt;径向重复&amp;gt;">
      <path d="M30.86,9.15c-.05-.05.22-.36.92-1.31.06-.09,1.29-1.74,2.03-2.01.07-.02.25-.09.33-.01.08.08.02.25,0,.31-.25.75-1.98,2.07-1.98,2.07-.95.73-1.25,1-1.3.95Z" fill="#f3bb1f"/>
    </g>
    <g id="l" data-name="&amp;lt;径向重复&amp;gt;">
      <path d="M34.2,14.13c-.03-.07.34-.24,1.35-.85.09-.06,1.86-1.11,2.65-1.08.07,0,.27.01.31.11.04.1-.08.24-.12.29-.52.6-2.63,1.16-2.63,1.16-1.15.31-1.53.45-1.56.38Z" fill="#f3bb1f"/>
    </g>
    <g id="m" data-name="&amp;lt;径向重复&amp;gt;">
      <path d="M35.38,20c0-.08.41-.1,1.58-.27.11-.02,2.14-.32,2.86.01.06.03.24.11.24.22,0,.11-.16.19-.22.22-.71.35-2.87.06-2.87.06-1.18-.16-1.59-.17-1.59-.25Z" fill="#f3bb1f"/>
    </g>
    <g id="n" data-name="&amp;lt;径向重复&amp;gt;">
      <path d="M34.22,25.87c.03-.07.41.07,1.56.35.1.03,2.1.53,2.64,1.11.05.05.18.2.14.3-.04.1-.22.11-.29.12-.79.05-2.67-1.04-2.67-1.04-1.03-.6-1.4-.77-1.37-.84Z" fill="#f3bb1f"/>
    </g>
    <g id="o" data-name="&amp;lt;径向重复&amp;gt;">
      <path d="M30.91,30.86c.05-.05.36.22,1.31.92.09.06,1.74,1.29,2.01,2.03.02.07.09.25.01.33-.08.08-.25.02-.31,0-.75-.25-2.07-1.98-2.07-1.98-.73-.95-1-1.25-.95-1.3Z" fill="#f3bb1f"/>
    </g>
    <g id="p" data-name="&amp;lt;径向重复&amp;gt;">
      <path d="M25.94,34.2c.07-.03.24.34.85,1.35.06.09,1.11,1.86,1.08,2.65,0,.07-.01.27-.11.31-.1.04-.24-.08-.29-.12-.6-.52-1.16-2.63-1.16-2.63-.31-1.15-.45-1.53-.38-1.56Z" fill="#f3bb1f"/>
    </g>
    <g id="q" data-name="&amp;lt;径向重复&amp;gt;">
      <path d="M20.06,35.38c.08,0,.1.41.27,1.58.02.11.32,2.14-.01,2.86-.03.06-.11.24-.22.24-.11,0-.19-.16-.22-.22-.35-.71-.06-2.87-.06-2.87.16-1.18.17-1.59.25-1.59Z" fill="#f3bb1f"/>
    </g>
  </g>
</svg>