<?xml version="1.0" encoding="UTF-8"?>
<svg id="a" data-name="图层 1" xmlns="http://www.w3.org/2000/svg" width="100" height="100" viewBox="0 0 100 100">
  <g>
    <path d="M50,100c-1.01,0-1.81-1.4-1.71-3.03.6-21.13,1.17-30.31,1.71-30.31s1.12,9.18,1.71,30.31c.09,1.63-.7,3.03-1.71,3.03Z" fill="#d3da7e"/>
    <path d="M31.86,96.59c-.94-.37-1.18-1.96-.51-3.45,8.16-19.49,11.99-27.84,12.5-27.64s-2.26,8.96-9.3,28.88c-.5,1.55-1.74,2.57-2.69,2.2Z" fill="#d3da7e"/>
    <path d="M16.17,86.84c-.75-.68-.39-2.26.77-3.4,14.62-15.21,21.2-21.61,21.6-21.24.4.37-5.33,7.54-19.07,23.56-1.02,1.27-2.55,1.77-3.3,1.08Z" fill="#d3da7e"/>
    <path d="M5.05,72.05c-.45-.91.45-2.25,1.94-2.89,19.1-8.88,27.54-12.46,27.78-11.97s-7.68,5.1-26.25,15.05c-1.41.81-3.01.72-3.47-.19Z" fill="#d3da7e"/>
    <path d="M0,54.23c-.09-1.01,1.23-1.94,2.85-1.99,21.01-1.35,30.16-1.63,30.21-1.08s-9,1.96-29.89,4.51c-1.61.24-3.07-.42-3.16-1.43Z" fill="#d3da7e"/>
    <path d="M1.71,35.78c.28-.98,1.84-1.36,3.37-.83,20.07,6.36,28.71,9.42,28.56,9.95-.15.53-9.1-1.43-29.5-6.64-1.58-.36-2.71-1.51-2.43-2.49Z" fill="#d3da7e"/>
    <path d="M9.93,19.2c.61-.81,2.2-.6,3.44.45,16.43,13.21,23.38,19.2,23.05,19.64s-7.97-4.64-25.12-16.89c-1.35-.91-1.99-2.39-1.38-3.2Z" fill="#d3da7e"/>
    <path d="M23.57,6.71h0c.86-.54,2.27.24,3.05,1.67,10.57,18.28,14.89,26.39,14.43,26.67s-5.76-7.21-17.35-24.86c-.93-1.34-.99-2.95-.13-3.48Z" fill="#d3da7e"/>
    <path d="M40.77.02h0c1-.19,2.03,1.05,2.24,2.66,3.28,20.88,4.4,30.01,3.86,30.11s-2.78-8.82-7.23-29.48c-.39-1.58.14-3.11,1.13-3.3Z" fill="#d3da7e"/>
    <path d="M59.23.02h0c1,.19,1.52,1.71,1.13,3.3-4.45,20.66-6.7,29.58-7.23,29.48s.58-9.23,3.86-30.11c.21-1.62,1.24-2.85,2.24-2.66Z" fill="#d3da7e"/>
    <path d="M76.43,6.71c.86.54.8,2.15-.13,3.48-11.58,17.65-16.88,25.15-17.35,24.86s3.86-8.39,14.43-26.67c.77-1.43,2.19-2.21,3.05-1.67Z" fill="#d3da7e"/>
    <path d="M90.07,19.2h0c.61.81-.03,2.29-1.38,3.2-17.15,12.25-24.79,17.33-25.12,16.89s6.62-6.43,23.05-19.64c1.24-1.05,2.83-1.26,3.44-.45Z" fill="#d3da7e"/>
    <path d="M98.29,35.78c.28.98-.85,2.13-2.43,2.49-20.4,5.21-29.35,7.16-29.5,6.64s8.49-3.59,28.56-9.95c1.53-.53,3.1-.15,3.37.83Z" fill="#d3da7e"/>
    <path d="M100,54.23h0c-.09,1.01-1.56,1.68-3.16,1.43-20.9-2.55-29.94-3.97-29.89-4.51s9.2-.27,30.21,1.08c1.62.06,2.94.98,2.85,1.99Z" fill="#d3da7e"/>
    <path d="M94.95,72.05c-.45.91-2.06,1-3.47.19-18.57-9.95-26.5-14.56-26.25-15.05s8.68,3.09,27.78,11.97c1.49.64,2.39,1.98,1.94,2.89Z" fill="#d3da7e"/>
    <path d="M83.83,86.84c-.75.68-2.28.18-3.3-1.08-13.73-16.02-19.47-23.19-19.07-23.56s6.98,6.03,21.6,21.24c1.16,1.14,1.51,2.71.77,3.4Z" fill="#d3da7e"/>
    <path d="M68.14,96.59c-.94.37-2.19-.65-2.69-2.2-7.04-19.92-9.81-28.69-9.3-28.88s4.34,8.15,12.5,27.64c.67,1.48.44,3.08-.51,3.45Z" fill="#d3da7e"/>
  </g>
  <g>
    <path d="M50,1.03c.65,0,1.16.9,1.1,1.95-.38,13.58-.75,19.49-1.1,19.49s-.72-5.9-1.1-19.49c-.06-1.05.45-1.95,1.1-1.95Z" fill="#71b92b"/>
    <path d="M67.77,4.36c.61.24.76,1.26.33,2.22-5.24,12.53-7.71,17.9-8.04,17.77s1.45-5.76,5.98-18.57c.32-1,1.12-1.65,1.73-1.42Z" fill="#71b92b"/>
    <path d="M83.13,13.92c.48.44.25,1.45-.49,2.19-9.4,9.78-13.63,13.89-13.89,13.65s3.43-4.85,12.26-15.15c.66-.81,1.64-1.13,2.12-.69Z" fill="#71b92b"/>
    <path d="M94.02,28.4c.29.59-.29,1.45-1.25,1.86-12.28,5.71-17.7,8.01-17.86,7.69s4.94-3.28,16.88-9.68c.91-.52,1.94-.46,2.23.12Z" fill="#71b92b"/>
    <path d="M98.97,45.86c.06.65-.79,1.24-1.83,1.28-13.51.87-19.39,1.05-19.42.7s5.79-1.26,19.22-2.9c1.03-.16,1.97.27,2.03.92Z" fill="#71b92b"/>
    <path d="M97.3,63.93c-.18.63-1.18.87-2.17.53-12.91-4.09-18.46-6.06-18.36-6.4s5.85.92,18.96,4.27c1.02.23,1.74.97,1.57,1.6Z" fill="#71b92b"/>
    <path d="M89.25,80.18c-.39.52-1.42.39-2.21-.29-10.56-8.49-15.03-12.35-14.82-12.63s5.12,2.98,16.15,10.86c.87.58,1.28,1.54.88,2.06Z" fill="#71b92b"/>
    <path d="M75.89,92.4c-.55.34-1.46-.15-1.96-1.07-6.79-11.75-9.58-16.96-9.28-17.15s3.7,4.64,11.15,15.98c.6.86.64,1.9.08,2.24Z" fill="#71b92b"/>
    <path d="M59.04,98.96c-.64.12-1.31-.67-1.44-1.71-2.11-13.42-2.83-19.29-2.48-19.36s1.79,5.67,4.65,18.95c.25,1.02-.09,2-.73,2.12Z" fill="#71b92b"/>
    <path d="M40.96,98.96c-.64-.12-.98-1.1-.73-2.12,2.86-13.28,4.3-19.01,4.65-18.95s-.37,5.93-2.48,19.36c-.13,1.04-.8,1.83-1.44,1.71Z" fill="#71b92b"/>
    <path d="M24.11,92.4c-.55-.34-.51-1.38.08-2.24,7.45-11.35,10.85-16.17,11.15-15.98s-2.48,5.4-9.28,17.15c-.5.92-1.41,1.42-1.96,1.07Z" fill="#71b92b"/>
    <path d="M10.75,80.18c-.39-.52.02-1.47.88-2.06,11.03-7.88,15.94-11.14,16.15-10.86s-4.26,4.13-14.82,12.63c-.8.68-1.82.81-2.21.29Z" fill="#71b92b"/>
    <path d="M2.7,63.93c-.18-.63.55-1.37,1.57-1.6,13.12-3.35,18.87-4.61,18.96-4.27s-5.46,2.31-18.36,6.4c-.99.34-1.99.1-2.17-.53Z" fill="#71b92b"/>
    <path d="M1.03,45.86c.06-.65,1-1.08,2.03-.92,13.43,1.64,19.25,2.55,19.22,2.9s-5.92.17-19.42-.7c-1.04-.04-1.89-.63-1.83-1.28Z" fill="#71b92b"/>
    <path d="M5.98,28.4c.29-.59,1.32-.64,2.23-.12,11.94,6.4,17.03,9.36,16.88,9.68s-5.58-1.99-17.86-7.69c-.96-.41-1.54-1.27-1.25-1.86Z" fill="#71b92b"/>
    <path d="M16.87,13.92c.48-.44,1.46-.12,2.12.69,8.83,10.3,12.52,14.91,12.26,15.15s-4.49-3.88-13.89-13.65c-.75-.73-.97-1.75-.49-2.19Z" fill="#71b92b"/>
    <path d="M32.23,4.36c.61-.24,1.41.42,1.73,1.42,4.53,12.81,6.31,18.44,5.98,18.57s-2.79-5.24-8.04-17.77c-.43-.95-.28-1.98.33-2.22Z" fill="#71b92b"/>
  </g>
  <g>
    <ellipse cx="50" cy="33.84" rx="1.95" ry="9.92" fill="#98c734"/>
    <ellipse cx="55.89" cy="34.95" rx="9.91" ry="1.96" transform="translate(3.18 74.52) rotate(-68.91)" fill="#98c734"/>
    <ellipse cx="60.99" cy="38.11" rx="9.9" ry="1.96" transform="translate(-8.22 57.66) rotate(-47.78)" fill="#98c734"/>
    <ellipse cx="64.6" cy="42.92" rx="9.89" ry="1.96" transform="translate(-12.38 33.43) rotate(-26.57)" fill="#98c734"/>
    <ellipse cx="66.24" cy="48.71" rx="9.88" ry="1.96" transform="translate(-4.23 6.35) rotate(-5.32)" fill="#98c734"/>
    <ellipse cx="65.69" cy="54.7" rx="1.96" ry="9.88" transform="translate(-4.96 102.83) rotate(-74.05)" fill="#98c734"/>
    <ellipse cx="63.02" cy="60.09" rx="1.96" ry="9.89" transform="translate(-22.94 73.98) rotate(-52.82)" fill="#98c734"/>
    <ellipse cx="58.59" cy="64.15" rx="1.96" ry="9.91" transform="translate(-24.95 40.28) rotate(-31.65)" fill="#98c734"/>
    <ellipse cx="53" cy="66.32" rx="1.95" ry="9.92" transform="translate(-11.24 10.82) rotate(-10.54)" fill="#98c734"/>
    <ellipse cx="47" cy="66.32" rx="9.92" ry="1.95" transform="translate(-26.8 100.4) rotate(-79.46)" fill="#98c734"/>
    <ellipse cx="41.41" cy="64.15" rx="9.91" ry="1.96" transform="translate(-34.92 65.74) rotate(-58.35)" fill="#98c734"/>
    <ellipse cx="36.98" cy="60.09" rx="9.89" ry="1.96" transform="translate(-28.8 34.57) rotate(-37.18)" fill="#98c734"/>
    <ellipse cx="34.31" cy="54.7" rx="9.88" ry="1.96" transform="translate(-13.71 11.53) rotate(-15.95)" fill="#98c734"/>
    <ellipse cx="33.76" cy="48.71" rx="1.96" ry="9.88" transform="translate(-17.87 77.81) rotate(-84.68)" fill="#98c734"/>
    <ellipse cx="35.4" cy="42.92" rx="1.96" ry="9.89" transform="translate(-18.82 55.38) rotate(-63.43)" fill="#98c734"/>
    <ellipse cx="39.01" cy="38.11" rx="1.96" ry="9.9" transform="translate(-15.49 36.11) rotate(-42.22)" fill="#98c734"/>
    <ellipse cx="44.11" cy="34.95" rx="1.96" ry="9.91" transform="translate(-9.62 18.21) rotate(-21.09)" fill="#98c734"/>
  </g>
</svg>