<?xml version="1.0" encoding="UTF-8"?>
<svg id="a" data-name="图层 1" xmlns="http://www.w3.org/2000/svg" width="40" height="40" viewBox="0 0 40 40">
  <g>
    <path d="M20,40c-.4,0-.72-.56-.69-1.21.24-8.45.47-12.12.69-12.12s.45,3.67.69,12.12c.04.65-.28,1.21-.69,1.21Z" fill="#d3da7e"/>
    <path d="M12.75,38.64c-.38-.15-.47-.79-.2-1.38,3.26-7.79,4.8-11.13,5-11.06s-.9,3.59-3.72,11.55c-.2.62-.7,1.03-1.08.88Z" fill="#d3da7e"/>
    <path d="M6.47,34.74c-.3-.27-.16-.9.31-1.36,5.85-6.08,8.48-8.64,8.64-8.5s-2.13,3.02-7.63,9.42c-.41.51-1.02.71-1.32.43Z" fill="#d3da7e"/>
    <path d="M2.02,28.82c-.18-.36.18-.9.78-1.16,7.64-3.55,11.02-4.98,11.11-4.79s-3.07,2.04-10.5,6.02c-.56.32-1.21.29-1.39-.08Z" fill="#d3da7e"/>
    <path d="M0,21.69c-.04-.4.49-.77,1.14-.8,8.4-.54,12.06-.65,12.08-.43s-3.6.79-11.96,1.8c-.64.1-1.23-.17-1.27-.57Z" fill="#d3da7e"/>
    <path d="M.68,14.31c.11-.39.74-.54,1.35-.33,8.03,2.54,11.48,3.77,11.42,3.98s-3.64-.57-11.8-2.66c-.63-.14-1.08-.6-.97-.99Z" fill="#d3da7e"/>
    <path d="M3.97,7.68c.24-.32.88-.24,1.38.18,6.57,5.28,9.35,7.68,9.22,7.86s-3.19-1.85-10.05-6.76c-.54-.36-.79-.96-.55-1.28Z" fill="#d3da7e"/>
    <path d="M9.43,2.68h0c.34-.21.91.1,1.22.67,4.23,7.31,5.96,10.55,5.77,10.67s-2.3-2.89-6.94-9.94c-.37-.53-.4-1.18-.05-1.39Z" fill="#d3da7e"/>
    <path d="M16.31,0h0c.4-.07.81.42.9,1.07,1.31,8.35,1.76,12,1.54,12.04s-1.11-3.53-2.89-11.79c-.16-.63.05-1.24.45-1.32Z" fill="#d3da7e"/>
    <path d="M23.69,0h0c.4.07.61.69.45,1.32-1.78,8.26-2.68,11.83-2.89,11.79s.23-3.69,1.54-12.04c.08-.65.5-1.14.9-1.07Z" fill="#d3da7e"/>
    <path d="M30.57,2.68c.34.21.32.86-.05,1.39-4.63,7.06-6.75,10.06-6.94,9.94s1.54-3.36,5.77-10.67c.31-.57.87-.88,1.22-.67Z" fill="#d3da7e"/>
    <path d="M36.03,7.68h0c.24.32-.01.92-.55,1.28-6.86,4.9-9.92,6.93-10.05,6.76s2.65-2.57,9.22-7.86c.5-.42,1.13-.51,1.38-.18Z" fill="#d3da7e"/>
    <path d="M39.32,14.31c.11.39-.34.85-.97.99-8.16,2.08-11.74,2.87-11.8,2.66s3.39-1.44,11.42-3.98c.61-.21,1.24-.06,1.35.33Z" fill="#d3da7e"/>
    <path d="M40,21.69h0c-.04.4-.62.67-1.27.57-8.36-1.02-11.98-1.59-11.96-1.8s3.68-.11,12.08.43c.65.02,1.18.39,1.14.8Z" fill="#d3da7e"/>
    <path d="M37.98,28.82c-.18.36-.82.4-1.39.08-7.43-3.98-10.6-5.82-10.5-6.02s3.47,1.24,11.11,4.79c.6.26.96.79.78,1.16Z" fill="#d3da7e"/>
    <path d="M33.53,34.74c-.3.27-.91.07-1.32-.43-5.49-6.41-7.79-9.28-7.63-9.42s2.79,2.41,8.64,8.5c.46.46.61,1.09.31,1.36Z" fill="#d3da7e"/>
    <path d="M27.26,38.64c-.38.15-.88-.26-1.08-.88-2.82-7.97-3.92-11.47-3.72-11.55s1.74,3.26,5,11.06c.27.59.17,1.23-.2,1.38Z" fill="#d3da7e"/>
  </g>
  <g>
    <path d="M20,.41c.26,0,.46.36.44.78-.15,5.43-.3,7.79-.44,7.79s-.29-2.36-.44-7.79c-.02-.42.18-.78.44-.78Z" fill="#71b92b"/>
    <path d="M27.11,1.75c.24.09.3.51.13.89-2.1,5.01-3.08,7.16-3.21,7.11s.58-2.31,2.39-7.43c.13-.4.45-.66.69-.57Z" fill="#71b92b"/>
    <path d="M33.25,5.57c.19.18.1.58-.2.87-3.76,3.91-5.45,5.56-5.55,5.46s1.37-1.94,4.9-6.06c.26-.33.66-.45.85-.28Z" fill="#71b92b"/>
    <path d="M37.61,11.36c.12.23-.11.58-.5.74-4.91,2.28-7.08,3.2-7.14,3.08s1.98-1.31,6.75-3.87c.36-.21.78-.19.89.05Z" fill="#71b92b"/>
    <path d="M39.59,18.34c.02.26-.32.5-.73.51-5.4.35-7.76.42-7.77.28s2.31-.5,7.69-1.16c.41-.06.79.11.81.37Z" fill="#71b92b"/>
    <path d="M38.92,25.57c-.07.25-.47.35-.87.21-5.16-1.64-7.38-2.42-7.34-2.56s2.34.37,7.59,1.71c.41.09.7.39.63.64Z" fill="#71b92b"/>
    <path d="M35.7,32.07c-.16.21-.57.15-.89-.12-4.23-3.4-6.01-4.94-5.93-5.05s2.05,1.19,6.46,4.34c.35.23.51.61.35.82Z" fill="#71b92b"/>
    <path d="M30.36,36.96c-.22.14-.58-.06-.78-.43-2.72-4.7-3.83-6.79-3.71-6.86s1.48,1.86,4.46,6.39c.24.34.26.76.03.9Z" fill="#71b92b"/>
    <path d="M23.61,39.58c-.26.05-.52-.27-.58-.68-.84-5.37-1.13-7.72-.99-7.74s.71,2.27,1.86,7.58c.1.41-.03.8-.29.85Z" fill="#71b92b"/>
    <path d="M16.39,39.58c-.26-.05-.39-.44-.29-.85,1.15-5.31,1.72-7.61,1.86-7.58s-.15,2.37-.99,7.74c-.05.42-.32.73-.58.68Z" fill="#71b92b"/>
    <path d="M9.64,36.96c-.22-.14-.21-.55.03-.9,2.98-4.54,4.34-6.47,4.46-6.39s-.99,2.16-3.71,6.86c-.2.37-.56.57-.78.43Z" fill="#71b92b"/>
    <path d="M4.3,32.07c-.16-.21,0-.59.35-.82,4.41-3.15,6.38-4.46,6.46-4.34s-1.7,1.65-5.93,5.05c-.32.27-.73.33-.89.12Z" fill="#71b92b"/>
    <path d="M1.08,25.57c-.07-.25.22-.55.63-.64,5.25-1.34,7.55-1.84,7.59-1.71s-2.18.92-7.34,2.56c-.39.14-.8.04-.87-.21Z" fill="#71b92b"/>
    <path d="M.41,18.34c.02-.26.4-.43.81-.37,5.37.65,7.7,1.02,7.69,1.16s-2.37.07-7.77-.28c-.42-.01-.76-.25-.73-.51Z" fill="#71b92b"/>
    <path d="M2.39,11.36c.12-.23.53-.26.89-.05,4.78,2.56,6.81,3.74,6.75,3.87s-2.23-.79-7.14-3.08c-.38-.17-.61-.51-.5-.74Z" fill="#71b92b"/>
    <path d="M6.75,5.57c.19-.18.59-.05.85.28,3.53,4.12,5.01,5.96,4.9,6.06s-1.8-1.55-5.55-5.46c-.3-.29-.39-.7-.2-.87Z" fill="#71b92b"/>
    <path d="M12.89,1.75c.24-.09.56.17.69.57,1.81,5.12,2.52,7.38,2.39,7.43s-1.12-2.1-3.21-7.11c-.17-.38-.11-.79.13-.89Z" fill="#71b92b"/>
  </g>
  <g>
    <ellipse cx="20" cy="13.54" rx=".78" ry="3.97" fill="#98c734"/>
    <ellipse cx="22.36" cy="13.98" rx="3.97" ry=".78" transform="translate(1.27 29.81) rotate(-68.91)" fill="#98c734"/>
    <ellipse cx="24.4" cy="15.25" rx="3.96" ry=".78" transform="translate(-3.29 23.07) rotate(-47.78)" fill="#98c734"/>
    <ellipse cx="25.84" cy="17.17" rx="3.95" ry=".78" transform="translate(-4.95 13.37) rotate(-26.57)" fill="#98c734"/>
    <ellipse cx="26.5" cy="19.48" rx="3.95" ry=".79" transform="translate(-1.69 2.54) rotate(-5.32)" fill="#98c734"/>
    <ellipse cx="26.28" cy="21.88" rx=".78" ry="3.95" transform="translate(-1.98 41.13) rotate(-74.05)" fill="#98c734"/>
    <ellipse cx="25.21" cy="24.04" rx=".78" ry="3.96" transform="translate(-9.18 29.59) rotate(-52.82)" fill="#98c734"/>
    <ellipse cx="23.44" cy="25.66" rx=".78" ry="3.96" transform="translate(-9.98 16.11) rotate(-31.65)" fill="#98c734"/>
    <ellipse cx="21.2" cy="26.53" rx=".78" ry="3.97" transform="translate(-4.5 4.33) rotate(-10.54)" fill="#98c734"/>
    <ellipse cx="18.8" cy="26.53" rx="3.97" ry=".78" transform="translate(-10.72 40.16) rotate(-79.46)" fill="#98c734"/>
    <ellipse cx="16.57" cy="25.66" rx="3.96" ry=".78" transform="translate(-13.97 26.3) rotate(-58.35)" fill="#98c734"/>
    <ellipse cx="14.79" cy="24.04" rx="3.96" ry=".78" transform="translate(-11.52 13.83) rotate(-37.18)" fill="#98c734"/>
    <ellipse cx="13.72" cy="21.88" rx="3.95" ry=".78" transform="translate(-5.48 4.61) rotate(-15.95)" fill="#98c734"/>
    <ellipse cx="13.5" cy="19.48" rx=".79" ry="3.95" transform="translate(-7.15 31.12) rotate(-84.68)" fill="#98c734"/>
    <ellipse cx="14.16" cy="17.17" rx=".78" ry="3.95" transform="translate(-7.53 22.15) rotate(-63.43)" fill="#98c734"/>
    <ellipse cx="15.6" cy="15.25" rx=".78" ry="3.96" transform="translate(-6.2 14.44) rotate(-42.22)" fill="#98c734"/>
    <ellipse cx="17.64" cy="13.98" rx=".78" ry="3.97" transform="translate(-3.85 7.28) rotate(-21.09)" fill="#98c734"/>
  </g>
</svg>