<?xml version="1.0" encoding="UTF-8"?>
<svg id="a" data-name="图层 1" xmlns="http://www.w3.org/2000/svg" width="400" height="400" viewBox="0 0 400 400">
  <g>
    <path d="M146.61,287.81c-2.31-1.4-25.67,32.77-52.78,77.1-1.45,2.38-.69,5.48,1.7,6.92h0c2.39,1.44,5.5.68,6.94-1.71,26.88-44.47,46.46-80.92,44.15-82.31Z" fill="#4f81c2"/>
    <path d="M113.67,256.03c-1.48-2.26-37.4,18.43-81.13,46.65-2.34,1.51-3.01,4.64-1.49,6.97h0c1.52,2.33,4.66,2.99,7,1.46,43.58-28.44,77.09-52.82,75.62-55.08Z" fill="#4f81c2"/>
    <path d="M97.82,213.16c-.35-2.67-41.72.43-93.4,6.95-2.77.35-4.73,2.88-4.37,5.64h0c.36,2.76,2.9,4.71,5.67,4.34,51.65-6.79,92.46-14.26,92.11-16.93Z" fill="#4f81c2"/>
    <path d="M102.21,167.68c.85-2.56-37.78-17.65-87.18-34.12-2.65-.88-5.51.55-6.39,3.19h0c-.88,2.64.56,5.49,3.21,6.36,49.49,16.22,89.51,27.13,90.36,24.57Z" fill="#4f81c2"/>
    <path d="M125.97,128.6c1.88-1.94-26.35-32.23-63.69-68.43-2-1.94-5.21-1.89-7.15.11h0c-1.94,2-1.89,5.19.13,7.12,37.53,36.01,68.83,63.14,70.71,61.2Z" fill="#4f81c2"/>
    <path d="M164.39,103.66c2.54-.93-9.71-40.43-27.59-89.19-.96-2.61-3.87-3.96-6.49-2.99h0c-2.62.96-3.96,3.86-2.99,6.47,18.13,48.67,34.52,86.64,37.06,85.71Z" fill="#4f81c2"/>
    <path d="M209.87,97.81c2.69.26,8.86-40.62,13.98-92.28.27-2.77-1.76-5.24-4.54-5.5h0c-2.78-.27-5.25,1.77-5.51,4.54-4.85,51.69-6.62,92.99-3.93,93.25Z" fill="#4f81c2"/>
    <path d="M253.39,112.2c2.31,1.4,25.67-32.77,52.78-77.1,1.45-2.38.69-5.48-1.7-6.92h0c-2.39-1.44-5.5-.68-6.94,1.71-26.88,44.47-46.46,80.92-44.15,82.31Z" fill="#4f81c2"/>
    <path d="M286.33,143.97c1.48,2.26,37.4-18.43,81.13-46.65,2.34-1.51,3.01-4.64,1.49-6.97h0c-1.52-2.33-4.66-2.99-7-1.46-43.58,28.44-77.09,52.82-75.62,55.08Z" fill="#4f81c2"/>
    <path d="M302.18,186.85c.35,2.67,41.72-.43,93.4-6.95,2.77-.35,4.73-2.88,4.37-5.64h0c-.36-2.76-2.9-4.71-5.67-4.34-51.65,6.79-92.46,14.26-92.11,16.93Z" fill="#4f81c2"/>
    <path d="M297.79,232.32c-.85,2.56,37.78,17.65,87.18,34.12,2.65.88,5.51-.55,6.39-3.19h0c.88-2.64-.56-5.49-3.21-6.36-49.49-16.22-89.51-27.13-90.36-24.57Z" fill="#4f81c2"/>
    <path d="M274.03,271.4c-1.88,1.94,26.35,32.23,63.69,68.43,2,1.94,5.21,1.89,7.15-.11h0c1.94-2,1.89-5.19-.13-7.12-37.53-36.01-68.83-63.14-70.71-61.2Z" fill="#4f81c2"/>
    <path d="M235.61,296.34c-2.54.93,9.71,40.43,27.59,89.19.96,2.61,3.87,3.96,6.49,2.99h0c2.62-.96,3.96-3.86,2.99-6.47-18.13-48.67-34.52-86.64-37.06-85.71Z" fill="#4f81c2"/>
    <path d="M190.13,302.19c-2.69-.26-8.86,40.62-13.98,92.28-.27,2.77,1.76,5.24,4.54,5.5h0c2.78.27,5.25-1.77,5.51-4.54,4.85-51.69,6.62-92.99,3.93-93.25Z" fill="#4f81c2"/>
  </g>
  <path d="M327.44,152.72c3.13,8.38-30.78,25.85-29.64,34.36,1.18,8.78,38.44,16.82,37.63,25.44-.82,8.76-38.97,9.82-41.7,18.09-2.74,8.31,27.35,31.69,22.83,39.19-4.5,7.47-39.33-8.01-45.44-1.66-6.01,6.24,10.93,40.32,3.5,45.18-7.2,4.7-31.79-24.33-40.2-21.21-8.41,3.12-7.96,41.11-16.5,42.24-8.81,1.17-18.36-35.65-27.01-36.46-8.79-.82-24.98,33.59-33.29,30.87-8.34-2.73-.92-40.02-8.45-44.53-7.49-4.48-37.05,19.58-43.42,13.49-6.27-5.99,16.65-36.35,11.77-43.76-4.72-7.18-41.84,1.7-44.97-6.68-3.13-8.38,30.78-25.85,29.64-34.36-1.18-8.78-38.44-16.82-37.63-25.44.82-8.76,38.97-9.82,41.7-18.09,2.74-8.31-27.35-31.69-22.83-39.19,4.5-7.47,39.33,8.01,45.44,1.66,6.01-6.24-10.93-40.32-3.5-45.18,7.2-4.7,31.79,24.33,40.2,21.21,8.41-3.12,7.96-41.11,16.5-42.24,8.81-1.17,18.36,35.65,27.01,36.46,8.79.82,24.98-33.59,33.29-30.87,8.34,2.73.92,40.02,8.45,44.53,7.49,4.48,37.05-19.58,43.42-13.49,6.27,5.99-16.65,36.35-11.77,43.76,4.72,7.18,41.84-1.7,44.97,6.68Z" fill="#223e95"/>
  <g>
    <path d="M199.4,205.78c-1.95-.2-6.63,29.47-10.6,66.97-.21,2.01,1.25,3.81,3.27,4.02h0c2.02.21,3.82-1.26,4.02-3.27,3.77-37.52,5.26-67.51,3.3-67.71Z" fill="#3c6fb6"/>
    <path d="M198.13,205.5c-1.86-.63-13.04,27.26-25.29,62.94-.66,1.91.37,3.99,2.29,4.64h0c1.92.65,4.01-.38,4.65-2.3,12.06-35.74,20.2-64.65,18.34-65.28Z" fill="#3c6fb6"/>
    <path d="M196.95,204.95c-1.67-1.03-18.8,23.68-38.71,55.75-1.07,1.72-.53,3.98,1.2,5.03h0c1.73,1.06,3.99.52,5.05-1.21,19.74-32.17,34.13-58.55,32.46-59.58Z" fill="#3c6fb6"/>
    <path d="M195.92,204.15c-1.4-1.37-23.62,18.92-50.19,45.77-1.42,1.44-1.4,3.76.04,5.17h0c1.45,1.42,3.78,1.39,5.19-.06,26.43-26.99,46.35-49.52,44.95-50.89Z" fill="#3c6fb6"/>
    <path d="M195.09,203.14c-1.06-1.65-27.25,13.21-59.15,33.5-1.71,1.09-2.21,3.35-1.11,5.05h0c1.1,1.7,3.37,2.19,5.07,1.1,31.79-20.45,56.25-38,55.19-39.65Z" fill="#3c6fb6"/>
    <path d="M194.52,201.97c-.67-1.84-29.52,6.83-65.15,19.54-1.91.68-2.9,2.78-2.21,4.68h0c.69,1.9,2.8,2.88,4.7,2.19,35.56-12.89,63.32-24.57,62.66-26.42Z" fill="#3c6fb6"/>
    <path d="M194.21,200.71c-.24-1.94-30.3.12-67.88,4.61-2.01.24-3.45,2.07-3.2,4.07h0c.25,2.01,2.08,3.43,4.1,3.18,37.55-4.68,67.23-9.92,66.99-11.86Z" fill="#3c6fb6"/>
    <path d="M194.2,199.41c.2-1.95-29.57-6.6-67.21-10.56-2.02-.21-3.82,1.25-4.03,3.26h0c-.21,2.01,1.26,3.81,3.28,4.01,37.65,3.76,67.75,5.24,67.96,3.29Z" fill="#3c6fb6"/>
    <path d="M194.48,198.14c.63-1.85-27.35-13-63.16-25.2-1.92-.65-4.01.37-4.66,2.28h0c-.65,1.91.38,3.99,2.3,4.64,35.87,12.01,64.89,20.13,65.52,18.27Z" fill="#3c6fb6"/>
    <path d="M195.03,196.96c1.03-1.67-23.77-18.74-55.95-38.57-1.73-1.06-3.99-.53-5.05,1.19h0c-1.06,1.72-.52,3.98,1.21,5.03,32.29,19.67,58.76,34.01,59.79,32.34Z" fill="#3c6fb6"/>
    <path d="M195.84,195.93c1.38-1.4-18.99-23.54-45.94-50.01-1.44-1.42-3.77-1.4-5.19.04h0c-1.42,1.44-1.39,3.76.06,5.17,27.09,26.33,49.7,46.19,51.07,44.79Z" fill="#3c6fb6"/>
    <path d="M196.85,195.11c1.65-1.06-13.25-27.16-33.62-58.94-1.09-1.7-3.37-2.2-5.07-1.11h0c-1.71,1.09-2.2,3.36-1.1,5.06,20.53,31.68,38.14,56.05,39.79,54.99Z" fill="#3c6fb6"/>
    <path d="M198.02,194.53c1.85-.66-6.86-29.41-19.61-64.91-.68-1.9-2.79-2.89-4.7-2.21h0c-1.91.69-2.89,2.79-2.2,4.69,12.94,35.44,24.66,63.1,26.51,62.43Z" fill="#3c6fb6"/>
    <path d="M199.29,194.23c1.95-.24-.12-30.2-4.62-67.64-.24-2.01-2.07-3.44-4.09-3.19h0c-2.01.25-3.44,2.08-3.19,4.08,4.7,37.42,9.95,66.98,11.9,66.75Z" fill="#3c6fb6"/>
    <path d="M200.6,194.22c1.95.2,6.63-29.47,10.6-66.97.21-2.01-1.25-3.81-3.27-4.02h0c-2.02-.21-3.82,1.26-4.02,3.27-3.77,37.52-5.26,67.51-3.3,67.71Z" fill="#3c6fb6"/>
    <path d="M201.87,194.5c1.86.63,13.04-27.26,25.29-62.94.66-1.91-.37-3.99-2.29-4.64h0c-1.92-.65-4.01.38-4.65,2.3-12.06,35.74-20.2,64.65-18.34,65.28Z" fill="#3c6fb6"/>
    <path d="M203.05,195.05c1.67,1.03,18.8-23.68,38.71-55.75,1.07-1.72.53-3.98-1.2-5.03h0c-1.73-1.06-3.99-.52-5.05,1.21-19.74,32.17-34.13,58.55-32.46,59.58Z" fill="#3c6fb6"/>
    <path d="M204.08,195.85c1.4,1.37,23.62-18.92,50.19-45.77,1.42-1.44,1.4-3.76-.04-5.17h0c-1.45-1.42-3.78-1.39-5.19.06-26.43,26.99-46.35,49.52-44.95,50.89Z" fill="#3c6fb6"/>
    <path d="M204.91,196.86c1.06,1.65,27.25-13.21,59.15-33.5,1.71-1.09,2.21-3.35,1.11-5.05h0c-1.1-1.7-3.37-2.19-5.07-1.1-31.79,20.45-56.25,38-55.19,39.65Z" fill="#3c6fb6"/>
    <path d="M205.48,198.03c.67,1.84,29.52-6.83,65.15-19.54,1.91-.68,2.9-2.78,2.21-4.68h0c-.69-1.9-2.8-2.88-4.7-2.19-35.56,12.89-63.32,24.57-62.66,26.42Z" fill="#3c6fb6"/>
    <path d="M205.79,199.29c.24,1.94,30.3-.12,67.88-4.61,2.01-.24,3.45-2.07,3.2-4.07h0c-.25-2.01-2.08-3.43-4.1-3.18-37.55,4.68-67.23,9.92-66.99,11.86Z" fill="#3c6fb6"/>
    <path d="M205.8,200.59c-.2,1.95,29.57,6.6,67.21,10.56,2.02.21,3.82-1.25,4.03-3.26h0c.21-2.01-1.26-3.81-3.28-4.01-37.65-3.76-67.75-5.24-67.96-3.29Z" fill="#3c6fb6"/>
    <path d="M205.52,201.87c-.63,1.85,27.35,13,63.16,25.2,1.92.65,4.01-.37,4.66-2.28h0c.65-1.91-.38-3.99-2.3-4.64-35.87-12.01-64.89-20.13-65.52-18.27Z" fill="#3c6fb6"/>
    <path d="M204.97,203.04c-1.03,1.67,23.77,18.74,55.95,38.57,1.73,1.06,3.99.53,5.05-1.19h0c1.06-1.72.52-3.98-1.21-5.03-32.29-19.67-58.76-34.01-59.79-32.34Z" fill="#3c6fb6"/>
    <path d="M204.16,204.07c-1.38,1.4,18.99,23.54,45.94,50.01,1.44,1.42,3.77,1.4,5.19-.04h0c1.42-1.44,1.39-3.76-.06-5.17-27.09-26.33-49.7-46.19-51.07-44.79Z" fill="#3c6fb6"/>
    <path d="M203.15,204.89c-1.65,1.06,13.25,27.16,33.62,58.94,1.09,1.7,3.37,2.2,5.07,1.11h0c1.71-1.09,2.2-3.36,1.1-5.06-20.53-31.68-38.14-56.05-39.79-54.99Z" fill="#3c6fb6"/>
    <path d="M201.98,205.47c-1.85.66,6.86,29.41,19.61,64.91.68,1.9,2.79,2.89,4.7,2.21h0c1.91-.69,2.89-2.79,2.2-4.69-12.94-35.44-24.66-63.1-26.51-62.43Z" fill="#3c6fb6"/>
    <path d="M200.71,205.77c-1.95.24.12,30.2,4.62,67.64.24,2.01,2.07,3.44,4.09,3.19h0c2.01-.25,3.44-2.08,3.19-4.08-4.7-37.42-9.95-66.98-11.9-66.75Z" fill="#3c6fb6"/>
  </g>
  <g>
    <path d="M199.77,202.27c-.77-.08-2.61,11.58-4.16,26.32-.08.79.49,1.5,1.29,1.58h0c.79.08,1.5-.49,1.58-1.29,1.48-14.75,2.07-26.53,1.3-26.61Z" fill="#fff"/>
    <path d="M199.26,202.16c-.73-.25-5.13,10.71-9.94,24.73-.26.75.15,1.57.9,1.82h0c.75.26,1.57-.15,1.83-.9,4.74-14.05,7.94-25.41,7.21-25.66Z" fill="#fff"/>
    <path d="M198.8,201.95c-.66-.4-7.39,9.31-15.21,21.91-.42.68-.21,1.56.47,1.98h0c.68.42,1.57.2,1.98-.47,7.76-12.64,13.41-23.01,12.76-23.42Z" fill="#fff"/>
    <path d="M198.4,201.63c-.55-.54-9.28,7.44-19.72,17.99-.56.57-.55,1.48.02,2.03h0c.57.56,1.48.55,2.04-.02,10.39-10.61,18.22-19.46,17.67-20Z" fill="#fff"/>
    <path d="M198.07,201.23c-.42-.65-10.71,5.19-23.25,13.16-.67.43-.87,1.32-.44,1.99h0c.43.67,1.32.86,1.99.43,12.49-8.04,22.11-14.93,21.69-15.58Z" fill="#fff"/>
    <path d="M197.84,200.78c-.26-.72-11.6,2.69-25.6,7.68-.75.27-1.14,1.09-.87,1.84h0c.27.75,1.1,1.13,1.85.86,13.98-5.07,24.89-9.66,24.63-10.38Z" fill="#fff"/>
    <path d="M197.73,200.28c-.09-.76-11.91.05-26.68,1.81-.79.09-1.36.81-1.26,1.6h0c.1.79.82,1.35,1.61,1.25,14.76-1.84,26.42-3.9,26.33-4.66Z" fill="#fff"/>
    <path d="M197.72,199.77c.08-.77-11.62-2.6-26.41-4.15-.79-.08-1.5.49-1.58,1.28h0c-.08.79.5,1.5,1.29,1.58,14.8,1.48,26.63,2.06,26.71,1.29Z" fill="#fff"/>
    <path d="M197.83,199.27c.25-.73-10.75-5.11-24.82-9.9-.75-.26-1.58.15-1.83.9h0c-.26.75.15,1.57.91,1.82,14.1,4.72,25.5,7.91,25.75,7.18Z" fill="#fff"/>
    <path d="M198.05,198.8c.4-.66-9.34-7.36-21.99-15.16-.68-.42-1.57-.21-1.99.47h0c-.42.68-.2,1.56.48,1.98,12.69,7.73,23.1,13.37,23.5,12.71Z" fill="#fff"/>
    <path d="M198.36,198.4c.54-.55-7.46-9.25-18.05-19.65-.57-.56-1.48-.55-2.04.02h0c-.56.57-.55,1.48.02,2.03,10.65,10.35,19.53,18.15,20.07,17.6Z" fill="#fff"/>
    <path d="M198.76,198.08c.65-.42-5.21-10.67-13.21-23.16-.43-.67-1.32-.86-1.99-.44h0c-.67.43-.86,1.32-.43,1.99,8.07,12.45,14.99,22.03,15.64,21.61Z" fill="#fff"/>
    <path d="M199.22,197.85c.73-.26-2.7-11.56-7.71-25.51-.27-.75-1.1-1.14-1.85-.87h0c-.75.27-1.14,1.1-.87,1.84,5.08,13.93,9.69,24.8,10.42,24.54Z" fill="#fff"/>
    <path d="M199.72,197.73c.77-.09-.05-11.87-1.82-26.58-.09-.79-.82-1.35-1.61-1.25h0c-.79.1-1.35.82-1.25,1.6,1.85,14.7,3.91,26.33,4.68,26.23Z" fill="#fff"/>
    <path d="M200.23,197.73c.77.08,2.61-11.58,4.16-26.32.08-.79-.49-1.5-1.29-1.58h0c-.79-.08-1.5.49-1.58,1.29-1.48,14.75-2.07,26.53-1.3,26.61Z" fill="#fff"/>
    <path d="M200.74,197.84c.73.25,5.13-10.71,9.94-24.73.26-.75-.15-1.57-.9-1.82h0c-.75-.26-1.57.15-1.83.9-4.74,14.05-7.94,25.41-7.21,25.66Z" fill="#fff"/>
    <path d="M201.2,198.05c.66.4,7.39-9.31,15.21-21.91.42-.68.21-1.56-.47-1.98h0c-.68-.42-1.57-.2-1.98.47-7.76,12.64-13.41,23.01-12.76,23.42Z" fill="#fff"/>
    <path d="M201.6,198.37c.55.54,9.28-7.44,19.72-17.99.56-.57.55-1.48-.02-2.03h0c-.57-.56-1.48-.55-2.04.02-10.39,10.61-18.22,19.46-17.67,20Z" fill="#fff"/>
    <path d="M201.93,198.77c.42.65,10.71-5.19,23.25-13.16.67-.43.87-1.32.44-1.99h0c-.43-.67-1.32-.86-1.99-.43-12.49,8.04-22.11,14.93-21.69,15.58Z" fill="#fff"/>
    <path d="M202.16,199.22c.26.72,11.6-2.69,25.6-7.68.75-.27,1.14-1.09.87-1.84h0c-.27-.75-1.1-1.13-1.85-.86-13.98,5.07-24.89,9.66-24.63,10.38Z" fill="#fff"/>
    <path d="M202.27,199.72c.09.76,11.91-.05,26.68-1.81.79-.09,1.36-.81,1.26-1.6h0c-.1-.79-.82-1.35-1.61-1.25-14.76,1.84-26.42,3.9-26.33,4.66Z" fill="#fff"/>
    <path d="M202.28,200.23c-.08.77,11.62,2.6,26.41,4.15.79.08,1.5-.49,1.58-1.28h0c.08-.79-.5-1.5-1.29-1.58-14.8-1.48-26.63-2.06-26.71-1.29Z" fill="#fff"/>
    <path d="M202.17,200.73c-.25.73,10.75,5.11,24.82,9.9.75.26,1.58-.15,1.83-.9h0c.26-.75-.15-1.57-.91-1.82-14.1-4.72-25.5-7.91-25.75-7.18Z" fill="#fff"/>
    <path d="M201.95,201.2c-.4.66,9.34,7.36,21.99,15.16.68.42,1.57.21,1.99-.47h0c.42-.68.2-1.56-.48-1.98-12.69-7.73-23.1-13.37-23.5-12.71Z" fill="#fff"/>
    <path d="M201.64,201.6c-.54.55,7.46,9.25,18.05,19.65.57.56,1.48.55,2.04-.02h0c.56-.57.55-1.48-.02-2.03-10.65-10.35-19.53-18.15-20.07-17.6Z" fill="#fff"/>
    <path d="M201.24,201.92c-.65.42,5.21,10.67,13.21,23.16.43.67,1.32.86,1.99.44h0c.67-.43.86-1.32.43-1.99-8.07-12.45-14.99-22.03-15.64-21.61Z" fill="#fff"/>
    <path d="M200.78,202.15c-.73.26,2.7,11.56,7.71,25.51.27.75,1.1,1.14,1.85.87h0c.75-.27,1.14-1.1.87-1.84-5.08-13.93-9.69-24.8-10.42-24.54Z" fill="#fff"/>
    <path d="M200.28,202.27c-.77.09.05,11.87,1.82,26.58.09.79.82,1.35,1.61,1.25h0c.79-.1,1.35-.82,1.25-1.6-1.85-14.7-3.91-26.33-4.68-26.23Z" fill="#fff"/>
  </g>
  <g>
    <path d="M200.48,239.83c-3.08.04-5.03,47.1-4.46,106.23.03,3.17,2.64,5.71,5.82,5.68h0c3.18-.04,5.73-2.65,5.68-5.81-.87-59.13-3.96-106.13-7.04-106.1Z" fill="#a1bce2"/>
    <path d="M191.58,238.94c-3.01-.65-15.42,44.8-28.07,102.58-.68,3.1,1.3,6.16,4.41,6.82h0c3.11.67,6.18-1.31,6.84-4.41,12.36-57.85,19.84-104.35,16.83-105Z" fill="#a1bce2"/>
    <path d="M183.09,236.09c-2.79-1.3-25.04,40.26-50.28,93.78-1.35,2.87-.11,6.29,2.77,7.63h0c2.88,1.34,6.31.09,7.65-2.78,24.96-53.66,42.65-97.33,39.85-98.63Z" fill="#a1bce2"/>
    <path d="M175.46,231.44c-2.43-1.89-33.4,33.7-69.96,80.29-1.96,2.5-1.51,6.11,1,8.05h0c2.51,1.95,6.13,1.49,8.08-1.02,36.32-46.77,63.31-85.44,60.88-87.32Z" fill="#a1bce2"/>
    <path d="M169.05,225.21c-1.95-2.38-40.09,25.45-86.14,62.76-2.47,2-2.84,5.62-.82,8.07h0c2.01,2.45,5.65,2.81,8.1.8,45.86-37.55,80.81-69.26,78.86-71.63Z" fill="#a1bce2"/>
    <path d="M164.2,217.71c-1.37-2.75-44.76,15.92-97.99,42.09-2.85,1.4-4.02,4.85-2.61,7.69h0c1.41,2.84,4.88,3.99,7.72,2.58,53.09-26.44,94.25-49.6,92.88-52.35Z" fill="#a1bce2"/>
    <path d="M161.14,209.33c-.72-2.99-47.2,5.6-104.93,19.31-3.09.73-5,3.84-4.26,6.92h0c.75,3.08,3.86,4.98,6.95,4.23,57.66-14.01,102.96-27.46,102.24-30.45Z" fill="#a1bce2"/>
    <path d="M160.03,200.48c-.04-3.07-47.26-5.01-106.61-4.45-3.18.03-5.73,2.63-5.7,5.8h0c.04,3.17,2.65,5.71,5.84,5.66,59.35-.87,106.51-3.95,106.48-7.02Z" fill="#a1bce2"/>
    <path d="M160.92,191.61c.65-3-44.96-15.36-102.95-27.97-3.11-.68-6.18,1.29-6.85,4.39h0c-.67,3.1,1.31,6.15,4.42,6.81,58.05,12.31,104.72,19.77,105.37,16.77Z" fill="#a1bce2"/>
    <path d="M163.78,183.15c1.3-2.78-40.4-24.95-94.12-50.1-2.88-1.35-6.31-.11-7.66,2.76h0c-1.35,2.87-.09,6.29,2.79,7.62,53.85,24.87,97.68,42.49,98.99,39.71Z" fill="#a1bce2"/>
    <path d="M168.45,175.54c1.89-2.42-33.82-33.28-80.57-69.71-2.51-1.95-6.13-1.51-8.08,1h0c-1.95,2.5-1.5,6.11,1.02,8.05,46.94,36.19,85.74,63.09,87.64,60.66Z" fill="#a1bce2"/>
    <path d="M174.7,169.16c2.39-1.94-25.54-39.94-62.98-85.83-2.01-2.46-5.64-2.83-8.1-.82h0c-2.46,2.01-2.82,5.63-.8,8.08,37.68,45.69,69.51,80.52,71.89,78.57Z" fill="#a1bce2"/>
    <path d="M182.22,164.32c2.76-1.37-15.98-44.6-42.24-97.64-1.41-2.84-4.87-4.01-7.72-2.6h0c-2.85,1.41-4.01,4.86-2.59,7.7,26.54,52.9,49.78,93.91,52.54,92.54Z" fill="#a1bce2"/>
    <path d="M190.63,161.28c3-.72-5.62-47.03-19.37-104.56-.74-3.08-3.85-4.99-6.94-4.24h0c-3.09.74-4.99,3.85-4.24,6.93,14.06,57.46,27.56,102.59,30.56,101.87Z" fill="#a1bce2"/>
    <path d="M199.52,160.17c3.08-.04,5.03-47.1,4.46-106.23-.03-3.17-2.64-5.71-5.82-5.68h0c-3.18.04-5.73,2.65-5.68,5.81.87,59.13,3.96,106.13,7.04,106.1Z" fill="#a1bce2"/>
    <path d="M208.42,161.06c3.01.65,15.42-44.8,28.07-102.58.68-3.1-1.3-6.16-4.41-6.82h0c-3.11-.67-6.18,1.31-6.84,4.41-12.36,57.85-19.84,104.35-16.83,105Z" fill="#a1bce2"/>
    <path d="M216.91,163.91c2.79,1.3,25.04-40.26,50.28-93.78,1.35-2.87.11-6.29-2.77-7.63h0c-2.88-1.34-6.31-.09-7.65,2.78-24.96,53.66-42.65,97.33-39.85,98.63Z" fill="#a1bce2"/>
    <path d="M224.54,168.56c2.43,1.89,33.4-33.7,69.96-80.29,1.96-2.5,1.51-6.11-1-8.05h0c-2.51-1.95-6.13-1.49-8.08,1.02-36.32,46.77-63.31,85.44-60.88,87.32Z" fill="#a1bce2"/>
    <path d="M230.95,174.79c1.95,2.38,40.09-25.45,86.14-62.76,2.47-2,2.84-5.62.82-8.07h0c-2.01-2.45-5.65-2.81-8.1-.8-45.86,37.55-80.81,69.26-78.86,71.63Z" fill="#a1bce2"/>
    <path d="M235.8,182.28c1.37,2.75,44.76-15.92,97.99-42.09,2.85-1.4,4.02-4.85,2.61-7.69h0c-1.41-2.84-4.88-3.99-7.72-2.58-53.09,26.44-94.25,49.6-92.88,52.35Z" fill="#a1bce2"/>
    <path d="M238.86,190.67c.72,2.99,47.2-5.6,104.93-19.31,3.09-.73,5-3.84,4.26-6.92h0c-.75-3.08-3.86-4.98-6.95-4.23-57.66,14.01-102.96,27.46-102.24,30.45Z" fill="#a1bce2"/>
    <path d="M239.97,199.52c.04,3.07,47.26,5.01,106.61,4.45,3.18-.03,5.73-2.63,5.7-5.8h0c-.04-3.17-2.65-5.71-5.84-5.66-59.35.87-106.51,3.95-106.48,7.02Z" fill="#a1bce2"/>
    <path d="M239.08,208.39c-.65,3,44.96,15.36,102.95,27.97,3.11.68,6.18-1.29,6.85-4.39h0c.67-3.1-1.31-6.15-4.42-6.81-58.05-12.31-104.72-19.77-105.37-16.77Z" fill="#a1bce2"/>
    <path d="M236.22,216.85c-1.3,2.78,40.4,24.95,94.12,50.1,2.88,1.35,6.31.11,7.66-2.76h0c1.35-2.87.09-6.29-2.79-7.62-53.85-24.87-97.68-42.49-98.99-39.71Z" fill="#a1bce2"/>
    <path d="M231.55,224.46c-1.89,2.42,33.82,33.28,80.57,69.71,2.51,1.95,6.13,1.51,8.08-1h0c1.95-2.5,1.5-6.11-1.02-8.05-46.94-36.19-85.74-63.09-87.64-60.66Z" fill="#a1bce2"/>
    <path d="M225.3,230.84c-2.39,1.94,25.54,39.94,62.98,85.83,2.01,2.46,5.64,2.83,8.1.82h0c2.46-2.01,2.82-5.63.8-8.08-37.68-45.69-69.51-80.52-71.89-78.57Z" fill="#a1bce2"/>
    <path d="M217.78,235.68c-2.76,1.37,15.98,44.6,42.24,97.64,1.41,2.84,4.87,4.01,7.72,2.6h0c2.85-1.41,4.01-4.86,2.59-7.7-26.54-52.9-49.78-93.91-52.54-92.54Z" fill="#a1bce2"/>
    <path d="M209.37,238.72c-3,.72,5.62,47.03,19.37,104.56.74,3.08,3.85,4.99,6.94,4.24h0c3.09-.74,4.99-3.85,4.24-6.93-14.06-57.46-27.56-102.59-30.56-101.87Z" fill="#a1bce2"/>
  </g>
</svg>