<?xml version="1.0" encoding="UTF-8"?>
<svg id="a" data-name="图层 1" xmlns="http://www.w3.org/2000/svg" width="400" height="400" viewBox="0 0 400 400">
  <g>
    <path d="M200.17,350.35c2.7-.01,5.14-35.91,5.14-65.61,0-29.73-2.43-65.57-5.13-65.58-2.65-.01-5.49,34.75-5.51,65.24-.02,30.92,2.84,65.96,5.5,65.95Z" fill="#ffd824"/>
    <path d="M142.62,338.98c2.5,1.02,18.49-31.21,29.86-58.65,11.38-27.46,22.85-61.51,20.36-62.55-2.45-1.03-18.37,30-30.06,58.17-11.86,28.56-22.62,62.02-20.15,63.03Z" fill="#ffd824"/>
    <path d="M93.81,306.44c1.92,1.9,29.02-21.76,50.03-42.76,21.02-21.02,44.65-48.08,42.75-50-1.87-1.88-28.45,20.69-50.03,42.23-21.88,21.85-44.63,48.64-42.74,50.52Z" fill="#ffd824"/>
    <path d="M61.16,257.7c1.04,2.49,35.14-9,62.58-20.36,27.47-11.37,59.65-27.34,58.63-29.83-1.01-2.46-34.21,8.23-62.39,19.87-28.58,11.81-59.85,27.86-58.82,30.32Z" fill="#ffd824"/>
    <path d="M49.65,200.18c.01,2.7,35.91,5.14,65.61,5.14,29.73,0,65.57-2.43,65.58-5.13.01-2.65-34.75-5.49-65.24-5.51-30.92-.02-65.96,2.84-65.95,5.5Z" fill="#ffd824"/>
    <path d="M61.02,142.63c-1.02,2.5,31.21,18.49,58.65,29.85,27.47,11.38,61.51,22.85,62.55,20.36,1.03-2.45-30-18.37-58.17-30.06-28.56-11.86-62.02-22.62-63.03-20.15Z" fill="#ffd824"/>
    <path d="M93.56,93.81c-1.9,1.92,21.76,29.02,42.76,50.03,21.02,21.02,48.08,44.64,50,42.75,1.88-1.87-20.69-28.45-42.24-50.03-21.85-21.88-48.64-44.63-50.52-42.74Z" fill="#ffd824"/>
    <path d="M142.3,61.16c-2.49,1.04,9,35.14,20.36,62.58,11.37,27.47,27.34,59.65,29.83,58.63,2.46-1.01-8.23-34.21-19.87-62.39-11.81-28.58-27.86-59.85-30.32-58.82Z" fill="#ffd824"/>
    <path d="M199.82,49.65c-2.7.01-5.14,35.91-5.14,65.61,0,29.73,2.43,65.57,5.13,65.58,2.65.01,5.49-34.75,5.51-65.24.02-30.92-2.84-65.96-5.5-65.95Z" fill="#ffd824"/>
    <path d="M257.38,61.03c-2.5-1.02-18.49,31.21-29.86,58.65-11.38,27.46-22.85,61.51-20.36,62.55,2.45,1.03,18.37-30,30.06-58.17,11.86-28.56,22.62-62.02,20.15-63.03Z" fill="#ffd824"/>
    <path d="M306.19,93.56c-1.92-1.9-29.02,21.76-50.03,42.76-21.02,21.02-44.65,48.08-42.75,50,1.87,1.88,28.45-20.69,50.03-42.23,21.88-21.85,44.63-48.64,42.74-50.52Z" fill="#ffd824"/>
    <path d="M338.84,142.3c-1.04-2.49-35.14,9-62.58,20.36-27.47,11.37-59.65,27.34-58.63,29.83,1.01,2.46,34.21-8.23,62.39-19.87,28.58-11.81,59.85-27.86,58.82-30.32Z" fill="#ffd824"/>
    <path d="M350.35,199.83c-.01-2.7-35.91-5.14-65.61-5.14-29.73,0-65.57,2.43-65.58,5.13-.01,2.65,34.75,5.49,65.24,5.51,30.92.02,65.96-2.84,65.95-5.5Z" fill="#ffd824"/>
    <path d="M338.98,257.38c1.02-2.5-31.21-18.49-58.65-29.85-27.47-11.38-61.51-22.85-62.55-20.36-1.03,2.45,30,18.37,58.17,30.06,28.56,11.86,62.02,22.62,63.03,20.15Z" fill="#ffd824"/>
    <path d="M306.44,306.19c1.9-1.92-21.76-29.02-42.76-50.03-21.02-21.02-48.08-44.64-50-42.75-1.88,1.87,20.69,28.45,42.24,50.03,21.85,21.88,48.64,44.63,50.52,42.74Z" fill="#ffd824"/>
    <path d="M257.7,338.84c2.49-1.04-9-35.14-20.36-62.58-11.37-27.47-27.34-59.65-29.83-58.63-2.46,1.01,8.23,34.21,19.87,62.39,11.81,28.58,27.86,59.85,30.32,58.82Z" fill="#ffd824"/>
  </g>
  <g>
    <path d="M188.46,261.43c1.86.35.43,10.25-.89,39.36-.12,2.64-2.4,53.24-13.81,69.01-1.02,1.41-3.84,5.31-6.53,4.8-2.59-.49-3.77-4.8-4.2-6.36-5.16-18.78,11.93-69.57,11.93-69.57,9.36-27.82,11.63-37.58,13.5-37.23Z" fill="#faf5ca"/>
    <path d="M165.83,252.33c1.59,1.04-3.53,9.64-15.88,36.02-1.12,2.39-22.59,48.27-39.17,58.47-1.49.92-5.58,3.43-7.87,1.93-2.2-1.44-1.65-5.88-1.44-7.48,2.42-19.33,37.65-59.71,37.65-59.71,19.3-22.12,25.13-30.27,26.72-29.23Z" fill="#faf5ca"/>
    <path d="M148.4,235.28c1.07,1.56-6.95,7.55-28.46,27.2-1.95,1.78-39.35,35.95-58.56,39.03-1.72.28-6.47,1.04-8.01-1.23-1.48-2.18.73-6.06,1.53-7.47,9.64-16.93,57.63-40.76,57.63-40.76,26.3-13.05,34.8-18.35,35.87-16.78Z" fill="#faf5ca"/>
    <path d="M138.83,212.85c.39,1.86-9.31,4.32-36.7,14.24-2.48.9-50.11,18.16-69.04,13.65-1.7-.4-6.37-1.52-6.93-4.2-.54-2.58,2.99-5.32,4.27-6.31,15.38-11.95,68.84-15.6,68.84-15.6,29.29-2,39.17-3.64,39.56-1.78Z" fill="#faf5ca"/>
    <path d="M138.57,188.45c-.35,1.86-10.25.43-39.36-.89-2.64-.12-53.24-2.4-69.01-13.81-1.41-1.02-5.31-3.84-4.8-6.53.49-2.59,4.8-3.77,6.36-4.2,18.78-5.16,69.57,11.93,69.57,11.93,27.83,9.36,37.58,11.63,37.23,13.5Z" fill="#faf5ca"/>
    <path d="M147.66,165.83c-1.04,1.59-9.64-3.53-36.02-15.88-2.39-1.12-48.27-22.59-58.47-39.17-.92-1.49-3.43-5.58-1.93-7.87,1.44-2.2,5.88-1.65,7.48-1.44,19.33,2.42,59.71,37.65,59.71,37.65,22.12,19.3,30.27,25.13,29.23,26.72Z" fill="#faf5ca"/>
    <path d="M164.72,148.4c-1.56,1.07-7.55-6.95-27.2-28.46-1.78-1.95-35.95-39.35-39.03-58.56-.28-1.72-1.04-6.47,1.23-8.01,2.18-1.48,6.06.73,7.47,1.53,16.93,9.64,40.76,57.63,40.76,57.63,13.05,26.3,18.35,34.8,16.78,35.87Z" fill="#faf5ca"/>
    <path d="M187.16,138.83c-1.86.39-4.32-9.31-14.24-36.7-.9-2.48-18.16-50.11-13.65-69.04.4-1.7,1.52-6.37,4.2-6.93,2.58-.54,5.32,2.99,6.31,4.27,11.95,15.38,15.6,68.84,15.6,68.84,2,29.29,3.64,39.17,1.78,39.56Z" fill="#faf5ca"/>
    <path d="M211.54,138.57c-1.86-.35-.43-10.25.89-39.36.12-2.64,2.4-53.24,13.81-69.01,1.02-1.41,3.84-5.31,6.53-4.8,2.59.49,3.77,4.8,4.2,6.36,5.16,18.78-11.93,69.57-11.93,69.57-9.36,27.82-11.63,37.58-13.5,37.23Z" fill="#faf5ca"/>
    <path d="M234.17,147.66c-1.59-1.04,3.53-9.64,15.88-36.02,1.12-2.39,22.59-48.27,39.17-58.47,1.49-.92,5.58-3.43,7.87-1.93,2.2,1.44,1.65,5.88,1.44,7.48-2.42,19.33-37.65,59.71-37.65,59.71-19.3,22.12-25.13,30.27-26.72,29.23Z" fill="#faf5ca"/>
    <path d="M251.6,164.72c-1.07-1.56,6.95-7.55,28.46-27.2,1.95-1.78,39.35-35.95,58.56-39.03,1.72-.28,6.47-1.04,8.01,1.23,1.48,2.18-.73,6.06-1.53,7.47-9.64,16.93-57.63,40.76-57.63,40.76-26.3,13.05-34.8,18.35-35.87,16.78Z" fill="#faf5ca"/>
    <path d="M261.17,187.15c-.39-1.86,9.31-4.32,36.7-14.24,2.48-.9,50.11-18.16,69.04-13.65,1.7.4,6.37,1.52,6.93,4.2.54,2.58-2.99,5.32-4.27,6.31-15.38,11.95-68.84,15.6-68.84,15.6-29.29,2-39.17,3.64-39.56,1.78Z" fill="#faf5ca"/>
    <path d="M261.43,211.54c.35-1.86,10.25-.43,39.36.89,2.64.12,53.24,2.4,69.01,13.81,1.41,1.02,5.31,3.84,4.8,6.53-.49,2.59-4.8,3.77-6.36,4.2-18.78,5.16-69.57-11.93-69.57-11.93-27.83-9.36-37.58-11.63-37.23-13.5Z" fill="#faf5ca"/>
    <path d="M252.33,234.17c1.04-1.59,9.64,3.53,36.02,15.88,2.39,1.12,48.27,22.59,58.47,39.17.92,1.49,3.43,5.58,1.93,7.87-1.44,2.2-5.88,1.65-7.48,1.44-19.33-2.42-59.71-37.65-59.71-37.65-22.12-19.3-30.27-25.13-29.23-26.72Z" fill="#faf5ca"/>
    <path d="M235.28,251.6c1.56-1.07,7.55,6.95,27.2,28.46,1.78,1.95,35.95,39.35,39.03,58.56.28,1.72,1.04,6.47-1.23,8.01-2.18,1.48-6.06-.73-7.47-1.53-16.93-9.64-40.76-57.63-40.76-57.63-13.05-26.3-18.35-34.8-16.78-35.87Z" fill="#faf5ca"/>
    <path d="M212.84,261.17c1.86-.39,4.32,9.31,14.24,36.7.9,2.48,18.16,50.11,13.65,69.04-.4,1.7-1.52,6.37-4.2,6.93-2.58.54-5.32-2.99-6.31-4.27-11.95-15.38-15.6-68.84-15.6-68.84-2-29.29-3.64-39.17-1.78-39.56Z" fill="#faf5ca"/>
  </g>
  <g>
    <g id="b" data-name="&amp;lt;径向重复&amp;gt;">
      <path d="M141.65,341.73c.71.29-.66,4.11-3.53,15.58-.26,1.04-5.26,20.98-11.07,26.33-.52.48-1.96,1.8-2.99,1.38-.99-.4-1.11-2.21-1.16-2.87-.53-7.89,10.37-26.71,10.37-26.71,5.97-10.31,7.66-14.01,8.38-13.72Z" fill="#f3bb1f"/>
    </g>
    <g id="c" data-name="&amp;lt;径向重复&amp;gt;">
      <path d="M91.85,308.6c.55.54-2.18,3.55-9.23,13.05-.64.86-12.89,17.37-20.3,20.09-.67.24-2.5.92-3.29.13-.76-.75-.18-2.47.03-3.09,2.53-7.49,19.8-20.71,19.8-20.71,9.46-7.24,12.44-10.01,12.99-9.47Z" fill="#f3bb1f"/>
    </g>
    <g id="d" data-name="&amp;lt;径向重复&amp;gt;">
      <path d="M58.52,258.95c.3.71-3.37,2.44-13.52,8.52-.92.55-18.55,11.12-26.45,10.79-.71-.03-2.66-.11-3.09-1.14-.41-.98.78-2.35,1.21-2.85,5.2-5.96,26.22-11.56,26.22-11.56,11.51-3.07,15.32-4.49,15.62-3.78Z" fill="#f3bb1f"/>
    </g>
    <g id="e" data-name="&amp;lt;径向重复&amp;gt;">
      <path d="M46.73,200.33c0,.77-4.05.97-15.75,2.7-1.06.16-21.4,3.17-28.56-.15C1.78,202.58,0,201.76,0,200.65c0-1.07,1.62-1.87,2.21-2.17,7.08-3.51,28.64-.64,28.64-.64,11.81,1.57,15.87,1.72,15.88,2.49Z" fill="#f3bb1f"/>
    </g>
    <g id="f" data-name="&amp;lt;径向重复&amp;gt;">
      <path d="M58.27,141.65c-.29.71-4.11-.66-15.58-3.53-1.04-.26-20.98-5.26-26.33-11.07-.48-.52-1.8-1.96-1.38-2.99.4-.99,2.21-1.11,2.87-1.16,7.89-.53,26.71,10.37,26.71,10.37,10.31,5.97,14.01,7.66,13.72,8.38Z" fill="#f3bb1f"/>
    </g>
    <g id="g" data-name="&amp;lt;径向重复&amp;gt;">
      <path d="M91.39,91.85c-.54.55-3.55-2.18-13.05-9.23-.86-.64-17.37-12.89-20.09-20.3-.24-.67-.92-2.5-.13-3.29.75-.76,2.47-.18,3.09.03,7.49,2.53,20.71,19.8,20.71,19.8,7.24,9.46,10.01,12.44,9.47,12.99Z" fill="#f3bb1f"/>
    </g>
    <g id="h" data-name="&amp;lt;径向重复&amp;gt;">
      <path d="M141.04,58.52c-.71.3-2.44-3.37-8.52-13.52-.55-.92-11.12-18.55-10.79-26.45.03-.71.11-2.66,1.14-3.09.98-.41,2.35.78,2.85,1.21,5.96,5.2,11.56,26.22,11.56,26.22,3.07,11.51,4.49,15.32,3.78,15.62Z" fill="#f3bb1f"/>
    </g>
    <g id="i" data-name="&amp;lt;径向重复&amp;gt;">
      <path d="M199.67,46.73c-.77,0-.97-4.05-2.7-15.75-.16-1.06-3.17-21.4.15-28.56C197.42,1.78,198.24,0,199.35,0c1.07,0,1.87,1.62,2.17,2.21,3.51,7.08.64,28.64.64,28.64-1.57,11.81-1.72,15.87-2.49,15.88Z" fill="#f3bb1f"/>
    </g>
    <g id="j" data-name="&amp;lt;径向重复&amp;gt;">
      <path d="M258.35,58.27c-.71-.29.66-4.11,3.53-15.58.26-1.04,5.26-20.98,11.07-26.33.52-.48,1.96-1.8,2.99-1.38.99.4,1.11,2.21,1.16,2.87.53,7.89-10.37,26.71-10.37,26.71-5.97,10.31-7.66,14.01-8.38,13.72Z" fill="#f3bb1f"/>
    </g>
    <g id="k" data-name="&amp;lt;径向重复&amp;gt;">
      <path d="M308.15,91.39c-.55-.54,2.18-3.55,9.23-13.05.64-.86,12.89-17.37,20.3-20.09.67-.24,2.5-.92,3.29-.13.76.75.18,2.47-.03,3.09-2.53,7.49-19.8,20.71-19.8,20.71-9.46,7.24-12.44,10.01-12.99,9.47Z" fill="#f3bb1f"/>
    </g>
    <g id="l" data-name="&amp;lt;径向重复&amp;gt;">
      <path d="M341.48,141.04c-.3-.71,3.37-2.44,13.52-8.52.92-.55,18.55-11.12,26.45-10.79.71.03,2.66.11,3.09,1.14.41.98-.78,2.35-1.21,2.85-5.2,5.96-26.22,11.56-26.22,11.56-11.51,3.07-15.32,4.49-15.62,3.78Z" fill="#f3bb1f"/>
    </g>
    <g id="m" data-name="&amp;lt;径向重复&amp;gt;">
      <path d="M353.27,199.67c0-.77,4.05-.97,15.75-2.7,1.06-.16,21.4-3.17,28.56.15.64.3,2.41,1.12,2.42,2.23,0,1.07-1.62,1.87-2.21,2.17-7.08,3.51-28.64.64-28.64.64-11.81-1.57-15.87-1.72-15.88-2.49Z" fill="#f3bb1f"/>
    </g>
    <g id="n" data-name="&amp;lt;径向重复&amp;gt;">
      <path d="M341.72,258.35c.29-.71,4.11.66,15.58,3.53,1.04.26,20.98,5.26,26.33,11.07.48.52,1.8,1.96,1.38,2.99-.4.99-2.21,1.11-2.87,1.16-7.89.53-26.71-10.37-26.71-10.37-10.31-5.97-14.01-7.66-13.72-8.38Z" fill="#f3bb1f"/>
    </g>
    <g id="o" data-name="&amp;lt;径向重复&amp;gt;">
      <path d="M308.61,308.14c.54-.55,3.55,2.18,13.05,9.23.86.64,17.37,12.89,20.09,20.3.24.67.92,2.5.13,3.29-.75.76-2.47.18-3.09-.03-7.49-2.53-20.71-19.8-20.71-19.8-7.24-9.46-10.01-12.44-9.47-12.99Z" fill="#f3bb1f"/>
    </g>
    <g id="p" data-name="&amp;lt;径向重复&amp;gt;">
      <path d="M258.96,341.47c.71-.3,2.44,3.37,8.52,13.52.55.92,11.12,18.55,10.79,26.45-.03.71-.11,2.66-1.14,3.09-.98.41-2.35-.78-2.85-1.21-5.96-5.2-11.56-26.22-11.56-26.22-3.07-11.51-4.49-15.32-3.78-15.62Z" fill="#f3bb1f"/>
    </g>
    <g id="q" data-name="&amp;lt;径向重复&amp;gt;">
      <path d="M200.33,353.27c.77,0,.97,4.05,2.7,15.75.16,1.06,3.17,21.4-.15,28.56-.3.64-1.12,2.41-2.23,2.42-1.07,0-1.87-1.62-2.17-2.21-3.51-7.08-.64-28.64-.64-28.64,1.57-11.81,1.72-15.87,2.49-15.88Z" fill="#f3bb1f"/>
    </g>
  </g>
</svg>