<?xml version="1.0" encoding="UTF-8"?>
<svg id="_图层_1" data-name="图层 1" xmlns="http://www.w3.org/2000/svg" viewBox="0 0 113.39 113.39">
  <defs>
    <style>
      .cls-1 {
        fill: #c8e4c9;
      }

      .cls-2 {
        fill: #349394;
      }

      .cls-3 {
        fill: #81c58a;
      }
    </style>
  </defs>
  <g>
    <g id="_径向重复_" data-name="&amp;lt;径向重复&amp;gt;">
      <path class="cls-3" d="M56.42,113.07c-.47-1.16-1.26-7.05.28-45.04,1.53,37.99.74,43.88.28,45.04-.17.43-.38.43-.56,0Z"/>
    </g>
    <g id="_径向重复_-2" data-name="&amp;lt;径向重复&amp;gt;">
      <path class="cls-3" d="M39.01,110.22c-.09-1.25.98-7.09,14.18-42.75-10.28,36.6-12.85,41.96-13.65,42.92-.29.35-.5.29-.53-.17Z"/>
    </g>
    <g id="_径向重复_-3" data-name="&amp;lt;径向重复&amp;gt;">
      <path class="cls-3" d="M23.33,102.14c.3-1.21,3.13-6.44,26.7-36.27-21.09,31.64-25.19,35.93-26.25,36.6-.39.24-.56.12-.45-.33Z"/>
    </g>
    <g id="_径向重复_-4" data-name="&amp;lt;径向重复&amp;gt;">
      <path class="cls-3" d="M10.92,89.6c.66-1.06,4.96-5.16,36.6-26.25-29.83,23.57-35.06,26.39-36.27,26.7-.44.11-.57-.06-.33-.45Z"/>
    </g>
    <g id="_径向重复_-5" data-name="&amp;lt;径向重复&amp;gt;">
      <path class="cls-3" d="M2.99,73.85c.96-.8,6.31-3.37,42.92-13.65-35.66,13.2-41.5,14.27-42.75,14.18-.46-.03-.52-.23-.17-.53Z"/>
    </g>
    <g id="_径向重复_-6" data-name="&amp;lt;径向重复&amp;gt;">
      <path class="cls-3" d="M.32,56.42c1.16-.47,7.05-1.26,45.04.28-37.99,1.53-43.88.74-45.04.28-.43-.17-.43-.38,0-.56Z"/>
    </g>
    <g id="_径向重复_-7" data-name="&amp;lt;径向重复&amp;gt;">
      <path class="cls-3" d="M3.16,39.01c1.25-.09,7.09.98,42.75,14.18C9.31,42.91,3.95,40.34,2.99,39.54c-.35-.29-.29-.5.17-.53Z"/>
    </g>
    <g id="_径向重复_-8" data-name="&amp;lt;径向重复&amp;gt;">
      <path class="cls-3" d="M11.25,23.33c1.21.3,6.44,3.13,36.27,26.7C15.88,28.94,11.58,24.84,10.92,23.78c-.24-.39-.12-.56.33-.45Z"/>
    </g>
    <g id="_径向重复_-9" data-name="&amp;lt;径向重复&amp;gt;">
      <path class="cls-3" d="M23.78,10.92c1.06.66,5.16,4.96,26.25,36.6C26.46,17.69,23.64,12.46,23.33,11.25c-.11-.44.06-.57.45-.33Z"/>
    </g>
    <g id="_径向重复_-10" data-name="&amp;lt;径向重复&amp;gt;">
      <path class="cls-3" d="M39.54,2.99c.8.96,3.37,6.31,13.65,42.92C39.99,10.25,38.92,4.41,39.01,3.16c.03-.46.23-.52.53-.17Z"/>
    </g>
    <g id="_径向重复_-11" data-name="&amp;lt;径向重复&amp;gt;">
      <path class="cls-3" d="M56.97.32c.47,1.16,1.26,7.05-.28,45.04-1.53-37.99-.74-43.88-.28-45.04.17-.43.38-.43.56,0Z"/>
    </g>
    <g id="_径向重复_-12" data-name="&amp;lt;径向重复&amp;gt;">
      <path class="cls-3" d="M74.38,3.16c.09,1.25-.98,7.09-14.18,42.75C70.48,9.31,73.05,3.95,73.85,2.99c.29-.35.5-.29.53.17Z"/>
    </g>
    <g id="_径向重复_-13" data-name="&amp;lt;径向重复&amp;gt;">
      <path class="cls-3" d="M90.05,11.25c-.3,1.21-3.13,6.44-26.7,36.27,21.09-31.64,25.19-35.93,26.25-36.6.39-.24.56-.12.45.33Z"/>
    </g>
    <g id="_径向重复_-14" data-name="&amp;lt;径向重复&amp;gt;">
      <path class="cls-3" d="M102.46,23.78c-.66,1.06-4.96,5.16-36.6,26.25,29.83-23.57,35.06-26.39,36.27-26.7.44-.11.57.06.33.45Z"/>
    </g>
    <g id="_径向重复_-15" data-name="&amp;lt;径向重复&amp;gt;">
      <path class="cls-3" d="M110.39,39.54c-.96.8-6.31,3.37-42.92,13.65,35.66-13.2,41.5-14.27,42.75-14.18.46.03.52.23.17.53Z"/>
    </g>
    <g id="_径向重复_-16" data-name="&amp;lt;径向重复&amp;gt;">
      <path class="cls-3" d="M113.07,56.97c-1.16.47-7.05,1.26-45.04-.28,37.99-1.53,43.88-.74,45.04-.28.43.17.43.38,0,.56Z"/>
    </g>
    <g id="_径向重复_-17" data-name="&amp;lt;径向重复&amp;gt;">
      <path class="cls-3" d="M110.22,74.38c-1.25.09-7.09-.98-42.75-14.18,36.6,10.28,41.96,12.85,42.92,13.65.35.29.29.5-.17.53Z"/>
    </g>
    <g id="_径向重复_-18" data-name="&amp;lt;径向重复&amp;gt;">
      <path class="cls-3" d="M102.14,90.05c-1.21-.3-6.44-3.13-36.27-26.7,31.64,21.09,35.93,25.19,36.6,26.25.24.39.12.56-.33.45Z"/>
    </g>
    <g id="_径向重复_-19" data-name="&amp;lt;径向重复&amp;gt;">
      <path class="cls-3" d="M89.6,102.46c-1.06-.66-5.16-4.96-26.25-36.6,23.57,29.83,26.39,35.06,26.7,36.27.11.44-.06.57-.45.33Z"/>
    </g>
    <g id="_径向重复_-20" data-name="&amp;lt;径向重复&amp;gt;">
      <path class="cls-3" d="M73.85,110.39c-.8-.96-3.37-6.31-13.65-42.92,13.2,35.66,14.27,41.5,14.18,42.75-.03.46-.23.52-.53.17Z"/>
    </g>
  </g>
  <g>
    <g id="_径向重复_-21" data-name="&amp;lt;径向重复&amp;gt;">
      <path class="cls-2" d="M22.1,21.79c.9.38,4.58,3.19,24.67,24.97-21.78-20.09-24.59-23.77-24.97-24.67-.14-.33-.02-.45.31-.31Z"/>
    </g>
    <g id="_径向重复_-22" data-name="&amp;lt;径向重复&amp;gt;">
      <path class="cls-2" d="M34.58,12.81c.73.64,3.37,4.45,15.74,31.37-14.51-25.84-16.04-30.21-16.13-31.17-.03-.36.12-.43.39-.2Z"/>
    </g>
    <g id="_径向重复_-23" data-name="&amp;lt;径向重复&amp;gt;">
      <path class="cls-2" d="M49.22,8.13c.5.83,1.83,5.27,5.28,34.7-5.81-29.05-5.92-33.68-5.7-34.63.08-.35.24-.37.43-.07Z"/>
    </g>
    <g id="_径向重复_-24" data-name="&amp;lt;径向重复&amp;gt;">
      <path class="cls-2" d="M64.59,8.19c.22.95.11,5.58-5.7,34.63,3.45-29.43,4.78-33.87,5.28-34.7.18-.31.35-.28.43.07Z"/>
    </g>
    <g id="_径向重复_-25" data-name="&amp;lt;径向重复&amp;gt;">
      <path class="cls-2" d="M79.19,13.01c-.09.97-1.62,5.34-16.13,31.17,12.38-26.92,15.01-30.73,15.74-31.37.27-.23.42-.16.39.2Z"/>
    </g>
    <g id="_径向重复_-26" data-name="&amp;lt;径向重复&amp;gt;">
      <path class="cls-2" d="M91.59,22.1c-.38.9-3.19,4.58-24.97,24.67,20.09-21.78,23.77-24.59,24.67-24.97.33-.14.45-.02.31.31Z"/>
    </g>
    <g id="_径向重复_-27" data-name="&amp;lt;径向重复&amp;gt;">
      <path class="cls-2" d="M100.57,34.58c-.64.73-4.45,3.37-31.37,15.74,25.84-14.51,30.21-16.04,31.17-16.13.36-.03.43.12.2.39Z"/>
    </g>
    <g id="_径向重复_-28" data-name="&amp;lt;径向重复&amp;gt;">
      <path class="cls-2" d="M105.26,49.22c-.83.5-5.27,1.83-34.7,5.28,29.05-5.81,33.68-5.92,34.63-5.7.35.08.37.24.07.43Z"/>
    </g>
    <g id="_径向重复_-29" data-name="&amp;lt;径向重复&amp;gt;">
      <path class="cls-2" d="M105.19,64.59c-.95.22-5.58.11-34.63-5.7,29.43,3.45,33.87,4.78,34.7,5.28.31.18.28.35-.07.43Z"/>
    </g>
    <g id="_径向重复_-30" data-name="&amp;lt;径向重复&amp;gt;">
      <path class="cls-2" d="M100.38,79.19c-.97-.09-5.34-1.62-31.17-16.13,26.92,12.38,30.73,15.01,31.37,15.74.23.27.16.42-.2.39Z"/>
    </g>
    <g id="_径向重复_-31" data-name="&amp;lt;径向重复&amp;gt;">
      <path class="cls-2" d="M91.29,91.59c-.9-.38-4.58-3.19-24.67-24.97,21.78,20.09,24.59,23.77,24.97,24.67.14.33.02.45-.31.31Z"/>
    </g>
    <g id="_径向重复_-32" data-name="&amp;lt;径向重复&amp;gt;">
      <path class="cls-2" d="M78.81,100.57c-.73-.64-3.37-4.45-15.74-31.37,14.51,25.84,16.04,30.21,16.13,31.17.03.36-.12.43-.39.2Z"/>
    </g>
    <g id="_径向重复_-33" data-name="&amp;lt;径向重复&amp;gt;">
      <path class="cls-2" d="M64.17,105.26c-.5-.83-1.83-5.27-5.28-34.7,5.81,29.05,5.92,33.68,5.7,34.63-.08.35-.24.37-.43.07Z"/>
    </g>
    <g id="_径向重复_-34" data-name="&amp;lt;径向重复&amp;gt;">
      <path class="cls-2" d="M48.79,105.19c-.22-.95-.11-5.58,5.7-34.63-3.45,29.43-4.78,33.87-5.28,34.7-.18.31-.35.28-.43-.07Z"/>
    </g>
    <g id="_径向重复_-35" data-name="&amp;lt;径向重复&amp;gt;">
      <path class="cls-2" d="M34.19,100.38c.09-.97,1.62-5.34,16.13-31.17-12.38,26.92-15.01,30.73-15.74,31.37-.27.23-.42.16-.39-.2Z"/>
    </g>
    <g id="_径向重复_-36" data-name="&amp;lt;径向重复&amp;gt;">
      <path class="cls-2" d="M21.79,91.29c.38-.9,3.19-4.58,24.97-24.67-20.09,21.78-23.77,24.59-24.67,24.97-.33.14-.45.02-.31-.31Z"/>
    </g>
    <g id="_径向重复_-37" data-name="&amp;lt;径向重复&amp;gt;">
      <path class="cls-2" d="M12.81,78.81c.64-.73,4.45-3.37,31.37-15.74-25.84,14.51-30.21,16.04-31.17,16.13-.36.03-.43-.12-.2-.39Z"/>
    </g>
    <g id="_径向重复_-38" data-name="&amp;lt;径向重复&amp;gt;">
      <path class="cls-2" d="M8.13,64.17c.83-.5,5.27-1.83,34.7-5.28-29.05,5.81-33.68,5.92-34.63,5.7-.35-.08-.37-.24-.07-.43Z"/>
    </g>
    <g id="_径向重复_-39" data-name="&amp;lt;径向重复&amp;gt;">
      <path class="cls-2" d="M8.19,48.79c.95-.22,5.58-.11,34.63,5.7-29.43-3.45-33.87-4.78-34.7-5.28-.31-.18-.28-.35.07-.43Z"/>
    </g>
    <g id="_径向重复_-40" data-name="&amp;lt;径向重复&amp;gt;">
      <path class="cls-2" d="M13.01,34.19c.97.09,5.34,1.62,31.17,16.13-26.92-12.38-30.73-15.01-31.37-15.74-.23-.27-.16-.42.2-.39Z"/>
    </g>
  </g>
  <g>
    <g id="_径向重复_-41" data-name="&amp;lt;径向重复&amp;gt;">
      <ellipse class="cls-1" cx="56.69" cy="50.34" rx="1.31" ry="2.84"/>
    </g>
    <g id="_径向重复_-42" data-name="&amp;lt;径向重复&amp;gt;">
      <ellipse class="cls-1" cx="59.65" cy="51.07" rx="2.84" ry="1.31" transform="translate(-13.29 80.15) rotate(-62.31)"/>
    </g>
    <g id="_径向重复_-43" data-name="&amp;lt;径向重复&amp;gt;">
      <ellipse class="cls-1" cx="61.92" cy="53.08" rx="2.84" ry="1.31" transform="translate(-19.19 44.57) rotate(-34.62)"/>
    </g>
    <g id="_径向重复_-44" data-name="&amp;lt;径向重复&amp;gt;">
      <ellipse class="cls-1" cx="63" cy="55.93" rx="2.84" ry="1.31" transform="translate(-6.28 8) rotate(-6.92)"/>
    </g>
    <g id="_径向重复_-45" data-name="&amp;lt;径向重复&amp;gt;">
      <ellipse class="cls-1" cx="62.64" cy="58.95" rx="1.31" ry="2.84" transform="translate(-14.69 96.61) rotate(-69.23)"/>
    </g>
    <g id="_径向重复_-46" data-name="&amp;lt;径向重复&amp;gt;">
      <ellipse class="cls-1" cx="60.91" cy="61.45" rx="1.31" ry="2.84" transform="translate(-25.43 55.84) rotate(-41.54)"/>
    </g>
    <g id="_径向重复_-47" data-name="&amp;lt;径向重复&amp;gt;">
      <ellipse class="cls-1" cx="58.21" cy="62.86" rx="1.31" ry="2.84" transform="translate(-13.35 15.76) rotate(-13.85)"/>
    </g>
    <g id="_径向重复_-48" data-name="&amp;lt;径向重复&amp;gt;">
      <ellipse class="cls-1" cx="55.17" cy="62.86" rx="2.84" ry="1.31" transform="translate(-19.07 101.39) rotate(-76.15)"/>
    </g>
    <g id="_径向重复_-49" data-name="&amp;lt;径向重复&amp;gt;">
      <ellipse class="cls-1" cx="52.48" cy="61.45" rx="2.84" ry="1.31" transform="translate(-28.32 59.98) rotate(-48.46)"/>
    </g>
    <g id="_径向重复_-50" data-name="&amp;lt;径向重复&amp;gt;">
      <ellipse class="cls-1" cx="50.75" cy="58.95" rx="2.84" ry="1.31" transform="translate(-17.6 21.83) rotate(-20.77)"/>
    </g>
    <g id="_径向重复_-51" data-name="&amp;lt;径向重复&amp;gt;">
      <ellipse class="cls-1" cx="50.38" cy="55.93" rx="1.31" ry="2.84" transform="translate(-11.21 99.2) rotate(-83.08)"/>
    </g>
    <g id="_径向重复_-52" data-name="&amp;lt;径向重复&amp;gt;">
      <ellipse class="cls-1" cx="51.46" cy="53.08" rx="1.31" ry="2.84" transform="translate(-21.46 65.28) rotate(-55.38)"/>
    </g>
    <g id="_径向重复_-53" data-name="&amp;lt;径向重复&amp;gt;">
      <ellipse class="cls-1" cx="53.74" cy="51.07" rx="1.31" ry="2.84" transform="translate(-17.58 30.82) rotate(-27.69)"/>
    </g>
  </g>
</svg>