<?xml version="1.0" encoding="UTF-8"?>
<svg id="a" data-name="图层 1" xmlns="http://www.w3.org/2000/svg" width="40" height="40" viewBox="0 0 40 40">
  <g>
    <path d="M19.9,39.89c-.16-.41-.44-2.48.1-15.88.54,13.39.26,15.47.1,15.88-.06.15-.14.15-.2,0Z" fill="#80c489"/>
    <path d="M13.76,38.88c-.03-.44.35-2.5,5-15.07-3.62,12.9-4.53,14.79-4.81,15.13-.1.12-.18.1-.19-.06Z" fill="#80c489"/>
    <path d="M8.23,36.03c.11-.43,1.1-2.27,9.41-12.79-7.43,11.15-8.88,12.67-9.25,12.9-.14.09-.2.04-.16-.12Z" fill="#80c489"/>
    <path d="M3.85,31.61c.23-.37,1.75-1.82,12.9-9.25C6.24,30.67,4.4,31.66,3.97,31.77c-.16.04-.2-.02-.12-.16Z" fill="#80c489"/>
    <path d="M1.06,26.05c.34-.28,2.23-1.19,15.13-4.81C3.62,25.89,1.56,26.27,1.12,26.24c-.16-.01-.18-.08-.06-.19Z" fill="#80c489"/>
    <path d="M.11,19.9c.41-.16,2.48-.44,15.88.1-13.39.54-15.47.26-15.88.1-.15-.06-.15-.14,0-.2Z" fill="#80c489"/>
    <path d="M1.12,13.76c.44-.03,2.5.35,15.07,5C3.28,15.14,1.39,14.23,1.06,13.95c-.12-.1-.1-.18.06-.19Z" fill="#80c489"/>
    <path d="M3.97,8.23c.43.11,2.27,1.1,12.79,9.41C5.6,10.21,4.09,8.76,3.85,8.39c-.09-.14-.04-.2.12-.16Z" fill="#80c489"/>
    <path d="M8.39,3.85c.37.23,1.82,1.75,9.25,12.9C9.33,6.24,8.34,4.4,8.23,3.97c-.04-.16.02-.2.16-.12Z" fill="#80c489"/>
    <path d="M13.95,1.06c.28.34,1.19,2.23,4.81,15.13C14.11,3.62,13.73,1.56,13.76,1.12c.01-.16.08-.18.19-.06Z" fill="#80c489"/>
    <path d="M20.1.11c.16.41.44,2.48-.1,15.88-.54-13.39-.26-15.47-.1-15.88.06-.15.14-.15.2,0Z" fill="#80c489"/>
    <path d="M26.24,1.12c.03.44-.35,2.5-5,15.07C24.86,3.28,25.77,1.39,26.05,1.06c.1-.12.18-.1.19.06Z" fill="#80c489"/>
    <path d="M31.77,3.97c-.11.43-1.1,2.27-9.41,12.79,7.43-11.15,8.88-12.67,9.25-12.9.14-.09.2-.04.16.12Z" fill="#80c489"/>
    <path d="M36.15,8.39c-.23.37-1.75,1.82-12.9,9.25,10.52-8.31,12.36-9.3,12.79-9.41.16-.04.2.02.12.16Z" fill="#80c489"/>
    <path d="M38.94,13.95c-.34.28-2.23,1.19-15.13,4.81,12.57-4.65,14.63-5.03,15.07-5,.16.01.18.08.06.19Z" fill="#80c489"/>
    <path d="M39.89,20.1c-.41.16-2.48.44-15.88-.1,13.39-.54,15.47-.26,15.88-.1.15.06.15.14,0,.2Z" fill="#80c489"/>
    <path d="M38.88,26.24c-.44.03-2.5-.35-15.07-5,12.9,3.62,14.79,4.53,15.13,4.81.12.1.1.18-.06.19Z" fill="#80c489"/>
    <path d="M36.03,31.77c-.43-.11-2.27-1.1-12.79-9.41,11.15,7.43,12.67,8.88,12.9,9.25.09.14.04.2-.12.16Z" fill="#80c489"/>
    <path d="M31.61,36.15c-.37-.23-1.82-1.75-9.25-12.9,8.31,10.52,9.3,12.36,9.41,12.79.04.16-.02.2-.16.12Z" fill="#80c489"/>
    <path d="M26.05,38.94c-.28-.34-1.19-2.23-4.81-15.13,4.65,12.57,5.03,14.63,5,15.07-.01.16-.08.18-.19.06Z" fill="#80c489"/>
  </g>
  <g>
    <path d="M12.36,34.31c.03-.36.54-1.87,5.52-10.29-4.22,9.03-5.13,10.23-5.38,10.4-.09.06-.15.02-.14-.11Z" fill="#349293"/>
    <path d="M8.31,31.25c.14-.33,1.1-1.61,8.43-8.08-6.81,7.29-8.04,8.14-8.33,8.23-.11.03-.15-.03-.1-.15Z" fill="#349293"/>
    <path d="M5.41,27.08c.23-.28,1.54-1.19,10.51-5.08-8.73,4.83-10.16,5.26-10.47,5.25-.11,0-.13-.07-.04-.17Z" fill="#349293"/>
    <path d="M3.94,22.23c.31-.19,1.83-.66,11.57-1.58-9.79,1.89-11.29,1.86-11.58,1.76-.11-.04-.1-.11.01-.18Z" fill="#349293"/>
    <path d="M4.03,17.16c.35-.09,1.95-.06,11.49,2.07-9.9-1.22-11.31-1.72-11.55-1.91-.09-.07-.06-.13.06-.16Z" fill="#349293"/>
    <path d="M5.69,12.36c.36.03,1.87.54,10.29,5.52-9.03-4.22-10.23-5.13-10.4-5.38-.06-.09-.02-.15.11-.14Z" fill="#349293"/>
    <path d="M8.75,8.31c.33.14,1.61,1.1,8.08,8.43-7.29-6.81-8.14-8.04-8.23-8.33-.03-.11.03-.15.15-.1Z" fill="#349293"/>
    <path d="M12.92,5.41c.28.23,1.19,1.54,5.08,10.51-4.83-8.73-5.26-10.16-5.25-10.47,0-.11.07-.13.17-.04Z" fill="#349293"/>
    <path d="M17.77,3.94c.19.31.66,1.83,1.58,11.57-1.89-9.79-1.86-11.29-1.76-11.58.04-.11.11-.1.18.01Z" fill="#349293"/>
    <path d="M22.84,4.03c.09.35.06,1.95-2.07,11.49,1.22-9.9,1.72-11.31,1.91-11.55.07-.09.13-.06.16.06Z" fill="#349293"/>
    <path d="M27.64,5.69c-.03.36-.54,1.87-5.52,10.29,4.22-9.03,5.13-10.23,5.38-10.4.09-.06.15-.02.14.11Z" fill="#349293"/>
    <path d="M31.69,8.75c-.14.33-1.1,1.61-8.43,8.08,6.81-7.29,8.04-8.14,8.33-8.23.11-.03.15.03.1.15Z" fill="#349293"/>
    <path d="M34.59,12.92c-.23.28-1.54,1.19-10.51,5.08,8.73-4.83,10.16-5.26,10.47-5.25.11,0,.13.07.04.17Z" fill="#349293"/>
    <path d="M36.06,17.77c-.31.19-1.83.66-11.57,1.58,9.79-1.89,11.29-1.86,11.58-1.76.11.04.1.11-.01.18Z" fill="#349293"/>
    <path d="M35.97,22.84c-.35.09-1.95.06-11.49-2.07,9.9,1.22,11.31,1.72,11.55,1.91.09.07.06.13-.06.16Z" fill="#349293"/>
    <path d="M34.31,27.64c-.36-.03-1.87-.54-10.29-5.52,9.03,4.22,10.23,5.13,10.4,5.38.06.09.02.15-.11.14Z" fill="#349293"/>
    <path d="M31.25,31.69c-.33-.14-1.61-1.1-8.08-8.43,7.29,6.81,8.14,8.04,8.23,8.33.03.11-.03.15-.15.1Z" fill="#349293"/>
    <path d="M27.08,34.59c-.28-.23-1.19-1.54-5.08-10.51,4.83,8.73,5.26,10.16,5.25,10.47,0,.11-.07.13-.17.04Z" fill="#349293"/>
    <path d="M22.23,36.06c-.19-.31-.66-1.83-1.58-11.57,1.89,9.79,1.86,11.29,1.76,11.58-.04.11-.11.1-.18-.01Z" fill="#349293"/>
    <path d="M17.16,35.97c-.09-.35-.06-1.95,2.07-11.49-1.22,9.9-1.72,11.31-1.91,11.55-.07.09-.13.06-.16-.06Z" fill="#349293"/>
  </g>
  <g>
    <path d="M19.03,21.9c.12-.44.46-.85.66-.75s.26.71.14,1.15-.46.85-.66.75-.26-.71-.14-1.15Z" fill="#c7e3c9"/>
    <path d="M18.28,21.24c.31-.33.8-.54.93-.36s-.11.75-.41,1.08-.8.54-.93.36.11-.75.41-1.08Z" fill="#c7e3c9"/>
    <path d="M17.92,20.3c.43-.15.96-.11.99.12s-.44.61-.87.76-.96.11-.99-.12.44-.61.87-.76Z" fill="#c7e3c9"/>
    <path d="M18.03,19.31c.45.07.9.35.82.56s-.68.34-1.12.27-.9-.35-.82-.56.68-.34,1.12-.27Z" fill="#c7e3c9"/>
    <path d="M18.59,18.48c.36.27.63.73.47.88s-.76-.01-1.12-.28-.63-.73-.47-.88.76.01,1.12.28Z" fill="#c7e3c9"/>
    <path d="M19.48,18.01c.2.41.22.94,0,.99s-.66-.36-.86-.77-.22-.94,0-.99.66.36.86.77Z" fill="#c7e3c9"/>
    <path d="M20.48,18c-.01.45-.24.93-.46.88s-.42-.63-.41-1.08.24-.93.46-.88.42.63.41,1.08Z" fill="#c7e3c9"/>
    <path d="M21.37,18.46c-.22.39-.65.71-.82.57s-.08-.75.14-1.15.65-.71.82-.57.08.75-.14,1.15Z" fill="#c7e3c9"/>
    <path d="M21.95,19.28c-.38.25-.9.33-.99.12s.28-.7.66-.95.9-.33.99-.12-.28.7-.66.95Z" fill="#c7e3c9"/>
    <path d="M22.08,20.28c-.45.04-.96-.13-.93-.35s.58-.49,1.03-.53.96.13.93.35-.58.49-1.03.53Z" fill="#c7e3c9"/>
    <path d="M21.73,21.22c-.42-.17-.79-.56-.66-.74s.74-.17,1.16,0,.79.56.66.74-.74.17-1.16,0Z" fill="#c7e3c9"/>
    <path d="M20.98,21.89c-.29-.35-.44-.86-.24-.96s.73.19,1.02.54.44.86.24.96-.73-.19-1.02-.54Z" fill="#c7e3c9"/>
    <path d="M20.01,22.13c-.1-.44.01-.96.23-.97s.56.51.65.95-.01.96-.23.97-.56-.51-.65-.95Z" fill="#c7e3c9"/>
  </g>
</svg>