<?xml version="1.0" encoding="UTF-8"?>
<svg id="a" data-name="图层 1" xmlns="http://www.w3.org/2000/svg" width="400" height="400" viewBox="0 0 400 400">
  <g>
    <polygon points="200 233.35 195.63 366.73 204.37 366.73 200 233.35" fill="#a0d7e9"/>
    <polygon points="194.78 232.94 169.6 364 178.23 365.36 194.78 232.94" fill="#a0d7e9"/>
    <polygon points="189.69 231.71 144.32 357.22 152.63 359.92 189.69 231.71" fill="#a0d7e9"/>
    <polygon points="184.86 229.71 120.41 346.57 128.19 350.54 184.86 229.71" fill="#a0d7e9"/>
    <polygon points="180.4 226.98 98.47 332.32 105.53 337.45 180.4 226.98" fill="#a0d7e9"/>
    <polygon points="176.42 223.58 79.01 314.81 85.19 320.99 176.42 223.58" fill="#a0d7e9"/>
    <polygon points="173.02 219.6 62.54 294.47 67.67 301.54 173.02 219.6" fill="#a0d7e9"/>
    <polygon points="170.29 215.13 49.46 271.8 53.42 279.58 170.29 215.13" fill="#a0d7e9"/>
    <polygon points="168.29 210.3 40.08 247.37 42.78 255.67 168.29 210.3" fill="#a0d7e9"/>
    <polygon points="167.06 205.21 34.64 221.77 36 230.39 167.06 205.21" fill="#a0d7e9"/>
    <polygon points="166.65 200 33.27 195.63 33.27 204.36 166.65 200" fill="#a0d7e9"/>
    <polygon points="167.06 194.78 36 169.6 34.64 178.23 167.06 194.78" fill="#a0d7e9"/>
    <polygon points="168.29 189.69 42.78 144.32 40.08 152.63 168.29 189.69" fill="#a0d7e9"/>
    <polygon points="170.29 184.86 53.42 120.41 49.46 128.19 170.29 184.86" fill="#a0d7e9"/>
    <polygon points="173.02 180.39 67.67 98.46 62.54 105.52 173.02 180.39" fill="#a0d7e9"/>
    <polygon points="176.42 176.42 85.19 79.01 79.01 85.18 176.42 176.42" fill="#a0d7e9"/>
    <polygon points="180.4 173.02 105.53 62.54 98.46 67.67 180.4 173.02" fill="#a0d7e9"/>
    <polygon points="184.86 170.29 128.19 49.45 120.41 53.42 184.86 170.29" fill="#a0d7e9"/>
    <polygon points="189.7 168.28 152.63 40.08 144.33 42.77 189.7 168.28" fill="#a0d7e9"/>
    <polygon points="194.78 167.06 178.23 34.63 169.61 36 194.78 167.06" fill="#a0d7e9"/>
    <polygon points="200 166.65 204.37 33.26 195.63 33.26 200 166.65" fill="#a0d7e9"/>
    <polygon points="205.22 167.06 230.4 36 221.77 34.63 205.22 167.06" fill="#a0d7e9"/>
    <polygon points="210.3 168.28 255.68 42.77 247.37 40.08 210.3 168.28" fill="#a0d7e9"/>
    <polygon points="215.14 170.29 279.59 53.42 271.81 49.46 215.14 170.29" fill="#a0d7e9"/>
    <polygon points="219.6 173.02 301.54 67.67 294.47 62.54 219.6 173.02" fill="#a0d7e9"/>
    <polygon points="223.58 176.42 320.98 85.18 314.81 79.01 223.58 176.42" fill="#a0d7e9"/>
    <polygon points="226.98 180.4 337.46 105.53 332.32 98.46 226.98 180.4" fill="#a0d7e9"/>
    <polygon points="229.71 184.86 350.54 128.19 346.58 120.41 229.71 184.86" fill="#a0d7e9"/>
    <polygon points="231.71 189.69 359.92 152.63 357.22 144.32 231.71 189.69" fill="#a0d7e9"/>
    <polygon points="232.94 194.78 365.37 178.23 364 169.6 232.94 194.78" fill="#a0d7e9"/>
    <polygon points="233.35 200 366.73 204.36 366.73 195.63 233.35 200" fill="#a0d7e9"/>
    <polygon points="232.94 205.22 364 230.39 365.36 221.77 232.94 205.22" fill="#a0d7e9"/>
    <polygon points="231.71 210.3 357.22 255.67 359.92 247.37 231.71 210.3" fill="#a0d7e9"/>
    <polygon points="229.72 215.14 346.58 279.58 350.55 271.81 229.72 215.14" fill="#a0d7e9"/>
    <polygon points="226.98 219.6 332.32 301.54 337.46 294.47 226.98 219.6" fill="#a0d7e9"/>
    <polygon points="223.58 223.58 314.81 320.98 320.99 314.81 223.58 223.58" fill="#a0d7e9"/>
    <polygon points="219.6 226.98 294.47 337.45 301.54 332.32 219.6 226.98" fill="#a0d7e9"/>
    <polygon points="215.14 229.71 271.8 350.54 279.58 346.58 215.14 229.71" fill="#a0d7e9"/>
    <polygon points="210.31 231.71 247.37 359.92 255.68 357.22 210.31 231.71" fill="#a0d7e9"/>
    <polygon points="205.21 232.94 221.77 365.36 230.39 364 205.21 232.94" fill="#a0d7e9"/>
  </g>
  <g>
    <polygon points="198.05 225.41 186.93 326.82 193.59 327.33 198.05 225.41" fill="#0087c0"/>
    <polygon points="194.1 224.8 167.26 323.22 173.75 324.76 194.1 224.8" fill="#0087c0"/>
    <polygon points="190.29 223.57 148.38 316.58 154.55 319.12 190.29 223.57" fill="#0087c0"/>
    <polygon points="186.73 221.76 130.78 307.07 136.48 310.54 186.73 221.76" fill="#0087c0"/>
    <polygon points="183.49 219.41 114.89 294.92 119.97 299.24 183.49 219.41" fill="#0087c0"/>
    <polygon points="180.65 216.59 101.09 280.44 105.43 285.5 180.65 216.59" fill="#0087c0"/>
    <polygon points="178.29 213.36 89.72 263.97 93.22 269.65 178.29 213.36" fill="#0087c0"/>
    <polygon points="176.47 209.8 81.07 245.93 83.64 252.09 176.47 209.8" fill="#0087c0"/>
    <polygon points="175.23 206 75.35 226.76 76.92 233.25 175.23 206" fill="#0087c0"/>
    <polygon points="174.59 202.05 72.7 206.93 73.23 213.59 174.59 202.05" fill="#0087c0"/>
    <polygon points="174.58 198.05 73.18 186.93 72.67 193.59 174.58 198.05" fill="#0087c0"/>
    <polygon points="175.2 194.1 76.78 167.26 75.24 173.75 175.2 194.1" fill="#0087c0"/>
    <polygon points="176.43 190.29 83.42 148.38 80.88 154.55 176.43 190.29" fill="#0087c0"/>
    <polygon points="178.24 186.72 92.93 130.78 89.46 136.48 178.24 186.72" fill="#0087c0"/>
    <polygon points="180.58 183.48 105.08 114.88 100.76 119.97 180.58 183.48" fill="#0087c0"/>
    <polygon points="183.41 180.65 119.56 101.08 114.5 105.43 183.41 180.65" fill="#0087c0"/>
    <polygon points="186.64 178.29 136.03 89.72 130.34 93.22 186.64 178.29" fill="#0087c0"/>
    <polygon points="190.2 176.47 154.07 81.07 147.91 83.64 190.2 176.47" fill="#0087c0"/>
    <polygon points="194 175.23 173.24 75.35 166.75 76.92 194 175.23" fill="#0087c0"/>
    <polygon points="197.95 174.59 193.06 72.7 186.41 73.23 197.95 174.59" fill="#0087c0"/>
    <polygon points="201.95 174.58 213.06 73.18 206.41 72.67 201.95 174.58" fill="#0087c0"/>
    <polygon points="205.9 175.2 232.74 76.78 226.25 75.24 205.9 175.2" fill="#0087c0"/>
    <polygon points="209.71 176.43 251.62 83.42 245.44 80.88 209.71 176.43" fill="#0087c0"/>
    <polygon points="213.27 178.24 269.22 92.93 263.52 89.46 213.27 178.24" fill="#0087c0"/>
    <polygon points="216.51 180.58 285.11 105.08 280.03 100.75 216.51 180.58" fill="#0087c0"/>
    <polygon points="219.35 183.4 298.91 119.56 294.57 114.5 219.35 183.4" fill="#0087c0"/>
    <polygon points="221.71 186.64 310.28 136.02 306.78 130.34 221.71 186.64" fill="#0087c0"/>
    <polygon points="223.53 190.2 318.93 154.06 316.36 147.9 223.53 190.2" fill="#0087c0"/>
    <polygon points="224.77 194 324.65 173.23 323.08 166.75 224.77 194" fill="#0087c0"/>
    <polygon points="225.41 197.95 327.3 193.06 326.77 186.41 225.41 197.95" fill="#0087c0"/>
    <polygon points="225.42 201.95 326.82 213.06 327.33 206.41 225.42 201.95" fill="#0087c0"/>
    <polygon points="224.8 205.9 323.22 232.74 324.76 226.25 224.8 205.9" fill="#0087c0"/>
    <polygon points="223.57 209.7 316.58 251.61 319.12 245.44 223.57 209.7" fill="#0087c0"/>
    <polygon points="221.76 213.27 307.07 269.22 310.54 263.52 221.76 213.27" fill="#0087c0"/>
    <polygon points="219.42 216.51 294.92 285.11 299.25 280.03 219.42 216.51" fill="#0087c0"/>
    <polygon points="216.59 219.35 280.44 298.91 285.5 294.57 216.59 219.35" fill="#0087c0"/>
    <polygon points="213.36 221.71 263.97 310.28 269.66 306.78 213.36 221.71" fill="#0087c0"/>
    <polygon points="209.8 223.53 245.93 318.93 252.09 316.36 209.8 223.53" fill="#0087c0"/>
    <polygon points="206 224.77 226.76 324.65 233.25 323.08 206 224.77" fill="#0087c0"/>
    <polygon points="202.05 225.41 206.94 327.3 213.59 326.77 202.05 225.41" fill="#0087c0"/>
  </g>
  <g>
    <path d="M190.04,329.36l-9.4,66.6c-.28,1.96,1.16,3.74,3.13,3.89l1.68.13c1.97.15,3.66-1.39,3.69-3.37l.9-67.26Z" fill="#46bdd5"/>
    <path d="M169.93,326.21l-19.7,64.31c-.58,1.89.56,3.88,2.48,4.33l1.64.39c1.92.46,3.83-.8,4.17-2.75l11.41-66.29Z" fill="#46bdd5"/>
    <path d="M150.55,319.95l-29.52,60.44c-.87,1.78-.06,3.92,1.77,4.67l1.56.64c1.83.75,3.91-.19,4.55-2.06l21.64-63.69Z" fill="#46bdd5"/>
    <path d="M132.4,310.73l-38.61,55.08c-1.13,1.62-.67,3.86,1.02,4.89l1.44.88c1.69,1.03,3.89.42,4.81-1.33l31.34-59.52Z" fill="#46bdd5"/>
    <path d="M115.91,298.8l-46.75,48.36c-1.37,1.42-1.26,3.71.24,4.99l1.28,1.09c1.51,1.28,3.78,1.03,4.96-.56l40.26-53.88Z" fill="#46bdd5"/>
    <path d="M101.48,284.43l-53.74,40.45c-1.58,1.19-1.83,3.46-.54,4.96l1.1,1.28c1.29,1.5,3.57,1.6,4.99.23l48.2-46.92Z" fill="#46bdd5"/>
    <path d="M89.49,267.98l-59.41,31.54c-1.75.93-2.35,3.14-1.31,4.82l.88,1.44c1.04,1.68,3.28,2.14,4.89,1l54.94-38.8Z" fill="#46bdd5"/>
    <path d="M80.22,249.86l-63.61,21.86c-1.87.64-2.81,2.73-2.05,4.55l.65,1.56c.76,1.82,2.9,2.63,4.68,1.76l60.34-29.73Z" fill="#46bdd5"/>
    <path d="M73.89,230.5l-66.25,11.64c-1.95.34-3.2,2.26-2.74,4.18l.4,1.64c.46,1.92,2.46,3.05,4.34,2.47l64.25-19.92Z" fill="#46bdd5"/>
    <path d="M70.67,210.4l-67.26,1.13c-1.98.03-3.51,1.73-3.36,3.7l.14,1.68c.16,1.97,1.95,3.4,3.9,3.11l66.57-9.63Z" fill="#46bdd5"/>
    <path d="M70.64,190.04l-66.6-9.4c-1.96-.28-3.74,1.16-3.89,3.13l-.13,1.68c-.15,1.97,1.39,3.66,3.37,3.69l67.26.9Z" fill="#46bdd5"/>
    <path d="M73.79,169.93l-64.31-19.7c-1.89-.58-3.88.56-4.33,2.48l-.39,1.64c-.46,1.92.8,3.83,2.75,4.17l66.29,11.41Z" fill="#46bdd5"/>
    <path d="M80.05,150.55l-60.44-29.52c-1.78-.87-3.92-.06-4.67,1.77l-.64,1.56c-.75,1.83.19,3.91,2.06,4.55l63.69,21.64Z" fill="#46bdd5"/>
    <path d="M89.26,132.4l-55.08-38.61c-1.62-1.13-3.86-.67-4.89,1.02l-.88,1.44c-1.03,1.69-.42,3.89,1.33,4.81l59.52,31.34Z" fill="#46bdd5"/>
    <path d="M101.2,115.91l-48.36-46.75c-1.42-1.37-3.71-1.26-4.99.24l-1.09,1.28c-1.28,1.51-1.03,3.78.56,4.96l53.88,40.26Z" fill="#46bdd5"/>
    <path d="M115.57,101.48l-40.45-53.74c-1.19-1.58-3.46-1.83-4.96-.54l-1.28,1.1c-1.5,1.29-1.6,3.57-.23,4.99l46.92,48.2Z" fill="#46bdd5"/>
    <path d="M132.02,89.49l-31.54-59.41c-.93-1.75-3.14-2.35-4.82-1.31l-1.44.88c-1.68,1.04-2.14,3.28-1,4.89l38.8,54.94Z" fill="#46bdd5"/>
    <path d="M150.14,80.22l-21.86-63.61c-.64-1.87-2.73-2.81-4.55-2.05l-1.56.65c-1.82.76-2.63,2.9-1.76,4.68l29.73,60.34Z" fill="#46bdd5"/>
    <path d="M169.5,73.89l-11.64-66.25c-.34-1.95-2.26-3.2-4.18-2.74l-1.64.4c-1.92.46-3.05,2.46-2.47,4.34l19.92,64.25Z" fill="#46bdd5"/>
    <path d="M189.6,70.67l-1.13-67.25c-.03-1.98-1.73-3.51-3.7-3.36l-1.68.14c-1.97.16-3.4,1.95-3.11,3.9l9.63,66.57Z" fill="#46bdd5"/>
    <path d="M209.96,70.64l9.4-66.6c.28-1.96-1.16-3.74-3.13-3.89l-1.68-.13c-1.97-.15-3.66,1.39-3.69,3.37l-.9,67.26Z" fill="#46bdd5"/>
    <path d="M230.07,73.79l19.7-64.31c.58-1.89-.56-3.88-2.48-4.33l-1.64-.39c-1.92-.46-3.83.8-4.17,2.75l-11.41,66.29Z" fill="#46bdd5"/>
    <path d="M249.45,80.05l29.52-60.44c.87-1.78.06-3.92-1.77-4.67l-1.56-.64c-1.83-.75-3.91.19-4.55,2.06l-21.64,63.69Z" fill="#46bdd5"/>
    <path d="M267.6,89.26l38.61-55.08c1.13-1.62.67-3.86-1.02-4.89l-1.44-.88c-1.69-1.03-3.89-.42-4.81,1.33l-31.34,59.52Z" fill="#46bdd5"/>
    <path d="M284.09,101.2l46.75-48.36c1.37-1.42,1.26-3.71-.24-4.99l-1.28-1.09c-1.51-1.28-3.78-1.03-4.96.56l-40.26,53.88Z" fill="#46bdd5"/>
    <path d="M298.51,115.57l53.74-40.45c1.58-1.19,1.83-3.46.54-4.96l-1.1-1.28c-1.29-1.5-3.57-1.6-4.99-.23l-48.2,46.92Z" fill="#46bdd5"/>
    <path d="M310.51,132.02l59.41-31.54c1.75-.93,2.35-3.14,1.31-4.82l-.88-1.44c-1.04-1.68-3.28-2.14-4.89-1l-54.94,38.8Z" fill="#46bdd5"/>
    <path d="M319.78,150.14l63.61-21.86c1.87-.64,2.81-2.73,2.05-4.55l-.65-1.56c-.76-1.82-2.9-2.63-4.68-1.76l-60.34,29.73Z" fill="#46bdd5"/>
    <path d="M326.11,169.49l66.25-11.64c1.95-.34,3.2-2.26,2.74-4.18l-.4-1.64c-.46-1.92-2.46-3.05-4.34-2.47l-64.25,19.92Z" fill="#46bdd5"/>
    <path d="M329.33,189.6l67.26-1.13c1.98-.03,3.51-1.73,3.36-3.7l-.14-1.68c-.16-1.97-1.95-3.4-3.9-3.11l-66.57,9.63Z" fill="#46bdd5"/>
    <path d="M329.36,209.96l66.6,9.4c1.96.28,3.74-1.16,3.89-3.13l.13-1.68c.15-1.97-1.39-3.66-3.37-3.69l-67.26-.9Z" fill="#46bdd5"/>
    <path d="M326.21,230.07l64.31,19.7c1.89.58,3.88-.56,4.33-2.48l.39-1.64c.46-1.92-.8-3.83-2.75-4.17l-66.29-11.41Z" fill="#46bdd5"/>
    <path d="M319.95,249.44l60.44,29.52c1.78.87,3.92.06,4.67-1.77l.64-1.56c.75-1.83-.19-3.91-2.06-4.55l-63.69-21.64Z" fill="#46bdd5"/>
    <path d="M310.73,267.6l55.08,38.61c1.62,1.13,3.86.67,4.89-1.02l.88-1.44c1.03-1.69.42-3.89-1.33-4.81l-59.52-31.34Z" fill="#46bdd5"/>
    <path d="M298.8,284.09l48.36,46.75c1.42,1.37,3.71,1.26,4.99-.24l1.09-1.28c1.28-1.51,1.03-3.78-.56-4.96l-53.88-40.26Z" fill="#46bdd5"/>
    <path d="M284.43,298.51l40.45,53.74c1.19,1.58,3.46,1.83,4.96.54l1.28-1.1c1.5-1.29,1.6-3.57.23-4.99l-46.92-48.2Z" fill="#46bdd5"/>
    <path d="M267.98,310.51l31.54,59.41c.93,1.75,3.14,2.35,4.82,1.31l1.44-.88c1.68-1.04,2.14-3.28,1-4.89l-38.8-54.94Z" fill="#46bdd5"/>
    <path d="M249.86,319.78l21.86,63.61c.64,1.87,2.73,2.81,4.55,2.05l1.56-.65c1.82-.76,2.63-2.9,1.76-4.68l-29.73-60.34Z" fill="#46bdd5"/>
    <path d="M230.5,326.11l11.64,66.25c.34,1.95,2.26,3.2,4.18,2.74l1.64-.4c1.92-.46,3.05-2.46,2.47-4.34l-19.92-64.25Z" fill="#46bdd5"/>
    <path d="M210.4,329.33l1.13,67.25c.03,1.98,1.73,3.51,3.7,3.36l1.68-.14c1.97-.16,3.4-1.95,3.11-3.9l-9.63-66.57Z" fill="#46bdd5"/>
  </g>
</svg>