<?xml version="1.0" encoding="UTF-8"?>
<svg id="a" data-name="图层 1" xmlns="http://www.w3.org/2000/svg" width="40" height="40" viewBox="0 0 40 40">
  <g>
    <path d="M14.66,28.78c-.23-.14-2.57,3.28-5.28,7.71-.15.24-.07.55.17.69h0c.24.14.55.07.69-.17,2.69-4.45,4.65-8.09,4.41-8.23Z" fill="#4f81c2"/>
    <path d="M11.37,25.6c-.15-.23-3.74,1.84-8.11,4.66-.23.15-.3.46-.15.7h0c.15.23.47.3.7.15,4.36-2.84,7.71-5.28,7.56-5.51Z" fill="#4f81c2"/>
    <path d="M9.78,21.32c-.03-.27-4.17.04-9.34.7-.28.03-.47.29-.44.56h0c.04.28.29.47.57.43,5.17-.68,9.25-1.43,9.21-1.69Z" fill="#4f81c2"/>
    <path d="M10.22,16.77c.09-.26-3.78-1.76-8.72-3.41-.26-.09-.55.05-.64.32h0c-.09.26.06.55.32.64,4.95,1.62,8.95,2.71,9.04,2.46Z" fill="#4f81c2"/>
    <path d="M12.6,12.86c.19-.19-2.64-3.22-6.37-6.84-.2-.19-.52-.19-.71.01h0c-.19.2-.19.52.01.71,3.75,3.6,6.88,6.31,7.07,6.12Z" fill="#4f81c2"/>
    <path d="M16.44,10.37c.25-.09-.97-4.04-2.76-8.92-.1-.26-.39-.4-.65-.3h0c-.26.1-.4.39-.3.65,1.81,4.87,3.45,8.66,3.71,8.57Z" fill="#4f81c2"/>
    <path d="M20.99,9.78c.27.03.89-4.06,1.4-9.23.03-.28-.18-.52-.45-.55h0c-.28-.03-.52.18-.55.45-.49,5.17-.66,9.3-.39,9.32Z" fill="#4f81c2"/>
    <path d="M25.34,11.22c.23.14,2.57-3.28,5.28-7.71.15-.24.07-.55-.17-.69h0c-.24-.14-.55-.07-.69.17-2.69,4.45-4.65,8.09-4.41,8.23Z" fill="#4f81c2"/>
    <path d="M28.63,14.4c.15.23,3.74-1.84,8.11-4.66.23-.15.3-.46.15-.7h0c-.15-.23-.47-.3-.7-.15-4.36,2.84-7.71,5.28-7.56,5.51Z" fill="#4f81c2"/>
    <path d="M30.22,18.68c.03.27,4.17-.04,9.34-.7.28-.03.47-.29.44-.56h0c-.04-.28-.29-.47-.57-.43-5.17.68-9.25,1.43-9.21,1.69Z" fill="#4f81c2"/>
    <path d="M29.78,23.23c-.09.26,3.78,1.76,8.72,3.41.26.09.55-.05.64-.32h0c.09-.26-.06-.55-.32-.64-4.95-1.62-8.95-2.71-9.04-2.46Z" fill="#4f81c2"/>
    <path d="M27.4,27.14c-.19.19,2.64,3.22,6.37,6.84.2.19.52.19.71-.01h0c.19-.2.19-.52-.01-.71-3.75-3.6-6.88-6.31-7.07-6.12Z" fill="#4f81c2"/>
    <path d="M23.56,29.63c-.25.09.97,4.04,2.76,8.92.1.26.39.4.65.3h0c.26-.1.4-.39.3-.65-1.81-4.87-3.45-8.66-3.71-8.57Z" fill="#4f81c2"/>
    <path d="M19.01,30.22c-.27-.03-.89,4.06-1.4,9.23-.03.28.18.52.45.55h0c.28.03.52-.18.55-.45.49-5.17.66-9.3.39-9.32Z" fill="#4f81c2"/>
  </g>
  <path d="M32.74,15.27c.31.84-3.08,2.59-2.96,3.44s3.84,1.68,3.76,2.54-3.9.98-4.17,1.81,2.74,3.17,2.28,3.92-3.93-.8-4.54-.17,1.09,4.03.35,4.52-3.18-2.43-4.02-2.12-.8,4.11-1.65,4.22-1.84-3.57-2.7-3.65-2.5,3.36-3.33,3.09-.09-4-.85-4.45-3.71,1.96-4.34,1.35,1.66-3.64,1.18-4.38-4.18.17-4.5-.67,3.08-2.59,2.96-3.44-3.84-1.68-3.76-2.54,3.9-.98,4.17-1.81-2.74-3.17-2.28-3.92,3.93.8,4.54.17-1.09-4.03-.35-4.52,3.18,2.43,4.02,2.12.8-4.11,1.65-4.22,1.84,3.57,2.7,3.65,2.5-3.36,3.33-3.09.09,4,.85,4.45,3.71-1.96,4.34-1.35-1.66,3.64-1.18,4.38,4.18-.17,4.5.67Z" fill="#223e95"/>
  <g>
    <path d="M19.94,20.58c-.2-.02-.66,2.95-1.06,6.7-.02.2.13.38.33.4h0c.2.02.38-.13.4-.33.38-3.75.53-6.75.33-6.77Z" fill="#3c6fb6"/>
    <path d="M19.81,20.55c-.19-.06-1.3,2.73-2.53,6.29-.07.19.04.4.23.46h0c.19.06.4-.04.47-.23,1.21-3.57,2.02-6.47,1.83-6.53Z" fill="#3c6fb6"/>
    <path d="M19.69,20.5c-.17-.1-1.88,2.37-3.87,5.58-.11.17-.05.4.12.5h0c.17.11.4.05.5-.12,1.97-3.22,3.41-5.86,3.25-5.96Z" fill="#3c6fb6"/>
    <path d="M19.59,20.41c-.14-.14-2.36,1.89-5.02,4.58-.14.14-.14.38,0,.52h0c.14.14.38.14.52,0,2.64-2.7,4.64-4.95,4.5-5.09Z" fill="#3c6fb6"/>
    <path d="M19.51,20.31c-.11-.16-2.73,1.32-5.92,3.35-.17.11-.22.34-.11.51h0c.11.17.34.22.51.11,3.18-2.05,5.62-3.8,5.52-3.96Z" fill="#3c6fb6"/>
    <path d="M19.45,20.2c-.07-.18-2.95.68-6.51,1.95-.19.07-.29.28-.22.47h0c.07.19.28.29.47.22,3.56-1.29,6.33-2.46,6.27-2.64Z" fill="#3c6fb6"/>
    <path d="M19.42,20.07c-.02-.19-3.03.01-6.79.46-.2.02-.34.21-.32.41h0c.02.2.21.34.41.32,3.75-.47,6.72-.99,6.7-1.19Z" fill="#3c6fb6"/>
    <path d="M19.42,19.94c.02-.19-2.96-.66-6.72-1.06-.2-.02-.38.12-.4.33h0c-.02.2.13.38.33.4,3.77.38,6.78.52,6.8.33Z" fill="#3c6fb6"/>
    <path d="M19.45,19.81c.06-.19-2.74-1.3-6.32-2.52-.19-.07-.4.04-.47.23h0c-.07.19.04.4.23.46,3.59,1.2,6.49,2.01,6.55,1.83Z" fill="#3c6fb6"/>
    <path d="M19.5,19.7c.1-.17-2.38-1.87-5.6-3.86-.17-.11-.4-.05-.51.12h0c-.11.17-.05.4.12.5,3.23,1.97,5.88,3.4,5.98,3.23Z" fill="#3c6fb6"/>
    <path d="M19.58,19.59c.14-.14-1.9-2.35-4.59-5-.14-.14-.38-.14-.52,0h0c-.14.14-.14.38,0,.52,2.71,2.63,4.97,4.62,5.11,4.48Z" fill="#3c6fb6"/>
    <path d="M19.68,19.51c.17-.11-1.33-2.72-3.36-5.89-.11-.17-.34-.22-.51-.11h0c-.17.11-.22.34-.11.51,2.05,3.17,3.81,5.6,3.98,5.5Z" fill="#3c6fb6"/>
    <path d="M19.8,19.45c.18-.07-.69-2.94-1.96-6.49-.07-.19-.28-.29-.47-.22h0c-.19.07-.29.28-.22.47,1.29,3.54,2.47,6.31,2.65,6.24Z" fill="#3c6fb6"/>
    <path d="M19.93,19.42c.2-.02-.01-3.02-.46-6.76-.02-.2-.21-.34-.41-.32h0c-.2.02-.34.21-.32.41.47,3.74,1,6.7,1.19,6.67Z" fill="#3c6fb6"/>
    <path d="M20.06,19.42c.2.02.66-2.95,1.06-6.7.02-.2-.13-.38-.33-.4h0c-.2-.02-.38.13-.4.33-.38,3.75-.53,6.75-.33,6.77Z" fill="#3c6fb6"/>
    <path d="M20.19,19.45c.19.06,1.3-2.73,2.53-6.29.07-.19-.04-.4-.23-.46h0c-.19-.06-.4.04-.47.23-1.21,3.57-2.02,6.47-1.83,6.53Z" fill="#3c6fb6"/>
    <path d="M20.31,19.51c.17.1,1.88-2.37,3.87-5.58.11-.17.05-.4-.12-.5h0c-.17-.11-.4-.05-.5.12-1.97,3.22-3.41,5.86-3.25,5.96Z" fill="#3c6fb6"/>
    <path d="M20.41,19.59c.14.14,2.36-1.89,5.02-4.58.14-.14.14-.38,0-.52h0c-.14-.14-.38-.14-.52,0-2.64,2.7-4.64,4.95-4.5,5.09Z" fill="#3c6fb6"/>
    <path d="M20.49,19.69c.11.16,2.73-1.32,5.92-3.35.17-.11.22-.34.11-.51h0c-.11-.17-.34-.22-.51-.11-3.18,2.05-5.62,3.8-5.52,3.96Z" fill="#3c6fb6"/>
    <path d="M20.55,19.8c.07.18,2.95-.68,6.51-1.95.19-.07.29-.28.22-.47h0c-.07-.19-.28-.29-.47-.22-3.56,1.29-6.33,2.46-6.27,2.64Z" fill="#3c6fb6"/>
    <path d="M20.58,19.93c.02.19,3.03-.01,6.79-.46.2-.02.34-.21.32-.41h0c-.02-.2-.21-.34-.41-.32-3.75.47-6.72.99-6.7,1.19Z" fill="#3c6fb6"/>
    <path d="M20.58,20.06c-.02.19,2.96.66,6.72,1.06.2.02.38-.12.4-.33h0c.02-.2-.13-.38-.33-.4-3.77-.38-6.78-.52-6.8-.33Z" fill="#3c6fb6"/>
    <path d="M20.55,20.19c-.06.19,2.74,1.3,6.32,2.52.19.07.4-.04.47-.23h0c.07-.19-.04-.4-.23-.46-3.59-1.2-6.49-2.01-6.55-1.83Z" fill="#3c6fb6"/>
    <path d="M20.5,20.3c-.1.17,2.38,1.87,5.6,3.86.17.11.4.05.51-.12h0c.11-.17.05-.4-.12-.5-3.23-1.97-5.88-3.4-5.98-3.23Z" fill="#3c6fb6"/>
    <path d="M20.42,20.41c-.14.14,1.9,2.35,4.59,5,.14.14.38.14.52,0h0c.14-.14.14-.38,0-.52-2.71-2.63-4.97-4.62-5.11-4.48Z" fill="#3c6fb6"/>
    <path d="M20.31,20.49c-.17.11,1.33,2.72,3.36,5.89.11.17.34.22.51.11h0c.17-.11.22-.34.11-.51-2.05-3.17-3.81-5.6-3.98-5.5Z" fill="#3c6fb6"/>
    <path d="M20.2,20.55c-.18.07.69,2.94,1.96,6.49.07.19.28.29.47.22h0c.19-.07.29-.28.22-.47-1.29-3.54-2.47-6.31-2.65-6.24Z" fill="#3c6fb6"/>
    <path d="M20.07,20.58c-.2.02.01,3.02.46,6.76.02.2.21.34.41.32h0c.2-.02.34-.21.32-.41-.47-3.74-1-6.7-1.19-6.67Z" fill="#3c6fb6"/>
  </g>
  <g>
    <path d="M19.98,20.23c-.08,0-.26,1.16-.42,2.63,0,.08.05.15.13.16h0c.08,0,.15-.05.16-.13.15-1.47.21-2.65.13-2.66Z" fill="#fff"/>
    <path d="M19.93,20.22c-.07-.02-.51,1.07-.99,2.47-.03.08.01.16.09.18h0c.08.03.16-.01.18-.09.47-1.4.79-2.54.72-2.57Z" fill="#fff"/>
    <path d="M19.88,20.19c-.07-.04-.74.93-1.52,2.19-.04.07-.02.16.05.2h0c.07.04.16.02.2-.05.78-1.26,1.34-2.3,1.28-2.34Z" fill="#fff"/>
    <path d="M19.84,20.16c-.06-.05-.93.74-1.97,1.8-.06.06-.06.15,0,.2h0c.06.06.15.05.2,0,1.04-1.06,1.82-1.95,1.77-2Z" fill="#fff"/>
    <path d="M19.81,20.12c-.04-.06-1.07.52-2.32,1.32-.07.04-.09.13-.04.2h0c.04.07.13.09.2.04,1.25-.8,2.21-1.49,2.17-1.56Z" fill="#fff"/>
    <path d="M19.78,20.08c-.03-.07-1.16.27-2.56.77-.08.03-.11.11-.09.18h0c.03.07.11.11.18.09,1.4-.51,2.49-.97,2.46-1.04Z" fill="#fff"/>
    <path d="M19.77,20.03c0-.08-1.19,0-2.67.18-.08,0-.14.08-.13.16h0c0,.08.08.13.16.13,1.48-.18,2.64-.39,2.63-.47Z" fill="#fff"/>
    <path d="M19.77,19.98c0-.08-1.16-.26-2.64-.41-.08,0-.15.05-.16.13h0c0,.08.05.15.13.16,1.48.15,2.66.21,2.67.13Z" fill="#fff"/>
    <path d="M19.78,19.93c.02-.07-1.08-.51-2.48-.99-.08-.03-.16.01-.18.09h0c-.03.08.02.16.09.18,1.41.47,2.55.79,2.57.72Z" fill="#fff"/>
    <path d="M19.8,19.88c.04-.07-.93-.74-2.2-1.52-.07-.04-.16-.02-.2.05h0c-.04.07-.02.16.05.2,1.27.77,2.31,1.34,2.35,1.27Z" fill="#fff"/>
    <path d="M19.84,19.84c.05-.05-.75-.92-1.81-1.97-.06-.06-.15-.05-.2,0h0c-.06.06-.05.15,0,.2,1.06,1.03,1.95,1.82,2.01,1.76Z" fill="#fff"/>
    <path d="M19.88,19.81c.06-.04-.52-1.07-1.32-2.32-.04-.07-.13-.09-.2-.04h0c-.07.04-.09.13-.04.2.81,1.24,1.5,2.2,1.56,2.16Z" fill="#fff"/>
    <path d="M19.92,19.79c.07-.03-.27-1.16-.77-2.55-.03-.07-.11-.11-.18-.09h0c-.07.03-.11.11-.09.18.51,1.39.97,2.48,1.04,2.45Z" fill="#fff"/>
    <path d="M19.97,19.77c.08,0,0-1.19-.18-2.66,0-.08-.08-.14-.16-.13h0c-.08,0-.14.08-.13.16.18,1.47.39,2.63.47,2.62Z" fill="#fff"/>
    <path d="M20.02,19.77c.08,0,.26-1.16.42-2.63,0-.08-.05-.15-.13-.16h0c-.08,0-.15.05-.16.13-.15,1.47-.21,2.65-.13,2.66Z" fill="#fff"/>
    <path d="M20.07,19.78c.07.02.51-1.07.99-2.47.03-.08-.01-.16-.09-.18h0c-.08-.03-.16.01-.18.09-.47,1.4-.79,2.54-.72,2.57Z" fill="#fff"/>
    <path d="M20.12,19.81c.07.04.74-.93,1.52-2.19.04-.07.02-.16-.05-.2h0c-.07-.04-.16-.02-.2.05-.78,1.26-1.34,2.3-1.28,2.34Z" fill="#fff"/>
    <path d="M20.16,19.84c.06.05.93-.74,1.97-1.8.06-.06.06-.15,0-.2h0c-.06-.06-.15-.05-.2,0-1.04,1.06-1.82,1.95-1.77,2Z" fill="#fff"/>
    <path d="M20.19,19.88c.04.06,1.07-.52,2.32-1.32.07-.04.09-.13.04-.2h0c-.04-.07-.13-.09-.2-.04-1.25.8-2.21,1.49-2.17,1.56Z" fill="#fff"/>
    <path d="M20.22,19.92c.03.07,1.16-.27,2.56-.77.08-.03.11-.11.09-.18h0c-.03-.07-.11-.11-.18-.09-1.4.51-2.49.97-2.46,1.04Z" fill="#fff"/>
    <path d="M20.23,19.97c0,.08,1.19,0,2.67-.18.08,0,.14-.08.13-.16h0c0-.08-.08-.13-.16-.13-1.48.18-2.64.39-2.63.47Z" fill="#fff"/>
    <path d="M20.23,20.02c0,.08,1.16.26,2.64.41.08,0,.15-.05.16-.13h0c0-.08-.05-.15-.13-.16-1.48-.15-2.66-.21-2.67-.13Z" fill="#fff"/>
    <path d="M20.22,20.07c-.02.07,1.08.51,2.48.99.08.03.16-.01.18-.09h0c.03-.08-.02-.16-.09-.18-1.41-.47-2.55-.79-2.57-.72Z" fill="#fff"/>
    <path d="M20.2,20.12c-.04.07.93.74,2.2,1.52.07.04.16.02.2-.05h0c.04-.07.02-.16-.05-.2-1.27-.77-2.31-1.34-2.35-1.27Z" fill="#fff"/>
    <path d="M20.16,20.16c-.05.05.75.92,1.81,1.97.06.06.15.05.2,0h0c.06-.06.05-.15,0-.2-1.06-1.03-1.95-1.82-2.01-1.76Z" fill="#fff"/>
    <path d="M20.12,20.19c-.06.04.52,1.07,1.32,2.32.04.07.13.09.2.04h0c.07-.04.09-.13.04-.2-.81-1.24-1.5-2.2-1.56-2.16Z" fill="#fff"/>
    <path d="M20.08,20.21c-.07.03.27,1.16.77,2.55.03.07.11.11.18.09h0c.07-.03.11-.11.09-.18-.51-1.39-.97-2.48-1.04-2.45Z" fill="#fff"/>
    <path d="M20.03,20.23c-.08,0,0,1.19.18,2.66,0,.08.08.14.16.13h0c.08,0,.14-.08.13-.16-.18-1.47-.39-2.63-.47-2.62Z" fill="#fff"/>
  </g>
  <g>
    <path d="M20.05,23.98c-.31,0-.5,4.71-.45,10.62,0,.32.26.57.58.57h0c.32,0,.57-.26.57-.58-.09-5.91-.4-10.61-.7-10.61Z" fill="#a1bce2"/>
    <path d="M19.16,23.89c-.3-.06-1.54,4.48-2.81,10.26-.07.31.13.62.44.68h0c.31.07.62-.13.68-.44,1.24-5.78,1.98-10.43,1.68-10.5Z" fill="#a1bce2"/>
    <path d="M18.31,23.61c-.28-.13-2.5,4.03-5.03,9.38-.14.29-.01.63.28.76h0c.29.13.63,0,.77-.28,2.5-5.37,4.26-9.73,3.99-9.86Z" fill="#a1bce2"/>
    <path d="M17.55,23.14c-.24-.19-3.34,3.37-7,8.03-.2.25-.15.61.1.81h0c.25.19.61.15.81-.1,3.63-4.68,6.33-8.54,6.09-8.73Z" fill="#a1bce2"/>
    <path d="M16.9,22.52c-.2-.24-4.01,2.54-8.61,6.28-.25.2-.28.56-.08.81h0c.2.25.56.28.81.08,4.59-3.75,8.08-6.93,7.89-7.16Z" fill="#a1bce2"/>
    <path d="M16.42,21.77c-.14-.28-4.48,1.59-9.8,4.21-.29.14-.4.48-.26.77h0c.14.28.49.4.77.26,5.31-2.64,9.42-4.96,9.29-5.24Z" fill="#a1bce2"/>
    <path d="M16.11,20.93c-.07-.3-4.72.56-10.49,1.93-.31.07-.5.38-.43.69h0c.07.31.39.5.7.42,5.77-1.4,10.3-2.75,10.22-3.04Z" fill="#a1bce2"/>
    <path d="M16,20.05c0-.31-4.73-.5-10.66-.44-.32,0-.57.26-.57.58h0c0,.32.27.57.58.57,5.93-.09,10.65-.39,10.65-.7Z" fill="#a1bce2"/>
    <path d="M16.09,19.16c.06-.3-4.5-1.54-10.29-2.8-.31-.07-.62.13-.68.44h0c-.07.31.13.62.44.68,5.81,1.23,10.47,1.98,10.54,1.68Z" fill="#a1bce2"/>
    <path d="M16.38,18.32c.13-.28-4.04-2.49-9.41-5.01-.29-.13-.63-.01-.77.28h0c-.13.29,0,.63.28.76,5.38,2.49,9.77,4.25,9.9,3.97Z" fill="#a1bce2"/>
    <path d="M16.84,17.55c.19-.24-3.38-3.33-8.06-6.97-.25-.2-.61-.15-.81.1h0c-.2.25-.15.61.1.81,4.69,3.62,8.57,6.31,8.76,6.07Z" fill="#a1bce2"/>
    <path d="M17.47,16.92c.24-.19-2.55-3.99-6.3-8.58-.2-.25-.56-.28-.81-.08h0c-.25.2-.28.56-.08.81,3.77,4.57,6.95,8.05,7.19,7.86Z" fill="#a1bce2"/>
    <path d="M18.22,16.43c.28-.14-1.6-4.46-4.22-9.76-.14-.28-.49-.4-.77-.26h0c-.28.14-.4.49-.26.77,2.65,5.29,4.98,9.39,5.25,9.25Z" fill="#a1bce2"/>
    <path d="M19.06,16.13c.3-.07-.56-4.7-1.94-10.46-.07-.31-.38-.5-.69-.42h0c-.31.07-.5.38-.42.69,1.41,5.75,2.76,10.26,3.06,10.19Z" fill="#a1bce2"/>
    <path d="M19.95,16.02c.31,0,.5-4.71.45-10.62,0-.32-.26-.57-.58-.57h0c-.32,0-.57.26-.57.58.09,5.91.4,10.61.7,10.61Z" fill="#a1bce2"/>
    <path d="M20.84,16.11c.3.06,1.54-4.48,2.81-10.26.07-.31-.13-.62-.44-.68h0c-.31-.07-.62.13-.68.44-1.24,5.78-1.98,10.43-1.68,10.5Z" fill="#a1bce2"/>
    <path d="M21.69,16.39c.28.13,2.5-4.03,5.03-9.38.14-.29.01-.63-.28-.76h0c-.29-.13-.63,0-.77.28-2.5,5.37-4.26,9.73-3.99,9.86Z" fill="#a1bce2"/>
    <path d="M22.45,16.86c.24.19,3.34-3.37,7-8.03.2-.25.15-.61-.1-.81h0c-.25-.19-.61-.15-.81.1-3.63,4.68-6.33,8.54-6.09,8.73Z" fill="#a1bce2"/>
    <path d="M23.09,17.48c.2.24,4.01-2.54,8.61-6.28.25-.2.28-.56.08-.81h0c-.2-.25-.56-.28-.81-.08-4.59,3.75-8.08,6.93-7.89,7.16Z" fill="#a1bce2"/>
    <path d="M23.58,18.23c.14.28,4.48-1.59,9.8-4.21.29-.14.4-.48.26-.77h0c-.14-.28-.49-.4-.77-.26-5.31,2.64-9.42,4.96-9.29,5.24Z" fill="#a1bce2"/>
    <path d="M23.89,19.07c.07.3,4.72-.56,10.49-1.93.31-.07.5-.38.43-.69h0c-.07-.31-.39-.5-.7-.42-5.77,1.4-10.3,2.75-10.22,3.04Z" fill="#a1bce2"/>
    <path d="M24,19.95c0,.31,4.73.5,10.66.44.32,0,.57-.26.57-.58h0c0-.32-.27-.57-.58-.57-5.93.09-10.65.39-10.65.7Z" fill="#a1bce2"/>
    <path d="M23.91,20.84c-.06.3,4.5,1.54,10.29,2.8.31.07.62-.13.68-.44h0c.07-.31-.13-.62-.44-.68-5.81-1.23-10.47-1.98-10.54-1.68Z" fill="#a1bce2"/>
    <path d="M23.62,21.68c-.13.28,4.04,2.49,9.41,5.01.29.13.63.01.77-.28h0c.13-.29,0-.63-.28-.76-5.38-2.49-9.77-4.25-9.9-3.97Z" fill="#a1bce2"/>
    <path d="M23.16,22.45c-.19.24,3.38,3.33,8.06,6.97.25.2.61.15.81-.1h0c.2-.25.15-.61-.1-.81-4.69-3.62-8.57-6.31-8.76-6.07Z" fill="#a1bce2"/>
    <path d="M22.53,23.08c-.24.19,2.55,3.99,6.3,8.58.2.25.56.28.81.08h0c.25-.2.28-.56.08-.81-3.77-4.57-6.95-8.05-7.19-7.86Z" fill="#a1bce2"/>
    <path d="M21.78,23.57c-.28.14,1.6,4.46,4.22,9.76.14.28.49.4.77.26h0c.28-.14.4-.49.26-.77-2.65-5.29-4.98-9.39-5.25-9.25Z" fill="#a1bce2"/>
    <path d="M20.94,23.87c-.3.07.56,4.7,1.94,10.46.07.31.38.5.69.42h0c.31-.07.5-.38.42-.69-1.41-5.75-2.76-10.26-3.06-10.19Z" fill="#a1bce2"/>
  </g>
</svg>