<?xml version="1.0" encoding="UTF-8"?>
<svg id="_图层_1" data-name="图层 1" xmlns="http://www.w3.org/2000/svg" viewBox="0 0 113.39 113.39">
  <defs>
    <style>
      .cls-1 {
        fill: #a2bce2;
      }

      .cls-2 {
        fill: #fff;
      }

      .cls-3 {
        fill: #3c6fb7;
      }

      .cls-4 {
        fill: #4f82c3;
      }

      .cls-5 {
        fill: #243e96;
      }
    </style>
  </defs>
  <g>
    <path class="cls-4" d="M41.56,81.58c-.66-.4-7.28,9.29-14.96,21.86-.41.67-.2,1.55.48,1.96h0c.68.41,1.56.19,1.97-.48,7.62-12.61,13.17-22.94,12.51-23.33Z"/>
    <path class="cls-4" d="M32.22,72.57c-.42-.64-10.6,5.22-23,13.22-.66.43-.85,1.31-.42,1.98h0c.43.66,1.32.85,1.98.41,12.35-8.06,21.85-14.97,21.43-15.61Z"/>
    <path class="cls-4" d="M27.73,60.42c-.1-.76-11.83.12-26.48,1.97-.79.1-1.34.82-1.24,1.6h0c.1.78.82,1.33,1.61,1.23,14.64-1.92,26.21-4.04,26.11-4.8Z"/>
    <path class="cls-4" d="M28.97,47.53c.24-.73-10.71-5-24.71-9.67-.75-.25-1.56.15-1.81.9h0c-.25.75.16,1.56.91,1.8,14.03,4.6,25.37,7.69,25.61,6.96Z"/>
    <path class="cls-4" d="M35.71,36.45c.53-.55-7.47-9.14-18.05-19.4-.57-.55-1.48-.54-2.03.03h0c-.55.57-.53,1.47.04,2.02,10.64,10.21,19.51,17.9,20.05,17.35Z"/>
    <path class="cls-4" d="M46.6,29.39c.72-.26-2.75-11.46-7.82-25.28-.27-.74-1.1-1.12-1.84-.85h0c-.74.27-1.12,1.09-.85,1.83,5.14,13.8,9.79,24.56,10.51,24.3Z"/>
    <path class="cls-4" d="M59.49,27.73c.76.07,2.51-11.52,3.96-26.16.08-.78-.5-1.48-1.29-1.56h0c-.79-.08-1.49.5-1.56,1.29-1.38,14.65-1.88,26.36-1.11,26.43Z"/>
    <path class="cls-4" d="M71.83,31.8c.66.4,7.28-9.29,14.96-21.86.41-.67.2-1.55-.48-1.96h0c-.68-.41-1.56-.19-1.97.48-7.62,12.61-13.17,22.94-12.51,23.33Z"/>
    <path class="cls-4" d="M81.17,40.81c.42.64,10.6-5.22,23-13.22.66-.43.85-1.31.42-1.98h0c-.43-.66-1.32-.85-1.98-.41-12.35,8.06-21.85,14.97-21.43,15.61Z"/>
    <path class="cls-4" d="M85.66,52.96c.1.76,11.83-.12,26.48-1.97.79-.1,1.34-.82,1.24-1.6h0c-.1-.78-.82-1.33-1.61-1.23-14.64,1.92-26.21,4.04-26.11,4.8Z"/>
    <path class="cls-4" d="M84.41,65.86c-.24.73,10.71,5,24.71,9.67.75.25,1.56-.15,1.81-.9h0c.25-.75-.16-1.56-.91-1.8-14.03-4.6-25.37-7.69-25.61-6.96Z"/>
    <path class="cls-4" d="M77.68,76.93c-.53.55,7.47,9.14,18.05,19.4.57.55,1.48.54,2.03-.03h0c.55-.57.53-1.47-.04-2.02-10.64-10.21-19.51-17.9-20.05-17.35Z"/>
    <path class="cls-4" d="M66.79,84c-.72.26,2.75,11.46,7.82,25.28.27.74,1.1,1.12,1.84.85h0c.74-.27,1.12-1.09.85-1.83-5.14-13.8-9.79-24.56-10.51-24.3Z"/>
    <path class="cls-4" d="M53.9,85.66c-.76-.07-2.51,11.52-3.96,26.16-.08.78.5,1.48,1.29,1.56h0c.79.08,1.49-.5,1.56-1.29,1.38-14.65,1.88-26.36,1.11-26.43Z"/>
  </g>
  <path class="cls-5" d="M92.82,43.29c.89,2.38-8.73,7.33-8.4,9.74.33,2.49,10.9,4.77,10.67,7.21-.23,2.48-11.05,2.78-11.82,5.13s7.75,8.98,6.47,11.11c-1.27,2.12-11.15-2.27-12.88-.47-1.7,1.77,3.1,11.43.99,12.81-2.04,1.33-9.01-6.9-11.4-6.01-2.38.88-2.26,11.65-4.68,11.97-2.5.33-5.2-10.11-7.66-10.33-2.49-.23-7.08,9.52-9.44,8.75-2.37-.77-.26-11.35-2.4-12.62-2.12-1.27-10.5,5.55-12.31,3.82-1.78-1.7,4.72-10.3,3.34-12.41-1.34-2.03-11.86.48-12.75-1.89-.89-2.38,8.73-7.33,8.4-9.74-.33-2.49-10.9-4.77-10.67-7.21.23-2.48,11.05-2.78,11.82-5.13.78-2.36-7.75-8.98-6.47-11.11,1.27-2.12,11.15,2.27,12.88.47,1.7-1.77-3.1-11.43-.99-12.81,2.04-1.33,9.01,6.9,11.4,6.01,2.38-.88,2.26-11.65,4.68-11.97s5.2,10.11,7.66,10.33,7.08-9.52,9.44-8.75c2.37.77.26,11.35,2.4,12.62,2.12,1.27,10.5-5.55,12.31-3.82,1.78,1.7-4.72,10.3-3.34,12.41s11.86-.48,12.75,1.89Z"/>
  <g>
    <path class="cls-3" d="M56.52,58.33c-.55-.06-1.88,8.35-3,18.98-.06.57.36,1.08.93,1.14h0c.57.06,1.08-.36,1.14-.93,1.07-10.64,1.49-19.14.94-19.19Z"/>
    <path class="cls-3" d="M56.16,58.25c-.53-.18-3.7,7.73-7.17,17.84-.19.54.11,1.13.65,1.32h0c.54.18,1.14-.11,1.32-.65,3.42-10.13,5.73-18.33,5.2-18.51Z"/>
    <path class="cls-3" d="M55.83,58.1c-.47-.29-5.33,6.71-10.97,15.8-.3.49-.15,1.13.34,1.43h0c.49.3,1.13.15,1.43-.34,5.59-9.12,9.68-16.6,9.2-16.89Z"/>
    <path class="cls-3" d="M55.54,57.87c-.4-.39-6.7,5.36-14.23,12.97-.4.41-.4,1.07.01,1.47h0c.41.4,1.07.39,1.47-.02,7.49-7.65,13.14-14.04,12.74-14.43Z"/>
    <path class="cls-3" d="M55.3,57.58c-.3-.47-7.73,3.74-16.77,9.5-.48.31-.63.95-.32,1.43h0c.31.48.96.62,1.44.31,9.01-5.8,15.94-10.77,15.64-11.24Z"/>
    <path class="cls-3" d="M55.14,57.25c-.19-.52-8.37,1.94-18.47,5.54-.54.19-.82.79-.63,1.33h0c.2.54.79.82,1.33.62,10.08-3.65,17.95-6.97,17.76-7.49Z"/>
    <path class="cls-3" d="M55.05,56.89c-.07-.55-8.59.03-19.24,1.31-.57.07-.98.59-.91,1.15h0c.07.57.59.97,1.16.9,10.64-1.33,19.06-2.81,18.99-3.36Z"/>
    <path class="cls-3" d="M55.05,56.52c.06-.55-8.38-1.87-19.05-2.99-.57-.06-1.08.35-1.14.92h0c-.06.57.36,1.08.93,1.14,10.67,1.07,19.21,1.48,19.26.93Z"/>
    <path class="cls-3" d="M55.13,56.16c.18-.53-7.75-3.68-17.9-7.14-.54-.19-1.14.1-1.32.65h0c-.18.54.11,1.13.65,1.31,10.17,3.41,18.39,5.71,18.57,5.18Z"/>
    <path class="cls-3" d="M55.28,55.83c.29-.47-6.74-5.31-15.86-10.93-.49-.3-1.13-.15-1.43.34h0c-.3.49-.15,1.13.34,1.43,9.15,5.57,16.66,9.64,16.95,9.17Z"/>
    <path class="cls-3" d="M55.51,55.54c.39-.4-5.38-6.67-13.02-14.18-.41-.4-1.07-.4-1.47.01h0c-.4.41-.4,1.07.02,1.47,7.68,7.46,14.09,13.09,14.48,12.7Z"/>
    <path class="cls-3" d="M55.8,55.31c.47-.3-3.76-7.7-9.53-16.71-.31-.48-.95-.62-1.44-.31h0c-.48.31-.62.95-.31,1.43,5.82,8.98,10.81,15.89,11.28,15.59Z"/>
    <path class="cls-3" d="M56.13,55.14c.52-.19-1.94-8.34-5.56-18.4-.19-.54-.79-.82-1.33-.63h0c-.54.19-.82.79-.62,1.33,3.67,10.04,6.99,17.89,7.51,17.7Z"/>
    <path class="cls-3" d="M56.49,55.06c.55-.07-.03-8.56-1.31-19.17-.07-.57-.59-.97-1.16-.9h0c-.57.07-.98.59-.91,1.16,1.33,10.61,2.82,18.99,3.37,18.92Z"/>
    <path class="cls-3" d="M56.86,55.05c.55.06,1.88-8.35,3-18.98.06-.57-.36-1.08-.93-1.14h0c-.57-.06-1.08.36-1.14.93-1.07,10.64-1.49,19.14-.94,19.19Z"/>
    <path class="cls-3" d="M57.22,55.13c.53.18,3.7-7.73,7.17-17.84.19-.54-.11-1.13-.65-1.32h0c-.54-.18-1.14.11-1.32.65-3.42,10.13-5.73,18.33-5.2,18.51Z"/>
    <path class="cls-3" d="M57.56,55.29c.47.29,5.33-6.71,10.97-15.8.3-.49.15-1.13-.34-1.43h0c-.49-.3-1.13-.15-1.43.34-5.59,9.12-9.68,16.6-9.2,16.89Z"/>
    <path class="cls-3" d="M57.85,55.52c.4.39,6.7-5.36,14.23-12.97.4-.41.4-1.07-.01-1.47h0c-.41-.4-1.07-.39-1.47.02-7.49,7.65-13.14,14.04-12.74,14.43Z"/>
    <path class="cls-3" d="M58.08,55.8c.3.47,7.73-3.74,16.77-9.5.48-.31.63-.95.32-1.43h0c-.31-.48-.96-.62-1.44-.31-9.01,5.8-15.94,10.77-15.64,11.24Z"/>
    <path class="cls-3" d="M58.25,56.13c.19.52,8.37-1.94,18.47-5.54.54-.19.82-.79.63-1.33h0c-.2-.54-.79-.82-1.33-.62-10.08,3.65-17.95,6.97-17.76,7.49Z"/>
    <path class="cls-3" d="M58.33,56.49c.07.55,8.59-.03,19.24-1.31.57-.07.98-.59.91-1.15h0c-.07-.57-.59-.97-1.16-.9-10.64,1.33-19.06,2.81-18.99,3.36Z"/>
    <path class="cls-3" d="M58.34,56.86c-.06.55,8.38,1.87,19.05,2.99.57.06,1.08-.35,1.14-.92h0c.06-.57-.36-1.08-.93-1.14-10.67-1.07-19.21-1.48-19.26-.93Z"/>
    <path class="cls-3" d="M58.26,57.22c-.18.53,7.75,3.68,17.9,7.14.54.19,1.14-.1,1.32-.65h0c.18-.54-.11-1.13-.65-1.31-10.17-3.41-18.39-5.71-18.57-5.18Z"/>
    <path class="cls-3" d="M58.1,57.56c-.29.47,6.74,5.31,15.86,10.93.49.3,1.13.15,1.43-.34h0c.3-.49.15-1.13-.34-1.43-9.15-5.57-16.66-9.64-16.95-9.17Z"/>
    <path class="cls-3" d="M57.87,57.85c-.39.4,5.38,6.67,13.02,14.18.41.4,1.07.4,1.47-.01h0c.4-.41.4-1.07-.02-1.47-7.68-7.46-14.09-13.09-14.48-12.7Z"/>
    <path class="cls-3" d="M57.59,58.08c-.47.3,3.76,7.7,9.53,16.71.31.48.95.62,1.44.31h0c.48-.31.62-.95.31-1.43-5.82-8.98-10.81-15.89-11.28-15.59Z"/>
    <path class="cls-3" d="M57.25,58.24c-.52.19,1.94,8.34,5.56,18.4.19.54.79.82,1.33.63h0c.54-.19.82-.79.62-1.33-3.67-10.04-6.99-17.89-7.51-17.7Z"/>
    <path class="cls-3" d="M56.89,58.33c-.55.07.03,8.56,1.31,19.17.07.57.59.97,1.16.9h0c.57-.07.98-.59.91-1.16-1.33-10.61-2.82-18.99-3.37-18.92Z"/>
  </g>
  <g>
    <path class="cls-2" d="M56.63,57.34c-.22-.02-.74,3.28-1.18,7.46-.02.22.14.42.36.45h0c.22.02.43-.14.45-.36.42-4.18.59-7.52.37-7.54Z"/>
    <path class="cls-2" d="M56.48,57.31c-.21-.07-1.45,3.04-2.82,7.01-.07.21.04.44.26.52h0c.21.07.45-.04.52-.26,1.34-3.98,2.25-7.2,2.04-7.27Z"/>
    <path class="cls-2" d="M56.35,57.24c-.19-.11-2.09,2.64-4.31,6.21-.12.19-.06.44.13.56h0c.19.12.44.06.56-.13,2.2-3.58,3.8-6.52,3.62-6.64Z"/>
    <path class="cls-2" d="M56.24,57.16c-.16-.15-2.63,2.11-5.59,5.1-.16.16-.16.42,0,.58h0c.16.16.42.15.58,0,2.94-3.01,5.16-5.52,5.01-5.67Z"/>
    <path class="cls-2" d="M56.15,57.04c-.12-.18-3.04,1.47-6.59,3.73-.19.12-.25.37-.12.56h0c.12.19.38.24.57.12,3.54-2.28,6.27-4.23,6.15-4.42Z"/>
    <path class="cls-2" d="M56.08,56.91c-.07-.21-3.29.76-7.26,2.18-.21.08-.32.31-.25.52h0c.08.21.31.32.52.24,3.96-1.44,7.05-2.74,6.98-2.94Z"/>
    <path class="cls-2" d="M56.05,56.77c-.03-.22-3.38.01-7.56.51-.22.03-.38.23-.36.45h0c.03.22.23.38.46.35,4.18-.52,7.49-1.1,7.46-1.32Z"/>
    <path class="cls-2" d="M56.05,56.63c.02-.22-3.29-.74-7.49-1.18-.22-.02-.43.14-.45.36h0c-.02.22.14.42.37.45,4.19.42,7.55.58,7.57.37Z"/>
    <path class="cls-2" d="M56.08,56.49c.07-.21-3.05-1.45-7.04-2.81-.21-.07-.45.04-.52.25h0c-.07.21.04.44.26.52,4,1.34,7.23,2.24,7.3,2.04Z"/>
    <path class="cls-2" d="M56.14,56.35c.11-.19-2.65-2.09-6.23-4.3-.19-.12-.44-.06-.56.13h0c-.12.19-.06.44.13.56,3.6,2.19,6.55,3.79,6.66,3.6Z"/>
    <path class="cls-2" d="M56.23,56.24c.15-.16-2.12-2.62-5.12-5.57-.16-.16-.42-.16-.58,0h0c-.16.16-.16.42,0,.58,3.02,2.93,5.54,5.15,5.69,4.99Z"/>
    <path class="cls-2" d="M56.34,56.15c.18-.12-1.48-3.03-3.75-6.57-.12-.19-.37-.25-.57-.12h0c-.19.12-.25.37-.12.56,2.29,3.53,4.25,6.24,4.43,6.13Z"/>
    <path class="cls-2" d="M56.47,56.08c.21-.07-.76-3.28-2.18-7.23-.08-.21-.31-.32-.52-.25h0c-.21.08-.32.31-.25.52,1.44,3.95,2.75,7.03,2.95,6.96Z"/>
    <path class="cls-2" d="M56.61,56.05c.22-.03-.01-3.36-.52-7.53-.03-.22-.23-.38-.46-.36h0c-.22.03-.38.23-.36.45.52,4.17,1.11,7.46,1.33,7.44Z"/>
    <path class="cls-2" d="M56.76,56.05c.22.02.74-3.28,1.18-7.46.02-.22-.14-.42-.36-.45h0c-.22-.02-.43.14-.45.36-.42,4.18-.59,7.52-.37,7.54Z"/>
    <path class="cls-2" d="M56.9,56.08c.21.07,1.45-3.04,2.82-7.01.07-.21-.04-.44-.26-.52h0c-.21-.07-.45.04-.52.26-1.34,3.98-2.25,7.2-2.04,7.27Z"/>
    <path class="cls-2" d="M57.03,56.14c.19.11,2.09-2.64,4.31-6.21.12-.19.06-.44-.13-.56h0c-.19-.12-.44-.06-.56.13-2.2,3.58-3.8,6.52-3.62,6.64Z"/>
    <path class="cls-2" d="M57.15,56.23c.16.15,2.63-2.11,5.59-5.1.16-.16.16-.42,0-.58h0c-.16-.16-.42-.15-.58,0-2.94,3.01-5.16,5.52-5.01,5.67Z"/>
    <path class="cls-2" d="M57.24,56.34c.12.18,3.04-1.47,6.59-3.73.19-.12.25-.37.12-.56h0c-.12-.19-.38-.24-.57-.12-3.54,2.28-6.27,4.23-6.15,4.42Z"/>
    <path class="cls-2" d="M57.3,56.47c.07.21,3.29-.76,7.26-2.18.21-.08.32-.31.25-.52h0c-.08-.21-.31-.32-.52-.24-3.96,1.44-7.05,2.74-6.98,2.94Z"/>
    <path class="cls-2" d="M57.34,56.61c.03.22,3.38-.01,7.56-.51.22-.03.38-.23.36-.45h0c-.03-.22-.23-.38-.46-.35-4.18.52-7.49,1.1-7.46,1.32Z"/>
    <path class="cls-2" d="M57.34,56.76c-.02.22,3.29.74,7.49,1.18.22.02.43-.14.45-.36h0c.02-.22-.14-.42-.37-.45-4.19-.42-7.55-.58-7.57-.37Z"/>
    <path class="cls-2" d="M57.31,56.9c-.07.21,3.05,1.45,7.04,2.81.21.07.45-.04.52-.25h0c.07-.21-.04-.44-.26-.52-4-1.34-7.23-2.24-7.3-2.04Z"/>
    <path class="cls-2" d="M57.25,57.03c-.11.19,2.65,2.09,6.23,4.3.19.12.44.06.56-.13h0c.12-.19.06-.44-.13-.56-3.6-2.19-6.55-3.79-6.66-3.6Z"/>
    <path class="cls-2" d="M57.16,57.15c-.15.16,2.12,2.62,5.12,5.57.16.16.42.16.58,0h0c.16-.16.16-.42,0-.58-3.02-2.93-5.54-5.15-5.69-4.99Z"/>
    <path class="cls-2" d="M57.04,57.24c-.18.12,1.48,3.03,3.75,6.57.12.19.37.25.57.12h0c.19-.12.25-.37.12-.56-2.29-3.53-4.25-6.24-4.43-6.13Z"/>
    <path class="cls-2" d="M56.91,57.3c-.21.07.76,3.28,2.18,7.23.08.21.31.32.52.25h0c.21-.08.32-.31.25-.52-1.44-3.95-2.75-7.03-2.95-6.96Z"/>
    <path class="cls-2" d="M56.77,57.34c-.22.03.01,3.36.52,7.53.03.22.23.38.46.36h0c.22-.03.38-.23.36-.45-.52-4.17-1.11-7.46-1.33-7.44Z"/>
  </g>
  <g>
    <path class="cls-1" d="M56.83,67.98c-.87.01-1.42,13.35-1.26,30.11,0,.9.75,1.62,1.65,1.61h0c.9-.01,1.62-.75,1.61-1.65-.25-16.76-1.12-30.08-2-30.07Z"/>
    <path class="cls-1" d="M54.31,67.73c-.85-.18-4.37,12.7-7.96,29.08-.19.88.37,1.75,1.25,1.93h0c.88.19,1.75-.37,1.94-1.25,3.5-16.4,5.62-29.58,4.77-29.76Z"/>
    <path class="cls-1" d="M51.9,66.92c-.79-.37-7.1,11.41-14.25,26.58-.38.81-.03,1.78.79,2.16h0c.82.38,1.79.03,2.17-.79,7.08-15.21,12.09-27.59,11.3-27.96Z"/>
    <path class="cls-1" d="M49.74,65.6c-.69-.53-9.47,9.55-19.83,22.76-.56.71-.43,1.73.28,2.28h0c.71.55,1.74.42,2.29-.29,10.3-13.26,17.95-24.22,17.26-24.75Z"/>
    <path class="cls-1" d="M47.92,63.84c-.55-.67-11.36,7.21-24.42,17.79-.7.57-.8,1.59-.23,2.29h0c.57.7,1.6.8,2.3.23,13-10.64,22.91-19.63,22.35-20.31Z"/>
    <path class="cls-1" d="M46.54,61.71c-.39-.78-12.69,4.51-27.78,11.93-.81.4-1.14,1.37-.74,2.18h0c.4.8,1.38,1.13,2.19.73,15.05-7.49,26.72-14.06,26.33-14.84Z"/>
    <path class="cls-1" d="M45.68,59.34c-.2-.85-13.38,1.59-29.75,5.47-.88.21-1.42,1.09-1.21,1.96h0c.21.87,1.09,1.41,1.97,1.2,16.35-3.97,29.19-7.78,28.98-8.63Z"/>
    <path class="cls-1" d="M45.36,56.83c-.01-.87-13.4-1.42-30.22-1.26-.9,0-1.63.75-1.61,1.64h0c.01.9.75,1.62,1.65,1.6,16.82-.25,30.19-1.12,30.18-1.99Z"/>
    <path class="cls-1" d="M45.62,54.31c.18-.85-12.74-4.35-29.18-7.93-.88-.19-1.75.37-1.94,1.24h0c-.19.88.37,1.74,1.25,1.93,16.46,3.49,29.69,5.6,29.87,4.75Z"/>
    <path class="cls-1" d="M46.42,51.92c.37-.79-11.45-7.07-26.68-14.2-.82-.38-1.79-.03-2.17.78h0c-.38.81-.03,1.78.79,2.16,15.26,7.05,27.69,12.05,28.06,11.26Z"/>
    <path class="cls-1" d="M47.75,49.76c.54-.69-9.59-9.43-22.84-19.76-.71-.55-1.74-.43-2.29.28h0c-.55.71-.42,1.73.29,2.28,13.31,10.26,24.31,17.88,24.84,17.2Z"/>
    <path class="cls-1" d="M49.52,47.95c.68-.55-7.24-11.32-17.85-24.33-.57-.7-1.6-.8-2.3-.23h0c-.7.57-.8,1.59-.23,2.29,10.68,12.95,19.7,22.82,20.38,22.27Z"/>
    <path class="cls-1" d="M51.65,46.58c.78-.39-4.53-12.64-11.97-27.68-.4-.81-1.38-1.14-2.19-.74h0c-.81.4-1.14,1.38-.73,2.18,7.52,15,14.11,26.62,14.89,26.23Z"/>
    <path class="cls-1" d="M54.04,45.72c.85-.2-1.59-13.33-5.49-29.64-.21-.87-1.09-1.41-1.97-1.2h0c-.88.21-1.42,1.09-1.2,1.96,3.98,16.29,7.81,29.08,8.66,28.88Z"/>
    <path class="cls-1" d="M56.56,45.4c.87-.01,1.42-13.35,1.26-30.11,0-.9-.75-1.62-1.65-1.61h0c-.9.01-1.62.75-1.61,1.65.25,16.76,1.12,30.08,2,30.07Z"/>
    <path class="cls-1" d="M59.08,45.66c.85.18,4.37-12.7,7.96-29.08.19-.88-.37-1.75-1.25-1.93h0c-.88-.19-1.75.37-1.94,1.25-3.5,16.4-5.62,29.58-4.77,29.76Z"/>
    <path class="cls-1" d="M61.49,46.46c.79.37,7.1-11.41,14.25-26.58.38-.81.03-1.78-.79-2.16h0c-.82-.38-1.79-.03-2.17.79-7.08,15.21-12.09,27.59-11.3,27.96Z"/>
    <path class="cls-1" d="M63.65,47.78c.69.53,9.47-9.55,19.83-22.76.56-.71.43-1.73-.28-2.28h0c-.71-.55-1.74-.42-2.29.29-10.3,13.26-17.95,24.22-17.26,24.75Z"/>
    <path class="cls-1" d="M65.47,49.55c.55.67,11.36-7.21,24.42-17.79.7-.57.8-1.59.23-2.29h0c-.57-.7-1.6-.8-2.3-.23-13,10.64-22.91,19.63-22.35,20.31Z"/>
    <path class="cls-1" d="M66.84,51.67c.39.78,12.69-4.51,27.78-11.93.81-.4,1.14-1.37.74-2.18h0c-.4-.8-1.38-1.13-2.19-.73-15.05,7.49-26.72,14.06-26.33,14.84Z"/>
    <path class="cls-1" d="M67.71,54.05c.2.85,13.38-1.59,29.75-5.47.88-.21,1.42-1.09,1.21-1.96h0c-.21-.87-1.09-1.41-1.97-1.2-16.35,3.97-29.19,7.78-28.98,8.63Z"/>
    <path class="cls-1" d="M68.02,56.56c.01.87,13.4,1.42,30.22,1.26.9,0,1.63-.75,1.61-1.64h0c-.01-.9-.75-1.62-1.65-1.6-16.82.25-30.19,1.12-30.18,1.99Z"/>
    <path class="cls-1" d="M67.77,59.07c-.18.85,12.74,4.35,29.18,7.93.88.19,1.75-.37,1.94-1.24h0c.19-.88-.37-1.74-1.25-1.93-16.46-3.49-29.69-5.6-29.87-4.75Z"/>
    <path class="cls-1" d="M66.96,61.47c-.37.79,11.45,7.07,26.68,14.2.82.38,1.79.03,2.17-.78h0c.38-.81.03-1.78-.79-2.16-15.26-7.05-27.69-12.05-28.06-11.26Z"/>
    <path class="cls-1" d="M65.64,63.63c-.54.69,9.59,9.43,22.84,19.76.71.55,1.74.43,2.29-.28h0c.55-.71.42-1.73-.29-2.28-13.31-10.26-24.31-17.88-24.84-17.2Z"/>
    <path class="cls-1" d="M63.86,65.43c-.68.55,7.24,11.32,17.85,24.33.57.7,1.6.8,2.3.23h0c.7-.57.8-1.59.23-2.29-10.68-12.95-19.7-22.82-20.38-22.27Z"/>
    <path class="cls-1" d="M61.73,66.81c-.78.39,4.53,12.64,11.97,27.68.4.81,1.38,1.14,2.19.74h0c.81-.4,1.14-1.38.73-2.18-7.52-15-14.11-26.62-14.89-26.23Z"/>
    <path class="cls-1" d="M59.35,67.67c-.85.2,1.59,13.33,5.49,29.64.21.87,1.09,1.41,1.97,1.2h0c.88-.21,1.42-1.09,1.2-1.96-3.98-16.29-7.81-29.08-8.66-28.88Z"/>
  </g>
</svg>