<?xml version="1.0" encoding="UTF-8"?>
<svg id="a" data-name="图层 1" xmlns="http://www.w3.org/2000/svg" width="40" height="40" viewBox="0 0 40 40">
  <g>
    <polygon points="20 23.33 19.56 36.67 20.44 36.67 20 23.33" fill="#a0d7e9"/>
    <polygon points="19.48 23.29 16.96 36.4 17.82 36.54 19.48 23.29" fill="#a0d7e9"/>
    <polygon points="18.97 23.17 14.43 35.72 15.26 35.99 18.97 23.17" fill="#a0d7e9"/>
    <polygon points="18.49 22.97 12.04 34.66 12.82 35.05 18.49 22.97" fill="#a0d7e9"/>
    <polygon points="18.04 22.7 9.85 33.23 10.55 33.75 18.04 22.7" fill="#a0d7e9"/>
    <polygon points="17.64 22.36 7.9 31.48 8.52 32.1 17.64 22.36" fill="#a0d7e9"/>
    <polygon points="17.3 21.96 6.25 29.45 6.77 30.15 17.3 21.96" fill="#a0d7e9"/>
    <polygon points="17.03 21.51 4.95 27.18 5.34 27.96 17.03 21.51" fill="#a0d7e9"/>
    <polygon points="16.83 21.03 4.01 24.74 4.28 25.57 16.83 21.03" fill="#a0d7e9"/>
    <polygon points="16.71 20.52 3.46 22.18 3.6 23.04 16.71 20.52" fill="#a0d7e9"/>
    <polygon points="16.67 20 3.33 19.56 3.33 20.44 16.67 20" fill="#a0d7e9"/>
    <polygon points="16.71 19.48 3.6 16.96 3.46 17.82 16.71 19.48" fill="#a0d7e9"/>
    <polygon points="16.83 18.97 4.28 14.43 4.01 15.26 16.83 18.97" fill="#a0d7e9"/>
    <polygon points="17.03 18.49 5.34 12.04 4.95 12.82 17.03 18.49" fill="#a0d7e9"/>
    <polygon points="17.3 18.04 6.77 9.85 6.25 10.55 17.3 18.04" fill="#a0d7e9"/>
    <polygon points="17.64 17.64 8.52 7.9 7.9 8.52 17.64 17.64" fill="#a0d7e9"/>
    <polygon points="18.04 17.3 10.55 6.25 9.85 6.77 18.04 17.3" fill="#a0d7e9"/>
    <polygon points="18.49 17.03 12.82 4.95 12.04 5.34 18.49 17.03" fill="#a0d7e9"/>
    <polygon points="18.97 16.83 15.26 4.01 14.43 4.28 18.97 16.83" fill="#a0d7e9"/>
    <polygon points="19.48 16.71 17.82 3.46 16.96 3.6 19.48 16.71" fill="#a0d7e9"/>
    <polygon points="20 16.67 20.44 3.33 19.56 3.33 20 16.67" fill="#a0d7e9"/>
    <polygon points="20.52 16.71 23.04 3.6 22.18 3.46 20.52 16.71" fill="#a0d7e9"/>
    <polygon points="21.03 16.83 25.57 4.28 24.74 4.01 21.03 16.83" fill="#a0d7e9"/>
    <polygon points="21.51 17.03 27.96 5.34 27.18 4.95 21.51 17.03" fill="#a0d7e9"/>
    <polygon points="21.96 17.3 30.15 6.77 29.45 6.25 21.96 17.3" fill="#a0d7e9"/>
    <polygon points="22.36 17.64 32.1 8.52 31.48 7.9 22.36 17.64" fill="#a0d7e9"/>
    <polygon points="22.7 18.04 33.75 10.55 33.23 9.85 22.7 18.04" fill="#a0d7e9"/>
    <polygon points="22.97 18.49 35.05 12.82 34.66 12.04 22.97 18.49" fill="#a0d7e9"/>
    <polygon points="23.17 18.97 35.99 15.26 35.72 14.43 23.17 18.97" fill="#a0d7e9"/>
    <polygon points="23.29 19.48 36.54 17.82 36.4 16.96 23.29 19.48" fill="#a0d7e9"/>
    <polygon points="23.33 20 36.67 20.44 36.67 19.56 23.33 20" fill="#a0d7e9"/>
    <polygon points="23.29 20.52 36.4 23.04 36.54 22.18 23.29 20.52" fill="#a0d7e9"/>
    <polygon points="23.17 21.03 35.72 25.57 35.99 24.74 23.17 21.03" fill="#a0d7e9"/>
    <polygon points="22.97 21.51 34.66 27.96 35.05 27.18 22.97 21.51" fill="#a0d7e9"/>
    <polygon points="22.7 21.96 33.23 30.15 33.75 29.45 22.7 21.96" fill="#a0d7e9"/>
    <polygon points="22.36 22.36 31.48 32.1 32.1 31.48 22.36 22.36" fill="#a0d7e9"/>
    <polygon points="21.96 22.7 29.45 33.75 30.15 33.23 21.96 22.7" fill="#a0d7e9"/>
    <polygon points="21.51 22.97 27.18 35.05 27.96 34.66 21.51 22.97" fill="#a0d7e9"/>
    <polygon points="21.03 23.17 24.74 35.99 25.57 35.72 21.03 23.17" fill="#a0d7e9"/>
    <polygon points="20.52 23.29 22.18 36.54 23.04 36.4 20.52 23.29" fill="#a0d7e9"/>
  </g>
  <g>
    <polygon points="19.81 22.54 18.69 32.68 19.36 32.73 19.81 22.54" fill="#0087c0"/>
    <polygon points="19.41 22.48 16.73 32.32 17.37 32.48 19.41 22.48" fill="#0087c0"/>
    <polygon points="19.03 22.36 14.84 31.66 15.46 31.91 19.03 22.36" fill="#0087c0"/>
    <polygon points="18.67 22.18 13.08 30.71 13.65 31.05 18.67 22.18" fill="#0087c0"/>
    <polygon points="18.35 21.94 11.49 29.49 12 29.92 18.35 21.94" fill="#0087c0"/>
    <polygon points="18.07 21.66 10.11 28.04 10.54 28.55 18.07 21.66" fill="#0087c0"/>
    <polygon points="17.83 21.34 8.97 26.4 9.32 26.97 17.83 21.34" fill="#0087c0"/>
    <polygon points="17.65 20.98 8.11 24.59 8.36 25.21 17.65 20.98" fill="#0087c0"/>
    <polygon points="17.52 20.6 7.53 22.68 7.69 23.32 17.52 20.6" fill="#0087c0"/>
    <polygon points="17.46 20.21 7.27 20.69 7.32 21.36 17.46 20.21" fill="#0087c0"/>
    <polygon points="17.46 19.81 7.32 18.69 7.27 19.36 17.46 19.81" fill="#0087c0"/>
    <polygon points="17.52 19.41 7.68 16.73 7.52 17.37 17.52 19.41" fill="#0087c0"/>
    <polygon points="17.64 19.03 8.34 14.84 8.09 15.46 17.64 19.03" fill="#0087c0"/>
    <polygon points="17.82 18.67 9.29 13.08 8.95 13.65 17.82 18.67" fill="#0087c0"/>
    <polygon points="18.06 18.35 10.51 11.49 10.08 12 18.06 18.35" fill="#0087c0"/>
    <polygon points="18.34 18.06 11.96 10.11 11.45 10.54 18.34 18.06" fill="#0087c0"/>
    <polygon points="18.66 17.83 13.6 8.97 13.03 9.32 18.66 17.83" fill="#0087c0"/>
    <polygon points="19.02 17.65 15.41 8.11 14.79 8.36 19.02 17.65" fill="#0087c0"/>
    <polygon points="19.4 17.52 17.32 7.53 16.67 7.69 19.4 17.52" fill="#0087c0"/>
    <polygon points="19.79 17.46 19.31 7.27 18.64 7.32 19.79 17.46" fill="#0087c0"/>
    <polygon points="20.19 17.46 21.31 7.32 20.64 7.27 20.19 17.46" fill="#0087c0"/>
    <polygon points="20.59 17.52 23.27 7.68 22.63 7.52 20.59 17.52" fill="#0087c0"/>
    <polygon points="20.97 17.64 25.16 8.34 24.54 8.09 20.97 17.64" fill="#0087c0"/>
    <polygon points="21.33 17.82 26.92 9.29 26.35 8.95 21.33 17.82" fill="#0087c0"/>
    <polygon points="21.65 18.06 28.51 10.51 28 10.08 21.65 18.06" fill="#0087c0"/>
    <polygon points="21.93 18.34 29.89 11.96 29.46 11.45 21.93 18.34" fill="#0087c0"/>
    <polygon points="22.17 18.66 31.03 13.6 30.68 13.03 22.17 18.66" fill="#0087c0"/>
    <polygon points="22.35 19.02 31.89 15.41 31.64 14.79 22.35 19.02" fill="#0087c0"/>
    <polygon points="22.48 19.4 32.47 17.32 32.31 16.67 22.48 19.4" fill="#0087c0"/>
    <polygon points="22.54 19.79 32.73 19.31 32.68 18.64 22.54 19.79" fill="#0087c0"/>
    <polygon points="22.54 20.19 32.68 21.31 32.73 20.64 22.54 20.19" fill="#0087c0"/>
    <polygon points="22.48 20.59 32.32 23.27 32.48 22.63 22.48 20.59" fill="#0087c0"/>
    <polygon points="22.36 20.97 31.66 25.16 31.91 24.54 22.36 20.97" fill="#0087c0"/>
    <polygon points="22.18 21.33 30.71 26.92 31.05 26.35 22.18 21.33" fill="#0087c0"/>
    <polygon points="21.94 21.65 29.49 28.51 29.92 28 21.94 21.65" fill="#0087c0"/>
    <polygon points="21.66 21.93 28.04 29.89 28.55 29.46 21.66 21.93" fill="#0087c0"/>
    <polygon points="21.34 22.17 26.4 31.03 26.97 30.68 21.34 22.17" fill="#0087c0"/>
    <polygon points="20.98 22.35 24.59 31.89 25.21 31.64 20.98 22.35" fill="#0087c0"/>
    <polygon points="20.6 22.48 22.68 32.47 23.33 32.31 20.6 22.48" fill="#0087c0"/>
    <polygon points="20.21 22.54 20.69 32.73 21.36 32.68 20.21 22.54" fill="#0087c0"/>
  </g>
  <g>
    <path d="M19,32.94l-.94,6.66c-.03.2.12.37.31.39h.17c.2.03.37-.13.37-.32l.09-6.73Z" fill="#46bdd5"/>
    <path d="M16.99,32.62l-1.97,6.43c-.06.19.06.39.25.43l.16.04c.19.05.38-.08.42-.28l1.14-6.63Z" fill="#46bdd5"/>
    <path d="M15.06,32l-2.95,6.04c-.09.18,0,.39.18.47l.16.06c.18.08.39-.02.45-.21l2.16-6.37Z" fill="#46bdd5"/>
    <path d="M13.24,31.07l-3.86,5.51c-.11.16-.07.39.1.49l.14.09c.17.1.39.04.48-.13l3.13-5.95Z" fill="#46bdd5"/>
    <path d="M11.59,29.88l-4.68,4.84c-.14.14-.13.37.02.5l.13.11c.15.13.38.1.5-.06l4.03-5.39Z" fill="#46bdd5"/>
    <path d="M10.15,28.44l-5.37,4.04c-.16.12-.18.35-.05.5l.11.13c.13.15.36.16.5.02l4.82-4.69Z" fill="#46bdd5"/>
    <path d="M8.95,26.8l-5.94,3.15c-.17.09-.23.31-.13.48l.09.14c.1.17.33.21.49.1l5.49-3.88Z" fill="#46bdd5"/>
    <path d="M8.02,24.99l-6.36,2.19c-.19.06-.28.27-.2.46l.06.16c.08.18.29.26.47.18l6.03-2.97Z" fill="#46bdd5"/>
    <path d="M7.39,23.05l-6.62,1.16c-.19.03-.32.23-.27.42l.04.16c.05.19.25.31.43.25l6.42-1.99Z" fill="#46bdd5"/>
    <path d="M7.07,21.04l-6.73.11c-.2,0-.35.17-.34.37v.17c.03.2.21.34.4.31l6.66-.96Z" fill="#46bdd5"/>
    <path d="M7.06,19l-6.66-.94c-.2-.03-.37.12-.39.31v.17c-.03.2.13.37.32.37l6.73.09Z" fill="#46bdd5"/>
    <path d="M7.38,16.99l-6.43-1.97c-.19-.06-.39.06-.43.25l-.04.16c-.05.19.08.38.28.42l6.63,1.14Z" fill="#46bdd5"/>
    <path d="M8,15.06l-6.04-2.95c-.18-.09-.39,0-.47.18l-.06.16c-.08.18.02.39.21.45l6.37,2.16Z" fill="#46bdd5"/>
    <path d="M8.93,13.24l-5.51-3.86c-.16-.11-.39-.07-.49.1l-.09.14c-.1.17-.04.39.13.48l5.95,3.13Z" fill="#46bdd5"/>
    <path d="M10.12,11.59l-4.84-4.68c-.14-.14-.37-.13-.5.02l-.11.13c-.13.15-.1.38.06.5l5.39,4.03Z" fill="#46bdd5"/>
    <path d="M11.56,10.15l-4.04-5.37c-.12-.16-.35-.18-.5-.05l-.13.11c-.15.13-.16.36-.02.5l4.69,4.82Z" fill="#46bdd5"/>
    <path d="M13.2,8.95l-3.15-5.94c-.09-.17-.31-.23-.48-.13l-.14.09c-.17.1-.21.33-.1.49l3.88,5.49Z" fill="#46bdd5"/>
    <path d="M15.01,8.02l-2.19-6.36c-.06-.19-.27-.28-.46-.2l-.16.06c-.18.08-.26.29-.18.47l2.97,6.03Z" fill="#46bdd5"/>
    <path d="M16.95,7.39l-1.16-6.62c-.03-.19-.23-.32-.42-.27l-.16.04c-.19.05-.31.25-.25.43l1.99,6.42Z" fill="#46bdd5"/>
    <path d="M18.96,7.07l-.11-6.73c0-.2-.17-.35-.37-.34h-.17c-.2.03-.34.21-.31.4l.96,6.66Z" fill="#46bdd5"/>
    <path d="M21,7.06l.94-6.66c.03-.2-.12-.37-.31-.39h-.17c-.2-.03-.37.13-.37.32l-.09,6.73Z" fill="#46bdd5"/>
    <path d="M23.01,7.38l1.97-6.43c.06-.19-.06-.39-.25-.43l-.16-.04c-.19-.05-.38.08-.42.28l-1.14,6.63Z" fill="#46bdd5"/>
    <path d="M24.94,8l2.95-6.04c.09-.18,0-.39-.18-.47l-.16-.06c-.18-.08-.39.02-.45.21l-2.16,6.37Z" fill="#46bdd5"/>
    <path d="M26.76,8.93l3.86-5.51c.11-.16.07-.39-.1-.49l-.14-.09c-.17-.1-.39-.04-.48.13l-3.13,5.95Z" fill="#46bdd5"/>
    <path d="M28.41,10.12l4.68-4.84c.14-.14.13-.37-.02-.5l-.13-.11c-.15-.13-.38-.1-.5.06l-4.03,5.39Z" fill="#46bdd5"/>
    <path d="M29.85,11.56l5.37-4.04c.16-.12.18-.35.05-.5l-.11-.13c-.13-.15-.36-.16-.5-.02l-4.82,4.69Z" fill="#46bdd5"/>
    <path d="M31.05,13.2l5.94-3.15c.17-.09.23-.31.13-.48l-.09-.14c-.1-.17-.33-.21-.49-.1l-5.49,3.88Z" fill="#46bdd5"/>
    <path d="M31.98,15.01l6.36-2.19c.19-.06.28-.27.2-.46l-.06-.16c-.08-.18-.29-.26-.47-.18l-6.03,2.97Z" fill="#46bdd5"/>
    <path d="M32.61,16.95l6.62-1.16c.19-.03.32-.23.27-.42l-.04-.16c-.05-.19-.25-.31-.43-.25l-6.42,1.99Z" fill="#46bdd5"/>
    <path d="M32.93,18.96l6.73-.11c.2,0,.35-.17.34-.37v-.17c-.03-.2-.21-.34-.4-.31l-6.66.96Z" fill="#46bdd5"/>
    <path d="M32.94,21l6.66.94c.2.03.37-.12.39-.31v-.17c.03-.2-.13-.37-.32-.37l-6.73-.09Z" fill="#46bdd5"/>
    <path d="M32.62,23.01l6.43,1.97c.19.06.39-.06.43-.25l.04-.16c.05-.19-.08-.38-.28-.42l-6.63-1.14Z" fill="#46bdd5"/>
    <path d="M32,24.94l6.04,2.95c.18.09.39,0,.47-.18l.06-.16c.08-.18-.02-.39-.21-.45l-6.37-2.16Z" fill="#46bdd5"/>
    <path d="M31.07,26.76l5.51,3.86c.16.11.39.07.49-.1l.09-.14c.1-.17.04-.39-.13-.48l-5.95-3.13Z" fill="#46bdd5"/>
    <path d="M29.88,28.41l4.84,4.68c.14.14.37.13.5-.02l.11-.13c.13-.15.1-.38-.06-.5l-5.39-4.03Z" fill="#46bdd5"/>
    <path d="M28.44,29.85l4.04,5.37c.12.16.35.18.5.05l.13-.11c.15-.13.16-.36.02-.5l-4.69-4.82Z" fill="#46bdd5"/>
    <path d="M26.8,31.05l3.15,5.94c.09.17.31.23.48.13l.14-.09c.17-.1.21-.33.1-.49l-3.88-5.49Z" fill="#46bdd5"/>
    <path d="M24.99,31.98l2.19,6.36c.06.19.27.28.46.2l.16-.06c.18-.08.26-.29.18-.47l-2.97-6.03Z" fill="#46bdd5"/>
    <path d="M23.05,32.61l1.16,6.62c.03.19.23.32.42.27l.16-.04c.19-.05.31-.25.25-.43l-1.99-6.42Z" fill="#46bdd5"/>
    <path d="M21.04,32.93l.11,6.73c0,.2.17.35.37.34h.17c.2-.03.34-.21.31-.4l-.96-6.66Z" fill="#46bdd5"/>
  </g>
</svg>