<?xml version="1.0" encoding="UTF-8"?>
<svg id="a" data-name="图层 1" xmlns="http://www.w3.org/2000/svg" width="400" height="400" viewBox="0 0 400 400">
  <g>
    <path d="M200,400c-4.05,0-7.22-5.61-6.86-12.12,2.39-84.52,4.68-121.23,6.86-121.23s4.47,36.71,6.86,121.23c.37,6.51-2.81,12.12-6.86,12.12Z" fill="#d3da7e"/>
    <path d="M127.45,386.38c-3.78-1.47-4.72-7.86-2.03-13.79,32.63-77.94,47.97-111.35,50-110.56,2.03.79-9.04,35.86-37.22,115.53-2,6.2-6.98,10.29-10.75,8.82Z" fill="#d3da7e"/>
    <path d="M64.7,347.36c-2.99-2.74-1.57-9.04,3.07-13.6,58.47-60.84,84.79-86.43,86.4-84.95,1.61,1.47-21.33,30.15-76.27,94.23-4.1,5.06-10.21,7.06-13.2,4.32Z" fill="#d3da7e"/>
    <path d="M20.22,288.22c-1.81-3.64,1.78-9,7.75-11.57,76.41-35.52,110.15-49.83,111.13-47.87.97,1.96-30.74,20.38-105.01,60.2-5.64,3.23-12.06,2.88-13.86-.76Z" fill="#d3da7e"/>
    <path d="M.02,216.93c-.37-4.05,4.9-7.74,11.39-7.97,84.02-5.41,120.64-6.51,120.84-4.33.2,2.18-35.99,7.85-119.58,18.04-6.42.97-12.28-1.69-12.66-5.74Z" fill="#d3da7e"/>
    <path d="M6.83,143.13c1.11-3.91,7.35-5.44,13.49-3.3,80.3,25.44,114.84,37.69,114.24,39.8-.6,2.1-36.39-5.73-117.99-26.55-6.34-1.43-10.85-6.03-9.74-9.94Z" fill="#d3da7e"/>
    <path d="M39.73,76.78c2.44-3.25,8.82-2.41,13.77,1.81,65.72,52.85,93.52,76.81,92.21,78.55s-31.87-18.55-100.47-67.56c-5.4-3.63-7.94-9.56-5.5-12.8Z" fill="#d3da7e"/>
    <path d="M94.27,26.85h0c3.44-2.14,9.09.95,12.19,6.68,42.27,73.12,59.58,105.55,57.72,106.7s-23.05-28.85-69.38-99.45c-3.73-5.34-3.97-11.79-.53-13.93Z" fill="#d3da7e"/>
    <path d="M163.1.08h0c3.98-.75,8.13,4.19,8.96,10.65,13.12,83.52,17.59,120.03,15.44,120.43-2.14.4-11.11-35.27-28.92-117.9-1.55-6.33.54-12.44,4.52-13.18Z" fill="#d3da7e"/>
    <path d="M236.9.07h0c3.98.75,6.07,6.85,4.52,13.18-17.81,82.64-26.78,118.3-28.92,117.9-2.14-.4,2.33-36.91,15.44-120.43.83-6.47,4.98-11.4,8.96-10.65Z" fill="#d3da7e"/>
    <path d="M305.73,26.85c3.44,2.14,3.2,8.59-.53,13.93-46.34,70.59-67.53,100.6-69.38,99.45s15.45-33.58,57.72-106.7c3.1-5.73,8.74-8.82,12.19-6.68Z" fill="#d3da7e"/>
    <path d="M360.27,76.78h0c2.44,3.25-.11,9.17-5.5,12.8-68.6,49.02-99.16,69.31-100.47,67.56s26.49-25.71,92.21-78.55c4.95-4.22,11.33-5.06,13.77-1.81Z" fill="#d3da7e"/>
    <path d="M393.17,143.13c1.11,3.91-3.4,8.51-9.74,9.94-81.6,20.82-117.4,28.66-117.99,26.55s33.94-14.36,114.24-39.8c6.14-2.14,12.38-.61,13.49,3.3Z" fill="#d3da7e"/>
    <path d="M399.98,216.93h0c-.37,4.05-6.23,6.71-12.66,5.74-83.58-10.19-119.78-15.86-119.58-18.04.2-2.18,36.82-1.08,120.84,4.33,6.49.23,11.76,3.93,11.39,7.97Z" fill="#d3da7e"/>
    <path d="M379.78,288.22c-1.81,3.64-8.23,3.99-13.86.76-74.27-39.82-105.98-58.24-105.01-60.2.97-1.96,34.72,12.35,111.13,47.87,5.97,2.57,9.56,7.93,7.75,11.57Z" fill="#d3da7e"/>
    <path d="M335.3,347.36c-2.99,2.74-9.11.74-13.2-4.32-54.93-64.07-77.88-92.76-76.27-94.23,1.61-1.47,27.93,24.11,86.4,84.95,4.64,4.56,6.06,10.86,3.07,13.6Z" fill="#d3da7e"/>
    <path d="M272.55,386.38c-3.78,1.47-8.76-2.61-10.76-8.82-28.18-79.68-39.25-114.74-37.22-115.53,2.03-.79,17.37,32.62,50,110.56,2.69,5.94,1.74,12.32-2.03,13.79Z" fill="#d3da7e"/>
  </g>
  <g>
    <path d="M200,4.12c2.6,0,4.64,3.61,4.41,7.8-1.54,54.34-3.01,77.94-4.41,77.94s-2.87-23.6-4.41-77.94c-.24-4.19,1.8-7.8,4.41-7.8Z" fill="#71b92b"/>
    <path d="M271.06,17.45c2.43.94,3.03,5.05,1.31,8.87-20.98,50.11-30.84,71.59-32.15,71.08-1.31-.51,5.81-23.05,23.93-74.28,1.28-3.99,4.49-6.61,6.91-5.67Z" fill="#71b92b"/>
    <path d="M332.53,55.67c1.92,1.76,1.01,5.81-1.97,8.74-37.59,39.12-54.51,55.56-55.55,54.62s13.71-19.39,49.03-60.58c2.63-3.25,6.56-4.54,8.49-2.78Z" fill="#71b92b"/>
    <path d="M376.09,113.61c1.16,2.34-1.15,5.78-4.98,7.44-49.12,22.84-70.82,32.04-71.44,30.78-.62-1.26,19.76-13.1,67.51-38.7,3.63-2.08,7.75-1.85,8.91.49Z" fill="#71b92b"/>
    <path d="M395.88,183.43c.24,2.6-3.15,4.98-7.32,5.13-54.02,3.48-77.56,4.18-77.69,2.78-.13-1.4,23.14-5.05,76.88-11.6,4.13-.62,7.9,1.09,8.14,3.69Z" fill="#71b92b"/>
    <path d="M389.21,255.72c-.71,2.51-4.73,3.5-8.67,2.12-51.62-16.35-73.83-24.23-73.45-25.59.38-1.35,23.4,3.69,75.86,17.07,4.07.92,6.97,3.88,6.26,6.39Z" fill="#71b92b"/>
    <path d="M356.98,320.7c-1.57,2.09-5.67,1.55-8.85-1.17-42.25-33.98-60.13-49.38-59.28-50.5.84-1.12,20.49,11.92,64.6,43.44,3.47,2.33,5.11,6.14,3.54,8.23Z" fill="#71b92b"/>
    <path d="M303.56,369.61c-2.21,1.38-5.84-.61-7.83-4.3-27.18-47.01-38.3-67.86-37.11-68.6,1.19-.74,14.82,18.55,44.61,63.94,2.4,3.43,2.55,7.58.34,8.96Z" fill="#71b92b"/>
    <path d="M236.15,395.83c-2.56.48-5.23-2.69-5.76-6.85-8.43-53.69-11.31-77.17-9.93-77.43,1.38-.26,7.14,22.67,18.6,75.8,1,4.07-.35,8-2.91,8.48Z" fill="#71b92b"/>
    <path d="M163.85,395.83c-2.56-.48-3.91-4.41-2.91-8.48,11.45-53.13,17.22-76.06,18.6-75.8,1.38.26-1.5,23.73-9.93,77.43-.53,4.16-3.2,7.33-5.76,6.85Z" fill="#71b92b"/>
    <path d="M96.44,369.61c-2.21-1.38-2.06-5.52.34-8.96,29.79-45.39,43.42-64.68,44.61-63.94,1.19.74-9.93,21.59-37.11,68.6-1.99,3.68-5.62,5.67-7.83,4.3Z" fill="#71b92b"/>
    <path d="M43.02,320.7c-1.57-2.09.07-5.9,3.54-8.23,44.11-31.51,63.75-44.56,64.6-43.44.84,1.12-17.03,16.53-59.28,50.5-3.18,2.71-7.28,3.25-8.85,1.17Z" fill="#71b92b"/>
    <path d="M10.79,255.72c-.71-2.51,2.19-5.47,6.26-6.39,52.46-13.39,75.48-18.42,75.86-17.07.38,1.35-21.82,9.23-73.45,25.59-3.94,1.37-7.96.39-8.67-2.12Z" fill="#71b92b"/>
    <path d="M4.12,183.43c.24-2.6,4.01-4.31,8.14-3.69,53.74,6.55,77.01,10.2,76.88,11.6-.13,1.4-23.67.69-77.69-2.78-4.17-.15-7.56-2.52-7.32-5.13Z" fill="#71b92b"/>
    <path d="M23.9,113.61c1.16-2.34,5.29-2.57,8.91-.49,47.75,25.6,68.14,37.45,67.51,38.7-.62,1.26-22.32-7.94-71.44-30.78-3.84-1.65-6.14-5.1-4.98-7.44Z" fill="#71b92b"/>
    <path d="M67.47,55.67c1.92-1.76,5.85-.47,8.49,2.78,35.32,41.19,50.07,59.63,49.03,60.58-1.03.95-17.96-15.5-55.55-54.62-2.98-2.93-3.9-6.98-1.97-8.74Z" fill="#71b92b"/>
    <path d="M128.94,17.46c2.43-.94,5.63,1.68,6.91,5.67,18.11,51.22,25.23,73.77,23.93,74.28-1.31.51-11.17-20.97-32.15-71.08-1.73-3.82-1.12-7.92,1.31-8.87Z" fill="#71b92b"/>
  </g>
  <g>
    <ellipse cx="200" cy="135.36" rx="7.82" ry="39.67" fill="#98c734"/>
    <ellipse cx="223.57" cy="139.78" rx="39.65" ry="7.82" transform="translate(12.71 298.08) rotate(-68.91)" fill="#98c734"/>
    <ellipse cx="243.96" cy="152.46" rx="39.6" ry="7.83" transform="translate(-32.89 230.66) rotate(-47.78)" fill="#98c734"/>
    <ellipse cx="258.41" cy="171.68" rx="39.54" ry="7.84" transform="translate(-49.5 133.74) rotate(-26.57)" fill="#98c734"/>
    <ellipse cx="264.97" cy="194.83" rx="39.51" ry="7.85" transform="translate(-16.92 25.4) rotate(-5.32)" fill="#98c734"/>
    <ellipse cx="262.76" cy="218.81" rx="7.85" ry="39.52" transform="translate(-19.84 411.32) rotate(-74.05)" fill="#98c734"/>
    <ellipse cx="252.07" cy="240.37" rx="7.84" ry="39.57" transform="translate(-91.78 295.92) rotate(-52.82)" fill="#98c734"/>
    <ellipse cx="234.35" cy="256.59" rx="7.83" ry="39.63" transform="translate(-99.78 161.13) rotate(-31.65)" fill="#98c734"/>
    <ellipse cx="211.99" cy="265.29" rx="7.82" ry="39.67" transform="translate(-44.96 43.26) rotate(-10.54)" fill="#98c734"/>
    <ellipse cx="188.01" cy="265.29" rx="39.67" ry="7.82" transform="translate(-107.2 401.59) rotate(-79.46)" fill="#98c734"/>
    <ellipse cx="165.65" cy="256.59" rx="39.63" ry="7.83" transform="translate(-139.7 262.97) rotate(-58.35)" fill="#98c734"/>
    <ellipse cx="147.93" cy="240.37" rx="39.57" ry="7.84" transform="translate(-115.2 138.27) rotate(-37.18)" fill="#98c734"/>
    <ellipse cx="137.24" cy="218.81" rx="39.52" ry="7.85" transform="translate(-54.85 46.14) rotate(-15.95)" fill="#98c734"/>
    <ellipse cx="135.03" cy="194.84" rx="7.85" ry="39.51" transform="translate(-71.48 311.22) rotate(-84.68)" fill="#98c734"/>
    <ellipse cx="141.59" cy="171.68" rx="7.84" ry="39.54" transform="translate(-75.29 221.51) rotate(-63.43)" fill="#98c734"/>
    <ellipse cx="156.04" cy="152.46" rx="7.83" ry="39.6" transform="translate(-61.97 144.42) rotate(-42.22)" fill="#98c734"/>
    <ellipse cx="176.43" cy="139.78" rx="7.82" ry="39.65" transform="translate(-38.48 72.85) rotate(-21.09)" fill="#98c734"/>
  </g>
</svg>