<?xml version="1.0" encoding="UTF-8"?>
<svg id="_图层_1" data-name="图层 1" xmlns="http://www.w3.org/2000/svg" viewBox="0 0 113.39 113.39">
  <defs>
    <style>
      .cls-1 {
        fill: #0088c0;
      }

      .cls-2 {
        fill: #a1d8ea;
      }

      .cls-3 {
        fill: #46bed6;
      }
    </style>
  </defs>
  <g>
    <polygon class="cls-2" points="56.69 66.15 55.46 103.96 57.93 103.96 56.69 66.15"/>
    <polygon class="cls-2" points="55.21 66.03 48.08 103.18 50.52 103.57 55.21 66.03"/>
    <polygon class="cls-2" points="53.77 65.68 40.91 101.26 43.26 102.02 53.77 65.68"/>
    <polygon class="cls-2" points="52.4 65.11 34.13 98.24 36.34 99.36 52.4 65.11"/>
    <polygon class="cls-2" points="51.14 64.34 27.91 94.2 29.91 95.66 51.14 64.34"/>
    <polygon class="cls-2" points="50.01 63.38 22.4 89.24 24.15 90.99 50.01 63.38"/>
    <polygon class="cls-2" points="49.05 62.25 17.73 83.47 19.18 85.47 49.05 62.25"/>
    <polygon class="cls-2" points="48.27 60.98 14.02 77.05 15.14 79.25 48.27 60.98"/>
    <polygon class="cls-2" points="47.7 59.61 11.36 70.12 12.13 72.47 47.7 59.61"/>
    <polygon class="cls-2" points="47.36 58.17 9.82 62.86 10.21 65.31 47.36 58.17"/>
    <polygon class="cls-2" points="47.24 56.69 9.43 55.46 9.43 57.93 47.24 56.69"/>
    <polygon class="cls-2" points="47.36 55.21 10.21 48.08 9.82 50.52 47.36 55.21"/>
    <polygon class="cls-2" points="47.7 53.77 12.13 40.91 11.36 43.26 47.7 53.77"/>
    <polygon class="cls-2" points="48.27 52.4 15.14 34.13 14.02 36.34 48.27 52.4"/>
    <polygon class="cls-2" points="49.05 51.14 19.18 27.91 17.73 29.91 49.05 51.14"/>
    <polygon class="cls-2" points="50.01 50.01 24.15 22.4 22.4 24.15 50.01 50.01"/>
    <polygon class="cls-2" points="51.14 49.05 29.91 17.73 27.91 19.18 51.14 49.05"/>
    <polygon class="cls-2" points="52.4 48.27 36.34 14.02 34.13 15.14 52.4 48.27"/>
    <polygon class="cls-2" points="53.77 47.7 43.26 11.36 40.91 12.12 53.77 47.7"/>
    <polygon class="cls-2" points="55.21 47.36 50.52 9.82 48.08 10.2 55.21 47.36"/>
    <polygon class="cls-2" points="56.69 47.24 57.93 9.43 55.46 9.43 56.69 47.24"/>
    <polygon class="cls-2" points="58.17 47.36 65.31 10.2 62.86 9.82 58.17 47.36"/>
    <polygon class="cls-2" points="59.61 47.7 72.47 12.12 70.12 11.36 59.61 47.7"/>
    <polygon class="cls-2" points="60.98 48.27 79.25 15.14 77.05 14.02 60.98 48.27"/>
    <polygon class="cls-2" points="62.25 49.05 85.47 19.18 83.47 17.73 62.25 49.05"/>
    <polygon class="cls-2" points="63.38 50.01 90.99 24.15 89.24 22.4 63.38 50.01"/>
    <polygon class="cls-2" points="64.34 51.14 95.66 29.91 94.2 27.91 64.34 51.14"/>
    <polygon class="cls-2" points="65.11 52.4 99.37 36.34 98.24 34.13 65.11 52.4"/>
    <polygon class="cls-2" points="65.68 53.77 102.03 43.26 101.26 40.91 65.68 53.77"/>
    <polygon class="cls-2" points="66.03 55.21 103.57 50.52 103.18 48.08 66.03 55.21"/>
    <polygon class="cls-2" points="66.15 56.69 103.96 57.93 103.96 55.46 66.15 56.69"/>
    <polygon class="cls-2" points="66.03 58.17 103.18 65.31 103.57 62.86 66.03 58.17"/>
    <polygon class="cls-2" points="65.68 59.61 101.26 72.47 102.02 70.12 65.68 59.61"/>
    <polygon class="cls-2" points="65.12 60.98 98.24 79.25 99.37 77.05 65.12 60.98"/>
    <polygon class="cls-2" points="64.34 62.25 94.2 85.47 95.66 83.47 64.34 62.25"/>
    <polygon class="cls-2" points="63.38 63.38 89.24 90.99 90.99 89.24 63.38 63.38"/>
    <polygon class="cls-2" points="62.25 64.34 83.47 95.66 85.48 94.2 62.25 64.34"/>
    <polygon class="cls-2" points="60.98 65.11 77.05 99.37 79.25 98.24 60.98 65.11"/>
    <polygon class="cls-2" points="59.61 65.68 70.12 102.02 72.48 101.26 59.61 65.68"/>
    <polygon class="cls-2" points="58.17 66.03 62.86 103.57 65.31 103.18 58.17 66.03"/>
  </g>
  <g>
    <polygon class="cls-1" points="56.14 63.9 52.99 92.64 54.88 92.79 56.14 63.9"/>
    <polygon class="cls-1" points="55.02 63.72 47.41 91.62 49.25 92.06 55.02 63.72"/>
    <polygon class="cls-1" points="53.94 63.37 42.06 89.74 43.81 90.46 53.94 63.37"/>
    <polygon class="cls-1" points="52.93 62.86 37.07 87.04 38.69 88.03 52.93 62.86"/>
    <polygon class="cls-1" points="52.01 62.2 32.57 83.6 34.01 84.82 52.01 62.2"/>
    <polygon class="cls-1" points="51.21 61.4 28.65 79.49 29.89 80.93 51.21 61.4"/>
    <polygon class="cls-1" points="50.54 60.48 25.43 74.83 26.42 76.44 50.54 60.48"/>
    <polygon class="cls-1" points="50.02 59.47 22.98 69.71 23.71 71.46 50.02 59.47"/>
    <polygon class="cls-1" points="49.67 58.39 21.36 64.28 21.8 66.12 49.67 58.39"/>
    <polygon class="cls-1" points="49.49 57.27 20.61 58.66 20.76 60.54 49.49 57.27"/>
    <polygon class="cls-1" points="49.49 56.14 20.74 52.99 20.6 54.88 49.49 56.14"/>
    <polygon class="cls-1" points="49.66 55.02 21.77 47.41 21.33 49.25 49.66 55.02"/>
    <polygon class="cls-1" points="50.01 53.94 23.65 42.06 22.93 43.81 50.01 53.94"/>
    <polygon class="cls-1" points="50.52 52.93 26.34 37.07 25.36 38.69 50.52 52.93"/>
    <polygon class="cls-1" points="51.19 52.01 29.79 32.57 28.56 34.01 51.19 52.01"/>
    <polygon class="cls-1" points="51.99 51.21 33.89 28.65 32.46 29.89 51.99 51.21"/>
    <polygon class="cls-1" points="52.9 50.54 38.56 25.43 36.95 26.42 52.9 50.54"/>
    <polygon class="cls-1" points="53.91 50.02 43.67 22.98 41.93 23.71 53.91 50.02"/>
    <polygon class="cls-1" points="54.99 49.67 49.11 21.36 47.27 21.8 54.99 49.67"/>
    <polygon class="cls-1" points="56.11 49.49 54.73 20.61 52.84 20.76 56.11 49.49"/>
    <polygon class="cls-1" points="57.24 49.49 60.4 20.74 58.51 20.6 57.24 49.49"/>
    <polygon class="cls-1" points="58.37 49.66 65.97 21.77 64.13 21.33 58.37 49.66"/>
    <polygon class="cls-1" points="59.44 50.01 71.32 23.65 69.57 22.93 59.44 50.01"/>
    <polygon class="cls-1" points="60.46 50.52 76.31 26.34 74.7 25.36 60.46 50.52"/>
    <polygon class="cls-1" points="61.37 51.19 80.82 29.79 79.38 28.56 61.37 51.19"/>
    <polygon class="cls-1" points="62.18 51.99 84.73 33.89 83.5 32.46 62.18 51.99"/>
    <polygon class="cls-1" points="62.85 52.9 87.95 38.56 86.96 36.95 62.85 52.9"/>
    <polygon class="cls-1" points="63.36 53.91 90.41 43.67 89.68 41.93 63.36 53.91"/>
    <polygon class="cls-1" points="63.72 54.99 92.03 49.11 91.58 47.27 63.72 54.99"/>
    <polygon class="cls-1" points="63.89 56.11 92.78 54.73 92.63 52.84 63.89 56.11"/>
    <polygon class="cls-1" points="63.9 57.24 92.64 60.4 92.79 58.51 63.9 57.24"/>
    <polygon class="cls-1" points="63.72 58.36 91.62 65.97 92.06 64.13 63.72 58.36"/>
    <polygon class="cls-1" points="63.37 59.44 89.74 71.32 90.46 69.57 63.37 59.44"/>
    <polygon class="cls-1" points="62.86 60.46 87.04 76.31 88.03 74.7 62.86 60.46"/>
    <polygon class="cls-1" points="62.2 61.37 83.6 80.82 84.83 79.38 62.2 61.37"/>
    <polygon class="cls-1" points="61.4 62.18 79.49 84.73 80.93 83.5 61.4 62.18"/>
    <polygon class="cls-1" points="60.48 62.85 74.83 87.95 76.44 86.96 60.48 62.85"/>
    <polygon class="cls-1" points="59.47 63.36 69.71 90.4 71.46 89.68 59.47 63.36"/>
    <polygon class="cls-1" points="58.39 63.71 64.28 92.03 66.12 91.58 58.39 63.71"/>
    <polygon class="cls-1" points="57.27 63.89 58.66 92.78 60.54 92.63 57.27 63.89"/>
  </g>
  <g>
    <path class="cls-3" d="M53.87,93.36l-2.66,18.88c-.08.55.33,1.06.89,1.1l.48.04c.56.04,1.04-.39,1.05-.95l.26-19.07Z"/>
    <path class="cls-3" d="M48.17,92.47l-5.59,18.23c-.16.54.16,1.1.7,1.23l.47.11c.55.13,1.09-.23,1.18-.78l3.24-18.79Z"/>
    <path class="cls-3" d="M42.68,90.69l-8.37,17.13c-.25.5-.02,1.11.5,1.32l.44.18c.52.21,1.11-.05,1.29-.59l6.14-18.05Z"/>
    <path class="cls-3" d="M37.53,88.08l-10.95,15.61c-.32.46-.19,1.09.29,1.39l.41.25c.48.29,1.1.12,1.36-.38l8.88-16.87Z"/>
    <path class="cls-3" d="M32.86,84.7l-13.25,13.71c-.39.4-.36,1.05.07,1.41l.36.31c.43.36,1.07.29,1.41-.16l11.41-15.27Z"/>
    <path class="cls-3" d="M28.77,80.63l-15.23,11.47c-.45.34-.52.98-.15,1.41l.31.36c.36.43,1.01.45,1.41.06l13.66-13.3Z"/>
    <path class="cls-3" d="M25.37,75.96l-16.84,8.94c-.49.26-.67.89-.37,1.37l.25.41c.29.48.93.61,1.39.28l15.57-11Z"/>
    <path class="cls-3" d="M22.74,70.83l-18.03,6.2c-.53.18-.8.77-.58,1.29l.18.44c.22.52.82.75,1.33.5l17.1-8.43Z"/>
    <path class="cls-3" d="M20.95,65.34l-18.78,3.3c-.55.1-.91.64-.78,1.18l.11.46c.13.54.7.86,1.23.7l18.21-5.65Z"/>
    <path class="cls-3" d="M20.03,59.64l-19.06.32c-.56,0-1,.49-.95,1.05l.04.48c.04.56.55.96,1.11.88l18.87-2.73Z"/>
    <path class="cls-3" d="M20.02,53.87l-18.88-2.66c-.55-.08-1.06.33-1.1.89l-.04.48c-.04.56.39,1.04.95,1.05l19.07.26Z"/>
    <path class="cls-3" d="M20.92,48.17l-18.23-5.59c-.54-.16-1.1.16-1.23.7l-.11.47c-.13.55.23,1.09.78,1.18l18.79,3.24Z"/>
    <path class="cls-3" d="M22.69,42.68l-17.13-8.37c-.5-.25-1.11-.02-1.32.5l-.18.44c-.21.52.05,1.11.59,1.29l18.05,6.14Z"/>
    <path class="cls-3" d="M25.3,37.53l-15.61-10.95c-.46-.32-1.09-.19-1.39.29l-.25.41c-.29.48-.12,1.1.38,1.36l16.87,8.88Z"/>
    <path class="cls-3" d="M28.69,32.86l-13.71-13.25c-.4-.39-1.05-.36-1.41.07l-.31.36c-.36.43-.29,1.07.16,1.41l15.27,11.41Z"/>
    <path class="cls-3" d="M32.76,28.77l-11.47-15.23c-.34-.45-.98-.52-1.41-.15l-.36.31c-.43.36-.45,1.01-.06,1.41l13.3,13.66Z"/>
    <path class="cls-3" d="M37.42,25.37l-8.94-16.84c-.26-.49-.89-.67-1.37-.37l-.41.25c-.48.29-.61.93-.28,1.39l11,15.57Z"/>
    <path class="cls-3" d="M42.56,22.74l-6.2-18.03c-.18-.53-.77-.8-1.29-.58l-.44.18c-.52.22-.75.82-.5,1.33l8.43,17.1Z"/>
    <path class="cls-3" d="M48.05,20.95l-3.3-18.78c-.1-.55-.64-.91-1.18-.78l-.46.11c-.54.13-.86.7-.7,1.23l5.65,18.21Z"/>
    <path class="cls-3" d="M53.74,20.03l-.32-19.06c0-.56-.49-1-1.05-.95l-.48.04c-.56.04-.96.55-.88,1.11l2.73,18.87Z"/>
    <path class="cls-3" d="M59.52,20.02l2.66-18.88c.08-.55-.33-1.06-.89-1.1l-.48-.04c-.56-.04-1.04.39-1.05.95l-.26,19.07Z"/>
    <path class="cls-3" d="M65.22,20.92l5.59-18.23c.16-.54-.16-1.1-.7-1.23l-.47-.11c-.55-.13-1.09.23-1.18.78l-3.24,18.79Z"/>
    <path class="cls-3" d="M70.71,22.69l8.37-17.13c.25-.5.02-1.11-.5-1.32l-.44-.18c-.52-.21-1.11.05-1.29.59l-6.14,18.05Z"/>
    <path class="cls-3" d="M75.86,25.3l10.95-15.61c.32-.46.19-1.09-.29-1.39l-.41-.25c-.48-.29-1.1-.12-1.36.38l-8.88,16.87Z"/>
    <path class="cls-3" d="M80.53,28.69l13.25-13.71c.39-.4.36-1.05-.07-1.41l-.36-.31c-.43-.36-1.07-.29-1.41.16l-11.41,15.27Z"/>
    <path class="cls-3" d="M84.62,32.76l15.23-11.47c.45-.34.52-.98.15-1.41l-.31-.36c-.36-.43-1.01-.45-1.41-.06l-13.66,13.3Z"/>
    <path class="cls-3" d="M88.02,37.42l16.84-8.94c.49-.26.67-.89.37-1.37l-.25-.41c-.29-.48-.93-.61-1.39-.28l-15.57,11Z"/>
    <path class="cls-3" d="M90.65,42.56l18.03-6.2c.53-.18.8-.77.58-1.29l-.18-.44c-.22-.52-.82-.75-1.33-.5l-17.1,8.43Z"/>
    <path class="cls-3" d="M92.44,48.05l18.78-3.3c.55-.1.91-.64.78-1.18l-.11-.46c-.13-.54-.7-.86-1.23-.7l-18.21,5.65Z"/>
    <path class="cls-3" d="M93.35,53.74l19.06-.32c.56,0,1-.49.95-1.05l-.04-.48c-.04-.56-.55-.96-1.11-.88l-18.87,2.73Z"/>
    <path class="cls-3" d="M93.36,59.52l18.88,2.66c.55.08,1.06-.33,1.1-.89l.04-.48c.04-.56-.39-1.04-.95-1.05l-19.07-.26Z"/>
    <path class="cls-3" d="M92.47,65.22l18.23,5.59c.54.16,1.1-.16,1.23-.7l.11-.47c.13-.55-.23-1.09-.78-1.18l-18.79-3.24Z"/>
    <path class="cls-3" d="M90.69,70.71l17.13,8.37c.5.25,1.11.02,1.32-.5l.18-.44c.21-.52-.05-1.11-.59-1.29l-18.05-6.14Z"/>
    <path class="cls-3" d="M88.08,75.86l15.61,10.95c.46.32,1.09.19,1.39-.29l.25-.41c.29-.48.12-1.1-.38-1.36l-16.87-8.88Z"/>
    <path class="cls-3" d="M84.7,80.53l13.71,13.25c.4.39,1.05.36,1.41-.07l.31-.36c.36-.43.29-1.07-.16-1.41l-15.27-11.41Z"/>
    <path class="cls-3" d="M80.63,84.62l11.47,15.23c.34.45.98.52,1.41.15l.36-.31c.43-.36.45-1.01.06-1.41l-13.3-13.66Z"/>
    <path class="cls-3" d="M75.96,88.02l8.94,16.84c.26.49.89.67,1.37.37l.41-.25c.48-.29.61-.93.28-1.39l-11-15.57Z"/>
    <path class="cls-3" d="M70.83,90.65l6.2,18.03c.18.53.77.8,1.29.58l.44-.18c.52-.22.75-.82.5-1.33l-8.43-17.1Z"/>
    <path class="cls-3" d="M65.34,92.44l3.3,18.78c.1.55.64.91,1.18.78l.46-.11c.54-.13.86-.7.7-1.23l-5.65-18.21Z"/>
    <path class="cls-3" d="M59.64,93.35l.32,19.06c0,.56.49,1,1.05.95l.48-.04c.56-.04.96-.55.88-1.11l-2.73-18.87Z"/>
  </g>
</svg>