<?xml version="1.0" encoding="UTF-8"?>
<svg id="a" data-name="图层 1" xmlns="http://www.w3.org/2000/svg" width="40" height="40" viewBox="0 0 40 40">
  <path d="M39.29,20c0,.45-9.34.48-9.39.92s9.14,2.17,9.06,2.61-9.27-1.24-9.4-.81,8.58,3.81,8.42,4.23-8.88-2.93-9.08-2.53,7.73,5.32,7.49,5.7-8.19-4.51-8.46-4.15,6.62,6.65,6.31,6.98-7.22-5.92-7.55-5.62,5.29,7.74,4.93,8.01-6.01-7.14-6.39-6.9,3.77,8.57,3.37,8.77-4.59-8.12-5.01-7.96,2.12,9.12,1.68,9.24-3-8.83-3.44-8.74.39,9.35-.06,9.39-1.32-9.22-1.77-9.22-1.33,9.27-1.77,9.22.38-9.31-.06-9.39-3.01,8.86-3.44,8.74,2.1-9.08,1.68-9.24-4.61,8.16-5.01,7.96,3.75-8.54,3.37-8.77-6.04,7.17-6.39,6.9,5.26-7.71,4.93-8.01-7.25,5.95-7.55,5.62,6.59-6.62,6.31-6.98-8.22,4.53-8.46,4.15,7.69-5.3,7.49-5.7-8.92,2.95-9.08,2.53,8.54-3.79,8.42-4.23-9.31,1.26-9.4.81,9.1-2.16,9.06-2.61-9.39-.47-9.39-.92,9.34-.48,9.39-.92S.95,16.91,1.03,16.47s9.27,1.24,9.4.81S1.85,13.47,2.01,13.06s8.88,2.93,9.08,2.53-7.73-5.32-7.49-5.7,8.19,4.51,8.46,4.15-6.62-6.65-6.31-6.98,7.22,5.92,7.55,5.62-5.29-7.74-4.93-8.01,6.01,7.14,6.39,6.9-3.77-8.57-3.37-8.77,4.59,8.12,5.01,7.96S14.29,1.64,14.72,1.52s3,8.83,3.44,8.74-.39-9.35.06-9.39,1.32,9.22,1.77,9.22,1.33-9.27,1.77-9.22-.38,9.31.06,9.39,3.01-8.86,3.44-8.74-2.1,9.08-1.68,9.24,4.61-8.16,5.01-7.96-3.75,8.54-3.37,8.77,6.04-7.17,6.39-6.9-5.26,7.71-4.93,8.01,7.25-5.95,7.55-5.62-6.59,6.62-6.31,6.98,8.22-4.53,8.46-4.15-7.69,5.3-7.49,5.7,8.92-2.95,9.08-2.53-8.54,3.79-8.42,4.23,9.31-1.26,9.4-.81-9.1,2.16-9.06,2.61,9.39.47,9.39.92Z" fill="#5f3790"/>
  <path d="M33.55,5.24c.41.37-2.52,4.05-2.15,4.45s4.32-2.15,4.65-1.72-3.22,3.52-2.94,3.98,4.64-1.32,4.89-.83-3.82,2.86-3.63,3.37,4.81-.44,4.96.08-4.28,2.11-4.19,2.65,4.81.44,4.86.98-4.6,1.29-4.6,1.84,4.65,1.31,4.6,1.85-4.76.43-4.86.97,4.33,2.13,4.18,2.66-4.76-.45-4.96.06,3.86,2.89,3.61,3.38c-.24.48-4.59-1.32-4.88-.85s3.26,3.55,2.92,3.99-4.27-2.14-4.64-1.73,2.55,4.09,2.15,4.45-3.82-2.87-4.25-2.54,1.75,4.48,1.29,4.77-3.22-3.52-3.7-3.28.89,4.73.38,4.92-2.51-4.05-3.03-3.91,0,4.81-.54,4.91-1.72-4.44-2.26-4.39-.88,4.73-1.43,4.73-.87-4.68-1.42-4.73-1.73,4.49-2.27,4.39,0-4.76-.52-4.91-2.53,4.09-3.04,3.9.89-4.68.4-4.92-3.25,3.56-3.72,3.27,1.74-4.43,1.3-4.76-3.85,2.9-4.26,2.53,2.52-4.05,2.15-4.45-4.32,2.15-4.65,1.72,3.22-3.52,2.94-3.98-4.64,1.32-4.89.83,3.82-2.86,3.63-3.37-4.81.44-4.96-.08,4.28-2.11,4.19-2.65S.05,22.36,0,21.81s4.6-1.29,4.6-1.84S-.05,18.67,0,18.13s4.76-.43,4.86-.97S.54,15.02.69,14.5s4.76.45,4.96-.06c.2-.5-3.86-2.89-3.61-3.38s4.59,1.32,4.88.85-3.26-3.55-2.92-3.99,4.27,2.14,4.64,1.73-2.55-4.09-2.15-4.45,3.82,2.87,4.25,2.54-1.75-4.48-1.29-4.77,3.22,3.52,3.7,3.28-.89-4.73-.38-4.92,2.51,4.05,3.03,3.91,0-4.81.54-4.91,1.72,4.44,2.26,4.39S19.48,0,20.03,0s.87,4.68,1.42,4.73S23.18.24,23.72.34s0,4.76.52,4.91,2.53-4.09,3.04-3.9-.89,4.68-.4,4.92,3.25-3.56,3.72-3.27-1.74,4.43-1.3,4.76,3.85-2.9,4.26-2.53Z" fill="#8c71af"/>
  <path d="M34.79,21.37c-.03.35-7.2-.3-7.26.04s6.85,2.3,6.76,2.63-7.02-1.6-7.15-1.29,6.31,3.52,6.15,3.82-6.6-2.87-6.78-2.57,5.55,4.61,5.34,4.89-5.96-4.02-6.19-3.77,4.6,5.54,4.34,5.77-5.11-5.03-5.39-4.83,3.5,6.28,3.21,6.46-4.1-5.88-4.41-5.72,2.28,6.81,1.96,6.94-2.94-6.52-3.27-6.43.98,7.11.63,7.17-1.67-6.95-2.02-6.92-.36,7.17-.71,7.17-.36-7.14-.7-7.17-1.68,6.98-2.02,6.92.95-7.08.62-7.17-2.94,6.55-3.26,6.43,2.26-6.78,1.95-6.93-4.11,5.9-4.41,5.72,3.48-6.25,3.21-6.46-5.14,5.05-5.39,4.82,4.58-5.51,4.35-5.76-5.98,4.03-6.19,3.76,5.52-4.59,5.34-4.88-6.63,2.88-6.78,2.57,6.28-3.5,6.15-3.82-7.05,1.62-7.14,1.29,6.82-2.29,6.76-2.63-7.23.3-7.26-.05,7.13-1,7.13-1.35-7.16-1.02-7.13-1.37,7.2.3,7.26-.04-6.85-2.3-6.76-2.63,7.02,1.6,7.15,1.29-6.31-3.52-6.15-3.82,6.6,2.87,6.78,2.57-5.55-4.61-5.34-4.89,5.96,4.02,6.19,3.77-4.6-5.54-4.34-5.77,5.11,5.03,5.39,4.83-3.5-6.28-3.21-6.46,4.1,5.88,4.41,5.72-2.28-6.81-1.96-6.94,2.94,6.52,3.27,6.43-.98-7.11-.63-7.17,1.67,6.95,2.02,6.92.36-7.17.71-7.17.36,7.14.7,7.17,1.68-6.98,2.02-6.92-.95,7.08-.62,7.17,2.94-6.55,3.26-6.43-2.26,6.78-1.95,6.93,4.11-5.9,4.41-5.72-3.48,6.25-3.21,6.46,5.14-5.05,5.39-4.82-4.58,5.51-4.35,5.76,5.98-4.03,6.19-3.76-5.52,4.59-5.34,4.88,6.63-2.88,6.78-2.57-6.28,3.5-6.15,3.82,7.05-1.62,7.14-1.29-6.82,2.29-6.76,2.63,7.23-.3,7.26.05-7.13,1-7.13,1.35,7.16,1.02,7.13,1.37Z" fill="#b097c6"/>
  <path d="M25.47,15.05c.14.15-1.06,1.4-.94,1.56s1.66-.64,1.76-.47-1.3,1.18-1.21,1.36,1.75-.33,1.82-.14-1.5.92-1.44,1.11,1.78,0,1.81.2-1.64.63-1.62.83,1.75.32,1.75.52-1.73.32-1.75.52,1.66.64,1.62.83-1.76,0-1.82.19,1.51.93,1.44,1.12-1.73-.33-1.82-.15,1.32,1.19,1.21,1.36-1.64-.64-1.76-.48,1.07,1.41.94,1.56-1.49-.93-1.64-.79.79,1.59.63,1.7-1.3-1.18-1.47-1.08.49,1.7.31,1.79-1.06-1.4-1.25-1.33.16,1.76-.03,1.82-.78-1.57-.98-1.53-.16,1.76-.36,1.78-.48-1.69-.68-1.69-.48,1.7-.69,1.68-.16-1.75-.36-1.78-.79,1.59-.98,1.53.17-1.74-.02-1.82-1.07,1.42-1.25,1.33.49-1.68.31-1.79-1.31,1.19-1.47,1.07.79-1.57.64-1.7-1.51.93-1.65.78,1.06-1.4.94-1.56-1.66.64-1.76.47,1.3-1.18,1.21-1.36-1.75.33-1.82.14,1.5-.92,1.44-1.11-1.78,0-1.81-.2,1.64-.63,1.62-.83-1.75-.32-1.75-.52,1.73-.32,1.75-.52-1.66-.64-1.62-.83,1.76,0,1.82-.19-1.51-.93-1.44-1.12,1.73.33,1.82.15-1.32-1.19-1.21-1.36,1.64.64,1.76.48-1.07-1.41-.94-1.56,1.49.93,1.64.79-.79-1.59-.63-1.7,1.3,1.18,1.47,1.08-.49-1.7-.31-1.79,1.06,1.4,1.25,1.33-.16-1.76.03-1.82.78,1.57.98,1.53.16-1.76.36-1.78.48,1.69.68,1.69.48-1.7.69-1.68.16,1.75.36,1.78.79-1.59.98-1.53-.17,1.74.02,1.82,1.07-1.42,1.25-1.33-.49,1.68-.31,1.79,1.31-1.19,1.47-1.07-.79,1.57-.64,1.7,1.51-.93,1.65-.78Z" fill="#cdb9d9"/>
</svg>