<?xml version="1.0" encoding="UTF-8"?>
<svg id="a" data-name="图层 1" xmlns="http://www.w3.org/2000/svg" width="40" height="39.98" viewBox="0 0 40 39.98">
  <path d="M19.94,39.98l-.94-13.14-4.63,12.35-.13-.04,2.86-12.87-7.97,10.55-.11-.07,6.4-11.55-10.64,7.92-.09-.1,9.42-9.31L1.65,28.35l-.05-.12,11.69-6.28L.02,22.9l-.02-.13,13-2.79L0,17.21l.02-.13,13.27.96L1.61,11.74l.05-.12,12.46,4.63L4.7,6.95l.09-.1,10.65,7.91L9.02,3.21l.11-.07,7.96,10.56L14.26.83l.13-.04,4.62,12.36.92-13.14h.13l.94,13.14L25.63.79l.13.04-2.86,12.87,7.97-10.55.11.07-6.4,11.55,10.64-7.92.09.1-9.42,9.31,12.46-4.62.05.12-11.69,6.28,13.27-.95.02.13-13,2.79,13.01,2.77-.02.13-13.27-.96,11.68,6.3-.05.12-12.46-4.63,9.42,9.3-.09.1-10.65-7.91,6.4,11.55-.11.07-7.96-10.56,2.84,12.87-.13.04-4.62-12.36-.92,13.14h-.13ZM19.09,26.23l.92,12.81.9-12.82,4.51,12.05-2.77-12.55,7.76,10.29-6.24-11.26,10.38,7.71-9.19-9.07,12.14,4.52-11.39-6.15,12.93.94-12.67-2.7,12.69-2.72-12.95.93,11.39-6.12-12.14,4.5,9.18-9.07-10.37,7.72,6.24-11.27-7.77,10.29,2.79-12.54-4.52,12.04-.92-12.81-.9,12.82L14.59,1.71l2.77,12.55L9.6,3.97l6.24,11.26L5.46,7.52l9.19,9.07L2.5,12.07l11.39,6.15-12.93-.94,12.67,2.7L.95,22.7l12.95-.93-11.39,6.12,12.14-4.5-9.18,9.07,10.37-7.72-6.24,11.27,7.77-10.29-2.79,12.54,4.52-12.04Z" fill="#681218"/>
  <path d="M13.77,20.89l-10.66-.89,10.66-.89-9.98-3.82,10.48,2.12-8.48-6.46,9.45,4.97-6.31-8.56,7.67,7.39-3.62-9.97,5.25,9.23-.62-10.57,2.4,10.33,2.4-10.33-.62,10.57,5.25-9.23-3.62,9.97,7.67-7.39-6.31,8.56,9.45-4.97-8.48,6.46,10.48-2.12-9.98,3.82,10.66.89-10.66.89,9.98,3.82-10.48-2.12,8.48,6.46-9.45-4.97,6.31,8.56-7.67-7.39,3.62,9.97-5.25-9.23.62,10.57-2.4-10.33-2.4,10.33.62-10.57-5.25,9.23,3.62-9.97-7.67,7.39,6.31-8.56-9.45,4.97,8.48-6.46-10.48,2.12,9.98-3.82ZM8.14,27.54l7.89-4.15-5.26,7.14,6.4-6.17-3.02,8.32,4.38-7.71-.52,8.83,2-8.62,2,8.62-.52-8.83,4.38,7.71-3.02-8.32,6.4,6.17-5.26-7.14,7.89,4.15-7.08-5.39,8.75,1.77-8.33-3.19,8.9-.75-8.9-.75,8.33-3.19-8.75,1.77,7.08-5.39-7.89,4.15,5.26-7.14-6.4,6.17,3.02-8.32-4.38,7.71.52-8.83-2,8.62-2-8.62.52,8.83-4.38-7.71,3.02,8.32-6.4-6.17,5.26,7.14-7.89-4.15,7.08,5.39-8.75-1.77,8.33,3.19-8.9.75,8.9.75-8.33,3.19,8.75-1.77-7.08,5.39Z" fill="#9d2324"/>
  <path d="M17.62,20.34l-15.28-.35,15.28-.35L3.04,15.07l14.76,3.94L5.14,10.53l13.04,7.9L8.43,6.78l10.28,11.2-6.05-13.9,6.66,13.62-1.82-15.02,2.51,14.93,2.51-14.93-1.82,15.02,6.66-13.62-6.05,13.9,10.28-11.2-9.75,11.66,13.04-7.9-12.66,8.47,14.76-3.94-14.57,4.58,15.28.35-15.28.35,14.57,4.58-14.76-3.94,12.66,8.47-13.04-7.9,9.75,11.66-10.28-11.2,6.05,13.9-6.66-13.62,1.82,15.02-2.51-14.93-2.51,14.93,1.82-15.02-6.66,13.62,6.05-13.9-10.28,11.2,9.75-11.66-13.04,7.9,12.66-8.47-14.76,3.94,14.57-4.58ZM11.3,25.53l7.63-4.62-5.71,6.82,6.01-6.56-3.54,8.13,3.9-7.97-1.07,8.79,1.47-8.74,1.47,8.74-1.07-8.79,3.9,7.97-3.54-8.13,6.01,6.56-5.71-6.82,7.63,4.62-7.41-4.96,8.64,2.3-8.53-2.68,8.94-.2-8.94-.21,8.53-2.68-8.64,2.3,7.41-4.96-7.63,4.62,5.7-6.82-6.01,6.56,3.54-8.13-3.9,7.97,1.07-8.79-1.47,8.74-1.47-8.74,1.07,8.79-3.9-7.97,3.54,8.13-6.01-6.56,5.71,6.82-7.63-4.62,7.41,4.96-8.64-2.3,8.53,2.68-8.94.21,8.94.2-8.53,2.68,8.64-2.3-7.41,4.96Z" fill="#cc261c"/>
</svg>