<?xml version="1.0" encoding="UTF-8"?>
<svg id="a" data-name="图层 1" xmlns="http://www.w3.org/2000/svg" width="400.21" height="400.07" viewBox="0 0 400.21 400.07">
  <path d="M199.66,400.07l-9.44-132.24-46.63,124.28-.96-.28,28.78-129.47-80.18,106.2-.84-.54,64.37-116.24-107.04,79.67-.65-.76,94.77-93.65-125.4,46.51-.41-.91,117.68-63.23L.17,228.97l-.14-.99,130.87-28.04L0,172.06l.14-.99,133.55,9.69L16.12,117.32l.41-.91,125.36,46.62L47.07,69.43l.65-.76,107.13,79.55L90.41,32.02l.84-.54,80.09,106.26L142.8,8.22l.96-.28,46.52,124.33L199.55,0h1s9.44,132.24,9.44,132.24L256.62,7.96l.96.28-28.79,129.47,80.18-106.19.84.54-64.37,116.24,107.04-79.67.65.76-94.77,93.65,125.4-46.52.41.91-117.68,63.23,133.56-9.56.14.99-130.87,28.04,130.9,27.88-.14.99-133.55-9.69,117.57,63.45-.41.91-125.36-46.62,94.82,93.59-.65.76-107.13-79.55,64.44,116.21-.84.54-80.09-106.26,28.54,129.52-.96.28-46.52-124.33-9.28,132.26h-1ZM190.89,263.19l9.27,129.76,9.11-129.8,45.65,122.01-28.01-127.09,78.55,104.21-63.21-114,105.12,78.06-93.07-91.86,122.99,45.73-115.34-62.25,130.95,9.5-128.38-27.34,128.45-27.52-131.08,9.39,115.42-62.02-122.96,45.61,92.99-91.88-105.02,78.17,63.18-114.1-78.68,104.21,28.24-127.01-45.74,121.9L200.05,7.12l-9.11,129.8L145.29,14.91l28.01,127.09L94.76,37.79l63.21,114L52.84,73.73l93.07,91.86L22.92,119.85l115.34,62.25L7.31,172.6l128.38,27.34L7.24,227.46l131.08-9.39-115.42,62.02,122.96-45.61-92.99,91.88,105.02-78.17-63.19,114.09,78.68-104.21-28.24,127.01,45.74-121.9Z" fill="#681218"/>
  <path d="M223.97,368.25l-23.87-102.72-23.86,102.72-.99-.14,6.17-105.21-52.19,91.85-.9-.42,36.03-99.16-76.27,73.54-.75-.66,62.73-85.14-94.03,49.41-.54-.84,84.36-64.25-104.29,21.11-.28-.96,99.29-37.97-106.06-8.89v-1l106.06-8.9-99.29-37.97.28-.96,104.29,21.11L55.51,108.58l.54-.84,94.03,49.41-62.73-85.14.75-.66,76.27,73.54-36.03-99.16.9-.42,52.19,91.85-6.17-105.21.99-.14,23.86,102.72,23.87-102.72.99.14-6.18,105.21,52.19-91.85.9.42-36.02,99.16,76.26-73.54.75.66-62.73,85.14,94.03-49.41.54.84-84.35,64.25,104.28-21.11.28.96-99.29,37.97,106.06,8.9v1l-106.06,8.89,99.29,37.97-.28.96-104.28-21.11,84.36,64.25-.54.84-94.03-49.41,62.72,85.14-.75.66-76.26-73.54,36.03,99.16-.9.42-52.2-91.85,6.18,105.21-.99.14ZM200.1,261.12l23.51,101.18-6.09-103.62,51.39,90.43-35.48-97.64,75.11,72.43-61.79-83.88,92.59,48.65-83.08-63.27,102.64,20.78-97.75-37.38,104.49-8.76-104.48-8.77,97.75-37.38-102.64,20.78,83.07-63.27-92.59,48.66,61.8-83.88-75.11,72.43,35.47-97.64-51.38,90.43,6.09-103.62-23.51,101.18-23.5-101.18,6.08,103.62-51.38-90.43,35.48,97.64-75.12-72.43,61.8,83.88-92.59-48.65,83.08,63.27-102.65-20.78,97.75,37.38-104.48,8.77,104.49,8.76-97.75,37.38,102.65-20.78-83.08,63.27,92.59-48.65-61.8,83.88,75.12-72.43-35.48,97.64,51.38-90.42-6.08,103.62,23.5-101.18Z" fill="#9d2324"/>
  <path d="M224.05,369.03l-23.95-142.7-23.95,142.7-.99-.14,17.42-143.63-63.69,130.2-.91-.42,57.8-132.85-98.22,107.11-.75-.66,93.18-111.41-124.61,75.54-.54-.84,121.05-81-141.08,37.64-.28-.96,139.26-43.74-146.07-3.33v-1l146.07-3.34-139.26-43.73.28-.96,141.08,37.64L54.85,108.15l.54-.84,124.61,75.53-93.18-111.41.75-.66,98.22,107.11L127.99,45.03l.91-.42,63.69,130.2-17.42-143.63.99-.14,23.95,142.7,23.95-142.7.99.14-17.42,143.63,63.69-130.2.91.42-57.8,132.85,98.22-107.11.75.66-93.18,111.41,124.61-75.53.54.84-121.05,81,141.08-37.64.28.96-139.26,43.73,146.07,3.34v1l-146.07,3.33,139.26,43.74-.28.96-141.08-37.64,121.05,81-.54.84-124.61-75.53,93.18,111.41-.75.66-98.22-107.1,57.81,132.85-.91.42-63.69-130.2,17.42,143.63-.99.14ZM194.3,219.49l-15.49,127.72,21.3-126.93,21.3,126.93-15.49-127.72,56.42,115.35-51.23-117.72,87.45,95.35-82.98-99.21,110.67,67.08-107.5-71.93,124.74,33.28-123.16-38.68,130.23-2.97-130.23-2.97,123.16-38.68-124.74,33.28,107.5-71.93-110.67,67.08,82.98-99.21-87.45,95.35,51.22-117.73-56.42,115.35,15.49-127.72-21.3,126.93-21.3-126.93,15.49,127.72-56.42-115.35,51.22,117.72-87.45-95.35,82.98,99.21-110.67-67.08,107.5,71.93-124.74-33.28,123.16,38.68-130.23,2.97,130.23,2.97-123.16,38.68,124.74-33.28-107.5,71.93,110.67-67.08-82.98,99.21,87.45-95.36-51.22,117.72,56.42-115.35Z" fill="#cc261c"/>
</svg>