<?xml version="1.0" encoding="UTF-8"?>
<svg id="_图层_1" data-name="图层 1" xmlns="http://www.w3.org/2000/svg" viewBox="0 0 113.49 113.42">
  <defs>
    <style>
      .cls-1 {
        fill: #9d2324;
      }

      .cls-2 {
        fill: #cc261c;
      }

      .cls-3 {
        fill: #681218;
      }
    </style>
  </defs>
  <path class="cls-3" d="M56.51,113.42l-2.64-36.99-13.04,34.77-.48-.14,8.05-36.21-22.43,29.7-.42-.27,18-32.51-29.94,22.28-.33-.38,26.51-26.19-35.07,13.01-.21-.46,32.91-17.68L.08,65.02l-.07-.49,36.6-7.84L0,48.89l.07-.49,37.35,2.71L4.54,33.36l.21-.45,35.06,13.04L13.29,19.77l.32-.38,29.97,22.25L25.56,9.14l.42-.27,22.4,29.72L40.39,2.36l.48-.14,13.01,34.78L56.48,0h.5l2.64,36.99L72.66,2.23l.48.14-8.05,36.21,22.43-29.71.42.27-18,32.51,29.94-22.28.33.38-26.51,26.19,35.07-13.01.21.45-32.91,17.68,37.35-2.67.07.49-36.6,7.84,36.61,7.8-.07.49-37.35-2.71,32.88,17.74-.21.45-35.06-13.04,26.52,26.18-.33.38-29.97-22.25,18.02,32.5-.42.27-22.4-29.72,7.98,36.23-.48.14-13.01-34.78-2.6,36.99h-.5ZM54.21,74.11l2.55,35.75,2.51-35.77,12.58,33.62-7.72-35.01,21.63,28.7-17.41-31.4,28.96,21.51-25.64-25.31,33.88,12.6-31.77-17.14,36.06,2.62-35.35-7.53,35.39-7.58-36.12,2.59,31.78-17.08-33.86,12.56,25.61-25.31-28.93,21.53,17.41-31.44-21.68,28.71,7.78-34.98-12.6,33.57-2.55-35.75-2.51,35.77L41.64,5.71l7.72,35.02L27.73,12.02l17.41,31.4-28.96-21.51,25.64,25.31L7.94,34.63l31.77,17.14-36.05-2.62,35.35,7.53-35.39,7.58,36.12-2.59-31.78,17.08,33.86-12.56-25.61,25.31,28.93-21.53-17.41,31.44,21.68-28.71-7.78,34.98,12.6-33.57Z"/>
  <path class="cls-1" d="M63.41,104.42l-6.66-28.66-6.66,28.66-.49-.07,1.72-29.36-14.56,25.63-.45-.21,10.05-27.67-21.28,20.52-.37-.33,17.5-23.76-26.24,13.79-.27-.42,23.54-17.93-29.1,5.89-.14-.48,27.7-10.59-29.59-2.48v-.5l29.59-2.48-27.7-10.59.14-.48,29.1,5.89L15.69,30.87l.27-.42,26.24,13.79-17.5-23.76.37-.33,21.28,20.52-10.05-27.67.45-.21,14.56,25.63-1.72-29.36.49-.07,6.66,28.66,6.66-28.66.49.07-1.73,29.36,14.56-25.63.45.21-10.05,27.67,21.28-20.52.38.33-17.5,23.76,26.24-13.79.27.42-23.54,17.93,29.1-5.89.14.48-27.7,10.59,29.59,2.48v.5l-29.59,2.48,27.7,10.59-.14.48-29.1-5.89,23.54,17.93-.27.42-26.24-13.79,17.5,23.76-.38.33-21.28-20.52,10.05,27.67-.45.21-14.57-25.63,1.73,29.36-.49.07ZM51.94,72.88l-1.68,28.56,6.48-27.89,6.48,27.89-1.68-28.56,14.16,24.92-9.78-26.91,20.71,19.97-17.03-23.12,25.52,13.41-22.9-17.44,28.28,5.72-26.93-10.3,28.8-2.41-28.8-2.42,26.93-10.3-28.28,5.73,22.9-17.44-25.52,13.41,17.04-23.12-20.71,19.97,9.78-26.91-14.16,24.92,1.68-28.56-6.48,27.89-6.48-27.89,1.68,28.56-14.16-24.92,9.78,26.91-20.71-19.97,17.04,23.13-25.52-13.41,22.9,17.44-28.28-5.73,26.93,10.3-28.8,2.42,28.8,2.41-26.93,10.3,28.28-5.73-22.9,17.44,25.52-13.41-17.04,23.12,20.71-19.97-9.78,26.91,14.16-24.92Z"/>
  <path class="cls-2" d="M63.43,104.63l-6.68-39.81-6.68,39.81-.49-.07,4.86-40.08-17.77,36.33-.45-.21,16.13-37.06-27.41,29.88-.38-.33,25.99-31.08-34.77,21.07-.27-.42,33.77-22.6-39.36,10.5-.14-.48,38.85-12.2-40.75-.93v-.5l40.75-.93-38.85-12.2.14-.48,39.36,10.5L15.51,30.75l.27-.42,34.77,21.07-26-31.08.38-.33,27.41,29.88L36.21,12.81l.45-.21,17.77,36.33-4.86-40.08.49-.07,6.68,39.82,6.68-39.82.49.07-4.86,40.08,17.77-36.33.45.21-16.13,37.06,27.41-29.88.38.33-26,31.08,34.77-21.07.27.42-33.77,22.6,39.36-10.5.14.48-38.85,12.2,40.75.93v.5l-40.75.93,38.85,12.2-.14.48-39.36-10.5,33.77,22.6-.27.42-34.77-21.07,26,31.08-.38.33-27.41-29.88,16.13,37.06-.45.21-17.77-36.33,4.86,40.08-.49.07ZM55.28,61.6l-3.9,32.12,5.36-31.93,5.36,31.93-3.9-32.12,14.14,28.91-12.84-29.5,22.02,24.01-20.89-24.98,27.8,16.85-27-18.07,31.19,8.32-30.8-9.67,32.83-.75-32.83-.75,30.8-9.67-31.19,8.32,27-18.07-27.8,16.85,20.89-24.98-22.02,24.01,12.84-29.5-14.14,28.91,3.9-32.12-5.36,31.93-5.36-31.93,3.9,32.12-14.14-28.9,12.84,29.5-22.02-24.01,20.9,24.98-27.79-16.85,27,18.06-31.19-8.32,30.8,9.67-32.83.75,32.83.75-30.8,9.67,31.19-8.32-27,18.07,27.79-16.85-20.89,24.98,22.02-24.01-12.84,29.5,14.14-28.91Z"/>
</svg>