<?xml version="1.0" encoding="UTF-8"?>
<svg id="a" data-name="图层 1" xmlns="http://www.w3.org/2000/svg" width="40" height="39.91" viewBox="0 0 40 39.91">
  <g>
    <g id="b" data-name="&amp;lt;径向重复&amp;gt;">
      <path d="M10.43,29.93c-.24,0-.47-.09-.64-.26-.18-.18-.28-.43-.27-.69.02-.26.14-.5.35-.65l4.85-3.72c.06-.05.15-.04.21.01.06.06.06.14.01.21l-3.79,4.76c-.16.2-.4.33-.66.34-.02,0-.04,0-.06,0ZM14.63,24.91l-4.65,3.57c-.16.13-.26.31-.28.52-.01.2.06.4.21.54.15.14.35.22.56.21.21-.01.4-.11.53-.27l3.63-4.56Z" fill="#f8ca78"/>
    </g>
    <g id="c" data-name="&amp;lt;径向重复&amp;gt;">
      <path d="M7.94,26.57c-.08,0-.16,0-.23-.03-.25-.06-.46-.23-.58-.46s-.13-.49-.04-.73c.09-.24.29-.43.54-.52l5.78-2.07c.07-.03.16,0,.19.08.04.07.02.16-.05.2l-5.1,3.38c-.15.1-.33.15-.51.15ZM13.23,23.03l-5.54,1.98c-.2.07-.35.22-.43.41-.07.19-.06.4.03.58h0c.09.18.26.31.46.36.2.05.42.02.59-.1l4.88-3.23Z" fill="#f8ca78"/>
    </g>
    <g id="d" data-name="&amp;lt;径向重复&amp;gt;">
      <path d="M6.63,22.61c-.17,0-.35-.05-.5-.14-.22-.14-.36-.36-.4-.61h0c-.04-.25.03-.51.19-.7.17-.2.41-.32.68-.33l6.15-.21c.08,0,.15.05.16.13.01.08-.03.15-.11.17l-5.92,1.67c-.08.02-.17.03-.25.03ZM12.49,20.81l-5.89.2c-.21,0-.41.1-.54.26-.13.16-.18.36-.15.56h0c.03.2.15.37.32.48.18.11.39.14.6.09l5.66-1.59ZM12.75,20.8h0,0Z" fill="#f8ca78"/>
    </g>
    <g id="e" data-name="&amp;lt;径向重复&amp;gt;">
      <path d="M12.75,18.67s0,0,0,0l-6.15-.21c-.26,0-.51-.13-.68-.33-.16-.2-.23-.45-.19-.7.04-.25.19-.47.4-.61.22-.14.49-.18.75-.11l5.92,1.67c.08.02.12.1.11.17-.01.08-.08.13-.15.13ZM6.63,16.85c-.14,0-.28.04-.4.12-.17.11-.29.29-.32.48h0c-.03.2.02.4.15.56.13.16.33.26.54.26l5.89.2-5.66-1.59c-.07-.02-.13-.03-.2-.03Z" fill="#f8ca78"/>
    </g>
    <g id="f" data-name="&amp;lt;径向重复&amp;gt;">
      <path d="M13.46,16.52s-.04,0-.05,0l-5.78-2.07c-.25-.09-.44-.28-.54-.52-.09-.24-.08-.5.04-.73h0c.12-.23.33-.39.58-.46.25-.07.52-.02.74.12l5.1,3.38c.07.04.09.13.05.2-.03.05-.08.08-.14.08ZM7.29,13.28h0c-.09.18-.1.39-.03.58.08.19.23.34.43.41l5.54,1.98-4.88-3.23c-.17-.11-.39-.15-.59-.1-.2.05-.37.18-.46.36Z" fill="#f8ca78"/>
    </g>
    <g id="g" data-name="&amp;lt;径向重复&amp;gt;">
      <path d="M14.81,14.7s-.07-.01-.1-.03l-4.85-3.72c-.21-.16-.33-.4-.35-.65-.02-.26.08-.51.27-.69s.44-.28.7-.26c.26.02.5.14.66.34l3.79,4.76c.05.06.04.15-.01.21-.03.03-.07.05-.11.05ZM9.85,9.67l.07.07c-.15.14-.22.34-.21.54.01.2.11.39.28.52l4.65,3.57-3.63-4.56c-.13-.16-.32-.26-.53-.27-.21-.01-.41.06-.56.21l-.07-.07Z" fill="#f8ca78"/>
    </g>
    <g id="h" data-name="&amp;lt;径向重复&amp;gt;">
      <path d="M16.67,13.37c-.05,0-.1-.02-.13-.07l-3.44-5.01c-.15-.21-.19-.48-.13-.72.06-.25.24-.46.47-.58h0c.23-.12.51-.13.75-.03.24.09.43.29.52.53l2.11,5.68c.03.07,0,.16-.08.19-.02.01-.05.02-.07.02ZM16.64,13.23s0,0,0,0h0ZM13.52,7.16c-.19.09-.32.26-.37.46-.05.2-.01.4.1.57l3.3,4.8-2.02-5.44c-.07-.19-.22-.34-.41-.42-.2-.08-.41-.07-.6.03h0Z" fill="#f8ca78"/>
    </g>
    <g id="i" data-name="&amp;lt;径向重复&amp;gt;">
      <path d="M18.85,12.68c-.07,0-.13-.04-.15-.11l-1.7-5.81c-.07-.24-.03-.51.1-.72.14-.22.37-.37.63-.41h0c.26-.04.53.03.73.2.2.16.32.4.32.66l.22,6.04c0,.08-.05.15-.13.16,0,0-.02,0-.03,0ZM17.88,5.8s-.08,0-.11,0h0c-.21.03-.39.15-.5.33-.11.17-.14.38-.08.57l1.63,5.57-.21-5.79c0-.2-.1-.39-.26-.52-.13-.11-.3-.17-.47-.17Z" fill="#f8ca78"/>
    </g>
    <g id="j" data-name="&amp;lt;径向重复&amp;gt;">
      <path d="M21.15,12.68s-.02,0-.02,0c-.08-.01-.13-.08-.13-.16l.22-6.04c0-.25.13-.49.32-.66.2-.17.47-.24.73-.2.26.04.49.19.63.41.14.22.17.48.1.72l-1.7,5.81c-.02.07-.08.11-.15.11ZM21.12,12.51h0s0,0,0,0ZM22.12,5.8c-.17,0-.34.06-.47.17-.16.13-.25.32-.26.52l-.21,5.79,1.63-5.57c.06-.19.03-.4-.08-.57-.11-.17-.29-.29-.5-.33h0s-.08,0-.11,0Z" fill="#f8ca78"/>
    </g>
    <g id="k" data-name="&amp;lt;径向重复&amp;gt;">
      <path d="M23.33,13.37s-.05,0-.07-.02c-.07-.04-.1-.12-.08-.19l2.11-5.68c.09-.24.28-.43.52-.53.24-.1.52-.08.75.03h0c.23.12.41.33.47.58.06.25.02.51-.13.72l-3.44,5.01s-.08.07-.13.07ZM26.15,7.08c-.09,0-.18.02-.27.05-.19.08-.34.23-.41.42l-2.02,5.44,3.3-4.8c.11-.17.15-.37.1-.57-.05-.2-.19-.37-.37-.46h0c-.1-.05-.22-.08-.33-.08Z" fill="#f8ca78"/>
    </g>
    <g id="l" data-name="&amp;lt;径向重复&amp;gt;">
      <path d="M25.19,14.7s-.08-.02-.11-.04c-.06-.06-.06-.14-.01-.21l3.79-4.76c.16-.2.4-.33.66-.34.26-.02.52.08.7.26.18.18.28.43.27.69-.02.26-.14.5-.35.65l-4.85,3.72s-.06.03-.1.03ZM29.57,9.53s-.03,0-.05,0c-.21.01-.4.11-.53.27l-3.63,4.56,4.65-3.57c.16-.13.26-.31.28-.52.01-.2-.06-.4-.21-.54h0c-.14-.13-.32-.21-.51-.21Z" fill="#f8ca78"/>
    </g>
    <g id="m" data-name="&amp;lt;径向重复&amp;gt;">
      <path d="M26.54,16.52c-.06,0-.11-.03-.14-.08-.04-.07-.02-.16.05-.2l5.1-3.38c.22-.14.49-.19.74-.12.25.06.46.23.58.46.12.23.13.49.04.73-.09.24-.29.43-.54.52l-5.78,2.07s-.04,0-.05,0ZM32.06,12.89c-.14,0-.28.04-.41.12l-4.88,3.23,5.54-1.98c.2-.07.35-.22.43-.41.07-.19.06-.4-.03-.58h0c-.09-.18-.26-.31-.46-.36-.06-.02-.12-.02-.19-.02Z" fill="#f8ca78"/>
    </g>
    <g id="n" data-name="&amp;lt;径向重复&amp;gt;">
      <path d="M27.25,18.67c-.08,0-.14-.06-.15-.13-.01-.08.03-.15.11-.17l5.92-1.67c.25-.07.53-.03.75.11.22.14.36.36.4.61.04.25-.03.51-.19.7-.17.2-.41.32-.68.33l-6.15.21s0,0,0,0ZM27.25,18.48h0,0ZM33.37,16.85c-.07,0-.13,0-.2.03l-5.66,1.59,5.89-.2c.21,0,.41-.1.54-.26.13-.16.18-.36.15-.56h0c-.03-.2-.15-.37-.32-.48-.12-.08-.26-.12-.4-.12Z" fill="#f8ca78"/>
    </g>
    <g id="o" data-name="&amp;lt;径向重复&amp;gt;">
      <path d="M33.37,22.61c-.08,0-.17-.01-.25-.03l-5.92-1.67c-.08-.02-.12-.1-.11-.17.01-.08.08-.14.16-.13l6.15.21c.26,0,.51.13.68.33.16.2.23.45.19.7h0c-.04.25-.19.47-.4.61-.15.1-.32.14-.5.14ZM27.51,20.81l5.66,1.59c.2.06.42.03.6-.09.17-.11.29-.29.32-.48h0c.03-.2-.02-.4-.15-.56-.13-.16-.33-.26-.54-.26l-5.89-.2Z" fill="#f8ca78"/>
    </g>
    <g id="p" data-name="&amp;lt;径向重复&amp;gt;">
      <path d="M32.06,26.57c-.18,0-.36-.05-.51-.15l-5.1-3.38c-.07-.04-.09-.13-.05-.2.04-.07.12-.1.19-.08l5.78,2.07c.25.09.44.28.54.52.09.24.08.5-.04.73-.12.23-.33.39-.58.46-.08.02-.15.03-.23.03ZM26.77,23.03l4.88,3.23c.17.11.39.15.59.1.2-.05.37-.18.46-.36.09-.18.1-.39.03-.58-.08-.19-.23-.34-.43-.41l-5.54-1.98Z" fill="#f8ca78"/>
    </g>
    <g id="q" data-name="&amp;lt;径向重复&amp;gt;">
      <path d="M29.57,29.93s-.04,0-.06,0c-.26-.02-.5-.14-.66-.34l-3.79-4.76c-.05-.06-.04-.15.01-.21.06-.06.14-.06.21-.01l4.85,3.72c.21.16.33.4.35.65.02.26-.08.51-.27.69h0c-.17.17-.4.26-.64.26ZM25.37,24.91l3.63,4.56c.13.16.32.26.53.27.21.01.41-.06.56-.21h0c.15-.14.22-.34.21-.54-.01-.2-.11-.39-.28-.52l-4.65-3.57Z" fill="#f8ca78"/>
    </g>
    <g id="r" data-name="&amp;lt;径向重复&amp;gt;">
      <path d="M26.15,32.38c-.12,0-.23-.02-.34-.06-.24-.09-.43-.29-.52-.53l-2.11-5.68c-.03-.07,0-.16.08-.19.07-.04.16-.01.2.05l3.44,5.01c.15.21.19.48.13.72-.06.25-.24.46-.47.58h0c-.13.06-.27.1-.41.1ZM23.45,26.28l2.02,5.44c.07.19.22.34.41.42.19.08.41.07.6-.03h0c.19-.09.32-.26.37-.46.05-.2.01-.4-.1-.57l-3.3-4.8Z" fill="#f8ca78"/>
    </g>
    <g id="s" data-name="&amp;lt;径向重复&amp;gt;">
      <path d="M22.12,33.66c-.21,0-.42-.07-.59-.21-.2-.16-.32-.4-.32-.66l-.22-6.04c0-.08.05-.15.13-.16.08-.01.15.03.17.11l1.7,5.81c.07.24.03.51-.1.72-.14.22-.37.37-.63.41h0s-.1.01-.14.01ZM21.19,27l.21,5.79c0,.2.1.39.26.52.16.13.37.19.58.16h0c.21-.03.39-.15.5-.33.11-.17.14-.38.08-.57l-1.63-5.57Z" fill="#f8ca78"/>
    </g>
    <g id="t" data-name="&amp;lt;径向重复&amp;gt;">
      <path d="M17.88,33.66s-.1,0-.14-.01h0c-.26-.04-.49-.19-.63-.41-.14-.22-.17-.48-.1-.72l1.7-5.81c.02-.08.1-.12.17-.11.08.01.14.08.13.16l-.22,6.04c0,.25-.13.49-.32.66-.17.14-.37.21-.59.21ZM17.77,33.47c.21.03.42-.03.58-.16.16-.13.25-.32.26-.52l.21-5.79-1.63,5.57c-.06.19-.03.4.08.57.11.17.29.29.5.33h0Z" fill="#f8ca78"/>
    </g>
    <g id="u" data-name="&amp;lt;径向重复&amp;gt;">
      <path d="M13.85,32.38c-.14,0-.28-.03-.41-.1h0c-.23-.12-.41-.33-.47-.58-.06-.25-.02-.51.13-.72l3.44-5.01c.04-.06.13-.09.2-.05.07.04.1.12.08.19l-2.11,5.68c-.09.24-.28.43-.52.53-.11.04-.22.06-.34.06ZM16.55,26.28l-3.3,4.8c-.11.17-.15.37-.1.57.05.2.19.37.37.46h0c.19.09.41.1.6.03.19-.08.34-.23.41-.42l2.02-5.44Z" fill="#f8ca78"/>
    </g>
  </g>
  <g>
    <g id="v" data-name="&amp;lt;径向重复&amp;gt;">
      <path d="M16.76,23.13c-.08,0-.16-.03-.22-.09h0c-.06-.06-.1-.15-.09-.24,0-.09.05-.17.12-.23l1.64-1.26s.06-.02.08,0c.02.02.02.06,0,.08l-1.28,1.61c-.06.07-.14.11-.23.12,0,0-.01,0-.02,0ZM16.59,22.98s.11.07.18.07c.07,0,.13-.04.17-.09l1.19-1.5-1.53,1.17c-.05.04-.09.1-.09.17,0,.07.02.13.07.18h0Z" fill="#ef8026"/>
    </g>
    <g id="w" data-name="&amp;lt;径向重复&amp;gt;">
      <path d="M15.92,21.99s-.05,0-.08-.01c-.09-.02-.16-.08-.2-.16h0c-.04-.08-.05-.17-.01-.25.03-.08.1-.15.19-.18l1.96-.7s.06,0,.07.03c.01.03,0,.06-.02.08l-1.73,1.14c-.05.03-.11.05-.18.05ZM15.71,21.78c.03.06.09.1.15.12.07.02.14,0,.19-.03l1.6-1.06-1.82.65c-.06.02-.12.07-.14.14-.02.06-.02.13.01.19h0Z" fill="#ef8026"/>
    </g>
    <g id="x" data-name="&amp;lt;径向重复&amp;gt;">
      <path d="M15.48,20.65c-.06,0-.12-.02-.17-.05-.07-.05-.13-.13-.14-.21s.01-.18.07-.24c.06-.07.14-.11.23-.12l2.08-.07h0s.05.02.06.05c0,.03-.01.06-.04.07l-2,.56s-.06.01-.09.01ZM17.4,20.04l-1.93.07c-.07,0-.13.03-.18.09-.04.05-.06.12-.05.18.01.06.05.12.11.16.06.04.13.05.2.03l1.86-.52Z" fill="#ef8026"/>
    </g>
    <g id="y" data-name="&amp;lt;径向重复&amp;gt;">
      <path d="M17.55,19.32h0l-2.08-.07c-.09,0-.18-.05-.23-.12-.06-.07-.08-.16-.07-.24.01-.09.06-.16.14-.21.08-.05.17-.06.26-.04l2,.56s.05.04.04.07c0,.03-.03.05-.06.05ZM15.48,18.7s-.09.01-.13.04c-.06.04-.09.09-.11.16-.01.07,0,.13.05.18.04.05.11.08.18.09l1.93.07-1.86-.52s-.04,0-.07,0Z" fill="#ef8026"/>
    </g>
    <g id="z" data-name="&amp;lt;径向重复&amp;gt;">
      <path d="M17.79,18.59s-.01,0-.02,0l-1.96-.7c-.09-.03-.15-.1-.19-.18-.03-.08-.03-.17.01-.25s.11-.14.2-.16c.09-.02.18,0,.26.04l1.73,1.14s.03.05.02.08c-.01.02-.03.03-.05.03ZM17.78,18.55s0,0,0,0h0ZM15.92,17.36s-.04,0-.06,0c-.07.02-.12.06-.15.12-.03.06-.03.13-.01.19.02.06.08.11.14.14l1.82.65-1.6-1.06s-.09-.04-.13-.04Z" fill="#ef8026"/>
    </g>
    <g id="aa" data-name="&amp;lt;径向重复&amp;gt;">
      <path d="M18.24,17.97s-.03,0-.04-.01l-1.64-1.26c-.07-.05-.12-.14-.12-.23,0-.09.03-.18.09-.24h0c.06-.06.15-.1.24-.09.09,0,.17.05.23.12l1.28,1.61s.02.06,0,.08c-.01.01-.03.02-.04.02ZM16.76,16.22c-.06,0-.12.02-.17.07h0s-.07.11-.07.18c0,.07.04.13.09.17l1.53,1.17-1.19-1.5c-.04-.05-.1-.09-.17-.09,0,0,0,0-.01,0Z" fill="#ef8026"/>
    </g>
    <g id="ab" data-name="&amp;lt;径向重复&amp;gt;">
      <path d="M18.87,17.52s-.04,0-.05-.03l-1.16-1.69c-.05-.07-.07-.16-.04-.25.02-.09.08-.16.16-.2h0c.08-.04.18-.04.26-.01.08.03.15.1.18.18l.71,1.92s0,.06-.03.07c0,0-.02,0-.03,0ZM17.92,15.4s-.07,0-.11.03h0c-.06.03-.11.09-.12.15-.02.06,0,.13.03.19l1.08,1.58-.66-1.79c-.02-.06-.07-.11-.13-.14-.03-.01-.06-.02-.09-.02Z" fill="#ef8026"/>
    </g>
    <g id="ac" data-name="&amp;lt;径向重复&amp;gt;">
      <path d="M19.61,17.29s-.05-.02-.06-.04l-.57-1.97c-.02-.08-.01-.18.04-.25.05-.08.13-.13.22-.14h0c.09-.01.18.01.25.07.07.06.11.14.11.23l.07,2.04s-.02.06-.05.06c0,0,0,0,0,0ZM19.25,14.97c-.07.01-.13.05-.16.11-.04.06-.05.12-.03.19l.53,1.83-.07-1.9c0-.07-.03-.13-.08-.17-.05-.04-.12-.06-.19-.05h0Z" fill="#ef8026"/>
    </g>
    <g id="ad" data-name="&amp;lt;径向重复&amp;gt;">
      <path d="M20.39,17.29s0,0,0,0c-.03,0-.05-.03-.05-.06l.07-2.04c0-.09.04-.17.11-.23.07-.06.16-.08.25-.07h0c.09.01.17.07.22.14.05.07.06.17.04.25l-.57,1.96s-.03.04-.06.04ZM20.72,14.96c-.06,0-.11.02-.15.05-.05.04-.08.1-.08.17l-.07,1.9.53-1.83c.02-.06,0-.13-.03-.19-.04-.06-.1-.1-.16-.11h0s-.03,0-.04,0Z" fill="#ef8026"/>
    </g>
    <g id="ae" data-name="&amp;lt;径向重复&amp;gt;">
      <path d="M21.13,17.52s-.02,0-.03,0c-.03-.01-.04-.04-.03-.07l.71-1.92c.03-.08.1-.15.18-.18.08-.03.18-.03.26.01h0c.08.04.14.11.16.2.02.09,0,.18-.04.25l-1.16,1.69s-.03.03-.05.03ZM22.08,15.4s-.06,0-.09.02c-.06.02-.11.07-.13.14l-.66,1.79,1.08-1.58c.04-.05.05-.12.03-.19-.02-.07-.06-.12-.12-.15h0s-.07-.03-.11-.03Z" fill="#ef8026"/>
    </g>
    <g id="af" data-name="&amp;lt;径向重复&amp;gt;">
      <path d="M21.76,17.97s-.03,0-.04-.02c-.02-.02-.02-.06,0-.08l1.28-1.61c.06-.07.14-.11.23-.12.09,0,.18.03.24.09h0c.06.06.1.15.09.24,0,.09-.05.17-.12.23l-1.64,1.26s-.02.01-.04.01ZM21.75,17.9s0,0,0,0h0ZM23.24,16.22s0,0-.01,0c-.07,0-.13.04-.17.09l-1.19,1.5,1.53-1.17c.05-.04.09-.1.09-.17,0-.07-.02-.13-.07-.18h0s-.11-.07-.17-.07Z" fill="#ef8026"/>
    </g>
    <g id="ag" data-name="&amp;lt;径向重复&amp;gt;">
      <path d="M22.21,18.59s-.04-.01-.05-.03c-.01-.03,0-.06.02-.08l1.73-1.14c.08-.05.17-.07.26-.04.09.02.16.08.2.16h0c.04.08.05.17.01.25-.03.08-.1.15-.19.18l-1.96.7s-.01,0-.02,0ZM24.08,17.36s-.09.01-.13.04l-1.6,1.06,1.82-.65c.06-.02.12-.07.14-.14.02-.06.02-.13,0-.19h0c-.03-.06-.09-.1-.15-.12-.02,0-.04,0-.06,0Z" fill="#ef8026"/>
    </g>
    <g id="ah" data-name="&amp;lt;径向重复&amp;gt;">
      <path d="M22.45,19.32s-.05-.02-.06-.05c0-.03.01-.06.04-.07l2-.56c.09-.02.18-.01.26.04.07.05.13.13.14.21s-.01.18-.07.24c-.06.07-.14.11-.23.12l-2.08.07h0ZM24.52,18.7s-.04,0-.07,0l-1.86.52,1.93-.07c.07,0,.13-.03.18-.09.04-.05.06-.12.05-.18-.01-.06-.05-.12-.11-.16-.04-.02-.08-.04-.13-.04Z" fill="#ef8026"/>
    </g>
    <g id="ai" data-name="&amp;lt;径向重复&amp;gt;">
      <path d="M24.52,20.65s-.06,0-.09-.01l-2-.56s-.05-.04-.04-.07c0-.03.03-.05.06-.05h0l2.08.07c.09,0,.18.05.23.12.06.07.08.16.07.24h0c-.01.09-.06.16-.14.21-.05.03-.11.05-.17.05ZM22.6,20.04l1.86.52c.07.02.14,0,.2-.03.06-.04.09-.09.11-.16h0c.01-.07,0-.13-.05-.18-.04-.05-.11-.08-.18-.09l-1.93-.07ZM22.45,20.04h0,0ZM22.46,20h0,0Z" fill="#ef8026"/>
    </g>
    <g id="aj" data-name="&amp;lt;径向重复&amp;gt;">
      <path d="M24.08,21.99c-.06,0-.12-.02-.18-.05l-1.73-1.14s-.03-.05-.02-.08c.01-.03.04-.04.07-.03l1.96.7c.09.03.15.1.19.18.03.08.03.17-.01.25h0c-.04.08-.11.14-.2.16-.03,0-.05.01-.08.01ZM22.34,20.81l1.6,1.06c.06.04.13.05.19.03.07-.02.12-.06.15-.12h0c.03-.06.03-.13.01-.19-.02-.06-.08-.11-.14-.14l-1.82-.65Z" fill="#ef8026"/>
    </g>
    <g id="ak" data-name="&amp;lt;径向重复&amp;gt;">
      <path d="M23.24,23.13s-.01,0-.02,0c-.09,0-.17-.05-.23-.12l-1.28-1.61s-.02-.06,0-.08c.02-.02.06-.02.08,0l1.64,1.26c.07.05.12.14.12.23,0,.09-.03.18-.09.24-.06.06-.14.09-.22.09ZM21.86,21.46l1.19,1.5c.04.05.11.09.17.09.07,0,.14-.02.18-.07h0s.07-.11.07-.18c0-.07-.04-.13-.09-.17l-1.53-1.17Z" fill="#ef8026"/>
    </g>
    <g id="al" data-name="&amp;lt;径向重复&amp;gt;">
      <path d="M22.08,23.96s-.08,0-.12-.02c-.08-.03-.15-.1-.18-.18l-.71-1.92s0-.06.03-.07c.03-.01.06,0,.08.02l1.16,1.69c.05.07.07.16.04.25-.02.09-.08.16-.16.2h0s-.09.03-.14.03ZM21.19,21.94l.66,1.79c.02.06.07.11.13.14.06.03.14.02.2,0h0c.06-.03.11-.09.12-.15.02-.06,0-.13-.03-.19l-1.08-1.58ZM21.14,21.8h0s0,0,0,0Z" fill="#ef8026"/>
    </g>
    <g id="am" data-name="&amp;lt;径向重复&amp;gt;">
      <path d="M20.72,24.39c-.07,0-.15-.03-.2-.07-.07-.06-.11-.14-.11-.23l-.07-2.04s.02-.06.05-.06c.03,0,.06.01.07.04l.57,1.97c.02.08.01.18-.04.25-.05.08-.13.13-.22.14h0s-.03,0-.05,0ZM20.41,22.18l.07,1.9c0,.07.03.13.08.17.05.04.12.06.19.05.07-.01.13-.05.16-.11.04-.06.05-.12.03-.19l-.53-1.83Z" fill="#ef8026"/>
    </g>
    <g id="an" data-name="&amp;lt;径向重复&amp;gt;">
      <path d="M19.28,24.39s-.03,0-.05,0h0c-.09-.01-.17-.07-.22-.14-.05-.07-.06-.17-.04-.25l.57-1.96s.04-.05.07-.04c.03,0,.05.03.05.06l-.07,2.04c0,.09-.04.17-.11.23-.06.05-.13.07-.2.07ZM19.25,24.31c.07.01.14,0,.19-.05.05-.04.08-.1.08-.17l.07-1.9-.53,1.83c-.02.06,0,.13.03.19.04.06.1.1.16.11h0ZM19.59,22.04h0s0,0,0,0Z" fill="#ef8026"/>
    </g>
    <g id="ao" data-name="&amp;lt;径向重复&amp;gt;">
      <path d="M17.92,23.95s-.1-.01-.14-.03h0c-.08-.04-.14-.11-.16-.2-.02-.09,0-.18.04-.25l1.16-1.69s.05-.03.08-.02c.03.01.04.04.03.07l-.71,1.92c-.03.08-.1.15-.18.18-.04.01-.08.02-.12.02ZM17.81,23.85c.06.03.13.03.2,0,.06-.02.11-.07.13-.14l.66-1.79-1.08,1.58c-.04.05-.05.12-.03.19.02.07.06.12.12.15h0Z" fill="#ef8026"/>
    </g>
  </g>
  <g>
    <g id="ap" data-name="&amp;lt;径向重复&amp;gt;">
      <path d="M20.57,39.27h-1.14l.48-13.67h.19l.48,13.67ZM19.63,39.09h.75l-.37-10.78-.37,10.78Z" fill="#e9562a"/>
    </g>
    <g id="aq" data-name="&amp;lt;径向重复&amp;gt;">
      <path d="M14.36,38.49l-1.08-.35,4.75-12.86.18.06-3.85,13.14ZM13.52,38.02l.71.23,3.04-10.36-3.75,10.13Z" fill="#e9562a"/>
    </g>
    <g id="ar" data-name="&amp;lt;径向重复&amp;gt;">
      <path d="M8.7,35.85l-.92-.66,8.57-10.79.15.11-7.8,11.33ZM8.05,35.16l.61.43,6.14-8.92-6.75,8.49Z" fill="#e9562a"/>
    </g>
    <g id="as" data-name="&amp;lt;径向重复&amp;gt;">
      <path d="M4.15,31.63l-.67-.91,11.54-7.66.11.15-10.98,8.41ZM3.75,30.77l.44.59,8.64-6.61-9.08,6.02Z" fill="#e9562a"/>
    </g>
    <g id="at" data-name="&amp;lt;径向重复&amp;gt;">
      <path d="M1.16,26.24l-.35-1.07,13.39-3.78.06.18L1.16,26.24ZM1.04,25.3l.23.7,10.29-3.67-10.52,2.97Z" fill="#e9562a"/>
    </g>
    <g id="au" data-name="&amp;lt;径向重复&amp;gt;">
      <path d="M0,20.2v-1.12h.1s13.82.47,13.82.47v.19l-13.92.47ZM.19,19.27v.73l10.93-.37-10.93-.37Z" fill="#e9562a"/>
    </g>
    <g id="av" data-name="&amp;lt;径向重复&amp;gt;">
      <path d="M14.19,17.88L.8,14.1l.35-1.07,13.09,4.67-.06.18ZM1.04,13.98l10.52,2.97L1.27,13.28l-.23.7Z" fill="#e9562a"/>
    </g>
    <g id="aw" data-name="&amp;lt;径向重复&amp;gt;">
      <path d="M15.03,16.21L3.48,8.55l.67-.91,10.98,8.41-.11.15ZM3.75,8.5l9.08,6.02L4.19,7.91l-.44.59Z" fill="#e9562a"/>
    </g>
    <g id="ax" data-name="&amp;lt;径向重复&amp;gt;">
      <path d="M16.35,14.86L7.78,4.08l.92-.66,7.8,11.33-.15.11ZM8.05,4.12l6.75,8.49L8.66,3.69l-.61.43Z" fill="#e9562a"/>
    </g>
    <g id="ay" data-name="&amp;lt;径向重复&amp;gt;">
      <path d="M18.03,13.99L13.28,1.13l1.08-.35.03.09,3.82,13.05-.18.06ZM13.52,1.25l3.75,10.13L14.23,1.03l-.71.23Z" fill="#e9562a"/>
    </g>
    <g id="az" data-name="&amp;lt;径向重复&amp;gt;">
      <path d="M20.09,13.67h-.19l-.48-13.67h1.14v.1s-.48,13.57-.48,13.57ZM19.63.19l.37,10.78.37-10.78h-.75Z" fill="#e9562a"/>
    </g>
    <g id="ba" data-name="&amp;lt;径向重复&amp;gt;">
      <path d="M21.97,13.99l-.18-.06L25.64.79l1.08.35-4.75,12.86ZM25.77,1.03l-3.04,10.36,3.75-10.13-.71-.23Z" fill="#e9562a"/>
    </g>
    <g id="bb" data-name="&amp;lt;径向重复&amp;gt;">
      <path d="M23.65,14.86l-.15-.11,7.8-11.33.92.66-8.57,10.79ZM31.34,3.69l-6.14,8.92,6.75-8.49-.61-.43Z" fill="#e9562a"/>
    </g>
    <g id="bc" data-name="&amp;lt;径向重复&amp;gt;">
      <path d="M24.97,16.21l-.11-.15,10.98-8.41.67.91-11.54,7.66ZM35.81,7.91l-8.64,6.61,9.08-6.02-.44-.59Z" fill="#e9562a"/>
    </g>
    <g id="bd" data-name="&amp;lt;径向重复&amp;gt;">
      <path d="M25.81,17.88l-.06-.18,13.09-4.67.35,1.07-13.39,3.78ZM38.73,13.28l-10.29,3.67,10.52-2.97-.23-.7Z" fill="#e9562a"/>
    </g>
    <g id="be" data-name="&amp;lt;径向重复&amp;gt;">
      <path d="M40,20.2h-.1s-13.82-.47-13.82-.47v-.19l13.92-.47v1.12ZM28.88,19.64l10.93.37v-.73l-10.93.37Z" fill="#e9562a"/>
    </g>
    <g id="bf" data-name="&amp;lt;径向重复&amp;gt;">
      <path d="M38.84,26.24l-13.09-4.67.06-.18,13.39,3.78-.35,1.07ZM28.44,22.33l10.29,3.67.23-.7-10.52-2.97Z" fill="#e9562a"/>
    </g>
    <g id="bg" data-name="&amp;lt;径向重复&amp;gt;">
      <path d="M35.85,31.63l-10.98-8.41.11-.15,11.54,7.66-.67.91ZM27.17,24.75l8.64,6.61.44-.59-9.08-6.02Z" fill="#e9562a"/>
    </g>
    <g id="bh" data-name="&amp;lt;径向重复&amp;gt;">
      <path d="M31.3,35.85l-7.8-11.33.15-.11,8.57,10.79-.92.66ZM25.2,26.67l6.14,8.92.61-.43-6.75-8.49Z" fill="#e9562a"/>
    </g>
    <g id="bi" data-name="&amp;lt;径向重复&amp;gt;">
      <path d="M25.64,38.49l-.03-.09-3.82-13.05.18-.06,4.75,12.86-1.08.35ZM22.73,27.89l3.04,10.36.71-.23-3.75-10.13Z" fill="#e9562a"/>
    </g>
  </g>
</svg>