<?xml version="1.0" encoding="UTF-8"?>
<svg id="_图层_1" data-name="图层 1" xmlns="http://www.w3.org/2000/svg" viewBox="0 0 113.91 113.65">
  <defs>
    <style>
      .cls-1 {
        stroke: #f8cb78;
      }

      .cls-1, .cls-2, .cls-3 {
        fill: none;
        stroke-miterlimit: 10;
      }

      .cls-1, .cls-3 {
        stroke-width: .52px;
      }

      .cls-2 {
        stroke: #f08126;
        stroke-width: .22px;
      }

      .cls-3 {
        stroke: #ea572a;
      }
    </style>
  </defs>
  <g>
    <g id="_径向重复_" data-name="&amp;lt;径向重复&amp;gt;">
      <path class="cls-1" d="M28.04,84.31c-.99-.97-.89-2.57.21-3.42,2.19-1.68,4.38-3.36,6.56-5.03,2.42-1.85,4.83-3.71,7.25-5.56.07-.05.17-.05.24.01.06.06.08.15.01.23l-10.79,13.56c-.86,1.08-2.49,1.18-3.48.21Z"/>
    </g>
    <g id="_径向重复_-2" data-name="&amp;lt;径向重复&amp;gt;">
      <path class="cls-1" d="M20.52,74.15c-.64-1.22-.04-2.72,1.28-3.19,2.61-.93,5.22-1.86,7.83-2.8,2.88-1.03,5.76-2.06,8.64-3.09.08-.03.18,0,.22.09.04.07.03.17-.06.23l-14.53,9.62c-1.16.77-2.74.37-3.38-.86Z"/>
    </g>
    <g id="_径向重复_-3" data-name="&amp;lt;径向重复&amp;gt;">
      <path class="cls-1" d="M16.57,62.2c-.22-1.36.82-2.6,2.22-2.64,2.77-.1,5.55-.19,8.32-.29,3.06-.11,6.13-.21,9.19-.32.09,0,.17.06.18.15.01.08-.03.17-.13.2l-16.85,4.74c-1.35.38-2.72-.48-2.94-1.84Z"/>
    </g>
    <g id="_径向重复_-4" data-name="&amp;lt;径向重复&amp;gt;">
      <path class="cls-1" d="M16.57,49.64c.22-1.36,1.6-2.22,2.94-1.84,2.67.75,5.34,1.5,8.01,2.25,2.95.83,5.89,1.66,8.84,2.49.09.02.14.11.13.2-.01.08-.08.15-.18.15l-17.52-.6c-1.4-.05-2.44-1.29-2.22-2.64Z"/>
    </g>
    <g id="_径向重复_-5" data-name="&amp;lt;径向重复&amp;gt;">
      <path class="cls-1" d="M20.52,37.7c.64-1.22,2.22-1.63,3.38-.86,2.3,1.52,4.6,3.05,6.9,4.57,2.54,1.68,5.08,3.37,7.63,5.05.07.05.1.15.06.23-.04.07-.12.12-.22.09l-16.47-5.89c-1.32-.47-1.91-1.96-1.28-3.19Z"/>
    </g>
    <g id="_径向重复_-6" data-name="&amp;lt;径向重复&amp;gt;">
      <path class="cls-1" d="M28.04,27.53c.99-.97,2.62-.87,3.48.21,1.71,2.15,3.42,4.3,5.13,6.44,1.89,2.37,3.78,4.74,5.66,7.12.06.07.05.17-.01.23-.06.06-.15.08-.24.01l-13.81-10.59c-1.1-.85-1.2-2.45-.21-3.42Z"/>
    </g>
    <g id="_径向重复_-7" data-name="&amp;lt;径向重复&amp;gt;">
      <path class="cls-1" d="M38.39,20.15c1.25-.62,2.77-.04,3.25,1.26.95,2.56,1.9,5.12,2.85,7.68,1.05,2.83,2.1,5.66,3.15,8.49.03.08,0,.18-.09.22-.07.04-.17.03-.23-.06l-9.8-14.27c-.78-1.14-.37-2.69.87-3.32Z"/>
    </g>
    <g id="_径向重复_-8" data-name="&amp;lt;径向重复&amp;gt;">
      <path class="cls-1" d="M50.56,16.27c1.38-.21,2.64.81,2.69,2.18.1,2.72.19,5.45.29,8.17.11,3.01.21,6.02.32,9.03,0,.09-.06.17-.15.18-.08.01-.17-.03-.2-.13l-4.83-16.54c-.39-1.32.49-2.68,1.88-2.89Z"/>
    </g>
    <g id="_径向重复_-9" data-name="&amp;lt;径向重复&amp;gt;">
      <path class="cls-1" d="M63.35,16.27c1.38.21,2.26,1.57,1.88,2.89-.77,2.62-1.53,5.24-2.3,7.86-.84,2.89-1.69,5.79-2.53,8.68-.02.09-.11.14-.2.13-.08-.01-.15-.08-.15-.18l.61-17.2c.05-1.37,1.31-2.39,2.69-2.18Z"/>
    </g>
    <g id="_径向重复_-10" data-name="&amp;lt;径向重复&amp;gt;">
      <path class="cls-1" d="M75.52,20.15c1.25.62,1.66,2.18.87,3.32-1.55,2.26-3.1,4.52-4.66,6.78-1.71,2.5-3.43,4.99-5.14,7.49-.05.07-.15.1-.23.06-.07-.04-.12-.12-.09-.22l6-16.17c.48-1.29,2-1.88,3.25-1.26Z"/>
    </g>
    <g id="_径向重复_-11" data-name="&amp;lt;径向重复&amp;gt;">
      <path class="cls-1" d="M85.87,27.53c.99.97.89,2.57-.21,3.42-2.19,1.68-4.38,3.36-6.56,5.03-2.42,1.85-4.83,3.71-7.25,5.56-.07.05-.17.05-.24-.01-.06-.06-.08-.15-.01-.23l10.79-13.56c.86-1.08,2.49-1.18,3.48-.21Z"/>
    </g>
    <g id="_径向重复_-12" data-name="&amp;lt;径向重复&amp;gt;">
      <path class="cls-1" d="M93.39,37.7c.64,1.22.04,2.72-1.28,3.19-2.61.93-5.22,1.86-7.83,2.8-2.88,1.03-5.76,2.06-8.64,3.09-.08.03-.18,0-.22-.09-.04-.07-.03-.17.06-.23l14.53-9.62c1.16-.77,2.74-.37,3.38.86Z"/>
    </g>
    <g id="_径向重复_-13" data-name="&amp;lt;径向重复&amp;gt;">
      <path class="cls-1" d="M97.34,49.64c.22,1.36-.82,2.6-2.22,2.64-2.77.1-5.55.19-8.32.29-3.06.11-6.13.21-9.19.32-.09,0-.17-.06-.18-.15-.01-.08.03-.17.13-.2l16.85-4.74c1.35-.38,2.72.48,2.94,1.84Z"/>
    </g>
    <g id="_径向重复_-14" data-name="&amp;lt;径向重复&amp;gt;">
      <path class="cls-1" d="M97.34,62.2c-.22,1.36-1.6,2.22-2.94,1.84-2.67-.75-5.34-1.5-8.01-2.25-2.95-.83-5.89-1.66-8.84-2.49-.09-.02-.14-.11-.13-.2.01-.08.08-.15.18-.15l17.52.6c1.4.05,2.44,1.29,2.22,2.64Z"/>
    </g>
    <g id="_径向重复_-15" data-name="&amp;lt;径向重复&amp;gt;">
      <path class="cls-1" d="M93.39,74.15c-.64,1.22-2.22,1.63-3.38.86-2.3-1.52-4.6-3.05-6.9-4.57-2.54-1.68-5.08-3.37-7.63-5.05-.07-.05-.1-.15-.06-.23.04-.07.12-.12.22-.09l16.47,5.89c1.32.47,1.91,1.96,1.28,3.19Z"/>
    </g>
    <g id="_径向重复_-16" data-name="&amp;lt;径向重复&amp;gt;">
      <path class="cls-1" d="M85.87,84.31c-.99.97-2.62.87-3.48-.21-1.71-2.15-3.42-4.3-5.13-6.44-1.89-2.37-3.78-4.74-5.66-7.12-.06-.07-.05-.17.01-.23.06-.06.15-.08.24-.01l13.81,10.59c1.1.85,1.2,2.45.21,3.42Z"/>
    </g>
    <g id="_径向重复_-17" data-name="&amp;lt;径向重复&amp;gt;">
      <path class="cls-1" d="M75.52,91.69c-1.25.62-2.77.04-3.25-1.26-.95-2.56-1.9-5.12-2.85-7.68-1.05-2.83-2.1-5.66-3.15-8.49-.03-.08,0-.18.09-.22.07-.04.17-.03.23.06l9.8,14.27c.78,1.14.37,2.69-.87,3.32Z"/>
    </g>
    <g id="_径向重复_-18" data-name="&amp;lt;径向重复&amp;gt;">
      <path class="cls-1" d="M63.35,95.58c-1.38.21-2.64-.81-2.69-2.18-.1-2.72-.19-5.45-.29-8.17-.11-3.01-.21-6.02-.32-9.03,0-.09.06-.17.15-.18.08-.01.17.03.2.13l4.83,16.54c.39,1.32-.49,2.68-1.88,2.89Z"/>
    </g>
    <g id="_径向重复_-19" data-name="&amp;lt;径向重复&amp;gt;">
      <path class="cls-1" d="M50.56,95.58c-1.38-.21-2.26-1.57-1.88-2.89.77-2.62,1.53-5.24,2.3-7.86.84-2.89,1.69-5.79,2.53-8.68.02-.09.11-.14.2-.13.08.01.15.08.15.18l-.61,17.2c-.05,1.37-1.31,2.39-2.69,2.18Z"/>
    </g>
    <g id="_径向重复_-20" data-name="&amp;lt;径向重复&amp;gt;">
      <path class="cls-1" d="M38.39,91.69c-1.25-.62-1.66-2.18-.87-3.32,1.55-2.26,3.1-4.52,4.66-6.78,1.71-2.5,3.43-4.99,5.14-7.49.05-.07.15-.1.23-.06.07.04.12.12.09.22l-6,16.17c-.48,1.29-2,1.88-3.25,1.26Z"/>
    </g>
  </g>
  <g>
    <g id="_径向重复_-21" data-name="&amp;lt;径向重复&amp;gt;">
      <path class="cls-2" d="M47.17,65.53c-.33-.33-.3-.87.07-1.16.74-.57,1.48-1.14,2.22-1.7.82-.63,1.63-1.25,2.45-1.88.02-.02.06-.02.08,0,.02.02.03.05,0,.08l-3.65,4.59c-.29.37-.84.4-1.18.07Z"/>
    </g>
    <g id="_径向重复_-22" data-name="&amp;lt;径向重复&amp;gt;">
      <path class="cls-2" d="M44.63,62.09c-.21-.41-.01-.92.43-1.08.88-.32,1.77-.63,2.65-.95.97-.35,1.95-.7,2.92-1.05.03-.01.06,0,.07.03.01.02,0,.06-.02.08l-4.92,3.26c-.39.26-.93.12-1.14-.29Z"/>
    </g>
    <g id="_径向重复_-23" data-name="&amp;lt;径向重复&amp;gt;">
      <path class="cls-2" d="M43.29,58.05c-.07-.46.28-.88.75-.89.94-.03,1.88-.06,2.82-.1,1.04-.04,2.07-.07,3.11-.11.03,0,.06.02.06.05,0,.03,0,.06-.04.07l-5.7,1.6c-.46.13-.92-.16-1-.62Z"/>
    </g>
    <g id="_径向重复_-24" data-name="&amp;lt;径向重复&amp;gt;">
      <path class="cls-2" d="M43.29,53.8c.07-.46.54-.75,1-.62.9.25,1.81.51,2.71.76,1,.28,1.99.56,2.99.84.03,0,.05.04.04.07,0,.03-.03.05-.06.05l-5.93-.2c-.47-.02-.83-.44-.75-.89Z"/>
    </g>
    <g id="_径向重复_-25" data-name="&amp;lt;径向重复&amp;gt;">
      <path class="cls-2" d="M44.63,49.76c.21-.41.75-.55,1.14-.29.78.52,1.56,1.03,2.34,1.55.86.57,1.72,1.14,2.58,1.71.03.02.03.05.02.08-.01.02-.04.04-.07.03l-5.57-1.99c-.44-.16-.65-.66-.43-1.08Z"/>
    </g>
    <g id="_径向重复_-26" data-name="&amp;lt;径向重复&amp;gt;">
      <path class="cls-2" d="M47.17,46.32c.33-.33.89-.3,1.18.07.58.73,1.16,1.45,1.73,2.18.64.8,1.28,1.6,1.92,2.41.02.02.02.06,0,.08-.02.02-.05.03-.08,0l-4.67-3.58c-.37-.29-.41-.83-.07-1.16Z"/>
    </g>
    <g id="_径向重复_-27" data-name="&amp;lt;径向重复&amp;gt;">
      <path class="cls-2" d="M50.67,43.82c.42-.21.94-.01,1.1.42.32.87.64,1.73.96,2.6.35.96.71,1.91,1.06,2.87.01.03,0,.06-.03.07-.02.01-.06,0-.08-.02l-3.32-4.83c-.26-.39-.13-.91.3-1.12Z"/>
    </g>
    <g id="_径向重复_-28" data-name="&amp;lt;径向重复&amp;gt;">
      <path class="cls-2" d="M54.79,42.51c.47-.07.89.27.91.74.03.92.07,1.84.1,2.76.04,1.02.07,2.04.11,3.05,0,.03-.02.06-.05.06-.03,0-.06,0-.07-.04l-1.63-5.6c-.13-.45.17-.91.63-.98Z"/>
    </g>
    <g id="_径向重复_-29" data-name="&amp;lt;径向重复&amp;gt;">
      <path class="cls-2" d="M59.12,42.51c.47.07.77.53.63.98-.26.89-.52,1.77-.78,2.66-.29.98-.57,1.96-.86,2.94,0,.03-.04.05-.07.04-.03,0-.05-.03-.05-.06l.21-5.82c.02-.46.44-.81.91-.74Z"/>
    </g>
    <g id="_径向重复_-30" data-name="&amp;lt;径向重复&amp;gt;">
      <path class="cls-2" d="M63.24,43.82c.42.21.56.74.3,1.12-.53.76-1.05,1.53-1.58,2.29-.58.84-1.16,1.69-1.74,2.53-.02.02-.05.03-.08.02-.02-.01-.04-.04-.03-.07l2.03-5.47c.16-.44.68-.64,1.1-.42Z"/>
    </g>
    <g id="_径向重复_-31" data-name="&amp;lt;径向重复&amp;gt;">
      <path class="cls-2" d="M66.74,46.32c.33.33.3.87-.07,1.16-.74.57-1.48,1.14-2.22,1.7-.82.63-1.63,1.25-2.45,1.88-.02.02-.06.02-.08,0-.02-.02-.03-.05,0-.08l3.65-4.59c.29-.37.84-.4,1.18-.07Z"/>
    </g>
    <g id="_径向重复_-32" data-name="&amp;lt;径向重复&amp;gt;">
      <path class="cls-2" d="M69.28,49.76c.21.41.01.92-.43,1.08-.88.32-1.77.63-2.65.95-.97.35-1.95.7-2.92,1.05-.03.01-.06,0-.07-.03-.01-.02,0-.06.02-.08l4.92-3.26c.39-.26.93-.12,1.14.29Z"/>
    </g>
    <g id="_径向重复_-33" data-name="&amp;lt;径向重复&amp;gt;">
      <path class="cls-2" d="M70.62,53.8c.07.46-.28.88-.75.89-.94.03-1.88.06-2.82.1-1.04.04-2.07.07-3.11.11-.03,0-.06-.02-.06-.05,0-.03,0-.06.04-.07l5.7-1.6c.46-.13.92.16,1,.62Z"/>
    </g>
    <g id="_径向重复_-34" data-name="&amp;lt;径向重复&amp;gt;">
      <path class="cls-2" d="M70.62,58.05c-.07.46-.54.75-1,.62-.9-.25-1.81-.51-2.71-.76-1-.28-1.99-.56-2.99-.84-.03,0-.05-.04-.04-.07,0-.03.03-.05.06-.05l5.93.2c.47.02.83.44.75.89Z"/>
    </g>
    <g id="_径向重复_-35" data-name="&amp;lt;径向重复&amp;gt;">
      <path class="cls-2" d="M69.28,62.09c-.21.41-.75.55-1.14.29-.78-.52-1.56-1.03-2.34-1.55-.86-.57-1.72-1.14-2.58-1.71-.03-.02-.03-.05-.02-.08.01-.02.04-.04.07-.03l5.57,1.99c.44.16.65.66.43,1.08Z"/>
    </g>
    <g id="_径向重复_-36" data-name="&amp;lt;径向重复&amp;gt;">
      <path class="cls-2" d="M66.74,65.53c-.33.33-.89.3-1.18-.07-.58-.73-1.16-1.45-1.73-2.18-.64-.8-1.28-1.6-1.92-2.41-.02-.02-.02-.06,0-.08.02-.02.05-.03.08,0l4.67,3.58c.37.29.41.83.07,1.16Z"/>
    </g>
    <g id="_径向重复_-37" data-name="&amp;lt;径向重复&amp;gt;">
      <path class="cls-2" d="M63.23,68.02c-.42.21-.94.01-1.1-.42-.32-.87-.64-1.73-.96-2.6-.35-.96-.71-1.91-1.06-2.87-.01-.03,0-.06.03-.07.02-.01.06,0,.08.02l3.32,4.83c.26.39.13.91-.3,1.12Z"/>
    </g>
    <g id="_径向重复_-38" data-name="&amp;lt;径向重复&amp;gt;">
      <path class="cls-2" d="M59.12,69.34c-.47.07-.89-.27-.91-.74-.03-.92-.07-1.84-.1-2.76-.04-1.02-.07-2.04-.11-3.05,0-.03.02-.06.05-.06.03,0,.06,0,.07.04l1.63,5.6c.13.45-.17.91-.63.98Z"/>
    </g>
    <g id="_径向重复_-39" data-name="&amp;lt;径向重复&amp;gt;">
      <path class="cls-2" d="M54.79,69.34c-.47-.07-.77-.53-.63-.98.26-.89.52-1.77.78-2.66.29-.98.57-1.96.86-2.94,0-.03.04-.05.07-.04.03,0,.05.03.05.06l-.21,5.82c-.02.46-.44.81-.91.74Z"/>
    </g>
    <g id="_径向重复_-40" data-name="&amp;lt;径向重复&amp;gt;">
      <path class="cls-2" d="M50.67,68.02c-.42-.21-.56-.74-.3-1.12.53-.76,1.05-1.53,1.58-2.29.58-.84,1.16-1.69,1.74-2.53.02-.02.05-.03.08-.02.02.01.04.04.03.07l-2.03,5.47c-.16.44-.68.64-1.1.42Z"/>
    </g>
  </g>
  <g>
    <g id="_径向重复_-41" data-name="&amp;lt;径向重复&amp;gt;">
      <polygon class="cls-3" points="55.61 111.58 56.96 72.93 58.3 111.58 55.61 111.58"/>
    </g>
    <g id="_径向重复_-42" data-name="&amp;lt;径向重复&amp;gt;">
      <polygon class="cls-3" points="38.16 108.45 51.6 72.1 40.71 109.27 38.16 108.45"/>
    </g>
    <g id="_径向重复_-43" data-name="&amp;lt;径向重复&amp;gt;">
      <polygon class="cls-3" points="22.54 100.18 46.77 69.68 24.72 101.73 22.54 100.18"/>
    </g>
    <g id="_径向重复_-44" data-name="&amp;lt;径向重复&amp;gt;">
      <polygon class="cls-3" points="10.3 87.57 42.94 65.92 11.88 89.71 10.3 87.57"/>
    </g>
    <g id="_径向重复_-45" data-name="&amp;lt;径向重复&amp;gt;">
      <polygon class="cls-3" points="2.62 71.87 40.48 61.18 3.45 74.38 2.62 71.87"/>
    </g>
    <g id="_径向重复_-46" data-name="&amp;lt;径向重复&amp;gt;">
      <polygon class="cls-3" points=".26 54.6 39.63 55.92 .26 57.24 .26 54.6"/>
    </g>
    <g id="_径向重复_-47" data-name="&amp;lt;径向重复&amp;gt;">
      <polygon class="cls-3" points="3.45 37.47 40.48 50.67 2.62 39.98 3.45 37.47"/>
    </g>
    <g id="_径向重复_-48" data-name="&amp;lt;径向重复&amp;gt;">
      <polygon class="cls-3" points="11.88 22.14 42.94 45.93 10.3 24.27 11.88 22.14"/>
    </g>
    <g id="_径向重复_-49" data-name="&amp;lt;径向重复&amp;gt;">
      <polygon class="cls-3" points="24.72 10.12 46.77 42.16 22.54 11.67 24.72 10.12"/>
    </g>
    <g id="_径向重复_-50" data-name="&amp;lt;径向重复&amp;gt;">
      <polygon class="cls-3" points="40.71 2.58 51.6 39.75 38.16 3.39 40.71 2.58"/>
    </g>
    <g id="_径向重复_-51" data-name="&amp;lt;径向重复&amp;gt;">
      <polygon class="cls-3" points="58.3 .26 56.96 38.92 55.61 .26 58.3 .26"/>
    </g>
    <g id="_径向重复_-52" data-name="&amp;lt;径向重复&amp;gt;">
      <polygon class="cls-3" points="75.75 3.39 62.31 39.75 73.2 2.58 75.75 3.39"/>
    </g>
    <g id="_径向重复_-53" data-name="&amp;lt;径向重复&amp;gt;">
      <polygon class="cls-3" points="91.37 11.67 67.14 42.16 89.19 10.12 91.37 11.67"/>
    </g>
    <g id="_径向重复_-54" data-name="&amp;lt;径向重复&amp;gt;">
      <polygon class="cls-3" points="103.61 24.27 70.97 45.93 102.03 22.14 103.61 24.27"/>
    </g>
    <g id="_径向重复_-55" data-name="&amp;lt;径向重复&amp;gt;">
      <polygon class="cls-3" points="111.29 39.98 73.43 50.67 110.46 37.47 111.29 39.98"/>
    </g>
    <g id="_径向重复_-56" data-name="&amp;lt;径向重复&amp;gt;">
      <polygon class="cls-3" points="113.65 57.24 74.28 55.92 113.65 54.6 113.65 57.24"/>
    </g>
    <g id="_径向重复_-57" data-name="&amp;lt;径向重复&amp;gt;">
      <polygon class="cls-3" points="110.46 74.38 73.43 61.18 111.29 71.87 110.46 74.38"/>
    </g>
    <g id="_径向重复_-58" data-name="&amp;lt;径向重复&amp;gt;">
      <polygon class="cls-3" points="102.03 89.71 70.97 65.92 103.61 87.57 102.03 89.71"/>
    </g>
    <g id="_径向重复_-59" data-name="&amp;lt;径向重复&amp;gt;">
      <polygon class="cls-3" points="89.19 101.73 67.14 69.68 91.36 100.18 89.19 101.73"/>
    </g>
    <g id="_径向重复_-60" data-name="&amp;lt;径向重复&amp;gt;">
      <polygon class="cls-3" points="73.2 109.27 62.31 72.1 75.75 108.45 73.2 109.27"/>
    </g>
  </g>
</svg>