<?xml version="1.0" encoding="UTF-8"?>
<svg id="a" data-name="图层 1" xmlns="http://www.w3.org/2000/svg" width="401" height="401" viewBox="0 0 401 401">
  <g>
    <g id="b" data-name="&amp;lt;径向重复&amp;gt;">
      <path d="M199.52,399.38c-1.65-4.09-4.43-24.86.98-158.88,5.41,134.02,2.63,154.79.98,158.88-.6,1.5-1.36,1.5-1.96,0Z" fill="none" stroke="#81c58a" stroke-miterlimit="10"/>
    </g>
    <g id="c" data-name="&amp;lt;径向重复&amp;gt;">
      <path d="M138.11,389.34c-.3-4.39,3.46-25.01,50.03-150.8-36.26,129.13-45.34,148.02-48.16,151.4-1.04,1.24-1.75,1.01-1.86-.61Z" fill="none" stroke="#81c58a" stroke-miterlimit="10"/>
    </g>
    <g id="d" data-name="&amp;lt;径向重复&amp;gt;">
      <path d="M82.81,360.82c1.07-4.27,11.02-22.72,94.18-127.96-74.39,111.6-88.86,126.77-92.59,129.11-1.37.86-1.98.42-1.58-1.15Z" fill="none" stroke="#81c58a" stroke-miterlimit="10"/>
    </g>
    <g id="e" data-name="&amp;lt;径向重复&amp;gt;">
      <path d="M39.03,316.61c2.34-3.73,17.51-18.2,129.11-92.59-105.24,83.15-123.68,93.11-127.96,94.18-1.57.39-2.01-.21-1.15-1.58Z" fill="none" stroke="#81c58a" stroke-miterlimit="10"/>
    </g>
    <g id="f" data-name="&amp;lt;径向重复&amp;gt;">
      <path d="M11.06,261.02c3.38-2.83,22.27-11.9,151.4-48.16-125.78,46.56-146.4,50.33-150.8,50.03-1.61-.11-1.85-.83-.61-1.86Z" fill="none" stroke="#81c58a" stroke-miterlimit="10"/>
    </g>
    <g id="g" data-name="&amp;lt;径向重复&amp;gt;">
      <path d="M1.62,199.52c4.09-1.65,24.86-4.43,158.88.98-134.02,5.41-154.79,2.63-158.88.98-1.5-.6-1.5-1.36,0-1.96Z" fill="none" stroke="#81c58a" stroke-miterlimit="10"/>
    </g>
    <g id="h" data-name="&amp;lt;径向重复&amp;gt;">
      <path d="M11.66,138.11c4.39-.3,25.01,3.46,150.8,50.03C33.33,151.88,14.43,142.8,11.06,139.98c-1.24-1.04-1.01-1.75.61-1.86Z" fill="none" stroke="#81c58a" stroke-miterlimit="10"/>
    </g>
    <g id="i" data-name="&amp;lt;径向重复&amp;gt;">
      <path d="M40.18,82.81c4.27,1.07,22.72,11.02,127.96,94.18C56.54,102.6,41.37,88.13,39.03,84.4c-.86-1.37-.42-1.98,1.15-1.58Z" fill="none" stroke="#81c58a" stroke-miterlimit="10"/>
    </g>
    <g id="j" data-name="&amp;lt;径向重复&amp;gt;">
      <path d="M84.4,39.03c3.73,2.34,18.2,17.51,92.59,129.11C93.84,62.9,83.88,44.46,82.81,40.18c-.39-1.57.21-2.01,1.58-1.15Z" fill="none" stroke="#81c58a" stroke-miterlimit="10"/>
    </g>
    <g id="k" data-name="&amp;lt;径向重复&amp;gt;">
      <path d="M139.98,11.06c2.83,3.38,11.9,22.27,48.16,151.4C141.58,36.67,137.81,16.06,138.11,11.66c.11-1.61.83-1.85,1.86-.61Z" fill="none" stroke="#81c58a" stroke-miterlimit="10"/>
    </g>
    <g id="l" data-name="&amp;lt;径向重复&amp;gt;">
      <path d="M201.48,1.62c1.65,4.09,4.43,24.86-.98,158.88-5.41-134.02-2.63-154.79-.98-158.88.6-1.5,1.36-1.5,1.96,0Z" fill="none" stroke="#81c58a" stroke-miterlimit="10"/>
    </g>
    <g id="m" data-name="&amp;lt;径向重复&amp;gt;">
      <path d="M262.89,11.66c.3,4.39-3.46,25.01-50.03,150.8C249.13,33.33,258.2,14.43,261.03,11.06c1.04-1.24,1.75-1.01,1.86.61Z" fill="none" stroke="#81c58a" stroke-miterlimit="10"/>
    </g>
    <g id="n" data-name="&amp;lt;径向重复&amp;gt;">
      <path d="M318.19,40.18c-1.07,4.27-11.02,22.72-94.18,127.96,74.39-111.6,88.86-126.77,92.59-129.11,1.37-.86,1.98-.42,1.58,1.15Z" fill="none" stroke="#81c58a" stroke-miterlimit="10"/>
    </g>
    <g id="o" data-name="&amp;lt;径向重复&amp;gt;">
      <path d="M361.97,84.4c-2.34,3.73-17.51,18.2-129.11,92.59,105.24-83.15,123.68-93.11,127.96-94.18,1.57-.39,2.01.21,1.15,1.58Z" fill="none" stroke="#81c58a" stroke-miterlimit="10"/>
    </g>
    <g id="p" data-name="&amp;lt;径向重复&amp;gt;">
      <path d="M389.94,139.98c-3.38,2.83-22.27,11.9-151.4,48.16,125.78-46.56,146.4-50.33,150.8-50.03,1.61.11,1.85.83.61,1.86Z" fill="none" stroke="#81c58a" stroke-miterlimit="10"/>
    </g>
    <g id="q" data-name="&amp;lt;径向重复&amp;gt;">
      <path d="M399.38,201.48c-4.09,1.65-24.86,4.43-158.88-.98,134.02-5.41,154.79-2.63,158.88-.98,1.5.6,1.5,1.36,0,1.96Z" fill="none" stroke="#81c58a" stroke-miterlimit="10"/>
    </g>
    <g id="r" data-name="&amp;lt;径向重复&amp;gt;">
      <path d="M389.34,262.89c-4.39.3-25.01-3.46-150.8-50.03,129.13,36.26,148.02,45.34,151.4,48.16,1.24,1.04,1.01,1.75-.61,1.86Z" fill="none" stroke="#81c58a" stroke-miterlimit="10"/>
    </g>
    <g id="s" data-name="&amp;lt;径向重复&amp;gt;">
      <path d="M360.82,318.19c-4.27-1.07-22.72-11.02-127.96-94.18,111.6,74.39,126.77,88.86,129.11,92.59.86,1.37.42,1.98-1.15,1.58Z" fill="none" stroke="#81c58a" stroke-miterlimit="10"/>
    </g>
    <g id="t" data-name="&amp;lt;径向重复&amp;gt;">
      <path d="M316.6,361.97c-3.73-2.34-18.2-17.51-92.59-129.11,83.15,105.24,93.11,123.68,94.18,127.96.39,1.57-.21,2.01-1.58,1.15Z" fill="none" stroke="#81c58a" stroke-miterlimit="10"/>
    </g>
    <g id="u" data-name="&amp;lt;径向重复&amp;gt;">
      <path d="M261.03,389.94c-2.83-3.38-11.9-22.27-48.16-151.4,46.56,125.78,50.33,146.4,50.03,150.8-.11,1.61-.83,1.85-1.86.61Z" fill="none" stroke="#81c58a" stroke-miterlimit="10"/>
    </g>
  </g>
  <g>
    <g id="v" data-name="&amp;lt;径向重复&amp;gt;">
      <path d="M78.46,77.38c3.16,1.34,16.14,11.26,87.01,88.09-76.84-70.87-86.75-83.85-88.09-87.01-.49-1.16-.08-1.57,1.08-1.08Z" fill="none" stroke="#349394" stroke-miterlimit="10"/>
    </g>
    <g id="w" data-name="&amp;lt;径向重复&amp;gt;">
      <path d="M122.48,45.7c2.59,2.26,11.87,15.69,55.53,110.67-51.18-91.15-56.59-106.56-56.89-109.98-.11-1.26.41-1.52,1.36-.69Z" fill="none" stroke="#349394" stroke-miterlimit="10"/>
    </g>
    <g id="x" data-name="&amp;lt;径向重复&amp;gt;">
      <path d="M174.14,29.17c1.76,2.94,6.44,18.59,18.62,122.41-20.51-102.5-20.89-118.83-20.12-122.18.28-1.23.86-1.32,1.51-.24Z" fill="none" stroke="#349394" stroke-miterlimit="10"/>
    </g>
    <g id="y" data-name="&amp;lt;径向重复&amp;gt;">
      <path d="M228.37,29.41c.77,3.35.38,19.68-20.12,122.18,12.17-103.82,16.85-119.47,18.62-122.41.65-1.08,1.23-.99,1.51.24Z" fill="none" stroke="#349394" stroke-miterlimit="10"/>
    </g>
    <g id="z" data-name="&amp;lt;径向重复&amp;gt;">
      <path d="M279.88,46.39c-.3,3.42-5.72,18.83-56.89,109.98,43.66-94.98,52.94-108.42,55.53-110.67.95-.83,1.47-.56,1.36.69Z" fill="none" stroke="#349394" stroke-miterlimit="10"/>
    </g>
    <g id="aa" data-name="&amp;lt;径向重复&amp;gt;">
      <path d="M323.62,78.46c-1.34,3.16-11.26,16.14-88.09,87.01,70.87-76.84,83.85-86.75,87.01-88.09,1.16-.49,1.57-.08,1.08,1.08Z" fill="none" stroke="#349394" stroke-miterlimit="10"/>
    </g>
    <g id="ab" data-name="&amp;lt;径向重复&amp;gt;">
      <path d="M355.3,122.48c-2.26,2.59-15.69,11.87-110.67,55.53,91.15-51.18,106.56-56.59,109.98-56.89,1.26-.11,1.52.41.69,1.36Z" fill="none" stroke="#349394" stroke-miterlimit="10"/>
    </g>
    <g id="ac" data-name="&amp;lt;径向重复&amp;gt;">
      <path d="M371.83,174.14c-2.94,1.76-18.59,6.44-122.41,18.62,102.5-20.51,118.83-20.89,122.18-20.12,1.23.28,1.32.86.24,1.51Z" fill="none" stroke="#349394" stroke-miterlimit="10"/>
    </g>
    <g id="ad" data-name="&amp;lt;径向重复&amp;gt;">
      <path d="M371.6,228.37c-3.35.77-19.68.38-122.18-20.12,103.82,12.17,119.47,16.85,122.41,18.62,1.08.65.99,1.23-.24,1.51Z" fill="none" stroke="#349394" stroke-miterlimit="10"/>
    </g>
    <g id="ae" data-name="&amp;lt;径向重复&amp;gt;">
      <path d="M354.61,279.88c-3.42-.3-18.83-5.72-109.98-56.89,94.98,43.66,108.41,52.94,110.67,55.53.83.95.56,1.47-.69,1.36Z" fill="none" stroke="#349394" stroke-miterlimit="10"/>
    </g>
    <g id="af" data-name="&amp;lt;径向重复&amp;gt;">
      <path d="M322.54,323.62c-3.16-1.34-16.14-11.26-87.01-88.09,76.84,70.87,86.75,83.85,88.09,87.01.49,1.16.08,1.57-1.08,1.08Z" fill="none" stroke="#349394" stroke-miterlimit="10"/>
    </g>
    <g id="ag" data-name="&amp;lt;径向重复&amp;gt;">
      <path d="M278.52,355.3c-2.59-2.26-11.87-15.69-55.53-110.67,51.18,91.15,56.59,106.56,56.89,109.98.11,1.26-.41,1.52-1.36.69Z" fill="none" stroke="#349394" stroke-miterlimit="10"/>
    </g>
    <g id="ah" data-name="&amp;lt;径向重复&amp;gt;">
      <path d="M226.86,371.84c-1.76-2.94-6.44-18.59-18.62-122.41,20.51,102.5,20.89,118.83,20.12,122.18-.28,1.23-.86,1.32-1.51.24Z" fill="none" stroke="#349394" stroke-miterlimit="10"/>
    </g>
    <g id="ai" data-name="&amp;lt;径向重复&amp;gt;">
      <path d="M172.63,371.6c-.77-3.35-.38-19.68,20.12-122.18-12.17,103.82-16.85,119.47-18.62,122.41-.65,1.08-1.23.99-1.51-.24Z" fill="none" stroke="#349394" stroke-miterlimit="10"/>
    </g>
    <g id="aj" data-name="&amp;lt;径向重复&amp;gt;">
      <path d="M121.12,354.61c.3-3.42,5.72-18.83,56.89-109.98-43.66,94.98-52.94,108.42-55.53,110.67-.95.83-1.47.56-1.36-.69Z" fill="none" stroke="#349394" stroke-miterlimit="10"/>
    </g>
    <g id="ak" data-name="&amp;lt;径向重复&amp;gt;">
      <path d="M77.38,322.54c1.34-3.16,11.26-16.14,88.09-87.01-70.87,76.84-83.85,86.75-87.01,88.09-1.16.49-1.57.08-1.08-1.08Z" fill="none" stroke="#349394" stroke-miterlimit="10"/>
    </g>
    <g id="al" data-name="&amp;lt;径向重复&amp;gt;">
      <path d="M45.7,278.52c2.26-2.59,15.69-11.87,110.67-55.53-91.15,51.18-106.56,56.59-109.98,56.89-1.26.11-1.52-.41-.69-1.36Z" fill="none" stroke="#349394" stroke-miterlimit="10"/>
    </g>
    <g id="am" data-name="&amp;lt;径向重复&amp;gt;">
      <path d="M29.17,226.86c2.94-1.76,18.59-6.44,122.41-18.62-102.5,20.51-118.83,20.89-122.18,20.12-1.23-.28-1.32-.86-.24-1.51Z" fill="none" stroke="#349394" stroke-miterlimit="10"/>
    </g>
    <g id="an" data-name="&amp;lt;径向重复&amp;gt;">
      <path d="M29.4,172.63c3.35-.77,19.68-.38,122.18,20.12-103.82-12.17-119.47-16.85-122.41-18.62-1.08-.65-.99-1.23.24-1.51Z" fill="none" stroke="#349394" stroke-miterlimit="10"/>
    </g>
    <g id="ao" data-name="&amp;lt;径向重复&amp;gt;">
      <path d="M46.39,121.12c3.42.3,18.83,5.72,109.98,56.89-94.98-43.66-108.41-52.94-110.67-55.53-.83-.95-.56-1.47.69-1.36Z" fill="none" stroke="#349394" stroke-miterlimit="10"/>
    </g>
  </g>
  <g>
    <g id="ap" data-name="&amp;lt;径向重复&amp;gt;">
      <ellipse cx="200.5" cy="178.08" rx="4.62" ry="10.04" fill="none" stroke="#c8e4c9" stroke-miterlimit="10"/>
    </g>
    <g id="aq" data-name="&amp;lt;径向重复&amp;gt;">
      <ellipse cx="210.92" cy="180.65" rx="10.04" ry="4.62" transform="translate(-47.05 283.46) rotate(-62.31)" fill="none" stroke="#c8e4c9" stroke-miterlimit="10"/>
    </g>
    <g id="ar" data-name="&amp;lt;径向重复&amp;gt;">
      <ellipse cx="218.95" cy="187.77" rx="10.04" ry="4.62" transform="translate(-67.91 157.62) rotate(-34.62)" fill="none" stroke="#c8e4c9" stroke-miterlimit="10"/>
    </g>
    <g id="as" data-name="&amp;lt;径向重复&amp;gt;">
      <ellipse cx="222.76" cy="197.8" rx="10.04" ry="4.62" transform="translate(-22.22 28.29) rotate(-6.92)" fill="none" stroke="#c8e4c9" stroke-miterlimit="10"/>
    </g>
    <g id="at" data-name="&amp;lt;径向重复&amp;gt;">
      <ellipse cx="221.46" cy="208.45" rx="4.62" ry="10.04" transform="translate(-51.98 341.61) rotate(-69.23)" fill="none" stroke="#c8e4c9" stroke-miterlimit="10"/>
    </g>
    <g id="au" data-name="&amp;lt;径向重复&amp;gt;">
      <ellipse cx="215.37" cy="217.28" rx="4.62" ry="10.04" transform="translate(-89.92 197.46) rotate(-41.54)" fill="none" stroke="#c8e4c9" stroke-miterlimit="10"/>
    </g>
    <g id="av" data-name="&amp;lt;径向重复&amp;gt;">
      <ellipse cx="205.87" cy="222.27" rx="4.62" ry="10.04" transform="translate(-47.21 55.73) rotate(-13.85)" fill="none" stroke="#c8e4c9" stroke-miterlimit="10"/>
    </g>
    <g id="aw" data-name="&amp;lt;径向重复&amp;gt;">
      <ellipse cx="195.14" cy="222.27" rx="10.04" ry="4.62" transform="translate(-67.38 358.54) rotate(-76.15)" fill="none" stroke="#c8e4c9" stroke-miterlimit="10"/>
    </g>
    <g id="ax" data-name="&amp;lt;径向重复&amp;gt;">
      <ellipse cx="185.63" cy="217.28" rx="10.04" ry="4.62" transform="translate(-100.1 212.15) rotate(-48.46)" fill="none" stroke="#c8e4c9" stroke-miterlimit="10"/>
    </g>
    <g id="ay" data-name="&amp;lt;径向重复&amp;gt;">
      <ellipse cx="179.54" cy="208.45" rx="10.04" ry="4.62" transform="translate(-62.25 77.21) rotate(-20.77)" fill="none" stroke="#c8e4c9" stroke-miterlimit="10"/>
    </g>
    <g id="az" data-name="&amp;lt;径向重复&amp;gt;">
      <ellipse cx="178.24" cy="197.8" rx="4.62" ry="10.04" transform="translate(-39.6 350.9) rotate(-83.08)" fill="none" stroke="#c8e4c9" stroke-miterlimit="10"/>
    </g>
    <g id="ba" data-name="&amp;lt;径向重复&amp;gt;">
      <ellipse cx="182.05" cy="187.76" rx="4.62" ry="10.04" transform="translate(-75.89 230.92) rotate(-55.38)" fill="none" stroke="#c8e4c9" stroke-miterlimit="10"/>
    </g>
    <g id="bb" data-name="&amp;lt;径向重复&amp;gt;">
      <ellipse cx="190.08" cy="180.65" rx="4.62" ry="10.04" transform="translate(-62.18 109.03) rotate(-27.69)" fill="none" stroke="#c8e4c9" stroke-miterlimit="10"/>
    </g>
  </g>
</svg>