<?xml version="1.0" encoding="UTF-8"?>
<svg id="a" data-name="图层 1" xmlns="http://www.w3.org/2000/svg" width="40" height="40" viewBox="0 0 40 40">
  <g>
    <path d="M20.02,35.05s-.05,0-.08-.04c-.3-.3-.54-3.86-.54-6.61,0-2.72.24-6.24.54-6.54.03-.03.06-.04.08-.04h0c.44,0,.58,4.91.58,6.61,0,1.09-.1,6.61-.58,6.61h0ZM20.02,22c-.21.36-.47,3.41-.48,6.41,0,3.03.26,6.12.48,6.48.2-.35.44-3.34.44-6.45,0-3.11-.24-6.09-.44-6.44Z" fill="#f3de24"/>
    <path d="M14.28,33.92s-.02,0-.03,0h0s-.05-.03-.06-.07c-.16-.39.98-3.77,2.03-6.31,1.04-2.51,2.61-5.67,3-5.83.04-.02.07-.01.09,0,.41.17-1.34,4.76-1.99,6.33-.41.99-2.55,5.89-3.04,5.89ZM19.25,21.86c-.33.25-1.74,2.97-2.89,5.74-1.16,2.8-2.1,5.75-2.04,6.17.32-.25,1.68-2.91,2.87-5.79,1.19-2.87,2.11-5.72,2.06-6.12Z" fill="#f3de24"/>
    <path d="M9.43,30.68s-.05,0-.06-.02h0s-.03-.04-.03-.08c0-.42,2.35-3.11,4.29-5.05,1.92-1.92,4.58-4.24,5-4.24h0s.07.02.08.03c.31.31-3.06,3.89-4.26,5.08-1.15,1.15-4.47,4.28-5.03,4.28ZM18.6,21.43c-.4.1-2.75,2.07-4.87,4.19-2.15,2.14-4.14,4.51-4.24,4.92.39-.11,2.67-2.05,4.87-4.25,2.2-2.2,4.14-4.48,4.24-4.87Z" fill="#f3de24"/>
    <path d="M6.29,25.84c-.1,0-.17-.02-.19-.06h0s-.01-.05,0-.09c.16-.39,3.36-1.98,5.9-3.03,2.51-1.04,5.86-2.17,6.25-2,.04.02.06.04.07.06.18.45-4.88,2.65-5.88,3.07-.91.38-5.18,2.05-6.14,2.05ZM6.25,25.71c.4.05,3.25-.87,6.12-2.06,2.87-1.19,5.54-2.55,5.78-2.87-.01,0-.03,0-.04,0-.54,0-3.37.9-6.06,2.01-2.8,1.16-5.56,2.58-5.8,2.92Z" fill="#f3de24"/>
    <path d="M11.56,20.6h0c-1.69,0-6.61-.14-6.61-.58h0s0-.05.04-.08c.3-.3,3.83-.54,6.57-.54.01,0,.03,0,.04,0,2.72,0,6.24.24,6.54.54.03.03.04.06.04.08,0,.44-4.9.58-6.6.58ZM5.11,20.02c.35.2,3.34.44,6.45.44h.01c3.1,0,6.08-.24,6.43-.44-.36-.21-3.41-.47-6.41-.48-2.97,0-6.12.26-6.48.48Z" fill="#f3de24"/>
    <path d="M18.11,19.38c-.96,0-5.23-1.68-6.14-2.05-1.56-.65-6.05-2.66-5.88-3.07h0s.03-.05.07-.06c.39-.16,3.77.98,6.31,2.03,2.51,1.04,5.67,2.61,5.83,3,.02.04.01.07,0,.09-.02.04-.08.06-.19.06ZM6.24,14.32c.25.32,2.91,1.68,5.79,2.87,2.87,1.19,5.72,2.11,6.12,2.06-.25-.33-2.97-1.74-5.74-2.89-2.8-1.16-5.76-2.1-6.17-2.04Z" fill="#f3de24"/>
    <path d="M18.63,18.73c-.56,0-3.88-3.13-5.02-4.28-1.2-1.2-4.57-4.77-4.26-5.09h0s.04-.03.08-.03h0c.43,0,3.11,2.35,5.05,4.29,1.92,1.92,4.24,4.59,4.24,5,0,.04-.02.07-.03.08-.01.01-.03.02-.06.02ZM9.46,9.48c.11.39,2.05,2.67,4.25,4.87,2.2,2.2,4.48,4.14,4.87,4.24-.1-.4-2.07-2.75-4.19-4.87-2.14-2.15-4.51-4.14-4.92-4.24Z" fill="#f3de24"/>
    <path d="M19.26,18.31c-.46,0-2.41-4.35-3.04-5.88-.42-1-2.43-6.14-1.99-6.33h0s.05-.01.09,0c.39.16,1.98,3.36,3.03,5.9,1.04,2.51,2.16,5.86,2,6.24-.02.04-.04.06-.06.07,0,0-.02,0-.02,0ZM14.29,6.25c-.05.4.87,3.25,2.06,6.12,1.19,2.87,2.55,5.54,2.87,5.78.06-.41-.87-3.33-2.01-6.1-1.16-2.8-2.58-5.56-2.92-5.8Z" fill="#f3de24"/>
    <path d="M19.98,18.16h0c-.44,0-.58-4.91-.58-6.61,0-1.69.14-6.61.58-6.61h0s.05,0,.08.04c.3.3.54,3.86.54,6.61,0,2.72-.24,6.24-.54,6.54-.03.03-.06.04-.08.04ZM19.98,5.11c-.2.35-.44,3.34-.44,6.45,0,3.11.24,6.09.44,6.44.21-.36.47-3.41.48-6.41,0-3.03-.26-6.12-.48-6.48Z" fill="#f3de24"/>
    <path d="M20.73,18.3s-.03,0-.04,0c-.44-.19,1.57-5.32,1.99-6.33.41-.99,2.55-5.89,3.04-5.89,0,0,.02,0,.03,0h0s.05.03.06.07c.16.39-.98,3.77-2.03,6.31-1.04,2.51-2.61,5.67-3,5.83-.02,0-.03.01-.05.01ZM25.68,6.24c-.32.25-1.68,2.91-2.87,5.79-1.19,2.87-2.11,5.72-2.06,6.12.33-.25,1.74-2.97,2.89-5.74,1.14-2.75,2.1-5.75,2.04-6.17Z" fill="#f3de24"/>
    <path d="M21.37,18.72h0s-.07-.02-.08-.03c-.34-.34,3.49-4.31,4.26-5.08,1.2-1.2,4.77-4.57,5.09-4.26h0s.03.04.03.08c0,.42-2.35,3.11-4.29,5.05-1.92,1.92-4.58,4.24-5,4.24ZM30.52,9.46c-.39.11-2.67,2.05-4.87,4.25-2.2,2.2-4.14,4.48-4.24,4.87.4-.1,2.75-2.07,4.87-4.19,2.15-2.14,4.14-4.51,4.24-4.92Z" fill="#f3de24"/>
    <path d="M21.87,19.36s-.09,0-.11-.02c-.04-.02-.06-.04-.07-.06-.18-.45,4.88-2.65,5.88-3.07,1.56-.65,6.16-2.39,6.33-1.99h0s.01.05,0,.09c-.16.39-3.36,1.98-5.9,3.03-2.35.97-5.43,2.02-6.13,2.02ZM21.84,19.22c.41.06,3.33-.87,6.1-2.01,2.8-1.16,5.56-2.58,5.8-2.92-.4-.05-3.25.87-6.12,2.06-2.87,1.19-5.54,2.55-5.78,2.87Z" fill="#f3de24"/>
    <path d="M28.45,20.6h-.04c-2.72,0-6.24-.24-6.54-.54-.03-.03-.04-.06-.04-.08,0-.48,5.51-.58,6.6-.58h0c1.69,0,6.61.14,6.61.58h0s0,.05-.04.08c-.3.3-3.83.54-6.57.54ZM22,19.98c.36.21,3.41.47,6.41.48h.04c3.02,0,6.08-.26,6.44-.48-.35-.2-3.34-.44-6.45-.44h0c-3.1,0-6.09.24-6.44.44Z" fill="#f3de24"/>
    <path d="M33.74,25.82c-.71,0-3.82-1.06-6.2-2.05-2.51-1.04-5.67-2.61-5.83-3-.02-.04-.01-.07,0-.09.19-.44,5.32,1.57,6.33,1.99,1.56.65,6.05,2.66,5.88,3.07h0s-.03.05-.07.06c-.03.01-.06.02-.11.02ZM21.86,20.75c.25.33,2.97,1.74,5.74,2.89,2.8,1.16,5.75,2.11,6.17,2.04-.25-.32-2.91-1.68-5.79-2.87-2.87-1.19-5.72-2.11-6.12-2.06Z" fill="#f3de24"/>
    <path d="M30.57,30.66c-.43,0-3.11-2.35-5.05-4.29-1.92-1.92-4.24-4.59-4.24-5,0-.04.02-.07.03-.08.31-.31,3.89,3.06,5.08,4.26,1.2,1.2,4.57,4.77,4.26,5.09h0s-.04.03-.08.03h0ZM21.43,21.4c.1.4,2.07,2.75,4.19,4.87,2.14,2.15,4.51,4.14,4.92,4.24-.11-.39-2.05-2.67-4.25-4.87-2.2-2.2-4.48-4.14-4.87-4.24Z" fill="#f3de24"/>
    <path d="M25.74,33.91s-.03,0-.05-.01c-.39-.16-1.98-3.36-3.03-5.9-1.04-2.51-2.16-5.86-2-6.24.02-.04.04-.06.06-.07,0,0,.02,0,.02,0,.46,0,2.41,4.35,3.04,5.88.42,1,2.43,6.14,1.99,6.33h0s-.02,0-.04,0ZM20.78,21.84c-.06.41.87,3.33,2.01,6.1,1.16,2.8,2.58,5.56,2.92,5.8.05-.4-.87-3.25-2.06-6.12-1.19-2.87-2.55-5.54-2.87-5.78Z" fill="#f3de24"/>
  </g>
  <g>
    <path d="M16.78,37.47s-.04,0-.06,0c-.3-.06-.43-.51-.47-.69-.49-1.8,1.06-6.61,1.19-6.97h0c.29-.85.5-1.53.68-2.07.45-1.39.56-1.72.75-1.69.19.04.17.38.09,1.81-.03.57-.07,1.28-.12,2.18-.02.55-.27,5.37-1.39,6.91-.1.14-.37.51-.66.51ZM18.84,26.2c-.1.08-.29.68-.58,1.58-.18.54-.39,1.22-.68,2.07-.02.05-1.69,5.06-1.19,6.89.04.13.15.54.36.58.22.04.49-.33.58-.45,1.09-1.51,1.34-6.29,1.36-6.84.04-.91.08-1.62.12-2.19.05-.93.09-1.55.03-1.66Z" fill="#faf5ca"/>
    <path d="M10.5,34.94c-.08,0-.15-.02-.21-.06-.26-.17-.2-.64-.18-.81.24-1.93,3.62-5.82,3.77-5.99.59-.68,1.05-1.22,1.42-1.65.95-1.11,1.17-1.38,1.34-1.27h0c.16.11.01.41-.61,1.71-.25.51-.56,1.15-.94,1.97-.23.49-2.31,4.86-3.93,5.86-.12.08-.41.25-.65.25ZM16.55,25.28c-.12.04-.53.52-1.14,1.24-.37.43-.83.98-1.42,1.65-.04.04-3.5,4.03-3.73,5.91-.02.14-.07.56.11.68.19.12.58-.11.71-.19,1.59-.98,3.65-5.31,3.88-5.8.38-.82.69-1.46.94-1.97.4-.84.68-1.4.66-1.52Z" fill="#faf5ca"/>
    <path d="M5.83,30.22c-.19,0-.4-.04-.5-.19-.17-.25.06-.67.15-.82.96-1.69,5.58-3.99,5.77-4.09.81-.4,1.44-.72,1.94-.98,1.3-.67,1.61-.83,1.72-.67h0c.11.16-.15.39-1.22,1.34-.43.38-.96.85-1.62,1.46-.41.37-4,3.61-5.87,3.91-.08.01-.22.04-.37.04ZM14.79,23.56c-.14,0-.7.29-1.52.71-.51.26-1.14.58-1.95.98-.05.02-4.77,2.38-5.71,4.03-.07.12-.28.49-.16.67.13.19.58.12.73.09,1.84-.29,5.4-3.5,5.8-3.87.67-.61,1.2-1.08,1.63-1.46.69-.62,1.16-1.03,1.19-1.15,0,0,0,0,0,0Z" fill="#faf5ca"/>
    <path d="M4.12,24.2c-.29,0-.55-.02-.77-.08-.19-.04-.68-.16-.74-.47-.06-.3.31-.59.45-.7,1.53-1.19,6.68-1.55,6.9-1.57.9-.06,1.6-.12,2.17-.16,1.46-.12,1.8-.15,1.84.04.04.19-.28.3-1.64.77-.54.19-1.21.42-2.06.73-.45.16-4.04,1.44-6.15,1.44ZM13.59,21.27c-.28,0-.79.04-1.45.09-.57.05-1.28.1-2.17.16-.05,0-5.32.38-6.82,1.54-.11.09-.44.34-.4.56.05.22.49.33.64.36,1.81.43,6.33-1.17,6.84-1.36.85-.31,1.52-.54,2.06-.73.88-.3,1.47-.51,1.54-.61-.03-.02-.12-.03-.24-.03Z" fill="#faf5ca"/>
    <path d="M13.46,19.01c-.28,0-.69-.02-1.32-.06-.57-.03-1.28-.07-2.18-.12-.55-.02-5.37-.27-6.91-1.39-.15-.11-.57-.41-.51-.72.06-.3.51-.43.69-.47,1.87-.51,6.77,1.12,6.97,1.19.85.29,1.53.5,2.07.68,1.39.45,1.72.56,1.69.75h0c-.02.11-.14.15-.49.15ZM4.12,16.29c-.33,0-.62.03-.86.09-.13.04-.54.15-.58.36-.04.22.33.49.45.58,1.51,1.09,6.3,1.34,6.84,1.36.91.04,1.61.08,2.19.12.93.05,1.55.09,1.66.03-.08-.1-.68-.29-1.59-.58-.54-.17-1.22-.39-2.07-.68-.04-.01-3.84-1.28-6.03-1.28Z" fill="#faf5ca"/>
    <path d="M14.72,16.69c-.19,0-.6-.2-1.58-.68-.51-.25-1.15-.56-1.97-.94-.49-.23-4.86-2.3-5.86-3.93-.1-.16-.37-.6-.19-.86.17-.26.64-.2.81-.18,1.93.24,5.82,3.62,5.99,3.77.68.59,1.22,1.05,1.65,1.42,1.11.95,1.38,1.17,1.27,1.34-.03.04-.06.06-.12.06ZM5.64,10.23c-.16,0-.33.03-.4.13-.12.19.11.58.19.71.98,1.59,5.31,3.65,5.8,3.88.82.38,1.46.69,1.97.94.84.41,1.4.69,1.52.66-.04-.12-.52-.53-1.24-1.14-.43-.37-.98-.83-1.65-1.42-.04-.04-4.03-3.5-5.91-3.73-.06,0-.16-.02-.28-.02Z" fill="#faf5ca"/>
    <path d="M16.45,14.94c-.16,0-.45-.32-1.27-1.24-.38-.43-.85-.96-1.46-1.63-.37-.4-3.61-3.99-3.91-5.87-.03-.19-.11-.69.15-.87.25-.17.66.06.82.15,1.65.94,3.9,5.37,4.09,5.78h0c.4.8.72,1.44.98,1.94.67,1.3.83,1.61.67,1.72-.02.01-.05.02-.07.02ZM10.19,5.41c-.05,0-.1.01-.14.04-.19.13-.12.58-.09.73.29,1.84,3.51,5.4,3.87,5.8.61.67,1.08,1.2,1.46,1.63.62.69,1.03,1.16,1.15,1.19.01-.12-.28-.69-.71-1.53-.26-.51-.58-1.14-.98-1.95-.02-.05-2.38-4.77-4.03-5.71-.09-.05-.34-.19-.53-.19Z" fill="#faf5ca"/>
    <path d="M18.71,13.98c-.17,0-.3-.36-.74-1.65-.19-.54-.42-1.21-.73-2.06-.19-.51-1.8-5.07-1.36-6.92.04-.19.16-.68.47-.74.3-.06.59.31.7.45,1.19,1.53,1.55,6.68,1.57,6.9.06.9.12,1.61.16,2.17.12,1.46.15,1.8-.04,1.84,0,0-.02,0-.03,0ZM16.41,2.74s-.03,0-.04,0c-.22.05-.33.49-.36.64-.43,1.81,1.17,6.33,1.36,6.84.31.85.54,1.52.73,2.06.3.88.51,1.47.61,1.54.06-.11,0-.74-.07-1.69-.05-.57-.1-1.28-.16-2.17,0-.05-.38-5.32-1.54-6.82-.08-.1-.31-.4-.52-.4Z" fill="#faf5ca"/>
    <path d="M21.16,13.95s-.02,0-.03,0h0c-.19-.04-.17-.38-.09-1.81.03-.57.07-1.28.12-2.18.02-.55.27-5.37,1.39-6.91.11-.15.41-.57.72-.51.3.06.43.51.47.69.51,1.87-1.12,6.77-1.19,6.97-.29.85-.5,1.53-.68,2.07-.43,1.33-.55,1.69-.72,1.69ZM23.22,2.67c-.22,0-.46.34-.54.45-1.09,1.51-1.34,6.3-1.36,6.84-.04.9-.08,1.61-.12,2.18-.05.93-.09,1.55-.03,1.66.1-.08.29-.68.58-1.58.18-.54.39-1.22.68-2.07.02-.05,1.69-5.06,1.19-6.89-.04-.13-.15-.54-.36-.58-.01,0-.02,0-.04,0Z" fill="#faf5ca"/>
    <path d="M23.43,14.87s-.05,0-.07-.02h0c-.16-.11-.01-.41.61-1.71.25-.51.56-1.15.94-1.97.23-.49,2.31-4.86,3.93-5.86.16-.1.59-.37.86-.19.26.17.2.64.18.81-.24,1.93-3.62,5.82-3.77,5.99-.59.68-1.05,1.22-1.42,1.65-.82.97-1.1,1.29-1.27,1.29ZM29.5,5.2c-.2,0-.47.17-.57.23-1.59.98-3.65,5.31-3.88,5.8-.38.82-.69,1.46-.94,1.97-.4.84-.68,1.4-.66,1.52.12-.04.53-.52,1.14-1.24.37-.43.83-.98,1.42-1.65.04-.04,3.5-4.03,3.73-5.91.02-.14.07-.56-.11-.68-.04-.02-.08-.04-.13-.04Z" fill="#faf5ca"/>
    <path d="M25.2,16.58c-.06,0-.09-.02-.12-.06-.11-.16.15-.39,1.22-1.34.43-.38.96-.85,1.62-1.46.4-.37,3.99-3.61,5.87-3.91.19-.03.69-.11.87.15.17.25-.06.66-.15.82-.95,1.67-5.57,3.99-5.77,4.09-.81.4-1.44.73-1.95.99-1,.51-1.41.72-1.6.72ZM25.21,16.44c.12,0,.69-.28,1.53-.71.51-.26,1.14-.58,1.95-.98h0c.19-.1,4.78-2.4,5.71-4.03.07-.12.28-.49.16-.67-.13-.19-.58-.12-.73-.09-1.84.29-5.4,3.51-5.8,3.87-.67.61-1.2,1.08-1.63,1.46-.69.62-1.16,1.03-1.19,1.15Z" fill="#faf5ca"/>
    <path d="M26.44,18.87c-.29,0-.39-.04-.41-.14-.04-.19.28-.3,1.64-.77.54-.19,1.21-.42,2.06-.73.51-.19,5.07-1.8,6.92-1.36.19.04.68.16.74.47.06.3-.31.59-.45.7-1.53,1.19-6.68,1.55-6.9,1.57-.9.06-1.61.12-2.17.16-.71.06-1.16.09-1.43.09ZM26.17,18.7c.11.06.74,0,1.69-.07.57-.05,1.28-.1,2.18-.16.05,0,5.32-.38,6.82-1.54.11-.09.44-.34.4-.56-.05-.22-.49-.33-.64-.36-1.81-.43-6.33,1.17-6.84,1.36-.85.31-1.52.54-2.06.73-.88.3-1.47.51-1.54.61Z" fill="#faf5ca"/>
    <path d="M35.87,23.85c-2.2,0-5.89-1.23-6.07-1.29-.85-.29-1.53-.51-2.07-.68-1.39-.45-1.72-.56-1.69-.75.04-.19.38-.17,1.81-.09.57.03,1.28.07,2.18.12.55.02,5.37.27,6.91,1.39.15.11.57.41.51.72-.06.3-.51.43-.68.47-.25.07-.56.1-.91.1ZM26.2,21.16c.08.1.68.29,1.58.58.54.18,1.22.39,2.07.68.05.02,5.06,1.69,6.89,1.19.13-.04.54-.15.58-.36.04-.22-.33-.49-.45-.58-1.51-1.09-6.3-1.34-6.84-1.36-.91-.04-1.62-.08-2.19-.12-.93-.05-1.55-.09-1.66-.03Z" fill="#faf5ca"/>
    <path d="M34.36,29.91c-.12,0-.23-.01-.29-.02-1.91-.24-5.82-3.62-5.99-3.77-.68-.59-1.22-1.05-1.66-1.42-1.11-.95-1.38-1.17-1.27-1.33h0c.11-.16.41-.01,1.71.61.51.25,1.15.56,1.97.94.49.23,4.86,2.3,5.86,3.93.1.16.37.59.19.86-.11.16-.33.2-.52.2ZM28.17,26.01h0c.16.14,4.04,3.5,5.91,3.73.14.02.56.07.68-.11.12-.19-.11-.58-.19-.71-.98-1.59-5.31-3.65-5.8-3.88-.82-.38-1.46-.69-1.97-.94-.84-.4-1.4-.67-1.52-.66.04.12.52.53,1.24,1.14.43.37.98.83,1.66,1.42Z" fill="#faf5ca"/>
    <path d="M29.81,34.73c-.23,0-.48-.15-.6-.21-1.69-.96-3.99-5.58-4.09-5.77-.4-.81-.72-1.44-.98-1.94-.67-1.3-.83-1.61-.67-1.72.16-.11.39.15,1.34,1.22.38.43.85.96,1.46,1.63.37.4,3.61,3.99,3.91,5.87.03.19.11.69-.15.87-.07.04-.14.06-.22.06ZM23.56,25.21c-.01.12.28.69.71,1.53.26.51.58,1.14.98,1.95.02.05,2.38,4.77,4.03,5.71.12.07.49.28.67.16.19-.13.12-.58.09-.73-.29-1.84-3.51-5.4-3.87-5.8-.61-.67-1.08-1.2-1.46-1.63-.62-.69-1.03-1.16-1.15-1.19Z" fill="#faf5ca"/>
    <path d="M23.59,37.4c-.28,0-.53-.33-.63-.46-1.19-1.53-1.55-6.68-1.57-6.9-.06-.9-.12-1.6-.16-2.17-.12-1.46-.15-1.8.04-1.84h0c.19-.04.3.28.77,1.64.19.54.42,1.21.73,2.06.19.51,1.8,5.06,1.36,6.92-.04.19-.16.68-.47.74-.02,0-.05,0-.07,0ZM21.3,26.17c-.06.11,0,.74.07,1.69.05.57.1,1.28.16,2.17,0,.05.38,5.32,1.54,6.82.09.11.34.45.56.4.22-.05.33-.49.36-.64.43-1.82-1.17-6.33-1.36-6.84-.31-.85-.54-1.52-.73-2.06-.3-.88-.51-1.47-.61-1.54Z" fill="#faf5ca"/>
  </g>
  <g>
    <path d="M12.48,38.52s-.05,0-.07-.01c-.14-.06-.15-.27-.16-.35-.05-.8,1-2.62,1.04-2.7.18-.32.33-.57.44-.77.33-.58.38-.67.49-.63.11.04.08.14-.09.78-.06.22-.13.5-.22.86-.09.35-.56,2.14-1.12,2.66-.05.05-.18.16-.3.16ZM14.11,34.3c-.06.1-.15.26-.26.45-.11.2-.25.45-.44.77-.01.02-1.07,1.87-1.02,2.62.01.17.05.22.07.22.02,0,.08,0,.22-.12.55-.5,1.03-2.38,1.08-2.59.09-.36.16-.64.22-.86.06-.21.1-.38.13-.5Z" fill="#f3bb1f"/>
    <path d="M6.06,34.25c-.06,0-.12-.01-.16-.06-.11-.11-.04-.31-.01-.38.26-.76,1.93-2.04,2-2.1.29-.22.52-.4.7-.54.53-.41.61-.48.69-.4h0c.08.08.02.16-.38.69-.14.18-.31.41-.53.71-.13.18-1.32,1.76-2.06,2.03-.05.02-.15.05-.24.05ZM9.09,30.96c-.1.07-.24.18-.42.32-.18.14-.41.32-.7.54-.02.01-1.71,1.31-1.95,2.03-.06.17-.04.22-.02.23.02.02.07.04.25-.03.7-.26,1.86-1.8,1.99-1.98.22-.29.4-.53.53-.71.13-.17.24-.31.31-.41Z" fill="#f3bb1f"/>
    <path d="M1.96,27.87s-.03,0-.04,0c-.09,0-.31-.01-.37-.16-.06-.14.08-.3.13-.36.53-.6,2.56-1.15,2.65-1.17.35-.09.63-.17.85-.23.64-.18.74-.21.79-.1h0c.05.11-.04.16-.61.49-.2.11-.45.26-.76.45-.31.18-1.86,1.09-2.64,1.09ZM5.72,25.95c-.12.03-.29.08-.51.14-.22.06-.5.14-.85.23-.02,0-2.08.56-2.58,1.13-.12.13-.12.19-.11.21,0,.02.05.06.24.07.01,0,.02,0,.03,0,.76,0,2.38-.95,2.56-1.07.32-.19.57-.34.77-.45.19-.11.34-.2.44-.26Z" fill="#f3bb1f"/>
    <path d="M1.42,20.51c-.45,0-.87-.04-1.14-.16C.21,20.32,0,20.22,0,20.06c0-.15.19-.24.26-.28.72-.36,2.81-.08,2.9-.07.36.05.65.08.88.11.66.08.77.09.77.21,0,.12-.1.13-.75.22-.23.03-.52.07-.88.12-.14.02-.98.14-1.75.14ZM1.52,19.75c-.48,0-.94.04-1.19.17-.16.08-.18.13-.18.15,0,.02.03.08.2.16.68.31,2.59.04,2.81,0,.36-.05.65-.09.88-.12.21-.03.39-.05.51-.07-.12-.02-.3-.04-.52-.07-.23-.03-.52-.06-.88-.11-.01,0-.84-.11-1.62-.11Z" fill="#f3bb1f"/>
    <path d="M5.84,14.28c-.1,0-.29-.05-.67-.15-.22-.06-.5-.13-.86-.22-.35-.09-2.14-.56-2.66-1.12-.06-.06-.21-.23-.15-.37.06-.14.27-.15.35-.16.8-.05,2.62,1,2.7,1.04.32.18.57.33.77.44.58.33.67.38.63.49-.02.04-.04.06-.11.06ZM1.91,12.39s-.04,0-.05,0c-.18.01-.22.05-.22.07,0,.02-.01.08.12.22.5.55,2.38,1.03,2.59,1.08.36.09.64.16.86.22.21.06.38.1.5.13-.1-.06-.26-.15-.45-.26-.2-.11-.45-.25-.77-.44-.02-.01-1.78-1.03-2.57-1.03Z" fill="#f3bb1f"/>
    <path d="M9.16,9.31c-.08,0-.22-.11-.62-.41-.18-.14-.41-.32-.71-.53-.18-.13-1.76-1.32-2.03-2.06-.03-.08-.11-.29,0-.4.11-.11.31-.04.38-.01.76.26,2.04,1.93,2.1,2,.22.29.4.52.54.7.41.53.48.61.4.69-.02.02-.04.03-.07.03ZM5.97,5.99s-.05,0-.06.02c-.02.02-.04.07.03.25.26.7,1.8,1.86,1.98,1.99.3.22.53.4.71.54.17.13.31.24.41.31-.07-.1-.18-.24-.32-.41-.14-.18-.32-.41-.54-.7-.01-.02-1.31-1.71-2.03-1.95-.08-.03-.14-.04-.17-.04Z" fill="#f3bb1f"/>
    <path d="M14.11,5.98c-.08,0-.16-.13-.45-.62-.11-.2-.26-.45-.45-.76-.19-.31-1.12-1.91-1.09-2.68,0-.09.01-.31.16-.37.14-.06.3.08.36.13.6.53,1.15,2.56,1.17,2.65.09.35.17.63.23.85.18.65.21.74.1.79h0s-.03.01-.04.01ZM12.36,1.68s-.01,0-.02,0c-.02,0-.06.05-.07.24-.03.74.95,2.41,1.06,2.59.19.32.34.57.45.77.11.19.2.34.26.44-.03-.12-.08-.29-.14-.51-.06-.22-.14-.5-.23-.85,0-.02-.56-2.08-1.13-2.58-.11-.09-.16-.11-.19-.11Z" fill="#f3bb1f"/>
    <path d="M19.97,4.8c-.11,0-.13-.1-.22-.75-.03-.23-.07-.51-.12-.88-.03-.22-.31-2.17.02-2.89.04-.08.13-.28.29-.28h0c.15,0,.24.19.28.26.36.72.08,2.81.07,2.9-.05.36-.08.65-.11.88-.08.67-.09.77-.21.77h0ZM19.94.14s-.07.02-.16.2c-.25.55-.13,2.02,0,2.81.05.36.09.65.12.88.03.21.05.39.07.51.02-.12.04-.3.07-.52.03-.23.06-.52.11-.88,0-.02.28-2.13-.06-2.81-.08-.16-.13-.18-.15-.18Z" fill="#f3bb1f"/>
    <path d="M25.83,5.95s-.03,0-.04,0c-.11-.04-.08-.14.09-.78.06-.22.13-.5.22-.86.05-.22.55-2.13,1.12-2.66.06-.06.23-.21.37-.15.14.06.15.27.16.35.05.8-1,2.63-1.04,2.7-.18.32-.33.57-.44.77-.28.5-.36.64-.44.64ZM27.52,1.63s-.09.02-.21.13c-.55.5-1.03,2.38-1.08,2.59-.09.36-.16.64-.22.86-.06.21-.1.38-.13.5.06-.1.15-.26.26-.45.11-.2.25-.45.44-.77.01-.02,1.07-1.87,1.02-2.62-.01-.18-.05-.22-.07-.22,0,0,0,0-.02,0Z" fill="#f3bb1f"/>
    <path d="M30.79,9.26s-.05-.01-.07-.03h0c-.08-.08-.02-.16.38-.68.14-.18.32-.41.53-.71.13-.18,1.32-1.76,2.06-2.03.08-.03.29-.11.4,0,.11.11.04.31.01.38-.26.76-1.93,2.04-2,2.1-.29.22-.52.4-.7.54-.4.31-.54.43-.62.43ZM33.94,5.9s-.1.01-.19.05c-.7.26-1.86,1.8-1.99,1.98-.22.3-.4.53-.54.71-.13.17-.24.31-.31.41.1-.07.24-.18.42-.32.18-.14.41-.32.7-.54.02-.01,1.71-1.31,1.95-2.03.06-.17.04-.22.02-.23,0,0-.02-.02-.06-.02Z" fill="#f3bb1f"/>
    <path d="M34.14,14.22c-.06,0-.09-.02-.11-.06h0c-.05-.11.04-.16.61-.49.2-.11.45-.26.76-.45.19-.11,1.88-1.12,2.67-1.09.09,0,.31.01.37.16.06.14-.08.3-.13.36-.53.6-2.56,1.15-2.65,1.17-.35.09-.63.17-.85.23-.39.11-.58.16-.68.16ZM38.04,12.27c-.62,0-1.9.67-2.56,1.07-.32.19-.57.34-.77.45-.19.11-.34.2-.44.26.12-.03.29-.08.5-.14.22-.06.5-.14.85-.23.02,0,2.08-.56,2.58-1.13.12-.13.12-.19.11-.21,0-.02-.05-.06-.24-.07-.01,0-.02,0-.03,0Z" fill="#f3bb1f"/>
    <path d="M38.47,20.4c-.78,0-1.57-.1-1.63-.11-.36-.05-.65-.08-.88-.11-.67-.08-.77-.09-.77-.21h0c0-.12.1-.13.75-.22.23-.03.51-.07.88-.12.22-.03,2.17-.31,2.89.02.09.04.28.13.28.29,0,.15-.19.25-.26.28-.28.14-.77.18-1.27.18ZM35.47,19.97c.12.02.3.04.52.07.23.03.52.06.88.11.02,0,2.13.28,2.81-.06.16-.08.18-.13.18-.15,0-.02-.03-.08-.2-.16-.68-.31-2.59-.04-2.81,0-.36.05-.65.09-.88.12-.21.03-.39.05-.51.07Z" fill="#f3bb1f"/>
    <path d="M38.09,27.76c-.83,0-2.56-1-2.64-1.04-.32-.18-.57-.33-.77-.44-.58-.33-.67-.38-.63-.49.04-.11.14-.08.78.09.22.06.5.13.86.22.35.09,2.14.56,2.66,1.12.06.06.21.23.15.37-.06.14-.27.15-.35.16-.02,0-.04,0-.06,0ZM34.3,25.89c.1.06.26.15.45.26.2.11.45.26.77.44.02.01,1.87,1.07,2.62,1.02.18-.01.22-.05.22-.07,0-.02,0-.08-.12-.22-.5-.55-2.38-1.03-2.59-1.08-.36-.09-.64-.16-.86-.22-.21-.06-.38-.1-.5-.13Z" fill="#f3bb1f"/>
    <path d="M34.02,34.15c-.09,0-.17-.03-.22-.04-.76-.26-2.04-1.93-2.1-2-.22-.29-.4-.52-.54-.7-.41-.53-.48-.61-.4-.69h0c.08-.08.16-.02.69.38.18.14.41.32.71.53.18.13,1.76,1.32,2.03,2.06.03.08.11.29,0,.4-.04.04-.1.06-.16.06ZM30.96,30.91c.07.1.18.24.32.42.14.18.32.41.54.7.01.02,1.31,1.71,2.03,1.95.17.06.22.04.23.02.02-.02.04-.07-.03-.25-.26-.7-1.8-1.86-1.98-1.99-.3-.22-.53-.4-.71-.54-.17-.13-.31-.24-.41-.31Z" fill="#f3bb1f"/>
    <path d="M27.64,38.47c-.12,0-.24-.1-.29-.15-.6-.53-1.15-2.56-1.17-2.65-.09-.35-.17-.63-.23-.85-.18-.64-.21-.74-.1-.79.11-.05.16.04.49.61.11.2.26.45.45.76.19.31,1.12,1.91,1.09,2.68,0,.08-.01.31-.16.37-.02,0-.05.01-.07.01ZM25.95,34.27c.03.12.08.29.14.5.06.22.14.5.23.86,0,.02.56,2.08,1.13,2.58.13.12.19.12.21.11.02,0,.06-.05.07-.24.03-.74-.95-2.41-1.06-2.59-.19-.32-.34-.57-.45-.77-.11-.19-.2-.34-.26-.44Z" fill="#f3bb1f"/>
    <path d="M20.06,40c-.15,0-.24-.19-.28-.26-.36-.72-.08-2.81-.07-2.9.05-.36.08-.65.11-.88.08-.66.09-.77.21-.77v.07s0-.07,0-.07h0c.11,0,.13.1.22.75.03.23.07.51.12.88.03.22.31,2.17-.02,2.89-.04.08-.13.28-.29.28h0ZM20.03,35.47c-.02.12-.04.3-.07.52-.03.23-.06.52-.11.88,0,.02-.28,2.13.06,2.81.08.16.13.18.15.18h0s.07-.02.16-.2c.31-.68.04-2.59,0-2.81-.05-.36-.09-.65-.12-.88-.03-.21-.05-.39-.07-.51Z" fill="#f3bb1f"/>
  </g>
</svg>