<?xml version="1.0" encoding="UTF-8"?>
<svg id="a" data-name="图层 1" xmlns="http://www.w3.org/2000/svg" width="401" height="400.5" viewBox="0 0 401 400.5">
  <g>
    <g id="b" data-name="&amp;lt;径向重复&amp;gt;">
      <path d="M98.5,297c-3.49-3.43-3.14-9.08.75-12.07,7.72-5.92,15.43-11.84,23.15-17.76,8.52-6.54,17.05-13.08,25.57-19.62.25-.19.61-.17.84.05.21.2.28.53.05.82l-38.07,47.83c-3.04,3.82-8.8,4.17-12.29.74Z" fill="none" stroke="#f8ca78" stroke-miterlimit="10"/>
    </g>
    <g id="c" data-name="&amp;lt;径向重复&amp;gt;">
      <path d="M71.97,261.16c-2.24-4.32-.13-9.59,4.51-11.25,9.2-3.29,18.41-6.58,27.61-9.87,10.16-3.63,20.33-7.27,30.49-10.9.3-.11.64.02.78.3.13.26.1.59-.21.8l-51.26,33.94c-4.09,2.71-9.68,1.29-11.92-3.03Z" fill="none" stroke="#f8ca78" stroke-miterlimit="10"/>
    </g>
    <g id="d" data-name="&amp;lt;径向重复&amp;gt;">
      <path d="M58.02,219.01c-.77-4.79,2.9-9.16,7.83-9.33,9.79-.34,19.58-.67,29.36-1.01,10.81-.37,21.62-.74,32.43-1.11.32-.01.6.21.65.52.05.28-.09.59-.45.69l-59.44,16.73c-4.75,1.34-9.61-1.71-10.39-6.5Z" fill="none" stroke="#f8ca78" stroke-miterlimit="10"/>
    </g>
    <g id="e" data-name="&amp;lt;径向重复&amp;gt;">
      <path d="M58.02,174.7c.77-4.79,5.64-7.83,10.38-6.5,9.41,2.65,18.83,5.3,28.24,7.95,10.4,2.93,20.8,5.85,31.19,8.78.31.09.5.39.45.69-.05.28-.27.54-.65.52l-61.79-2.12c-4.93-.17-8.6-4.54-7.83-9.33Z" fill="none" stroke="#f8ca78" stroke-miterlimit="10"/>
    </g>
    <g id="f" data-name="&amp;lt;径向重复&amp;gt;">
      <path d="M71.97,132.56c2.24-4.32,7.83-5.74,11.92-3.03,8.12,5.38,16.24,10.75,24.36,16.13,8.97,5.94,17.94,11.88,26.9,17.81.26.17.35.52.21.8-.13.26-.43.43-.78.3l-58.1-20.77c-4.64-1.66-6.75-6.93-4.51-11.25Z" fill="none" stroke="#f8ca78" stroke-miterlimit="10"/>
    </g>
    <g id="g" data-name="&amp;lt;径向重复&amp;gt;">
      <path d="M98.5,96.71c3.49-3.43,9.25-3.08,12.29.74,6.03,7.58,12.06,15.15,18.09,22.73,6.66,8.37,13.32,16.74,19.98,25.1.2.25.17.6-.05.82-.21.2-.54.28-.84.05l-48.72-37.38c-3.89-2.98-4.24-8.64-.75-12.07Z" fill="none" stroke="#f8ca78" stroke-miterlimit="10"/>
    </g>
    <g id="h" data-name="&amp;lt;径向重复&amp;gt;">
      <path d="M135.01,70.66c4.4-2.2,9.77-.12,11.46,4.43,3.35,9.04,6.7,18.07,10.05,27.11,3.7,9.98,7.4,19.96,11.1,29.94.11.29-.02.62-.31.77-.26.13-.6.1-.81-.21l-34.57-50.33c-2.76-4.02-1.32-9.5,3.08-11.7Z" fill="none" stroke="#f8ca78" stroke-miterlimit="10"/>
    </g>
    <g id="i" data-name="&amp;lt;径向重复&amp;gt;">
      <path d="M177.93,56.97c4.88-.76,9.33,2.84,9.5,7.69.34,9.61.68,19.22,1.03,28.83.38,10.61.76,21.23,1.13,31.84.01.31-.22.59-.53.64-.29.04-.6-.09-.71-.44l-17.04-58.35c-1.36-4.66,1.74-9.44,6.62-10.2Z" fill="none" stroke="#f8ca78" stroke-miterlimit="10"/>
    </g>
    <g id="j" data-name="&amp;lt;径向重复&amp;gt;">
      <path d="M223.07,56.97c4.88.76,7.98,5.54,6.62,10.2-2.7,9.24-5.4,18.49-8.1,27.73-2.98,10.21-5.96,20.42-8.94,30.62-.09.3-.39.49-.71.44-.29-.04-.55-.27-.53-.64l2.16-60.67c.17-4.84,4.63-8.45,9.5-7.69Z" fill="none" stroke="#f8ca78" stroke-miterlimit="10"/>
    </g>
    <g id="k" data-name="&amp;lt;径向重复&amp;gt;">
      <path d="M265.99,70.66c4.4,2.2,5.84,7.69,3.08,11.7-5.48,7.97-10.95,15.94-16.43,23.92-6.05,8.8-12.1,17.61-18.14,26.41-.18.26-.53.35-.81.21-.26-.13-.43-.42-.31-.77l21.15-57.04c1.69-4.56,7.06-6.63,11.46-4.43Z" fill="none" stroke="#f8ca78" stroke-miterlimit="10"/>
    </g>
    <g id="l" data-name="&amp;lt;径向重复&amp;gt;">
      <path d="M302.51,96.71c3.49,3.43,3.14,9.08-.75,12.07-7.72,5.92-15.43,11.84-23.15,17.76-8.52,6.54-17.05,13.08-25.57,19.62-.25.19-.61.17-.84-.05-.21-.2-.28-.53-.05-.82l38.07-47.83c3.04-3.82,8.8-4.17,12.29-.74Z" fill="none" stroke="#f8ca78" stroke-miterlimit="10"/>
    </g>
    <g id="m" data-name="&amp;lt;径向重复&amp;gt;">
      <path d="M329.03,132.56c2.24,4.32.13,9.59-4.51,11.25-9.2,3.29-18.41,6.58-27.61,9.87-10.16,3.63-20.33,7.27-30.49,10.9-.3.11-.64-.02-.78-.3-.13-.26-.1-.59.21-.8l51.26-33.94c4.09-2.71,9.68-1.29,11.92,3.03Z" fill="none" stroke="#f8ca78" stroke-miterlimit="10"/>
    </g>
    <g id="n" data-name="&amp;lt;径向重复&amp;gt;">
      <path d="M342.98,174.7c.77,4.79-2.9,9.16-7.83,9.33-9.79.34-19.58.67-29.36,1.01-10.81.37-21.62.74-32.43,1.11-.32.01-.6-.21-.65-.52-.05-.28.09-.59.45-.69l59.44-16.73c4.75-1.34,9.61,1.71,10.39,6.5Z" fill="none" stroke="#f8ca78" stroke-miterlimit="10"/>
    </g>
    <g id="o" data-name="&amp;lt;径向重复&amp;gt;">
      <path d="M342.98,219.01c-.77,4.79-5.64,7.83-10.38,6.5-9.41-2.65-18.83-5.3-28.24-7.95-10.4-2.93-20.8-5.85-31.19-8.78-.31-.09-.5-.39-.45-.69.05-.28.27-.54.65-.52l61.79,2.12c4.93.17,8.6,4.54,7.83,9.33Z" fill="none" stroke="#f8ca78" stroke-miterlimit="10"/>
    </g>
    <g id="p" data-name="&amp;lt;径向重复&amp;gt;">
      <path d="M329.03,261.16c-2.24,4.32-7.83,5.74-11.92,3.03-8.12-5.38-16.24-10.75-24.36-16.13-8.97-5.94-17.94-11.88-26.9-17.81-.26-.17-.35-.52-.21-.8.13-.26.43-.43.78-.3l58.1,20.77c4.64,1.66,6.75,6.93,4.51,11.25Z" fill="none" stroke="#f8ca78" stroke-miterlimit="10"/>
    </g>
    <g id="q" data-name="&amp;lt;径向重复&amp;gt;">
      <path d="M302.5,297c-3.49,3.43-9.25,3.08-12.29-.74-6.03-7.58-12.06-15.15-18.09-22.73-6.66-8.37-13.32-16.74-19.98-25.1-.2-.25-.17-.6.05-.82.21-.2.54-.28.84-.05l48.72,37.38c3.89,2.98,4.24,8.64.75,12.07Z" fill="none" stroke="#f8ca78" stroke-miterlimit="10"/>
    </g>
    <g id="r" data-name="&amp;lt;径向重复&amp;gt;">
      <path d="M265.99,323.05c-4.4,2.2-9.77.12-11.46-4.43-3.35-9.04-6.7-18.07-10.05-27.11-3.7-9.98-7.4-19.96-11.1-29.94-.11-.29.02-.62.31-.77.26-.13.6-.1.81.21l34.57,50.33c2.76,4.02,1.32,9.5-3.08,11.7Z" fill="none" stroke="#f8ca78" stroke-miterlimit="10"/>
    </g>
    <g id="s" data-name="&amp;lt;径向重复&amp;gt;">
      <path d="M223.06,336.74c-4.88.76-9.33-2.84-9.5-7.69-.34-9.61-.68-19.22-1.03-28.83-.38-10.61-.76-21.23-1.13-31.84-.01-.31.22-.59.53-.64.29-.04.6.09.71.44l17.04,58.35c1.36,4.66-1.74,9.44-6.62,10.2Z" fill="none" stroke="#f8ca78" stroke-miterlimit="10"/>
    </g>
    <g id="t" data-name="&amp;lt;径向重复&amp;gt;">
      <path d="M177.93,336.74c-4.88-.76-7.98-5.54-6.62-10.2,2.7-9.24,5.4-18.49,8.1-27.73,2.98-10.21,5.96-20.42,8.94-30.62.09-.3.39-.49.71-.44.29.04.55.27.53.64l-2.16,60.67c-.17,4.84-4.63,8.45-9.5,7.69Z" fill="none" stroke="#f8ca78" stroke-miterlimit="10"/>
    </g>
    <g id="u" data-name="&amp;lt;径向重复&amp;gt;">
      <path d="M135.01,323.05c-4.4-2.2-5.84-7.69-3.08-11.7,5.48-7.97,10.95-15.94,16.43-23.92,6.05-8.8,12.1-17.61,18.14-26.41.18-.26.53-.35.81-.21.26.13.43.42.31.77l-21.15,57.04c-1.69,4.56-7.06,6.63-11.46,4.43Z" fill="none" stroke="#f8ca78" stroke-miterlimit="10"/>
    </g>
  </g>
  <g>
    <g id="v" data-name="&amp;lt;径向重复&amp;gt;">
      <path d="M165.99,230.74c-1.18-1.16-1.06-3.07.25-4.08,2.61-2,5.22-4.01,7.83-6.01,2.88-2.21,5.77-4.42,8.65-6.64.08-.07.21-.06.28.02.07.07.1.18.02.28l-12.88,16.18c-1.03,1.29-2.98,1.41-4.16.25Z" fill="none" stroke="#ef8026" stroke-miterlimit="10"/>
    </g>
    <g id="w" data-name="&amp;lt;径向重复&amp;gt;">
      <path d="M157.02,218.61c-.76-1.46-.04-3.24,1.53-3.81,3.11-1.11,6.23-2.23,9.34-3.34,3.44-1.23,6.88-2.46,10.32-3.69.1-.04.22,0,.26.1.04.09.03.2-.07.27l-17.34,11.48c-1.38.92-3.27.44-4.03-1.02Z" fill="none" stroke="#ef8026" stroke-miterlimit="10"/>
    </g>
    <g id="x" data-name="&amp;lt;径向重复&amp;gt;">
      <path d="M152.29,204.35c-.26-1.62.98-3.1,2.65-3.16,3.31-.11,6.62-.23,9.93-.34,3.66-.13,7.31-.25,10.97-.38.11,0,.2.07.22.18.02.1-.03.2-.15.23l-20.11,5.66c-1.61.45-3.25-.58-3.51-2.2Z" fill="none" stroke="#ef8026" stroke-miterlimit="10"/>
    </g>
    <g id="y" data-name="&amp;lt;径向重复&amp;gt;">
      <path d="M152.3,189.36c.26-1.62,1.91-2.65,3.51-2.2,3.19.9,6.37,1.79,9.56,2.69,3.52.99,7.04,1.98,10.55,2.97.1.03.17.13.15.23-.02.1-.09.18-.22.18l-20.91-.72c-1.67-.06-2.91-1.54-2.65-3.16Z" fill="none" stroke="#ef8026" stroke-miterlimit="10"/>
    </g>
    <g id="z" data-name="&amp;lt;径向重复&amp;gt;">
      <path d="M157.01,175.1c.76-1.46,2.65-1.94,4.03-1.02,2.75,1.82,5.49,3.64,8.24,5.46,3.03,2.01,6.07,4.02,9.1,6.03.09.06.12.18.07.27-.04.09-.15.14-.26.1l-19.66-7.03c-1.57-.56-2.29-2.34-1.53-3.81Z" fill="none" stroke="#ef8026" stroke-miterlimit="10"/>
    </g>
    <g id="aa" data-name="&amp;lt;径向重复&amp;gt;">
      <path d="M165.99,162.98c1.18-1.16,3.13-1.04,4.16.25,2.04,2.56,4.08,5.13,6.12,7.69,2.25,2.83,4.51,5.66,6.76,8.49.07.08.06.2-.02.28-.07.07-.18.09-.28.02l-16.48-12.65c-1.32-1.01-1.44-2.92-.25-4.08Z" fill="none" stroke="#ef8026" stroke-miterlimit="10"/>
    </g>
    <g id="ab" data-name="&amp;lt;径向重复&amp;gt;">
      <path d="M178.34,154.16c1.49-.74,3.3-.04,3.88,1.5,1.13,3.06,2.27,6.11,3.4,9.17,1.25,3.38,2.5,6.75,3.76,10.13.04.1,0,.21-.1.26-.09.04-.2.03-.27-.07l-11.7-17.03c-.93-1.36-.45-3.22,1.04-3.96Z" fill="none" stroke="#ef8026" stroke-miterlimit="10"/>
    </g>
    <g id="ac" data-name="&amp;lt;径向重复&amp;gt;">
      <path d="M192.87,149.53c1.65-.26,3.16.96,3.21,2.6.12,3.25.23,6.5.35,9.75.13,3.59.26,7.18.38,10.77,0,.11-.07.2-.18.21-.1.02-.2-.03-.24-.15l-5.76-19.74c-.46-1.58.59-3.19,2.24-3.45Z" fill="none" stroke="#ef8026" stroke-miterlimit="10"/>
    </g>
    <g id="ad" data-name="&amp;lt;径向重复&amp;gt;">
      <path d="M208.13,149.53c1.65.26,2.7,1.87,2.24,3.45-.91,3.13-1.83,6.25-2.74,9.38-1.01,3.45-2.02,6.91-3.03,10.36-.03.1-.13.17-.24.15-.1-.02-.18-.09-.18-.21l.73-20.52c.06-1.64,1.56-2.86,3.21-2.6Z" fill="none" stroke="#ef8026" stroke-miterlimit="10"/>
    </g>
    <g id="ae" data-name="&amp;lt;径向重复&amp;gt;">
      <path d="M222.66,154.16c1.49.74,1.98,2.6,1.04,3.96-1.85,2.7-3.71,5.39-5.56,8.09-2.05,2.98-4.09,5.96-6.14,8.94-.06.09-.18.12-.27.07-.09-.04-.15-.14-.1-.26l7.16-19.3c.57-1.54,2.39-2.24,3.88-1.5Z" fill="none" stroke="#ef8026" stroke-miterlimit="10"/>
    </g>
    <g id="af" data-name="&amp;lt;径向重复&amp;gt;">
      <path d="M235.01,162.98c1.18,1.16,1.06,3.07-.25,4.08-2.61,2-5.22,4.01-7.83,6.01-2.88,2.21-5.77,4.42-8.65,6.64-.08.07-.21.06-.28-.02-.07-.07-.1-.18-.02-.28l12.88-16.18c1.03-1.29,2.98-1.41,4.16-.25Z" fill="none" stroke="#ef8026" stroke-miterlimit="10"/>
    </g>
    <g id="ag" data-name="&amp;lt;径向重复&amp;gt;">
      <path d="M243.99,175.1c.76,1.46.04,3.24-1.53,3.81-3.11,1.11-6.23,2.23-9.34,3.34-3.44,1.23-6.88,2.46-10.32,3.69-.1.04-.22,0-.26-.1-.04-.09-.03-.2.07-.27l17.34-11.48c1.38-.92,3.27-.44,4.03,1.02Z" fill="none" stroke="#ef8026" stroke-miterlimit="10"/>
    </g>
    <g id="ah" data-name="&amp;lt;径向重复&amp;gt;">
      <path d="M248.71,189.36c.26,1.62-.98,3.1-2.65,3.16-3.31.11-6.62.23-9.93.34-3.66.13-7.31.25-10.97.38-.11,0-.2-.07-.22-.18-.02-.1.03-.2.15-.23l20.11-5.66c1.61-.45,3.25.58,3.51,2.2Z" fill="none" stroke="#ef8026" stroke-miterlimit="10"/>
    </g>
    <g id="ai" data-name="&amp;lt;径向重复&amp;gt;">
      <path d="M248.71,204.35c-.26,1.62-1.91,2.65-3.51,2.2-3.19-.9-6.37-1.79-9.56-2.69-3.52-.99-7.04-1.98-10.55-2.97-.1-.03-.17-.13-.15-.23.02-.1.09-.18.22-.18l20.91.72c1.67.06,2.91,1.54,2.65,3.16Z" fill="none" stroke="#ef8026" stroke-miterlimit="10"/>
    </g>
    <g id="aj" data-name="&amp;lt;径向重复&amp;gt;">
      <path d="M243.98,218.61c-.76,1.46-2.65,1.94-4.03,1.02-2.75-1.82-5.49-3.64-8.24-5.46-3.03-2.01-6.07-4.02-9.1-6.03-.09-.06-.12-.18-.07-.27.04-.09.15-.14.26-.1l19.66,7.03c1.57.56,2.29,2.34,1.53,3.81Z" fill="none" stroke="#ef8026" stroke-miterlimit="10"/>
    </g>
    <g id="ak" data-name="&amp;lt;径向重复&amp;gt;">
      <path d="M235.01,230.74c-1.18,1.16-3.13,1.04-4.16-.25-2.04-2.56-4.08-5.13-6.12-7.69-2.25-2.83-4.51-5.66-6.76-8.49-.07-.08-.06-.2.02-.28.07-.07.18-.09.28-.02l16.48,12.65c1.32,1.01,1.44,2.92.25,4.08Z" fill="none" stroke="#ef8026" stroke-miterlimit="10"/>
    </g>
    <g id="al" data-name="&amp;lt;径向重复&amp;gt;">
      <path d="M222.65,239.55c-1.49.74-3.3.04-3.88-1.5-1.13-3.06-2.27-6.11-3.4-9.17-1.25-3.38-2.5-6.75-3.76-10.13-.04-.1,0-.21.1-.26.09-.04.2-.03.27.07l11.7,17.03c.93,1.36.45,3.22-1.04,3.96Z" fill="none" stroke="#ef8026" stroke-miterlimit="10"/>
    </g>
    <g id="am" data-name="&amp;lt;径向重复&amp;gt;">
      <path d="M208.13,244.18c-1.65.26-3.16-.96-3.21-2.6-.12-3.25-.23-6.5-.35-9.75-.13-3.59-.26-7.18-.38-10.77,0-.11.07-.2.18-.21.1-.02.2.03.24.15l5.76,19.74c.46,1.58-.59,3.19-2.24,3.45Z" fill="none" stroke="#ef8026" stroke-miterlimit="10"/>
    </g>
    <g id="an" data-name="&amp;lt;径向重复&amp;gt;">
      <path d="M192.86,244.18c-1.65-.26-2.7-1.87-2.24-3.45.91-3.13,1.83-6.25,2.74-9.38,1.01-3.45,2.02-6.91,3.03-10.36.03-.1.13-.17.24-.15.1.02.18.09.18.21l-.73,20.52c-.06,1.64-1.56,2.86-3.21,2.6Z" fill="none" stroke="#ef8026" stroke-miterlimit="10"/>
    </g>
    <g id="ao" data-name="&amp;lt;径向重复&amp;gt;">
      <path d="M178.34,239.55c-1.49-.74-1.98-2.6-1.04-3.96,1.85-2.7,3.71-5.39,5.56-8.09,2.05-2.98,4.09-5.96,6.14-8.94.06-.09.18-.12.27-.07.09.04.15.14.1.26l-7.16,19.3c-.57,1.54-2.39,2.24-3.88,1.5Z" fill="none" stroke="#ef8026" stroke-miterlimit="10"/>
    </g>
  </g>
  <g>
    <g id="ap" data-name="&amp;lt;径向重复&amp;gt;">
      <polygon points="195.76 393.21 200.5 256.85 205.24 393.21 195.76 393.21" fill="none" stroke="#e9562a" stroke-miterlimit="10"/>
    </g>
    <g id="aq" data-name="&amp;lt;径向重复&amp;gt;">
      <polygon points="134.19 382.17 181.62 253.92 143.21 385.04 134.19 382.17" fill="none" stroke="#e9562a" stroke-miterlimit="10"/>
    </g>
    <g id="ar" data-name="&amp;lt;径向重复&amp;gt;">
      <polygon points="79.11 352.97 164.58 245.39 86.78 358.45 79.11 352.97" fill="none" stroke="#e9562a" stroke-miterlimit="10"/>
    </g>
    <g id="as" data-name="&amp;lt;径向重复&amp;gt;">
      <polygon points="35.91 308.51 151.06 232.12 41.48 316.04 35.91 308.51" fill="none" stroke="#e9562a" stroke-miterlimit="10"/>
    </g>
    <g id="at" data-name="&amp;lt;径向重复&amp;gt;">
      <polygon points="8.82 253.11 142.38 215.39 11.75 261.96 8.82 253.11" fill="none" stroke="#e9562a" stroke-miterlimit="10"/>
    </g>
    <g id="au" data-name="&amp;lt;径向重复&amp;gt;">
      <polygon points=".5 192.2 139.39 196.86 .5 201.51 .5 192.2" fill="none" stroke="#e9562a" stroke-miterlimit="10"/>
    </g>
    <g id="av" data-name="&amp;lt;径向重复&amp;gt;">
      <polygon points="11.76 131.75 142.39 178.32 8.83 140.61 11.76 131.75" fill="none" stroke="#e9562a" stroke-miterlimit="10"/>
    </g>
    <g id="aw" data-name="&amp;lt;径向重复&amp;gt;">
      <polygon points="41.48 77.68 151.06 161.6 35.91 85.21 41.48 77.68" fill="none" stroke="#e9562a" stroke-miterlimit="10"/>
    </g>
    <g id="ax" data-name="&amp;lt;径向重复&amp;gt;">
      <polygon points="86.78 35.27 164.58 148.32 79.11 40.74 86.78 35.27" fill="none" stroke="#e9562a" stroke-miterlimit="10"/>
    </g>
    <g id="ay" data-name="&amp;lt;径向重复&amp;gt;">
      <polygon points="143.21 8.67 181.62 139.8 134.19 11.55 143.21 8.67" fill="none" stroke="#e9562a" stroke-miterlimit="10"/>
    </g>
    <g id="az" data-name="&amp;lt;径向重复&amp;gt;">
      <polygon points="205.24 .5 200.5 136.86 195.76 .5 205.24 .5" fill="none" stroke="#e9562a" stroke-miterlimit="10"/>
    </g>
    <g id="ba" data-name="&amp;lt;径向重复&amp;gt;">
      <polygon points="266.81 11.55 219.38 139.8 257.8 8.67 266.81 11.55" fill="none" stroke="#e9562a" stroke-miterlimit="10"/>
    </g>
    <g id="bb" data-name="&amp;lt;径向重复&amp;gt;">
      <polygon points="321.89 40.74 236.42 148.32 314.22 35.27 321.89 40.74" fill="none" stroke="#e9562a" stroke-miterlimit="10"/>
    </g>
    <g id="bc" data-name="&amp;lt;径向重复&amp;gt;">
      <polygon points="365.09 85.21 249.94 161.59 359.52 77.68 365.09 85.21" fill="none" stroke="#e9562a" stroke-miterlimit="10"/>
    </g>
    <g id="bd" data-name="&amp;lt;径向重复&amp;gt;">
      <polygon points="392.17 140.61 258.61 178.32 389.24 131.75 392.17 140.61" fill="none" stroke="#e9562a" stroke-miterlimit="10"/>
    </g>
    <g id="be" data-name="&amp;lt;径向重复&amp;gt;">
      <polygon points="400.5 201.51 261.61 196.86 400.5 192.2 400.5 201.51" fill="none" stroke="#e9562a" stroke-miterlimit="10"/>
    </g>
    <g id="bf" data-name="&amp;lt;径向重复&amp;gt;">
      <polygon points="389.24 261.96 258.61 215.4 392.17 253.11 389.24 261.96" fill="none" stroke="#e9562a" stroke-miterlimit="10"/>
    </g>
    <g id="bg" data-name="&amp;lt;径向重复&amp;gt;">
      <polygon points="359.51 316.04 249.93 232.12 365.09 308.51 359.51 316.04" fill="none" stroke="#e9562a" stroke-miterlimit="10"/>
    </g>
    <g id="bh" data-name="&amp;lt;径向重复&amp;gt;">
      <polygon points="314.22 358.45 236.41 245.39 321.89 352.98 314.22 358.45" fill="none" stroke="#e9562a" stroke-miterlimit="10"/>
    </g>
    <g id="bi" data-name="&amp;lt;径向重复&amp;gt;">
      <polygon points="257.79 385.04 219.38 253.91 266.81 382.16 257.79 385.04" fill="none" stroke="#e9562a" stroke-miterlimit="10"/>
    </g>
  </g>
</svg>