<?xml version="1.0" encoding="UTF-8"?>
<svg id="a" data-name="图层 1" xmlns="http://www.w3.org/2000/svg" width="401" height="401" viewBox="0 0 401 401">
  <g>
    <path d="M200.8,302.7c-2.75.02-4.87,41.13-4.86,92.81,0,2.77,2.31,5.01,5.14,4.99h0c2.84-.02,5.13-2.28,5.12-5.05-.29-51.68-2.65-92.76-5.4-92.75Z" fill="none" stroke="#4f81c2" stroke-miterlimit="10"/>
    <path d="M155.34,292.85c-2.48-1.15-22.66,35.05-45.62,81.69-1.23,2.5-.15,5.5,2.41,6.68h0c2.56,1.19,5.63.12,6.85-2.39,22.71-46.75,38.85-84.83,36.37-85.98Z" fill="none" stroke="#4f81c2" stroke-miterlimit="10"/>
    <path d="M118.83,264.7c-1.72-2.09-35.97,22.03-77.35,54.39-2.22,1.73-2.58,4.9-.8,7.05h0c1.78,2.16,5.01,2.49,7.22.74,41.21-32.57,72.65-60.09,70.93-62.18Z" fill="none" stroke="#4f81c2" stroke-miterlimit="10"/>
    <path d="M98.49,223.84c-.62-2.61-42.14,4.64-93.75,16.31-2.77.63-4.49,3.33-3.86,6.02h0c.64,2.7,3.4,4.37,6.17,3.73,51.55-11.93,92.06-23.45,91.44-26.06Z" fill="none" stroke="#4f81c2" stroke-miterlimit="10"/>
    <path d="M98.36,178.36c.6-2.62-39.97-13.66-91.59-24.99-2.77-.61-5.52,1.1-6.14,3.8h0c-.62,2.7,1.12,5.38,3.89,5.98,51.68,11.07,93.24,17.83,93.85,15.21Z" fill="none" stroke="#4f81c2" stroke-miterlimit="10"/>
    <path d="M118.46,137.26c1.71-2.11-29.89-29.26-71.29-61.34-2.22-1.72-5.45-1.35-7.22.83h0c-1.76,2.18-1.39,5.33.84,7.04,41.57,31.87,75.95,55.58,77.66,53.47Z" fill="none" stroke="#4f81c2" stroke-miterlimit="10"/>
    <path d="M154.81,108.69c2.47-1.18-13.88-39.06-36.86-85.55-1.23-2.49-4.31-3.53-6.86-2.31h0c-2.55,1.22-3.62,4.23-2.37,6.71,23.23,46.37,43.62,82.33,46.1,81.15Z" fill="none" stroke="#4f81c2" stroke-miterlimit="10"/>
    <path d="M200.2,98.3c2.75-.02,4.87-41.13,4.86-92.81,0-2.77-2.31-5.01-5.14-4.99h0c-2.84.02-5.13,2.28-5.12,5.05.29,51.68,2.65,92.76,5.4,92.75Z" fill="none" stroke="#4f81c2" stroke-miterlimit="10"/>
    <path d="M245.66,108.15c2.48,1.15,22.66-35.05,45.62-81.69,1.23-2.5.15-5.5-2.41-6.68h0c-2.56-1.19-5.63-.12-6.85,2.39-22.71,46.75-38.85,84.83-36.37,85.98Z" fill="none" stroke="#4f81c2" stroke-miterlimit="10"/>
    <path d="M282.17,136.3c1.72,2.09,35.97-22.03,77.35-54.39,2.22-1.73,2.58-4.9.8-7.05h0c-1.78-2.16-5.01-2.49-7.22-.74-41.21,32.57-72.65,60.09-70.93,62.18Z" fill="none" stroke="#4f81c2" stroke-miterlimit="10"/>
    <path d="M302.51,177.16c.62,2.61,42.14-4.64,93.75-16.31,2.77-.63,4.49-3.33,3.86-6.02h0c-.64-2.7-3.4-4.37-6.17-3.73-51.55,11.93-92.06,23.45-91.44,26.06Z" fill="none" stroke="#4f81c2" stroke-miterlimit="10"/>
    <path d="M302.64,222.64c-.6,2.62,39.97,13.66,91.59,24.99,2.77.61,5.52-1.1,6.14-3.8h0c.62-2.7-1.12-5.38-3.89-5.98-51.68-11.07-93.24-17.83-93.85-15.21Z" fill="none" stroke="#4f81c2" stroke-miterlimit="10"/>
    <path d="M282.54,263.74c-1.71,2.11,29.89,29.26,71.29,61.34,2.22,1.72,5.45,1.35,7.22-.83h0c1.76-2.18,1.39-5.33-.84-7.04-41.57-31.87-75.95-55.58-77.66-53.47Z" fill="none" stroke="#4f81c2" stroke-miterlimit="10"/>
    <path d="M246.19,292.31c-2.47,1.18,13.88,39.06,36.86,85.55,1.23,2.49,4.31,3.53,6.86,2.31h0c2.55-1.22,3.62-4.23,2.37-6.71-23.23-46.37-43.62-82.33-46.1-81.15Z" fill="none" stroke="#4f81c2" stroke-miterlimit="10"/>
  </g>
  <path d="M285.97,94.24c7.17,5.48-12.98,37.91-7.48,44.53,5.68,6.84,42.28-5.68,46.15,2.04,3.94,7.86-28.6,28.56-26.58,36.99,2.04,8.48,40.55,12.69,40.62,21.4.06,8.67-38.38,13.62-40.31,22.18-1.9,8.42,30.9,28.53,27.02,36.51-3.75,7.73-40.5-4.13-46.14,2.88-5.64,7.01,14.92,39,8.11,44.4-7.02,5.57-34.86-20.72-42.79-16.91-8.06,3.87-3.84,41.46-12.49,43.47-8.69,2.01-22.05-33.48-30.97-33.39-8.88.09-21.75,35.84-30.51,33.98-8.62-1.83-4.86-39.48-13.02-43.24-7.9-3.64-35.4,23.16-42.56,17.68-7.17-5.48,12.98-37.91,7.48-44.53-5.68-6.84-42.28,5.68-46.15-2.04-3.94-7.86,28.6-28.56,26.58-36.99-2.04-8.48-40.55-12.69-40.62-21.4-.06-8.67,38.38-13.62,40.31-22.18,1.9-8.42-30.9-28.53-27.02-36.51,3.75-7.73,40.5,4.13,46.14-2.88,5.64-7.01-14.92-39-8.11-44.4,7.02-5.57,34.86,20.72,42.79,16.91,8.06-3.87,3.84-41.46,12.49-43.47,8.69-2.01,22.05,33.48,30.97,33.39,8.88-.09,21.75-35.84,30.51-33.98,8.62,1.83,4.86,39.48,13.02,43.24,7.9,3.64,35.4-23.16,42.56-17.68Z" fill="none" stroke="#223e95" stroke-miterlimit="10"/>
  <g>
    <path d="M202.99,205.63c-1.8.84,9.89,28.44,26.36,62.31.88,1.82,3.11,2.58,4.97,1.71h0c1.86-.87,2.65-3.05,1.75-4.86-16.65-33.79-31.28-60-33.08-59.16Z" fill="none" stroke="#3c6fb6" stroke-miterlimit="10"/>
    <path d="M201.73,206.06c-1.95.43,3.16,29.89,11.47,66.52.45,1.96,2.44,3.2,4.45,2.75h0c2.01-.45,3.27-2.4,2.82-4.36-8.51-36.58-16.8-65.34-18.75-64.9Z" fill="none" stroke="#3c6fb6" stroke-miterlimit="10"/>
    <path d="M200.41,206.2c-2,0-3.74,29.85-3.98,67.39-.01,2.01,1.65,3.65,3.71,3.65h0c2.06,0,3.74-1.63,3.74-3.65.04-37.54-1.47-67.39-3.47-67.39Z" fill="none" stroke="#3c6fb6" stroke-miterlimit="10"/>
    <path d="M199.1,206.05c-1.94-.43-10.45,28.31-19.24,64.88-.47,1.96.78,3.92,2.79,4.37h0c2.01.45,4.01-.78,4.47-2.74,8.6-36.61,13.93-66.07,11.98-66.51Z" fill="none" stroke="#3c6fb6" stroke-miterlimit="10"/>
    <path d="M197.85,205.63c-1.8-.85-16.63,25.35-33.54,59.12-.91,1.81-.14,3.99,1.72,4.87h0c1.85.87,4.09.11,4.98-1.7,16.72-33.85,28.63-61.44,26.83-62.28Z" fill="none" stroke="#3c6fb6" stroke-miterlimit="10"/>
    <path d="M196.72,204.94c-1.56-1.22-21.98,21.12-46.15,50.4-1.3,1.57-1.04,3.86.56,5.12h0c1.61,1.26,3.96,1,5.24-.58,24.01-29.4,41.9-53.72,40.34-54.94Z" fill="none" stroke="#3c6fb6" stroke-miterlimit="10"/>
    <path d="M195.79,204.02c-1.24-1.52-26.23,15.83-56.45,39.14-1.62,1.25-1.9,3.54-.62,5.12h0c1.28,1.57,3.63,1.83,5.24.57,30.09-23.47,53.06-43.31,51.82-44.83Z" fill="none" stroke="#3c6fb6" stroke-miterlimit="10"/>
    <path d="M195.09,202.92c-.86-1.76-29.16,9.75-63.91,25.93-1.86.87-2.66,3.05-1.77,4.86h0c.89,1.81,3.12,2.57,4.98,1.7,34.67-16.36,61.57-30.73,60.71-32.49Z" fill="none" stroke="#3c6fb6" stroke-miterlimit="10"/>
    <path d="M194.65,201.7c-.44-1.9-30.63,3.18-68.18,11.41-2.01.44-3.28,2.39-2.83,4.36h0c.45,1.96,2.45,3.19,4.46,2.74,37.5-8.43,66.98-16.61,66.55-18.51Z" fill="none" stroke="#3c6fb6" stroke-miterlimit="10"/>
    <path d="M194.51,200.41c0-1.95-30.57-3.56-69.02-3.67-2.06,0-3.74,1.62-3.75,3.64h0c0,2.01,1.66,3.64,3.72,3.64,38.45-.08,69.04-1.65,69.05-3.6Z" fill="none" stroke="#3c6fb6" stroke-miterlimit="10"/>
    <path d="M194.66,199.13c.45-1.9-28.97-10.11-66.4-18.58-2.01-.45-4.02.77-4.48,2.73h0c-.47,1.96.79,3.92,2.8,4.36,37.48,8.28,67.64,13.39,68.09,11.49Z" fill="none" stroke="#3c6fb6" stroke-miterlimit="10"/>
    <path d="M195.11,197.9c.87-1.76-25.92-16.16-60.46-32.55-1.85-.88-4.09-.12-4.99,1.69h0c-.9,1.81-.13,3.99,1.73,4.86,34.63,16.22,62.84,27.75,63.72,26Z" fill="none" stroke="#3c6fb6" stroke-miterlimit="10"/>
    <path d="M195.82,196.81c1.25-1.52-21.57-21.39-51.48-44.89-1.6-1.26-3.96-1-5.25.57h0c-1.29,1.57-1.03,3.87.58,5.12,30.04,23.34,54.9,40.73,56.15,39.2Z" fill="none" stroke="#3c6fb6" stroke-miterlimit="10"/>
    <path d="M196.76,195.89c1.57-1.21-16.13-25.56-39.92-54.98-1.27-1.58-3.62-1.84-5.24-.59h0c-1.62,1.25-1.89,3.55-.6,5.12,23.94,29.3,44.2,51.66,45.76,50.45Z" fill="none" stroke="#3c6fb6" stroke-miterlimit="10"/>
    <path d="M197.88,195.2c1.8-.84-9.89-28.44-26.36-62.31-.88-1.82-3.11-2.58-4.97-1.71h0c-1.86.87-2.65,3.05-1.75,4.86,16.65,33.79,31.28,60,33.08,59.16Z" fill="none" stroke="#3c6fb6" stroke-miterlimit="10"/>
    <path d="M199.14,194.78c1.95-.43-3.16-29.89-11.47-66.52-.45-1.96-2.44-3.2-4.45-2.75h0c-2.01.45-3.27,2.4-2.82,4.36,8.51,36.58,16.8,65.34,18.75,64.9Z" fill="none" stroke="#3c6fb6" stroke-miterlimit="10"/>
    <path d="M200.46,194.63c2,0,3.74-29.85,3.98-67.39.01-2.01-1.65-3.65-3.71-3.65h0c-2.06,0-3.74,1.63-3.74,3.65-.04,37.54,1.47,67.39,3.47,67.39Z" fill="none" stroke="#3c6fb6" stroke-miterlimit="10"/>
    <path d="M201.78,194.78c1.94.43,10.45-28.31,19.24-64.88.47-1.96-.78-3.92-2.79-4.37h0c-2.01-.45-4.01.78-4.47,2.74-8.6,36.61-13.93,66.07-11.98,66.51Z" fill="none" stroke="#3c6fb6" stroke-miterlimit="10"/>
    <path d="M203.03,195.21c1.8.85,16.63-25.35,33.54-59.12.91-1.81.14-3.99-1.72-4.87h0c-1.85-.87-4.09-.11-4.98,1.7-16.72,33.85-28.63,61.44-26.83,62.28Z" fill="none" stroke="#3c6fb6" stroke-miterlimit="10"/>
    <path d="M204.15,195.9c1.56,1.22,21.98-21.12,46.15-50.4,1.3-1.57,1.04-3.86-.56-5.12h0c-1.61-1.26-3.96-1-5.24.58-24.01,29.4-41.9,53.72-40.34,54.94Z" fill="none" stroke="#3c6fb6" stroke-miterlimit="10"/>
    <path d="M205.08,196.81c1.24,1.52,26.23-15.83,56.45-39.14,1.62-1.25,1.9-3.54.62-5.12h0c-1.28-1.57-3.63-1.83-5.24-.57-30.09,23.47-53.06,43.31-51.82,44.83Z" fill="none" stroke="#3c6fb6" stroke-miterlimit="10"/>
    <path d="M205.78,197.91c.86,1.76,29.16-9.75,63.91-25.93,1.86-.87,2.66-3.05,1.77-4.86h0c-.89-1.81-3.12-2.57-4.98-1.7-34.67,16.36-61.57,30.73-60.71,32.49Z" fill="none" stroke="#3c6fb6" stroke-miterlimit="10"/>
    <path d="M206.22,199.13c.44,1.9,30.63-3.18,68.18-11.41,2.01-.44,3.28-2.39,2.83-4.36h0c-.45-1.96-2.45-3.19-4.46-2.74-37.5,8.43-66.98,16.61-66.55,18.51Z" fill="none" stroke="#3c6fb6" stroke-miterlimit="10"/>
    <path d="M206.36,200.42c0,1.95,30.57,3.56,69.02,3.67,2.06,0,3.74-1.62,3.75-3.64h0c0-2.01-1.66-3.64-3.72-3.64-38.45.08-69.04,1.65-69.05,3.6Z" fill="none" stroke="#3c6fb6" stroke-miterlimit="10"/>
    <path d="M206.21,201.71c-.45,1.9,28.97,10.11,66.4,18.58,2.01.45,4.02-.77,4.48-2.73h0c.47-1.96-.79-3.92-2.8-4.36-37.48-8.28-67.64-13.39-68.09-11.49Z" fill="none" stroke="#3c6fb6" stroke-miterlimit="10"/>
    <path d="M205.76,202.93c-.87,1.76,25.92,16.16,60.46,32.55,1.85.88,4.09.12,4.99-1.69h0c.9-1.81.13-3.99-1.73-4.86-34.63-16.22-62.84-27.75-63.72-26Z" fill="none" stroke="#3c6fb6" stroke-miterlimit="10"/>
    <path d="M205.05,204.03c-1.25,1.52,21.57,21.39,51.48,44.89,1.6,1.26,3.96,1,5.25-.57h0c1.29-1.57,1.03-3.87-.58-5.12-30.04-23.34-54.9-40.73-56.15-39.2Z" fill="none" stroke="#3c6fb6" stroke-miterlimit="10"/>
    <path d="M204.11,204.94c-1.57,1.21,16.13,25.56,39.92,54.98,1.27,1.58,3.62,1.84,5.24.59h0c1.62-1.25,1.89-3.55.6-5.12-23.94-29.3-44.2-51.66-45.76-50.45Z" fill="none" stroke="#3c6fb6" stroke-miterlimit="10"/>
  </g>
  <g>
    <path d="M201.5,202.55c-.71.33,3.89,11.18,10.36,24.49.35.71,1.22,1.01,1.95.67h0c.73-.34,1.04-1.2.69-1.91-6.54-13.28-12.29-23.58-13-23.25Z" fill="none" stroke="#fff" stroke-miterlimit="10"/>
    <path d="M201.01,202.72c-.77.17,1.24,11.75,4.51,26.14.18.77.96,1.26,1.75,1.08h0c.79-.18,1.29-.94,1.11-1.71-3.35-14.38-6.6-25.68-7.37-25.51Z" fill="none" stroke="#fff" stroke-miterlimit="10"/>
    <path d="M200.49,202.77c-.78,0-1.47,11.73-1.57,26.49,0,.79.65,1.43,1.46,1.43h0c.81,0,1.47-.64,1.47-1.43.02-14.75-.58-26.49-1.36-26.49Z" fill="none" stroke="#fff" stroke-miterlimit="10"/>
    <path d="M199.97,202.72c-.76-.17-4.11,11.13-7.56,25.5-.19.77.31,1.54,1.09,1.72h0c.79.18,1.58-.31,1.76-1.08,3.38-14.39,5.47-25.97,4.71-26.14Z" fill="none" stroke="#fff" stroke-miterlimit="10"/>
    <path d="M199.48,202.55c-.71-.33-6.54,9.96-13.18,23.24-.36.71-.05,1.57.68,1.91h0c.73.34,1.61.04,1.96-.67,6.57-13.31,11.25-24.14,10.55-24.48Z" fill="none" stroke="#fff" stroke-miterlimit="10"/>
    <path d="M199.04,202.28c-.61-.48-8.64,8.3-18.14,19.81-.51.62-.41,1.52.22,2.01h0c.63.49,1.56.39,2.06-.23,9.44-11.55,16.47-21.11,15.85-21.59Z" fill="none" stroke="#fff" stroke-miterlimit="10"/>
    <path d="M198.67,201.92c-.49-.6-10.31,6.22-22.18,15.38-.64.49-.75,1.39-.24,2.01h0c.5.62,1.43.72,2.06.23,11.83-9.22,20.85-17.02,20.37-17.62Z" fill="none" stroke="#fff" stroke-miterlimit="10"/>
    <path d="M198.4,201.48c-.34-.69-11.46,3.83-25.12,10.19-.73.34-1.04,1.2-.69,1.91h0c.35.71,1.23,1.01,1.96.67,13.62-6.43,24.2-12.08,23.86-12.77Z" fill="none" stroke="#fff" stroke-miterlimit="10"/>
    <path d="M198.23,201c-.17-.75-12.04,1.25-26.79,4.49-.79.17-1.29.94-1.11,1.71h0c.18.77.96,1.25,1.75,1.08,14.74-3.31,26.33-6.53,26.15-7.27Z" fill="none" stroke="#fff" stroke-miterlimit="10"/>
    <path d="M198.17,200.5c0-.77-12.01-1.4-27.13-1.44-.81,0-1.47.64-1.47,1.43h0c0,.79.65,1.43,1.46,1.43,15.11-.03,27.13-.65,27.14-1.42Z" fill="none" stroke="#fff" stroke-miterlimit="10"/>
    <path d="M198.23,199.99c.18-.75-11.39-3.97-26.1-7.3-.79-.18-1.58.3-1.76,1.07h0c-.18.77.31,1.54,1.1,1.71,14.73,3.25,26.58,5.26,26.76,4.51Z" fill="none" stroke="#fff" stroke-miterlimit="10"/>
    <path d="M198.4,199.51c.34-.69-10.19-6.35-23.76-12.79-.73-.35-1.61-.05-1.96.67h0c-.35.71-.05,1.57.68,1.91,13.61,6.37,24.7,10.91,25.04,10.22Z" fill="none" stroke="#fff" stroke-miterlimit="10"/>
    <path d="M198.68,199.08c.49-.6-8.48-8.41-20.23-17.64-.63-.49-1.55-.39-2.06.22h0c-.51.62-.41,1.52.23,2.01,11.81,9.17,21.58,16.01,22.07,15.41Z" fill="none" stroke="#fff" stroke-miterlimit="10"/>
    <path d="M199.05,198.72c.62-.48-6.34-10.04-15.69-21.61-.5-.62-1.42-.72-2.06-.23h0c-.64.49-.74,1.39-.24,2.01,9.41,11.52,17.37,20.3,17.99,19.83Z" fill="none" stroke="#fff" stroke-miterlimit="10"/>
    <path d="M199.5,198.45c.71-.33-3.89-11.18-10.36-24.49-.35-.71-1.22-1.01-1.95-.67h0c-.73.34-1.04,1.2-.69,1.91,6.54,13.28,12.29,23.58,13,23.25Z" fill="none" stroke="#fff" stroke-miterlimit="10"/>
    <path d="M199.99,198.28c.77-.17-1.24-11.75-4.51-26.14-.18-.77-.96-1.26-1.75-1.08h0c-.79.18-1.29.94-1.11,1.71,3.35,14.38,6.6,25.68,7.37,25.51Z" fill="none" stroke="#fff" stroke-miterlimit="10"/>
    <path d="M200.51,198.23c.78,0,1.47-11.73,1.57-26.49,0-.79-.65-1.43-1.46-1.43h0c-.81,0-1.47.64-1.47,1.43-.02,14.75.58,26.49,1.36,26.49Z" fill="none" stroke="#fff" stroke-miterlimit="10"/>
    <path d="M201.03,198.28c.76.17,4.11-11.13,7.56-25.5.19-.77-.31-1.54-1.09-1.72h0c-.79-.18-1.58.31-1.76,1.08-3.38,14.39-5.47,25.97-4.71,26.14Z" fill="none" stroke="#fff" stroke-miterlimit="10"/>
    <path d="M201.52,198.45c.71.33,6.54-9.96,13.18-23.24.36-.71.05-1.57-.68-1.91h0c-.73-.34-1.61-.04-1.96.67-6.57,13.31-11.25,24.14-10.55,24.48Z" fill="none" stroke="#fff" stroke-miterlimit="10"/>
    <path d="M201.96,198.72c.61.48,8.64-8.3,18.14-19.81.51-.62.41-1.52-.22-2.01h0c-.63-.49-1.56-.39-2.06.23-9.44,11.55-16.47,21.11-15.85,21.59Z" fill="none" stroke="#fff" stroke-miterlimit="10"/>
    <path d="M202.33,199.08c.49.6,10.31-6.22,22.18-15.38.64-.49.75-1.39.24-2.01h0c-.5-.62-1.43-.72-2.06-.23-11.83,9.22-20.85,17.02-20.37,17.62Z" fill="none" stroke="#fff" stroke-miterlimit="10"/>
    <path d="M202.6,199.51c.34.69,11.46-3.83,25.12-10.19.73-.34,1.04-1.2.69-1.91h0c-.35-.71-1.23-1.01-1.96-.67-13.62,6.43-24.2,12.08-23.86,12.77Z" fill="none" stroke="#fff" stroke-miterlimit="10"/>
    <path d="M202.77,199.99c.17.75,12.04-1.25,26.79-4.49.79-.17,1.29-.94,1.11-1.71h0c-.18-.77-.96-1.25-1.75-1.08-14.74,3.31-26.33,6.53-26.15,7.27Z" fill="none" stroke="#fff" stroke-miterlimit="10"/>
    <path d="M202.83,200.5c0,.77,12.01,1.4,27.13,1.44.81,0,1.47-.64,1.47-1.43h0c0-.79-.65-1.43-1.46-1.43-15.11.03-27.13.65-27.14,1.42Z" fill="none" stroke="#fff" stroke-miterlimit="10"/>
    <path d="M202.77,201.01c-.18.75,11.39,3.97,26.1,7.3.79.18,1.58-.3,1.76-1.07h0c.18-.77-.31-1.54-1.1-1.71-14.73-3.25-26.58-5.26-26.76-4.51Z" fill="none" stroke="#fff" stroke-miterlimit="10"/>
    <path d="M202.59,201.49c-.34.69,10.19,6.35,23.76,12.79.73.35,1.61.05,1.96-.67h0c.35-.71.05-1.57-.68-1.91-13.61-6.37-24.7-10.91-25.04-10.22Z" fill="none" stroke="#fff" stroke-miterlimit="10"/>
    <path d="M202.31,201.92c-.49.6,8.48,8.41,20.23,17.64.63.49,1.55.39,2.06-.22h0c.51-.62.41-1.52-.23-2.01-11.81-9.17-21.58-16.01-22.07-15.41Z" fill="none" stroke="#fff" stroke-miterlimit="10"/>
    <path d="M201.94,202.28c-.62.48,6.34,10.04,15.69,21.61.5.62,1.42.72,2.06.23h0c.64-.49.74-1.39.24-2.01-9.41-11.52-17.37-20.3-17.99-19.83Z" fill="none" stroke="#fff" stroke-miterlimit="10"/>
  </g>
  <g>
    <path d="M222.07,234.04c-2.65,1.63,20.64,42.56,52.53,92.44,1.71,2.67,5.32,3.48,8.06,1.79h0c2.74-1.68,3.57-5.22,1.84-7.88-32.15-49.71-59.78-87.98-62.44-86.35Z" fill="none" stroke="#a1bce2" stroke-miterlimit="10"/>
    <path d="M213.86,237.9c-2.96,1.01,10.41,46.01,30.1,101.6,1.06,2.98,4.39,4.55,7.45,3.5h0c3.05-1.05,4.66-4.32,3.59-7.29-19.99-55.49-38.19-98.82-41.14-97.81Z" fill="none" stroke="#a1bce2" stroke-miterlimit="10"/>
    <path d="M204.99,239.9c-3.11.35-.35,47.15,6.17,105.66.35,3.14,3.24,5.39,6.46,5.03h0c3.21-.36,5.53-3.2,5.16-6.33-6.83-58.48-14.67-104.71-17.79-104.36Z" fill="none" stroke="#a1bce2" stroke-miterlimit="10"/>
    <path d="M195.89,239.91c-3.11-.34-11.09,45.93-18.08,104.43-.37,3.14,1.93,5.97,5.14,6.31h0c3.21.35,6.11-1.92,6.47-5.06,6.68-58.54,9.57-105.35,6.46-105.68Z" fill="none" stroke="#a1bce2" stroke-miterlimit="10"/>
    <path d="M187.03,237.95c-2.95-1-21.27,42.4-41.41,97.96-1.08,2.98.52,6.24,3.57,7.28h0c3.05,1.04,6.39-.54,7.46-3.53,19.85-55.66,33.34-100.7,30.39-101.71Z" fill="none" stroke="#a1bce2" stroke-miterlimit="10"/>
    <path d="M178.84,234.11c-2.65-1.62-30.39,36.75-62.68,86.57-1.73,2.67-.91,6.2,1.82,7.88h0c2.73,1.67,6.35.86,8.07-1.82,32.03-49.99,55.44-91.01,52.79-92.63Z" fill="none" stroke="#a1bce2" stroke-miterlimit="10"/>
    <path d="M171.74,228.59c-2.21-2.16-37.98,29.25-80.79,70.85-2.29,2.23-2.3,5.85-.02,8.08h0c2.28,2.23,5.99,2.22,8.28-.03,42.59-41.82,74.75-76.75,72.54-78.9Z" fill="none" stroke="#a1bce2" stroke-miterlimit="10"/>
    <path d="M166.07,221.66c-1.66-2.59-43.67,20.29-94.86,51.57-2.74,1.68-3.58,5.21-1.86,7.88h0c1.72,2.67,5.33,3.46,8.07,1.77,51.03-31.54,90.32-58.64,88.66-61.22Z" fill="none" stroke="#a1bce2" stroke-miterlimit="10"/>
    <path d="M162.14,213.67c-1.03-2.88-47.17,10.31-104.17,29.71-3.06,1.04-4.67,4.3-3.61,7.28h0c1.06,2.98,4.41,4.54,7.46,3.48,56.9-19.69,101.36-37.59,100.33-40.47Z" fill="none" stroke="#a1bce2" stroke-miterlimit="10"/>
    <path d="M160.13,205.01c-.35-3.04-48.3-.19-108.26,6.36-3.21.35-5.53,3.18-5.18,6.32h0c.36,3.14,3.26,5.38,6.47,5.02,59.93-6.85,107.31-14.66,106.97-17.7Z" fill="none" stroke="#a1bce2" stroke-miterlimit="10"/>
    <path d="M160.14,196.13c.35-3.04-47.01-10.68-106.92-17.31-3.21-.36-6.12,1.9-6.48,5.04h0c-.37,3.14,1.95,5.96,5.16,6.3,59.94,6.33,107.89,9.01,108.24,5.97Z" fill="none" stroke="#a1bce2" stroke-miterlimit="10"/>
    <path d="M162.17,187.47c1.04-2.89-43.36-20.63-100.21-40.12-3.05-1.04-6.39.53-7.47,3.51h0c-1.07,2.98.54,6.24,3.59,7.27,56.95,19.2,103.05,32.23,104.09,29.34Z" fill="none" stroke="#a1bce2" stroke-miterlimit="10"/>
    <path d="M166.13,179.46c1.67-2.59-37.54-29.55-88.49-60.91-2.73-1.68-6.35-.87-8.07,1.8h0c-1.72,2.68-.9,6.2,1.84,7.87,51.11,31.1,93.05,53.83,94.72,51.23Z" fill="none" stroke="#a1bce2" stroke-miterlimit="10"/>
    <path d="M171.81,172.51c2.22-2.17-29.84-36.98-72.32-78.64-2.28-2.23-5.99-2.23-8.28,0h0c-2.29,2.24-2.29,5.86,0,8.08,42.7,41.45,78.38,72.73,80.6,70.56Z" fill="none" stroke="#a1bce2" stroke-miterlimit="10"/>
    <path d="M178.93,166.96c2.65-1.63-20.64-42.56-52.53-92.44-1.71-2.67-5.32-3.48-8.06-1.79h0c-2.74,1.68-3.57,5.22-1.84,7.88,32.15,49.71,59.78,87.98,62.44,86.35Z" fill="none" stroke="#a1bce2" stroke-miterlimit="10"/>
    <path d="M187.13,163.09c2.96-1.01-10.41-46.01-30.1-101.6-1.06-2.98-4.39-4.55-7.45-3.5h0c-3.05,1.05-4.66,4.32-3.59,7.29,19.99,55.49,38.19,98.82,41.14,97.81Z" fill="none" stroke="#a1bce2" stroke-miterlimit="10"/>
    <path d="M196.01,161.1c3.11-.35.35-47.15-6.17-105.66-.35-3.14-3.24-5.39-6.46-5.03h0c-3.21.36-5.53,3.2-5.16,6.33,6.83,58.48,14.67,104.71,17.79,104.36Z" fill="none" stroke="#a1bce2" stroke-miterlimit="10"/>
    <path d="M205.1,161.09c3.11.34,11.09-45.93,18.08-104.43.37-3.14-1.93-5.97-5.14-6.31h0c-3.21-.35-6.11,1.92-6.47,5.06-6.68,58.54-9.57,105.35-6.46,105.68Z" fill="none" stroke="#a1bce2" stroke-miterlimit="10"/>
    <path d="M213.97,163.05c2.95,1,21.27-42.4,41.41-97.96,1.08-2.98-.52-6.24-3.57-7.28h0c-3.05-1.04-6.39.54-7.46,3.53-19.85,55.66-33.34,100.7-30.39,101.71Z" fill="none" stroke="#a1bce2" stroke-miterlimit="10"/>
    <path d="M222.16,166.88c2.65,1.62,30.39-36.75,62.68-86.57,1.73-2.67.91-6.2-1.82-7.88h0c-2.73-1.67-6.35-.86-8.07,1.82-32.03,49.99-55.44,91.01-52.79,92.63Z" fill="none" stroke="#a1bce2" stroke-miterlimit="10"/>
    <path d="M229.26,172.41c2.21,2.16,37.98-29.25,80.79-70.85,2.29-2.23,2.3-5.85.02-8.08h0c-2.28-2.23-5.99-2.22-8.28.03-42.59,41.82-74.75,76.75-72.54,78.9Z" fill="none" stroke="#a1bce2" stroke-miterlimit="10"/>
    <path d="M234.92,179.34c1.66,2.59,43.67-20.29,94.86-51.57,2.74-1.68,3.58-5.21,1.86-7.88h0c-1.72-2.67-5.33-3.46-8.07-1.77-51.03,31.54-90.32,58.64-88.66,61.22Z" fill="none" stroke="#a1bce2" stroke-miterlimit="10"/>
    <path d="M238.86,187.33c1.03,2.88,47.17-10.31,104.17-29.71,3.06-1.04,4.67-4.3,3.61-7.28h0c-1.06-2.98-4.41-4.54-7.46-3.48-56.9,19.69-101.36,37.59-100.33,40.47Z" fill="none" stroke="#a1bce2" stroke-miterlimit="10"/>
    <path d="M240.87,195.99c.35,3.04,48.3.19,108.26-6.36,3.21-.35,5.53-3.18,5.18-6.32h0c-.36-3.14-3.26-5.38-6.47-5.02-59.93,6.85-107.31,14.66-106.97,17.7Z" fill="none" stroke="#a1bce2" stroke-miterlimit="10"/>
    <path d="M240.86,204.87c-.35,3.04,47.01,10.68,106.92,17.31,3.21.36,6.12-1.9,6.48-5.04h0c.37-3.14-1.95-5.96-5.16-6.3-59.94-6.33-107.89-9.01-108.24-5.97Z" fill="none" stroke="#a1bce2" stroke-miterlimit="10"/>
    <path d="M238.82,213.53c-1.04,2.89,43.36,20.63,100.21,40.12,3.05,1.04,6.39-.53,7.47-3.51h0c1.07-2.98-.54-6.24-3.59-7.27-56.95-19.2-103.05-32.23-104.09-29.34Z" fill="none" stroke="#a1bce2" stroke-miterlimit="10"/>
    <path d="M234.87,221.54c-1.67,2.59,37.54,29.55,88.49,60.91,2.73,1.68,6.35.87,8.07-1.8h0c1.72-2.68.9-6.2-1.84-7.87-51.11-31.1-93.05-53.83-94.72-51.23Z" fill="none" stroke="#a1bce2" stroke-miterlimit="10"/>
    <path d="M229.18,228.49c-2.22,2.17,29.84,36.98,72.32,78.64,2.28,2.23,5.99,2.23,8.28,0h0c2.29-2.24,2.29-5.86,0-8.08-42.7-41.45-78.38-72.73-80.6-70.56Z" fill="none" stroke="#a1bce2" stroke-miterlimit="10"/>
  </g>
</svg>