<?xml version="1.0" encoding="UTF-8"?>
<svg id="a" data-name="图层 1" xmlns="http://www.w3.org/2000/svg" width="40" height="40" viewBox="0 0 40 40">
  <g>
    <path d="M20,40c-.16,0-.31-.07-.44-.21-.23-.24-.36-.66-.33-1.09.34-12.15.59-12.15.77-12.15s.43,0,.77,12.16c.02.43-.1.85-.33,1.09-.13.14-.28.21-.44.21ZM20,26.83c-.14.59-.35,3.27-.59,11.87-.02.39.09.76.28.96.07.07.17.15.31.15s.24-.08.31-.15c.2-.21.3-.58.28-.96-.24-8.6-.45-11.28-.59-11.88Z" fill="#d3da7e"/>
    <path d="M12.94,38.67c-.07,0-.13-.01-.19-.04-.15-.06-.26-.18-.34-.35-.13-.31-.09-.75.08-1.14,4.69-11.21,4.92-11.12,5.09-11.05.17.07.4.15-3.65,11.61-.13.41-.4.75-.7.9-.1.05-.2.07-.29.07ZM17.48,26.36c-.35.5-1.5,2.92-4.82,10.86-.16.35-.19.74-.08,1,.04.09.11.21.23.26h0c.13.05.26.01.34-.03.26-.12.49-.43.61-.79,2.87-8.11,3.64-10.69,3.72-11.29Z" fill="#d3da7e"/>
    <path d="M6.88,34.88c-.16,0-.3-.05-.41-.15h0c-.12-.11-.18-.26-.19-.45,0-.33.18-.73.49-1.03,8.41-8.75,8.59-8.58,8.72-8.46.13.12.32.29-7.58,9.51-.27.33-.64.56-.98.58-.02,0-.04,0-.06,0ZM6.59,34.6c.1.09.24.1.33.1.28-.02.61-.22.85-.52,5.6-6.53,7.24-8.65,7.53-9.18-.5.34-2.45,2.18-8.4,8.37-.28.27-.44.62-.44.9,0,.1.03.23.13.32h0Z" fill="#d3da7e"/>
    <path d="M2.71,29.17c-.11,0-.21-.01-.3-.04-.18-.05-.31-.16-.38-.3h0c-.07-.14-.07-.31,0-.49.11-.31.43-.61.83-.78,10.99-5.11,11.1-4.89,11.18-4.72.08.16.19.38-10.49,6.11-.26.15-.55.23-.81.23ZM13.76,22.95c-.59.14-3.07,1.14-10.85,4.76-.35.15-.63.41-.73.68-.03.09-.06.22,0,.35h0c.06.12.18.18.28.21.27.08.65.02.98-.17,7.57-4.06,9.86-5.44,10.32-5.83Z" fill="#d3da7e"/>
    <path d="M1.09,22.37c-.33,0-.63-.09-.84-.25-.15-.12-.23-.26-.25-.42H0c-.01-.16.04-.32.17-.46.22-.25.62-.41,1.05-.43,12.08-.78,12.11-.53,12.12-.35.02.18.04.43-11.98,1.89-.09.01-.18.02-.27.02ZM12.16,20.44c-1.41,0-4.52.13-10.93.54-.38.01-.74.16-.93.37-.06.07-.14.19-.12.33H.18c.01.14.11.24.18.3.22.18.6.25.98.19,8.52-1.04,11.15-1.49,11.72-1.69-.15-.02-.43-.04-.9-.04Z" fill="#d3da7e"/>
    <path d="M13.35,18.09c-.59,0-2.83-.43-11.63-2.67-.42-.09-.78-.33-.95-.62-.1-.16-.12-.33-.08-.48h0c.04-.15.16-.28.32-.37.29-.15.73-.16,1.14-.02,11.55,3.66,11.48,3.9,11.43,4.07-.01.04-.03.09-.22.09ZM1.56,14c-.18,0-.34.03-.47.1-.09.04-.19.13-.23.26h0c-.04.13.01.26.06.34.15.25.47.45.84.53,8.32,2.12,10.93,2.65,11.54,2.68-.53-.3-3.03-1.23-11.21-3.82-.18-.06-.36-.09-.53-.09Z" fill="#d3da7e"/>
    <path d="M14.58,15.83c-.28,0-1.64-.75-10.04-6.75-.36-.24-.61-.59-.67-.92-.03-.19,0-.35.1-.48h0c.1-.13.25-.21.43-.23.33-.04.74.11,1.07.39,9.45,7.6,9.3,7.8,9.19,7.94-.02.02-.03.04-.08.04ZM4.51,7.63s-.06,0-.08,0c-.1.01-.23.05-.31.16h0c-.08.11-.08.25-.07.34.05.28.27.59.59.8,6.99,4.99,9.24,6.44,9.8,6.68-.38-.47-2.38-2.25-9.08-7.63-.27-.23-.58-.36-.85-.36Z" fill="#d3da7e"/>
    <path d="M16.43,14.15c-.21,0-.97-.81-6.98-9.95-.25-.35-.36-.77-.29-1.1.04-.18.13-.33.27-.41h0c.14-.08.3-.1.48-.06.32.09.65.37.85.75,6.08,10.51,5.87,10.65,5.72,10.74-.02,0-.03.02-.05.02ZM9.52,2.84c-.12.07-.16.2-.18.29-.06.28.04.65.26.97,4.72,7.19,6.3,9.36,6.73,9.78-.19-.58-1.42-2.96-5.72-10.41-.18-.34-.47-.6-.74-.67-.09-.02-.23-.04-.34.03h0Z" fill="#d3da7e"/>
    <path d="M18.74,13.24c-.18,0-.53-.57-2.95-11.81-.1-.42-.05-.85.13-1.13.1-.16.24-.26.39-.29.16-.03.32.01.47.12.27.2.47.58.53,1.01,1.89,12.01,1.64,12.06,1.47,12.09,0,0-.02,0-.03,0ZM16.41.18s-.04,0-.06,0c-.14.03-.23.13-.28.21-.15.24-.19.62-.1,1,1.81,8.41,2.51,11.01,2.76,11.56.03-.61-.25-3.28-1.59-11.78-.05-.38-.22-.73-.45-.89-.06-.05-.16-.1-.27-.1Z" fill="#d3da7e"/>
    <path d="M21.26,13.24s-.02,0-.03,0c-.18-.03-.42-.08,1.47-12.09.05-.43.26-.81.53-1.01.15-.11.32-.15.47-.12.16.03.29.13.39.29.18.28.23.72.13,1.14-2.42,11.24-2.77,11.81-2.95,11.81ZM23.59.18c-.11,0-.2.05-.27.1-.23.17-.4.51-.45.89-1.34,8.5-1.62,11.18-1.59,11.78.25-.56.94-3.15,2.76-11.56.09-.38.05-.76-.1-1-.05-.08-.14-.18-.28-.21h0s-.04,0-.06,0Z" fill="#d3da7e"/>
    <path d="M23.57,14.15s-.04-.01-.05-.02c-.15-.1-.36-.23,5.72-10.74.2-.38.53-.67.85-.75.18-.05.35-.03.48.06.14.08.23.23.27.41.07.33-.04.75-.29,1.1-6,9.14-6.77,9.94-6.97,9.94ZM30.28,2.78c-.05,0-.1,0-.14.02-.28.07-.56.33-.74.67-4.31,7.45-5.53,9.83-5.72,10.41.43-.43,2.01-2.6,6.73-9.78.22-.32.32-.69.26-.97-.02-.09-.07-.22-.18-.29h0c-.06-.04-.14-.05-.2-.05Z" fill="#d3da7e"/>
    <path d="M25.42,15.83s-.07-.02-.08-.04c-.11-.14-.26-.34,9.2-7.94.33-.28.74-.43,1.07-.39.19.02.34.1.43.23h0c.1.13.13.29.1.48-.06.33-.31.68-.67.92-8.4,6-9.76,6.75-10.04,6.75ZM35.49,7.63c-.27,0-.58.13-.85.36-6.7,5.38-8.7,7.16-9.08,7.63.56-.24,2.81-1.69,9.79-6.68.32-.21.55-.52.59-.8.02-.1.02-.23-.07-.34h0c-.08-.11-.21-.15-.31-.16-.03,0-.05,0-.08,0Z" fill="#d3da7e"/>
    <path d="M26.65,18.09c-.2,0-.21-.05-.22-.09-.05-.17-.12-.41,11.43-4.07.4-.14.84-.13,1.13.02.17.09.28.21.32.37h0c.04.15.02.32-.08.48-.17.29-.54.52-.96.62-8.8,2.24-11.04,2.67-11.63,2.67ZM38.44,14c-.17,0-.35.03-.52.09-8.18,2.59-10.69,3.53-11.21,3.82.6-.02,3.22-.56,11.54-2.68.37-.08.7-.29.84-.53.05-.08.1-.21.06-.34h0c-.04-.13-.15-.22-.23-.26-.13-.07-.29-.1-.47-.1Z" fill="#d3da7e"/>
    <path d="M38.91,22.37c-.09,0-.18,0-.27-.02-12.02-1.47-12-1.71-11.98-1.89.02-.18.04-.43,12.13.35.43.02.83.18,1.05.43.12.14.18.3.17.46h0c-.01.16-.1.31-.25.42-.21.16-.51.25-.84.25ZM26.94,20.48c.57.2,3.2.65,11.72,1.69.38.06.75-.02.98-.19.08-.06.17-.16.18-.3h0c.01-.14-.06-.25-.12-.33-.19-.21-.54-.36-.92-.37-8.56-.55-11.23-.59-11.83-.5Z" fill="#d3da7e"/>
    <path d="M37.29,29.17c-.26,0-.55-.08-.82-.23-10.68-5.73-10.57-5.95-10.49-6.11.08-.16.19-.39,11.18,4.72.39.17.71.47.82.78.07.18.06.35,0,.49s-.2.25-.38.3c-.09.03-.2.04-.3.04ZM26.24,22.95c.46.39,2.75,1.77,10.32,5.83.33.19.71.26.98.18.09-.03.21-.09.28-.21l.08.04-.08-.04c.06-.12.04-.26,0-.35-.1-.27-.38-.53-.73-.68-7.78-3.62-10.26-4.63-10.85-4.76Z" fill="#d3da7e"/>
    <path d="M33.12,34.88s-.04,0-.06,0c-.33-.02-.71-.25-.98-.58-7.9-9.21-7.72-9.38-7.58-9.5.13-.12.32-.29,8.73,8.46.31.3.49.7.49,1.03,0,.19-.07.34-.19.45-.11.1-.24.15-.41.15ZM24.7,25c.29.53,1.93,2.65,7.53,9.18.24.3.57.5.85.52.1,0,.23,0,.33-.1h0c.1-.09.13-.23.13-.32,0-.29-.16-.63-.44-.9-5.95-6.2-7.9-8.03-8.41-8.38Z" fill="#d3da7e"/>
    <path d="M27.06,38.67c-.09,0-.19-.02-.29-.07-.3-.14-.57-.49-.7-.9-4.05-11.46-3.82-11.55-3.65-11.61.17-.07.4-.16,5.09,11.06.18.39.21.83.08,1.14-.07.17-.19.3-.34.35h0c-.06.02-.13.04-.19.04ZM22.52,26.36c.08.6.85,3.18,3.72,11.29.12.37.35.67.61.79.09.04.22.08.34.03h0c.13-.05.2-.17.23-.26.11-.27.08-.65-.08-1-3.32-7.94-4.48-10.36-4.83-10.86Z" fill="#d3da7e"/>
  </g>
  <g>
    <path d="M20,9.13c-.15,0-.31,0-.53-7.85-.02-.29.07-.57.22-.73.18-.19.44-.19.62,0,.15.16.24.44.22.73-.22,7.85-.38,7.85-.53,7.85ZM20,.6c-.07,0-.13.05-.17.09-.12.12-.18.36-.17.59.14,4.94.26,6.77.34,7.4.08-.63.2-2.46.34-7.4.01-.24-.05-.47-.17-.59-.04-.04-.1-.09-.17-.09Z" fill="#71b92b"/>
    <path d="M24.01,9.89s-.03,0-.04,0c-.14-.06-.29-.11,2.33-7.52.09-.27.27-.5.47-.6.12-.06.24-.06.34-.02h0c.11.04.19.13.24.25.09.21.06.5-.05.76-2.77,6.6-3.13,7.14-3.28,7.14ZM26.97,1.9s-.09.01-.12.03c-.16.07-.3.26-.37.49-1.65,4.66-2.19,6.4-2.34,7.02.3-.56,1.07-2.22,2.98-6.77.1-.22.12-.45.05-.61-.02-.05-.06-.12-.13-.14h0s-.05-.01-.07-.01Z" fill="#71b92b"/>
    <path d="M27.46,12.04s-.04-.01-.06-.03c-.11-.1-.23-.21,4.87-6.16.18-.22.43-.37.65-.39.13-.01.25.03.33.1h0c.08.08.13.19.13.32,0,.22-.12.49-.33.69-4.7,4.89-5.42,5.47-5.6,5.47ZM32.97,5.65s-.02,0-.03,0c-.17.01-.37.13-.52.32-3.22,3.75-4.35,5.18-4.71,5.7.48-.41,1.8-1.68,5.22-5.23.17-.17.27-.38.27-.55,0-.05-.01-.13-.07-.18-.05-.04-.11-.05-.16-.05Z" fill="#71b92b"/>
    <path d="M29.94,15.3c-.07,0-.09-.03-.1-.06-.07-.14-.14-.28,6.76-3.98.25-.14.53-.19.75-.12.13.04.22.11.27.21h0c.05.1.05.22,0,.35-.08.21-.29.41-.55.53-5.67,2.63-6.85,3.07-7.14,3.07ZM37.14,11.3c-.14,0-.3.05-.45.13-4.35,2.33-5.92,3.25-6.45,3.61.6-.21,2.28-.91,6.75-2.99.22-.09.39-.25.45-.42.02-.05.03-.13,0-.19-.03-.07-.1-.1-.15-.12-.05-.01-.1-.02-.15-.02Z" fill="#71b92b"/>
    <path d="M31.87,19.3c-.91,0-.92-.08-.93-.15-.01-.15-.03-.31,7.74-1.26.28-.04.57.02.74.16.1.08.16.18.18.3s-.03.23-.12.33c-.15.17-.42.28-.7.29-3.99.26-5.95.34-6.91.34ZM31.4,19.1c.63.02,2.45-.02,7.37-.34.24,0,.45-.09.57-.22.04-.04.08-.11.07-.18,0-.08-.06-.13-.1-.16-.14-.11-.36-.15-.6-.12-4.9.6-6.69.89-7.31,1.03Z" fill="#71b92b"/>
    <path d="M38.33,25.92c-.13,0-.26-.02-.39-.07-7.46-2.36-7.41-2.52-7.37-2.66.04-.15.08-.3,7.67,1.63.28.06.52.22.64.41.07.11.09.23.06.34h0c-.03.11-.11.2-.23.26-.1.05-.23.08-.37.08ZM31.01,23.31c.58.25,2.29.87,6.99,2.36.22.08.46.08.61,0,.05-.03.11-.07.13-.14h0c.02-.07,0-.14-.04-.19-.09-.15-.29-.27-.52-.33-4.78-1.22-6.56-1.6-7.18-1.69Z" fill="#71b92b"/>
    <path d="M35.33,32.24c-.21,0-.45-.1-.65-.27-6.1-4.91-6.01-5.04-5.92-5.16.1-.13.19-.25,6.56,4.3.24.16.41.4.44.62.02.13,0,.25-.07.34-.07.09-.17.15-.3.16-.02,0-.05,0-.07,0ZM29.13,27.09c.45.45,1.83,1.64,5.67,4.73.18.15.4.24.57.22.05,0,.13-.03.17-.09.05-.06.04-.14.04-.19-.03-.17-.17-.36-.36-.49-4.02-2.87-5.54-3.87-6.09-4.18Z" fill="#71b92b"/>
    <path d="M30.15,37.02s-.09,0-.13-.02c-.22-.06-.44-.25-.57-.5-3.93-6.79-3.79-6.88-3.66-6.96.13-.08.27-.17,4.57,6.39.16.23.24.52.19.74-.03.13-.09.23-.19.29h0c-.06.04-.13.06-.21.06ZM26.03,29.94c.26.58,1.11,2.19,3.59,6.47.11.21.29.37.46.41.05.01.13.02.19-.02h0c.06-.04.09-.11.1-.16.04-.17-.03-.4-.16-.59-2.71-4.13-3.77-5.62-4.17-6.11Z" fill="#71b92b"/>
    <path d="M23.55,39.6c-.09,0-.18-.03-.26-.09-.18-.13-.32-.39-.35-.68-1.22-7.76-1.06-7.79-.91-7.81.15-.03.31-.06,1.96,7.62.07.28.04.57-.09.76-.07.11-.17.18-.28.2h0s-.05,0-.07,0ZM22.1,31.47c.04.64.25,2.45,1.02,7.33.03.24.14.45.28.55.04.03.11.07.18.05.07-.01.12-.07.15-.12.09-.15.12-.38.06-.61-1.04-4.83-1.49-6.6-1.69-7.21Z" fill="#71b92b"/>
    <path d="M16.45,39.6s-.05,0-.07,0h0c-.11-.02-.21-.09-.28-.2-.12-.19-.15-.48-.09-.76,1.65-7.67,1.8-7.65,1.96-7.62.15.03.31.06-.91,7.82-.04.28-.17.54-.35.68-.08.06-.17.09-.26.09ZM17.9,31.46c-.2.61-.65,2.38-1.69,7.21-.06.23-.03.47.06.61.03.05.08.1.15.12h0c.07.01.14-.02.18-.05.14-.1.25-.31.28-.55.77-4.88.98-6.7,1.02-7.34Z" fill="#71b92b"/>
    <path d="M9.85,37.02c-.08,0-.15-.02-.21-.06-.1-.06-.16-.16-.19-.29-.05-.22.03-.5.19-.74,4.3-6.56,4.44-6.47,4.57-6.39.13.08.27.16-3.66,6.96-.14.25-.36.44-.57.5-.05.01-.09.02-.13.02ZM13.97,29.94c-.4.49-1.46,1.98-4.17,6.11-.14.2-.2.42-.16.59.01.05.04.12.1.16h0c.06.04.14.03.19.02.17-.04.34-.2.45-.41,2.47-4.28,3.33-5.89,3.59-6.47Z" fill="#71b92b"/>
    <path d="M4.67,32.24s-.05,0-.07,0c-.13-.01-.24-.07-.31-.16s-.09-.21-.07-.34c.04-.22.21-.46.45-.62,6.37-4.55,6.47-4.43,6.56-4.3.09.12.19.25-5.92,5.16-.19.17-.44.26-.64.26ZM10.87,27.09c-.55.31-2.07,1.32-6.09,4.18-.2.13-.34.32-.37.49,0,.05-.01.13.04.19.05.06.12.08.17.09.17.02.39-.06.57-.22,3.85-3.09,5.22-4.29,5.68-4.74Z" fill="#71b92b"/>
    <path d="M1.67,25.92c-.14,0-.27-.03-.37-.08-.12-.06-.2-.15-.23-.26s-.01-.23.06-.34c.11-.19.36-.35.64-.41,7.58-1.93,7.62-1.78,7.67-1.63.04.15.09.3-7.38,2.67-.13.04-.26.07-.38.07ZM8.99,23.31c-.63.09-2.4.47-7.18,1.69-.23.05-.43.18-.52.33-.03.05-.06.12-.04.19.02.07.08.12.13.14.15.08.39.08.61,0,4.7-1.49,6.41-2.11,7-2.36Z" fill="#71b92b"/>
    <path d="M8.13,19.3c-.96,0-2.91-.08-6.91-.34-.28-.01-.55-.12-.7-.29-.09-.1-.13-.21-.12-.33H.4c.01-.11.07-.22.18-.3.18-.14.46-.2.74-.15,7.76.95,7.75,1.1,7.73,1.26,0,.08-.01.15-.93.15ZM.6,18.36c0,.08.03.14.07.18.11.13.33.22.57.22,4.92.32,6.74.36,7.37.34-.62-.14-2.41-.43-7.31-1.03-.24-.04-.46,0-.6.12-.04.03-.1.09-.1.16h0Z" fill="#71b92b"/>
    <path d="M10.06,15.3c-.29,0-1.48-.45-7.14-3.08-.26-.11-.47-.31-.55-.52-.05-.12-.04-.24,0-.35s.14-.18.27-.21c.21-.07.5-.02.75.13,6.9,3.7,6.83,3.84,6.76,3.98-.01.03-.03.06-.1.06ZM2.86,11.3c-.05,0-.11,0-.15.02-.05.02-.12.05-.15.12s-.02.14,0,.19c.06.16.23.32.45.42,4.47,2.08,6.15,2.78,6.75,2.99-.53-.35-2.09-1.28-6.44-3.61-.15-.09-.31-.13-.45-.13Z" fill="#71b92b"/>
    <path d="M12.54,12.04c-.19,0-.91-.59-5.6-5.47-.2-.2-.33-.46-.32-.69,0-.13.05-.24.13-.32.08-.08.2-.11.33-.1.22.02.47.17.66.39,5.1,5.95,4.98,6.06,4.87,6.16-.02.01-.03.03-.06.03ZM7.03,5.65c-.05,0-.11.01-.16.05h0c-.06.05-.07.13-.07.18,0,.17.1.38.27.55,3.42,3.56,4.73,4.82,5.22,5.24-.36-.52-1.5-1.95-4.71-5.7-.15-.19-.35-.31-.52-.32,0,0-.02,0-.03,0Z" fill="#71b92b"/>
    <path d="M15.99,9.89c-.16,0-.52-.54-3.28-7.14-.12-.26-.14-.55-.05-.76.05-.12.13-.21.24-.25.11-.04.22-.03.34.02.2.1.38.33.47.6,2.62,7.4,2.47,7.46,2.33,7.51-.01,0-.03.01-.04.01ZM13.03,1.9s-.05,0-.07.01h0c-.07.03-.11.09-.13.14-.07.16-.05.4.05.61,1.91,4.56,2.68,6.21,2.98,6.78-.15-.62-.69-2.36-2.34-7.02-.07-.23-.22-.41-.37-.49-.03-.02-.08-.03-.12-.03Z" fill="#71b92b"/>
  </g>
  <g>
    <path d="M20,17.6c-.57,0-.87-2.03-.87-4.04s.3-4.04.87-4.04.87,2.03.87,4.04-.3,4.04-.87,4.04ZM20,9.7c-.29,0-.69,1.47-.69,3.86s.4,3.86.69,3.86.69-1.47.69-3.86-.4-3.86-.69-3.86Z" fill="#98c734"/>
    <path d="M20.99,17.79s-.06,0-.09-.02c-.53-.21-.08-2.21.64-4.08.7-1.8,1.53-3.22,2.03-3.44.09-.04.17-.04.24-.02.53.21.08,2.21-.64,4.08-.7,1.8-1.53,3.22-2.03,3.44-.05.02-.1.03-.14.03ZM23.71,10.4s-.04,0-.07.02c-.38.17-1.18,1.39-1.93,3.34-.86,2.23-1.01,3.75-.75,3.85.02,0,.06,0,.1-.01.38-.17,1.18-1.39,1.93-3.34l.08.03-.08-.03c.86-2.23,1.01-3.75.75-3.85,0,0-.02,0-.03,0Z" fill="#98c734"/>
    <path d="M21.87,18.32c-.08,0-.15-.02-.21-.07-.42-.39.72-2.09,2.07-3.57,1.3-1.43,2.58-2.44,3.12-2.47.1,0,.17.02.23.07.42.39-.72,2.09-2.07,3.57h0c-1.3,1.43-2.58,2.44-3.12,2.47,0,0-.01,0-.02,0ZM26.88,12.39s0,0-.01,0c-.41.02-1.6.87-3,2.41-1.6,1.77-2.29,3.12-2.08,3.32.02.02.05.03.1.02.41-.02,1.6-.87,3-2.41h0c1.6-1.77,2.29-3.12,2.08-3.32-.02-.02-.05-.02-.08-.02Z" fill="#98c734"/>
    <path d="M22.67,19.16c-.11,0-.2-.01-.27-.04-.09-.03-.15-.08-.19-.15-.25-.51,1.42-1.69,3.21-2.58,1.72-.86,3.29-1.34,3.8-1.17.09.03.15.08.19.15.25.51-1.42,1.69-3.21,2.58-1.49.74-2.86,1.2-3.53,1.2ZM28.97,15.38c-.56,0-1.85.38-3.46,1.19-2.13,1.07-3.26,2.08-3.13,2.34.01.02.04.04.08.06.39.13,1.81-.23,3.66-1.16,2.13-1.07,3.26-2.08,3.13-2.34-.01-.02-.04-.04-.08-.06-.05-.02-.12-.03-.21-.03Z" fill="#98c734"/>
    <path d="M24.87,20.43c-.41,0-.8-.02-1.13-.05-.82-.09-1.25-.26-1.28-.52-.05-.57,1.94-1.05,3.93-1.24,1.05-.1,2.05-.11,2.81-.03.82.09,1.25.26,1.28.52.05.57-1.93,1.05-3.93,1.24-.59.05-1.15.08-1.67.08ZM28.06,18.72c-.51,0-1.08.03-1.66.08-2.37.22-3.79.76-3.76,1.05.01.12.31.28,1.12.36.75.08,1.73.07,2.77-.03,2.37-.22,3.79-.76,3.76-1.05-.01-.12-.31-.28-1.12-.36-.33-.03-.71-.05-1.12-.05Z" fill="#98c734"/>
    <path d="M29.23,23.28c-.76,0-1.93-.2-3.22-.57-1.92-.55-3.79-1.39-3.63-1.94.02-.07.07-.13.16-.18.48-.26,2.1-.08,3.95.45,1.92.55,3.79,1.39,3.63,1.94-.02.07-.07.13-.16.18-.15.08-.4.12-.73.12ZM23.26,20.65c-.31,0-.53.03-.64.1-.04.02-.06.05-.07.07-.08.28,1.22,1.07,3.51,1.72h0c1.99.57,3.45.66,3.81.46.04-.02.06-.05.07-.07.08-.28-1.22-1.07-3.51-1.72-1.37-.39-2.5-.56-3.18-.56Z" fill="#98c734"/>
    <path d="M28.1,26.57c-.59,0-1.98-.74-3.44-1.86-1.6-1.21-3.03-2.67-2.69-3.13.05-.06.12-.1.21-.11.54-.08,1.99.69,3.52,1.85,1.6,1.21,3.03,2.67,2.69,3.13-.05.06-.12.1-.21.11-.02,0-.05,0-.08,0ZM22.27,21.65s-.04,0-.06,0c-.05,0-.08.02-.09.04-.17.23.75,1.44,2.65,2.88h0c1.66,1.26,2.99,1.87,3.39,1.82.05,0,.08-.02.09-.04.17-.23-.75-1.44-2.65-2.88-1.59-1.2-2.87-1.82-3.33-1.82Z" fill="#98c734"/>
    <path d="M25.39,29.11s-.06,0-.09-.01c-.53-.12-1.61-1.36-2.62-3-1.05-1.71-1.86-3.59-1.38-3.89.06-.04.14-.05.24-.03.53.12,1.61,1.36,2.62,3,1.05,1.71,1.86,3.59,1.38,3.89-.04.03-.09.04-.14.04ZM21.45,22.34s-.04,0-.05.01c-.24.15.18,1.61,1.44,3.65,1.09,1.77,2.11,2.83,2.51,2.92.04.01.08,0,.1,0,.24-.15-.18-1.61-1.44-3.65-1.09-1.77-2.11-2.83-2.51-2.92-.02,0-.04,0-.05,0Z" fill="#98c734"/>
    <path d="M21.89,30.47c-.06,0-.12-.02-.18-.06-.45-.31-1.01-1.85-1.36-3.75-.37-1.97-.45-4.03.11-4.13.07-.01.15,0,.23.06.45.31,1.01,1.85,1.36,3.75.37,1.97.45,4.03-.11,4.13-.02,0-.03,0-.05,0ZM20.52,26.63c.38,2.05.95,3.4,1.29,3.64.04.03.07.04.1.03.28-.05.41-1.57-.03-3.92-.38-2.05-.95-3.4-1.29-3.64-.04-.03-.07-.04-.1-.03-.28.05-.41,1.57.03,3.92h0Z" fill="#98c734"/>
    <path d="M18.11,30.47s-.03,0-.05,0c-.56-.11-.48-2.16-.11-4.13l.09.02-.09-.02c.35-1.9.91-3.44,1.36-3.75.08-.05.16-.07.23-.06.56.11.48,2.16.11,4.13-.35,1.9-.91,3.44-1.36,3.75-.06.04-.12.06-.18.06ZM19.5,22.7s-.05.01-.08.03c-.34.23-.91,1.59-1.29,3.64h0c-.44,2.35-.31,3.87-.03,3.92.03,0,.06,0,.1-.03.34-.23.91-1.59,1.29-3.64.44-2.35.31-3.87.03-3.92,0,0,0,0-.01,0Z" fill="#98c734"/>
    <path d="M14.61,29.11c-.05,0-.1-.01-.14-.04-.48-.3.33-2.19,1.38-3.89h0c1.01-1.64,2.09-2.88,2.62-3,.09-.02.17-.01.24.03.48.3-.33,2.19-1.38,3.89-1.01,1.64-2.09,2.88-2.62,3-.03,0-.06.01-.09.01ZM15.99,25.27c-1.25,2.03-1.68,3.49-1.44,3.65.02.01.06.02.1,0,.4-.09,1.42-1.15,2.51-2.92,1.25-2.03,1.68-3.49,1.44-3.65-.02-.01-.06-.02-.1,0-.4.09-1.42,1.15-2.51,2.92h0Z" fill="#98c734"/>
    <path d="M11.9,26.57s-.05,0-.08,0c-.09-.01-.17-.05-.21-.11-.34-.46,1.09-1.92,2.69-3.13h0c1.54-1.16,2.98-1.92,3.52-1.85.09.01.17.05.21.11.34.46-1.09,1.92-2.69,3.13-1.47,1.11-2.85,1.86-3.44,1.86ZM14.4,23.47c-1.9,1.44-2.83,2.65-2.65,2.88.02.02.05.04.09.04.41.06,1.73-.56,3.39-1.82,1.9-1.44,2.83-2.65,2.65-2.88-.02-.02-.05-.04-.09-.04-.4-.06-1.73.56-3.39,1.82h0Z" fill="#98c734"/>
    <path d="M10.77,23.28c-.33,0-.59-.04-.73-.12-.08-.05-.14-.11-.16-.18-.16-.55,1.71-1.39,3.63-1.94h0c1.85-.53,3.47-.71,3.95-.45.08.05.14.11.16.18.16.55-1.71,1.39-3.63,1.94-1.28.37-2.46.57-3.22.57ZM13.56,21.21c-2.29.65-3.59,1.44-3.51,1.72,0,.03.03.05.07.07.36.2,1.82.11,3.81-.46,2.29-.65,3.59-1.44,3.51-1.72,0-.03-.03-.05-.07-.07-.36-.2-1.82-.11-3.81.46h0Z" fill="#98c734"/>
    <path d="M15.13,20.44c-.52,0-1.09-.03-1.67-.08-1.99-.19-3.98-.67-3.93-1.24.02-.26.45-.44,1.28-.52.76-.08,1.76-.07,2.81.03,1.99.19,3.98.67,3.93,1.24-.02.26-.45.44-1.28.52-.34.04-.72.05-1.13.05ZM11.94,18.72c-.41,0-.78.02-1.12.05-.81.08-1.11.25-1.12.36-.03.29,1.39.82,3.76,1.05,1.04.1,2.03.11,2.77.03.81-.08,1.11-.25,1.12-.36.03-.29-1.39-.82-3.76-1.05-.58-.05-1.14-.08-1.66-.08Z" fill="#98c734"/>
    <path d="M17.33,19.16c-.68,0-2.05-.46-3.53-1.2-1.79-.89-3.47-2.07-3.21-2.58.03-.07.1-.12.19-.15.52-.17,2.08.31,3.8,1.17,1.79.89,3.47,2.07,3.21,2.58-.03.07-.1.12-.19.15-.07.02-.16.04-.27.04ZM11.03,15.38c-.09,0-.15,0-.21.03-.04.01-.07.03-.08.06-.13.26,1,1.27,3.13,2.34,1.86.93,3.27,1.29,3.66,1.16.04-.01.07-.03.08-.06.13-.26-1-1.27-3.13-2.34-1.61-.81-2.89-1.19-3.46-1.19Z" fill="#98c734"/>
    <path d="M18.13,18.32s-.01,0-.02,0c-.54-.03-1.83-1.04-3.12-2.47-1.35-1.48-2.49-3.19-2.07-3.57.06-.05.13-.07.23-.07.54.03,1.83,1.04,3.12,2.47,1.35,1.48,2.49,3.19,2.07,3.57-.05.05-.12.07-.21.07ZM13.12,12.39s-.07,0-.08.02c-.21.19.48,1.55,2.08,3.32,1.4,1.54,2.59,2.39,3,2.41.04,0,.08,0,.1-.02.21-.19-.48-1.55-2.08-3.32h0c-1.4-1.54-2.59-2.39-3-2.41,0,0,0,0-.01,0Z" fill="#98c734"/>
    <path d="M19.01,17.79s-.09-.01-.14-.03c-.5-.22-1.33-1.63-2.03-3.44-.72-1.87-1.18-3.87-.64-4.08.07-.03.15-.02.24.02.5.22,1.33,1.63,2.03,3.44.72,1.87,1.18,3.87.64,4.08-.03.01-.06.02-.09.02ZM16.29,10.4s-.02,0-.03,0c-.27.1-.11,1.62.75,3.85.75,1.94,1.55,3.17,1.93,3.34.04.02.08.02.1.01.27-.1.11-1.62-.75-3.85h0c-.75-1.94-1.55-3.17-1.93-3.34-.03-.01-.05-.02-.07-.02Z" fill="#98c734"/>
  </g>
</svg>