<?xml version="1.0" encoding="UTF-8"?>
<svg id="_图层_1" data-name="图层 1" xmlns="http://www.w3.org/2000/svg" viewBox="0 0 113.89 113.89">
  <defs>
    <style>
      .cls-1 {
        stroke: #349394;
      }

      .cls-1, .cls-2, .cls-3 {
        fill: none;
        stroke-miterlimit: 10;
        stroke-width: .5px;
      }

      .cls-2 {
        stroke: #c8e4c9;
      }

      .cls-3 {
        stroke: #81c58a;
      }
    </style>
  </defs>
  <g>
    <g id="_径向重复_" data-name="&amp;lt;径向重复&amp;gt;">
      <path class="cls-3" d="M56.67,113.32c-.47-1.16-1.26-7.05.28-45.04,1.53,37.99.74,43.88.28,45.04-.17.43-.38.43-.56,0Z"/>
    </g>
    <g id="_径向重复_-2" data-name="&amp;lt;径向重复&amp;gt;">
      <path class="cls-3" d="M39.26,110.47c-.09-1.25.98-7.09,14.18-42.75-10.28,36.6-12.85,41.96-13.65,42.92-.29.35-.5.29-.53-.17Z"/>
    </g>
    <g id="_径向重复_-3" data-name="&amp;lt;径向重复&amp;gt;">
      <path class="cls-3" d="M23.58,102.39c.3-1.21,3.13-6.44,26.7-36.27-21.09,31.64-25.19,35.93-26.25,36.6-.39.24-.56.12-.45-.33Z"/>
    </g>
    <g id="_径向重复_-4" data-name="&amp;lt;径向重复&amp;gt;">
      <path class="cls-3" d="M11.17,89.85c.66-1.06,4.96-5.16,36.6-26.25-29.83,23.57-35.06,26.39-36.27,26.7-.44.11-.57-.06-.33-.45Z"/>
    </g>
    <g id="_径向重复_-5" data-name="&amp;lt;径向重复&amp;gt;">
      <path class="cls-3" d="M3.24,74.1c.96-.8,6.31-3.37,42.92-13.65-35.66,13.2-41.5,14.27-42.75,14.18-.46-.03-.52-.23-.17-.53Z"/>
    </g>
    <g id="_径向重复_-6" data-name="&amp;lt;径向重复&amp;gt;">
      <path class="cls-3" d="M.57,56.67c1.16-.47,7.05-1.26,45.04.28-37.99,1.53-43.88.74-45.04.28-.43-.17-.43-.38,0-.56Z"/>
    </g>
    <g id="_径向重复_-7" data-name="&amp;lt;径向重复&amp;gt;">
      <path class="cls-3" d="M3.41,39.26c1.25-.09,7.09.98,42.75,14.18C9.56,43.16,4.2,40.59,3.24,39.79c-.35-.29-.29-.5.17-.53Z"/>
    </g>
    <g id="_径向重复_-8" data-name="&amp;lt;径向重复&amp;gt;">
      <path class="cls-3" d="M11.5,23.58c1.21.3,6.44,3.13,36.27,26.7C16.13,29.19,11.83,25.09,11.17,24.03c-.24-.39-.12-.56.33-.45Z"/>
    </g>
    <g id="_径向重复_-9" data-name="&amp;lt;径向重复&amp;gt;">
      <path class="cls-3" d="M24.03,11.17c1.06.66,5.16,4.96,26.25,36.6C26.71,17.94,23.89,12.71,23.58,11.5c-.11-.44.06-.57.45-.33Z"/>
    </g>
    <g id="_径向重复_-10" data-name="&amp;lt;径向重复&amp;gt;">
      <path class="cls-3" d="M39.79,3.24c.8.96,3.37,6.31,13.65,42.92C40.24,10.5,39.17,4.66,39.26,3.41c.03-.46.23-.52.53-.17Z"/>
    </g>
    <g id="_径向重复_-11" data-name="&amp;lt;径向重复&amp;gt;">
      <path class="cls-3" d="M57.22.57c.47,1.16,1.26,7.05-.28,45.04-1.53-37.99-.74-43.88-.28-45.04.17-.43.38-.43.56,0Z"/>
    </g>
    <g id="_径向重复_-12" data-name="&amp;lt;径向重复&amp;gt;">
      <path class="cls-3" d="M74.63,3.41c.09,1.25-.98,7.09-14.18,42.75,10.28-36.6,12.85-41.96,13.65-42.92.29-.35.5-.29.53.17Z"/>
    </g>
    <g id="_径向重复_-13" data-name="&amp;lt;径向重复&amp;gt;">
      <path class="cls-3" d="M90.3,11.5c-.3,1.21-3.13,6.44-26.7,36.27,21.09-31.64,25.19-35.93,26.25-36.6.39-.24.56-.12.45.33Z"/>
    </g>
    <g id="_径向重复_-14" data-name="&amp;lt;径向重复&amp;gt;">
      <path class="cls-3" d="M102.71,24.03c-.66,1.06-4.96,5.16-36.6,26.25,29.83-23.57,35.06-26.39,36.27-26.7.44-.11.57.06.33.45Z"/>
    </g>
    <g id="_径向重复_-15" data-name="&amp;lt;径向重复&amp;gt;">
      <path class="cls-3" d="M110.64,39.79c-.96.8-6.31,3.37-42.92,13.65,35.66-13.2,41.5-14.27,42.75-14.18.46.03.52.23.17.53Z"/>
    </g>
    <g id="_径向重复_-16" data-name="&amp;lt;径向重复&amp;gt;">
      <path class="cls-3" d="M113.32,57.22c-1.16.47-7.05,1.26-45.04-.28,37.99-1.53,43.88-.74,45.04-.28.43.17.43.38,0,.56Z"/>
    </g>
    <g id="_径向重复_-17" data-name="&amp;lt;径向重复&amp;gt;">
      <path class="cls-3" d="M110.47,74.63c-1.25.09-7.09-.98-42.75-14.18,36.6,10.28,41.96,12.85,42.92,13.65.35.29.29.5-.17.53Z"/>
    </g>
    <g id="_径向重复_-18" data-name="&amp;lt;径向重复&amp;gt;">
      <path class="cls-3" d="M102.39,90.3c-1.21-.3-6.44-3.13-36.27-26.7,31.64,21.09,35.93,25.19,36.6,26.25.24.39.12.56-.33.45Z"/>
    </g>
    <g id="_径向重复_-19" data-name="&amp;lt;径向重复&amp;gt;">
      <path class="cls-3" d="M89.85,102.71c-1.06-.66-5.16-4.96-26.25-36.6,23.57,29.83,26.39,35.06,26.7,36.27.11.44-.06.57-.45.33Z"/>
    </g>
    <g id="_径向重复_-20" data-name="&amp;lt;径向重复&amp;gt;">
      <path class="cls-3" d="M74.1,110.64c-.8-.96-3.37-6.31-13.65-42.92,13.2,35.66,14.27,41.5,14.18,42.75-.03.46-.23.52-.53.17Z"/>
    </g>
  </g>
  <g>
    <g id="_径向重复_-21" data-name="&amp;lt;径向重复&amp;gt;">
      <path class="cls-1" d="M22.35,22.04c.9.38,4.58,3.19,24.67,24.97-21.78-20.09-24.59-23.77-24.97-24.67-.14-.33-.02-.45.31-.31Z"/>
    </g>
    <g id="_径向重复_-22" data-name="&amp;lt;径向重复&amp;gt;">
      <path class="cls-1" d="M34.83,13.06c.73.64,3.37,4.45,15.74,31.37-14.51-25.84-16.04-30.21-16.13-31.17-.03-.36.12-.43.39-.2Z"/>
    </g>
    <g id="_径向重复_-23" data-name="&amp;lt;径向重复&amp;gt;">
      <path class="cls-1" d="M49.47,8.38c.5.83,1.83,5.27,5.28,34.7-5.81-29.05-5.92-33.68-5.7-34.63.08-.35.24-.37.43-.07Z"/>
    </g>
    <g id="_径向重复_-24" data-name="&amp;lt;径向重复&amp;gt;">
      <path class="cls-1" d="M64.84,8.44c.22.95.11,5.58-5.7,34.63,3.45-29.43,4.78-33.87,5.28-34.7.18-.31.35-.28.43.07Z"/>
    </g>
    <g id="_径向重复_-25" data-name="&amp;lt;径向重复&amp;gt;">
      <path class="cls-1" d="M79.44,13.26c-.09.97-1.62,5.34-16.13,31.17,12.38-26.92,15.01-30.73,15.74-31.37.27-.23.42-.16.39.2Z"/>
    </g>
    <g id="_径向重复_-26" data-name="&amp;lt;径向重复&amp;gt;">
      <path class="cls-1" d="M91.84,22.35c-.38.9-3.19,4.58-24.97,24.67,20.09-21.78,23.77-24.59,24.67-24.97.33-.14.45-.02.31.31Z"/>
    </g>
    <g id="_径向重复_-27" data-name="&amp;lt;径向重复&amp;gt;">
      <path class="cls-1" d="M100.82,34.83c-.64.73-4.45,3.37-31.37,15.74,25.84-14.51,30.21-16.04,31.17-16.13.36-.03.43.12.2.39Z"/>
    </g>
    <g id="_径向重复_-28" data-name="&amp;lt;径向重复&amp;gt;">
      <path class="cls-1" d="M105.51,49.47c-.83.5-5.27,1.83-34.7,5.28,29.05-5.81,33.68-5.92,34.63-5.7.35.08.37.24.07.43Z"/>
    </g>
    <g id="_径向重复_-29" data-name="&amp;lt;径向重复&amp;gt;">
      <path class="cls-1" d="M105.44,64.84c-.95.22-5.58.11-34.63-5.7,29.43,3.45,33.87,4.78,34.7,5.28.31.18.28.35-.07.43Z"/>
    </g>
    <g id="_径向重复_-30" data-name="&amp;lt;径向重复&amp;gt;">
      <path class="cls-1" d="M100.63,79.44c-.97-.09-5.34-1.62-31.17-16.13,26.92,12.38,30.73,15.01,31.37,15.74.23.27.16.42-.2.39Z"/>
    </g>
    <g id="_径向重复_-31" data-name="&amp;lt;径向重复&amp;gt;">
      <path class="cls-1" d="M91.54,91.84c-.9-.38-4.58-3.19-24.67-24.97,21.78,20.09,24.59,23.77,24.97,24.67.14.33.02.45-.31.31Z"/>
    </g>
    <g id="_径向重复_-32" data-name="&amp;lt;径向重复&amp;gt;">
      <path class="cls-1" d="M79.06,100.82c-.73-.64-3.37-4.45-15.74-31.37,14.51,25.84,16.04,30.21,16.13,31.17.03.36-.12.43-.39.2Z"/>
    </g>
    <g id="_径向重复_-33" data-name="&amp;lt;径向重复&amp;gt;">
      <path class="cls-1" d="M64.42,105.51c-.5-.83-1.83-5.27-5.28-34.7,5.81,29.05,5.92,33.68,5.7,34.63-.08.35-.24.37-.43.07Z"/>
    </g>
    <g id="_径向重复_-34" data-name="&amp;lt;径向重复&amp;gt;">
      <path class="cls-1" d="M49.04,105.44c-.22-.95-.11-5.58,5.7-34.63-3.45,29.43-4.78,33.87-5.28,34.7-.18.31-.35.28-.43-.07Z"/>
    </g>
    <g id="_径向重复_-35" data-name="&amp;lt;径向重复&amp;gt;">
      <path class="cls-1" d="M34.44,100.63c.09-.97,1.62-5.34,16.13-31.17-12.38,26.92-15.01,30.73-15.74,31.37-.27.23-.42.16-.39-.2Z"/>
    </g>
    <g id="_径向重复_-36" data-name="&amp;lt;径向重复&amp;gt;">
      <path class="cls-1" d="M22.04,91.54c.38-.9,3.19-4.58,24.97-24.67-20.09,21.78-23.77,24.59-24.67,24.97-.33.14-.45.02-.31-.31Z"/>
    </g>
    <g id="_径向重复_-37" data-name="&amp;lt;径向重复&amp;gt;">
      <path class="cls-1" d="M13.06,79.06c.64-.73,4.45-3.37,31.37-15.74-25.84,14.51-30.21,16.04-31.17,16.13-.36.03-.43-.12-.2-.39Z"/>
    </g>
    <g id="_径向重复_-38" data-name="&amp;lt;径向重复&amp;gt;">
      <path class="cls-1" d="M8.38,64.42c.83-.5,5.27-1.83,34.7-5.28-29.05,5.81-33.68,5.92-34.63,5.7-.35-.08-.37-.24-.07-.43Z"/>
    </g>
    <g id="_径向重复_-39" data-name="&amp;lt;径向重复&amp;gt;">
      <path class="cls-1" d="M8.44,49.04c.95-.22,5.58-.11,34.63,5.7-29.43-3.45-33.87-4.78-34.7-5.28-.31-.18-.28-.35.07-.43Z"/>
    </g>
    <g id="_径向重复_-40" data-name="&amp;lt;径向重复&amp;gt;">
      <path class="cls-1" d="M13.26,34.44c.97.09,5.34,1.62,31.17,16.13-26.92-12.38-30.73-15.01-31.37-15.74-.23-.27-.16-.42.2-.39Z"/>
    </g>
  </g>
  <g>
    <g id="_径向重复_-41" data-name="&amp;lt;径向重复&amp;gt;">
      <ellipse class="cls-2" cx="56.94" cy="50.59" rx="1.31" ry="2.84"/>
    </g>
    <g id="_径向重复_-42" data-name="&amp;lt;径向重复&amp;gt;">
      <ellipse class="cls-2" cx="59.9" cy="51.32" rx="2.84" ry="1.31" transform="translate(-13.38 80.5) rotate(-62.31)"/>
    </g>
    <g id="_径向重复_-43" data-name="&amp;lt;径向重复&amp;gt;">
      <ellipse class="cls-2" cx="62.17" cy="53.33" rx="2.84" ry="1.31" transform="translate(-19.29 44.76) rotate(-34.62)"/>
    </g>
    <g id="_径向重复_-44" data-name="&amp;lt;径向重复&amp;gt;">
      <ellipse class="cls-2" cx="63.25" cy="56.18" rx="2.84" ry="1.31" transform="translate(-6.31 8.03) rotate(-6.92)"/>
    </g>
    <g id="_径向重复_-45" data-name="&amp;lt;径向重复&amp;gt;">
      <ellipse class="cls-2" cx="62.89" cy="59.2" rx="1.31" ry="2.84" transform="translate(-14.76 97) rotate(-69.23)"/>
    </g>
    <g id="_径向重复_-46" data-name="&amp;lt;径向重复&amp;gt;">
      <ellipse class="cls-2" cx="61.16" cy="61.7" rx="1.31" ry="2.84" transform="translate(-25.53 56.07) rotate(-41.54)"/>
    </g>
    <g id="_径向重复_-47" data-name="&amp;lt;径向重复&amp;gt;">
      <ellipse class="cls-2" cx="58.46" cy="63.11" rx="1.31" ry="2.84" transform="translate(-13.41 15.83) rotate(-13.85)"/>
    </g>
    <g id="_径向重复_-48" data-name="&amp;lt;径向重复&amp;gt;">
      <ellipse class="cls-2" cx="55.42" cy="63.11" rx="2.84" ry="1.31" transform="translate(-19.12 101.82) rotate(-76.15)"/>
    </g>
    <g id="_径向重复_-49" data-name="&amp;lt;径向重复&amp;gt;">
      <ellipse class="cls-2" cx="52.73" cy="61.7" rx="2.84" ry="1.31" transform="translate(-28.42 60.25) rotate(-48.46)"/>
    </g>
    <g id="_径向重复_-50" data-name="&amp;lt;径向重复&amp;gt;">
      <ellipse class="cls-2" cx="51" cy="59.2" rx="2.84" ry="1.31" transform="translate(-17.68 21.93) rotate(-20.77)"/>
    </g>
    <g id="_径向重复_-51" data-name="&amp;lt;径向重复&amp;gt;">
      <ellipse class="cls-2" cx="50.63" cy="56.18" rx="1.31" ry="2.84" transform="translate(-11.24 99.67) rotate(-83.08)"/>
    </g>
    <g id="_径向重复_-52" data-name="&amp;lt;径向重复&amp;gt;">
      <ellipse class="cls-2" cx="51.71" cy="53.33" rx="1.31" ry="2.84" transform="translate(-21.56 65.59) rotate(-55.38)"/>
    </g>
    <g id="_径向重复_-53" data-name="&amp;lt;径向重复&amp;gt;">
      <ellipse class="cls-2" cx="53.99" cy="51.32" rx="1.31" ry="2.84" transform="translate(-17.66 30.97) rotate(-27.69)"/>
    </g>
  </g>
</svg>