<?xml version="1.0" encoding="UTF-8"?>
<svg id="a" data-name="图层 1" xmlns="http://www.w3.org/2000/svg" width="40" height="40" viewBox="0 0 40 40">
  <g>
    <path d="M20,40c-.08,0-.14-.06-.18-.17h0c-.41-1.02-.18-9.18.09-15.84h.18c.27,6.66.5,14.82.09,15.84-.05.11-.11.17-.18.17ZM19.99,39.76s0,.02.01.03c0,0,0-.02.01-.03.21-.51.36-3.3-.01-13.38-.37,10.08-.22,12.86-.01,13.38h0Z" fill="#80c489"/>
    <path d="M13.86,39.03s-.03,0-.04,0c-.07-.02-.11-.1-.12-.22h0c-.08-1.1,2.67-8.79,4.98-15.04l.18.06c-1.8,6.42-4.1,14.25-4.81,15.09-.06.07-.12.11-.18.11ZM13.88,38.79s0,.02,0,.03c0,0,.01-.01.02-.02.35-.42,1.36-3.03,4.12-12.72-3.47,9.47-4.18,12.17-4.14,12.72h0Z" fill="#80c489"/>
    <path d="M8.33,36.21s-.06,0-.09-.03c-.06-.04-.08-.13-.05-.24h0c.27-1.07,5.25-7.53,9.38-12.76l.15.11c-3.7,5.55-8.3,12.28-9.24,12.87-.06.04-.11.06-.16.06ZM16.25,25.17c-6.22,7.94-7.74,10.28-7.87,10.81h0s0,.02,0,.03c0,0,.02,0,.02-.01.47-.29,2.23-2.46,7.85-10.83Z" fill="#80c489"/>
    <path d="M3.96,31.82c-.06,0-.11-.02-.14-.06-.04-.06-.03-.14.03-.25h0c.59-.94,7.32-5.54,12.87-9.24l.11.15c-5.23,4.13-11.69,9.12-12.76,9.38-.04,0-.07.01-.1.01ZM4.01,31.6h0s-.01.02-.01.02c0,0,.02,0,.03,0,.53-.13,2.88-1.65,10.81-7.87-8.37,5.62-10.54,7.39-10.83,7.85Z" fill="#80c489"/>
    <path d="M1.25,26.3s-.03,0-.05,0c-.12,0-.19-.05-.22-.12-.02-.07.01-.15.1-.23h0c.85-.71,8.68-3.01,15.09-4.81l.06.18c-6.17,2.28-13.73,4.98-14.99,4.98ZM1.18,26.11s.02,0,.03,0c.55.04,3.25-.68,12.72-4.14-9.7,2.76-12.3,3.77-12.72,4.12,0,0-.02.01-.02.02Z" fill="#80c489"/>
    <path d="M4.13,20.41c-2.07,0-3.56-.06-3.96-.22-.11-.05-.17-.11-.17-.18s.06-.14.17-.18c1.02-.41,9.18-.18,15.84.09v.18c-4.05.16-8.66.31-11.88.31ZM.21,20s.02,0,.03.01c.51.21,3.3.36,13.38-.01-10.08-.37-12.86-.22-13.38-.01H.24s-.02,0-.03.01Z" fill="#80c489"/>
    <path d="M16.18,18.85c-6.42-1.8-14.25-4.1-15.09-4.81-.09-.08-.13-.15-.1-.23.02-.07.1-.11.22-.12h0c1.1-.08,8.78,2.67,15.04,4.98l-.06.18ZM1.18,13.88s.01.01.02.02c.42.35,3.03,1.36,12.72,4.12C4.46,14.56,1.76,13.84,1.21,13.88h0s-.02,0-.03,0Z" fill="#80c489"/>
    <path d="M16.72,17.73c-5.55-3.7-12.28-8.3-12.87-9.24-.06-.1-.07-.19-.03-.25.04-.06.13-.08.25-.05h0c1.07.27,7.53,5.25,12.76,9.38l-.11.15ZM3.99,8.37s0,.02.01.02c.29.47,2.46,2.23,10.83,7.85-7.93-6.22-10.28-7.74-10.81-7.87-.01,0-.02,0-.03,0Z" fill="#80c489"/>
    <path d="M17.58,16.83c-4.13-5.23-9.12-11.69-9.38-12.76-.03-.12-.01-.2.05-.25.06-.04.15-.03.25.03.94.59,5.54,7.32,9.24,12.87l-.15.11ZM8.37,3.99s0,.02,0,.03c.13.53,1.65,2.88,7.87,10.81-5.62-8.37-7.39-10.54-7.85-10.83h0s-.02-.01-.02-.01Z" fill="#80c489"/>
    <path d="M18.68,16.23c-2.31-6.25-5.06-13.94-4.98-15.04,0-.12.05-.19.12-.22.07-.02.15.01.23.1h0c.71.85,3.01,8.68,4.81,15.09l-.18.06ZM13.89,1.18s0,.02,0,.03c-.04.55.68,3.25,4.14,12.72C15.27,4.23,14.26,1.62,13.9,1.2h0s-.01-.02-.02-.02Z" fill="#80c489"/>
    <path d="M20.09,16.01h-.18c-.27-6.66-.5-14.82-.09-15.84.09-.23.28-.23.37,0h0c.41,1.02.18,9.18-.09,15.84ZM20,.21s0,.02-.01.03c-.21.51-.36,3.3.01,13.38.37-10.08.22-12.86.01-13.38h0s0-.02-.01-.03Z" fill="#80c489"/>
    <path d="M21.32,16.23l-.18-.06c1.8-6.42,4.1-14.25,4.81-15.09.08-.09.15-.13.23-.1.07.02.11.1.12.22h0c.08,1.1-2.67,8.79-4.98,15.04ZM26.11,1.18s-.01.01-.02.02c-.35.42-1.36,3.03-4.12,12.72,3.47-9.47,4.18-12.17,4.14-12.72h0s0-.02,0-.03Z" fill="#80c489"/>
    <path d="M22.42,16.83l-.15-.11c3.7-5.55,8.3-12.28,9.24-12.87.1-.06.19-.07.25-.03.06.04.08.13.05.25h0c-.27,1.07-5.25,7.53-9.38,12.76ZM31.63,3.99s-.02,0-.02.01c-.47.29-2.23,2.46-7.85,10.83,6.22-7.93,7.74-10.28,7.87-10.81,0-.01,0-.02,0-.03Z" fill="#80c489"/>
    <path d="M23.28,17.73l-.11-.15c5.23-4.13,11.69-9.12,12.76-9.38.12-.03.2-.01.24.05.04.06.03.14-.03.25h0c-.59.94-7.32,5.54-12.87,9.24ZM36.01,8.37s-.02,0-.03,0c-.53.13-2.88,1.65-10.81,7.87,8.37-5.62,10.54-7.39,10.83-7.85,0,0,.01-.02.01-.02Z" fill="#80c489"/>
    <path d="M23.82,18.85l-.06-.18c6.25-2.31,13.94-5.06,15.04-4.98.12,0,.19.05.22.12.02.07-.01.15-.1.23-.85.71-8.67,3.01-15.09,4.81ZM38.75,13.88c-.64,0-3.43.76-12.67,4.15,9.7-2.76,12.3-3.77,12.72-4.12h0s.02-.01.02-.02c0,0-.02,0-.03,0-.01,0-.03,0-.04,0Z" fill="#80c489"/>
    <path d="M35.87,20.41c-3.22,0-7.82-.15-11.88-.31v-.18c6.66-.27,14.82-.5,15.84-.09.11.05.17.11.17.18s-.06.14-.17.18c-.4.16-1.89.22-3.96.22ZM26.39,20c10.08.37,12.86.22,13.38.01h0s.02,0,.03-.01c0,0-.02,0-.03-.01-.51-.21-3.3-.36-13.38.01Z" fill="#80c489"/>
    <path d="M38.75,26.3c-1.26,0-8.82-2.7-14.99-4.98l.06-.18c6.42,1.8,14.25,4.1,15.09,4.81.09.08.13.15.1.23-.02.07-.1.11-.22.12h0s-.03,0-.05,0ZM26.07,21.97c9.47,3.47,12.16,4.18,12.72,4.14h0s.02,0,.03,0c0,0-.01-.01-.02-.02-.42-.35-3.03-1.36-12.72-4.12Z" fill="#80c489"/>
    <path d="M36.04,31.82s-.06,0-.1-.01h0c-1.07-.27-7.53-5.25-12.76-9.38l.11-.15c5.55,3.7,12.28,8.3,12.87,9.24.06.1.07.19.03.25-.03.04-.08.06-.14.06ZM35.98,31.62s.02,0,.03,0c0,0,0-.02-.01-.02-.29-.47-2.46-2.23-10.83-7.85,7.93,6.22,10.28,7.74,10.81,7.87h0Z" fill="#80c489"/>
    <path d="M31.67,36.21s-.1-.02-.16-.06c-.94-.59-5.54-7.32-9.24-12.87l.15-.11c4.13,5.23,9.12,11.69,9.38,12.76.03.12.01.2-.05.25-.03.02-.05.03-.09.03ZM23.75,25.17c5.62,8.37,7.39,10.54,7.85,10.83h0s.02.01.02.01c0,0,0-.02,0-.03-.13-.53-1.65-2.88-7.87-10.81Z" fill="#80c489"/>
    <path d="M26.14,39.03c-.06,0-.12-.04-.18-.11-.71-.85-3.01-8.68-4.81-15.09l.18-.06c2.31,6.25,5.06,13.94,4.98,15.04,0,.12-.05.19-.12.22-.01,0-.03,0-.04,0ZM21.97,26.07c2.76,9.7,3.77,12.3,4.12,12.72h0s.01.02.02.02c0,0,0-.02,0-.03.04-.55-.68-3.25-4.14-12.72Z" fill="#80c489"/>
  </g>
  <g>
    <path d="M12.24,34.89s-.05,0-.07-.02c-.06-.04-.09-.11-.08-.22.05-.75,1.96-4.31,5.67-10.58l.16.09c-3.15,6.73-5.01,10.33-5.55,10.69-.05.03-.09.05-.13.05ZM16.89,25.89c-3.94,6.73-4.6,8.39-4.62,8.77h0s0,.02,0,.03c.27-.19,1.23-1.62,4.63-8.8Z" fill="#349293"/>
    <path d="M8.07,31.77c-.06,0-.1-.02-.12-.05-.05-.05-.05-.13-.01-.24.28-.7,3.2-3.49,8.66-8.31l.13.13c-5.07,5.43-7.96,8.28-8.58,8.45-.03,0-.06.01-.08.01ZM15.22,24.64c-5.82,5.19-6.97,6.56-7.11,6.91h0s0,.02,0,.03c.31-.1,1.67-1.16,7.12-6.94Z" fill="#349293"/>
    <path d="M5.11,27.52s0,0-.01,0c-.11,0-.16-.05-.18-.1-.03-.07,0-.14.06-.23h0c.48-.57,4.12-2.33,10.8-5.23l.08.17c-6.46,3.58-10.08,5.39-10.76,5.39ZM5.11,27.34s0,0,0,0c.34,0,1.98-.61,8.91-4.4-7.14,3.14-8.65,4.09-8.9,4.38,0,0-.01.02-.02.02Z" fill="#349293"/>
    <path d="M3.93,22.59c-.2,0-.34-.01-.43-.04-.11-.04-.13-.1-.14-.15,0-.07.04-.14.13-.2.64-.4,4.64-.95,11.89-1.63l.03.18c-6.32,1.22-10.17,1.84-11.48,1.84ZM3.57,22.38c.31.11,2.04.04,9.84-1.43-7.76.77-9.49,1.21-9.81,1.41h0s-.02.01-.02.02Z" fill="#349293"/>
    <path d="M15.4,19.3c-7.38-.91-11.37-1.57-11.88-1.97-.09-.07-.1-.14-.09-.18.02-.07.08-.12.19-.15h0c.73-.18,4.7.53,11.81,2.12l-.03.18ZM3.64,17.18c.26.2,1.93.67,9.8,1.68-7.62-1.66-9.4-1.78-9.77-1.69h0s-.02,0-.03,0Z" fill="#349293"/>
    <path d="M15.84,17.91c-6.73-3.15-10.33-5.01-10.69-5.55-.06-.09-.05-.16-.03-.2.04-.06.11-.09.22-.08.75.05,4.31,1.96,10.58,5.67l-.09.16ZM5.31,12.27c.19.27,1.62,1.23,8.8,4.63-6.73-3.94-8.39-4.6-8.77-4.62h0s-.02,0-.03,0Z" fill="#349293"/>
    <path d="M16.69,16.73c-5.43-5.07-8.27-7.96-8.45-8.58-.03-.11,0-.17.04-.2.05-.05.13-.05.24,0,.7.28,3.49,3.2,8.31,8.66l-.13.13ZM8.42,8.1c.1.31,1.16,1.67,6.94,7.12-5.19-5.82-6.56-6.97-6.91-7.11h0s-.02,0-.03,0Z" fill="#349293"/>
    <path d="M17.86,15.87c-3.6-6.5-5.41-10.13-5.39-10.77,0-.11.05-.16.1-.18.07-.03.14,0,.23.06h0c.57.48,2.33,4.12,5.23,10.8l-.17.08ZM12.66,5.11c0,.33.59,1.95,4.4,8.91-3.14-7.14-4.09-8.65-4.38-8.9h0s-.02-.01-.02-.02Z" fill="#349293"/>
    <path d="M19.24,15.41c-1.41-7.3-2.02-11.3-1.8-11.91.04-.11.1-.13.15-.14.07,0,.14.04.2.13.4.64.95,4.64,1.63,11.89l-.18.03ZM17.62,3.57c-.11.31-.04,2.04,1.43,9.84-.77-7.76-1.21-9.49-1.41-9.81h0s-.01-.02-.02-.02Z" fill="#349293"/>
    <path d="M20.88,15.43l-.18-.03c.91-7.38,1.57-11.37,1.97-11.88.07-.09.14-.1.18-.09.07.02.12.08.15.19.18.73-.53,4.7-2.12,11.81ZM22.81,3.64c-.2.26-.67,1.92-1.68,9.8,1.66-7.62,1.78-9.4,1.69-9.77,0-.01,0-.02,0-.03Z" fill="#349293"/>
    <path d="M22.25,15.93l-.16-.09c3.15-6.73,5.01-10.33,5.55-10.69.09-.06.16-.05.2-.03.06.04.09.11.08.22-.05.75-1.96,4.31-5.67,10.58ZM27.73,5.31c-.27.19-1.23,1.62-4.63,8.8,3.94-6.73,4.6-8.39,4.62-8.77h0s0-.02,0-.03Z" fill="#349293"/>
    <path d="M23.4,16.82l-.13-.13c5.07-5.43,7.96-8.28,8.58-8.45.11-.03.17,0,.2.04.05.05.05.13,0,.24-.28.7-3.2,3.49-8.66,8.31ZM31.89,8.42c-.31.1-1.67,1.16-7.12,6.94,5.82-5.19,6.97-6.56,7.11-6.91h0s0-.02,0-.03Z" fill="#349293"/>
    <path d="M24.21,18.03l-.08-.17c6.46-3.58,10.08-5.39,10.76-5.39,0,0,0,0,.01,0,.11,0,.16.05.18.1.03.07,0,.14-.06.23-.48.57-4.12,2.33-10.8,5.23ZM34.89,12.66c-.34,0-1.98.61-8.91,4.4,7.14-3.14,8.65-4.09,8.9-4.38h0s.01-.02.02-.02c0,0,0,0,0,0Z" fill="#349293"/>
    <path d="M24.61,19.43l-.03-.18c7.3-1.41,11.3-2.02,11.91-1.8.11.04.13.1.14.15,0,.07-.04.14-.13.2h0c-.64.4-4.64.95-11.89,1.63ZM36.08,17.59c-.81,0-3.14.27-9.48,1.46,7.76-.77,9.49-1.21,9.81-1.41h0s.02-.01.02-.02c-.06-.02-.16-.03-.35-.03Z" fill="#349293"/>
    <path d="M36.06,23.03c-1.24,0-5.1-.72-11.49-2.15l.03-.18c7.38.91,11.37,1.57,11.88,1.97.09.07.1.14.09.18-.02.07-.08.12-.19.15l-.02-.09.02.09c-.07.02-.18.03-.32.03ZM26.57,21.13c7.62,1.66,9.4,1.78,9.77,1.69.01,0,.02,0,.03,0-.26-.2-1.92-.67-9.8-1.68Z" fill="#349293"/>
    <path d="M34.68,27.92s-.02,0-.04,0h0c-.75-.05-4.31-1.96-10.58-5.67l.09-.16c6.73,3.15,10.33,5.01,10.69,5.55.06.09.05.16.03.2-.03.06-.1.08-.19.08ZM34.66,27.73s.02,0,.03,0c-.19-.27-1.62-1.23-8.8-4.63,6.73,3.94,8.39,4.6,8.77,4.62h0Z" fill="#349293"/>
    <path d="M31.61,32.08s-.08,0-.13-.03h0c-.7-.28-3.49-3.2-8.31-8.66l.13-.13c5.43,5.07,8.27,7.96,8.45,8.58.03.11,0,.17-.04.2-.03.03-.07.04-.11.04ZM31.56,31.88s.02,0,.03,0c-.1-.31-1.16-1.67-6.94-7.12,5.19,5.82,6.56,6.97,6.91,7.11h0Z" fill="#349293"/>
    <path d="M27.37,35.09c-.05,0-.11-.03-.17-.08h0c-.57-.48-2.33-4.12-5.23-10.8l.17-.08c3.6,6.5,5.41,10.13,5.39,10.77,0,.11-.05.16-.1.18-.02,0-.04.01-.06.01ZM27.32,34.87s.02.01.02.02c0-.33-.59-1.95-4.4-8.91,3.14,7.14,4.09,8.65,4.37,8.9h0Z" fill="#349293"/>
    <path d="M22.39,36.64c-.07,0-.13-.04-.18-.13h0c-.4-.64-.95-4.64-1.63-11.89l.18-.03c1.41,7.3,2.02,11.3,1.8,11.91-.04.11-.1.13-.15.14,0,0-.01,0-.02,0ZM22.36,36.41s.01.02.02.02c.11-.31.04-2.04-1.43-9.84.77,7.76,1.21,9.49,1.41,9.81h0Z" fill="#349293"/>
    <path d="M17.18,36.57s-.02,0-.03,0c-.07-.02-.12-.08-.15-.19h0c-.18-.73.53-4.7,2.12-11.81l.18.03c-.91,7.38-1.57,11.37-1.97,11.88-.06.07-.11.09-.15.09ZM17.18,36.33s0,.02,0,.03c.2-.26.67-1.92,1.68-9.8-1.66,7.62-1.78,9.4-1.69,9.77h0Z" fill="#349293"/>
  </g>
  <g>
    <path d="M19.24,23.1s-.08-.01-.11-.03c-.28-.14-.29-.84-.18-1.25.1-.36.34-.7.55-.8.1-.05.18-.03.23,0,.28.14.29.84.18,1.25-.1.36-.34.7-.55.8-.05.02-.09.03-.12.03ZM19.63,21.19s-.03,0-.05.01c-.14.06-.36.34-.45.68-.12.45-.04.97.09,1.04.02,0,.04,0,.07,0,.14-.06.36-.34.45-.68.12-.45.04-.97-.09-1.04,0,0-.01,0-.02,0Z" fill="#c7e3c9"/>
    <path d="M18.04,22.43s-.02,0-.03,0c-.11,0-.18-.06-.21-.1-.18-.25.13-.88.42-1.19h0c.25-.27.62-.47.86-.45.11,0,.18.06.21.1.18.25-.13.88-.42,1.19-.24.26-.6.45-.83.45ZM19.06,20.87c-.16,0-.47.15-.7.39h0c-.32.34-.48.85-.4.96.01.02.03.03.07.03.15,0,.47-.14.71-.39.32-.34.48-.85.4-.96-.01-.02-.03-.03-.07-.03,0,0-.01,0-.02,0Z" fill="#c7e3c9"/>
    <path d="M17.54,21.32c-.17,0-.33-.03-.43-.09-.1-.06-.13-.14-.13-.19-.04-.31.53-.72.92-.86h0c.35-.12.77-.12.97,0,.1.06.13.14.13.19.04.31-.53.72-.92.86-.18.06-.37.09-.54.09ZM17.96,20.35h0c-.44.15-.82.52-.8.66,0,.02.02.04.05.06.13.08.48.1.81-.02.44-.15.82-.52.8-.66,0-.02-.02-.04-.05-.06-.13-.08-.48-.1-.81.02Z" fill="#c7e3c9"/>
    <path d="M17.99,20.21c-.09,0-.18,0-.26-.02-.37-.05-.74-.25-.86-.45-.06-.1-.05-.18-.03-.23.11-.29.8-.39,1.22-.33.37.05.74.25.86.45.06.1.05.18.03.23-.09.24-.56.35-.96.35ZM17.79,19.35c-.38,0-.74.12-.78.23,0,.02,0,.04.02.07.08.13.38.31.73.36.46.07.97-.08,1.02-.21,0-.02,0-.04-.02-.07-.08-.13-.38-.31-.73-.36-.08-.01-.16-.02-.24-.02Z" fill="#c7e3c9"/>
    <path d="M18.87,19.47c-.3,0-.72-.17-.97-.35-.3-.22-.54-.56-.55-.8,0-.11.04-.18.08-.22.23-.21.89.03,1.23.27.3.22.54.56.55.8,0,.11-.04.18-.08.22-.06.06-.16.08-.27.08ZM17.69,18.2c-.06,0-.11.01-.14.03-.01.01-.02.04-.02.07,0,.16.19.45.48.66.38.27.9.38,1,.29.01-.01.02-.04.02-.07,0-.16-.19-.45-.48-.66-.29-.21-.66-.32-.86-.32Z" fill="#c7e3c9"/>
    <path d="M19.45,19.07c-.3,0-.73-.47-.9-.82-.16-.33-.21-.75-.12-.96.05-.1.12-.14.17-.16.3-.08.78.44.96.81.16.33.21.75.12.96-.05.1-.12.14-.17.16-.02,0-.04,0-.06,0ZM18.67,17.3s-.01,0-.02,0c-.02,0-.04.02-.05.05-.07.14-.04.49.11.81.21.42.62.75.75.72.02,0,.04-.02.05-.05.07-.14.04-.49-.11-.81h0c-.2-.4-.58-.72-.73-.72Z" fill="#c7e3c9"/>
    <path d="M20.06,18.95s-.04,0-.05,0c-.3-.07-.49-.75-.48-1.17,0-.37.16-.76.34-.91.09-.07.17-.07.22-.06.3.07.49.75.48,1.17,0,.37-.16.76-.34.91-.06.05-.12.06-.17.06ZM20.05,16.98s-.04,0-.06.03c-.12.1-.26.42-.27.77-.01.47.2.95.33.98.02,0,.04,0,.07-.02.12-.1.26-.42.27-.77h0c.01-.47-.2-.95-.33-.98,0,0,0,0-.01,0Z" fill="#c7e3c9"/>
    <path d="M20.66,19.12c-.08,0-.13-.03-.16-.06-.24-.2-.08-.89.12-1.26.18-.33.49-.6.73-.64.11-.02.19.02.23.05.24.2.08.89-.12,1.26-.18.33-.49.6-.73.64-.02,0-.04,0-.06,0ZM21.41,17.34s-.02,0-.03,0c-.15.03-.43.25-.6.55-.23.41-.27.94-.16,1.03.01.01.04.02.07.01.15-.03.43-.25.6-.55.23-.41.27-.94.16-1.03-.01,0-.02-.01-.04-.01Z" fill="#c7e3c9"/>
    <path d="M21.22,19.58c-.06,0-.12,0-.17-.02-.11-.03-.16-.1-.18-.15-.11-.29.34-.83.69-1.06.31-.2.72-.3.94-.23.11.03.16.1.18.15.11.29-.34.83-.69,1.06-.24.16-.55.26-.77.26ZM22.34,18.28c-.17,0-.44.07-.67.23-.39.25-.67.71-.62.83,0,.02.03.03.06.04.15.05.49-.02.79-.21h0c.39-.25.67-.71.62-.83,0-.02-.03-.03-.06-.04-.03,0-.07-.01-.11-.01Z" fill="#c7e3c9"/>
    <path d="M21.93,20.34c-.32,0-.65-.09-.79-.24-.08-.08-.09-.16-.09-.22.03-.31.69-.57,1.1-.61.37-.03.78.06.94.23.08.08.09.16.09.22-.03.31-.69.57-1.1.61-.05,0-.1,0-.15,0ZM22.31,19.45s-.09,0-.14,0c-.46.04-.92.31-.94.45,0,.02,0,.04.03.07.11.11.45.21.79.18.46-.04.92-.31.94-.45,0-.02,0-.04-.03-.07-.1-.1-.36-.19-.66-.19Z" fill="#c7e3c9"/>
    <path d="M22.43,21.4c-.25,0-.54-.06-.75-.14h0c-.35-.14-.66-.42-.73-.64-.03-.11,0-.19.02-.23.17-.26.87-.19,1.26-.03.35.14.66.42.73.64.03.11,0,.19-.02.23-.08.12-.29.17-.52.17ZM21.76,21.09c.43.18.96.15,1.04.04.01-.02.01-.04,0-.07-.05-.15-.3-.39-.62-.53-.43-.18-.96-.15-1.04-.04-.01.02-.01.04,0,.07.05.15.3.39.62.53h0Z" fill="#c7e3c9"/>
    <path d="M21.9,22.49c-.3,0-.76-.32-.99-.59-.24-.29-.39-.68-.34-.91.02-.11.08-.17.13-.19.27-.15.86.24,1.13.56.24.29.39.68.34.91-.02.11-.08.17-.13.19-.04.02-.09.03-.14.03ZM20.84,20.95s-.04,0-.06.01c-.02,0-.03.03-.04.06-.03.15.08.49.3.75.3.36.78.58.9.52.02,0,.03-.03.04-.06.03-.15-.08-.49-.3-.75-.26-.31-.67-.53-.85-.53Z" fill="#c7e3c9"/>
    <path d="M20.66,23.13c-.31,0-.65-.61-.74-1.02h0c-.08-.36-.03-.78.12-.96.07-.09.15-.11.2-.11h0c.31,0,.65.61.74,1.02.08.36.03.78-.12.96-.07.09-.15.11-.2.11h0ZM20.1,22.06c.1.45.42.88.56.88.02,0,.04-.01.06-.04.1-.12.16-.47.08-.81-.1-.45-.42-.88-.56-.88-.02,0-.04.01-.06.04-.1.12-.16.47-.08.81h0Z" fill="#c7e3c9"/>
  </g>
</svg>