<?xml version="1.0" encoding="UTF-8"?>
<svg id="a" data-name="图层 1" xmlns="http://www.w3.org/2000/svg" width="40" height="40" viewBox="0 0 40 40">
  <g>
    <path d="M9.86,37.27c-.1,0-.21-.03-.31-.09-.14-.08-.23-.21-.27-.37-.04-.15-.01-.31.07-.45,1.31-2.14,2.57-4.11,3.55-5.55,1.58-2.31,1.72-2.22,1.83-2.16h0c.1.06.25.15-1.07,2.61-.82,1.53-1.99,3.56-3.29,5.71-.11.18-.31.29-.51.29ZM14.6,28.88c-.49.43-2.46,3.29-5.09,7.58-.06.09-.07.2-.05.31.03.11.09.2.19.25.19.12.45.05.56-.14,2.6-4.31,4.23-7.37,4.39-8Z" fill="#4f81c2"/>
    <path d="M3.61,31.23c-.19,0-.39-.09-.5-.27-.09-.13-.12-.29-.08-.45.03-.16.13-.29.26-.38,2.11-1.36,4.11-2.59,5.62-3.46,2.43-1.4,2.52-1.26,2.58-1.15h0c.07.1.16.24-2.1,1.89-1.41,1.03-3.34,2.35-5.45,3.72-.1.07-.21.1-.33.1ZM11.27,25.67c-.63.18-3.65,1.9-7.88,4.63-.09.06-.16.15-.18.26-.02.11,0,.22.06.31.12.19.38.24.57.12,4.22-2.75,7.02-4.81,7.44-5.31Z" fill="#4f81c2"/>
    <path d="M.59,23.09c-.13,0-.26-.04-.36-.12-.13-.1-.21-.24-.23-.39-.02-.16.02-.31.12-.44.1-.13.24-.21.4-.23,2.5-.31,4.83-.56,6.57-.69,2.79-.21,2.82-.04,2.83.08.02.12.04.29-2.72.79-1.72.32-4.04.67-6.53,1-.03,0-.05,0-.08,0ZM9.16,21.3c-1.26,0-4.39.26-8.62.79-.11.01-.21.07-.27.16-.07.09-.1.19-.08.3.01.11.07.2.16.27.09.07.2.1.3.08,5-.66,8.42-1.3,9.01-1.57-.1-.02-.27-.03-.5-.03Z" fill="#4f81c2"/>
    <path d="M10.13,16.91c-.28,0-.95-.12-2.57-.56-1.68-.46-3.93-1.14-6.32-1.92-.15-.05-.27-.16-.35-.3-.07-.14-.08-.3-.03-.45.05-.15.16-.27.3-.34.14-.07.3-.08.46-.03,2.39.8,4.59,1.58,6.22,2.22,2.61,1.02,2.56,1.18,2.52,1.29-.02.05-.03.1-.22.1ZM1.43,13.45c-.06,0-.13.01-.18.04-.1.05-.17.13-.21.24-.03.1-.03.21.02.31.05.1.13.17.24.2,4.79,1.57,8.15,2.47,8.81,2.48-.53-.38-3.77-1.66-8.55-3.26-.04-.01-.09-.02-.13-.02Z" fill="#4f81c2"/>
    <path d="M12.61,13c-.15,0-.6-.25-2.23-1.67-1.32-1.14-3.04-2.73-4.85-4.47-.11-.11-.18-.26-.18-.42s.06-.31.17-.42c.23-.24.61-.24.84-.01,1.8,1.75,3.45,3.41,4.64,4.69,1.91,2.05,1.79,2.17,1.7,2.25h0s-.04.04-.09.04ZM12.56,12.83l.07.06-.07-.06ZM5.94,6.03c-.11,0-.21.04-.29.12-.08.08-.12.18-.12.29s.05.21.13.29c3.64,3.49,6.27,5.75,6.85,6.04-.31-.57-2.67-3.12-6.28-6.63-.08-.08-.18-.12-.29-.12Z" fill="#4f81c2"/>
    <path d="M16.44,10.51c-.12,0-.37-.25-1.33-2.48-.69-1.6-1.55-3.77-2.43-6.12-.06-.15-.05-.31.02-.45.07-.14.19-.25.34-.31.15-.05.31-.05.46.02.14.07.25.19.31.33.86,2.35,1.62,4.57,2.14,6.23.83,2.67.67,2.73.55,2.77h0s-.03.01-.05.01ZM13.24,1.3s-.1,0-.14.03c-.1.04-.19.11-.23.21-.05.1-.05.21-.01.31,1.76,4.72,3.15,7.89,3.54,8.41-.03-.65-1.04-3.97-2.78-8.69-.04-.1-.11-.18-.21-.23-.05-.03-.11-.04-.17-.04Z" fill="#4f81c2"/>
    <path d="M21,9.92s-.02,0-.02,0h0c-.12-.01-.29-.03-.17-2.82.07-1.74.24-4.07.48-6.57.01-.16.09-.3.21-.4.12-.1.28-.15.44-.13.16.02.3.09.4.21.1.12.15.28.13.43-.25,2.49-.53,4.82-.79,6.54-.39,2.58-.56,2.73-.68,2.73ZM21.87.19c-.1,0-.19.03-.26.09-.08.07-.14.17-.15.28-.47,5.01-.6,8.47-.47,9.11.25-.6.79-4.02,1.28-9.03.01-.11-.02-.21-.09-.3-.07-.08-.17-.14-.28-.15-.01,0-.03,0-.04,0Z" fill="#4f81c2"/>
    <path d="M25.33,11.36s-.05-.01-.06-.02h0c-.1-.06-.25-.15,1.07-2.61.82-1.53,1.99-3.56,3.29-5.71.17-.28.54-.37.82-.2.14.08.23.21.27.37.04.15.01.31-.07.45-1.31,2.14-2.57,4.11-3.55,5.55-1.31,1.91-1.63,2.18-1.76,2.18ZM30.14,2.92c-.14,0-.27.07-.35.2-2.6,4.31-4.23,7.37-4.39,8,.49-.43,2.46-3.29,5.09-7.58.06-.09.07-.2.05-.31-.03-.11-.09-.2-.19-.25-.07-.04-.14-.06-.21-.06Z" fill="#4f81c2"/>
    <path d="M28.63,14.53c-.07,0-.09-.03-.11-.06h0c-.07-.1-.16-.24,2.1-1.89,1.41-1.03,3.34-2.35,5.45-3.72.28-.18.65-.1.83.17.09.13.12.29.08.45-.03.16-.13.29-.26.38-2.11,1.36-4.11,2.59-5.62,3.46-1.75,1.01-2.28,1.21-2.47,1.21ZM36.39,8.95c-.08,0-.15.02-.22.07-4.22,2.75-7.02,4.81-7.44,5.31.63-.18,3.65-1.9,7.88-4.63.09-.06.16-.15.18-.26.02-.11,0-.22-.06-.31-.08-.12-.21-.19-.34-.19Z" fill="#4f81c2"/>
    <path d="M30.89,18.88c-.79,0-.8-.1-.81-.18h0c-.02-.12-.04-.29,2.72-.79,1.72-.32,4.04-.67,6.53-1,.16-.02.31.02.44.12.13.1.21.24.23.39.02.16-.02.31-.12.44-.1.13-.24.21-.4.23-2.5.31-4.83.56-6.57.69-.97.07-1.6.1-2.02.1ZM30.34,18.67c.65.11,4.11-.13,9.12-.76.11-.01.21-.07.27-.16.07-.09.1-.19.08-.3-.01-.11-.07-.2-.16-.27-.09-.07-.2-.1-.3-.08-5,.66-8.42,1.3-9.01,1.57Z" fill="#4f81c2"/>
    <path d="M38.57,26.73c-.06,0-.13-.01-.19-.03-2.39-.8-4.59-1.58-6.22-2.22-2.61-1.02-2.56-1.18-2.52-1.29h0c.04-.12.09-.27,2.79.46,1.68.46,3.93,1.14,6.32,1.92.15.05.27.16.35.3.07.14.08.3.03.45-.05.15-.16.27-.3.34-.08.04-.17.06-.27.06ZM29.89,23.27c.53.38,3.77,1.66,8.55,3.26.1.03.21.03.31-.02.1-.05.17-.13.21-.24.03-.1.03-.21-.02-.31-.05-.1-.13-.17-.24-.2-4.79-1.57-8.15-2.47-8.81-2.48Z" fill="#4f81c2"/>
    <path d="M34.06,34.15c-.15,0-.3-.06-.42-.17-3.07-2.97-6.37-6.38-6.38-6.85,0-.05.02-.08.04-.09.09-.09.2-.21,2.32,1.62,1.32,1.14,3.04,2.73,4.85,4.47.11.11.18.26.18.42,0,.16-.06.31-.17.42-.12.12-.27.18-.43.18ZM27.49,27.22c.31.57,2.67,3.12,6.28,6.63.16.16.42.15.58,0,.08-.08.12-.18.12-.29s-.05-.21-.13-.29c-3.64-3.49-6.27-5.75-6.85-6.04Z" fill="#4f81c2"/>
    <path d="M26.76,38.89c-.09,0-.17-.02-.25-.06-.14-.07-.25-.19-.31-.33-.86-2.35-1.62-4.57-2.14-6.23-.83-2.67-.67-2.73-.55-2.77h0c.12-.04.27-.1,1.38,2.46.69,1.6,1.55,3.77,2.43,6.12.06.15.05.31-.02.45-.07.14-.19.25-.34.31-.07.02-.14.04-.21.04ZM23.6,29.74c.03.65,1.04,3.97,2.78,8.69.04.1.11.18.21.23.1.05.21.05.31.01.1-.04.19-.11.23-.21.05-.1.05-.21.01-.31-1.76-4.72-3.15-7.89-3.54-8.41Z" fill="#4f81c2"/>
    <path d="M18.13,40s-.04,0-.06,0c-.16-.02-.3-.09-.4-.21-.1-.12-.15-.28-.13-.43.25-2.49.53-4.82.79-6.54.42-2.76.58-2.75.71-2.73h0c.12.01.29.03.17,2.82-.07,1.74-.24,4.07-.48,6.57-.01.16-.09.3-.21.4-.11.09-.24.14-.38.14ZM19,30.34c-.25.6-.79,4.02-1.28,9.03-.01.11.02.21.09.3.07.08.17.14.28.15.11.01.22-.02.3-.09.08-.07.14-.17.15-.28.47-5.01.6-8.47.47-9.11Z" fill="#4f81c2"/>
  </g>
  <path d="M21.74,33.47c-.5,0-.95-.92-1.44-1.88-.4-.8-.85-1.71-1.22-1.75-.38-.03-1,.79-1.55,1.51-.67.88-1.3,1.71-1.79,1.56-.49-.16-.5-1.21-.52-2.32-.01-.91-.02-1.93-.34-2.12-.32-.19-1.23.28-2.03.69-.99.51-1.93.99-2.3.64-.37-.35.07-1.29.54-2.29.39-.83.83-1.76.62-2.08-.2-.3-1.21-.27-2.1-.25-1.13.03-2.2.06-2.38-.43-.18-.49.64-1.17,1.52-1.88.69-.56,1.48-1.2,1.43-1.56-.05-.38-1-.8-1.83-1.17-1.01-.45-1.96-.88-1.91-1.38.05-.51,1.07-.76,2.16-1.02.88-.21,1.88-.45,1.99-.8.12-.35-.55-1.14-1.13-1.83-.72-.85-1.4-1.65-1.13-2.09.26-.44,1.29-.22,2.37.01.89.19,1.9.41,2.16.14.25-.26,0-1.25-.23-2.12-.28-1.08-.54-2.11-.11-2.39.42-.27,1.24.36,2.1,1.03.73.57,1.55,1.21,1.92,1.07.36-.13.57-1.16.75-2.06.21-1.07.42-2.08.91-2.15.52-.07.99.88,1.49,1.88.4.8.85,1.71,1.22,1.75.37.03,1-.79,1.55-1.51.67-.88,1.3-1.72,1.79-1.56.49.16.5,1.21.52,2.32.01.91.02,1.93.34,2.12.32.19,1.23-.28,2.03-.69.99-.51,1.93-.99,2.3-.64.37.35-.07,1.29-.54,2.29-.39.83-.83,1.76-.62,2.08.2.3,1.21.27,2.1.25,1.13-.03,2.2-.06,2.38.43h0c.18.49-.64,1.17-1.52,1.88-.69.56-1.48,1.2-1.43,1.56.05.38,1,.8,1.83,1.17,1.01.45,1.96.88,1.91,1.38-.05.51-1.07.76-2.16,1.02-.88.21-1.88.45-1.99.8-.12.35.55,1.14,1.13,1.83.72.85,1.4,1.65,1.13,2.09-.26.44-1.29.22-2.37-.01-.89-.19-1.9-.41-2.16-.14-.25.26,0,1.25.23,2.12.28,1.08.54,2.11.11,2.39-.42.27-1.24-.36-2.1-1.03-.73-.56-1.55-1.2-1.92-1.07-.36.13-.57,1.16-.75,2.06-.21,1.07-.42,2.08-.91,2.15-.02,0-.04,0-.05,0ZM19.07,29.65s.03,0,.04,0c.47.04.9.92,1.37,1.85.43.86.91,1.83,1.3,1.78.37-.05.57-1.09.76-2,.21-1.04.41-2.03.87-2.2.46-.17,1.25.45,2.1,1.1.74.57,1.58,1.22,1.89,1.02.33-.21.05-1.26-.19-2.19-.26-1-.5-1.95-.18-2.29.33-.35,1.31-.14,2.34.08.93.2,1.98.42,2.17.1.2-.33-.5-1.15-1.11-1.87-.68-.8-1.32-1.56-1.17-2.01.15-.45,1.11-.68,2.13-.92.93-.22,1.98-.48,2.02-.86.03-.37-.94-.81-1.8-1.19-.97-.43-1.88-.84-1.94-1.32-.06-.46.69-1.08,1.5-1.73.75-.61,1.6-1.3,1.46-1.67-.14-.37-1.23-.34-2.2-.31-1.03.03-2.01.05-2.26-.33-.27-.4.16-1.31.6-2.26.4-.85.85-1.82.58-2.08-.28-.27-1.24.23-2.09.67-.93.48-1.81.93-2.21.69-.41-.24-.42-1.23-.43-2.28-.01-.95-.02-2.02-.39-2.14-.36-.12-1.01.74-1.58,1.49-.63.84-1.23,1.63-1.71,1.58-.47-.04-.9-.92-1.37-1.85-.43-.86-.92-1.83-1.3-1.78-.37.05-.57,1.09-.76,2-.21,1.04-.41,2.03-.87,2.2-.46.17-1.25-.45-2.1-1.1-.74-.57-1.58-1.22-1.89-1.02-.33.21-.05,1.26.19,2.19.26,1,.5,1.95.18,2.29-.33.35-1.31.14-2.34-.08-.93-.2-1.98-.42-2.17-.1-.2.33.5,1.15,1.11,1.87.68.8,1.32,1.56,1.17,2.01-.15.45-1.11.68-2.13.92-.93.22-1.98.48-2.02.86-.03.37.94.81,1.8,1.19.97.43,1.88.84,1.94,1.32.06.46-.69,1.08-1.5,1.73-.75.61-1.6,1.3-1.46,1.67.14.37,1.23.34,2.2.31,1.03-.03,2.01-.06,2.26.33.27.4-.16,1.31-.6,2.26-.4.85-.85,1.82-.58,2.08.28.27,1.24-.23,2.09-.67.93-.48,1.81-.93,2.21-.69.41.24.42,1.23.43,2.28.01.95.02,2.02.39,2.14.36.12,1.01-.74,1.58-1.49.62-.82,1.2-1.59,1.67-1.59Z" fill="#223e95"/>
  <g>
    <path d="M19.25,27.73s-.03,0-.05,0c-.12-.01-.23-.07-.31-.17-.08-.09-.11-.21-.1-.34.19-1.81.41-3.5.6-4.74.32-2.03.44-2.01.55-2,.11.01.23.02.13,2.07-.06,1.26-.2,2.96-.38,4.77-.01.12-.07.23-.17.31-.08.07-.18.1-.29.1ZM19.92,20.79c-.2.62-.58,3.04-.94,6.45,0,.07.01.14.06.2.05.06.11.09.18.1.07,0,.14-.01.2-.06.06-.05.09-.11.1-.18.34-3.41.46-5.86.4-6.51Z" fill="#3c6fb6"/>
    <path d="M17.64,27.38s-.1,0-.15-.02c-.12-.04-.21-.12-.26-.23-.05-.11-.06-.23-.02-.35.59-1.72,1.18-3.32,1.65-4.49.77-1.91.88-1.87.99-1.83h0c.1.04.22.08-.33,2.05-.34,1.22-.85,2.84-1.43,4.56-.04.12-.12.21-.23.26-.06.03-.13.05-.2.05ZM19.74,20.75c-.33.56-1.24,2.83-2.36,6.08-.02.07-.02.14.01.21.03.07.09.11.16.14s.14.02.21-.01c.07-.03.11-.09.14-.16,1.1-3.25,1.76-5.61,1.84-6.25Z" fill="#3c6fb6"/>
    <path d="M16.15,26.68c-.08,0-.16-.02-.24-.07-.1-.06-.18-.16-.21-.28-.03-.12,0-.24.06-.35.96-1.55,1.89-2.97,2.61-4.01,1.17-1.69,1.28-1.62,1.37-1.57.09.06.2.12-.78,1.93-.61,1.11-1.46,2.58-2.42,4.13-.09.14-.24.22-.39.22ZM19.58,20.68c-.45.48-1.84,2.49-3.65,5.41-.04.06-.05.13-.03.2.02.07.06.13.12.17.13.08.3.04.37-.09,1.8-2.93,2.97-5.07,3.19-5.69Z" fill="#3c6fb6"/>
    <path d="M14.86,25.67c-.12,0-.23-.04-.32-.13-.09-.09-.14-.2-.14-.32,0-.12.05-.24.13-.32,1.28-1.3,2.5-2.48,3.44-3.33,1.52-1.39,1.61-1.3,1.69-1.22l.03.03v.06c.01.4-2.94,3.52-4.5,5.11-.09.09-.21.14-.33.14ZM19.43,20.56c-.54.37-2.35,2.02-4.77,4.46-.05.05-.08.12-.08.19,0,.07.03.14.08.19.11.1.28.1.39,0,2.4-2.45,4.02-4.29,4.38-4.84Z" fill="#3c6fb6"/>
    <path d="M13.82,24.4c-.15,0-.3-.07-.39-.21-.07-.1-.09-.23-.06-.34.03-.12.1-.22.2-.29,1.54-.98,3-1.86,4.1-2.49,1.79-1.01,1.86-.91,1.92-.82h0c.06.09.13.2-1.54,1.4-1.03.74-2.44,1.69-3.98,2.68-.08.05-.16.07-.25.07ZM19.32,20.42c-.61.24-2.74,1.44-5.65,3.29-.06.04-.1.1-.12.17-.02.07,0,.14.04.2.08.13.25.16.38.08,2.89-1.86,4.88-3.29,5.35-3.75Z" fill="#3c6fb6"/>
    <path d="M13.09,22.93c-.07,0-.13-.01-.19-.04-.11-.05-.2-.14-.24-.26-.04-.11-.04-.24.02-.35.05-.11.14-.19.26-.24,1.72-.61,3.34-1.15,4.55-1.52,1.97-.59,2.01-.48,2.05-.37h0c.04.1.08.22-1.82,1.02-1.17.49-2.76,1.11-4.48,1.73-.05.02-.1.03-.16.03ZM19.24,20.26c-.65.09-3,.8-6.24,1.96-.07.02-.12.07-.15.14-.03.07-.03.14,0,.21.02.07.07.12.14.15.07.03.14.03.21,0,3.23-1.17,5.49-2.12,6.05-2.46Z" fill="#3c6fb6"/>
    <path d="M12.71,21.34c-.1,0-.2-.03-.28-.1-.1-.08-.16-.18-.17-.3s.02-.24.09-.34c.08-.1.18-.16.31-.17,1.81-.22,3.51-.38,4.78-.47,2.05-.14,2.07-.02,2.08.09.01.11.03.23-2,.59-1.25.22-2.94.47-4.75.69-.02,0-.04,0-.06,0ZM18.89,20.08c-.94,0-3.2.17-6.21.53-.07,0-.14.05-.18.1-.04.06-.06.13-.06.2s.05.14.1.18c.06.04.13.06.2.06,3.41-.43,5.83-.85,6.45-1.06-.08,0-.18,0-.31,0Z" fill="#3c6fb6"/>
    <path d="M18.66,20.11c-.29,0-.69-.01-1.22-.04-1.27-.06-2.97-.2-4.78-.38-.12-.01-.23-.07-.31-.17-.08-.09-.11-.21-.1-.33.01-.12.07-.23.17-.31.1-.08.21-.11.34-.1,1.82.19,3.51.4,4.76.6,2.03.32,2.02.44,2.01.55h0c0,.08-.02.17-.86.17ZM12.69,18.97c-.06,0-.12.02-.17.06-.06.05-.09.11-.1.18,0,.07.01.14.06.2.05.06.11.09.18.1,3.42.34,5.87.46,6.53.4-.63-.2-3.05-.58-6.47-.94,0,0-.02,0-.03,0Z" fill="#3c6fb6"/>
    <path d="M19.36,19.92c-.22,0-.71-.09-1.88-.42-1.22-.34-2.85-.85-4.58-1.43-.12-.04-.21-.12-.26-.23-.05-.11-.06-.23-.02-.35.04-.12.12-.21.23-.26.11-.05.23-.06.35-.02,1.73.59,3.33,1.17,4.51,1.64,1.91.76,1.87.88,1.84.98h0s-.03.09-.18.09ZM13.04,17.37s-.08,0-.12.03c-.07.03-.11.09-.14.16-.02.07-.02.14.01.21.03.07.09.11.16.14,3.26,1.09,5.62,1.75,6.28,1.83-.57-.33-2.85-1.24-6.1-2.35-.03,0-.06-.01-.09-.01Z" fill="#3c6fb6"/>
    <path d="M19.48,19.79c-.15,0-.57-.16-1.83-.84-1.11-.6-2.59-1.46-4.15-2.41-.1-.06-.18-.16-.21-.28-.03-.12,0-.24.06-.35.13-.21.42-.28.63-.15,1.55.96,2.99,1.88,4.03,2.6,1.69,1.17,1.63,1.27,1.57,1.37-.02.03-.04.06-.1.06ZM13.74,15.89c-.09,0-.18.05-.23.13-.04.06-.05.13-.03.2.02.07.06.13.12.17,2.94,1.79,5.09,2.96,5.71,3.18-.48-.45-2.5-1.84-5.42-3.64-.04-.03-.09-.04-.14-.04Z" fill="#3c6fb6"/>
    <path d="M19.57,19.69c-.13,0-.46-.2-1.63-1.23-.95-.84-2.2-2-3.5-3.27-.09-.09-.14-.2-.14-.32,0-.12.05-.24.13-.33.18-.18.47-.18.65,0,1.3,1.28,2.49,2.5,3.35,3.43,1.39,1.51,1.3,1.6,1.23,1.68h0s-.04.04-.08.04ZM14.76,14.6c-.07,0-.14.03-.19.08-.05.05-.08.12-.08.19,0,.07.03.14.08.19,2.46,2.4,4.3,4.01,4.86,4.37-.37-.54-2.02-2.34-4.47-4.75-.05-.05-.12-.08-.19-.08Z" fill="#3c6fb6"/>
    <path d="M19.67,19.6c-.11,0-.36-.21-1.34-1.56-.74-1.03-1.7-2.43-2.69-3.96-.07-.1-.09-.23-.06-.34s.1-.22.2-.29c.21-.14.5-.07.63.14.98,1.54,1.87,2.99,2.5,4.08,1.02,1.78.91,1.85.82,1.91-.02.01-.04.02-.06.02ZM16.03,13.56c-.05,0-.1.01-.15.04-.06.04-.1.1-.12.17-.02.07,0,.14.04.2,1.87,2.88,3.3,4.87,3.76,5.33-.24-.61-1.45-2.73-3.3-5.63-.05-.08-.14-.13-.23-.13Z" fill="#3c6fb6"/>
    <path d="M19.79,19.54c-.1,0-.29-.2-.98-1.82-.49-1.16-1.11-2.75-1.74-4.46-.04-.11-.04-.24.02-.35.05-.11.14-.19.26-.24.12-.04.24-.04.35.02.11.05.19.14.24.26.62,1.71,1.16,3.33,1.52,4.54.59,1.97.48,2.01.37,2.04h0s-.03.01-.05.01ZM17.51,12.84s-.06,0-.09.02c-.07.02-.12.07-.15.14-.03.07-.03.14,0,.21,1.18,3.22,2.13,5.48,2.47,6.03-.09-.65-.8-2.99-1.96-6.22-.02-.07-.07-.12-.14-.15-.04-.02-.08-.03-.12-.03Z" fill="#3c6fb6"/>
    <path d="M19.91,19.51c-.1,0-.23-.14-.57-1.99-.22-1.24-.47-2.92-.7-4.73-.02-.12.02-.24.09-.34.08-.1.18-.16.31-.17.12-.01.24.02.34.09.1.08.16.18.17.3.22,1.81.39,3.5.47,4.76.14,2.05.02,2.06-.09,2.08h0s-.02,0-.03,0ZM19.11,12.46s-.02,0-.03,0c-.07,0-.14.05-.18.1-.04.06-.06.13-.05.2.43,3.41.86,5.81,1.06,6.43.05-.65-.11-3.09-.52-6.5,0-.07-.04-.14-.1-.18-.05-.04-.11-.06-.17-.06Z" fill="#3c6fb6"/>
    <path d="M20.07,19.51s-.02,0-.02,0c-.11-.01-.23-.02-.13-2.07.06-1.26.2-2.96.38-4.77.01-.12.07-.23.17-.31.1-.08.21-.11.34-.1.12.01.23.07.31.17.08.09.11.21.1.34-.19,1.81-.41,3.5-.6,4.74-.3,1.88-.42,2.01-.53,2.01ZM20.75,12.44c-.06,0-.12.02-.17.06-.06.05-.09.11-.1.18-.34,3.41-.46,5.86-.4,6.51.2-.62.58-3.04.94-6.45,0-.07-.01-.14-.06-.2-.05-.06-.11-.09-.18-.1,0,0-.02,0-.03,0Z" fill="#3c6fb6"/>
    <path d="M20.2,19.54s-.03,0-.05,0h0c-.1-.04-.22-.08.33-2.05.34-1.22.85-2.84,1.43-4.56.04-.12.12-.21.23-.26s.23-.06.35-.02c.12.04.21.12.26.23.05.11.06.23.02.35-.59,1.72-1.18,3.32-1.65,4.49-.66,1.65-.84,1.84-.94,1.84ZM22.36,12.79s-.08,0-.12.03c-.07.03-.11.09-.14.16-1.1,3.25-1.76,5.61-1.84,6.25.33-.56,1.24-2.83,2.36-6.08.02-.07.02-.14-.01-.21-.03-.07-.09-.11-.16-.14-.03,0-.06-.01-.09-.01Z" fill="#3c6fb6"/>
    <path d="M20.31,19.6s-.04-.01-.06-.02c-.09-.06-.2-.12.78-1.93.61-1.11,1.46-2.58,2.42-4.13.13-.22.41-.28.63-.15.1.06.18.16.21.28.03.12,0,.24-.06.35-.96,1.55-1.89,2.97-2.61,4.01-.95,1.38-1.2,1.59-1.31,1.59ZM23.85,13.49c-.09,0-.18.05-.23.13-1.8,2.93-2.97,5.07-3.19,5.69.45-.48,1.84-2.49,3.65-5.41.04-.06.05-.13.03-.2-.02-.07-.06-.13-.12-.17-.04-.03-.09-.04-.14-.04Z" fill="#3c6fb6"/>
    <path d="M20.42,19.68s-.06-.02-.08-.04l-.03-.03v-.06c-.01-.4,2.94-3.52,4.5-5.11.18-.18.47-.18.65,0,.09.09.14.2.14.32,0,.12-.05.24-.13.32-1.28,1.3-2.51,2.48-3.44,3.33-1.16,1.06-1.49,1.26-1.61,1.26ZM25.14,14.5c-.07,0-.14.03-.19.08-2.4,2.45-4.02,4.29-4.38,4.84.54-.37,2.35-2.02,4.77-4.46.05-.05.08-.12.08-.19,0-.07-.03-.14-.08-.19-.05-.05-.12-.08-.19-.08Z" fill="#3c6fb6"/>
    <path d="M20.51,19.78c-.06,0-.08-.03-.1-.06h0c-.06-.09-.13-.2,1.54-1.4,1.03-.74,2.44-1.69,3.98-2.68.21-.14.5-.08.63.14.07.1.09.23.06.34-.03.12-.1.22-.2.29-1.54.98-3,1.86-4.1,2.49-1.26.71-1.67.87-1.82.87ZM26.18,15.77c-.05,0-.1.01-.15.04-2.89,1.86-4.88,3.29-5.35,3.75.61-.24,2.74-1.44,5.65-3.29.06-.04.1-.1.12-.17.02-.07,0-.14-.04-.2-.05-.08-.14-.12-.23-.12Z" fill="#3c6fb6"/>
    <path d="M20.62,19.91c-.14,0-.15-.04-.17-.08-.04-.1-.08-.22,1.82-1.02,1.17-.49,2.76-1.11,4.48-1.73.24-.09.5.04.59.27.04.11.04.24-.02.35-.05.11-.14.19-.26.24-1.72.61-3.34,1.15-4.55,1.52-1.19.36-1.68.46-1.88.46ZM26.91,17.24s-.06,0-.09.02c-3.23,1.17-5.49,2.12-6.05,2.46.65-.09,3-.8,6.24-1.96.07-.02.12-.07.15-.14.03-.07.03-.14,0-.21-.04-.11-.14-.18-.26-.18Z" fill="#3c6fb6"/>
    <path d="M21.15,20.09c-.65,0-.66-.08-.67-.15-.01-.11-.03-.23,2-.59,1.25-.22,2.94-.47,4.75-.69.12-.02.24.02.34.09.1.08.16.18.17.3s-.02.24-.09.34c-.08.1-.18.16-.31.17-1.81.22-3.51.38-4.78.47-.66.04-1.11.06-1.41.06ZM20.8,19.89c.66.05,3.1-.12,6.52-.52.07,0,.14-.05.18-.1.04-.06.06-.13.06-.2s-.05-.14-.1-.18c-.06-.04-.13-.06-.2-.06-3.41.43-5.83.85-6.45,1.06Z" fill="#3c6fb6"/>
    <path d="M27.3,21.19s-.03,0-.05,0c-1.82-.19-3.51-.4-4.76-.6-2.03-.32-2.02-.44-2.01-.55h0c.01-.11.02-.23,2.08-.13,1.27.06,2.97.2,4.78.38.12.01.23.07.31.17.08.09.11.21.1.33-.01.12-.07.23-.17.31-.08.07-.18.1-.29.1ZM20.8,20.07c.63.2,3.05.58,6.47.94.07,0,.14-.01.2-.06.06-.05.09-.11.1-.18,0-.07-.01-.14-.06-.2-.05-.06-.11-.09-.18-.1-3.42-.34-5.87-.46-6.53-.4Z" fill="#3c6fb6"/>
    <path d="M26.95,22.8s-.1,0-.15-.02c-1.73-.59-3.33-1.17-4.51-1.64-1.91-.76-1.87-.88-1.84-.98h0c.04-.1.07-.22,2.06.33,1.22.34,2.85.85,4.58,1.43.12.04.21.12.26.23.05.11.06.23.02.35-.04.12-.12.21-.23.26-.06.03-.13.05-.2.05ZM20.76,20.25c.57.33,2.85,1.24,6.1,2.35.07.02.14.02.21-.01.07-.03.11-.09.14-.16.02-.07.02-.14-.01-.21-.03-.07-.09-.11-.16-.14-3.26-1.09-5.62-1.75-6.28-1.83Z" fill="#3c6fb6"/>
    <path d="M26.25,24.28c-.08,0-.17-.02-.24-.07-1.55-.96-2.99-1.88-4.03-2.6-1.69-1.17-1.63-1.27-1.57-1.37h0c.06-.09.12-.2,1.93.78,1.11.6,2.59,1.46,4.15,2.41.1.06.18.16.21.28.03.12,0,.24-.06.35-.09.14-.24.22-.39.22ZM20.69,20.41c.48.45,2.5,1.84,5.42,3.64.13.08.3.04.38-.09.04-.06.05-.13.03-.2-.02-.07-.06-.13-.12-.17-2.94-1.79-5.09-2.96-5.71-3.18Z" fill="#3c6fb6"/>
    <path d="M25.24,25.57c-.12,0-.23-.04-.32-.13-1.59-1.56-4.6-4.63-4.61-5.02v-.04s.03-.05.03-.05h0c.08-.08.16-.17,1.71,1.19.95.84,2.2,2,3.51,3.27.09.09.14.2.14.32,0,.12-.05.24-.13.32-.09.09-.21.14-.33.14ZM20.58,20.55c.37.54,2.02,2.34,4.47,4.75.11.11.28.1.39,0,.05-.05.08-.12.08-.19,0-.07-.03-.14-.08-.19-2.46-2.4-4.3-4.01-4.86-4.37Z" fill="#3c6fb6"/>
    <path d="M23.97,26.6c-.15,0-.3-.07-.39-.21-.98-1.53-1.87-2.99-2.5-4.08-1.02-1.78-.91-1.85-.82-1.91.09-.06.2-.13,1.4,1.54.74,1.03,1.7,2.43,2.69,3.96.07.1.09.22.06.34-.03.12-.1.22-.2.29-.08.05-.16.07-.25.07ZM20.44,20.67c.24.61,1.45,2.73,3.3,5.63.08.13.25.16.38.08.06-.04.1-.1.12-.17.02-.07,0-.14-.04-.2-1.87-2.88-3.3-4.87-3.76-5.33Z" fill="#3c6fb6"/>
    <path d="M22.49,27.33c-.07,0-.13-.01-.19-.04-.11-.05-.19-.14-.24-.26-.62-1.71-1.16-3.33-1.52-4.54-.59-1.97-.48-2.01-.37-2.04.1-.04.22-.08,1.02,1.81.49,1.16,1.11,2.75,1.74,4.46.04.11.04.24-.02.35-.05.11-.14.19-.26.24-.05.02-.1.03-.16.03ZM20.27,20.75c.09.65.8,2.99,1.96,6.22.02.07.07.12.14.15.07.03.14.03.21,0,.07-.02.12-.07.15-.14.03-.07.03-.14,0-.21-1.18-3.22-2.13-5.48-2.47-6.03Z" fill="#3c6fb6"/>
    <path d="M20.89,27.71c-.1,0-.2-.03-.28-.1-.1-.08-.16-.18-.17-.3-.22-1.81-.39-3.5-.47-4.76-.14-2.05-.02-2.06.09-2.08.11-.01.23-.03.59,1.99.22,1.24.47,2.92.7,4.73.02.12-.02.24-.09.34-.08.1-.18.16-.31.17-.02,0-.04,0-.06,0ZM20.1,20.79c-.05.65.11,3.09.52,6.5,0,.07.04.14.1.18.06.05.13.06.2.06.07,0,.14-.05.18-.1.04-.06.06-.13.05-.2-.43-3.41-.86-5.81-1.07-6.43Z" fill="#3c6fb6"/>
  </g>
  <g>
    <path d="M19.71,23.1s-.02,0-.02,0c-.06,0-.12-.04-.16-.09-.04-.05-.06-.11-.05-.17.29-2.72.42-2.71.52-2.7h0c.09,0,.23.02-.05,2.75,0,.06-.04.12-.09.16-.04.03-.09.05-.15.05ZM19.91,20.89c-.07.43-.16,1.09-.25,1.96,0,.01,0,.03.01.04,0,.01.02.02.03.02.01,0,.03,0,.04-.01.01,0,.02-.02.02-.03.09-.87.13-1.53.15-1.97Z" fill="#fff"/>
    <path d="M19.07,22.96s-.05,0-.08-.01c-.06-.02-.11-.06-.14-.12-.03-.06-.03-.12-.01-.18.89-2.59,1.02-2.55,1.11-2.52.09.03.22.07-.66,2.67-.02.06-.06.11-.12.14-.03.02-.07.02-.1.02ZM19.71,20.85c-.17.41-.4,1.03-.68,1.86,0,.01,0,.03,0,.04,0,.01.02.02.03.03.01,0,.03,0,.04,0,.01,0,.02-.02.03-.03.28-.83.47-1.47.59-1.89Z" fill="#fff"/>
    <path d="M18.49,22.69s-.08-.01-.12-.03c-.05-.03-.09-.09-.11-.15-.01-.06,0-.12.03-.18,1.45-2.33,1.56-2.26,1.64-2.21h0c.08.05.12.08-.29.83-.24.44-.58,1.01-.95,1.63-.04.07-.12.11-.2.11ZM19.53,20.77c-.25.36-.62.91-1.08,1.66,0,.01,0,.02,0,.04,0,.01.01.02.02.03.02.01.06,0,.07-.02.46-.75.79-1.32,1-1.71Z" fill="#fff"/>
    <path d="M17.98,22.29c-.06,0-.12-.02-.17-.07-.05-.04-.07-.1-.07-.17,0-.06.02-.12.07-.17,1.93-1.95,2.03-1.85,2.09-1.79l.03.03v.05c0,.2-1.36,1.62-1.78,2.05-.05.05-.11.07-.17.07ZM19.37,20.64c-.33.29-.81.75-1.42,1.37,0,0-.01.02-.01.04,0,.01,0,.03.02.04.02.02.05.02.07,0,.61-.63,1.06-1.11,1.35-1.44Z" fill="#fff"/>
    <path d="M17.57,21.79c-.08,0-.15-.04-.2-.11-.03-.05-.05-.12-.03-.18.01-.06.05-.11.1-.15,2.32-1.47,2.39-1.36,2.44-1.28l.02.03v.05c-.05.2-1.7,1.28-2.21,1.6-.04.03-.08.04-.13.04ZM19.24,20.49c-.38.21-.95.55-1.69,1.02-.01,0-.02.02-.02.03,0,.01,0,.03,0,.04.02.02.05.03.07.01.74-.47,1.28-.85,1.64-1.11Z" fill="#fff"/>
    <path d="M17.29,21.21s-.07,0-.1-.02c-.06-.03-.1-.07-.12-.13-.02-.06-.02-.12,0-.18.03-.06.07-.1.13-.12,2.59-.92,2.64-.79,2.67-.71.03.09.08.22-2.51,1.15-.03,0-.05.01-.08.01ZM19.15,20.31c-.44.13-1.1.34-1.88.62-.01,0-.02.01-.03.03,0,.01,0,.03,0,.04,0,.01.01.02.03.03.01,0,.03,0,.04,0,.82-.3,1.44-.54,1.85-.72Z" fill="#fff"/>
    <path d="M17.13,20.59c-.05,0-.1-.02-.14-.05-.05-.04-.08-.09-.09-.16s0-.12.05-.17c.04-.05.1-.08.16-.09,2.73-.33,2.75-.19,2.76-.1.01.09.03.23-2.7.57,0,0-.02,0-.03,0ZM19.1,20.11c-.44.03-1.1.09-1.97.19-.01,0-.03,0-.03.02,0,.01-.01.02-.01.04s0,.02.02.03c.01,0,.02.01.04.01.87-.11,1.53-.21,1.96-.29Z" fill="#fff"/>
    <path d="M19.37,20.1c-.38,0-1.06-.04-2.27-.16-.06,0-.12-.04-.16-.09-.04-.05-.06-.11-.05-.17,0-.06.04-.12.09-.16.05-.04.11-.06.17-.05,2.74.29,2.72.42,2.71.52,0,.05-.01.12-.49.12ZM17.13,19.66s-.02,0-.03.01c-.01,0-.02.02-.02.03,0,.01,0,.03.01.04,0,.01.02.02.03.02.87.09,1.53.13,1.97.15-.43-.07-1.09-.16-1.96-.25,0,0,0,0,0,0Z" fill="#fff"/>
    <path d="M19.74,20.02c-.21,0-.81-.14-2.55-.72-.06-.02-.11-.06-.14-.12-.03-.06-.03-.12-.01-.18.04-.12.18-.19.3-.15,2.6.89,2.56,1.02,2.53,1.1h0s-.02.06-.13.06ZM17.27,19.03s-.04.01-.05.03c0,.01,0,.03,0,.04s.02.02.03.03c.83.28,1.47.47,1.89.59-.43-.17-1.08-.41-1.86-.68,0,0-.01,0-.02,0Z" fill="#fff"/>
    <path d="M19.81,19.97c-.15,0-.63-.2-2.39-1.28-.05-.03-.09-.09-.11-.15-.01-.06,0-.12.03-.18.07-.11.21-.15.33-.08.61.38,1.17.74,1.59,1.02.71.49.68.53.63.61-.01.02-.03.04-.07.04ZM17.54,18.44s-.03,0-.04.02c0,.01,0,.02,0,.04,0,.01.01.02.02.03.75.46,1.33.78,1.71.99-.36-.25-.91-.62-1.66-1.08,0,0-.02,0-.03,0Z" fill="#fff"/>
    <path d="M19.85,19.93c-.12,0-.49-.24-2.07-1.78-.05-.04-.07-.1-.07-.17,0-.06.02-.12.07-.17.09-.09.24-.09.33,0,.51.5.98.98,1.32,1.35.58.63.55.67.48.74-.01.01-.03.03-.05.03ZM17.94,17.94s-.03,0-.04.02c0,0-.01.02-.01.04,0,.01,0,.03.02.04.63.61,1.12,1.06,1.45,1.35-.29-.33-.75-.8-1.38-1.42,0,0-.02-.01-.04-.01Z" fill="#fff"/>
    <path d="M19.88,19.9c-.1,0-.38-.25-1.64-2.19-.03-.05-.05-.12-.03-.18s.05-.11.1-.15c.11-.07.26-.04.33.07,1.48,2.31,1.36,2.38,1.29,2.43h0s-.02.02-.04.02ZM18.44,17.53s-.02,0-.03,0c-.01,0-.02.02-.02.03s0,.03,0,.04c.48.74.85,1.28,1.11,1.64-.21-.38-.56-.95-1.03-1.69,0-.02-.03-.02-.04-.02Z" fill="#fff"/>
    <path d="M19.92,19.88c-.09,0-.29-.22-1.12-2.51-.02-.06-.02-.12,0-.18s.07-.1.13-.12c.12-.04.26.02.3.14.93,2.58.8,2.63.71,2.66h0s-.02,0-.03,0ZM19.02,17.25s-.01,0-.02,0c-.01,0-.02.01-.03.03s0,.03,0,.04c.3.82.55,1.44.72,1.84-.12-.42-.33-1.05-.63-1.88,0-.02-.03-.03-.05-.03Z" fill="#fff"/>
    <path d="M19.97,19.87c-.09,0-.23-.15-.55-2.69,0-.06,0-.12.05-.17.04-.05.1-.08.16-.09.06,0,.13,0,.17.05.05.04.08.09.09.16.33,2.72.19,2.74.1,2.75h0s-.01,0-.02,0ZM19.65,17.1s0,0,0,0c-.01,0-.03,0-.03.02,0,.01-.01.02-.01.04.11.87.21,1.53.29,1.96-.03-.44-.09-1.1-.19-1.97,0-.01,0-.02-.02-.03,0,0-.02-.01-.03-.01Z" fill="#fff"/>
    <path d="M20.03,19.87s-.01,0-.02,0c-.09,0-.23-.02.05-2.75,0-.06.04-.12.09-.16.05-.04.11-.06.17-.05.06,0,.12.04.16.09.04.05.06.11.05.17-.27,2.56-.41,2.7-.5,2.7ZM20.3,17.09s-.02,0-.03.01c-.01,0-.02.02-.02.03-.09.87-.13,1.53-.15,1.97.07-.43.16-1.09.25-1.96,0-.01,0-.03-.01-.04,0-.01-.02-.02-.03-.02,0,0,0,0,0,0Z" fill="#fff"/>
    <path d="M20.07,19.88s-.02,0-.03,0c-.09-.03-.22-.07.66-2.67.04-.12.18-.19.3-.15.06.02.11.06.14.12.03.06.03.12.01.18-.79,2.31-.98,2.53-1.08,2.53ZM20.93,17.23s-.04.01-.05.03c-.28.83-.47,1.46-.59,1.89.17-.41.4-1.03.68-1.86,0-.01,0-.03,0-.04,0-.01-.02-.02-.03-.03,0,0-.01,0-.02,0Z" fill="#fff"/>
    <path d="M20.11,19.9s-.03,0-.04-.01c-.08-.05-.12-.08.29-.83.24-.44.58-1.01.95-1.63.07-.11.21-.15.33-.08.05.03.09.09.11.15.01.06,0,.12-.03.18-1.23,1.98-1.5,2.23-1.6,2.23ZM21.51,17.5s-.03,0-.04.02c-.46.75-.79,1.32-1,1.71.25-.36.62-.91,1.08-1.66,0-.01,0-.02,0-.04,0-.01-.01-.02-.02-.03,0,0-.02,0-.03,0Z" fill="#fff"/>
    <path d="M20.15,19.93s-.04-.01-.05-.03h0c-.07-.07-.1-.1.47-.75.33-.37.79-.86,1.29-1.37.09-.09.24-.1.33,0,.05.04.07.1.07.17,0,.06-.02.12-.07.17-1.56,1.58-1.92,1.82-2.04,1.82ZM22.02,17.9s-.03,0-.04.02c-.61.63-1.06,1.11-1.35,1.44.33-.29.81-.75,1.42-1.37,0,0,.01-.02.01-.04,0-.01,0-.03-.01-.03,0,0-.02-.01-.04-.01Z" fill="#fff"/>
    <path d="M20.19,19.97s-.06-.02-.07-.04h0c-.05-.08-.12-.19,2.19-1.68.11-.07.26-.04.33.07.03.05.05.12.03.18s-.05.11-.1.15c-1.76,1.12-2.22,1.32-2.37,1.32ZM22.43,18.4s-.02,0-.03,0c-.74.47-1.28.85-1.64,1.11.38-.21.95-.55,1.69-1.02.01,0,.02-.02.02-.03,0-.01,0-.03,0-.04,0-.02-.03-.02-.04-.02Z" fill="#fff"/>
    <path d="M20.25,20.01c-.1,0-.11-.03-.12-.06-.03-.09-.05-.14.75-.47.46-.19,1.09-.44,1.76-.68.06-.02.12-.02.18,0,.06.03.1.07.12.13.02.06.02.12,0,.18-.03.06-.07.1-.13.12-1.75.63-2.34.77-2.55.77ZM22.71,18.97s-.01,0-.02,0c-.82.3-1.44.54-1.84.72.42-.12,1.05-.33,1.88-.62.01,0,.02-.01.03-.03,0-.01,0-.03,0-.04,0-.01-.01-.02-.03-.03,0,0-.01,0-.02,0Z" fill="#fff"/>
    <path d="M20.54,20.09c-.39,0-.4-.06-.41-.11h0c-.01-.09-.03-.23,2.7-.57.06,0,.12,0,.17.05.05.04.08.09.09.16s0,.12-.05.17c-.04.05-.1.08-.16.09-1.31.16-1.99.21-2.35.21ZM22.86,19.6s0,0,0,0c-.87.11-1.53.21-1.96.29.44-.03,1.1-.09,1.97-.19.01,0,.03,0,.03-.02,0-.01.01-.02.01-.04s0-.02-.02-.03c0,0-.02-.01-.03-.01Z" fill="#fff"/>
    <path d="M22.87,20.53s-.02,0-.03,0c-2.74-.29-2.72-.42-2.71-.51,0-.09.02-.23,2.76.05.06,0,.12.04.16.09.04.05.06.11.05.17,0,.06-.04.12-.09.16-.04.03-.09.05-.15.05ZM20.9,20.09c.43.07,1.09.16,1.96.25.01,0,.03,0,.04-.01.01,0,.02-.02.02-.03,0-.01,0-.03-.01-.04,0-.01-.02-.02-.03-.02-.87-.09-1.53-.13-1.97-.15Z" fill="#fff"/>
    <path d="M22.73,21.16s-.05,0-.08-.01c-2.6-.89-2.56-1.02-2.53-1.1h0c.03-.09.07-.22,2.68.66.06.02.11.06.14.12.03.06.03.12.01.18-.02.06-.06.11-.12.14-.03.02-.07.02-.1.02ZM20.86,20.29c.41.17,1.03.4,1.86.68.01,0,.03,0,.04,0,.01,0,.02-.02.03-.03,0-.01,0-.03,0-.04s-.02-.02-.03-.03c-.83-.28-1.47-.47-1.89-.59Z" fill="#fff"/>
    <path d="M22.46,21.74s-.09-.01-.12-.04c-.61-.38-1.17-.74-1.59-1.02-.71-.49-.68-.53-.63-.61.05-.08.12-.19,2.47,1.23.05.03.09.09.11.15.01.06,0,.12-.03.18-.04.07-.12.11-.2.11ZM20.77,20.47c.36.25.91.62,1.66,1.08.02.01.06,0,.07-.02,0-.01,0-.02,0-.04,0-.01-.01-.02-.02-.03-.75-.46-1.33-.78-1.71-.99Z" fill="#fff"/>
    <path d="M22.06,22.25c-.06,0-.12-.02-.17-.07-.51-.5-.98-.98-1.32-1.35-.58-.63-.55-.67-.48-.74h0c.06-.06.16-.16,2.13,1.75.05.04.07.1.07.17,0,.06-.02.12-.07.17-.05.05-.11.07-.17.07ZM20.65,20.63c.29.33.75.8,1.38,1.42.02.02.05.02.07,0,0,0,.01-.02.01-.04,0-.01,0-.03-.02-.04-.63-.61-1.12-1.06-1.45-1.35Z" fill="#fff"/>
    <path d="M21.56,22.66c-.08,0-.15-.04-.2-.11-.39-.6-.74-1.17-.98-1.61-.43-.75-.38-.78-.3-.83h0c.08-.05.19-.13,1.68,2.18.03.05.05.12.03.18-.01.06-.05.11-.1.15-.04.03-.08.04-.13.04ZM20.49,20.76c.21.38.56.95,1.03,1.69.02.02.05.03.07.02.01,0,.02-.02.02-.03s0-.03,0-.04c-.48-.74-.85-1.28-1.11-1.64Z" fill="#fff"/>
    <path d="M20.98,22.94s-.07,0-.1-.02c-.06-.03-.1-.07-.12-.13-.93-2.58-.8-2.63-.71-2.66.09-.03.22-.08,1.16,2.5.02.06.02.12,0,.18-.03.06-.07.1-.13.12-.03,0-.05.01-.08.01ZM20.31,20.85c.12.42.33,1.05.63,1.88,0,.01.01.02.03.03.01,0,.03,0,.04,0,.01,0,.02-.01.03-.03s0-.03,0-.04c-.3-.82-.55-1.44-.72-1.84Z" fill="#fff"/>
    <path d="M20.35,23.09c-.05,0-.1-.02-.15-.05-.05-.04-.08-.09-.09-.16-.33-2.72-.19-2.74-.1-2.75.09-.01.23-.02.57,2.69,0,.06,0,.12-.05.17-.04.05-.09.08-.16.09,0,0-.02,0-.03,0ZM20.11,20.89c.03.44.09,1.1.19,1.97,0,.01,0,.03.02.03.01,0,.02.01.04.01.01,0,.03,0,.03-.02,0-.01.01-.02.01-.04-.11-.87-.21-1.53-.29-1.96Z" fill="#fff"/>
  </g>
  <g>
    <path d="M20.18,35.2c-.18,0-.34-.07-.47-.19-.13-.12-.2-.29-.2-.47-.03-2.86,0-5.52.09-7.5.13-3.17.32-3.17.45-3.17h0c.12,0,.32,0,.53,3.16.13,1.98.23,4.64.27,7.49,0,.18-.06.34-.19.47-.12.13-.29.2-.47.2,0,0,0,0,0,0ZM20.05,24.11c-.22.6-.41,4.58-.35,10.43,0,.13.05.25.14.34.09.09.22.14.34.14.13,0,.25-.05.34-.14.09-.09.14-.21.14-.34-.09-5.84-.37-9.81-.61-10.41Z" fill="#a1bce2"/>
    <path d="M16.93,34.87s-.09,0-.14-.02c-.17-.04-.32-.14-.42-.29-.1-.15-.13-.33-.09-.5.61-2.79,1.24-5.38,1.76-7.29.84-3.06,1.02-3.02,1.15-2.99h0c.12.03.31.07-.19,3.2-.31,1.96-.82,4.57-1.41,7.37-.04.17-.14.32-.29.42-.11.07-.23.11-.36.11ZM19.13,24.02c-.35.54-1.42,4.38-2.67,10.09-.03.12,0,.25.06.36.07.11.18.18.3.21.13.03.25,0,.36-.07.11-.07.18-.18.21-.3,1.22-5.72,1.83-9.65,1.73-10.29Z" fill="#a1bce2"/>
    <path d="M13.83,33.83c-.1,0-.19-.02-.28-.06-.16-.08-.28-.21-.34-.38-.06-.17-.05-.35.02-.51,1.22-2.58,2.41-4.97,3.34-6.72,1.5-2.8,1.67-2.71,1.79-2.66h0c.11.05.29.13-.9,3.07-.74,1.84-1.82,4.28-3.02,6.87-.07.16-.21.28-.38.34-.07.03-.15.04-.23.04ZM18.25,23.73c-.46.45-2.36,3.95-4.86,9.24-.05.12-.06.24-.02.36.04.12.13.22.25.27.12.05.25.06.37.02.12-.04.22-.13.27-.25,2.47-5.3,3.94-9,3.99-9.64Z" fill="#a1bce2"/>
    <path d="M11.04,32.14c-.14,0-.29-.05-.41-.14-.14-.11-.23-.27-.25-.44-.02-.18.03-.35.14-.49,1.77-2.25,3.46-4.31,4.76-5.81,2.08-2.39,2.24-2.28,2.34-2.2h0c.1.08.25.19-1.56,2.8-1.13,1.63-2.73,3.77-4.48,6.03-.13.17-.33.26-.53.26ZM17.47,23.25c-.55.34-3.19,3.33-6.8,7.93-.08.1-.11.23-.1.35.02.13.08.24.18.32.21.16.51.12.67-.08,3.59-4.62,5.85-7.9,6.04-8.52Z" fill="#a1bce2"/>
    <path d="M8.71,29.86c-.19,0-.38-.08-.52-.24-.11-.14-.16-.31-.15-.49.02-.18.1-.34.24-.45,2.22-1.8,4.33-3.44,5.94-4.61,2.57-1.87,2.69-1.72,2.77-1.63.02.02.03.05.03.1-.05.5-4.01,3.98-7.89,7.16-.12.1-.27.15-.42.15ZM16.8,22.6c-.61.21-3.85,2.54-8.4,6.23-.1.08-.16.2-.17.32-.01.13.02.25.11.35.17.2.47.23.68.07,4.53-3.71,7.47-6.41,7.79-6.96Z" fill="#a1bce2"/>
    <path d="M6.94,27.13c-.07,0-.14-.01-.21-.03-.17-.06-.31-.17-.38-.33-.08-.16-.09-.34-.03-.51.06-.17.18-.3.34-.38,2.57-1.26,4.99-2.39,6.82-3.18,2.92-1.26,3-1.08,3.06-.97h0c.06.11.14.28-2.63,1.84-1.73.98-4.1,2.22-6.66,3.49-.09.05-.19.07-.3.07ZM16.3,21.83c-.64.07-4.32,1.62-9.58,4.21-.12.06-.2.15-.24.28-.04.12-.03.25.02.36.06.11.16.2.28.24.12.04.25.03.37-.03,5.24-2.61,8.71-4.59,9.15-5.06Z" fill="#a1bce2"/>
    <path d="M5.82,24.07c-.12,0-.24-.03-.35-.1-.15-.09-.26-.24-.3-.41-.04-.17-.01-.35.08-.5.09-.15.24-.26.41-.3,2.79-.66,5.4-1.22,7.36-1.58,3.13-.58,3.17-.39,3.2-.27h0c.03.12.07.31-2.97,1.21-1.91.57-4.49,1.25-7.27,1.93-.05.01-.11.02-.16.02ZM15.87,20.96c-.92,0-4.74.7-10.16,1.98-.13.03-.23.11-.3.22-.07.11-.09.24-.06.36.03.12.11.23.22.3.11.07.24.09.36.06,5.69-1.38,9.51-2.55,10.05-2.91-.03,0-.07,0-.12,0Z" fill="#a1bce2"/>
    <path d="M5.41,20.84c-.17,0-.34-.07-.46-.19-.13-.12-.2-.29-.2-.47,0-.18.07-.34.19-.47.12-.13.29-.2.47-.2,2.87-.03,5.54,0,7.52.09,3.18.13,3.18.32,3.18.45h0c0,.13,0,.32-3.17.53-1.98.13-4.65.23-7.52.27,0,0,0,0-.01,0ZM7.43,19.69c-.65,0-1.32,0-2.02,0-.13,0-.25.05-.34.14-.09.09-.14.21-.14.34,0,.13.05.25.14.34.09.09.22.13.34.14,5.86-.09,9.84-.37,10.45-.6-.54-.19-3.69-.36-8.44-.36Z" fill="#a1bce2"/>
    <path d="M15.77,19.32c-.4,0-1.2-.08-2.78-.33-1.96-.31-4.59-.81-7.39-1.41-.17-.04-.32-.14-.42-.29-.1-.15-.13-.33-.09-.5s.14-.32.29-.42c.15-.1.33-.13.5-.09,2.8.61,5.4,1.23,7.32,1.75,3.07.83,3.03,1.02,3,1.14h0c-.01.06-.03.14-.43.14ZM5.74,16.46c-.09,0-.18.03-.26.08-.11.07-.18.18-.21.3-.03.12,0,.25.07.36.07.11.18.18.3.21,5.73,1.22,9.68,1.82,10.32,1.73-.55-.35-4.4-1.42-10.12-2.66-.03,0-.07-.01-.1-.01Z" fill="#a1bce2"/>
    <path d="M16.32,18.44c-.25,0-.94-.18-2.92-.98-1.84-.74-4.29-1.81-6.89-3.01-.16-.07-.28-.21-.35-.38-.06-.17-.05-.35.02-.51.16-.33.55-.48.89-.32,2.59,1.21,4.99,2.4,6.74,3.33,2.81,1.49,2.72,1.67,2.67,1.78h0s-.04.08-.16.08ZM6.78,13.38c-.18,0-.35.1-.44.28-.05.12-.06.25-.02.36.04.12.13.22.25.27,5.32,2.46,9.03,3.92,9.68,3.97-.46-.46-3.97-2.36-9.27-4.84-.07-.03-.14-.05-.2-.05Z" fill="#a1bce2"/>
    <path d="M16.83,17.68c-.19,0-.74-.25-2.7-1.61-1.63-1.13-3.78-2.72-6.05-4.46-.14-.11-.23-.27-.25-.44-.02-.18.03-.35.14-.49.23-.29.65-.34.93-.12,2.26,1.76,4.33,3.44,5.83,4.74,2.4,2.08,2.28,2.23,2.21,2.33h0s-.04.05-.1.05ZM8.49,10.6c-.14,0-.28.06-.38.18-.08.1-.11.23-.1.35.02.13.08.24.18.32,4.64,3.58,7.93,5.83,8.55,6.02-.34-.55-3.34-3.18-7.96-6.77-.09-.07-.19-.1-.3-.1Z" fill="#a1bce2"/>
    <path d="M17.46,17.04c-.15,0-.59-.29-2.31-2.17-1.34-1.46-3.08-3.49-4.9-5.69-.11-.14-.17-.31-.15-.49.02-.18.1-.34.24-.45.28-.23.71-.19.94.09,3.17,3.89,6.35,8.08,6.3,8.58,0,.05-.03.08-.05.09h0s-.04.03-.08.03ZM10.77,8.27c-.11,0-.21.04-.3.11-.1.08-.16.2-.17.32-.01.13.03.25.11.35,3.72,4.51,6.43,7.44,6.99,7.77-.21-.61-2.55-3.84-6.25-8.37-.09-.12-.23-.18-.37-.18Z" fill="#a1bce2"/>
    <path d="M18.21,16.55c-.14,0-.46-.29-1.79-2.64-.98-1.72-2.22-4.08-3.5-6.64-.08-.16-.09-.34-.04-.51.06-.17.18-.31.34-.38.33-.16.73-.03.89.3,1.27,2.56,2.4,4.97,3.19,6.79,1.26,2.91,1.09,2.99.97,3.05h0s-.04.02-.06.02ZM13.51,6.51c-.07,0-.14.02-.21.05-.11.06-.2.16-.24.28-.04.12-.03.25.03.36,2.62,5.23,4.61,8.68,5.08,9.12-.07-.64-1.63-4.31-4.22-9.54-.08-.17-.25-.27-.43-.27Z" fill="#a1bce2"/>
    <path d="M19.05,16.24c-.13,0-.36-.24-1.18-2.97-.57-1.9-1.26-4.47-1.93-7.25-.04-.17-.01-.35.08-.5.09-.15.24-.26.41-.3.17-.04.35-.01.5.08.15.09.26.24.3.41.66,2.78,1.23,5.38,1.59,7.33.58,3.12.39,3.16.27,3.19h0s-.03,0-.04,0ZM16.58,5.39s-.08,0-.11.01c-.13.03-.23.11-.3.22-.07.11-.09.24-.06.36,1.39,5.68,2.56,9.49,2.92,10.02.08-.64-.62-4.56-1.98-10.24-.03-.12-.11-.23-.22-.3-.08-.05-.16-.07-.25-.07Z" fill="#a1bce2"/>
    <path d="M19.94,16.13c-.13,0-.31-.07-.52-3.16-.13-1.98-.23-4.64-.27-7.49,0-.18.06-.34.19-.47.12-.13.29-.2.47-.2.18,0,.35.07.47.19.13.12.2.29.2.47.03,2.86,0,5.52-.09,7.5-.13,3.17-.32,3.17-.45,3.17h0s0,0,0,0ZM19.82,4.99h0c-.13,0-.25.05-.34.15-.09.09-.14.21-.14.34.09,5.84.37,9.81.61,10.41.22-.6.41-4.58.35-10.43,0-.13-.05-.25-.14-.34-.09-.09-.21-.14-.34-.14Z" fill="#a1bce2"/>
    <path d="M20.86,16.22s-.03,0-.04,0c-.12-.03-.31-.07.19-3.2.31-1.96.82-4.57,1.41-7.37.04-.17.14-.32.29-.42.15-.1.33-.13.5-.09.17.04.32.14.42.29.1.15.13.33.09.5-.61,2.79-1.24,5.38-1.76,7.29-.76,2.76-.98,3-1.11,3ZM23.07,5.31c-.09,0-.18.03-.26.08-.11.07-.18.18-.21.3-1.22,5.72-1.83,9.65-1.73,10.29.35-.54,1.42-4.38,2.67-10.09.03-.12,0-.25-.06-.36-.07-.11-.18-.18-.3-.21-.03,0-.07-.01-.1-.01Z" fill="#a1bce2"/>
    <path d="M21.7,16.51s-.04,0-.06-.02h0c-.11-.05-.29-.13.9-3.07.74-1.84,1.82-4.28,3.02-6.87.15-.33.55-.48.89-.32.16.08.28.21.34.38.06.17.05.35-.02.51-1.22,2.58-2.41,4.97-3.34,6.72-1.28,2.39-1.59,2.68-1.73,2.68ZM26.17,6.35c-.18,0-.35.1-.44.28-2.47,5.3-3.94,9-3.99,9.64.46-.45,2.36-3.95,4.86-9.24.05-.12.06-.24.02-.36-.04-.12-.13-.22-.25-.27-.07-.03-.13-.04-.2-.04Z" fill="#a1bce2"/>
    <path d="M22.46,16.98s-.06-.02-.08-.03h0s-.04-.04-.05-.09c-.06-.5,3.02-4.77,6.09-8.73.23-.29.64-.34.93-.12.14.11.23.27.25.44.02.18-.03.35-.14.49-1.77,2.25-3.46,4.31-4.76,5.81-1.69,1.94-2.11,2.23-2.26,2.23ZM28.96,8.05c-.14,0-.29.06-.38.19-3.59,4.62-5.85,7.9-6.04,8.52.55-.34,3.19-3.33,6.8-7.93.08-.1.11-.23.1-.35-.02-.13-.08-.24-.18-.32-.09-.07-.19-.1-.29-.1Z" fill="#a1bce2"/>
    <path d="M23.11,17.6c-.06,0-.08-.03-.1-.05-.08-.1-.2-.25,2.15-2.38,1.47-1.33,3.5-3.07,5.71-4.88.28-.23.7-.19.94.09.11.14.16.31.15.49-.02.18-.1.34-.24.45-2.22,1.8-4.33,3.44-5.94,4.61-1.94,1.42-2.48,1.68-2.67,1.68ZM31.29,10.32c-.11,0-.21.04-.3.11-4.53,3.71-7.46,6.41-7.79,6.96.61-.21,3.85-2.54,8.4-6.23.1-.08.16-.2.17-.32.01-.13-.02-.25-.11-.35-.09-.12-.23-.18-.37-.18Z" fill="#a1bce2"/>
    <path d="M23.63,18.36c-.11,0-.13-.04-.15-.08-.06-.11-.14-.28,2.63-1.84,1.73-.98,4.1-2.22,6.66-3.49.33-.16.73-.03.89.3.08.16.09.34.03.51-.06.17-.18.3-.34.38-2.57,1.26-4.99,2.39-6.82,3.18-1.99.86-2.67,1.05-2.91,1.05ZM33.06,13.06c-.07,0-.15.02-.21.05-5.24,2.61-8.71,4.59-9.15,5.06.64-.07,4.32-1.62,9.58-4.21.12-.06.2-.15.24-.28.04-.12.03-.25-.02-.36-.08-.17-.25-.27-.43-.27Z" fill="#a1bce2"/>
    <path d="M24.15,19.22c-.34,0-.35-.07-.37-.13h0c-.03-.12-.07-.31,2.97-1.21,1.91-.57,4.49-1.25,7.27-1.93.17-.04.35-.01.5.08.15.09.26.24.3.41.04.17.01.35-.08.5-.09.15-.24.26-.41.3-2.79.66-5.4,1.22-7.36,1.58-1.66.31-2.45.4-2.83.4ZM24.01,19.04c.65.08,4.58-.62,10.28-1.98.13-.03.23-.11.3-.22.07-.11.09-.24.06-.36-.03-.12-.11-.23-.22-.3-.11-.07-.24-.09-.36-.06-5.69,1.38-9.51,2.55-10.05,2.91Z" fill="#a1bce2"/>
    <path d="M32.58,20.5c-2.09,0-4-.03-5.51-.1-3.18-.13-3.18-.32-3.18-.45s0-.32,3.17-.53c1.98-.13,4.65-.23,7.52-.27.19,0,.35.06.47.19.13.12.2.29.2.47,0,.18-.06.34-.19.47-.12.13-.29.2-.47.2-.68,0-1.36,0-2.01,0ZM24.13,19.95c.61.22,4.6.41,10.46.35.13,0,.25-.05.34-.14.09-.09.14-.21.14-.34,0-.13-.05-.25-.14-.34-.09-.09-.22-.14-.34-.14-5.86.09-9.84.37-10.45.6Z" fill="#a1bce2"/>
    <path d="M34.26,23.73s-.1,0-.14-.02c-2.8-.61-5.4-1.23-7.32-1.75-3.07-.83-3.03-1.02-3-1.14h0c.03-.12.07-.31,3.21.19,1.96.31,4.59.81,7.39,1.41.17.04.32.14.42.29.1.15.13.33.09.5-.04.17-.14.32-.29.42-.11.07-.23.11-.36.11ZM24.04,20.87c.55.35,4.4,1.42,10.12,2.66.12.03.25,0,.36-.07.11-.07.18-.18.21-.3.03-.12,0-.25-.07-.36-.07-.11-.18-.18-.3-.21-5.73-1.22-9.68-1.82-10.32-1.73Z" fill="#a1bce2"/>
    <path d="M33.22,26.81c-.09,0-.19-.02-.28-.06-2.59-1.21-4.99-2.4-6.74-3.33-2.81-1.49-2.72-1.67-2.67-1.78.05-.11.13-.29,3.08.9,1.84.74,4.29,1.81,6.89,3.01.16.07.28.21.35.37.06.17.05.35-.02.51-.11.24-.35.38-.6.38ZM23.74,21.74c.46.46,3.97,2.36,9.27,4.84.24.11.53,0,.64-.23.05-.12.06-.25.02-.37-.04-.12-.13-.22-.25-.27-5.32-2.46-9.03-3.92-9.68-3.97Z" fill="#a1bce2"/>
    <path d="M31.51,29.59c-.14,0-.29-.05-.41-.14-2.26-1.76-4.33-3.44-5.83-4.74-2.4-2.08-2.28-2.23-2.21-2.33.08-.1.2-.25,2.81,1.56,1.63,1.13,3.78,2.72,6.05,4.46.14.11.23.27.25.44.02.18-.03.35-.14.49-.13.17-.33.26-.53.26ZM23.26,22.53c.34.55,3.34,3.18,7.96,6.77.21.16.51.13.67-.08.08-.1.11-.23.1-.35-.02-.13-.08-.24-.18-.32-4.64-3.58-7.93-5.83-8.55-6.02Z" fill="#a1bce2"/>
    <path d="M29.23,31.92c-.19,0-.39-.08-.52-.24-1.81-2.22-3.45-4.32-4.62-5.92-1.88-2.56-1.73-2.68-1.63-2.76.1-.08.25-.2,2.39,2.14,1.34,1.46,3.08,3.49,4.9,5.69.11.14.17.31.15.49-.02.18-.1.34-.24.45-.12.1-.27.15-.42.15ZM22.61,23.18c.21.61,2.55,3.84,6.25,8.37.17.2.47.24.68.07.1-.08.16-.2.17-.32.01-.13-.03-.25-.11-.35-3.72-4.51-6.43-7.44-6.99-7.77Z" fill="#a1bce2"/>
    <path d="M26.49,33.68c-.25,0-.48-.14-.6-.37-1.27-2.56-2.4-4.97-3.19-6.79-1.26-2.91-1.09-2.99-.97-3.05.11-.06.28-.14,1.85,2.62.98,1.72,2.22,4.08,3.5,6.64.08.16.09.34.04.51-.06.17-.18.31-.34.38-.09.05-.2.07-.3.07ZM21.84,23.68c.07.64,1.63,4.31,4.22,9.55.12.24.41.33.64.22.12-.06.2-.16.24-.28.04-.12.03-.25-.03-.36-2.62-5.23-4.61-8.68-5.08-9.12Z" fill="#a1bce2"/>
    <path d="M23.42,34.79c-.12,0-.24-.03-.35-.1-.15-.09-.26-.24-.3-.41-.66-2.78-1.23-5.38-1.59-7.33-.58-3.12-.39-3.16-.27-3.19h0c.12-.03.31-.07,1.22,2.96.57,1.9,1.26,4.47,1.93,7.25.04.17.01.35-.08.5-.09.15-.24.26-.41.3-.05.01-.1.02-.16.02ZM20.97,24c-.08.64.62,4.56,1.98,10.24.03.12.11.23.22.3.11.07.24.09.36.06.13-.03.23-.11.3-.22.07-.11.09-.24.06-.36-1.39-5.68-2.56-9.49-2.92-10.02Z" fill="#a1bce2"/>
  </g>
</svg>