<?xml version="1.0" encoding="UTF-8"?>
<svg id="a" data-name="图层 1" xmlns="http://www.w3.org/2000/svg" width="401" height="401" viewBox="0 0 401 401">
  <g>
    <polygon points="200.5 233.85 196.13 367.23 204.87 367.23 200.5 233.85" fill="none" stroke="#a0d7e9" stroke-miterlimit="10"/>
    <polygon points="195.28 233.44 170.1 364.5 178.73 365.86 195.28 233.44" fill="none" stroke="#a0d7e9" stroke-miterlimit="10"/>
    <polygon points="190.19 232.21 144.82 357.72 153.13 360.42 190.19 232.21" fill="none" stroke="#a0d7e9" stroke-miterlimit="10"/>
    <polygon points="185.36 230.21 120.91 347.07 128.69 351.04 185.36 230.21" fill="none" stroke="#a0d7e9" stroke-miterlimit="10"/>
    <polygon points="180.9 227.48 98.97 332.82 106.03 337.95 180.9 227.48" fill="none" stroke="#a0d7e9" stroke-miterlimit="10"/>
    <polygon points="176.92 224.08 79.51 315.31 85.69 321.49 176.92 224.08" fill="none" stroke="#a0d7e9" stroke-miterlimit="10"/>
    <polygon points="173.52 220.1 63.04 294.97 68.17 302.04 173.52 220.1" fill="none" stroke="#a0d7e9" stroke-miterlimit="10"/>
    <polygon points="170.79 215.63 49.96 272.3 53.92 280.08 170.79 215.63" fill="none" stroke="#a0d7e9" stroke-miterlimit="10"/>
    <polygon points="168.79 210.8 40.58 247.87 43.28 256.17 168.79 210.8" fill="none" stroke="#a0d7e9" stroke-miterlimit="10"/>
    <polygon points="167.56 205.71 35.14 222.27 36.5 230.89 167.56 205.71" fill="none" stroke="#a0d7e9" stroke-miterlimit="10"/>
    <polygon points="167.15 200.5 33.77 196.13 33.77 204.86 167.15 200.5" fill="none" stroke="#a0d7e9" stroke-miterlimit="10"/>
    <polygon points="167.56 195.28 36.5 170.1 35.14 178.73 167.56 195.28" fill="none" stroke="#a0d7e9" stroke-miterlimit="10"/>
    <polygon points="168.79 190.19 43.28 144.82 40.58 153.13 168.79 190.19" fill="none" stroke="#a0d7e9" stroke-miterlimit="10"/>
    <polygon points="170.79 185.36 53.92 120.91 49.96 128.69 170.79 185.36" fill="none" stroke="#a0d7e9" stroke-miterlimit="10"/>
    <polygon points="173.52 180.89 68.17 98.96 63.04 106.02 173.52 180.89" fill="none" stroke="#a0d7e9" stroke-miterlimit="10"/>
    <polygon points="176.92 176.92 85.69 79.51 79.51 85.68 176.92 176.92" fill="none" stroke="#a0d7e9" stroke-miterlimit="10"/>
    <polygon points="180.9 173.52 106.03 63.04 98.96 68.17 180.9 173.52" fill="none" stroke="#a0d7e9" stroke-miterlimit="10"/>
    <polygon points="185.36 170.79 128.69 49.95 120.91 53.92 185.36 170.79" fill="none" stroke="#a0d7e9" stroke-miterlimit="10"/>
    <polygon points="190.2 168.78 153.13 40.58 144.83 43.27 190.2 168.78" fill="none" stroke="#a0d7e9" stroke-miterlimit="10"/>
    <polygon points="195.28 167.56 178.73 35.13 170.11 36.5 195.28 167.56" fill="none" stroke="#a0d7e9" stroke-miterlimit="10"/>
    <polygon points="200.5 167.15 204.87 33.76 196.13 33.76 200.5 167.15" fill="none" stroke="#a0d7e9" stroke-miterlimit="10"/>
    <polygon points="205.72 167.56 230.9 36.5 222.27 35.13 205.72 167.56" fill="none" stroke="#a0d7e9" stroke-miterlimit="10"/>
    <polygon points="210.8 168.78 256.18 43.27 247.87 40.58 210.8 168.78" fill="none" stroke="#a0d7e9" stroke-miterlimit="10"/>
    <polygon points="215.64 170.79 280.09 53.92 272.31 49.96 215.64 170.79" fill="none" stroke="#a0d7e9" stroke-miterlimit="10"/>
    <polygon points="220.1 173.52 302.04 68.17 294.97 63.04 220.1 173.52" fill="none" stroke="#a0d7e9" stroke-miterlimit="10"/>
    <polygon points="224.08 176.92 321.48 85.68 315.31 79.51 224.08 176.92" fill="none" stroke="#a0d7e9" stroke-miterlimit="10"/>
    <polygon points="227.48 180.9 337.96 106.03 332.82 98.96 227.48 180.9" fill="none" stroke="#a0d7e9" stroke-miterlimit="10"/>
    <polygon points="230.21 185.36 351.04 128.69 347.08 120.91 230.21 185.36" fill="none" stroke="#a0d7e9" stroke-miterlimit="10"/>
    <polygon points="232.21 190.19 360.42 153.13 357.72 144.82 232.21 190.19" fill="none" stroke="#a0d7e9" stroke-miterlimit="10"/>
    <polygon points="233.44 195.28 365.87 178.73 364.5 170.1 233.44 195.28" fill="none" stroke="#a0d7e9" stroke-miterlimit="10"/>
    <polygon points="233.85 200.5 367.23 204.86 367.23 196.13 233.85 200.5" fill="none" stroke="#a0d7e9" stroke-miterlimit="10"/>
    <polygon points="233.44 205.72 364.5 230.89 365.86 222.27 233.44 205.72" fill="none" stroke="#a0d7e9" stroke-miterlimit="10"/>
    <polygon points="232.21 210.8 357.72 256.17 360.42 247.87 232.21 210.8" fill="none" stroke="#a0d7e9" stroke-miterlimit="10"/>
    <polygon points="230.22 215.64 347.08 280.08 351.05 272.31 230.22 215.64" fill="none" stroke="#a0d7e9" stroke-miterlimit="10"/>
    <polygon points="227.48 220.1 332.82 302.04 337.96 294.97 227.48 220.1" fill="none" stroke="#a0d7e9" stroke-miterlimit="10"/>
    <polygon points="224.08 224.08 315.31 321.48 321.49 315.31 224.08 224.08" fill="none" stroke="#a0d7e9" stroke-miterlimit="10"/>
    <polygon points="220.1 227.48 294.97 337.95 302.04 332.82 220.1 227.48" fill="none" stroke="#a0d7e9" stroke-miterlimit="10"/>
    <polygon points="215.64 230.21 272.3 351.04 280.08 347.08 215.64 230.21" fill="none" stroke="#a0d7e9" stroke-miterlimit="10"/>
    <polygon points="210.81 232.21 247.87 360.42 256.18 357.72 210.81 232.21" fill="none" stroke="#a0d7e9" stroke-miterlimit="10"/>
    <polygon points="205.71 233.44 222.27 365.86 230.89 364.5 205.71 233.44" fill="none" stroke="#a0d7e9" stroke-miterlimit="10"/>
  </g>
  <g>
    <polygon points="198.55 225.91 187.43 327.32 194.09 327.83 198.55 225.91" fill="none" stroke="#0087c0" stroke-miterlimit="10"/>
    <polygon points="194.6 225.3 167.76 323.72 174.25 325.26 194.6 225.3" fill="none" stroke="#0087c0" stroke-miterlimit="10"/>
    <polygon points="190.79 224.07 148.88 317.08 155.05 319.62 190.79 224.07" fill="none" stroke="#0087c0" stroke-miterlimit="10"/>
    <polygon points="187.23 222.26 131.28 307.57 136.98 311.04 187.23 222.26" fill="none" stroke="#0087c0" stroke-miterlimit="10"/>
    <polygon points="183.99 219.91 115.39 295.42 120.47 299.74 183.99 219.91" fill="none" stroke="#0087c0" stroke-miterlimit="10"/>
    <polygon points="181.15 217.09 101.59 280.94 105.93 286 181.15 217.09" fill="none" stroke="#0087c0" stroke-miterlimit="10"/>
    <polygon points="178.79 213.86 90.22 264.47 93.72 270.15 178.79 213.86" fill="none" stroke="#0087c0" stroke-miterlimit="10"/>
    <polygon points="176.97 210.3 81.57 246.43 84.14 252.59 176.97 210.3" fill="none" stroke="#0087c0" stroke-miterlimit="10"/>
    <polygon points="175.73 206.5 75.85 227.26 77.42 233.75 175.73 206.5" fill="none" stroke="#0087c0" stroke-miterlimit="10"/>
    <polygon points="175.09 202.55 73.2 207.43 73.73 214.09 175.09 202.55" fill="none" stroke="#0087c0" stroke-miterlimit="10"/>
    <polygon points="175.08 198.55 73.68 187.43 73.17 194.09 175.08 198.55" fill="none" stroke="#0087c0" stroke-miterlimit="10"/>
    <polygon points="175.7 194.6 77.28 167.76 75.74 174.25 175.7 194.6" fill="none" stroke="#0087c0" stroke-miterlimit="10"/>
    <polygon points="176.93 190.79 83.92 148.88 81.38 155.05 176.93 190.79" fill="none" stroke="#0087c0" stroke-miterlimit="10"/>
    <polygon points="178.74 187.22 93.43 131.28 89.96 136.98 178.74 187.22" fill="none" stroke="#0087c0" stroke-miterlimit="10"/>
    <polygon points="181.08 183.98 105.58 115.38 101.26 120.47 181.08 183.98" fill="none" stroke="#0087c0" stroke-miterlimit="10"/>
    <polygon points="183.91 181.15 120.06 101.58 115 105.93 183.91 181.15" fill="none" stroke="#0087c0" stroke-miterlimit="10"/>
    <polygon points="187.14 178.79 136.53 90.22 130.84 93.72 187.14 178.79" fill="none" stroke="#0087c0" stroke-miterlimit="10"/>
    <polygon points="190.7 176.97 154.57 81.57 148.41 84.14 190.7 176.97" fill="none" stroke="#0087c0" stroke-miterlimit="10"/>
    <polygon points="194.5 175.73 173.74 75.85 167.25 77.42 194.5 175.73" fill="none" stroke="#0087c0" stroke-miterlimit="10"/>
    <polygon points="198.45 175.09 193.56 73.2 186.91 73.73 198.45 175.09" fill="none" stroke="#0087c0" stroke-miterlimit="10"/>
    <polygon points="202.45 175.08 213.56 73.68 206.91 73.17 202.45 175.08" fill="none" stroke="#0087c0" stroke-miterlimit="10"/>
    <polygon points="206.4 175.7 233.24 77.28 226.75 75.74 206.4 175.7" fill="none" stroke="#0087c0" stroke-miterlimit="10"/>
    <polygon points="210.21 176.93 252.12 83.92 245.94 81.38 210.21 176.93" fill="none" stroke="#0087c0" stroke-miterlimit="10"/>
    <polygon points="213.77 178.74 269.72 93.43 264.02 89.96 213.77 178.74" fill="none" stroke="#0087c0" stroke-miterlimit="10"/>
    <polygon points="217.01 181.08 285.61 105.58 280.53 101.25 217.01 181.08" fill="none" stroke="#0087c0" stroke-miterlimit="10"/>
    <polygon points="219.85 183.9 299.41 120.06 295.07 115 219.85 183.9" fill="none" stroke="#0087c0" stroke-miterlimit="10"/>
    <polygon points="222.21 187.14 310.78 136.52 307.28 130.84 222.21 187.14" fill="none" stroke="#0087c0" stroke-miterlimit="10"/>
    <polygon points="224.03 190.7 319.43 154.56 316.86 148.4 224.03 190.7" fill="none" stroke="#0087c0" stroke-miterlimit="10"/>
    <polygon points="225.27 194.5 325.15 173.73 323.58 167.25 225.27 194.5" fill="none" stroke="#0087c0" stroke-miterlimit="10"/>
    <polygon points="225.91 198.45 327.8 193.56 327.27 186.91 225.91 198.45" fill="none" stroke="#0087c0" stroke-miterlimit="10"/>
    <polygon points="225.92 202.45 327.32 213.56 327.83 206.91 225.92 202.45" fill="none" stroke="#0087c0" stroke-miterlimit="10"/>
    <polygon points="225.3 206.4 323.72 233.24 325.26 226.75 225.3 206.4" fill="none" stroke="#0087c0" stroke-miterlimit="10"/>
    <polygon points="224.07 210.2 317.08 252.11 319.62 245.94 224.07 210.2" fill="none" stroke="#0087c0" stroke-miterlimit="10"/>
    <polygon points="222.26 213.77 307.57 269.72 311.04 264.02 222.26 213.77" fill="none" stroke="#0087c0" stroke-miterlimit="10"/>
    <polygon points="219.92 217.01 295.42 285.61 299.75 280.53 219.92 217.01" fill="none" stroke="#0087c0" stroke-miterlimit="10"/>
    <polygon points="217.09 219.85 280.94 299.41 286 295.07 217.09 219.85" fill="none" stroke="#0087c0" stroke-miterlimit="10"/>
    <polygon points="213.86 222.21 264.47 310.78 270.16 307.28 213.86 222.21" fill="none" stroke="#0087c0" stroke-miterlimit="10"/>
    <polygon points="210.3 224.03 246.43 319.43 252.59 316.86 210.3 224.03" fill="none" stroke="#0087c0" stroke-miterlimit="10"/>
    <polygon points="206.5 225.27 227.26 325.15 233.75 323.58 206.5 225.27" fill="none" stroke="#0087c0" stroke-miterlimit="10"/>
    <polygon points="202.55 225.91 207.44 327.8 214.09 327.27 202.55 225.91" fill="none" stroke="#0087c0" stroke-miterlimit="10"/>
  </g>
  <g>
    <path d="M190.54,329.86l-9.4,66.6c-.28,1.96,1.16,3.74,3.13,3.89l1.68.13c1.97.15,3.66-1.39,3.69-3.37l.9-67.26Z" fill="none" stroke="#46bdd5" stroke-miterlimit="10"/>
    <path d="M170.43,326.71l-19.7,64.31c-.58,1.89.56,3.88,2.48,4.33l1.64.39c1.92.46,3.83-.8,4.17-2.75l11.41-66.29Z" fill="none" stroke="#46bdd5" stroke-miterlimit="10"/>
    <path d="M151.05,320.45l-29.52,60.44c-.87,1.78-.06,3.92,1.77,4.67l1.56.64c1.83.75,3.91-.19,4.55-2.06l21.64-63.69Z" fill="none" stroke="#46bdd5" stroke-miterlimit="10"/>
    <path d="M132.9,311.23l-38.61,55.08c-1.13,1.62-.67,3.86,1.02,4.89l1.44.88c1.69,1.03,3.89.42,4.81-1.33l31.34-59.52Z" fill="none" stroke="#46bdd5" stroke-miterlimit="10"/>
    <path d="M116.41,299.3l-46.75,48.36c-1.37,1.42-1.26,3.71.24,4.99l1.28,1.09c1.51,1.28,3.78,1.03,4.96-.56l40.26-53.88Z" fill="none" stroke="#46bdd5" stroke-miterlimit="10"/>
    <path d="M101.98,284.93l-53.74,40.45c-1.58,1.19-1.83,3.46-.54,4.96l1.1,1.28c1.29,1.5,3.57,1.6,4.99.23l48.2-46.92Z" fill="none" stroke="#46bdd5" stroke-miterlimit="10"/>
    <path d="M89.99,268.48l-59.41,31.54c-1.75.93-2.35,3.14-1.31,4.82l.88,1.44c1.04,1.68,3.28,2.14,4.89,1l54.94-38.8Z" fill="none" stroke="#46bdd5" stroke-miterlimit="10"/>
    <path d="M80.72,250.36l-63.61,21.86c-1.87.64-2.81,2.73-2.05,4.55l.65,1.56c.76,1.82,2.9,2.63,4.68,1.76l60.34-29.73Z" fill="none" stroke="#46bdd5" stroke-miterlimit="10"/>
    <path d="M74.39,231l-66.25,11.64c-1.95.34-3.2,2.26-2.74,4.18l.4,1.64c.46,1.92,2.46,3.05,4.34,2.47l64.25-19.92Z" fill="none" stroke="#46bdd5" stroke-miterlimit="10"/>
    <path d="M71.17,210.9l-67.26,1.13c-1.98.03-3.51,1.73-3.36,3.7l.14,1.68c.16,1.97,1.95,3.4,3.9,3.11l66.57-9.63Z" fill="none" stroke="#46bdd5" stroke-miterlimit="10"/>
    <path d="M71.14,190.54l-66.6-9.4c-1.96-.28-3.74,1.16-3.89,3.13l-.13,1.68c-.15,1.97,1.39,3.66,3.37,3.69l67.26.9Z" fill="none" stroke="#46bdd5" stroke-miterlimit="10"/>
    <path d="M74.29,170.43l-64.31-19.7c-1.89-.58-3.88.56-4.33,2.48l-.39,1.64c-.46,1.92.8,3.83,2.75,4.17l66.29,11.41Z" fill="none" stroke="#46bdd5" stroke-miterlimit="10"/>
    <path d="M80.55,151.05l-60.44-29.52c-1.78-.87-3.92-.06-4.67,1.77l-.64,1.56c-.75,1.83.19,3.91,2.06,4.55l63.69,21.64Z" fill="none" stroke="#46bdd5" stroke-miterlimit="10"/>
    <path d="M89.76,132.9l-55.08-38.61c-1.62-1.13-3.86-.67-4.89,1.02l-.88,1.44c-1.03,1.69-.42,3.89,1.33,4.81l59.52,31.34Z" fill="none" stroke="#46bdd5" stroke-miterlimit="10"/>
    <path d="M101.7,116.41l-48.36-46.75c-1.42-1.37-3.71-1.26-4.99.24l-1.09,1.28c-1.28,1.51-1.03,3.78.56,4.96l53.88,40.26Z" fill="none" stroke="#46bdd5" stroke-miterlimit="10"/>
    <path d="M116.07,101.98l-40.45-53.74c-1.19-1.58-3.46-1.83-4.96-.54l-1.28,1.1c-1.5,1.29-1.6,3.57-.23,4.99l46.92,48.2Z" fill="none" stroke="#46bdd5" stroke-miterlimit="10"/>
    <path d="M132.52,89.99l-31.54-59.41c-.93-1.75-3.14-2.35-4.82-1.31l-1.44.88c-1.68,1.04-2.14,3.28-1,4.89l38.8,54.94Z" fill="none" stroke="#46bdd5" stroke-miterlimit="10"/>
    <path d="M150.64,80.72l-21.86-63.61c-.64-1.87-2.73-2.81-4.55-2.05l-1.56.65c-1.82.76-2.63,2.9-1.76,4.68l29.73,60.34Z" fill="none" stroke="#46bdd5" stroke-miterlimit="10"/>
    <path d="M170,74.39l-11.64-66.25c-.34-1.95-2.26-3.2-4.18-2.74l-1.64.4c-1.92.46-3.05,2.46-2.47,4.34l19.92,64.25Z" fill="none" stroke="#46bdd5" stroke-miterlimit="10"/>
    <path d="M190.1,71.17l-1.13-67.25c-.03-1.98-1.73-3.51-3.7-3.36l-1.68.14c-1.97.16-3.4,1.95-3.11,3.9l9.63,66.57Z" fill="none" stroke="#46bdd5" stroke-miterlimit="10"/>
    <path d="M210.46,71.14l9.4-66.6c.28-1.96-1.16-3.74-3.13-3.89l-1.68-.13c-1.97-.15-3.66,1.39-3.69,3.37l-.9,67.26Z" fill="none" stroke="#46bdd5" stroke-miterlimit="10"/>
    <path d="M230.57,74.29l19.7-64.31c.58-1.89-.56-3.88-2.48-4.33l-1.64-.39c-1.92-.46-3.83.8-4.17,2.75l-11.41,66.29Z" fill="none" stroke="#46bdd5" stroke-miterlimit="10"/>
    <path d="M249.95,80.55l29.52-60.44c.87-1.78.06-3.92-1.77-4.67l-1.56-.64c-1.83-.75-3.91.19-4.55,2.06l-21.64,63.69Z" fill="none" stroke="#46bdd5" stroke-miterlimit="10"/>
    <path d="M268.1,89.76l38.61-55.08c1.13-1.62.67-3.86-1.02-4.89l-1.44-.88c-1.69-1.03-3.89-.42-4.81,1.33l-31.34,59.52Z" fill="none" stroke="#46bdd5" stroke-miterlimit="10"/>
    <path d="M284.59,101.7l46.75-48.36c1.37-1.42,1.26-3.71-.24-4.99l-1.28-1.09c-1.51-1.28-3.78-1.03-4.96.56l-40.26,53.88Z" fill="none" stroke="#46bdd5" stroke-miterlimit="10"/>
    <path d="M299.01,116.07l53.74-40.45c1.58-1.19,1.83-3.46.54-4.96l-1.1-1.28c-1.29-1.5-3.57-1.6-4.99-.23l-48.2,46.92Z" fill="none" stroke="#46bdd5" stroke-miterlimit="10"/>
    <path d="M311.01,132.52l59.41-31.54c1.75-.93,2.35-3.14,1.31-4.82l-.88-1.44c-1.04-1.68-3.28-2.14-4.89-1l-54.94,38.8Z" fill="none" stroke="#46bdd5" stroke-miterlimit="10"/>
    <path d="M320.28,150.64l63.61-21.86c1.87-.64,2.81-2.73,2.05-4.55l-.65-1.56c-.76-1.82-2.9-2.63-4.68-1.76l-60.34,29.73Z" fill="none" stroke="#46bdd5" stroke-miterlimit="10"/>
    <path d="M326.61,169.99l66.25-11.64c1.95-.34,3.2-2.26,2.74-4.18l-.4-1.64c-.46-1.92-2.46-3.05-4.34-2.47l-64.25,19.92Z" fill="none" stroke="#46bdd5" stroke-miterlimit="10"/>
    <path d="M329.83,190.1l67.26-1.13c1.98-.03,3.51-1.73,3.36-3.7l-.14-1.68c-.16-1.97-1.95-3.4-3.9-3.11l-66.57,9.63Z" fill="none" stroke="#46bdd5" stroke-miterlimit="10"/>
    <path d="M329.86,210.46l66.6,9.4c1.96.28,3.74-1.16,3.89-3.13l.13-1.68c.15-1.97-1.39-3.66-3.37-3.69l-67.26-.9Z" fill="none" stroke="#46bdd5" stroke-miterlimit="10"/>
    <path d="M326.71,230.57l64.31,19.7c1.89.58,3.88-.56,4.33-2.48l.39-1.64c.46-1.92-.8-3.83-2.75-4.17l-66.29-11.41Z" fill="none" stroke="#46bdd5" stroke-miterlimit="10"/>
    <path d="M320.45,249.94l60.44,29.52c1.78.87,3.92.06,4.67-1.77l.64-1.56c.75-1.83-.19-3.91-2.06-4.55l-63.69-21.64Z" fill="none" stroke="#46bdd5" stroke-miterlimit="10"/>
    <path d="M311.23,268.1l55.08,38.61c1.62,1.13,3.86.67,4.89-1.02l.88-1.44c1.03-1.69.42-3.89-1.33-4.81l-59.52-31.34Z" fill="none" stroke="#46bdd5" stroke-miterlimit="10"/>
    <path d="M299.3,284.59l48.36,46.75c1.42,1.37,3.71,1.26,4.99-.24l1.09-1.28c1.28-1.51,1.03-3.78-.56-4.96l-53.88-40.26Z" fill="none" stroke="#46bdd5" stroke-miterlimit="10"/>
    <path d="M284.93,299.01l40.45,53.74c1.19,1.58,3.46,1.83,4.96.54l1.28-1.1c1.5-1.29,1.6-3.57.23-4.99l-46.92-48.2Z" fill="none" stroke="#46bdd5" stroke-miterlimit="10"/>
    <path d="M268.48,311.01l31.54,59.41c.93,1.75,3.14,2.35,4.82,1.31l1.44-.88c1.68-1.04,2.14-3.28,1-4.89l-38.8-54.94Z" fill="none" stroke="#46bdd5" stroke-miterlimit="10"/>
    <path d="M250.36,320.28l21.86,63.61c.64,1.87,2.73,2.81,4.55,2.05l1.56-.65c1.82-.76,2.63-2.9,1.76-4.68l-29.73-60.34Z" fill="none" stroke="#46bdd5" stroke-miterlimit="10"/>
    <path d="M231,326.61l11.64,66.25c.34,1.95,2.26,3.2,4.18,2.74l1.64-.4c1.92-.46,3.05-2.46,2.47-4.34l-19.92-64.25Z" fill="none" stroke="#46bdd5" stroke-miterlimit="10"/>
    <path d="M210.9,329.83l1.13,67.25c.03,1.98,1.73,3.51,3.7,3.36l1.68-.14c1.97-.16,3.4-1.95,3.11-3.9l-9.63-66.57Z" fill="none" stroke="#46bdd5" stroke-miterlimit="10"/>
  </g>
</svg>