<?xml version="1.0" encoding="UTF-8"?>
<svg id="a" data-name="图层 1" xmlns="http://www.w3.org/2000/svg" width="40" height="40" viewBox="0 0 40 40">
  <g>
    <path d="M20.52,36.69h-1.03l.44-13.37h.16l.44,13.37ZM19.65,36.53h.7l-.35-10.76-.35,10.76Z" fill="#a0d7e9"/>
    <path d="M17.9,36.56l-1.02-.16,2.52-13.14.16.02-1.66,13.27ZM17.07,36.27l.7.11,1.34-10.68-2.03,10.57Z" fill="#a0d7e9"/>
    <path d="M15.34,36.03l-.98-.32.03-.08,4.52-12.5.15.05-3.72,12.85ZM14.56,35.61l.67.22,2.99-10.34-3.66,10.13Z" fill="#a0d7e9"/>
    <path d="M12.88,35.1l-.92-.47,6.46-11.71.14.07-5.68,12.11ZM12.18,34.57l.63.32,4.57-9.75-5.2,9.43Z" fill="#a0d7e9"/>
    <path d="M10.61,33.8l-.84-.61,8.21-10.56.13.09-7.5,11.07ZM10,33.16l.57.41,6.04-8.91-6.61,8.5Z" fill="#a0d7e9"/>
    <path d="M8.57,32.17l-.73-.73.06-.06,9.7-9.09.11.11-9.14,9.76ZM8.06,31.44l.5.5,7.36-7.86-7.86,7.36Z" fill="#a0d7e9"/>
    <path d="M6.8,30.23l-.61-.84.07-.05,11-7.46.09.13-10.56,8.21ZM6.42,29.43l.41.57,8.5-6.61-8.91,6.04Z" fill="#a0d7e9"/>
    <path d="M5.37,28.04l-.47-.92,12.11-5.68.07.14-11.71,6.46ZM5.11,27.19l.32.63,9.43-5.2-9.75,4.57Z" fill="#a0d7e9"/>
    <path d="M4.29,25.65l-.32-.98.08-.02,12.77-3.69.05.15-12.58,4.55ZM4.17,24.77l.22.67,10.13-3.66-10.34,2.99Z" fill="#a0d7e9"/>
    <path d="M3.6,23.12l-.16-1.02,13.27-1.66.02.16-13.13,2.52ZM3.62,22.24l.11.7,10.57-2.03-10.68,1.34Z" fill="#a0d7e9"/>
    <path d="M3.31,20.52v-1.03h.08s13.29.44,13.29.44v.16l-13.37.44ZM3.47,19.65v.7l10.76-.35-10.76-.35Z" fill="#a0d7e9"/>
    <path d="M16.71,19.56l-13.27-1.66.16-1.02.08.02,13.05,2.51-.02.16ZM3.62,17.76l10.68,1.34-10.57-2.03-.11.7Z" fill="#a0d7e9"/>
    <path d="M16.82,19.05l-12.85-3.71.32-.98.08.03,12.5,4.52-.05.15ZM4.17,15.23l10.34,2.99-10.13-3.66-.22.67Z" fill="#a0d7e9"/>
    <path d="M17.01,18.56l-12.11-5.68.47-.92,11.71,6.46-.07.14ZM5.11,12.81l9.75,4.57-9.43-5.2-.32.63Z" fill="#a0d7e9"/>
    <path d="M17.27,18.11l-11.07-7.5.61-.84.07.05,10.49,8.16-.09.13ZM6.42,10.57l8.91,6.04-8.5-6.61-.41.57Z" fill="#a0d7e9"/>
    <path d="M17.6,17.71L7.83,8.57l.73-.73,9.14,9.76-.11.11ZM8.06,8.56l7.86,7.36-7.36-7.86-.5.5Z" fill="#a0d7e9"/>
    <path d="M17.98,17.36L9.77,6.8l.84-.61.05.07,7.46,11-.13.09ZM10,6.84l6.61,8.5-6.04-8.91-.57.41Z" fill="#a0d7e9"/>
    <path d="M18.42,17.08l-6.46-11.71.92-.47.04.07,5.64,12.03-.14.07ZM12.18,5.43l5.2,9.43-4.57-9.75-.63.32Z" fill="#a0d7e9"/>
    <path d="M18.9,16.87l-4.55-12.58.98-.32.02.08,3.69,12.77-.15.05ZM14.56,4.39l3.66,10.13-2.99-10.34-.67.22Z" fill="#a0d7e9"/>
    <path d="M19.4,16.73l-2.52-13.14,1.02-.16,1.66,13.27-.16.02ZM17.07,3.73l2.03,10.57-1.34-10.68-.7.11Z" fill="#a0d7e9"/>
    <path d="M20.08,16.68h-.16l-.44-13.37h1.03l-.44,13.37ZM19.65,3.47l.35,10.76.35-10.76h-.7Z" fill="#a0d7e9"/>
    <path d="M20.6,16.73l-.16-.02,1.66-13.27,1.02.16-2.52,13.14ZM22.24,3.62l-1.34,10.68,2.03-10.57-.7-.11Z" fill="#a0d7e9"/>
    <path d="M21.1,16.87l-.15-.05,3.72-12.85.98.32-.03.08-4.52,12.5ZM24.77,4.17l-2.99,10.34,3.66-10.13-.67-.22Z" fill="#a0d7e9"/>
    <path d="M21.58,17.08l-.14-.07,5.68-12.11.92.47-6.46,11.71ZM27.19,5.11l-4.57,9.75,5.2-9.43-.63-.32Z" fill="#a0d7e9"/>
    <path d="M22.02,17.36l-.13-.09,7.5-11.07.84.61-8.21,10.56ZM29.43,6.42l-6.04,8.91,6.61-8.5-.57-.41Z" fill="#a0d7e9"/>
    <path d="M22.4,17.71l-.11-.11,9.14-9.76.73.73-.06.06-9.7,9.09ZM31.44,8.06l-7.36,7.86,7.86-7.36-.5-.5Z" fill="#a0d7e9"/>
    <path d="M22.73,18.11l-.09-.13,10.56-8.21.61.84-.07.05-11,7.46ZM33.16,10l-8.5,6.61,8.91-6.04-.41-.57Z" fill="#a0d7e9"/>
    <path d="M22.99,18.56l-.07-.14,11.71-6.46.47.92-12.11,5.68ZM34.57,12.18l-9.43,5.2,9.75-4.57-.32-.63Z" fill="#a0d7e9"/>
    <path d="M23.18,19.05l-.05-.15,12.58-4.55.32.98-.08.02-12.77,3.69ZM35.61,14.56l-10.13,3.66,10.34-2.99-.22-.67Z" fill="#a0d7e9"/>
    <path d="M23.29,19.56l-.02-.16,13.13-2.52.16,1.02-13.27,1.66ZM36.27,17.07l-10.57,2.03,10.69-1.34-.11-.7Z" fill="#a0d7e9"/>
    <path d="M36.69,20.52h-.08s-13.29-.44-13.29-.44v-.16l13.37-.44v1.03ZM25.76,20l10.76.35v-.7l-10.76.35Z" fill="#a0d7e9"/>
    <path d="M36.4,23.12l-.08-.02-13.05-2.51.02-.16,13.27,1.66-.16,1.02ZM25.69,20.9l10.57,2.03.11-.7-10.69-1.34Z" fill="#a0d7e9"/>
    <path d="M35.71,25.65l-.08-.03-12.5-4.52.05-.15,12.85,3.72-.32.98ZM25.48,21.78l10.13,3.66.22-.67-10.34-2.99Z" fill="#a0d7e9"/>
    <path d="M34.63,28.04l-11.71-6.46.07-.14,12.11,5.68-.47.92ZM25.14,22.62l9.43,5.2.32-.63-9.75-4.57Z" fill="#a0d7e9"/>
    <path d="M33.2,30.23l-.07-.05-10.49-8.16.09-.13,11.07,7.5-.61.84ZM24.66,23.39l8.5,6.61.41-.57-8.91-6.04Z" fill="#a0d7e9"/>
    <path d="M31.43,32.17l-9.14-9.76.11-.11,9.76,9.14-.73.73ZM24.08,24.08l7.36,7.86.5-.5-7.86-7.36Z" fill="#a0d7e9"/>
    <path d="M29.39,33.8l-.05-.07-7.46-11,.13-.09,8.21,10.56-.84.61ZM23.39,24.66l6.04,8.91.57-.41-6.61-8.5Z" fill="#a0d7e9"/>
    <path d="M27.11,35.1l-.04-.07-5.64-12.03.14-.07,6.46,11.71-.92.47ZM22.62,25.14l4.57,9.75.63-.32-5.2-9.43Z" fill="#a0d7e9"/>
    <path d="M24.66,36.03l-.02-.08-3.69-12.77.15-.05,4.55,12.58-.98.32ZM21.78,25.48l2.99,10.34.67-.22-3.66-10.13Z" fill="#a0d7e9"/>
    <path d="M22.1,36.56l-1.66-13.27.16-.02,2.52,13.14-1.02.16ZM20.9,25.69l1.34,10.68.7-.11-2.03-10.57Z" fill="#a0d7e9"/>
  </g>
  <g>
    <path d="M19.46,32.79l-.87-.07,1.12-10.2.2.02-.45,10.25ZM18.81,32.54l.46.04.31-7.05-.77,7.01Z" fill="#0087c0"/>
    <path d="M17.46,32.55l-.84-.2,2.7-9.9.19.05-2.05,10.06ZM16.86,32.2l.45.11,1.41-6.91-1.86,6.8Z" fill="#0087c0"/>
    <path d="M15.53,31.99l-.8-.33.04-.09,4.17-9.26.18.08-3.6,9.61ZM14.99,31.56l.43.18,2.47-6.61-2.9,6.43Z" fill="#0087c0"/>
    <path d="M13.71,31.15l-.74-.45.06-.09,5.57-8.5.17.1-5.05,8.93ZM13.24,30.63l.39.24,3.47-6.14-3.87,5.9Z" fill="#0087c0"/>
    <path d="M12.04,30.03l-.66-.56,6.9-7.6.15.13-6.39,8.03ZM11.66,29.45l.35.3,4.39-5.52-4.74,5.22Z" fill="#0087c0"/>
    <path d="M10.57,28.66l-.56-.66,8-6.42.13.15-7.57,6.93ZM10.29,28.02l.3.35,5.2-4.76-5.5,4.41Z" fill="#0087c0"/>
    <path d="M9.33,27.08l-.46-.74,8.91-5.09.1.17-8.56,5.66ZM9.15,26.41l.24.39,5.88-3.89-6.12,3.5Z" fill="#0087c0"/>
    <path d="M8.36,25.32l-.33-.8,9.6-3.63.08.18-9.34,4.25ZM8.28,24.63l.18.43,6.42-2.92-6.6,2.5Z" fill="#0087c0"/>
    <path d="M7.67,23.43l-.2-.84,10.05-2.09.05.19-9.89,2.74ZM7.7,22.74l.11.45,6.8-1.88-6.9,1.44Z" fill="#0087c0"/>
    <path d="M7.28,21.46l-.07-.87h.1s10.15-.49,10.15-.49l.02.2-10.2,1.16ZM7.43,20.78l.04.46,7.01-.8-7.05.34Z" fill="#0087c0"/>
    <path d="M17.46,19.9l-10.25-.45.07-.87h.1s10.1,1.12,10.1,1.12l-.02.2ZM7.42,19.27l7.05.31-7.01-.77-.04.46Z" fill="#0087c0"/>
    <path d="M17.51,19.51l-10.06-2.05.2-.84.1.03,9.8,2.67-.05.19ZM7.69,17.31l6.91,1.41-6.8-1.86-.11.45Z" fill="#0087c0"/>
    <path d="M17.62,19.13l-9.61-3.59.33-.8,9.36,4.22-.07.18ZM8.27,15.42l6.6,2.47-6.43-2.9-.18.43Z" fill="#0087c0"/>
    <path d="M17.78,18.76l-8.93-5.05.45-.74,8.58,5.63-.1.17ZM9.13,13.64l6.14,3.47-5.9-3.87-.24.39Z" fill="#0087c0"/>
    <path d="M18,18.43l-8.03-6.39.56-.66,7.6,6.9-.13.15ZM10.26,12.02l5.52,4.39-5.22-4.74-.3.35Z" fill="#0087c0"/>
    <path d="M18.27,18.14l-6.93-7.57.66-.56,6.42,8-.15.13ZM11.62,10.59l4.76,5.2-4.41-5.5-.35.3Z" fill="#0087c0"/>
    <path d="M18.59,17.89l-5.66-8.56.74-.46,5.09,8.91-.17.1ZM13.2,9.4l3.89,5.88-3.5-6.12-.39.24Z" fill="#0087c0"/>
    <path d="M18.93,17.7l-4.25-9.34.8-.33,3.63,9.6-.18.08ZM14.94,8.46l2.92,6.42-2.5-6.59-.43.18Z" fill="#0087c0"/>
    <path d="M19.31,17.56l-2.74-9.89.84-.2,2.09,10.05-.19.05ZM16.81,7.81l1.88,6.8-1.44-6.9-.45.11Z" fill="#0087c0"/>
    <path d="M19.7,17.48l-1.16-10.2.87-.07.49,10.25-.2.02ZM18.76,7.46l.8,7.01-.34-7.04-.46.04Z" fill="#0087c0"/>
    <path d="M20.29,17.48l-.2-.02.45-10.25.87.07-1.12,10.2ZM20.73,7.42l-.31,7.05.77-7.01-.46-.04Z" fill="#0087c0"/>
    <path d="M20.68,17.56l-.19-.05,2.05-10.06.84.2-2.7,9.9ZM22.69,7.69l-1.41,6.91,1.86-6.8-.45-.11Z" fill="#0087c0"/>
    <path d="M21.06,17.69l-.18-.08,3.6-9.61.8.33-.04.09-4.17,9.26ZM24.58,8.27l-2.47,6.61,2.9-6.43-.43-.18Z" fill="#0087c0"/>
    <path d="M21.4,17.89l-.17-.1,5.05-8.93.74.45-.06.09-5.57,8.5ZM26.36,9.13l-3.47,6.14,3.87-5.9-.39-.24Z" fill="#0087c0"/>
    <path d="M21.72,18.13l-.15-.13,6.39-8.03.66.56-6.9,7.6ZM27.98,10.26l-4.39,5.52,4.74-5.22-.35-.3Z" fill="#0087c0"/>
    <path d="M21.99,18.42l-.13-.15,7.57-6.93.56.66-8,6.42ZM29.41,11.63l-5.2,4.76,5.5-4.41-.3-.35Z" fill="#0087c0"/>
    <path d="M22.21,18.75l-.1-.17,8.56-5.66.46.74-8.91,5.09ZM30.61,13.2l-5.88,3.89,6.12-3.5-.24-.39Z" fill="#0087c0"/>
    <path d="M22.38,19.12l-.08-.18,9.34-4.25.33.8-9.6,3.63ZM31.54,14.94l-6.42,2.92,6.59-2.5-.18-.43Z" fill="#0087c0"/>
    <path d="M22.49,19.5l-.05-.19,9.89-2.74.2.84-10.05,2.09ZM32.19,16.81l-6.8,1.88,6.9-1.44-.11-.45Z" fill="#0087c0"/>
    <path d="M22.54,19.89l-.02-.2,10.2-1.16.07.87h-.1s-10.15.49-10.15.49ZM32.54,18.76l-7.01.8,7.04-.34-.04-.46Z" fill="#0087c0"/>
    <path d="M32.72,21.41h-.1s-10.1-1.12-10.1-1.12l.02-.2,10.25.45-.07.87ZM25.53,20.42l7.01.77.04-.46-7.05-.31Z" fill="#0087c0"/>
    <path d="M32.34,23.38l-.1-.03-9.8-2.67.05-.19,10.06,2.05-.2.84ZM25.39,21.28l6.8,1.86.11-.45-6.91-1.41Z" fill="#0087c0"/>
    <path d="M31.66,25.27l-9.36-4.22.07-.18,9.61,3.59-.33.8ZM25.13,22.11l6.43,2.9.18-.43-6.6-2.47Z" fill="#0087c0"/>
    <path d="M30.69,27.03l-8.58-5.63.1-.17,8.93,5.05-.45.74ZM24.73,22.89l5.9,3.87.24-.39-6.14-3.47Z" fill="#0087c0"/>
    <path d="M29.46,28.62l-7.6-6.9.13-.15,8.03,6.39-.56.66ZM24.22,23.59l5.22,4.74.3-.35-5.52-4.39Z" fill="#0087c0"/>
    <path d="M28,29.99l-6.42-8,.15-.13,6.93,7.57-.66.56ZM23.61,24.21l4.41,5.5.35-.3-4.76-5.2Z" fill="#0087c0"/>
    <path d="M26.34,31.12l-5.09-8.91.17-.1,5.66,8.56-.74.46ZM22.91,24.72l3.5,6.12.39-.24-3.89-5.88Z" fill="#0087c0"/>
    <path d="M24.52,31.98l-3.63-9.6.18-.08,4.25,9.34-.8.33ZM22.13,25.12l2.5,6.59.43-.18-2.92-6.42Z" fill="#0087c0"/>
    <path d="M22.59,32.53l-2.09-10.05.19-.05,2.74,9.89-.84.2ZM21.31,25.39l1.44,6.91.45-.11-1.88-6.8Z" fill="#0087c0"/>
    <path d="M20.6,32.79l-.49-10.25.2-.02,1.16,10.2-.86.07ZM20.45,25.53l.34,7.04.46-.04-.8-7.01Z" fill="#0087c0"/>
  </g>
  <g>
    <path d="M18.58,40s-.02,0-.03,0h-.17c-.12-.02-.22-.08-.3-.17s-.1-.21-.09-.32l.94-6.63h.16s-.09,6.71-.09,6.71c0,.12-.05.23-.14.31-.08.07-.18.11-.28.11ZM18.91,34.14l-.76,5.39c-.01.07,0,.14.05.2.05.06.11.09.18.1h.17c.07.02.14,0,.2-.05.05-.05.08-.12.09-.19l.07-5.44Z" fill="#46bdd5"/>
    <path d="M15.53,39.54s-.06,0-.1-.01l-.16-.04c-.11-.03-.21-.1-.27-.2-.06-.1-.07-.22-.04-.33l1.96-6.41.16.04-1.14,6.6c-.02.12-.09.22-.18.28-.07.05-.15.07-.23.07ZM16.71,33.8l-1.59,5.2c-.02.07-.01.14.02.21s.1.11.17.12l.16.04c.07.02.14,0,.2-.04.06-.04.1-.1.11-.17l.92-5.36Z" fill="#46bdd5"/>
    <path d="M12.6,38.6c-.05,0-.11-.01-.16-.03l-.16-.06c-.11-.04-.19-.13-.23-.24s-.04-.23.02-.33l2.94-6.02.15.06-2.16,6.34c-.04.11-.12.2-.23.25-.06.03-.11.04-.17.04ZM14.59,33.11l-2.39,4.89c-.03.07-.04.14,0,.21.03.07.08.12.14.15l.16.06c.07.03.14.03.21,0,.07-.03.12-.08.14-.15l1.75-5.15Z" fill="#46bdd5"/>
    <path d="M9.84,37.22c-.08,0-.15-.02-.22-.06l-.14-.09c-.1-.06-.17-.16-.19-.27-.02-.12,0-.23.07-.33l3.85-5.49.14.08-3.12,5.93c-.05.1-.15.18-.26.21-.04.01-.08.02-.11.02ZM12.61,32.11l-3.12,4.45c-.04.06-.06.13-.04.2.01.07.06.13.12.17l.14.09c.06.04.14.05.21.03.07-.02.13-.07.16-.13l2.53-4.81Z" fill="#46bdd5"/>
    <path d="M7.34,35.42c-.1,0-.2-.04-.27-.1l-.13-.11c-.09-.07-.14-.18-.15-.3,0-.12.04-.23.12-.31l4.66-4.82.12.1-4.01,5.37c-.07.09-.17.15-.29.17-.02,0-.03,0-.05,0ZM10.81,30.8l-3.78,3.91c-.05.05-.08.12-.07.19,0,.07.04.14.09.19l.13.11c.06.05.13.07.2.06.07,0,.14-.04.18-.1l3.26-4.36Z" fill="#46bdd5"/>
    <path d="M5.15,33.26s-.01,0-.02,0c-.12,0-.23-.06-.3-.15l-.11-.13c-.08-.09-.11-.2-.1-.32.01-.12.07-.22.17-.29l5.35-4.03.1.12-4.8,4.67c-.08.08-.18.12-.29.12ZM9.23,29.23l-4.35,3.27c-.06.04-.09.11-.1.18,0,.07.01.14.06.2l.11.13c.05.06.11.09.19.09.07,0,.14-.02.19-.07l3.9-3.79Z" fill="#46bdd5"/>
    <path d="M3.33,30.78s-.06,0-.09,0c-.11-.02-.21-.09-.27-.19l-.09-.14c-.06-.1-.08-.22-.05-.33.03-.11.11-.21.21-.26l5.92-3.14.08.14-5.47,3.86c-.07.05-.16.08-.24.08ZM7.92,27.43l-4.81,2.55c-.06.03-.11.09-.13.16s0,.14.03.21l.09.14c.04.06.1.1.17.12.07.01.14,0,.2-.04l4.44-3.14Z" fill="#46bdd5"/>
    <path d="M1.91,28.04s-.1,0-.15-.03c-.11-.04-.2-.13-.24-.23l-.06-.16c-.04-.11-.04-.23,0-.33s.14-.19.25-.23l6.34-2.18.06.15-6.01,2.96c-.06.03-.12.04-.19.04ZM6.91,25.45l-5.15,1.77c-.07.02-.12.07-.15.14-.03.07-.03.14,0,.21l.06.16c.03.07.08.12.15.14.07.03.14.02.21-.01l4.88-2.41Z" fill="#46bdd5"/>
    <path d="M.94,25.12c-.07,0-.14-.02-.21-.05-.1-.06-.17-.15-.2-.27l-.04-.16c-.03-.11,0-.23.06-.33.06-.1.16-.16.28-.18l6.6-1.16.04.16-6.4,1.98s-.08.02-.12.02ZM6.21,23.33l-5.36.94c-.07.01-.13.05-.17.11-.04.06-.05.13-.04.2l.04.16c.02.07.06.13.12.17.06.04.14.04.21.02l5.2-1.61Z" fill="#46bdd5"/>
    <path d="M.44,22.08c-.09,0-.19-.03-.26-.09-.09-.07-.15-.18-.16-.3v-.17c-.02-.12.02-.23.09-.32s.19-.14.3-.14l6.7-.11v.16s-6.62.96-6.62.96c-.02,0-.04,0-.06,0ZM5.86,21.14l-5.44.09c-.07,0-.14.03-.19.09s-.07.12-.07.2v.17c.02.07.05.14.11.18s.13.07.2.05l5.38-.78Z" fill="#46bdd5"/>
    <path d="M7.11,19.09l-6.7-.09c-.12,0-.23-.05-.31-.14-.08-.09-.12-.2-.11-.32v-.17c.02-.12.08-.22.17-.3.09-.07.21-.11.32-.09l6.63.94v.16ZM.43,18.15c-.06,0-.12.02-.16.06-.06.05-.09.11-.1.18v.17c-.02.07,0,.14.05.2.05.05.12.08.19.09l5.44.07-5.39-.76s-.03,0-.04,0Z" fill="#46bdd5"/>
    <path d="M7.42,17.08l-6.6-1.14c-.11-.02-.22-.09-.28-.18-.06-.1-.09-.22-.06-.33l.04-.16c.03-.11.1-.21.2-.27.1-.06.22-.07.33-.04l6.41,1.96-.04.16ZM.92,15.11s-.09.01-.13.03c-.06.04-.11.1-.12.17l-.04.16c-.02.07,0,.14.04.2.04.06.1.1.17.11l5.36.92-5.2-1.59s-.05-.01-.08-.01Z" fill="#46bdd5"/>
    <path d="M8.03,15.15l-6.34-2.16c-.11-.04-.2-.12-.25-.22-.05-.11-.05-.23,0-.33l.06-.16c.04-.11.13-.19.24-.23.11-.04.23-.04.33.02l6.02,2.94-.06.15ZM1.88,12.18s-.06,0-.09.02c-.07.03-.12.08-.15.14l-.06.16c-.03.07-.03.14,0,.21s.08.12.15.14l5.15,1.75-4.89-2.39s-.08-.03-.11-.03Z" fill="#46bdd5"/>
    <path d="M8.93,13.34l-5.93-3.12c-.1-.05-.18-.15-.21-.26-.03-.11-.01-.23.05-.33l.09-.14c.06-.1.16-.17.27-.19.12-.02.23,0,.33.07l5.49,3.85-.08.14ZM3.29,9.44s-.04,0-.05,0c-.07.01-.13.06-.17.12l-.09.14c-.04.06-.05.14-.03.21.02.07.07.13.13.16l4.81,2.53-4.46-3.12s-.1-.05-.15-.05Z" fill="#46bdd5"/>
    <path d="M10.11,11.69l-5.37-4.01c-.09-.07-.15-.17-.17-.29-.01-.12.02-.23.1-.32l.11-.13c.08-.09.18-.14.3-.15.11,0,.23.04.31.12l4.82,4.66-.1.12ZM5.11,6.95s0,0-.01,0c-.07,0-.14.04-.19.09l-.11.13c-.05.06-.07.13-.06.2s.04.14.1.18l4.36,3.26-3.91-3.78s-.11-.07-.18-.07Z" fill="#46bdd5"/>
    <path d="M11.53,10.24l-4.67-4.8c-.08-.08-.12-.19-.12-.31,0-.12.06-.23.15-.3l.13-.11c.09-.07.2-.11.32-.1.12.01.22.07.29.17l4.03,5.35-.12.1ZM7.29,4.78c-.06,0-.12.02-.17.06l-.13.11c-.06.05-.09.11-.09.19,0,.07.02.14.07.19l3.8,3.9-3.27-4.35c-.04-.06-.11-.09-.18-.1,0,0-.02,0-.03,0Z" fill="#46bdd5"/>
    <path d="M13.16,9.04l-3.86-5.47c-.07-.1-.09-.21-.07-.33s.09-.21.19-.27l.14-.09c.1-.06.22-.08.33-.05.11.03.21.1.26.21l3.14,5.92-.14.08ZM9.79,2.97s-.09.01-.14.04l-.14.09c-.06.04-.1.1-.12.17-.01.07,0,.14.04.2l3.14,4.44-2.55-4.81c-.03-.06-.09-.11-.16-.13-.02,0-.05,0-.07,0Z" fill="#46bdd5"/>
    <path d="M14.96,8.11l-2.96-6.01c-.05-.1-.06-.23-.02-.33s.13-.2.23-.24l.16-.06c.11-.04.23-.04.34,0,.11.05.19.14.22.25l2.18,6.34-.15.06ZM12.53,1.58s-.07,0-.1.02l-.15.06c-.07.03-.12.08-.14.15-.03.07-.02.14.01.21l2.4,4.88-1.77-5.15c-.02-.07-.07-.12-.14-.15-.03-.02-.07-.02-.11-.02Z" fill="#46bdd5"/>
    <path d="M16.89,7.46l-1.98-6.4c-.03-.11-.02-.23.04-.33.06-.1.15-.17.27-.2l.16-.04c.11-.03.23,0,.33.06.1.06.16.16.18.28l1.16,6.6-.16.04ZM15.47.64s-.04,0-.06,0l-.16.04c-.07.02-.13.06-.17.13-.04.06-.04.14-.02.21l1.61,5.2-.94-5.36c-.01-.07-.05-.13-.11-.17-.04-.03-.09-.04-.14-.04Z" fill="#46bdd5"/>
    <path d="M18.88,7.13l-.96-6.63c-.02-.11.02-.23.09-.32s.18-.15.3-.16h.17c.12-.02.23.02.32.09.09.08.14.19.14.3l.11,6.7h-.16ZM18.51.17s-.01,0-.02,0h-.17c-.07.02-.14.05-.18.11-.05.06-.06.13-.05.2l.78,5.38-.09-5.44c0-.07-.03-.14-.09-.19-.05-.04-.11-.07-.17-.07Z" fill="#46bdd5"/>
    <path d="M21.07,7.13h-.16s.09-6.71.09-6.71c0-.12.05-.23.14-.3.09-.08.2-.12.32-.11h.17c.12.02.22.08.3.17s.1.21.09.32l-.94,6.63ZM21.42.16c-.07,0-.13.02-.18.07-.05.05-.08.12-.09.19l-.07,5.44.76-5.39c.01-.07,0-.14-.05-.2-.05-.06-.11-.09-.18-.1h-.17s-.01-.01-.02-.01Z" fill="#46bdd5"/>
    <path d="M23.07,7.45l-.16-.04,1.14-6.6c.02-.12.09-.22.18-.28.1-.06.22-.08.33-.06l.16.04c.11.03.21.1.27.2.06.1.07.22.04.33l-1.96,6.41ZM24.47.62c-.05,0-.1.01-.14.04-.06.04-.1.1-.11.17l-.92,5.36,1.59-5.2c.02-.07.01-.14-.02-.21s-.1-.11-.17-.12l-.16-.04s-.04,0-.06,0Z" fill="#46bdd5"/>
    <path d="M25,8.09l-.15-.06,2.16-6.34c.04-.11.12-.2.22-.25.11-.05.23-.05.33,0l.16.06c.11.04.19.13.23.24s.04.23-.02.33l-2.94,6.02ZM27.4,1.56s-.07,0-.11.02c-.07.03-.12.08-.14.15l-1.75,5.15,2.39-4.89c.03-.07.04-.14,0-.21-.03-.07-.08-.12-.14-.15l-.16-.06s-.07-.02-.1-.02Z" fill="#46bdd5"/>
    <path d="M26.8,9.02l-.14-.08,3.12-5.93c.05-.1.15-.18.26-.21.11-.03.23-.01.33.05l.14.09c.1.06.17.16.19.27.02.11,0,.23-.07.33l-3.85,5.49ZM30.16,2.94s-.05,0-.07,0c-.07.02-.13.07-.16.13l-2.53,4.81,3.12-4.45c.04-.06.06-.13.04-.2-.01-.07-.06-.13-.12-.17l-.14-.09s-.09-.04-.14-.04Z" fill="#46bdd5"/>
    <path d="M28.43,10.21l-.12-.1,4.01-5.37c.07-.09.18-.15.29-.17.12-.01.23.02.32.1l.13.11c.09.07.14.18.15.3,0,.12-.04.23-.12.31l-4.66,4.82ZM32.66,4.74s-.02,0-.03,0c-.07,0-.14.04-.18.1l-3.26,4.36,3.78-3.91c.05-.05.08-.12.07-.19s-.04-.14-.09-.19l-.13-.11s-.11-.06-.17-.06Z" fill="#46bdd5"/>
    <path d="M29.86,11.65l-.1-.12,4.8-4.67c.08-.08.2-.12.31-.12.12,0,.23.06.3.15l.11.13c.08.09.11.2.1.32-.01.12-.07.22-.17.29l-5.35,4.03ZM34.85,6.9c-.07,0-.13.03-.18.07l-3.9,3.8,4.35-3.27c.06-.04.09-.11.1-.18,0-.07-.01-.14-.06-.2l-.11-.13c-.05-.06-.11-.09-.19-.09h-.01Z" fill="#46bdd5"/>
    <path d="M31.04,13.3l-.08-.14,5.47-3.86c.1-.07.21-.09.33-.07.11.02.21.09.27.19l.09.14c.06.1.08.22.05.33-.03.11-.11.21-.21.26l-5.92,3.14ZM36.67,9.38c-.05,0-.1.02-.15.05l-4.44,3.14,4.81-2.55c.06-.03.11-.09.13-.16s0-.14-.03-.21l-.09-.14c-.04-.06-.1-.1-.17-.12-.02,0-.04,0-.05,0Z" fill="#46bdd5"/>
    <path d="M31.96,15.11l-.06-.15,6.01-2.96c.1-.05.23-.06.33-.02.11.04.2.13.24.23l.06.16c.04.11.04.23,0,.33s-.14.19-.25.23l-6.34,2.18ZM38.09,12.12s-.08,0-.12.03l-4.88,2.4,5.15-1.77c.07-.02.12-.07.15-.14.03-.07.03-.14,0-.21l-.06-.16c-.03-.07-.08-.12-.15-.14-.03-.01-.06-.02-.09-.02Z" fill="#46bdd5"/>
    <path d="M32.57,17.04l-.04-.16,6.4-1.98c.11-.03.23-.02.33.04.1.06.17.15.2.27l.04.16c.03.11,0,.23-.06.33-.06.1-.17.16-.28.18l-6.6,1.16ZM39.06,15.04s-.05,0-.08.01l-5.2,1.61,5.36-.94c.07-.01.13-.05.17-.11.04-.06.05-.13.04-.2l-.04-.16c-.02-.07-.06-.13-.12-.17-.04-.02-.08-.03-.13-.03Z" fill="#46bdd5"/>
    <path d="M32.88,19.04v-.16s6.62-.96,6.62-.96c.12-.02.23.01.32.09.09.07.15.18.16.3v.17c.02.12-.02.23-.09.32s-.19.14-.3.14l-6.7.11ZM39.56,18.08s-.03,0-.04,0l-5.38.78,5.44-.09c.07,0,.14-.03.19-.09s.07-.12.07-.2v-.17c-.02-.07-.05-.14-.11-.18-.05-.04-.1-.06-.16-.06Z" fill="#46bdd5"/>
    <path d="M39.57,22.01s-.04,0-.06,0l-6.63-.94v-.16s6.71.09,6.71.09c.12,0,.23.05.3.14.08.09.12.2.11.32v.17c-.02.12-.08.22-.17.3-.07.06-.17.09-.26.09ZM34.14,21.09l5.39.76c.07,0,.14,0,.2-.06s.09-.11.1-.18v-.17c.02-.07,0-.14-.05-.2s-.12-.08-.19-.08l-5.44-.07Z" fill="#46bdd5"/>
    <path d="M39.08,25.05s-.08,0-.12-.02l-6.41-1.96.04-.16,6.6,1.14c.11.02.22.09.28.18s.09.22.06.33l-.04.16c-.03.11-.1.21-.2.27-.06.04-.14.06-.21.06ZM33.8,23.29l5.2,1.59c.07.02.14.01.21-.02.06-.04.11-.1.12-.17l.04-.16c.02-.07,0-.14-.04-.2-.04-.06-.1-.1-.17-.11l-5.36-.92Z" fill="#46bdd5"/>
    <path d="M38.12,27.98c-.06,0-.13-.01-.18-.04l-6.02-2.94.06-.15,6.34,2.16c.11.04.2.12.25.22s.05.23,0,.33l-.06.16c-.04.11-.13.19-.24.23-.05.02-.1.03-.15.03ZM33.11,25.41l4.89,2.39c.07.03.14.04.21,0,.07-.03.12-.08.15-.14l.06-.16c.03-.07.03-.14,0-.21-.03-.07-.08-.12-.15-.14l-5.15-1.75Z" fill="#46bdd5"/>
    <path d="M36.71,30.72c-.09,0-.17-.03-.24-.08l-5.49-3.85.08-.14,5.93,3.12c.1.05.18.15.21.26.03.11.01.23-.05.33l-.09.14c-.06.1-.16.17-.27.19-.03,0-.06,0-.09,0ZM32.11,27.39l4.45,3.12c.06.04.13.06.2.04.07-.01.13-.06.17-.12l.09-.14c.04-.06.05-.13.03-.21-.02-.07-.07-.13-.13-.16l-4.81-2.53Z" fill="#46bdd5"/>
    <path d="M34.89,33.21c-.11,0-.21-.04-.29-.12l-4.82-4.66.1-.12,5.37,4.01c.09.07.15.17.17.29s-.02.23-.1.32l-.11.13c-.07.09-.18.14-.3.15,0,0-.01,0-.02,0ZM30.8,29.19l3.91,3.78c.05.05.12.07.19.07.07,0,.14-.04.19-.09l.11-.13c.05-.06.07-.13.06-.2,0-.07-.04-.14-.1-.18l-4.36-3.26Z" fill="#46bdd5"/>
    <path d="M32.71,35.38s-.03,0-.05,0c-.12-.01-.22-.07-.29-.16l-4.03-5.35.12-.1,4.67,4.8c.08.08.12.19.12.31,0,.12-.06.22-.15.3l-.13.11c-.08.07-.17.1-.27.1ZM29.23,30.77l3.27,4.35c.04.06.11.09.18.1.07,0,.14-.01.2-.06l.13-.11c.06-.05.09-.11.09-.19s-.02-.14-.07-.19l-3.8-3.9Z" fill="#46bdd5"/>
    <path d="M30.21,37.18s-.07,0-.11-.01c-.11-.03-.21-.11-.26-.21l-3.14-5.92.14-.08,3.86,5.47c.07.09.09.21.07.33-.02.11-.09.21-.19.27l-.14.09c-.07.04-.14.06-.22.06ZM27.43,32.08l2.55,4.81c.03.06.09.11.16.13.07.02.14,0,.21-.03l.14-.09c.06-.04.1-.1.12-.17.01-.07,0-.14-.04-.2l-3.14-4.44Z" fill="#46bdd5"/>
    <path d="M27.47,38.58c-.06,0-.12-.01-.17-.04-.11-.05-.19-.14-.23-.25l-2.18-6.34.15-.06,2.96,6.01c.05.1.06.23.02.33s-.13.2-.23.24l-.16.06c-.05.02-.11.03-.16.03ZM25.45,33.09l1.77,5.15c.02.07.07.12.14.15.07.03.14.03.21,0l.16-.06c.07-.03.12-.08.14-.15.03-.07.02-.14-.01-.21l-2.4-4.88Z" fill="#46bdd5"/>
    <path d="M24.53,39.52c-.08,0-.16-.02-.23-.07-.1-.06-.16-.17-.18-.28l-1.16-6.6.16-.04,1.98,6.4c.03.11.02.23-.04.33-.06.1-.15.17-.27.2l-.16.04s-.07.01-.1.01ZM23.33,33.79l.94,5.36c.01.07.05.13.11.17s.13.05.2.04l.16-.04c.07-.02.13-.06.17-.12.04-.06.04-.14.02-.21l-1.61-5.2Z" fill="#46bdd5"/>
    <path d="M21.49,40c-.1,0-.2-.04-.28-.11-.09-.08-.14-.19-.14-.3l-.11-6.7h.16s.96,6.62.96,6.62c.02.11-.02.23-.09.32-.07.09-.18.15-.3.16h-.17s-.02.01-.03.01ZM21.14,34.14l.09,5.44c0,.07.03.14.09.19.05.05.13.07.2.07h.17c.07-.02.14-.05.18-.11.05-.06.06-.13.05-.2l-.78-5.38Z" fill="#46bdd5"/>
  </g>
</svg>