<?xml version="1.0" encoding="UTF-8"?>
<svg id="_图层_1" data-name="图层 1" xmlns="http://www.w3.org/2000/svg" viewBox="0 0 113.39 113.39">
  <defs>
    <style>
      .cls-1 {
        fill: #0088c0;
      }

      .cls-2 {
        fill: #a1d8ea;
      }

      .cls-3 {
        fill: #46bed6;
      }
    </style>
  </defs>
  <g>
    <path class="cls-2" d="M58.16,103.99h-2.93l1.24-37.89h.45l1.24,37.89ZM55.69,103.54h2l-1-30.51-1,30.51Z"/>
    <path class="cls-2" d="M50.74,103.64l-2.9-.46,7.15-37.23.45.07-4.7,37.62ZM48.38,102.81l1.97.31,3.79-30.29-5.76,29.98Z"/>
    <path class="cls-2" d="M43.47,102.13l-2.79-.91.08-.22,12.81-35.44.43.14-10.53,36.42ZM41.27,100.94l1.9.62,8.48-29.32-10.38,28.71Z"/>
    <path class="cls-2" d="M36.52,99.5l-2.61-1.33,18.31-33.2.4.21-16.1,34.33ZM34.53,97.98l1.78.91,12.96-27.64-14.74,26.73Z"/>
    <path class="cls-2" d="M30.08,95.82l-2.37-1.72,23.28-29.93.37.27-21.27,31.39ZM28.35,94.01l1.62,1.17,17.12-25.27-18.74,24.09Z"/>
    <path class="cls-2" d="M24.28,91.18l-2.07-2.07.17-.16,27.5-25.76.32.32-25.92,27.67ZM22.86,89.11l1.41,1.41,20.87-22.28-22.28,20.87Z"/>
    <path class="cls-2" d="M19.29,85.68l-1.72-2.37.19-.13,31.19-21.14.27.37-29.93,23.28ZM18.21,83.42l1.17,1.62,24.09-18.74-25.27,17.12Z"/>
    <path class="cls-2" d="M15.21,79.47l-1.33-2.61,34.33-16.1.21.4-33.2,18.31ZM14.5,77.07l.91,1.78,26.73-14.74-27.64,12.96Z"/>
    <path class="cls-2" d="M12.16,72.71l-.91-2.79.22-.07,36.2-10.47.14.43-35.66,12.89ZM11.83,70.22l.62,1.9,28.71-10.38-29.32,8.48Z"/>
    <path class="cls-2" d="M10.2,65.54l-.46-2.9,37.62-4.7.07.45-37.23,7.15ZM10.27,63.04l.31,1.97,29.98-5.76-30.29,3.79Z"/>
    <path class="cls-2" d="M9.39,58.16v-2.93h.23s37.66,1.24,37.66,1.24v.45l-37.89,1.24ZM9.84,55.69v2l30.51-1-30.51-1Z"/>
    <path class="cls-2" d="M47.37,55.45l-37.62-4.7.46-2.9.23.04,37,7.11-.07.45ZM10.26,50.35l30.29,3.79-29.98-5.76-.31,1.97Z"/>
    <path class="cls-2" d="M47.68,54l-36.42-10.53.91-2.79.22.08,35.44,12.81-.14.43ZM11.83,43.17l29.32,8.48-28.71-10.38-.62,1.9Z"/>
    <path class="cls-2" d="M48.21,52.62L13.88,36.53l1.33-2.61,33.2,18.31-.21.4ZM14.5,36.31l27.63,12.96-26.73-14.74-.91,1.78Z"/>
    <path class="cls-2" d="M48.95,51.35l-31.39-21.27,1.72-2.37.18.14,29.74,23.13-.27.37ZM18.2,29.97l25.27,17.12-24.09-18.74-1.17,1.62Z"/>
    <path class="cls-2" d="M49.88,50.2l-27.67-25.92,2.07-2.07,25.92,27.67-.32.32ZM22.86,24.27l22.28,20.87-20.87-22.28-1.41,1.41Z"/>
    <path class="cls-2" d="M50.98,49.22l-23.28-29.93,2.37-1.72.13.19,21.14,31.19-.37.27ZM28.35,19.38l18.74,24.09-17.12-25.27-1.62,1.17Z"/>
    <path class="cls-2" d="M52.22,48.41L33.91,15.21l2.61-1.33.1.21,16,34.11-.4.21ZM34.53,15.4l14.74,26.73-12.96-27.64-1.78.91Z"/>
    <path class="cls-2" d="M53.57,47.82l-12.89-35.65,2.79-.91.07.22,10.47,36.2-.43.14ZM41.27,12.45l10.38,28.71-8.48-29.32-1.9.62Z"/>
    <path class="cls-2" d="M55,47.44l-7.15-37.23,2.9-.46,4.7,37.62-.45.07ZM48.38,10.58l5.76,29.98-3.79-30.29-1.97.31Z"/>
    <path class="cls-2" d="M56.92,47.29h-.45l-1.24-37.89h2.93l-1.24,37.89ZM55.69,9.85l1,30.51,1-30.51h-2Z"/>
    <path class="cls-2" d="M58.39,47.44l-.45-.07,4.7-37.62,2.9.46-7.15,37.23ZM63.04,10.27l-3.79,30.29,5.76-29.98-1.97-.31Z"/>
    <path class="cls-2" d="M59.81,47.82l-.43-.14,10.53-36.42,2.79.91-.08.22-12.81,35.44ZM70.22,11.83l-8.48,29.32,10.38-28.71-1.9-.62Z"/>
    <path class="cls-2" d="M61.17,48.41l-.4-.21,16.1-34.33,2.61,1.33-18.31,33.2ZM77.07,14.5l-12.96,27.63,14.74-26.73-1.78-.91Z"/>
    <path class="cls-2" d="M62.41,49.22l-.37-.27,21.27-31.39,2.37,1.72-23.28,29.93ZM83.42,18.21l-17.12,25.27,18.74-24.09-1.62-1.17Z"/>
    <path class="cls-2" d="M63.51,50.2l-.32-.32,25.92-27.67,2.07,2.07-.17.16-27.5,25.76ZM89.11,22.86l-20.86,22.28,22.28-20.86-1.41-1.41Z"/>
    <path class="cls-2" d="M64.44,51.35l-.27-.37,29.93-23.28,1.72,2.37-.19.13-31.19,21.14ZM94.01,28.35l-24.09,18.74,25.27-17.12-1.17-1.62Z"/>
    <path class="cls-2" d="M65.18,52.62l-.21-.4,33.2-18.31,1.33,2.61-34.33,16.1ZM97.98,34.53l-26.73,14.74,27.64-12.96-.91-1.78Z"/>
    <path class="cls-2" d="M65.71,54l-.14-.43,35.66-12.89.91,2.79-.22.07-36.2,10.47ZM100.94,41.27l-28.71,10.38,29.32-8.48-.62-1.9Z"/>
    <path class="cls-2" d="M66.02,55.45l-.07-.45,37.23-7.15.46,2.9-37.62,4.7ZM102.81,48.38l-29.98,5.76,30.29-3.79-.31-1.97Z"/>
    <path class="cls-2" d="M103.99,58.16h-.23s-37.66-1.24-37.66-1.24v-.45l37.89-1.24v2.93ZM73.03,56.69l30.51,1v-2l-30.51,1Z"/>
    <path class="cls-2" d="M103.18,65.54l-.23-.04-37-7.11.07-.45,37.62,4.7-.46,2.9ZM72.83,59.25l29.98,5.76.31-1.97-30.29-3.79Z"/>
    <path class="cls-2" d="M101.22,72.71l-.22-.08-35.44-12.81.14-.43,36.42,10.53-.91,2.79ZM72.23,61.74l28.71,10.38.62-1.9-29.32-8.48Z"/>
    <path class="cls-2" d="M98.17,79.47l-33.2-18.31.21-.4,34.33,16.1-1.33,2.61ZM71.25,64.11l26.73,14.74.91-1.78-27.64-12.96Z"/>
    <path class="cls-2" d="M94.1,85.68l-.18-.14-29.74-23.13.27-.37,31.39,21.27-1.72,2.37ZM69.91,66.3l24.09,18.74,1.17-1.62-25.27-17.12Z"/>
    <path class="cls-2" d="M89.1,91.18l-25.92-27.67.32-.32,27.67,25.92-2.07,2.07ZM68.25,68.25l20.87,22.28,1.41-1.41-22.28-20.87Z"/>
    <path class="cls-2" d="M83.31,95.82l-.13-.19-21.14-31.19.37-.27,23.28,29.93-2.37,1.72ZM66.3,69.91l17.12,25.27,1.62-1.17-18.74-24.09Z"/>
    <path class="cls-2" d="M76.86,99.5l-.1-.21-16-34.11.4-.21,18.31,33.2-2.61,1.33ZM64.11,71.25l12.96,27.63,1.78-.91-14.74-26.73Z"/>
    <path class="cls-2" d="M69.91,102.13l-.07-.22-10.47-36.2.43-.14,12.89,35.65-2.79.91ZM61.74,72.24l8.48,29.32,1.9-.62-10.38-28.7Z"/>
    <path class="cls-2" d="M62.64,103.64l-4.7-37.62.45-.07,7.15,37.23-2.9.46ZM59.25,72.83l3.79,30.29,1.97-.31-5.76-29.98Z"/>
  </g>
  <g>
    <path class="cls-1" d="M55.15,92.94l-2.45-.19,3.17-28.92.56.04-1.27,29.06ZM53.31,92.24l1.3.1.88-19.97-2.18,19.87Z"/>
    <path class="cls-1" d="M49.5,92.26l-2.39-.57,7.65-28.06.54.13-5.8,28.51ZM47.79,91.28l1.27.3,3.99-19.59-5.26,19.29Z"/>
    <path class="cls-1" d="M44.02,90.69l-2.27-.94.12-.26,11.83-26.26.52.21-10.19,27.25ZM42.49,89.46l1.21.5,7-18.72-8.21,18.23Z"/>
    <path class="cls-1" d="M38.86,88.29l-2.1-1.28.16-.24,15.79-24.08.48.29-14.33,25.32ZM37.54,86.83l1.12.68,9.85-17.4-10.96,16.72Z"/>
    <path class="cls-1" d="M34.14,85.11l-1.87-1.6,19.56-21.53.42.36-18.11,22.76ZM33.06,83.47l1,.85,12.45-15.65-13.45,14.8Z"/>
    <path class="cls-1" d="M29.97,81.23l-1.6-1.87,22.69-18.21.36.42-21.45,19.65ZM29.17,79.44l.85.99,14.74-13.5-15.59,12.51Z"/>
    <path class="cls-1" d="M26.46,76.75l-1.29-2.1,25.26-14.43.29.47-24.26,16.05ZM25.95,74.85l.69,1.11,16.67-11.03-17.36,9.92Z"/>
    <path class="cls-1" d="M23.69,71.77l-.95-2.27,27.2-10.3.21.51-26.47,12.06ZM23.48,69.82l.5,1.21,18.19-8.29-18.7,7.08Z"/>
    <path class="cls-1" d="M21.74,66.43l-.58-2.39,28.48-5.92.13.54-28.03,7.77ZM21.84,64.46l.31,1.27,19.26-5.34-19.57,4.07Z"/>
    <path class="cls-1" d="M20.65,60.84l-.2-2.45h.29s28.77-1.39,28.77-1.39l.04.56-28.9,3.29ZM21.05,58.92l.11,1.3,19.87-2.26-19.97.96Z"/>
    <path class="cls-1" d="M49.5,56.42l-29.06-1.27.19-2.45.29.03,28.63,3.14-.04.56ZM21.04,54.62l19.98.87-19.88-2.18-.1,1.31Z"/>
    <path class="cls-1" d="M49.64,55.3l-28.5-5.8.57-2.39.28.08,27.79,7.58-.13.54ZM21.81,49.07l19.59,3.99-19.29-5.26-.3,1.27Z"/>
    <path class="cls-1" d="M49.94,54.21l-27.25-10.19.94-2.28,26.52,11.95-.21.52ZM23.43,43.7l18.72,7-18.22-8.21-.5,1.21Z"/>
    <path class="cls-1" d="M50.41,53.19l-25.32-14.33,1.28-2.1,24.33,15.95-.29.48ZM25.87,38.66l17.4,9.85-16.72-10.96-.68,1.12Z"/>
    <path class="cls-1" d="M51.04,52.25l-22.76-18.11,1.59-1.87,21.53,19.56-.36.42ZM29.07,34.06l15.64,12.45-14.79-13.44-.85,1Z"/>
    <path class="cls-1" d="M51.8,51.42l-19.65-21.45,1.87-1.6,18.21,22.69-.42.36ZM32.95,30.02l13.5,14.74-12.51-15.59-.99.85Z"/>
    <path class="cls-1" d="M52.69,50.72l-16.05-24.26,2.1-1.29,14.43,25.26-.48.29ZM37.42,26.63l11.03,16.67-9.92-17.36-1.11.69Z"/>
    <path class="cls-1" d="M53.67,50.17l-12.06-26.47,2.27-.94,10.3,27.2-.51.21ZM42.36,23.99l8.29,18.19-7.08-18.69-1.21.5Z"/>
    <path class="cls-1" d="M54.73,49.77l-7.77-28.03,2.39-.58,5.92,28.48-.54.13ZM47.65,22.15l5.34,19.27-4.07-19.57-1.27.31Z"/>
    <path class="cls-1" d="M55.84,49.55l-3.29-28.9,2.45-.2,1.39,29.06-.56.04ZM53.17,21.16l2.26,19.86-.96-19.97-1.3.11Z"/>
    <path class="cls-1" d="M57.52,49.55l-.56-.04,1.27-29.06,2.45.19-3.17,28.92ZM58.77,21.04l-.87,19.97,2.18-19.87-1.3-.1Z"/>
    <path class="cls-1" d="M58.63,49.77l-.54-.13,5.8-28.5,2.39.57-7.65,28.06ZM64.32,21.81l-3.99,19.59,5.26-19.29-1.27-.3Z"/>
    <path class="cls-1" d="M59.69,50.15l-.52-.21,10.19-27.25,2.28.94-.12.26-11.83,26.26ZM69.68,23.43l-7,18.73,8.21-18.23-1.21-.5Z"/>
    <path class="cls-1" d="M60.67,50.7l-.48-.29,14.33-25.32,2.1,1.28-.16.24-15.79,24.08ZM74.73,25.87l-9.85,17.4,10.96-16.72-1.12-.68Z"/>
    <path class="cls-1" d="M61.56,51.4l-.42-.36,18.11-22.76,1.87,1.6-19.56,21.53ZM79.33,29.07l-12.45,15.64,13.44-14.8-1-.85Z"/>
    <path class="cls-1" d="M62.33,52.22l-.36-.42,21.45-19.65,1.6,1.87-22.69,18.21ZM83.37,32.95l-14.74,13.5,15.59-12.51-.85-.99Z"/>
    <path class="cls-1" d="M62.96,53.16l-.29-.47,24.26-16.05,1.29,2.1-25.26,14.43ZM86.75,37.42l-16.67,11.03,17.36-9.92-.69-1.11Z"/>
    <path class="cls-1" d="M63.43,54.19l-.21-.51,26.47-12.06.95,2.27-27.2,10.3ZM89.4,42.36l-18.19,8.29,18.69-7.08-.5-1.21Z"/>
    <path class="cls-1" d="M63.74,55.27l-.13-.54,28.03-7.77.58,2.39-28.48,5.92ZM91.24,47.65l-19.26,5.34,19.57-4.07-.31-1.27Z"/>
    <path class="cls-1" d="M63.88,56.39l-.04-.56,28.9-3.29.2,2.45h-.29s-28.77,1.39-28.77,1.39ZM92.23,53.17l-19.86,2.26,19.97-.96-.11-1.3Z"/>
    <path class="cls-1" d="M92.75,60.69l-.29-.03-28.63-3.14.04-.56,29.06,1.27-.19,2.45ZM72.37,57.9l19.87,2.18.1-1.3-19.97-.87Z"/>
    <path class="cls-1" d="M91.68,66.28l-.28-.08-27.79-7.58.13-.54,28.51,5.8-.57,2.39ZM71.99,60.33l19.29,5.26.3-1.27-19.59-3.99Z"/>
    <path class="cls-1" d="M89.75,71.64l-26.52-11.95.21-.52,27.25,10.19-.94,2.28ZM71.23,62.68l18.22,8.21.5-1.21-18.72-7Z"/>
    <path class="cls-1" d="M87.01,76.63l-24.33-15.95.29-.48,25.32,14.33-1.28,2.1ZM70.11,64.88l16.72,10.96.68-1.12-17.4-9.85Z"/>
    <path class="cls-1" d="M83.52,81.12l-21.53-19.56.36-.42,22.76,18.11-1.6,1.87ZM68.67,66.88l14.8,13.44.85-1-15.65-12.45Z"/>
    <path class="cls-1" d="M79.37,85.02l-18.21-22.69.42-.36,19.65,21.45-1.87,1.6ZM66.93,68.63l12.51,15.59.99-.85-13.5-14.74Z"/>
    <path class="cls-1" d="M74.66,88.22l-14.43-25.26.48-.29,16.05,24.26-2.1,1.29ZM64.93,70.08l9.92,17.36,1.11-.69-11.03-16.67Z"/>
    <path class="cls-1" d="M69.5,90.64l-10.3-27.2.51-.21,12.06,26.47-2.27.94ZM62.74,71.21l7.08,18.69,1.21-.5-8.29-18.19Z"/>
    <path class="cls-1" d="M64.03,92.22l-5.92-28.48.54-.13,7.77,28.03-2.39.58ZM60.39,71.97l4.07,19.58,1.27-.31-5.34-19.27Z"/>
    <path class="cls-1" d="M58.39,92.94l-1.39-29.06.56-.04,3.29,28.9-2.45.2ZM57.96,72.37l.96,19.97,1.3-.11-2.26-19.86Z"/>
  </g>
  <g>
    <path class="cls-3" d="M52.66,113.39s-.06,0-.09,0l-.47-.04c-.33-.02-.63-.19-.84-.44s-.3-.59-.25-.91l2.65-18.81.45.04-.26,18.99c0,.33-.15.64-.39.87-.22.2-.51.31-.8.31ZM53.61,96.78l-2.16,15.27c-.03.2.03.41.16.57.13.16.31.26.52.27l.48.04c.21.02.4-.05.56-.19.15-.14.24-.33.24-.54l.21-15.42Z"/>
    <path class="cls-3" d="M44.02,112.07c-.09,0-.18-.01-.27-.03l-.46-.11c-.32-.08-.59-.28-.76-.57-.16-.28-.2-.63-.11-.94l5.56-18.16.44.1-3.22,18.72c-.06.33-.24.61-.52.79-.2.13-.43.2-.66.2ZM47.37,95.8l-4.52,14.75c-.06.2-.04.41.07.58s.27.3.47.35l.46.11c.2.05.41.01.58-.1.17-.11.29-.29.32-.49l2.62-15.2Z"/>
    <path class="cls-3" d="M35.71,109.42c-.15,0-.31-.03-.46-.09l-.44-.18c-.3-.13-.54-.37-.66-.68s-.1-.65.04-.95l8.34-17.06.42.17-6.11,17.98c-.11.31-.34.57-.64.7-.16.07-.32.11-.49.11ZM41.37,93.86l-6.77,13.86c-.09.19-.1.39-.03.59.07.19.22.34.41.42l.44.18c.19.08.4.07.59,0,.19-.09.33-.24.4-.44l4.96-14.6Z"/>
    <path class="cls-3" d="M27.9,105.51c-.22,0-.43-.06-.62-.18l-.41-.25c-.29-.17-.48-.45-.55-.78-.07-.33,0-.66.19-.93l10.9-15.55.39.24-8.85,16.8c-.15.29-.42.51-.74.59-.11.03-.21.04-.32.04ZM35.74,91.01l-8.85,12.63c-.12.17-.16.37-.12.58.04.2.16.37.34.48l.41.25c.18.11.38.14.58.08.2-.05.36-.19.46-.37l7.19-13.65Z"/>
    <path class="cls-3" d="M20.81,100.41c-.28,0-.56-.1-.77-.28l-.36-.31c-.25-.21-.4-.52-.42-.85-.02-.33.11-.65.33-.89l13.2-13.65.34.29-11.37,15.21c-.2.26-.5.43-.82.47-.04,0-.09,0-.13,0ZM30.63,87.31l-10.72,11.09c-.14.15-.22.34-.21.55,0,.21.1.39.26.53l.36.31c.16.13.36.19.56.17.21-.02.39-.13.51-.29l9.23-12.35Z"/>
    <path class="cls-3" d="M14.6,94.28s-.04,0-.05,0c-.33-.01-.64-.17-.85-.42l-.31-.36c-.21-.25-.32-.58-.28-.9.04-.33.21-.63.47-.83l15.17-11.42.29.34-13.61,13.25c-.22.22-.52.34-.83.34ZM26.16,82.86l-12.32,9.27c-.17.12-.27.31-.29.51-.02.21.04.4.17.56l.31.36c.13.16.32.25.53.26.2,0,.4-.07.55-.21l11.05-10.76Z"/>
    <path class="cls-3" d="M9.43,87.25c-.08,0-.16,0-.24-.02-.32-.07-.61-.26-.78-.54l-.25-.41c-.17-.28-.22-.62-.14-.94.09-.32.3-.59.59-.74l16.77-8.91.24.39-15.51,10.96c-.2.14-.44.22-.68.22ZM22.45,77.76l-13.62,7.23c-.18.1-.31.26-.37.46s-.02.41.08.58l.25.41c.11.18.28.3.48.34.2.04.41,0,.58-.12l12.6-8.9Z"/>
    <path class="cls-3" d="M5.41,79.49c-.14,0-.28-.02-.42-.08-.31-.12-.56-.36-.68-.66l-.18-.44c-.13-.3-.12-.65.01-.95s.39-.53.7-.64l17.96-6.17.17.42-17.04,8.39c-.17.08-.35.12-.53.12ZM19.57,72.14l-14.59,5.01c-.2.07-.35.21-.43.4-.08.19-.09.4,0,.59l.18.44c.08.19.23.34.42.41.19.07.4.06.59-.03l13.83-6.82Z"/>
    <path class="cls-3" d="M2.66,71.2c-.21,0-.41-.05-.59-.16-.29-.16-.49-.43-.57-.76l-.11-.46c-.08-.32-.02-.66.16-.93.18-.28.46-.46.79-.52l18.7-3.29.11.44-18.14,5.63c-.11.04-.23.05-.35.05ZM17.61,66.15l-15.19,2.67c-.2.04-.38.15-.49.32-.11.17-.15.38-.1.58l.11.46c.05.2.17.37.35.47.18.1.39.12.59.06l14.73-4.57Z"/>
    <path class="cls-3" d="M1.24,62.59c-.27,0-.53-.09-.74-.26-.26-.21-.42-.5-.45-.84l-.04-.48c-.03-.33.08-.65.31-.9s.54-.39.86-.39l18.99-.32.04.45-18.8,2.72c-.06,0-.12.01-.18.01ZM16.62,59.92l-15.42.26c-.21,0-.4.09-.54.24s-.21.35-.19.56l.04.48c.02.21.11.39.28.52s.36.19.57.15l15.26-2.21Z"/>
    <path class="cls-3" d="M20.17,54.11l-18.99-.25c-.33,0-.64-.15-.87-.39-.22-.25-.33-.56-.31-.9l.04-.47c.03-.33.18-.63.44-.84.26-.21.59-.3.92-.25l18.8,2.65-.03.45ZM1.23,51.44c-.17,0-.33.06-.46.16-.16.13-.26.31-.27.52l-.04.47c-.02.21.05.4.19.56.14.15.33.24.54.24l15.42.21-15.27-2.16s-.07,0-.11,0Z"/>
    <path class="cls-3" d="M21.02,48.43l-18.72-3.22c-.32-.05-.61-.24-.79-.52-.18-.27-.24-.61-.17-.93l.11-.46c.08-.32.28-.6.57-.76.29-.16.62-.2.94-.1l18.16,5.56-.1.44ZM2.62,42.82c-.13,0-.25.03-.37.1-.18.1-.3.27-.35.47l-.11.46c-.05.2-.01.41.1.58.11.17.29.29.49.32l15.2,2.62-14.75-4.52c-.07-.02-.15-.03-.22-.03Z"/>
    <path class="cls-3" d="M22.75,42.95l-17.98-6.11c-.31-.11-.57-.34-.7-.64-.14-.3-.14-.64-.02-.95l.18-.44c.12-.3.37-.55.68-.66.31-.12.65-.1.95.04l17.06,8.34-.17.42ZM5.34,34.53c-.09,0-.18.02-.26.05-.19.07-.34.22-.42.41l-.18.44c-.08.19-.08.4.01.59s.24.33.44.39l14.6,4.96-13.86-6.77c-.1-.05-.21-.08-.32-.08Z"/>
    <path class="cls-3" d="M25.32,37.81l-16.8-8.85c-.29-.15-.51-.42-.59-.74-.09-.32-.04-.66.13-.94l.25-.41c.17-.28.45-.48.78-.55.33-.07.66,0,.93.19l15.55,10.9-.24.39ZM9.33,26.76c-.05,0-.1,0-.15.02-.2.04-.37.16-.48.34l-.25.41c-.11.18-.14.38-.08.58.05.2.19.36.37.46l13.65,7.19-12.63-8.85c-.13-.09-.27-.13-.42-.13Z"/>
    <path class="cls-3" d="M28.66,33.13l-15.21-11.37c-.27-.2-.43-.49-.47-.82-.04-.33.06-.65.28-.91l.31-.36c.22-.25.52-.4.85-.42.32-.01.65.11.89.33l13.65,13.2-.29.34ZM14.47,19.71s-.02,0-.04,0c-.21.01-.39.1-.53.26l-.31.36c-.13.16-.19.36-.17.56s.13.39.29.51l12.35,9.23-11.09-10.72c-.14-.13-.32-.21-.51-.21Z"/>
    <path class="cls-3" d="M32.69,29.04l-13.25-13.61c-.23-.24-.35-.55-.34-.89.01-.33.17-.64.42-.85l.36-.31c.25-.21.58-.31.91-.28.33.04.63.21.82.47l11.42,15.17-.34.29ZM20.66,13.55c-.18,0-.34.06-.48.18l-.36.31c-.16.13-.25.32-.26.53,0,.21.07.4.21.55l10.76,11.05-9.27-12.32c-.12-.16-.31-.27-.51-.29-.03,0-.06,0-.08,0Z"/>
    <path class="cls-3" d="M37.31,25.62l-10.96-15.51c-.19-.27-.26-.6-.19-.93s.26-.6.54-.78l.41-.25c.28-.17.62-.22.94-.13.32.09.58.3.74.59l8.91,16.77-.39.24ZM27.74,8.43c-.14,0-.27.04-.39.11l-.41.25c-.18.11-.3.28-.34.48-.04.2,0,.41.12.58l8.9,12.6-7.23-13.62c-.1-.18-.26-.31-.46-.37-.06-.02-.13-.03-.2-.03Z"/>
    <path class="cls-3" d="M42.41,22.98l-8.39-17.04c-.15-.29-.16-.64-.05-.95s.36-.56.66-.68l.44-.18c.3-.12.65-.12.95.01.3.14.53.39.64.7l6.17,17.96-.42.17ZM35.53,4.49c-.1,0-.19.02-.29.06l-.44.18c-.19.08-.34.23-.41.42-.07.19-.06.4.03.59l6.82,13.83-5.01-14.58c-.07-.2-.21-.35-.4-.43-.1-.04-.2-.07-.3-.07Z"/>
    <path class="cls-3" d="M47.86,21.16l-5.63-18.14c-.1-.32-.06-.65.1-.94.16-.29.44-.49.76-.57l.46-.11c.32-.08.66-.02.94.16.28.18.46.46.52.79l3.29,18.7-.44.11ZM43.84,1.81c-.06,0-.12,0-.18.02l-.46.11c-.2.05-.37.18-.47.36-.1.18-.12.39-.06.58l4.57,14.73-2.67-15.19c-.04-.2-.15-.38-.32-.49-.12-.08-.26-.12-.4-.12Z"/>
    <path class="cls-3" d="M53.53,20.21l-2.72-18.79c-.05-.32.04-.66.25-.92s.51-.42.84-.45l.47-.04c.33-.02.65.09.9.31.24.22.39.54.39.86l.32,18.99-.45.04ZM52.47.47s-.04,0-.06,0l-.47.04c-.21.02-.39.11-.52.28-.13.16-.18.36-.15.57l2.21,15.26-.26-15.42c0-.21-.09-.4-.24-.54-.14-.13-.31-.19-.5-.19Z"/>
    <path class="cls-3" d="M59.73,20.2l-.45-.04.26-18.99c0-.33.15-.64.39-.86.24-.22.57-.33.9-.31l.48.04c.33.02.63.19.84.44s.3.59.25.91l-2.65,18.81ZM60.72.45c-.18,0-.36.07-.5.19-.15.14-.24.33-.24.54l-.21,15.42,2.16-15.27c.03-.2-.03-.41-.16-.57-.13-.16-.31-.26-.52-.27l-.48-.04s-.04,0-.06,0Z"/>
    <path class="cls-3" d="M65.4,21.13l-.44-.1,3.22-18.72c.06-.33.24-.61.52-.79.27-.18.61-.24.93-.17l.46.11c.32.08.59.28.76.57.16.28.2.63.11.94l-5.56,18.16ZM69.36,1.77c-.14,0-.28.04-.41.12-.17.11-.29.29-.32.49l-2.62,15.2,4.52-14.75c.06-.2.04-.41-.07-.58s-.27-.3-.47-.35l-.46-.11c-.06-.01-.12-.02-.17-.02Z"/>
    <path class="cls-3" d="M70.86,22.93l-.42-.17,6.11-17.98c.11-.32.33-.56.64-.7.3-.13.64-.14.95-.02l.44.18c.3.13.54.37.66.68s.1.65-.04.95l-8.34,17.06ZM77.68,4.42c-.1,0-.21.02-.31.07-.19.08-.33.24-.39.44l-4.96,14.6,6.77-13.86c.09-.19.1-.39.03-.59-.07-.19-.22-.34-.41-.42l-.44-.18c-.09-.04-.19-.06-.28-.06Z"/>
    <path class="cls-3" d="M75.96,25.56l-.39-.24,8.85-16.8c.15-.29.42-.51.74-.59.32-.09.66-.04.94.13l.41.25c.28.17.48.46.55.78.07.33,0,.66-.19.93l-10.9,15.55ZM85.48,8.33c-.07,0-.13,0-.2.03-.2.05-.36.19-.46.37l-7.19,13.65,8.85-12.63c.12-.17.16-.37.12-.58-.04-.2-.16-.37-.34-.48l-.41-.25c-.12-.07-.25-.11-.38-.11Z"/>
    <path class="cls-3" d="M80.6,28.96l-.34-.29,11.37-15.21c.2-.26.5-.43.82-.47.33-.04.65.06.91.28l.36.31c.25.21.4.52.42.85.02.33-.11.65-.33.89l-13.2,13.65ZM92.58,13.42s-.06,0-.08,0c-.21.02-.39.13-.51.29l-9.23,12.35,10.72-11.09c.14-.15.22-.34.21-.55s-.1-.39-.26-.53l-.36-.31c-.14-.12-.3-.18-.48-.18Z"/>
    <path class="cls-3" d="M84.64,33.04l-.29-.34,13.61-13.25c.24-.23.56-.35.89-.34.33.01.64.17.85.42l.31.36c.21.25.32.58.28.9-.04.33-.21.63-.47.83l-15.17,11.42ZM98.79,19.56c-.19,0-.38.07-.51.21l-11.05,10.76,12.32-9.28c.17-.12.27-.31.29-.51.02-.21-.04-.4-.17-.56l-.31-.36c-.13-.16-.32-.25-.53-.26h-.03Z"/>
    <path class="cls-3" d="M88,37.7l-.24-.39,15.51-10.96c.27-.19.6-.26.93-.19.32.07.61.26.78.54l.25.41c.17.28.22.62.13.94-.09.32-.3.59-.59.74l-16.77,8.91ZM103.96,26.59c-.15,0-.3.05-.42.14l-12.6,8.9,13.62-7.23c.18-.1.31-.26.37-.46s.02-.41-.08-.58l-.25-.41c-.11-.18-.28-.3-.48-.34-.05-.01-.1-.02-.15-.02Z"/>
    <path class="cls-3" d="M90.58,42.83l-.17-.42,17.04-8.39c.29-.15.64-.16.95-.05.31.12.56.36.68.66l.18.44c.13.3.12.65-.01.95s-.39.53-.7.64l-17.96,6.17ZM107.97,34.35c-.11,0-.22.03-.33.08l-13.83,6.82,14.58-5.01c.2-.07.35-.21.43-.4.08-.19.09-.4,0-.59l-.18-.44c-.08-.19-.23-.34-.42-.41-.08-.03-.17-.05-.26-.05Z"/>
    <path class="cls-3" d="M92.34,48.3l-.11-.44,18.14-5.63c.31-.1.66-.06.94.1.29.16.49.44.57.76l.11.46c.08.32.02.66-.16.93-.18.27-.47.47-.79.52l-18.7,3.29ZM110.72,42.64c-.07,0-.15.01-.22.03l-14.73,4.57,15.19-2.67c.2-.04.38-.15.49-.32.11-.17.15-.38.1-.58l-.11-.46c-.05-.2-.17-.37-.35-.47-.11-.06-.24-.1-.36-.1Z"/>
    <path class="cls-3" d="M93.21,53.98l-.04-.45,18.8-2.72c.33-.05.66.04.92.25.26.21.42.51.45.84l.04.48c.03.33-.08.65-.31.9s-.54.39-.86.39l-18.99.32ZM112.14,51.25s-.07,0-.11,0l-15.26,2.21,15.42-.26c.21,0,.4-.09.54-.24s.21-.35.19-.56l-.04-.48c-.02-.21-.11-.39-.28-.52-.13-.11-.29-.16-.46-.16Z"/>
    <path class="cls-3" d="M112.15,62.4c-.05,0-.11,0-.16-.01l-18.8-2.65.03-.45,18.99.25c.33,0,.64.15.86.39.22.24.33.57.31.9l-.04.48c-.02.33-.19.63-.44.84-.21.17-.48.26-.75.26ZM96.78,59.78l15.27,2.16c.2.02.41-.03.57-.16s.26-.31.27-.52l.04-.48c.02-.21-.05-.4-.19-.56s-.33-.24-.54-.24l-15.42-.21Z"/>
    <path class="cls-3" d="M110.76,71.01c-.12,0-.24-.02-.35-.05l-18.16-5.56.1-.44,18.72,3.22c.32.05.61.24.79.52s.24.61.16.93l-.11.46c-.08.32-.28.59-.57.76-.18.1-.39.16-.59.16ZM95.8,66.01l14.75,4.52c.2.06.4.04.58-.07.18-.1.3-.27.35-.47l.11-.46c.05-.2.01-.41-.1-.58-.11-.17-.29-.29-.49-.32l-15.2-2.62Z"/>
    <path class="cls-3" d="M108.05,79.31c-.18,0-.36-.04-.52-.12l-17.06-8.34.17-.42,17.98,6.11c.32.11.57.33.7.64s.14.64.02.95l-.18.44c-.12.3-.37.54-.68.66-.14.05-.28.08-.42.08ZM93.86,72.02l13.86,6.77c.19.09.39.1.59.03.19-.07.34-.22.42-.41l.18-.44c.08-.19.08-.4-.01-.59-.09-.19-.24-.33-.44-.4l-14.6-4.96Z"/>
    <path class="cls-3" d="M104.06,87.08c-.24,0-.49-.07-.69-.22l-15.55-10.9.24-.39,16.8,8.85c.29.15.51.42.59.74.09.32.04.66-.13.94l-.25.41c-.17.28-.45.48-.77.55-.08.02-.16.02-.24.02ZM91.01,77.64l12.63,8.85c.17.12.37.16.58.12.2-.04.37-.16.48-.34l.25-.41c.11-.18.14-.38.08-.58-.05-.2-.19-.36-.37-.46l-13.65-7.18Z"/>
    <path class="cls-3" d="M98.91,94.13c-.31,0-.61-.12-.83-.34l-13.65-13.2.29-.34,15.21,11.37c.27.2.43.49.47.82s-.06.65-.28.91l-.31.36c-.21.25-.52.4-.85.42-.02,0-.04,0-.06,0ZM87.31,82.75l11.09,10.72c.15.14.34.21.55.21.21-.01.39-.1.53-.26l.31-.36c.13-.16.19-.36.17-.56-.02-.21-.13-.39-.29-.51l-12.35-9.23Z"/>
    <path class="cls-3" d="M92.72,100.29s-.09,0-.13,0c-.33-.04-.62-.2-.82-.47l-11.42-15.18.34-.29,13.25,13.61c.23.24.35.55.34.89-.02.33-.16.64-.42.85l-.36.31c-.22.19-.49.29-.78.29ZM82.86,87.22l9.27,12.32c.12.16.31.27.51.29.21.02.41-.04.56-.17l.36-.31c.16-.13.25-.32.26-.53s-.06-.4-.21-.55l-10.76-11.05Z"/>
    <path class="cls-3" d="M85.64,105.41c-.11,0-.21-.01-.31-.04-.32-.09-.59-.3-.74-.59l-8.91-16.77.39-.24,10.96,15.51c.19.27.26.61.19.93-.07.32-.26.6-.54.78l-.41.25c-.19.12-.41.18-.63.18ZM77.76,90.94l7.23,13.62c.1.18.26.31.46.37.2.05.41.02.58-.08l.41-.25c.18-.11.3-.28.34-.48.04-.2,0-.41-.12-.58l-8.9-12.6Z"/>
    <path class="cls-3" d="M77.85,109.35c-.17,0-.34-.04-.49-.1-.3-.14-.53-.39-.64-.7l-6.17-17.96.42-.17,8.39,17.04c.15.29.16.64.05.95s-.36.56-.66.68l-.44.18c-.15.06-.3.09-.46.09ZM72.14,93.81l5.01,14.58c.07.2.21.35.4.43.19.09.4.09.59,0l.44-.18c.19-.08.34-.23.41-.42.07-.19.06-.4-.03-.59l-6.82-13.83Z"/>
    <path class="cls-3" d="M69.54,112.03c-.23,0-.46-.07-.65-.19-.28-.18-.47-.47-.52-.79l-3.29-18.7.44-.11,5.63,18.14c.1.31.06.66-.1.94-.16.29-.44.49-.76.57l-.46.11c-.09.02-.19.03-.28.03ZM66.15,95.77l2.67,15.19c.04.2.15.38.32.49s.38.15.58.1l.46-.11c.2-.05.37-.17.47-.35.1-.18.12-.39.06-.59l-4.57-14.73Z"/>
    <path class="cls-3" d="M60.91,113.37c-.3,0-.58-.11-.8-.31-.24-.22-.39-.54-.39-.86l-.32-18.99.45-.04,2.72,18.79c.05.33-.04.66-.25.92-.21.26-.51.42-.84.44l-.47.04s-.07,0-.1,0ZM59.92,96.77l.26,15.42c0,.21.09.4.24.54.15.14.36.21.56.19l.47-.04c.21-.02.39-.11.52-.28.13-.16.18-.36.15-.57l-2.21-15.26Z"/>
  </g>
</svg>