<?xml version="1.0" encoding="UTF-8"?>
<svg id="a" data-name="图层 1" xmlns="http://www.w3.org/2000/svg" width="401" height="401" viewBox="0 0 401 401">
  <g>
    <path d="M200.5,400.5c-4.05,0-7.22-5.61-6.86-12.12,2.39-84.52,4.68-121.23,6.86-121.23s4.47,36.71,6.86,121.23c.37,6.51-2.81,12.12-6.86,12.12Z" fill="none" stroke="#d3da7e" stroke-miterlimit="10"/>
    <path d="M127.95,386.88c-3.78-1.47-4.72-7.86-2.03-13.79,32.63-77.94,47.97-111.35,50-110.56,2.03.79-9.04,35.86-37.22,115.53-2,6.2-6.98,10.29-10.75,8.82Z" fill="none" stroke="#d3da7e" stroke-miterlimit="10"/>
    <path d="M65.2,347.86c-2.99-2.74-1.57-9.04,3.07-13.6,58.47-60.84,84.79-86.43,86.4-84.95,1.61,1.47-21.33,30.15-76.27,94.23-4.1,5.06-10.21,7.06-13.2,4.32Z" fill="none" stroke="#d3da7e" stroke-miterlimit="10"/>
    <path d="M20.72,288.72c-1.81-3.64,1.78-9,7.75-11.57,76.41-35.52,110.15-49.83,111.13-47.87.97,1.96-30.74,20.38-105.01,60.2-5.64,3.23-12.06,2.88-13.86-.76Z" fill="none" stroke="#d3da7e" stroke-miterlimit="10"/>
    <path d="M.52,217.43c-.37-4.05,4.9-7.74,11.39-7.97,84.02-5.41,120.64-6.51,120.84-4.33.2,2.18-35.99,7.85-119.58,18.04-6.42.97-12.28-1.69-12.66-5.74Z" fill="none" stroke="#d3da7e" stroke-miterlimit="10"/>
    <path d="M7.33,143.63c1.11-3.91,7.35-5.44,13.49-3.3,80.3,25.44,114.84,37.69,114.24,39.8-.6,2.1-36.39-5.73-117.99-26.55-6.34-1.43-10.85-6.03-9.74-9.94Z" fill="none" stroke="#d3da7e" stroke-miterlimit="10"/>
    <path d="M40.23,77.28c2.44-3.25,8.82-2.41,13.77,1.81,65.72,52.85,93.52,76.81,92.21,78.55-1.31,1.75-31.87-18.55-100.47-67.56-5.4-3.63-7.94-9.56-5.5-12.8Z" fill="none" stroke="#d3da7e" stroke-miterlimit="10"/>
    <path d="M94.77,27.35h0c3.44-2.14,9.09.95,12.19,6.68,42.27,73.12,59.58,105.55,57.72,106.7-1.85,1.15-23.05-28.85-69.38-99.45-3.73-5.34-3.97-11.79-.53-13.93Z" fill="none" stroke="#d3da7e" stroke-miterlimit="10"/>
    <path d="M163.6.58h0c3.98-.75,8.13,4.19,8.96,10.65,13.12,83.52,17.59,120.03,15.44,120.43-2.14.4-11.11-35.27-28.92-117.9-1.55-6.33.54-12.44,4.52-13.18Z" fill="none" stroke="#d3da7e" stroke-miterlimit="10"/>
    <path d="M237.4.57h0c3.98.75,6.07,6.85,4.52,13.18-17.81,82.64-26.78,118.3-28.92,117.9-2.14-.4,2.33-36.91,15.44-120.43.83-6.47,4.98-11.4,8.96-10.65Z" fill="none" stroke="#d3da7e" stroke-miterlimit="10"/>
    <path d="M306.23,27.35c3.44,2.14,3.2,8.59-.53,13.93-46.34,70.59-67.53,100.6-69.38,99.45-1.85-1.15,15.45-33.58,57.72-106.7,3.1-5.73,8.74-8.82,12.19-6.68Z" fill="none" stroke="#d3da7e" stroke-miterlimit="10"/>
    <path d="M360.77,77.28h0c2.44,3.25-.11,9.17-5.5,12.8-68.6,49.02-99.16,69.31-100.47,67.56-1.31-1.75,26.49-25.71,92.21-78.55,4.95-4.22,11.33-5.06,13.77-1.81Z" fill="none" stroke="#d3da7e" stroke-miterlimit="10"/>
    <path d="M393.67,143.63c1.11,3.91-3.4,8.51-9.74,9.94-81.6,20.82-117.4,28.66-117.99,26.55-.6-2.1,33.94-14.36,114.24-39.8,6.14-2.14,12.38-.61,13.49,3.3Z" fill="none" stroke="#d3da7e" stroke-miterlimit="10"/>
    <path d="M400.48,217.43h0c-.37,4.05-6.23,6.71-12.66,5.74-83.58-10.19-119.78-15.86-119.58-18.04.2-2.18,36.82-1.08,120.84,4.33,6.49.23,11.76,3.93,11.39,7.97Z" fill="none" stroke="#d3da7e" stroke-miterlimit="10"/>
    <path d="M380.28,288.72c-1.81,3.64-8.23,3.99-13.86.76-74.27-39.82-105.98-58.24-105.01-60.2.97-1.96,34.72,12.35,111.13,47.87,5.97,2.57,9.56,7.93,7.75,11.57Z" fill="none" stroke="#d3da7e" stroke-miterlimit="10"/>
    <path d="M335.8,347.86c-2.99,2.74-9.11.74-13.2-4.32-54.93-64.07-77.88-92.76-76.27-94.23,1.61-1.47,27.93,24.11,86.4,84.95,4.64,4.56,6.06,10.86,3.07,13.6Z" fill="none" stroke="#d3da7e" stroke-miterlimit="10"/>
    <path d="M273.05,386.88c-3.78,1.47-8.76-2.61-10.76-8.82-28.18-79.68-39.25-114.74-37.22-115.53s17.37,32.62,50,110.56c2.69,5.94,1.74,12.32-2.03,13.79Z" fill="none" stroke="#d3da7e" stroke-miterlimit="10"/>
  </g>
  <g>
    <path d="M200.5,4.62c2.6,0,4.64,3.61,4.41,7.8-1.54,54.34-3.01,77.94-4.41,77.94s-2.87-23.6-4.41-77.94c-.24-4.19,1.8-7.8,4.41-7.8Z" fill="none" stroke="#71b92b" stroke-miterlimit="10"/>
    <path d="M271.56,17.95c2.43.94,3.03,5.05,1.31,8.87-20.98,50.11-30.84,71.59-32.15,71.08-1.31-.51,5.81-23.05,23.93-74.28,1.28-3.99,4.49-6.61,6.91-5.67Z" fill="none" stroke="#71b92b" stroke-miterlimit="10"/>
    <path d="M333.03,56.17c1.92,1.76,1.01,5.81-1.97,8.74-37.59,39.12-54.51,55.56-55.55,54.62-1.03-.95,13.71-19.39,49.03-60.58,2.63-3.25,6.56-4.54,8.49-2.78Z" fill="none" stroke="#71b92b" stroke-miterlimit="10"/>
    <path d="M376.59,114.11c1.16,2.34-1.15,5.78-4.98,7.44-49.12,22.84-70.82,32.04-71.44,30.78-.62-1.26,19.76-13.1,67.51-38.7,3.63-2.08,7.75-1.85,8.91.49Z" fill="none" stroke="#71b92b" stroke-miterlimit="10"/>
    <path d="M396.38,183.93c.24,2.6-3.15,4.98-7.32,5.13-54.02,3.48-77.56,4.18-77.69,2.78-.13-1.4,23.14-5.05,76.88-11.6,4.13-.62,7.9,1.09,8.14,3.69Z" fill="none" stroke="#71b92b" stroke-miterlimit="10"/>
    <path d="M389.71,256.22c-.71,2.51-4.73,3.5-8.67,2.12-51.62-16.35-73.83-24.23-73.45-25.59.38-1.35,23.4,3.69,75.86,17.07,4.07.92,6.97,3.88,6.26,6.39Z" fill="none" stroke="#71b92b" stroke-miterlimit="10"/>
    <path d="M357.48,321.2c-1.57,2.09-5.67,1.55-8.85-1.17-42.25-33.98-60.13-49.38-59.28-50.5s20.49,11.92,64.6,43.44c3.47,2.33,5.11,6.14,3.54,8.23Z" fill="none" stroke="#71b92b" stroke-miterlimit="10"/>
    <path d="M304.06,370.11c-2.21,1.38-5.84-.61-7.83-4.3-27.18-47.01-38.3-67.86-37.11-68.6,1.19-.74,14.82,18.55,44.61,63.94,2.4,3.43,2.55,7.58.34,8.96Z" fill="none" stroke="#71b92b" stroke-miterlimit="10"/>
    <path d="M236.65,396.33c-2.56.48-5.23-2.69-5.76-6.85-8.43-53.69-11.31-77.17-9.93-77.43,1.38-.26,7.14,22.67,18.6,75.8,1,4.07-.35,8-2.91,8.48Z" fill="none" stroke="#71b92b" stroke-miterlimit="10"/>
    <path d="M164.35,396.33c-2.56-.48-3.91-4.41-2.91-8.48,11.45-53.13,17.22-76.06,18.6-75.8,1.38.26-1.5,23.73-9.93,77.43-.53,4.16-3.2,7.33-5.76,6.85Z" fill="none" stroke="#71b92b" stroke-miterlimit="10"/>
    <path d="M96.94,370.11c-2.21-1.38-2.06-5.52.34-8.96,29.79-45.39,43.42-64.68,44.61-63.94s-9.93,21.59-37.11,68.6c-1.99,3.68-5.62,5.67-7.83,4.3Z" fill="none" stroke="#71b92b" stroke-miterlimit="10"/>
    <path d="M43.52,321.2c-1.57-2.09.07-5.9,3.54-8.23,44.11-31.51,63.75-44.56,64.6-43.44.84,1.12-17.03,16.53-59.28,50.5-3.18,2.71-7.28,3.25-8.85,1.17Z" fill="none" stroke="#71b92b" stroke-miterlimit="10"/>
    <path d="M11.29,256.22c-.71-2.51,2.19-5.47,6.26-6.39,52.46-13.39,75.48-18.42,75.86-17.07.38,1.35-21.82,9.23-73.45,25.59-3.94,1.37-7.96.39-8.67-2.12Z" fill="none" stroke="#71b92b" stroke-miterlimit="10"/>
    <path d="M4.62,183.93c.24-2.6,4.01-4.31,8.14-3.69,53.74,6.55,77.01,10.2,76.88,11.6-.13,1.4-23.67.69-77.69-2.78-4.17-.15-7.56-2.52-7.32-5.13Z" fill="none" stroke="#71b92b" stroke-miterlimit="10"/>
    <path d="M24.4,114.11c1.16-2.34,5.29-2.57,8.91-.49,47.75,25.6,68.14,37.45,67.51,38.7-.62,1.26-22.32-7.94-71.44-30.78-3.84-1.65-6.14-5.1-4.98-7.44Z" fill="none" stroke="#71b92b" stroke-miterlimit="10"/>
    <path d="M67.97,56.17c1.92-1.76,5.85-.47,8.49,2.78,35.32,41.19,50.07,59.63,49.03,60.58-1.03.95-17.96-15.5-55.55-54.62-2.98-2.93-3.9-6.98-1.97-8.74Z" fill="none" stroke="#71b92b" stroke-miterlimit="10"/>
    <path d="M129.44,17.96c2.43-.94,5.63,1.68,6.91,5.67,18.11,51.22,25.23,73.77,23.93,74.28-1.31.51-11.17-20.97-32.15-71.08-1.73-3.82-1.12-7.92,1.31-8.87Z" fill="none" stroke="#71b92b" stroke-miterlimit="10"/>
  </g>
  <g>
    <ellipse cx="200.5" cy="135.86" rx="7.82" ry="39.67" fill="none" stroke="#98c734" stroke-miterlimit="10"/>
    <ellipse cx="224.07" cy="140.28" rx="39.65" ry="7.82" transform="translate(12.56 298.87) rotate(-68.91)" fill="none" stroke="#98c734" stroke-miterlimit="10"/>
    <ellipse cx="244.46" cy="152.96" rx="39.6" ry="7.83" transform="translate(-33.09 231.19) rotate(-47.78)" fill="none" stroke="#98c734" stroke-miterlimit="10"/>
    <ellipse cx="258.91" cy="172.18" rx="39.54" ry="7.84" transform="translate(-49.67 134.01) rotate(-26.57)" fill="none" stroke="#98c734" stroke-miterlimit="10"/>
    <ellipse cx="265.47" cy="195.33" rx="39.51" ry="7.85" transform="translate(-16.96 25.45) rotate(-5.32)" fill="none" stroke="#98c734" stroke-miterlimit="10"/>
    <ellipse cx="263.26" cy="219.31" rx="7.85" ry="39.52" transform="translate(-19.95 412.17) rotate(-74.05)" fill="none" stroke="#98c734" stroke-miterlimit="10"/>
    <ellipse cx="252.57" cy="240.87" rx="7.84" ry="39.57" transform="translate(-91.98 296.52) rotate(-52.82)" fill="none" stroke="#98c734" stroke-miterlimit="10"/>
    <ellipse cx="234.85" cy="257.09" rx="7.83" ry="39.63" transform="translate(-99.97 161.46) rotate(-31.65)" fill="none" stroke="#98c734" stroke-miterlimit="10"/>
    <ellipse cx="212.49" cy="265.79" rx="7.82" ry="39.67" transform="translate(-45.04 43.36) rotate(-10.54)" fill="none" stroke="#98c734" stroke-miterlimit="10"/>
    <ellipse cx="188.51" cy="265.79" rx="39.67" ry="7.82" transform="translate(-107.28 402.49) rotate(-79.46)" fill="none" stroke="#98c734" stroke-miterlimit="10"/>
    <ellipse cx="166.15" cy="257.09" rx="39.63" ry="7.83" transform="translate(-139.89 263.63) rotate(-58.35)" fill="none" stroke="#98c734" stroke-miterlimit="10"/>
    <ellipse cx="148.43" cy="240.87" rx="39.57" ry="7.84" transform="translate(-115.4 138.67) rotate(-37.18)" fill="none" stroke="#98c734" stroke-miterlimit="10"/>
    <ellipse cx="137.74" cy="219.31" rx="39.52" ry="7.85" transform="translate(-54.97 46.3) rotate(-15.95)" fill="none" stroke="#98c734" stroke-miterlimit="10"/>
    <ellipse cx="135.53" cy="195.34" rx="7.85" ry="39.51" transform="translate(-71.53 312.18) rotate(-84.68)" fill="none" stroke="#98c734" stroke-miterlimit="10"/>
    <ellipse cx="142.09" cy="172.18" rx="7.84" ry="39.54" transform="translate(-75.46 222.23) rotate(-63.43)" fill="none" stroke="#98c734" stroke-miterlimit="10"/>
    <ellipse cx="156.54" cy="152.96" rx="7.83" ry="39.6" transform="translate(-62.17 144.89) rotate(-42.22)" fill="none" stroke="#98c734" stroke-miterlimit="10"/>
    <ellipse cx="176.93" cy="140.28" rx="7.82" ry="39.65" transform="translate(-38.63 73.06) rotate(-21.09)" fill="none" stroke="#98c734" stroke-miterlimit="10"/>
  </g>
</svg>