<?xml version="1.0" encoding="UTF-8"?>
<svg id="a" data-name="图层 1" xmlns="http://www.w3.org/2000/svg" width="40" height="40" viewBox="0 0 40 40">
  <path d="M18.24,39.14s0,0-.01,0c-.26-.02-.28-.83-.12-4.8.08-1.84.17-4.11.04-4.51-.27.33-1.01,2.51-1.61,4.28-1.28,3.76-1.57,4.46-1.82,4.39-.25-.07-.12-.87.77-4.73.42-1.8.93-4.01.88-4.44-.33.28-1.45,2.28-2.37,3.9-1.94,3.43-2.38,4.1-2.61,3.99-.24-.12.04-.87,1.63-4.5.74-1.69,1.66-3.78,1.69-4.21-.37.22-1.85,1.97-3.04,3.39-2.54,3.02-3.1,3.6-3.31,3.45-.21-.16.2-.85,2.43-4.12,1.05-1.53,2.33-3.42,2.44-3.83-.4.14-2.17,1.6-3.61,2.78-3.06,2.51-3.71,2.98-3.89,2.79-.18-.19.35-.8,3.14-3.6,1.31-1.32,2.93-2.94,3.11-3.33-.42.07-2.43,1.17-4.05,2.07-3.47,1.91-4.2,2.26-4.34,2.03-.14-.22.46-.69,3.75-2.96,1.53-1.06,3.42-2.36,3.67-2.71h0c-.45,0-2.6.71-4.35,1.29-3.77,1.25-4.56,1.45-4.65,1.2-.1-.25.58-.6,4.22-2.22,1.71-.76,3.81-1.69,4.12-1.99-.42-.09-2.68.22-4.51.46-3.95.53-4.76.58-4.8.33-.05-.26.68-.48,4.55-1.4,1.82-.43,4.06-.96,4.43-1.2-.4-.16-2.67-.28-4.51-.37-3.99-.2-4.79-.29-4.79-.56s.81-.36,4.79-.56c1.84-.09,4.11-.21,4.51-.37-.36-.24-2.61-.77-4.43-1.2-3.88-.92-4.6-1.14-4.55-1.4.05-.26.86-.2,4.8.33,1.83.25,4.09.55,4.51.46-.31-.3-2.41-1.23-4.12-1.99-3.65-1.62-4.32-1.97-4.23-2.22.09-.24.88-.04,4.65,1.2,1.75.58,3.9,1.29,4.35,1.29h0c-.25-.35-2.14-1.65-3.67-2.71-3.29-2.27-3.89-2.74-3.75-2.96.14-.22.87.12,4.34,2.03,1.63.9,3.63,2,4.05,2.07-.18-.39-1.8-2.01-3.11-3.33-2.79-2.8-3.32-3.41-3.14-3.6.18-.19.83.28,3.89,2.79,1.44,1.18,3.21,2.63,3.61,2.78-.11-.42-1.4-2.3-2.44-3.83-2.23-3.27-2.64-3.96-2.43-4.12.21-.16.77.42,3.31,3.45,1.2,1.42,2.67,3.17,3.04,3.39-.03-.43-.95-2.51-1.69-4.21-1.59-3.62-1.87-4.38-1.63-4.5.23-.12.67.55,2.61,3.99.92,1.62,2.04,3.62,2.37,3.9.05-.42-.47-2.64-.88-4.44-.9-3.86-1.03-4.66-.77-4.73.25-.07.54.63,1.82,4.39.6,1.77,1.34,3.94,1.61,4.28.13-.41.03-2.67-.04-4.51-.16-3.97-.14-4.78.12-4.8.26-.03.42.71.98,4.64.27,1.85.59,4.14.8,4.51.2-.37.53-2.66.8-4.51.56-3.92.71-4.67.98-4.64.26.02.28.83.12,4.8-.08,1.84-.17,4.11-.04,4.51.27-.33,1.01-2.51,1.61-4.28,1.28-3.76,1.57-4.46,1.82-4.39.25.07.12.87-.77,4.73-.42,1.8-.93,4.01-.88,4.44.33-.28,1.45-2.28,2.37-3.9,1.94-3.43,2.38-4.11,2.61-3.99.24.12-.04.87-1.63,4.5-.74,1.69-1.66,3.78-1.69,4.21.37-.22,1.85-1.97,3.04-3.39,2.54-3.02,3.1-3.6,3.31-3.44.21.16-.2.85-2.43,4.12-1.05,1.53-2.33,3.42-2.44,3.83.4-.14,2.17-1.6,3.61-2.78,3.06-2.51,3.72-2.98,3.89-2.79.18.19-.35.8-3.14,3.6-1.31,1.32-2.92,2.94-3.11,3.33.42-.07,2.43-1.17,4.05-2.07,3.47-1.91,4.2-2.25,4.34-2.03.14.22-.46.69-3.75,2.96-1.53,1.06-3.42,2.36-3.67,2.71h0c.45,0,2.6-.71,4.35-1.29,3.77-1.25,4.56-1.45,4.65-1.2.1.25-.58.6-4.22,2.22-1.71.76-3.81,1.69-4.12,1.99.42.09,2.68-.22,4.51-.46,3.95-.53,4.76-.58,4.8-.33.05.26-.68.48-4.55,1.4-1.82.43-4.06.96-4.43,1.2.4.16,2.67.28,4.51.37,3.99.2,4.79.3,4.79.56s-.81.36-4.79.56c-1.84.09-4.11.21-4.51.37.36.24,2.61.77,4.43,1.2,3.88.92,4.6,1.14,4.55,1.4-.05.26-.86.2-4.81-.33-1.83-.25-4.09-.55-4.51-.46.31.3,2.41,1.23,4.12,1.99,3.65,1.62,4.32,1.97,4.22,2.22-.09.24-.88.04-4.65-1.2-1.75-.58-3.9-1.29-4.35-1.29h0c.25.35,2.14,1.65,3.67,2.71,3.29,2.27,3.89,2.74,3.75,2.96-.14.22-.87-.12-4.34-2.03-1.63-.9-3.63-2-4.05-2.07.18.39,1.8,2.01,3.11,3.33,2.79,2.8,3.32,3.41,3.14,3.6-.18.19-.83-.28-3.89-2.79-1.44-1.18-3.21-2.63-3.61-2.78.11.42,1.4,2.3,2.44,3.83,2.23,3.27,2.64,3.96,2.43,4.12-.21.16-.77-.42-3.31-3.45-1.2-1.42-2.67-3.17-3.04-3.39.03.43.95,2.51,1.69,4.21,1.59,3.62,1.87,4.38,1.63,4.5-.23.12-.67-.55-2.61-3.99-.92-1.62-2.04-3.62-2.37-3.9-.05.42.47,2.64.88,4.44.9,3.86,1.03,4.66.77,4.73-.25.07-.54-.63-1.82-4.39-.6-1.77-1.34-3.94-1.61-4.27-.13.41-.03,2.67.04,4.51.16,3.97.14,4.78-.12,4.8,0,0,0,0-.01,0-.25,0-.41-.77-.97-4.64-.27-1.85-.59-4.13-.8-4.51-.2.37-.53,2.66-.8,4.51-.55,3.86-.71,4.64-.97,4.64ZM18.17,29.6s.01,0,.02,0c.25.05.27.84.1,4.74-.08,1.83-.17,4.08-.05,4.55.2-.44.51-2.63.77-4.42.56-3.91.73-4.71.98-4.71s.42.79.98,4.71c.26,1.79.57,3.98.77,4.42.12-.47.03-2.72-.05-4.55-.16-3.9-.14-4.7.1-4.74.25-.05.56.7,1.83,4.43.58,1.71,1.3,3.82,1.57,4.21.03-.48-.48-2.67-.89-4.45-.88-3.81-1.02-4.6-.78-4.69.24-.09.68.58,2.62,4.01.89,1.58,1.99,3.52,2.34,3.86-.06-.48-.96-2.53-1.7-4.2-1.58-3.59-1.85-4.34-1.64-4.47.22-.13.77.45,3.31,3.46,1.17,1.39,2.61,3.1,3.01,3.37-.15-.46-1.41-2.31-2.44-3.81-2.22-3.24-2.63-3.93-2.44-4.1.19-.17.84.3,3.88,2.8,1.41,1.16,3.14,2.58,3.59,2.77-.23-.43-1.81-2.01-3.09-3.3-2.78-2.79-3.31-3.39-3.15-3.6.15-.2.88.14,4.33,2.04,1.6.88,3.56,1.96,4.04,2.07-.31-.38-2.15-1.64-3.64-2.68-3.25-2.24-3.88-2.74-3.77-2.96.11-.23.89-.02,4.62,1.21,1.74.57,3.87,1.28,4.36,1.29-.37-.31-2.41-1.22-4.07-1.95-3.61-1.6-4.33-1.98-4.26-2.22.07-.24.87-.19,4.75.34,1.82.24,4.05.55,4.54.47-.42-.24-2.59-.75-4.35-1.17-3.86-.91-4.63-1.15-4.61-1.41.02-.25.82-.34,4.73-.54,1.84-.09,4.1-.21,4.56-.37-.45-.16-2.72-.28-4.56-.37-3.91-.2-4.7-.29-4.73-.54-.02-.25.75-.49,4.61-1.41,1.76-.42,3.93-.93,4.35-1.17-.48-.08-2.71.23-4.53.47-3.89.52-4.69.58-4.76.34-.07-.25.65-.62,4.26-2.22,1.66-.74,3.7-1.64,4.07-1.95-.49.02-2.62.72-4.36,1.29-3.73,1.23-4.51,1.43-4.62,1.21-.11-.23.52-.73,3.77-2.96,1.5-1.03,3.34-2.3,3.64-2.67-.47.1-2.44,1.19-4.04,2.07-3.44,1.9-4.17,2.24-4.32,2.04-.15-.2.38-.81,3.15-3.6,1.28-1.29,2.86-2.87,3.09-3.3-.45.19-2.18,1.61-3.59,2.77-3.04,2.5-3.69,2.96-3.88,2.8-.19-.17.22-.86,2.44-4.11,1.03-1.5,2.29-3.35,2.44-3.81-.4.27-1.84,1.98-3.01,3.37-2.53,3.01-3.09,3.59-3.31,3.46-.22-.13.06-.89,1.64-4.47.73-1.67,1.64-3.72,1.7-4.2-.35.34-1.44,2.28-2.34,3.86-1.94,3.43-2.38,4.11-2.62,4.01-.24-.09-.1-.88.78-4.69.41-1.78.92-3.96.89-4.45-.28.39-.99,2.5-1.57,4.21-1.27,3.73-1.58,4.48-1.83,4.43-.25-.05-.27-.84-.1-4.74.08-1.83.17-4.08.05-4.55-.2.44-.51,2.63-.77,4.42-.56,3.91-.73,4.71-.98,4.71s-.42-.79-.98-4.71c-.26-1.79-.57-3.98-.77-4.42-.12.47-.03,2.72.05,4.55.16,3.9.14,4.7-.1,4.74-.25.04-.56-.7-1.83-4.44-.58-1.71-1.3-3.82-1.57-4.21-.03.48.48,2.67.89,4.45.88,3.81,1.02,4.6.78,4.69-.24.09-.68-.58-2.62-4.01-.89-1.58-1.99-3.52-2.34-3.86.06.48.96,2.53,1.7,4.2,1.58,3.59,1.85,4.34,1.64,4.47-.22.13-.77-.45-3.31-3.46-1.17-1.39-2.61-3.1-3.01-3.37.15.46,1.41,2.31,2.44,3.81,2.22,3.24,2.63,3.93,2.44,4.11-.19.17-.84-.3-3.88-2.8-1.41-1.16-3.14-2.58-3.59-2.77.23.43,1.81,2.01,3.09,3.3,2.78,2.79,3.31,3.39,3.15,3.6-.15.2-.88-.14-4.33-2.04-1.6-.88-3.56-1.96-4.04-2.07.31.38,2.14,1.64,3.64,2.67,3.25,2.24,3.88,2.74,3.77,2.96-.11.23-.89.02-4.62-1.21-1.74-.57-3.87-1.28-4.36-1.29.37.31,2.41,1.22,4.07,1.96,3.61,1.6,4.33,1.98,4.26,2.22-.07.24-.87.19-4.76-.34-1.82-.24-4.05-.55-4.53-.47.42.24,2.59.75,4.35,1.17,3.86.91,4.63,1.15,4.61,1.41-.02.25-.82.34-4.73.54-1.84.09-4.1.21-4.56.37.45.16,2.72.28,4.56.37,3.91.2,4.7.29,4.73.54.02.25-.75.49-4.61,1.41-1.76.42-3.93.93-4.35,1.17.48.07,2.71-.23,4.53-.47,3.89-.52,4.69-.58,4.76-.34.07.25-.65.62-4.26,2.22-1.66.74-3.7,1.64-4.07,1.96.49-.02,2.62-.72,4.36-1.29,3.73-1.23,4.51-1.43,4.62-1.21.11.23-.52.73-3.77,2.96-1.5,1.03-3.34,2.3-3.64,2.67.47-.1,2.44-1.19,4.04-2.07,3.44-1.9,4.17-2.24,4.33-2.04.15.2-.38.81-3.15,3.6-1.28,1.29-2.86,2.87-3.09,3.3.45-.19,2.18-1.61,3.59-2.77,3.04-2.5,3.7-2.97,3.88-2.8.19.17-.22.86-2.44,4.1-1.03,1.5-2.29,3.35-2.44,3.81.4-.27,1.84-1.98,3.01-3.37,2.53-3.01,3.09-3.59,3.31-3.46.22.13-.06.89-1.64,4.47-.73,1.67-1.64,3.72-1.7,4.2.35-.34,1.44-2.28,2.34-3.86,1.94-3.43,2.38-4.1,2.62-4.01.24.09.1.88-.78,4.69-.41,1.78-.92,3.97-.89,4.45.28-.39.99-2.5,1.57-4.21,1.23-3.63,1.56-4.44,1.81-4.44Z" fill="#5f3790"/>
  <path d="M19.97,40h0c-.32,0-.49-.74-.8-2.43-.16-.85-.42-2.26-.62-2.28,0,0,0,0,0,0-.2,0-.72,1.33-1.02,2.12-.62,1.61-.93,2.31-1.24,2.24-.31-.06-.34-.82-.34-2.53,0-.86,0-2.3-.19-2.36-.19-.06-.95,1.17-1.4,1.89-.91,1.47-1.34,2.09-1.64,1.98-.3-.11-.19-.86.14-2.55.16-.85.43-2.26.25-2.35-.18-.08-1.14.97-1.72,1.6-1.17,1.28-1.71,1.82-1.98,1.65-.27-.17-.02-.88.6-2.47.32-.8.85-2.15.69-2.27-.16-.11-1.3.74-1.98,1.26-1.39,1.04-2.02,1.48-2.26,1.26-.24-.22.14-.88,1.06-2.35.45-.72,1.21-1.93,1.08-2.08-.14-.15-1.44.5-2.21.88-1.54.76-2.23,1.07-2.42.82-.19-.26.3-.84,1.47-2.11.58-.63,1.55-1.68,1.45-1.85-.1-.17-1.5.22-2.33.46-1.65.47-2.39.65-2.53.36-.14-.29.45-.77,1.83-1.8.69-.51,1.84-1.37,1.77-1.56-.07-.19-1.51-.05-2.37.02-1.72.16-2.48.19-2.56-.11-.09-.31.58-.67,2.13-1.43.77-.38,2.07-1.01,2.03-1.21-.04-.19-1.47-.33-2.33-.41C.79,22.23.03,22.13,0,21.81c-.03-.32.7-.55,2.36-1.02.83-.23,2.22-.62,2.22-.82,0-.2-1.39-.59-2.22-.82C.7,18.68-.02,18.44,0,18.13c.03-.32.79-.42,2.5-.57.86-.08,2.3-.21,2.34-.4.03-.19-1.25-.83-2.02-1.21-1.55-.77-2.22-1.13-2.13-1.44.09-.3.85-.26,2.56-.1.86.08,2.3.22,2.37.03.07-.18-1.08-1.05-1.76-1.56-1.38-1.04-1.97-1.53-1.83-1.81.14-.28.88-.1,2.53.37.83.24,2.23.64,2.33.47.1-.17-.86-1.22-1.44-1.85-1.17-1.28-1.66-1.87-1.47-2.12.19-.25.88.06,2.41.83.78.39,2.08,1.04,2.21.89.14-.15-.63-1.38-1.09-2.12-.9-1.45-1.27-2.11-1.04-2.32.24-.22.87.22,2.25,1.26.68.52,1.82,1.38,1.98,1.26.16-.12-.36-1.47-.68-2.27-.62-1.6-.87-2.31-.6-2.48.27-.17.81.37,1.97,1.65.58.63,1.55,1.7,1.72,1.61.18-.09-.09-1.51-.24-2.35-.32-1.69-.42-2.44-.13-2.55.3-.12.73.52,1.63,1.98.45.73,1.21,1.95,1.39,1.9.19-.05.19-1.49.19-2.35,0-1.72.03-2.48.35-2.53.32-.06.62.64,1.24,2.25.31.8.82,2.13,1.02,2.13h0c.2-.02.46-1.43.62-2.28.32-1.69.49-2.43.81-2.43h0c.32,0,.49.74.8,2.43.16.85.42,2.26.62,2.28,0,0,0,0,0,0,.2,0,.72-1.33,1.02-2.12.62-1.61.93-2.31,1.24-2.24.31.06.34.82.34,2.53,0,.86,0,2.3.19,2.36.18.06.95-1.17,1.4-1.89.91-1.47,1.34-2.1,1.64-1.98.3.11.19.86-.14,2.55-.16.85-.43,2.26-.25,2.35.18.09,1.14-.97,1.72-1.6,1.17-1.28,1.71-1.82,1.98-1.65.27.17.02.88-.6,2.47-.32.8-.85,2.15-.69,2.27.16.11,1.3-.74,1.98-1.26,1.39-1.04,2.02-1.48,2.26-1.26h0c.24.22-.14.88-1.06,2.35-.45.72-1.21,1.93-1.08,2.08.14.15,1.44-.5,2.21-.88,1.54-.76,2.23-1.07,2.42-.82.19.26-.3.84-1.47,2.12-.58.63-1.55,1.68-1.45,1.85.11.17,1.5-.23,2.33-.46,1.65-.47,2.39-.65,2.53-.36.14.29-.45.77-1.83,1.8-.69.51-1.84,1.37-1.77,1.56.07.19,1.51.05,2.37-.02,1.72-.16,2.48-.19,2.56.11.09.31-.58.67-2.13,1.43-.77.38-2.07,1.01-2.03,1.21.04.19,1.47.33,2.33.41,1.72.16,2.47.26,2.5.58.03.32-.7.55-2.36,1.02-.83.23-2.22.62-2.22.82s1.39.59,2.22.82c1.66.47,2.39.71,2.36,1.03-.03.32-.79.42-2.5.57-.86.08-2.3.21-2.34.4-.03.19,1.25.83,2.02,1.21,1.55.77,2.22,1.13,2.13,1.44-.09.3-.85.27-2.56.1-.86-.08-2.3-.22-2.37-.03-.07.18,1.08,1.05,1.76,1.56,1.38,1.04,1.97,1.53,1.83,1.81-.14.28-.88.1-2.53-.37-.83-.24-2.23-.64-2.33-.47-.1.17.86,1.22,1.44,1.85,1.17,1.28,1.66,1.87,1.47,2.12-.19.25-.88-.06-2.41-.83-.78-.39-2.08-1.04-2.21-.89-.14.15.63,1.38,1.09,2.12.9,1.45,1.28,2.11,1.04,2.32-.24.22-.87-.22-2.25-1.26-.68-.52-1.82-1.38-1.98-1.26-.16.12.36,1.47.68,2.27.62,1.6.87,2.31.6,2.48-.27.17-.81-.37-1.97-1.65-.58-.63-1.54-1.7-1.72-1.61-.18.09.09,1.51.24,2.35.32,1.69.42,2.44.13,2.55-.3.11-.73-.52-1.63-1.98-.44-.72-1.17-1.9-1.38-1.9,0,0,0,0-.01,0-.19.05-.19,1.49-.19,2.35,0,1.72-.03,2.48-.35,2.53-.31.06-.62-.64-1.24-2.25-.31-.8-.82-2.13-1.02-2.13h0c-.2.02-.46,1.43-.62,2.28-.32,1.69-.49,2.43-.81,2.43ZM18.55,35.1s.01,0,.02,0c.31.03.48.76.79,2.43.15.8.42,2.28.62,2.28h0c.19,0,.47-1.48.62-2.28.31-1.67.48-2.4.79-2.43.31-.03.61.66,1.22,2.25.29.76.83,2.17,1.02,2.13.19-.03.19-1.54.19-2.35,0-1.7.03-2.45.33-2.54.3-.08.72.54,1.61,1.98.43.69,1.22,1.98,1.4,1.91.18-.08-.09-1.49-.24-2.34-.31-1.67-.42-2.42-.14-2.56.28-.13.8.4,1.94,1.65.55.6,1.57,1.72,1.74,1.62.16-.12-.36-1.45-.67-2.25-.62-1.59-.87-2.31-.62-2.49.24-.18.86.24,2.21,1.26.65.49,1.86,1.41,2.01,1.28.13-.15-.63-1.36-1.08-2.08-.9-1.45-1.28-2.11-1.07-2.34.21-.23.91.08,2.44.85.76.38,2.04,1.02,2.18.88.12-.16-.9-1.28-1.45-1.88-1.14-1.25-1.62-1.82-1.46-2.08.16-.26.9-.08,2.55.39.82.24,2.2.63,2.31.47.09-.17-1.12-1.09-1.77-1.58-1.35-1.02-1.94-1.5-1.82-1.78.11-.29.87-.25,2.57-.09.86.08,2.29.22,2.36.03.05-.19-1.26-.83-2.03-1.22-1.52-.75-2.18-1.12-2.13-1.42.06-.3.81-.4,2.51-.56.86-.08,2.29-.21,2.33-.4,0-.2-1.39-.59-2.22-.83-1.64-.46-2.36-.7-2.36-1.01,0-.31.72-.54,2.36-1,.83-.23,2.22-.62,2.22-.82-.03-.19-1.47-.33-2.33-.41-1.7-.16-2.45-.26-2.5-.56-.06-.3.61-.66,2.13-1.41.78-.38,2.08-1.02,2.03-1.21-.07-.18-1.51-.05-2.36.03-1.7.16-2.46.19-2.57-.1-.11-.29.47-.76,1.83-1.78.65-.49,1.87-1.39,1.78-1.57-.11-.17-1.49.23-2.31.46-1.64.47-2.38.64-2.55.38-.16-.26.32-.83,1.47-2.08.55-.6,1.58-1.72,1.46-1.87-.14-.14-1.42.5-2.18.88-1.53.76-2.23,1.07-2.44.84-.21-.23.16-.88,1.06-2.31.43-.69,1.24-1.98,1.09-2.11h0c-.15-.13-1.36.78-2.02,1.27-1.35,1.01-1.97,1.44-2.21,1.26-.25-.19,0-.9.62-2.49.31-.79.84-2.12.68-2.24-.17-.11-1.19,1.01-1.74,1.62-1.14,1.25-1.67,1.78-1.95,1.64-.28-.14-.17-.89.15-2.56.16-.84.43-2.25.25-2.33-.18-.07-.98,1.21-1.41,1.9-.89,1.44-1.32,2.06-1.61,1.98-.3-.09-.33-.84-.32-2.54,0-.8,0-2.3-.18-2.35,0,0,0,0,0,0-.2,0-.73,1.38-1.02,2.13-.6,1.55-.9,2.24-1.2,2.24,0,0-.01,0-.02,0-.31-.03-.48-.76-.79-2.43-.15-.8-.42-2.28-.62-2.28h0c-.19,0-.47,1.48-.62,2.28-.31,1.67-.48,2.4-.79,2.43-.31.03-.61-.66-1.22-2.25-.29-.76-.83-2.17-1.02-2.13-.19.03-.19,1.54-.19,2.35,0,1.7-.03,2.45-.33,2.54-.3.08-.72-.54-1.61-1.98-.43-.69-1.22-1.98-1.4-1.91-.18.08.09,1.49.24,2.34.31,1.67.42,2.42.14,2.56-.28.14-.8-.4-1.94-1.65-.55-.6-1.57-1.72-1.74-1.62-.16.12.36,1.45.67,2.25.62,1.59.87,2.31.62,2.49-.24.18-.86-.24-2.21-1.26-.65-.49-1.87-1.4-2.01-1.28-.13.15.63,1.36,1.07,2.08.9,1.45,1.28,2.11,1.07,2.34-.21.23-.91-.08-2.44-.85-.76-.38-2.04-1.02-2.18-.88-.12.16.9,1.28,1.45,1.88,1.14,1.25,1.62,1.82,1.46,2.08-.17.26-.9.08-2.55-.39-.82-.24-2.2-.63-2.31-.47-.09.17,1.12,1.09,1.77,1.58,1.35,1.02,1.94,1.5,1.82,1.78-.11.29-.87.25-2.57.09-.86-.08-2.29-.22-2.36-.03-.05.19,1.26.83,2.03,1.22,1.52.75,2.18,1.12,2.13,1.42-.06.3-.81.4-2.51.56-.86.08-2.29.21-2.33.4,0,.2,1.39.59,2.22.83,1.64.46,2.36.7,2.36,1.01,0,.31-.72.54-2.36,1-.83.23-2.22.62-2.22.82.03.19,1.47.33,2.33.41,1.7.16,2.45.26,2.5.56.06.3-.61.66-2.13,1.41-.78.38-2.08,1.02-2.04,1.21.07.18,1.51.05,2.36-.03,1.7-.16,2.46-.19,2.57.1.11.29-.47.76-1.83,1.78-.65.49-1.87,1.39-1.78,1.57.1.17,1.49-.23,2.31-.46,1.64-.47,2.38-.64,2.55-.38.16.26-.32.83-1.47,2.08-.55.6-1.58,1.72-1.46,1.87.14.14,1.42-.5,2.18-.88,1.53-.76,2.23-1.07,2.44-.84.21.23-.16.88-1.06,2.31-.43.69-1.24,1.98-1.09,2.11.15.14,1.36-.78,2.02-1.27,1.35-1.01,1.97-1.44,2.21-1.26.25.19,0,.9-.62,2.49-.31.79-.84,2.12-.68,2.24.17.1,1.19-1.01,1.74-1.61,1.14-1.25,1.67-1.78,1.95-1.64.28.14.17.89-.15,2.56-.16.84-.43,2.25-.25,2.33.18.08.98-1.21,1.41-1.9.89-1.44,1.31-2.06,1.61-1.98.3.08.33.84.32,2.54,0,.81,0,2.3.18,2.35.19.03.74-1.37,1.03-2.13.6-1.55.9-2.24,1.2-2.24Z" fill="#8c71af"/>
  <path d="M20,34.76h0c-.22,0-.29-.54-.44-3.63-.07-1.37-.15-3.05-.27-3.45-.19.37-.58,2-.91,3.34-.72,3.01-.89,3.52-1.11,3.49-.22-.04-.19-.59.23-3.7.18-1.34.4-2.98.36-3.39-.26.33-.94,1.86-1.5,3.11-1.27,2.83-1.53,3.31-1.74,3.23-.21-.08-.07-.62.92-3.58.43-1.28.95-2.86.99-3.27-.31.28-1.27,1.65-2.05,2.77-1.78,2.55-2.12,2.98-2.31,2.86-.19-.12.04-.62,1.57-3.35.66-1.19,1.47-2.64,1.58-3.04-.36.21-1.55,1.39-2.53,2.35-2.23,2.19-2.65,2.55-2.81,2.4-.17-.15.16-.6,2.16-3,.87-1.05,1.94-2.33,2.12-2.7-.39.15-1.78,1.08-2.91,1.84-2.6,1.75-3.08,2.02-3.21,1.85-.14-.18.26-.56,2.67-2.56,1.05-.87,2.34-1.94,2.59-2.27-.41.07-1.95.74-3.2,1.28-2.88,1.25-3.4,1.43-3.5,1.23-.1-.2.36-.5,3.09-2.03,1.19-.67,2.66-1.48,2.97-1.77h0c-.42,0-2.05.37-3.37.68-3.07.7-3.61.79-3.68.57-.06-.21.45-.43,3.41-1.42,1.3-.44,2.9-.97,3.25-1.19-.41-.08-2.08-.01-3.44.04-3.15.13-3.71.11-3.73-.11-.02-.22.52-.34,3.61-.77,1.36-.19,3.03-.43,3.43-.58-.39-.15-2.04-.39-3.38-.58-3.13-.45-3.68-.57-3.65-.79s.58-.24,3.74-.11c1.36.06,3.02.13,3.43.05-.36-.22-1.96-.76-3.26-1.2-2.96-.99-3.47-1.21-3.4-1.42.06-.22.61-.13,3.69.57,1.32.3,2.94.67,3.37.67h0c-.31-.28-1.78-1.1-2.98-1.77-2.73-1.52-3.19-1.82-3.09-2.02.1-.2.62-.01,3.51,1.24,1.25.54,2.78,1.21,3.2,1.28-.25-.34-1.54-1.41-2.59-2.28-2.4-2-2.8-2.38-2.66-2.56.13-.18.62.1,3.21,1.86,1.13.76,2.52,1.7,2.91,1.85-.19-.37-1.25-1.66-2.12-2.71-1.99-2.4-2.32-2.85-2.15-3,.17-.15.59.21,2.81,2.4.97.96,2.17,2.13,2.52,2.35-.11-.4-.92-1.86-1.59-3.04-1.52-2.73-1.75-3.23-1.56-3.35.19-.12.54.31,2.32,2.87.78,1.12,1.74,2.49,2.05,2.77-.04-.41-.56-1.99-.99-3.28-.99-2.96-1.13-3.5-.92-3.58.21-.08.47.4,1.75,3.24.56,1.25,1.25,2.77,1.5,3.1.04-.41-.18-2.05-.37-3.4-.42-3.1-.46-3.65-.24-3.69.23-.04.38.48,1.11,3.5.32,1.33.71,2.96.9,3.33.12-.4.2-2.05.27-3.4.16-3.13.23-3.68.45-3.68h0c.22,0,.29.54.44,3.63.07,1.37.15,3.05.27,3.45.19-.37.58-2,.91-3.34.72-3.01.89-3.52,1.11-3.49.22.04.19.59-.23,3.7-.18,1.34-.4,2.98-.36,3.39.26-.33.94-1.86,1.5-3.11,1.27-2.83,1.53-3.32,1.74-3.23.21.08.07.62-.92,3.58-.43,1.29-.95,2.86-.99,3.27.31-.28,1.27-1.65,2.05-2.77,1.78-2.55,2.13-2.98,2.31-2.86.19.12-.04.62-1.56,3.35-.66,1.19-1.47,2.64-1.58,3.04.36-.21,1.55-1.39,2.53-2.35,2.23-2.19,2.65-2.55,2.81-2.4.17.15-.16.6-2.16,3-.87,1.05-1.94,2.33-2.12,2.7.39-.15,1.78-1.08,2.91-1.84,2.6-1.75,3.08-2.03,3.21-1.85.14.18-.26.56-2.67,2.56-1.05.87-2.34,1.94-2.59,2.27.41-.07,1.95-.74,3.2-1.28,2.88-1.25,3.4-1.43,3.5-1.23.1.2-.36.5-3.09,2.02-1.2.67-2.66,1.48-2.97,1.77h0c.42,0,2.05-.37,3.38-.68,3.06-.7,3.61-.79,3.68-.57.06.21-.45.43-3.41,1.42-1.3.44-2.89.97-3.25,1.19.41.08,2.08.01,3.44-.04,3.15-.13,3.71-.11,3.73.11.02.22-.52.33-3.61.77-1.36.19-3.03.43-3.43.58.39.15,2.04.39,3.38.58,3.13.45,3.67.57,3.65.79h0c-.02.22-.58.24-3.74.11-1.36-.06-3.02-.13-3.43-.05.36.22,1.96.76,3.26,1.2,2.96.99,3.47,1.21,3.4,1.42-.06.22-.61.13-3.69-.57-1.32-.3-2.95-.67-3.37-.67h0c.31.28,1.78,1.1,2.98,1.77,2.73,1.52,3.19,1.82,3.09,2.02-.1.2-.62.01-3.51-1.24-1.25-.54-2.78-1.21-3.2-1.28.25.34,1.54,1.41,2.59,2.28,2.4,2,2.8,2.38,2.67,2.56-.13.18-.62-.1-3.21-1.86-1.13-.76-2.52-1.7-2.91-1.85.19.37,1.25,1.66,2.12,2.71,2,2.4,2.32,2.85,2.15,3-.16.15-.59-.21-2.81-2.4-.97-.96-2.16-2.13-2.52-2.35.11.4.92,1.86,1.59,3.04,1.52,2.73,1.75,3.23,1.56,3.35-.19.12-.54-.31-2.32-2.87-.78-1.12-1.74-2.49-2.05-2.77.04.41.56,1.99.99,3.28.99,2.96,1.13,3.5.92,3.58-.21.08-.47-.4-1.75-3.24-.56-1.25-1.25-2.77-1.5-3.1-.04.41.18,2.05.37,3.4.42,3.1.46,3.65.24,3.69-.22.04-.38-.48-1.11-3.5-.32-1.33-.71-2.96-.9-3.33-.12.4-.2,2.05-.27,3.4-.16,3.13-.23,3.68-.45,3.68ZM19.3,27.43s0,0,.01,0c.22.02.28.6.44,3.68.07,1.3.14,2.89.25,3.35.11-.47.2-2.07.26-3.4.16-3.07.22-3.61.44-3.63.22-.01.39.54,1.11,3.53.31,1.27.68,2.82.87,3.25.02-.48-.19-2.07-.37-3.38-.42-3.05-.45-3.6-.25-3.66.2-.06.48.46,1.75,3.26.54,1.2,1.19,2.65,1.47,3.04-.07-.48-.58-1.99-.99-3.24-.98-2.93-1.12-3.46-.93-3.56.19-.1.56.36,2.32,2.88.75,1.08,1.67,2.39,2.01,2.73-.15-.46-.93-1.85-1.57-3-1.51-2.71-1.74-3.21-1.57-3.34.17-.13.62.25,2.81,2.41.94.93,2.08,2.05,2.48,2.32-.24-.42-1.26-1.65-2.1-2.66-1.98-2.39-2.31-2.84-2.16-3,.14-.16.65.14,3.2,1.86,1.1.74,2.43,1.64,2.87,1.83-.31-.37-1.54-1.39-2.55-2.23-2.37-1.97-2.79-2.38-2.68-2.56.11-.18.63,0,3.48,1.24,1.22.53,2.69,1.17,3.17,1.28-.37-.31-1.77-1.08-2.92-1.72-2.7-1.51-3.2-1.83-3.12-2.03.08-.2.62-.11,3.65.58,1.3.3,2.87.66,3.36.68-.43-.23-1.94-.74-3.18-1.16-2.94-.99-3.49-1.21-3.45-1.43.04-.21.59-.22,3.68-.09,1.34.06,2.96.12,3.44.06-.46-.16-2.07-.39-3.39-.58-3.07-.44-3.6-.55-3.6-.77,0-.21.58-.34,3.65-.77,1.3-.18,2.88-.4,3.34-.55-.48-.07-2.1,0-3.43.05-3.1.13-3.65.11-3.69-.1-.04-.21.51-.44,3.44-1.42,1.25-.42,2.76-.93,3.19-1.16-.49.02-2.06.38-3.35.68-3.03.69-3.58.78-3.65.58-.08-.2.42-.52,3.11-2.02,1.15-.64,2.55-1.42,2.92-1.73-.47.11-1.95.75-3.16,1.28-2.82,1.22-3.38,1.42-3.49,1.24-.11-.18.29-.56,2.68-2.55,1.01-.84,2.24-1.86,2.55-2.23-.44.19-1.77,1.09-2.87,1.83-2.55,1.72-3.06,2.01-3.2,1.86-.15-.16.18-.61,2.16-2.99.84-1.01,1.87-2.24,2.1-2.66-.4.27-1.54,1.39-2.48,2.31-2.19,2.16-2.64,2.54-2.81,2.41-.17-.13.06-.63,1.57-3.33.64-1.15,1.42-2.55,1.58-3.01-.34.34-1.25,1.65-2,2.72-1.76,2.52-2.13,2.98-2.32,2.88-.19-.1-.06-.63.92-3.55.42-1.25.92-2.77.99-3.25-.27.39-.92,1.84-1.46,3.04-1.26,2.81-1.54,3.33-1.74,3.27-.21-.06-.17-.6.24-3.65.18-1.31.39-2.91.37-3.39-.19.43-.56,1.98-.87,3.24-.71,2.95-.89,3.54-1.1,3.54,0,0,0,0-.01,0-.22-.02-.28-.6-.44-3.68-.07-1.3-.14-2.89-.25-3.35-.11.47-.2,2.07-.26,3.39-.16,3.07-.22,3.62-.44,3.63-.22.01-.39-.54-1.11-3.53-.31-1.27-.68-2.82-.87-3.25-.02.48.19,2.07.37,3.38.42,3.05.45,3.6.25,3.66-.21.06-.48-.46-1.75-3.26-.54-1.2-1.19-2.65-1.47-3.04.07.48.58,1.99.99,3.24.98,2.93,1.12,3.46.93,3.56-.19.09-.56-.36-2.32-2.88-.75-1.08-1.67-2.39-2.01-2.73.15.46.93,1.85,1.57,3,1.51,2.71,1.74,3.21,1.57,3.33-.17.13-.62-.26-2.81-2.41-.94-.93-2.08-2.05-2.48-2.32.24.42,1.26,1.65,2.1,2.66,1.98,2.39,2.31,2.84,2.16,3-.14.16-.65-.14-3.2-1.86-1.1-.74-2.43-1.64-2.87-1.83.31.37,1.54,1.39,2.55,2.23,2.37,1.97,2.8,2.38,2.68,2.56-.11.18-.63,0-3.48-1.24-1.21-.53-2.69-1.17-3.17-1.28.37.31,1.77,1.08,2.92,1.72,2.7,1.51,3.19,1.83,3.12,2.03-.08.2-.62.11-3.65-.58-1.3-.3-2.87-.66-3.36-.68.43.23,1.94.74,3.18,1.16,2.94.99,3.49,1.21,3.45,1.43-.04.21-.59.22-3.68.09-1.34-.06-2.96-.12-3.44-.06.46.16,2.07.39,3.39.58,3.07.44,3.6.55,3.6.77,0,.21-.58.34-3.65.77-1.3.18-2.88.4-3.34.55.48.07,2.1,0,3.42-.05,3.1-.13,3.65-.11,3.69.1.04.21-.51.44-3.44,1.42-1.25.42-2.76.93-3.18,1.16.49-.02,2.06-.38,3.35-.68,3.03-.69,3.58-.78,3.65-.58.08.2-.39.5-3.11,2.02-1.15.64-2.55,1.42-2.92,1.73.47-.11,1.95-.75,3.16-1.28,2.82-1.22,3.38-1.42,3.49-1.24.11.18-.29.56-2.68,2.55-1.01.84-2.24,1.86-2.55,2.23.44-.19,1.77-1.09,2.87-1.83,2.55-1.72,3.06-2.01,3.2-1.86.15.16-.18.61-2.16,2.99-.84,1.01-1.87,2.24-2.1,2.66.4-.27,1.54-1.39,2.48-2.31,2.19-2.15,2.64-2.54,2.81-2.41.17.13-.06.63-1.57,3.33-.64,1.15-1.42,2.55-1.58,3.01.34-.34,1.25-1.65,2-2.72,1.76-2.52,2.13-2.98,2.32-2.89.19.1.06.63-.92,3.55-.42,1.25-.93,2.77-.99,3.25.27-.39.92-1.85,1.46-3.04,1.26-2.81,1.54-3.33,1.74-3.27.21.06.17.6-.24,3.65-.18,1.31-.39,2.91-.37,3.38.19-.44.56-1.98.87-3.24.71-2.95.89-3.54,1.1-3.54Z" fill="#b097c6"/>
  <path d="M20.66,27.39c-.16,0-.24-.24-.43-.91-.07-.25-.17-.62-.24-.74-.07.12-.18.49-.25.74-.2.68-.28.93-.44.91-.16-.02-.2-.26-.26-.97-.02-.26-.06-.64-.1-.77-.09.11-.26.45-.38.68-.32.64-.44.85-.6.81-.16-.05-.15-.3-.08-1,.02-.26.06-.64.04-.78-.11.09-.34.39-.5.6-.43.57-.6.76-.74.69-.15-.07-.09-.32.11-1,.07-.25.18-.62.18-.76-.13.07-.41.32-.6.5-.53.48-.73.64-.86.54-.13-.1-.03-.33.29-.96.12-.24.29-.58.32-.72-.14.04-.46.24-.68.38-.61.38-.84.5-.95.37-.11-.12.03-.33.46-.9.16-.21.39-.51.44-.64-.14.02-.5.16-.75.25-.66.26-.9.33-.99.19-.09-.14.09-.32.62-.8.19-.17.47-.43.55-.55-.14,0-.52.06-.78.11-.7.13-.95.16-1.01,0-.06-.15.15-.3.76-.67.22-.14.55-.33.65-.44-.14-.03-.52-.03-.78-.04-.71,0-.97-.02-.99-.18-.03-.16.2-.27.87-.52.25-.09.6-.23.72-.31-.13-.06-.5-.13-.76-.18-.7-.13-.95-.19-.95-.36,0-.16.25-.22.95-.35.26-.05.63-.12.76-.17-.12-.08-.47-.22-.72-.31-.67-.26-.9-.36-.87-.52.03-.16.28-.18,1-.17.26,0,.64,0,.78-.03-.1-.1-.42-.3-.65-.44-.61-.37-.82-.52-.76-.67.06-.15.31-.12,1.01.01.26.05.64.12.78.11-.08-.12-.36-.37-.55-.55-.53-.48-.71-.66-.62-.8.09-.14.33-.06.99.2.25.1.6.24.75.25-.06-.13-.28-.43-.44-.64-.43-.57-.57-.78-.46-.9.11-.12.33,0,.93.37.23.14.55.34.69.39-.03-.14-.2-.48-.32-.72-.32-.63-.42-.86-.28-.96.13-.1.33.06.86.54.19.18.47.43.6.5,0-.14-.11-.51-.18-.76-.2-.68-.25-.93-.1-1,.15-.07.31.12.74.69.16.21.39.51.5.6.02-.14-.01-.52-.04-.78-.07-.71-.07-.96.08-1,.16-.04.28.18.6.81.12.23.28.57.38.68.05-.13.08-.51.11-.77.07-.71.1-.96.27-.97.16-.02.25.22.44.91.07.25.17.62.24.74.07-.12.18-.49.25-.74.2-.68.28-.92.44-.91.16.02.2.26.26.97.02.26.06.64.1.77.09-.11.26-.45.38-.68.32-.64.44-.85.6-.81.16.05.15.3.08,1-.02.26-.06.64-.04.78.11-.09.34-.39.5-.6.43-.57.59-.76.74-.69.15.07.09.32-.11,1-.07.25-.18.62-.18.76.13-.07.41-.32.6-.5.53-.48.73-.64.86-.54.13.1.03.33-.29.96-.12.24-.29.58-.32.72.14-.04.46-.24.68-.38.61-.38.83-.5.95-.37h0c.11.12-.03.33-.47.9-.16.21-.39.51-.44.64.14-.02.5-.16.75-.25.66-.26.9-.33.99-.19.09.14-.09.32-.62.8-.19.17-.47.43-.55.55.14,0,.52-.06.78-.11.7-.13.95-.16,1.01,0,.06.15-.15.3-.76.67-.22.14-.55.33-.65.44.14.03.52.03.78.04.71,0,.96.02.99.18.03.16-.2.27-.87.52-.24.09-.6.23-.72.31.13.06.5.13.76.18.7.13.95.19.95.36,0,.16-.25.22-.95.35-.26.05-.63.12-.76.17.12.08.47.22.72.31.67.26.9.36.87.52s-.28.18-1,.17c-.26,0-.64,0-.78.03.1.1.42.3.65.44.61.37.82.52.76.67-.06.15-.31.12-1.01-.01-.26-.05-.63-.12-.78-.11.08.12.36.37.55.55.53.48.71.66.62.8-.09.14-.33.06-.99-.2-.25-.1-.6-.24-.75-.25.06.13.28.43.44.64.43.57.57.78.46.9-.11.12-.33,0-.93-.37-.23-.14-.55-.34-.69-.39.03.14.2.48.32.72.32.63.42.86.28.96-.13.1-.33-.06-.86-.54-.19-.18-.47-.43-.6-.5,0,.14.11.51.18.76.2.68.25.93.1,1-.15.07-.31-.12-.74-.69-.16-.21-.39-.51-.5-.6-.02.14.01.52.04.78.07.71.07.96-.08,1-.16.04-.28-.17-.6-.81-.12-.23-.28-.57-.38-.68-.05.13-.08.51-.11.77-.07.71-.1.96-.27.97,0,0,0,0-.01,0ZM19.99,25.52h0c.16,0,.24.24.43.91.07.24.16.59.24.72.04-.15.08-.5.1-.75.07-.7.1-.94.26-.97.15-.03.28.19.59.81.11.23.27.55.37.67.02-.15-.02-.51-.04-.76-.06-.7-.07-.95.07-1,.15-.06.31.13.73.69.15.2.37.49.48.59-.01-.15-.11-.5-.18-.73-.19-.68-.25-.92-.11-1,.13-.08.32.07.84.54.19.17.45.41.59.49-.04-.15-.2-.47-.31-.69-.32-.63-.42-.86-.3-.97.12-.11.34.01.94.39.21.13.51.32.66.37-.07-.14-.29-.43-.44-.63-.42-.56-.56-.76-.46-.89.1-.13.33-.05.99.21.23.09.56.22.72.25-.09-.13-.36-.37-.54-.54-.52-.47-.69-.65-.62-.79.07-.14.32-.11,1.01.02.24.05.59.11.75.11h0c-.11-.11-.42-.29-.63-.43-.6-.37-.8-.51-.76-.66.04-.15.29-.16,1-.16.25,0,.61,0,.76-.03-.13-.08-.47-.21-.7-.3-.65-.25-.88-.35-.87-.51.01-.16.26-.21.95-.34.25-.05.6-.11.74-.17-.15-.06-.5-.12-.74-.17-.69-.13-.93-.19-.95-.34-.01-.16.21-.26.87-.51.23-.09.57-.22.7-.3-.15-.03-.51-.03-.76-.03-.7,0-.95-.01-1-.17-.04-.15.16-.29.76-.66.21-.13.52-.32.64-.42h0c-.16,0-.5.06-.75.11-.69.13-.94.16-1.01.02-.07-.14.11-.32.62-.78.19-.17.45-.41.55-.54-.15.03-.48.16-.72.25-.66.25-.9.33-.99.21-.09-.12.04-.33.47-.88.15-.2.37-.49.44-.63-.15.05-.46.24-.67.38-.59.37-.81.48-.93.38-.12-.11-.02-.34.3-.96.11-.22.27-.54.31-.69-.13.08-.4.32-.59.49-.52.47-.71.62-.84.54-.13-.08-.08-.33.12-1,.07-.24.17-.58.18-.73-.12.1-.33.39-.49.59-.42.56-.58.75-.73.69-.15-.06-.14-.31-.07-1,.02-.25.06-.6.04-.76-.1.12-.26.44-.37.67-.31.63-.43.84-.59.81-.15-.03-.19-.28-.25-.97-.02-.25-.05-.6-.1-.75-.07.14-.17.48-.24.72-.19.67-.27.91-.43.91h0c-.16,0-.24-.24-.43-.91-.07-.24-.16-.59-.24-.72-.04.15-.08.5-.1.75-.07.7-.1.94-.26.97-.15.03-.28-.19-.59-.81-.11-.23-.27-.55-.37-.67-.02.15.02.51.04.76.06.7.07.95-.07,1-.15.06-.31-.13-.73-.69-.15-.2-.37-.49-.48-.59.01.15.11.5.18.73.19.68.25.92.11,1-.13.08-.32-.08-.84-.54-.19-.17-.45-.41-.59-.49.04.15.2.47.31.69.32.63.42.86.3.97-.12.11-.34-.01-.94-.39-.21-.13-.51-.32-.66-.37.07.14.29.43.44.63.42.56.56.76.46.89-.1.13-.33.05-.99-.21-.23-.09-.56-.22-.72-.25.09.13.36.37.54.54.52.47.69.65.62.79-.07.14-.32.11-1.01-.02-.24-.05-.59-.11-.75-.11h0c.12.11.42.29.63.43.6.37.8.51.76.66-.04.15-.29.17-1,.16-.25,0-.61,0-.76.03.13.08.47.21.7.3.65.25.88.35.87.51-.01.16-.26.21-.95.34-.25.05-.6.11-.74.17.15.06.5.12.74.17.69.13.93.19.95.34.01.16-.21.26-.87.51-.23.09-.57.22-.7.3.15.03.51.03.76.03.7,0,.95.01,1,.17.04.15-.16.29-.76.66-.21.13-.52.32-.64.42.15,0,.51-.06.75-.11.69-.13.94-.16,1.01-.02.07.14-.11.32-.62.78-.19.17-.45.41-.55.54.15-.03.48-.16.72-.25.66-.25.9-.33.99-.21.09.12-.05.33-.47.88-.15.2-.37.49-.44.63.15-.05.46-.24.67-.38.59-.36.81-.48.93-.38.12.11.02.34-.3.96-.11.22-.27.54-.31.69.13-.08.4-.32.59-.49.52-.47.71-.62.84-.54.13.08.08.33-.12,1-.07.24-.17.58-.18.73.12-.1.33-.39.49-.59.42-.56.58-.74.73-.69.15.06.14.31.07,1-.02.25-.06.6-.04.76.1-.12.26-.44.37-.67.31-.63.43-.84.59-.81.15.03.19.28.25.97.02.25.05.6.1.75.07-.14.17-.48.24-.72.19-.67.27-.91.43-.91Z" fill="#cdb9d9"/>
</svg>