<?xml version="1.0" encoding="UTF-8"?>
<svg id="a" data-name="图层 1" xmlns="http://www.w3.org/2000/svg" width="401" height="401" viewBox="0 0 401 401">
  <path d="M393.41,200.5c0,4.53-93.45,4.77-93.85,9.2-.41,4.5,91.42,21.69,90.6,26.06-.83,4.44-92.73-12.4-93.95-8.11-1.24,4.34,85.83,38.12,84.21,42.28-1.63,4.2-88.82-29.29-90.82-25.29-2.02,4.02,77.29,53.24,74.92,57.04-2.38,3.82-81.89-45.08-84.6-41.51-2.72,3.58,66.18,66.45,63.14,69.76-3.04,3.31-72.22-59.24-75.55-56.22-3.32,3.02,52.87,77.37,49.28,80.08-3.59,2.7-60.11-71.4-63.95-69.03-3.82,2.36,37.73,85.71,33.69,87.72s-45.88-81.2-50.09-79.57c-4.18,1.61,21.2,91.18,16.84,92.41-4.31,1.22-29.99-88.26-34.44-87.43-4.39.81,3.93,93.5-.59,93.92s-13.2-92.25-17.75-92.25c-4.55,0-13.31,92.65-17.75,92.25-4.52-.41,3.81-93.1-.59-93.92-4.46-.82-30.14,88.65-34.44,87.43-4.35-1.23,21.02-90.79,16.84-92.41-4.22-1.63-46.08,81.57-50.09,79.57-4.04-2.01,37.51-85.36,33.69-87.72-3.83-2.37-60.36,71.73-63.95,69.03-3.59-2.71,52.6-77.06,49.28-80.08-3.33-3.02-72.51,59.53-75.55,56.22-3.03-3.31,65.86-66.18,63.14-69.76-2.71-3.57-82.22,45.32-84.6,41.51-2.37-3.8,76.94-53.02,74.92-57.04-2-4-89.19,29.48-90.82,25.29-1.62-4.16,85.45-37.94,84.21-42.28-1.22-4.29-93.12,12.55-93.95,8.11-.82-4.38,91.02-21.56,90.6-26.06-.41-4.42-93.85-4.67-93.85-9.2,0-4.53,93.45-4.77,93.85-9.2.41-4.5-91.42-21.69-90.6-26.06.83-4.44,92.73,12.4,93.95,8.11,1.24-4.34-85.83-38.12-84.21-42.28,1.63-4.2,88.82,29.29,90.82,25.29,2.02-4.02-77.29-53.24-74.92-57.04,2.38-3.82,81.89,45.08,84.6,41.51,2.72-3.58-66.18-66.45-63.14-69.76,3.04-3.31,72.22,59.24,75.55,56.22,3.32-3.02-52.87-77.37-49.28-80.08,3.59-2.7,60.11,71.4,63.95,69.03,3.82-2.36-37.73-85.71-33.69-87.72,4.02-1.99,45.88,81.2,50.09,79.57,4.18-1.61-21.2-91.18-16.84-92.41,4.31-1.22,29.99,88.26,34.44,87.43,4.39-.81-3.93-93.5.59-93.92,4.44-.4,13.2,92.25,17.75,92.25,4.55,0,13.31-92.65,17.75-92.25,4.52.41-3.81,93.1.59,93.92,4.46.82,30.14-88.65,34.44-87.43,4.35,1.23-21.02,90.79-16.84,92.41,4.22,1.63,46.08-81.57,50.09-79.57,4.04,2.01-37.51,85.36-33.69,87.72,3.83,2.37,60.36-71.73,63.95-69.03,3.59,2.71-52.6,77.06-49.28,80.08,3.33,3.02,72.51-59.53,75.55-56.22,3.03,3.31-65.86,66.18-63.14,69.76,2.71,3.57,82.22-45.32,84.6-41.51,2.37,3.8-76.94,53.02-74.92,57.04,2,4,89.19-29.48,90.82-25.29,1.62,4.16-85.45,37.94-84.21,42.28,1.22,4.29,93.12-12.55,93.95-8.11.82,4.38-91.02,21.56-90.6,26.06.41,4.42,93.85,4.67,93.85,9.2Z" fill="none" stroke="#5f3790" stroke-miterlimit="10"/>
  <path d="M336.02,52.9c4.07,3.71-25.18,40.49-21.54,44.47,3.71,4.06,43.21-21.51,46.47-17.19,3.31,4.37-32.22,35.18-29.37,39.78,2.89,4.65,46.45-13.2,48.86-8.35,2.44,4.9-38.21,28.62-36.25,33.68,1.97,5.09,48.09-4.44,49.57.78,1.49,5.25-42.85,21.11-41.86,26.46.99,5.36,48.09,4.41,48.58,9.82.49,5.42-46,12.94-46.01,18.39,0,5.44,46.47,13.08,45.96,18.5-.51,5.41-47.6,4.34-48.61,9.69-1,5.34,43.28,21.34,41.78,26.58-1.49,5.21-47.58-4.48-49.57.62-1.97,5.05,38.58,28.92,36.13,33.81-2.43,4.84-45.92-13.18-48.83-8.53-2.87,4.58,32.57,35.5,29.23,39.87-3.27,4.29-42.71-21.37-46.43-17.31-3.73,4.06,25.46,40.88,21.46,44.51-4.07,3.7-38.16-28.69-42.49-25.44-4.39,3.3,17.51,44.83,12.89,47.68-4.67,2.88-32.17-35.22-37.04-32.82-4.92,2.43,8.89,47.28,3.81,49.23-5.11,1.96-25.07-40.54-30.32-39.07-5.27,1.48,0,48.1-5.36,49.08-5.38.99-17.17-44.43-22.61-43.94-5.44.49-8.82,47.29-14.28,47.28-5.46,0-8.72-46.81-14.16-47.32-5.43-.51-17.34,44.89-22.72,43.88-5.36-1,.06-47.6-5.21-49.1-5.24-1.49-25.33,40.94-30.45,38.96-5.07-1.96,8.9-46.76,3.99-49.21-4.86-2.42-32.49,35.58-37.16,32.68-4.6-2.85,17.44-44.31,13.05-47.63-4.31-3.26-38.48,29.04-42.55,25.33-4.07-3.71,25.18-40.49,21.54-44.47-3.71-4.06-43.21,21.51-46.47,17.19-3.31-4.37,32.22-35.18,29.37-39.78-2.89-4.65-46.45,13.2-48.86,8.35-2.44-4.9,38.21-28.62,36.25-33.68-1.97-5.09-48.09,4.44-49.57-.78-1.49-5.25,42.85-21.11,41.86-26.46-.99-5.36-48.09-4.41-48.58-9.82-.49-5.42,46-12.94,46.01-18.39,0-5.44-46.47-13.08-45.96-18.5.51-5.41,47.6-4.34,48.61-9.69,1-5.34-43.28-21.34-41.78-26.58,1.49-5.21,47.58,4.48,49.57-.62,1.97-5.05-38.58-28.92-36.13-33.81,2.43-4.84,45.92,13.18,48.83,8.53,2.87-4.58-32.57-35.5-29.23-39.87,3.27-4.29,42.71,21.37,46.43,17.31,3.73-4.06-25.46-40.88-21.46-44.51,4.07-3.7,38.16,28.69,42.49,25.44,4.39-3.3-17.51-44.83-12.89-47.68,4.67-2.88,32.17,35.22,37.04,32.82,4.92-2.43-8.89-47.28-3.81-49.23,5.11-1.96,25.07,40.54,30.32,39.07,5.27-1.48,0-48.1,5.36-49.08,5.38-.99,17.17,44.43,22.61,43.94,5.44-.49,8.82-47.29,14.28-47.28,5.46,0,8.72,46.81,14.16,47.32,5.43.51,17.34-44.89,22.72-43.88,5.36,1-.06,47.6,5.21,49.1,5.24,1.49,25.33-40.94,30.45-38.96,5.07,1.96-8.9,46.76-3.99,49.21,4.86,2.42,32.49-35.58,37.16-32.68,4.6,2.85-17.44,44.31-13.05,47.63,4.31,3.26,38.48-29.04,42.55-25.33Z" fill="none" stroke="#8c71af" stroke-miterlimit="10"/>
  <path d="M348.39,214.18c-.32,3.46-71.98-2.98-72.61.36-.64,3.41,68.54,23.04,67.61,26.32-.95,3.33-70.21-16.04-71.45-12.86s63.09,35.19,61.55,38.25c-1.55,3.09-66.01-28.66-67.83-25.75-1.83,2.93,55.46,46.13,53.37,48.86-2.1,2.75-59.57-40.22-61.9-37.69-2.34,2.54,46,55.42,43.44,57.73-2.56,2.31-51.15-50.35-53.92-48.28-2.76,2.07,35.03,62.82,32.08,64.63-2.94,1.81-41-58.77-44.11-57.23-3.09,1.53,22.83,68.11,19.58,69.36-3.22,1.24-29.39-65.24-32.74-64.3-3.32.94,9.76,71.11,6.33,71.74-3.39.62-16.7-69.5-20.18-69.19-3.43.31-3.64,71.66-7.14,71.65-3.43,0-3.55-71.36-7.04-71.68-3.49-.32-16.8,69.79-20.18,69.16-3.44-.64,9.55-70.81,6.24-71.74-3.36-.95-29.42,65.54-32.63,64.3-3.25-1.25,22.58-67.82,19.49-69.35-3.12-1.54-41.13,59-44.07,57.19-2.95-1.82,34.84-62.5,32.08-64.58-2.77-2.08-51.38,50.48-53.94,48.16-2.56-2.32,45.82-55.1,43.48-57.64-2.34-2.54-59.83,40.3-61.92,37.56-2.09-2.74,55.21-45.85,53.38-48.78-1.83-2.92-66.26,28.77-67.81,25.68-1.54-3.07,62.76-35.02,61.5-38.23-1.25-3.19-70.48,16.18-71.43,12.86-.95-3.29,68.21-22.91,67.57-26.3-.63-3.36-72.29,2.98-72.61-.47-.31-3.4,71.31-10,71.32-13.47,0-3.41-71.62-10.22-71.3-13.68.32-3.46,71.98,2.98,72.61-.36.64-3.41-68.54-23.04-67.61-26.32.95-3.33,70.21,16.04,71.45,12.86,1.26-3.22-63.09-35.19-61.55-38.25,1.55-3.09,66.01,28.66,67.83,25.75,1.83-2.93-55.46-46.13-53.37-48.86,2.1-2.75,59.57,40.22,61.9,37.69,2.34-2.54-46-55.42-43.44-57.73,2.56-2.31,51.15,50.35,53.92,48.28,2.76-2.07-35.03-62.82-32.08-64.63,2.94-1.81,41,58.77,44.11,57.23,3.09-1.53-22.83-68.11-19.58-69.36,3.22-1.24,29.39,65.24,32.74,64.3,3.32-.94-9.76-71.11-6.33-71.74,3.39-.62,16.7,69.5,20.18,69.19,3.43-.31,3.64-71.66,7.14-71.65,3.43,0,3.55,71.36,7.04,71.68,3.49.32,16.8-69.79,20.18-69.16,3.44.64-9.55,70.81-6.24,71.74,3.36.95,29.42-65.54,32.63-64.3,3.25,1.25-22.58,67.82-19.49,69.35,3.12,1.54,41.13-59,44.07-57.19,2.95,1.82-34.84,62.5-32.08,64.58,2.77,2.08,51.38-50.48,53.94-48.16,2.56,2.32-45.82,55.1-43.48,57.64,2.34,2.54,59.83-40.3,61.92-37.56,2.09,2.74-55.21,45.85-53.38,48.78,1.83,2.92,66.26-28.77,67.81-25.68,1.54,3.07-62.76,35.02-61.5,38.23,1.25,3.19,70.48-16.18,71.43-12.86.95,3.29-68.21,22.91-67.57,26.3.63,3.36,72.29-2.98,72.61.47.31,3.4-71.31,10-71.32,13.47,0,3.41,71.62,10.22,71.3,13.68Z" fill="none" stroke="#b097c6" stroke-miterlimit="10"/>
  <path d="M255.23,150.99c1.37,1.5-10.62,13.99-9.42,15.57,1.22,1.61,16.58-6.42,17.63-4.73,1.07,1.72-13.01,11.8-12.13,13.59.9,1.8,17.48-3.26,18.2-1.4.73,1.88-14.99,9.2-14.44,11.12.55,1.93,17.78,0,18.15,1.97.37,1.97-16.43,6.29-16.25,8.28s17.48,3.25,17.48,5.25c0,2-17.31,3.18-17.5,5.18-.19,1.99,16.59,6.37,16.22,8.34-.37,1.97-17.6-.03-18.15,1.91-.55,1.92,15.14,9.29,14.41,11.16-.73,1.86-17.29-3.25-18.19-1.46-.9,1.78,13.16,11.91,12.09,13.62-1.06,1.69-16.38-6.39-17.61-4.78-1.21,1.58,10.72,14.12,9.35,15.61-1.35,1.46-14.93-9.28-16.43-7.92-1.5,1.36,7.93,15.85,6.34,17.05-1.62,1.22-13.01-11.81-14.71-10.77-1.72,1.06,4.89,17.03,3.09,17.91-1.81.9-10.59-14-12.46-13.29-1.88.72,1.64,17.63-.29,18.18-1.94.55-7.8-15.71-9.78-15.35-1.98.36-1.64,17.63-3.64,17.81-2.01.18-4.77-16.87-6.78-16.88-2.01,0-4.85,17.04-6.85,16.85-2-.19-1.59-17.46-3.57-17.83-1.97-.37-7.89,15.87-9.83,15.32-1.93-.55,1.65-17.45-.23-18.18-1.87-.72-10.69,14.15-12.49,13.25-1.79-.89,4.86-16.84,3.14-17.91-1.7-1.05-13.13,11.94-14.74,10.72s7.91-15.65,6.41-17.02c-1.47-1.34-15.1,9.34-16.47,7.84-1.37-1.5,10.62-13.99,9.42-15.57-1.22-1.61-16.58,6.42-17.63,4.73-1.07-1.72,13.01-11.8,12.13-13.59-.9-1.8-17.48,3.26-18.2,1.4-.73-1.88,14.99-9.2,14.44-11.12-.55-1.93-17.78,0-18.15-1.97-.37-1.97,16.43-6.29,16.25-8.28-.18-2-17.48-3.25-17.48-5.25,0-2,17.31-3.18,17.5-5.18.19-1.99-16.59-6.37-16.22-8.34.37-1.97,17.6.03,18.15-1.91.55-1.92-15.14-9.29-14.41-11.16.73-1.86,17.29,3.25,18.19,1.46.9-1.78-13.16-11.91-12.09-13.62,1.06-1.69,16.38,6.39,17.61,4.78,1.21-1.58-10.72-14.12-9.35-15.61,1.35-1.46,14.93,9.28,16.43,7.92,1.5-1.36-7.93-15.85-6.34-17.05,1.62-1.22,13.01,11.81,14.71,10.77,1.72-1.06-4.89-17.03-3.09-17.91,1.81-.9,10.59,14,12.46,13.29,1.88-.72-1.64-17.63.29-18.18,1.94-.55,7.8,15.71,9.78,15.35,1.98-.36,1.64-17.63,3.64-17.81,2.01-.18,4.77,16.87,6.78,16.88,2.01,0,4.85-17.04,6.85-16.85,2,.19,1.59,17.46,3.57,17.83,1.97.37,7.89-15.87,9.83-15.32s-1.65,17.45.23,18.18c1.87.72,10.69-14.15,12.49-13.25,1.79.89-4.86,16.84-3.14,17.91s13.13-11.94,14.74-10.72c1.59,1.2-7.91,15.65-6.41,17.02s15.1-9.34,16.47-7.84Z" fill="none" stroke="#cdb9d9" stroke-miterlimit="10"/>
</svg>